<svg width="24" height="24" viewBox="0 0 24 24" fill="none" xmlns="http://www.w3.org/2000/svg">
<path opacity="0.32" d="M21 5.66667C21 4.95942 20.7037 4.28115 20.1762 3.78105C19.6488 3.28095 18.9334 3 18.1875 3H5.8125C5.06658 3 4.35121 3.28095 3.82376 3.78105C3.29632 4.28115 3 4.95942 3 5.66667V9.93333C3 10.2162 3.11853 10.4875 3.32951 10.6876C3.54048 10.8876 3.82663 11 4.125 11C4.42337 11 4.70952 10.8876 4.9205 10.6876C5.13147 10.4875 5.25 10.2162 5.25 9.93333V5.66667C5.25 5.52522 5.30926 5.38956 5.41475 5.28954C5.52024 5.18952 5.66332 5.13333 5.8125 5.13333H18.1875C18.3367 5.13333 18.4798 5.18952 18.5852 5.28954C18.6907 5.38956 18.75 5.52522 18.75 5.66667V9.93333C18.75 10.2162 18.8685 10.4875 19.0795 10.6876C19.2905 10.8876 19.5766 11 19.875 11C20.1734 11 20.4595 10.8876 20.6705 10.6876C20.8815 10.4875 21 10.2162 21 9.93333V5.66667Z" fill="#1877F2"/>
<path d="M18.8972 20.6792L21.6747 17.822C21.883 17.6077 22 17.3171 22 17.014C22 16.711 21.883 16.4204 21.6747 16.206L18.8972 13.3489C18.6889 13.1345 18.4062 13.0139 18.1115 13.0138C17.8168 13.0137 17.5341 13.134 17.3256 13.3483C17.1172 13.5626 17 13.8533 16.9999 14.1565C16.9998 14.4597 17.1168 14.7505 17.3251 14.9649L19.3171 17.014L17.3251 19.0632C17.1227 19.2787 17.0107 19.5674 17.0133 19.8671C17.0158 20.1667 17.1326 20.4534 17.3386 20.6653C17.5446 20.8772 17.8233 20.9974 18.1146 21C18.4059 21.0026 18.6876 20.8874 18.8972 20.6792ZM2.32529 16.206C2.11701 16.4204 2 16.711 2 17.014C2 17.3171 2.11701 17.6077 2.32529 17.822L5.10283 20.6792C5.31236 20.8874 5.59301 21.0026 5.88431 21C6.17562 20.9974 6.45427 20.8772 6.66027 20.6653C6.86626 20.4534 6.9831 20.1667 6.98563 19.8671C6.98816 19.5674 6.87618 19.2787 6.6738 19.0632L4.68286 17.014L6.67491 14.9649C6.78102 14.8595 6.86566 14.7334 6.92389 14.5939C6.98212 14.4545 7.01277 14.3045 7.01405 14.1528C7.01533 14.001 6.98722 13.8505 6.93136 13.7101C6.87549 13.5696 6.793 13.442 6.68868 13.3347C6.58436 13.2274 6.46032 13.1426 6.32378 13.0851C6.18724 13.0276 6.04094 12.9987 5.89342 13C5.7459 13.0014 5.60011 13.0329 5.46457 13.0928C5.32902 13.1527 5.20642 13.2397 5.10394 13.3489L2.32529 16.206ZM13.111 17.014C13.111 16.7109 12.994 16.4202 12.7856 16.2059C12.5773 15.9916 12.2947 15.8712 12 15.8712C11.7053 15.8712 11.4228 15.9916 11.2144 16.2059C11.006 16.4202 10.889 16.7109 10.889 17.014C10.889 17.3171 11.006 17.6078 11.2144 17.8222C11.4228 18.0365 11.7053 18.1569 12 18.1569C12.2947 18.1569 12.5773 18.0365 12.7856 17.8222C12.994 17.6078 13.111 17.3171 13.111 17.014ZM8.66696 15.8712C8.96162 15.8712 9.24421 15.9916 9.45256 16.2059C9.66092 16.4202 9.77797 16.7109 9.77797 17.014C9.77797 17.3171 9.66092 17.6078 9.45256 17.8222C9.24421 18.0365 8.96162 18.1569 8.66696 18.1569H7.55594C7.26129 18.1569 6.97869 18.0365 6.77034 17.8222C6.56198 17.6078 6.44493 17.3171 6.44493 17.014C6.44493 16.7109 6.56198 16.4202 6.77034 16.2059C6.97869 15.9916 7.26129 15.8712 7.55594 15.8712H8.66696ZM17.5551 17.014C17.5551 16.7109 17.438 16.4202 17.2297 16.2059C17.0213 15.9916 16.7387 15.8712 16.4441 15.8712H15.333C15.0384 15.8712 14.7558 15.9916 14.5474 16.2059C14.3391 16.4202 14.222 16.7109 14.222 17.014C14.222 17.3171 14.3391 17.6078 14.5474 17.8222C14.7558 18.0365 15.0384 18.1569 15.333 18.1569H16.4441C16.7387 18.1569 17.0213 18.0365 17.2297 17.8222C17.438 17.6078 17.5551 17.3171 17.5551 17.014Z" fill="#1877F2"/>
</svg>
