<svg width="24" height="24" viewBox="0 0 24 24" fill="none" xmlns="http://www.w3.org/2000/svg">
<path d="M8.1142 2.09547C8.40351 1.96942 8.72947 1.99777 9.03624 2.01696C9.32511 2.03353 9.62838 2.13255 9.81122 2.36852C9.98184 2.57308 10.0386 2.84395 10.0482 3.10435C10.1612 4.96202 10.2397 6.82754 10.1219 8.68695C10.0909 9.40751 9.49311 10.0426 8.77616 10.1198C7.83143 10.1979 6.88234 10.1778 5.93542 10.1795C5.14909 10.1468 4.36145 10.1473 3.57731 10.0775C3.27709 10.0504 2.96814 10.0705 2.67708 9.97977C2.35112 9.88556 2.08843 9.59158 2.04305 9.25398C1.99636 8.95215 1.98501 8.6429 2.0221 8.33976C2.05396 8.09375 2.2189 7.87915 2.43534 7.76357C2.68799 7.61047 2.99127 7.60131 3.27752 7.58038C4.66778 7.49096 6.0611 7.47002 7.45354 7.46435C7.46663 5.95126 7.48801 4.43642 7.60714 2.92726C7.62459 2.59009 7.80219 2.24682 8.1142 2.09547Z" fill="#1877F2"/>
<path d="M14.421 2.16788C14.6763 2.01609 14.9835 2.01129 15.2715 2.00082C15.5385 1.99821 15.8353 2.01434 16.0456 2.20103C16.2869 2.39556 16.3855 2.71135 16.4004 3.011C16.506 4.49313 16.5225 5.97961 16.5295 7.46435C17.9726 7.47264 19.4169 7.48921 20.8565 7.59084C21.141 7.60567 21.4378 7.65365 21.6699 7.83161C21.8562 7.96813 21.9732 8.19146 21.9889 8.42132C22.0103 8.71312 22.0028 9.00929 21.9487 9.29716C21.8842 9.64348 21.5918 9.92613 21.2501 10.0003C20.9015 10.0801 20.5393 10.0535 20.1858 10.0962C19.002 10.1704 17.8155 10.1913 16.6294 10.1782C16.1342 10.166 15.6376 10.166 15.1454 10.1098C14.4769 10.0042 13.9266 9.40838 13.8825 8.73231C13.7538 6.81401 13.8267 4.8883 13.9624 2.97262C13.9746 2.6516 14.1404 2.33232 14.421 2.16788Z" fill="#1877F2"/>
<path d="M3.01353 13.9586C4.79827 13.8569 6.58824 13.7645 8.37515 13.8617C8.65661 13.8718 8.94592 13.8862 9.20599 14.0057C9.74446 14.2277 10.0992 14.7851 10.125 15.3604C10.2336 17.0903 10.1725 18.8258 10.0656 20.554C10.0346 20.8837 10.0709 21.2409 9.8841 21.5327C9.7209 21.8163 9.3945 21.9593 9.07901 21.982C8.80148 22.0082 8.51784 22.0108 8.24381 21.9558C7.93617 21.8734 7.71013 21.5925 7.64293 21.2885C7.57966 21.0041 7.57006 20.7119 7.55217 20.4222C7.48497 19.1251 7.46489 17.8261 7.4614 16.5272C7.12802 16.5063 6.7942 16.5255 6.46082 16.518C5.26256 16.4975 4.06386 16.4779 2.86866 16.3828C2.56975 16.3606 2.2752 16.207 2.12029 15.9449C1.98153 15.7028 2.00073 15.4123 2.00422 15.1432C2.0208 14.8894 2.02909 14.6154 2.17571 14.3965C2.3568 14.1191 2.68757 13.966 3.01353 13.9586Z" fill="#1877F2"/>
<path d="M15.6236 13.8617C17.4123 13.7645 19.2036 13.8569 20.99 13.9586C21.3147 13.9669 21.6424 14.1199 21.8222 14.3969C21.9832 14.6416 21.985 14.9465 21.998 15.2291C22.0011 15.4799 22.0068 15.7526 21.8628 15.9706C21.7009 16.2223 21.4081 16.3632 21.1148 16.3846C19.5924 16.498 18.0646 16.5303 16.5382 16.5285C16.5221 18.0006 16.4959 19.4736 16.3969 20.943C16.4025 21.271 16.2921 21.6213 16.019 21.8228C15.8113 21.9947 15.5289 21.9933 15.2741 21.9999C15.0489 21.9977 14.8198 21.9868 14.6034 21.9192C14.3713 21.8446 14.1697 21.6719 14.0715 21.4477C13.9672 21.2353 13.955 20.9945 13.9379 20.7629C13.8306 18.9502 13.7617 17.13 13.8777 15.3159C13.9004 14.7415 14.2875 14.2033 14.8216 13.993C15.0734 13.8814 15.3531 13.8744 15.6236 13.8617Z" fill="#1877F2"/>
</svg>
