<svg width="24" height="24" viewBox="0 0 24 24" fill="none" xmlns="http://www.w3.org/2000/svg">
<path opacity="0.32" d="M17.1229 18.16C16.5754 18.16 16.0833 18.0577 15.6464 17.8531C15.2096 17.6485 14.864 17.3526 14.6096 16.9656C14.3552 16.5729 14.228 16.0974 14.228 15.5389C14.228 14.5988 14.5792 13.8855 15.2814 13.3989C15.9837 12.9067 17.0924 12.6523 18.6076 12.6357L19.6776 12.6192V12.1049C19.6776 11.7123 19.5615 11.4109 19.3292 11.2008C19.1025 10.9851 18.7486 10.88 18.2675 10.8856C17.9136 10.8911 17.5763 10.974 17.2556 11.1344C16.9404 11.2948 16.7247 11.574 16.6086 11.9722H14.593C14.6262 11.3528 14.8059 10.8441 15.1321 10.446C15.4584 10.0423 15.9008 9.74368 16.4593 9.55013C17.0233 9.35106 17.662 9.25153 18.3754 9.25153C19.2546 9.25153 19.9596 9.36212 20.4905 9.58331C21.0214 9.79897 21.4057 10.1114 21.6435 10.5206C21.8812 10.9243 22.0001 11.4054 22.0001 11.9639V17.9941H19.9762L19.7772 16.5176C19.4841 17.137 19.1163 17.5655 18.674 17.8033C18.2371 18.0411 17.7201 18.16 17.1229 18.16ZM17.9357 16.5674C18.1569 16.5674 18.3698 16.5287 18.5744 16.4513C18.7846 16.3683 18.9698 16.2605 19.1302 16.1278C19.2961 15.9896 19.4288 15.8347 19.5283 15.6633C19.6278 15.4919 19.6776 15.3149 19.6776 15.1324V13.8634L18.8067 13.8799C18.403 13.8855 18.027 13.9352 17.6786 14.0292C17.3302 14.1177 17.0482 14.2643 16.8326 14.4689C16.6224 14.6735 16.5174 14.95 16.5174 15.2983C16.5174 15.6965 16.6556 16.0089 16.9321 16.2356C17.2086 16.4568 17.5431 16.5674 17.9357 16.5674Z" fill="#1877F2"/>
<path d="M2 17.9941L6.29663 6H8.85139L13.1397 17.9941H10.726L9.74721 15.2154H5.43399L4.43033 17.9941H2ZM5.97314 13.1002H9.16658L7.5823 8.33909L5.97314 13.1002Z" fill="#1877F2"/>
</svg>
