<svg width="24" height="24" viewBox="0 0 24 24" fill="none" xmlns="http://www.w3.org/2000/svg">
<path d="M3.57576 2.06239C5.34111 1.93372 7.1117 2.02968 8.87618 2.12084C9.15804 2.14396 9.45867 2.14832 9.70693 2.30143C9.97222 2.45802 10.1371 2.75246 10.1585 3.05692C10.1834 3.35222 10.2065 3.65538 10.1411 3.94719C10.0486 4.30531 9.69384 4.53824 9.33824 4.57139C7.80196 4.69091 6.26 4.72144 4.71979 4.71882C4.70539 6.27386 4.67834 7.83064 4.56097 9.38175C4.51341 9.75339 4.23242 10.1146 3.84628 10.1656C3.54129 10.1996 3.23063 10.1857 2.92739 10.1399C2.64203 10.1028 2.38242 9.91478 2.26156 9.65393C2.15074 9.43584 2.13677 9.18764 2.12194 8.94861C2.01373 7.14799 1.94741 5.34084 2.05824 3.53892C2.07176 3.1145 2.27247 2.70055 2.60102 2.43054C2.86848 2.19413 3.22365 2.08115 3.57576 2.06239Z" fill="#1877F2"/>
<path d="M15.1553 2.1191C16.9101 2.02837 18.6716 1.93459 20.4269 2.06239C20.8004 2.08159 21.1778 2.20983 21.4474 2.47634C21.776 2.76292 21.9318 3.20043 21.9492 3.6279C22.0483 5.3295 21.9894 7.03545 21.8846 8.73531C21.8545 9.04195 21.8877 9.36779 21.7415 9.65045C21.6194 9.91129 21.3615 10.0989 21.0766 10.1385C20.7611 10.187 20.4369 10.2022 20.1202 10.1608C19.7982 10.1019 19.5481 9.82274 19.4692 9.51348C19.3946 9.21425 19.3902 8.90368 19.3701 8.59747C19.3025 7.3059 19.2846 6.01171 19.2798 4.71839C17.8823 4.70094 16.4821 4.69789 15.0868 4.60149C14.8546 4.58448 14.6155 4.58971 14.3943 4.50858C14.1125 4.40825 13.8799 4.15264 13.8415 3.85123C13.8035 3.54502 13.8153 3.23314 13.8629 2.92824C13.9122 2.6011 14.1626 2.32368 14.4729 2.21768C14.6919 2.14309 14.9262 2.13611 15.1553 2.1191Z" fill="#1877F2"/>
<path d="M2.63156 13.9749C2.90688 13.8257 3.23019 13.8283 3.53474 13.8218C3.7769 13.8183 4.04349 13.841 4.23068 14.0133C4.47545 14.2113 4.57101 14.5323 4.58409 14.8364C4.69056 16.3133 4.70539 17.7951 4.71237 19.2751C6.18103 19.2856 7.65143 19.3008 9.11703 19.4081C9.45605 19.4247 9.82692 19.5338 10.0294 19.8264C10.2109 20.0873 10.1856 20.4218 10.1764 20.7237C10.1642 21.0264 10.1219 21.3601 9.88364 21.5756C9.61094 21.8696 9.18117 21.8556 8.81335 21.877C7.18849 21.9904 5.55753 22.0279 3.92961 21.9668C3.61721 21.9424 3.29302 21.9538 2.99894 21.829C2.53077 21.6284 2.1647 21.1861 2.08485 20.6796C2.053 20.4925 2.05038 20.3023 2.03904 20.1139C1.95177 18.3395 2.02115 16.562 2.14506 14.7914C2.16208 14.4634 2.33355 14.1302 2.63156 13.9749Z" fill="#1877F2"/>
<path d="M19.7925 13.9949C20.0037 13.8187 20.2938 13.8179 20.5547 13.8226C20.8615 13.8309 21.1939 13.8436 21.4544 14.0264C21.7276 14.2178 21.8558 14.5563 21.8641 14.8813C21.9776 16.7543 22.0583 18.6356 21.9396 20.5108C21.9017 21.2114 21.3253 21.8438 20.6254 21.9258C19.9941 21.9913 19.3583 21.9782 18.7248 22C17.3683 21.9786 16.01 21.9586 14.6579 21.8369C14.338 21.8028 14.0461 21.5874 13.9218 21.2907C13.8323 21.0552 13.8293 20.7983 13.8201 20.5497C13.8214 20.3015 13.8179 20.0301 13.9733 19.8212C14.1897 19.5194 14.5776 19.4182 14.931 19.4033C16.3757 19.303 17.8242 19.2829 19.2719 19.2755C19.2855 17.7802 19.3064 16.2832 19.4212 14.7919C19.4338 14.4913 19.5468 14.1821 19.7925 13.9949Z" fill="#1877F2"/>
</svg>
