<svg width="24" height="24" viewBox="0 0 24 24" fill="none" xmlns="http://www.w3.org/2000/svg">
<path opacity="0.32" fill-rule="evenodd" clip-rule="evenodd" d="M20.5847 4.172C21.6665 5.343 21.6665 7.229 21.6665 11V13C21.6665 16.771 21.6665 18.657 20.5847 19.828C19.5037 21 17.7628 21 14.2819 21H9.6665V3H14.2819C17.7628 3 19.5037 3 20.5847 4.172Z" fill="#1877F2"/>
<path d="M1.6665 13.0007V10.9993C1.6665 7.22582 1.6665 5.33856 2.8385 4.16678C3.8125 3.19113 6.0305 3.02702 8.6665 3V21C6.0305 20.973 3.8125 20.8089 2.8385 19.8332C1.6665 18.6614 1.6665 16.7742 1.6665 13.0007Z" fill="#1877F2"/>
</svg>
