<svg width="24" height="24" viewBox="0 0 24 24" fill="none" xmlns="http://www.w3.org/2000/svg">
<path opacity="0.32" fill-rule="evenodd" clip-rule="evenodd" d="M20.828 4.172C22 5.343 22 7.229 22 11V13C22 16.771 22 18.657 20.828 19.828C19.657 21 17.771 21 14 21H9V3H14C17.771 3 19.657 3 20.828 4.172Z" fill="#1877F2"/>
<path d="M18.5 9.244C18.6989 9.244 18.8897 9.32302 19.0303 9.46367C19.171 9.60432 19.25 9.79509 19.25 9.994C19.25 10.1929 19.171 10.3837 19.0303 10.5243C18.8897 10.665 18.6989 10.744 18.5 10.744H12.5C12.3011 10.744 12.1103 10.665 11.9697 10.5243C11.829 10.3837 11.75 10.1929 11.75 9.994C11.75 9.79509 11.829 9.60432 11.9697 9.46367C12.1103 9.32302 12.3011 9.244 12.5 9.244H18.5ZM17.5 13.244C17.6989 13.244 17.8897 13.323 18.0303 13.4637C18.171 13.6043 18.25 13.7951 18.25 13.994C18.25 14.1929 18.171 14.3837 18.0303 14.5243C17.8897 14.665 17.6989 14.744 17.5 14.744H13.5C13.3011 14.744 13.1103 14.665 12.9697 14.5243C12.829 14.3837 12.75 14.1929 12.75 13.994C12.75 13.7951 12.829 13.6043 12.9697 13.4637C13.1103 13.323 13.3011 13.244 13.5 13.244H17.5ZM2 12.994V10.994C2 7.223 2 5.337 3.172 4.166C4.146 3.191 6.364 3.027 9 3V20.988C6.364 20.961 4.146 20.797 3.172 19.822C2 18.651 2 16.765 2 12.994Z" fill="#1877F2"/>
</svg>
