<svg width="24" height="24" viewBox="0 0 24 24" fill="none" xmlns="http://www.w3.org/2000/svg">
<path fill-rule="evenodd" clip-rule="evenodd" d="M14.557 2.25C16.395 2.25 17.851 2.25 18.99 2.403C20.162 2.561 21.111 2.893 21.86 3.641C22.608 4.39 22.94 5.339 23.098 6.511C23.251 7.651 23.251 9.106 23.251 10.944V13.056C23.251 14.894 23.251 16.35 23.098 17.489C22.94 18.661 22.608 19.61 21.86 20.359C21.111 21.107 20.162 21.439 18.99 21.597C17.85 21.75 16.395 21.75 14.557 21.75H9.53498C9.51097 21.7508 9.48695 21.7505 9.46298 21.749C8.07898 21.745 6.93998 21.722 6.01198 21.597C4.83998 21.439 3.89098 21.107 3.14198 20.359C2.39398 19.61 2.06198 18.661 1.90398 17.489C1.75098 16.349 1.75098 14.894 1.75098 13.056V10.944C1.75098 9.106 1.75098 7.65 1.90398 6.511C2.06198 5.339 2.39398 4.39 3.14198 3.641C3.89098 2.893 4.83998 2.561 6.01198 2.403C6.93998 2.278 8.07898 2.255 9.46198 2.251C9.4863 2.24984 9.51066 2.24984 9.53498 2.251L10.445 2.25H14.557ZM10.251 3.75H14.501C16.408 3.75 17.762 3.752 18.791 3.89C19.796 4.025 20.376 4.279 20.799 4.702C21.222 5.125 21.476 5.705 21.611 6.711C21.749 7.739 21.751 9.093 21.751 11V13C21.751 14.907 21.749 16.262 21.611 17.29C21.476 18.295 21.222 18.875 20.799 19.298C20.376 19.721 19.796 19.975 18.79 20.11C17.762 20.248 16.408 20.25 14.501 20.25H10.251V3.75ZM8.75098 20.244C7.71698 20.234 6.89298 20.202 6.21098 20.11C5.20598 19.975 4.62598 19.721 4.20298 19.298C3.77998 18.875 3.52598 18.295 3.39098 17.289C3.25298 16.262 3.25098 14.907 3.25098 13V11C3.25098 9.093 3.25298 7.739 3.39098 6.71C3.52598 5.705 3.77998 5.125 4.20298 4.702C4.62598 4.279 5.20598 4.025 6.21198 3.89C6.89198 3.798 7.71698 3.767 8.75098 3.756V20.244Z" fill="#1877F2"/>
<path d="M4.49991 9C4.49991 8.58579 4.8357 8.25 5.24991 8.25H6.74991C7.16412 8.25 7.49991 8.58579 7.49991 9C7.49991 9.41421 7.16412 9.75 6.74991 9.75H5.24991C4.8357 9.75 4.49991 9.41421 4.49991 9Z" fill="#1877F2"/>
<path d="M4.49991 12C4.49991 11.5858 4.8357 11.25 5.24991 11.25H6.74991C7.16412 11.25 7.49991 11.5858 7.49991 12C7.49991 12.4142 7.16412 12.75 6.74991 12.75H5.24991C4.8357 12.75 4.49991 12.4142 4.49991 12Z" fill="#1877F2"/>
<path d="M4.49991 15C4.49991 14.5858 4.8357 14.25 5.24991 14.25H6.74991C7.16412 14.25 7.49991 14.5858 7.49991 15C7.49991 15.4142 7.16412 15.75 6.74991 15.75H5.24991C4.8357 15.75 4.49991 15.4142 4.49991 15Z" fill="#1877F2"/>
</svg>
