<svg width="24" height="24" viewBox="0 0 24 24" fill="none" xmlns="http://www.w3.org/2000/svg">
<path fill-rule="evenodd" clip-rule="evenodd" d="M18.99 2.403C17.851 2.25 16.395 2.25 14.557 2.25H10.445L9.53498 2.251C9.51066 2.24984 9.4863 2.24984 9.46198 2.251C8.07898 2.255 6.93998 2.278 6.01198 2.403C4.83998 2.561 3.89098 2.893 3.14198 3.641C2.39398 4.39 2.06198 5.339 1.90398 6.511C1.75098 7.65 1.75098 9.106 1.75098 10.944V13.056C1.75098 14.894 1.75098 16.349 1.90398 17.489C2.06198 18.661 2.39398 19.61 3.14198 20.359C3.89098 21.107 4.83998 21.439 6.01198 21.597C6.93998 21.722 8.07898 21.745 9.46298 21.749C9.48695 21.7505 9.51097 21.7508 9.53498 21.75H14.557C16.395 21.75 17.85 21.75 18.99 21.597C20.162 21.439 21.111 21.107 21.86 20.359C22.608 19.61 22.94 18.661 23.098 17.489C23.251 16.35 23.251 14.894 23.251 13.056V10.944C23.251 9.106 23.251 7.651 23.098 6.511C22.94 5.339 22.608 4.39 21.86 3.641C21.111 2.893 20.162 2.561 18.99 2.403ZM14.501 3.75H10.251V20.25H14.501C16.408 20.25 17.762 20.248 18.79 20.11C19.796 19.975 20.376 19.721 20.799 19.298C21.222 18.875 21.476 18.295 21.611 17.29C21.749 16.262 21.751 14.907 21.751 13V11C21.751 9.093 21.749 7.739 21.611 6.711C21.476 5.705 21.222 5.125 20.799 4.702C20.376 4.279 19.796 4.025 18.791 3.89C17.762 3.752 16.408 3.75 14.501 3.75ZM4.49993 9C4.49993 8.58579 4.83571 8.25 5.24993 8.25H6.74993C7.16414 8.25 7.49993 8.58579 7.49993 9C7.49993 9.41421 7.16414 9.75 6.74993 9.75H5.24993C4.83571 9.75 4.49993 9.41421 4.49993 9ZM4.49993 12C4.49993 11.5858 4.83571 11.25 5.24993 11.25H6.74993C7.16414 11.25 7.49993 11.5858 7.49993 12C7.49993 12.4142 7.16414 12.75 6.74993 12.75H5.24993C4.83571 12.75 4.49993 12.4142 4.49993 12ZM5.24993 14.25C4.83571 14.25 4.49993 14.5858 4.49993 15C4.49993 15.4142 4.83571 15.75 5.24993 15.75H6.74993C7.16414 15.75 7.49993 15.4142 7.49993 15C7.49993 14.5858 7.16414 14.25 6.74993 14.25H5.24993Z" fill="#1877F2"/>
</svg>
