<?xml version="1.0" encoding="UTF-8"?>
<svg id="uuid-6aa0ea97-ab1b-481d-8fa2-5130d5e600a7" data-name="图层 1" xmlns="http://www.w3.org/2000/svg" viewBox="0 0 622.5 212.6">
  <defs>
    <style>
      .uuid-bb0593d8-b883-4663-8d92-c184598f648e {
        fill: #fff;
      }
    </style>
  </defs>
  <path class="uuid-bb0593d8-b883-4663-8d92-c184598f648e" d="M108.09,193.11c-14.58-13.12-28.73-25.87-43.3-38.98-.07,1.47-.15,2.37-.15,3.28-.06,17.17-.11,34.34-.17,51.52q-.01,3.68-3.74,3.67c-4.88-.02-9.77-.13-14.65,0-1.92,.05-2.42-.46-2.41-2.43,.14-17.95,.16-35.91,.22-53.86,0-.59,0-1.19,0-2.34-14.68,13.1-29,25.88-43.3,38.64-.89-.4-.54-1.11-.54-1.64,0-8.5,.07-17,.03-25.5,0-1.34,.41-2.19,1.39-3.08,16.08-14.56,32.11-29.17,48.17-43.77,.37-.34,.8-.61,1.33-1-1.05-.94-2.02-.61-2.88-.62-15.07-.07-30.15-.16-45.22-.11-2.17,0-2.71-.59-2.64-2.74,.18-5.37,.21-10.76,.05-16.13-.07-2.18,.71-2.49,2.6-2.48,14.99,.12,29.98,.13,44.97,.18,.94,0,1.87,0,3.24,.01-1.16-2.04-2.82-3.11-4.2-4.38C31.86,77.46,16.78,63.59,1.68,49.75c-.83-.76-1.2-1.5-1.19-2.64,.07-9.1,.08-18.21,.11-27.96,14.62,13.21,28.89,26.11,43.61,39.41,0-1.4,0-2.3,.01-3.21,.06-17.61,.15-35.21,.12-52.82,0-2.1,.61-2.58,2.58-2.53,5.22,.15,10.45,.21,15.67,.04,2.26-.07,2.61,.72,2.59,2.79-.14,17.43-.16,34.86-.21,52.3,0,.93,0,1.86-.01,3.52,14.71-13.17,28.93-25.91,43.25-38.74,.58,.91,.36,1.69,.36,2.42,0,7.89-.12,15.79-.01,23.68,.03,2.19-.63,3.64-2.24,5.1-15.7,14.21-31.32,28.5-46.97,42.78-.43,.39-.85,.8-1.36,1.29,.93,.97,2,.58,2.93,.58,14.99,.08,29.98,.15,44.97,.12,1.9,0,2.65,.33,2.57,2.5-.19,5.46-.18,10.93-.06,16.39,.04,1.92-.42,2.47-2.39,2.45-15.07-.14-30.15-.15-45.22-.19-.91,0-1.82,0-3.41-.01,4.89,4.5,9.27,8.55,13.67,12.58,12.05,11.05,24.1,22.1,36.16,33.14,.6,.55,1.01,1.07,1,1.96-.06,9.27-.08,18.53-.11,28.42Z"/>
  <g>
    <path class="uuid-bb0593d8-b883-4663-8d92-c184598f648e" d="M186.51,163.1V55.29h39.5c28.07,0,42.11,11.34,42.11,34.01,0,14.95-6.18,25.32-18.52,31.11l24.02,42.69h-28.94l-19.82-37.91h-12.45v37.91h-25.9Zm25.9-58.32h11.58c12.64,0,18.96-5.16,18.96-15.48,0-4.92-1.59-8.39-4.78-10.42-3.09-2.03-7.81-3.04-14.18-3.04h-11.58v28.94Z"/>
    <path class="uuid-bb0593d8-b883-4663-8d92-c184598f648e" d="M349.3,153.33c-7.91,7.86-17.36,11.79-28.36,11.79s-20.48-3.93-28.43-11.79c-7.96-7.86-11.94-18.33-11.94-31.4s3.98-23.54,11.94-31.4c7.96-7.86,17.44-11.79,28.43-11.79s20.45,3.93,28.36,11.79c7.91,7.86,11.87,18.33,11.87,31.4s-3.96,23.54-11.87,31.4Zm-42.4-31.4c0,14.9,4.65,22.36,13.96,22.36s13.96-7.45,13.96-22.36-4.66-22.36-13.96-22.36-13.96,7.45-13.96,22.36Z"/>
    <path class="uuid-bb0593d8-b883-4663-8d92-c184598f648e" d="M441.48,153.33c-7.91,7.86-17.36,11.79-28.36,11.79s-20.48-3.93-28.43-11.79c-7.96-7.86-11.94-18.33-11.94-31.4s3.98-23.54,11.94-31.4c7.96-7.86,17.44-11.79,28.43-11.79s20.45,3.93,28.36,11.79c7.91,7.86,11.87,18.33,11.87,31.4s-3.96,23.54-11.87,31.4Zm-42.4-31.4c0,14.9,4.65,22.36,13.96,22.36s13.96-7.45,13.96-22.36-4.66-22.36-13.96-22.36-13.96,7.45-13.96,22.36Z"/>
    <path class="uuid-bb0593d8-b883-4663-8d92-c184598f648e" d="M533.08,155.43c-7.43,6.46-16.79,9.7-28.07,9.7s-20.79-3.86-28.51-11.58c-7.72-7.81-11.58-18.33-11.58-31.55s4.2-23.73,12.59-31.55c8.39-7.81,18.62-11.72,30.68-11.72,9.16,0,17.17,2.94,24.02,8.83l-12.01,16.35c-3.57-2.89-7.04-4.34-10.42-4.34-5.69,0-10.23,2.03-13.6,6.08-3.28,3.96-4.92,9.36-4.92,16.21s1.64,12.21,4.92,16.35c3.28,4.05,7.38,6.08,12.3,6.08s9.79-1.93,14.62-5.79l9.98,16.93Z"/>
    <path class="uuid-bb0593d8-b883-4663-8d92-c184598f648e" d="M547.26,163.1V47.48h25.76l-1.3,42.4c8.01-7.43,16.4-11.14,25.18-11.14,17.08,0,25.61,11.14,25.61,33.43v50.94h-25.76v-47.75c0-5.5-.77-9.31-2.32-11.43-1.45-2.12-3.72-3.18-6.8-3.18s-5.5,.58-7.53,1.74l-7.09,5.64v54.99h-25.76Z"/>
  </g>
</svg>