<?xml version="1.0" encoding="UTF-8"?>
<svg id="uuid-12f51ce2-48e9-459f-9870-0937149abb42" data-name="图层 1" xmlns="http://www.w3.org/2000/svg" viewBox="0 0 671.7 212.6">
  <defs>
    <style>
      .uuid-df56a94e-3620-40e2-ac49-2b5ed6f39ac6 {
        fill: #006840;
      }
    </style>
  </defs>
  <path class="uuid-df56a94e-3620-40e2-ac49-2b5ed6f39ac6" d="M105.48,191.02c-14.23-12.81-28.04-25.24-42.26-38.04-.07,1.43-.15,2.31-.15,3.2-.06,16.76-.11,33.52-.17,50.27q-.01,3.59-3.65,3.58c-4.76-.02-9.53-.13-14.29,0-1.87,.05-2.36-.45-2.35-2.38,.14-17.52,.16-35.04,.21-52.56,0-.58,0-1.16,0-2.28-14.32,12.78-28.3,25.26-42.25,37.71-.87-.39-.52-1.08-.52-1.6,0-8.29,.07-16.59,.03-24.88,0-1.31,.4-2.14,1.36-3,15.69-14.21,31.34-28.47,47-42.71,.36-.33,.79-.59,1.3-.98-1.03-.92-1.98-.6-2.81-.6-14.71-.07-29.42-.16-44.13-.1-2.12,0-2.65-.57-2.58-2.67,.17-5.24,.2-10.5,.04-15.74-.06-2.12,.69-2.43,2.53-2.42,14.63,.11,29.25,.13,43.88,.18,.91,0,1.83,0,3.16,.01-1.14-1.99-2.75-3.04-4.09-4.28-14.68-13.57-29.39-27.1-44.13-40.6-.81-.74-1.17-1.46-1.16-2.58,.07-8.88,.08-17.77,.11-27.28,14.27,12.89,28.2,25.48,42.55,38.45,0-1.36,0-2.25,.01-3.13,.05-17.18,.15-34.36,.11-51.54,0-2.05,.59-2.52,2.51-2.47,5.09,.15,10.2,.2,15.29,.04,2.2-.07,2.55,.7,2.53,2.72-.13,17.01-.15,34.02-.21,51.03,0,.91,0,1.81-.01,3.43,14.35-12.86,28.23-25.29,42.2-37.8,.56,.89,.35,1.65,.35,2.36,0,7.7-.12,15.4-.01,23.1,.03,2.14-.61,3.55-2.18,4.98-15.32,13.87-30.57,27.82-45.83,41.74-.42,.38-.82,.78-1.32,1.26,.9,.94,1.95,.56,2.86,.57,14.63,.07,29.25,.14,43.88,.12,1.85,0,2.59,.32,2.51,2.44-.19,5.33-.17,10.66-.06,15.99,.04,1.87-.41,2.41-2.33,2.39-14.71-.14-29.42-.14-44.13-.19-.89,0-1.78,0-3.33-.01,4.77,4.39,9.05,8.34,13.34,12.28,11.76,10.78,23.52,21.57,35.29,32.34,.59,.54,.99,1.04,.98,1.91-.05,9.04-.07,18.09-.1,27.73Z"/>
  <g>
    <path class="uuid-df56a94e-3620-40e2-ac49-2b5ed6f39ac6" d="M166.78,93.32V6.31h31.89c22.66,0,33.99,9.15,33.99,27.45,0,12.07-4.98,20.44-14.95,25.11l19.39,34.46h-23.36l-16-30.6h-10.04v30.6h-20.91Zm20.91-47.07h9.34c10.2,0,15.3-4.16,15.3-12.5,0-3.97-1.28-6.77-3.85-8.41-2.49-1.64-6.31-2.45-11.45-2.45h-9.34v23.36Z"/>
    <path class="uuid-df56a94e-3620-40e2-ac49-2b5ed6f39ac6" d="M298.18,85.44c-6.39,6.35-14.02,9.52-22.89,9.52s-16.53-3.17-22.95-9.52c-6.42-6.35-9.64-14.79-9.64-25.35s3.21-19,9.64-25.35c6.42-6.35,14.07-9.52,22.95-9.52s16.51,3.17,22.89,9.52c6.38,6.35,9.58,14.8,9.58,25.35s-3.19,19-9.58,25.35Zm-34.22-25.35c0,12.03,3.76,18.05,11.27,18.05s11.27-6.02,11.27-18.05-3.76-18.05-11.27-18.05-11.27,6.02-11.27,18.05Z"/>
    <path class="uuid-df56a94e-3620-40e2-ac49-2b5ed6f39ac6" d="M372.58,85.44c-6.39,6.35-14.02,9.52-22.89,9.52s-16.53-3.17-22.95-9.52c-6.42-6.35-9.64-14.79-9.64-25.35s3.21-19,9.64-25.35c6.42-6.35,14.07-9.52,22.95-9.52s16.51,3.17,22.89,9.52c6.38,6.35,9.58,14.8,9.58,25.35s-3.19,19-9.58,25.35Zm-34.22-25.35c0,12.03,3.76,18.05,11.27,18.05s11.27-6.02,11.27-18.05-3.76-18.05-11.27-18.05-11.27,6.02-11.27,18.05Z"/>
    <path class="uuid-df56a94e-3620-40e2-ac49-2b5ed6f39ac6" d="M446.52,87.13c-6,5.22-13.55,7.83-22.66,7.83s-16.78-3.11-23.01-9.34c-6.23-6.31-9.34-14.79-9.34-25.46s3.39-19.16,10.16-25.46c6.77-6.31,15.03-9.46,24.76-9.46,7.4,0,13.86,2.38,19.39,7.12l-9.69,13.2c-2.88-2.34-5.68-3.5-8.41-3.5-4.6,0-8.25,1.64-10.98,4.91-2.65,3.19-3.97,7.55-3.97,13.08s1.32,9.85,3.97,13.2c2.65,3.27,5.96,4.91,9.93,4.91s7.9-1.56,11.8-4.67l8.06,13.67Z"/>
    <path class="uuid-df56a94e-3620-40e2-ac49-2b5ed6f39ac6" d="M457.96,93.32V0h20.79l-1.05,34.22c6.46-5.99,13.24-8.99,20.32-8.99,13.78,0,20.67,8.99,20.67,26.98v41.11h-20.79V54.78c0-4.44-.62-7.51-1.87-9.23-1.17-1.71-3-2.57-5.49-2.57s-4.44,.47-6.07,1.4l-5.72,4.56v44.38h-20.79Z"/>
    <path class="uuid-df56a94e-3620-40e2-ac49-2b5ed6f39ac6" d="M166.78,210.96V123.95h15.3c3.97,0,6.81,1.75,8.53,5.26l28.15,55.71c-1.87-16.43-2.8-27.14-2.8-32.12v-28.85h19.86v80.59c0,4.28-2.14,6.42-6.42,6.42h-14.83l-30.6-60.97,1.05,9.46c1.09,9.81,1.64,17.36,1.64,22.66v28.85h-19.86Z"/>
    <path class="uuid-df56a94e-3620-40e2-ac49-2b5ed6f39ac6" d="M308.23,205.01c-7.09,5.06-15.3,7.59-24.64,7.59s-17.09-3.11-23.48-9.34c-6.31-6.31-9.46-14.72-9.46-25.23s3.15-19.08,9.46-25.46c6.31-6.46,13.86-9.69,22.66-9.69s15.65,2.96,20.56,8.88c4.91,5.92,7.36,13.63,7.36,23.13l-.93,8.99h-39.01c1.79,8.57,7.32,12.85,16.59,12.85,4.52,0,9.19-1.4,14.02-4.2l6.89,12.5Zm-37.84-34.81h20.44c1.48,0,2.02-.7,1.64-2.1,.39-6.23-2.92-9.34-9.93-9.34-3.04,0-5.65,.97-7.83,2.92l-4.32,8.53Z"/>
    <path class="uuid-df56a94e-3620-40e2-ac49-2b5ed6f39ac6" d="M348.76,212.6c-8.02,0-13.94-2.3-17.75-6.89-3.82-4.67-5.72-11.13-5.72-19.39v-25.58h-8.99v-15.42l10.28-.82,1.64-11.56c.47-4.05,2.76-6.07,6.89-6.07h4.56c4.28,0,6.42,2.1,6.42,6.31v11.33h15.65v16.24h-15.65v25.35c0,6.85,2.8,10.28,8.41,10.28l6.07-1.28,3.27,15.07-15.07,2.45Z"/>
    <path class="uuid-df56a94e-3620-40e2-ac49-2b5ed6f39ac6" d="M385.78,210.96l-16.35-66.46h20.56l8.76,49.64h.58l9.46-43.8c.86-3.89,3.31-5.84,7.36-5.84h5.72c4.05,0,6.5,1.95,7.36,5.84l9.93,43.8h.58l8.64-49.64h19.27l-15.65,66.46h-24.29l-9.69-44.85-8.53,44.85h-23.71Z"/>
    <path class="uuid-df56a94e-3620-40e2-ac49-2b5ed6f39ac6" d="M529.79,203.08c-6.39,6.35-14.02,9.52-22.89,9.52s-16.53-3.17-22.95-9.52c-6.42-6.35-9.64-14.79-9.64-25.35s3.21-19,9.64-25.35c6.42-6.35,14.07-9.52,22.95-9.52s16.51,3.17,22.89,9.52c6.38,6.35,9.58,14.8,9.58,25.35s-3.19,19-9.58,25.35Zm-34.22-25.35c0,12.03,3.76,18.05,11.27,18.05s11.27-6.02,11.27-18.05-3.76-18.05-11.27-18.05-11.27,6.02-11.27,18.05Z"/>
    <path class="uuid-df56a94e-3620-40e2-ac49-2b5ed6f39ac6" d="M552.45,210.96v-66.46h16.94l1.52,11.56c2.57-4.28,5.53-7.55,8.88-9.81,3.43-2.26,6.81-3.39,10.16-3.39l8.29,1.4-3.39,17.87c-2.96-.7-5.61-1.05-7.94-1.05s-4.83,.97-7.48,2.92c-2.57,1.95-4.63,4.95-6.19,8.99v37.96h-20.79Z"/>
    <path class="uuid-df56a94e-3620-40e2-ac49-2b5ed6f39ac6" d="M606.65,210.96V117.64h20.44v51.86h.58l19.62-25h22.78l-23.13,27.68,24.76,38.78h-22.54l-14.37-25.23-7.71,8.76v16.47h-20.44Z"/>
  </g>
</svg>