<svg width="126" height="44" viewBox="0 0 126 44" fill="none" xmlns="http://www.w3.org/2000/svg">
<path d="M45.1192 18.7465C45.5313 17.5948 45.8884 16.6044 46.2401 15.6141C46.7401 14.2052 47.2566 12.799 47.7209 11.3791C48.1275 10.1398 47.8363 9.71032 46.5698 9.5325C46.2813 9.49146 45.9241 9.5325 45.9516 9.08657C45.9818 8.6297 46.3527 8.73366 46.6302 8.73092C47.9104 8.72272 49.1907 8.72545 50.4709 8.72819C50.7236 8.72819 51.0011 8.7063 51.0561 9.04827C51.1083 9.36835 50.9077 9.50788 50.6275 9.54618C49.9022 9.65014 49.6137 10.2 49.3967 10.7827C47.6604 15.4581 45.9489 20.1417 44.2043 24.8171C43.6659 26.2589 43.2648 27.7635 42.4708 29.0986C41.4818 30.7647 40.0862 31.8371 38.0312 31.7824C37.2537 31.7605 36.5614 31.476 35.9708 30.9698C35.2702 30.3707 35.0834 28.7758 35.5971 27.8702C36.0861 27.0085 37.2922 26.5954 38.2949 26.9456C39.1136 27.2301 39.5395 27.9523 39.3994 29.0466C39.3307 29.591 39.5642 29.6731 39.9845 29.695C40.5312 29.7251 40.9571 29.5172 41.2812 29.0794C42.012 28.0946 42.4571 26.9866 42.7098 25.7965C42.8719 25.0333 42.5038 24.3794 42.2483 23.7037C40.6301 19.4195 39.0065 15.1381 37.3911 10.8539C37.1493 10.211 36.8471 9.64466 36.0724 9.53523C36.0065 9.52703 35.9158 9.49693 35.8911 9.45043C35.3389 8.36433 34.5559 9.10846 33.913 9.25619C33.152 9.43128 32.5476 9.96748 31.9817 10.5064C31.0421 11.401 30.1273 12.323 29.163 13.1902C28.7536 13.5595 28.7344 13.8222 29.0504 14.2653C31.0586 17.0777 33.0312 19.9119 35.0312 22.7298C35.4845 23.3699 35.7565 24.1578 36.5284 24.5463C36.7372 24.653 36.7098 24.8992 36.6768 25.1017C36.6356 25.3533 36.4543 25.4135 36.2235 25.4135C33.6411 25.4135 31.0586 25.4108 28.4734 25.4135C28.2179 25.4135 28.0146 25.367 28.0146 25.0552C28.0146 24.8007 27.9927 24.5354 28.3635 24.5107C28.5971 24.4943 28.8031 24.404 29.0036 24.2837C29.663 23.8925 29.7619 23.5231 29.3306 22.8912C28.152 21.1649 26.9679 19.4414 25.7701 17.7288C25.6135 17.5045 25.5146 17.0695 25.163 17.1926C24.814 17.3157 24.5228 17.6249 24.4239 18.0297C24.402 18.1173 24.4047 18.2103 24.4047 18.3006C24.4047 19.756 24.3827 21.2087 24.4157 22.6641C24.4432 23.9171 24.6107 24.1277 25.7674 24.5217C26.0366 24.6147 26.0393 24.7898 26.0448 24.9922C26.0503 25.2166 25.9899 25.4026 25.7124 25.4081C25.575 25.4108 25.4377 25.4163 25.3003 25.4163C22.9926 25.4163 20.6821 25.419 18.3744 25.4135C18.075 25.4135 17.6958 25.5257 17.6409 25.0333C17.5915 24.5819 17.8854 24.5436 18.2288 24.4779C18.7865 24.3712 19.0777 23.9636 19.1601 23.4301C19.2151 23.0717 19.2123 22.7051 19.2123 22.3413C19.2151 15.9779 19.2123 9.61731 19.2123 3.25395C19.2123 3.04877 19.2123 2.84359 19.2014 2.64114C19.1547 1.68089 18.9623 1.3909 18.0283 1.13921C17.6601 1.04073 17.6134 0.857432 17.6327 0.559235C17.6574 0.222738 17.8744 0.170759 18.1574 0.170759C20.0558 0.17623 21.9514 0.184437 23.8498 0.168023C24.4761 0.162551 24.3965 0.572914 24.3992 0.953183C24.3992 5.51915 24.3965 10.0879 24.4102 14.6538C24.4102 14.9903 24.1987 15.4855 24.5915 15.6305C24.9047 15.7454 25.1163 15.2721 25.3525 15.0478C26.586 13.8687 27.8086 12.6731 29.0339 11.4831C29.4872 11.0426 29.9322 10.5721 29.696 9.88268C29.4762 9.24251 28.8553 9.08931 28.2784 8.95252C27.9707 8.88139 27.6987 8.88413 27.7454 8.44367C27.7948 7.96218 28.1465 8.08802 28.413 8.08802C30.5614 8.07982 32.7097 8.08255 34.8581 8.08529C35.2152 8.08529 35.5999 8.00869 35.6548 8.56678C35.6823 8.8595 35.9845 8.72819 36.1713 8.72819C38.5257 8.73366 40.8801 8.72819 43.2346 8.72819C43.3939 8.72819 43.556 8.73366 43.7153 8.72819C43.9681 8.72272 44.1741 8.7747 44.1989 9.07836C44.2208 9.37109 44.0478 9.45863 43.7923 9.51882C42.1329 9.89635 41.9818 10.0769 42.5203 11.7156C43.2428 13.9124 44.067 16.0737 44.8527 18.2486C44.8939 18.3662 44.9681 18.4729 45.1164 18.752L45.1192 18.7465Z" fill="white"/>
<path d="M63.8225 15.9285C63.8225 15.4662 63.8308 15.034 63.8225 14.6017C63.8033 13.8576 63.7319 13.8165 63.1082 14.205C61.8307 14.9957 60.4599 15.3759 58.9434 15.272C55.1686 15.0148 51.1795 11.3407 53.6906 6.20295C56.24 0.98861 63.2456 0.485232 66.8253 5.21808C68.5643 7.51611 69.1962 10.1397 69.1577 12.9521C69.1083 16.6316 68.0314 19.9118 65.2593 22.5053C62.7676 24.8416 59.4928 25.4161 56.6109 23.9963C55.99 23.6899 55.4406 23.2905 55.001 22.7542C54.4131 22.0375 54.1439 21.2468 54.5367 20.355C54.9296 19.4604 55.6906 19.0199 56.6219 18.8996C57.534 18.7819 58.4241 18.8804 59.0395 19.6793C59.8335 20.7079 59.4434 22.0703 58.2153 22.6941C57.9873 22.809 57.5889 22.8336 57.6411 23.1728C57.6961 23.5257 58.0862 23.4984 58.3719 23.5449C60.8252 23.9388 62.7758 22.5819 63.3527 20.0814C63.4406 19.7066 63.5478 19.3318 63.5945 18.9516C63.7236 17.9393 63.8912 16.9271 63.8225 15.9313V15.9285ZM63.8527 9.11653C63.8582 7.15773 63.6742 5.54911 62.6632 4.15114C62.045 3.30032 61.2483 2.81609 60.1439 2.98844C59.0697 3.15532 58.523 3.91313 58.2401 4.82687C57.523 7.14131 57.5313 9.48312 58.262 11.7976C58.6906 13.1545 59.6357 13.9615 60.6824 13.9916C61.8692 14.0245 62.872 13.2502 63.4132 11.8933C63.8088 10.9002 63.8665 9.86339 63.8527 9.11653Z" fill="white"/>
<path d="M0.673731 21.7588C0.673731 20.577 0.673731 19.3951 0.673731 18.2133C0.673731 17.9725 0.616039 17.6962 1.0034 17.6606C1.32484 17.6305 1.51989 17.7208 1.60506 18.0519C1.72594 18.5115 1.87429 18.9656 2.0144 19.4197C2.73694 21.7807 4.15453 23.5918 6.47324 24.5328C8.03094 25.1648 9.6381 24.9733 11.0887 24.128C13.053 22.9817 13.27 20.2213 11.5337 18.7112C10.2672 17.6087 8.72875 16.9384 7.22874 16.2216C5.51444 15.4036 3.82761 14.5829 2.58034 13.07C-0.529577 9.28924 1.0089 3.73019 5.6573 2.16534C7.50896 1.54159 9.36337 1.90271 11.1848 2.41156C11.8634 2.60306 12.5337 2.83287 13.2123 3.02437C13.7947 3.18852 14.2453 3.02711 14.487 2.43618C14.531 2.33222 14.5969 2.23647 14.6491 2.13799C14.8057 1.848 15.064 1.79055 15.3497 1.86441C15.6437 1.93828 15.6162 2.20364 15.6162 2.42524C15.6217 4.28829 15.6189 6.15133 15.6189 8.01438C15.6189 8.24145 15.6327 8.47125 15.6162 8.69558C15.5942 8.94454 15.7398 9.28103 15.3387 9.36584C14.9788 9.43971 14.825 9.22905 14.6794 8.92539C14.2261 7.98429 13.7618 7.04866 13.2563 6.13766C12.1244 4.09678 10.4046 3.00248 8.0227 3.04078C6.50071 3.06541 5.42378 3.77944 4.81938 5.17467C4.32212 6.32095 4.64904 7.94052 5.58861 8.9035C6.69027 10.0334 8.14358 10.534 9.57217 11.0757C11.6628 11.8663 13.6079 12.8813 15.0667 14.6431C18.1574 18.3719 16.325 24.1444 11.6519 25.4685C9.38535 26.1114 7.15456 26.0895 4.91004 25.3837C4.193 25.1593 3.44574 25.0362 2.71771 24.8529C2.15177 24.7107 1.76715 24.8748 1.64077 25.4657C1.5611 25.8378 1.38528 26.0211 0.981427 25.95C0.555598 25.8734 0.68472 25.5451 0.681973 25.3043C0.668237 24.1225 0.676479 22.9406 0.676479 21.7588H0.673731Z" fill="white"/>
<path d="M112.315 27.6459C113.321 27.6459 114.329 27.6213 115.332 27.6569C115.859 27.676 116.087 27.5228 116.049 26.9675C116.01 26.3793 116.06 25.7856 116.035 25.1947C116.013 24.6913 116.216 24.5217 116.722 24.5244C117.208 24.5244 117.442 24.6503 117.414 25.1756C117.381 25.7884 117.436 26.4039 117.398 27.014C117.362 27.5557 117.618 27.6569 118.093 27.6514C120.129 27.635 122.162 27.6541 124.197 27.6377C124.692 27.6323 124.95 27.7198 124.936 28.308C124.923 28.8469 124.697 28.9536 124.228 28.9509C122.467 28.9345 120.706 28.9399 118.947 28.9509C118.689 28.9509 118.351 28.8196 118.186 29.0931C118.019 29.3722 118.307 29.602 118.436 29.8209C120.03 32.521 122.079 34.8136 124.686 36.5836C125.192 36.9256 125.12 37.128 124.744 37.5001C124 38.2333 124.021 38.2442 123.239 37.5877C121.101 35.7957 119.381 33.6673 118.016 31.2489C117.914 31.0684 117.865 30.7237 117.604 30.7756C117.271 30.8413 117.417 31.1915 117.414 31.4158C117.401 32.9396 117.436 34.4607 117.395 35.9845C117.379 36.611 117.62 36.7669 118.197 36.7396C119.019 36.7013 119.843 36.756 120.664 36.7232C121.173 36.704 121.346 36.8818 121.348 37.3879C121.348 37.8804 121.156 38.0144 120.695 38.0008C119.826 37.9761 118.958 38.0117 118.087 37.9898C117.596 37.9789 117.379 38.1512 117.401 38.6628C117.431 39.3878 117.387 40.1182 117.414 40.8432C117.434 41.3356 117.277 41.5271 116.752 41.5271C116.214 41.5271 116.01 41.3493 116.032 40.8158C116.063 40.0909 116.024 39.3604 116.043 38.6355C116.054 38.1704 115.87 37.9789 115.398 37.9871C114.508 38.0062 113.615 37.9871 112.722 37.9925C112.288 37.9953 111.931 38.0254 111.933 37.3797C111.933 36.7177 112.282 36.715 112.76 36.7232C113.651 36.7396 114.543 36.7122 115.436 36.7314C115.879 36.7396 116.049 36.57 116.043 36.1322C116.03 34.5181 116.041 32.9041 116.035 31.2927C116.035 31.0985 116.109 30.8167 115.87 30.7538C115.629 30.6908 115.563 30.9918 115.472 31.1504C114.01 33.7002 112.082 35.8723 109.942 37.8694C109.752 38.0445 109.571 38.392 109.293 38.2771C108.898 38.1157 108.557 37.8038 108.34 37.4317C108.181 37.1581 108.519 37.0542 108.675 36.9256C110.271 35.5933 111.738 34.1324 113.046 32.5183C113.791 31.5991 114.477 30.6361 115.076 29.6157C115.423 29.0275 115.373 28.9482 114.67 28.9482C112.865 28.9427 111.057 28.9345 109.252 28.9536C108.736 28.9591 108.519 28.8278 108.521 28.2642C108.521 27.7143 108.76 27.6295 109.227 27.6405C110.255 27.6651 111.285 27.6487 112.313 27.6487L112.315 27.6459Z" fill="white"/>
<path d="M120.567 11.4475C120.567 13.037 120.565 14.6292 120.567 16.2186C120.57 17.0284 120.848 17.343 121.57 17.3895C122.867 17.4716 123.37 17.2199 123.507 16.3992C123.631 15.6605 123.762 14.9219 123.743 14.1668C123.732 13.7209 123.861 13.5923 124.359 13.7154C125.095 13.8987 125.37 14.2434 125.224 14.9985C125.067 15.8192 125.065 16.6673 124.771 17.4661C124.51 18.1774 123.974 18.555 123.243 18.6644C122.425 18.7875 121.603 18.7848 120.782 18.689C119.65 18.5577 119.081 17.9093 119.073 16.7001C119.059 13.8604 119.04 11.0207 119.084 8.18099C119.095 7.4697 118.875 7.27272 118.197 7.32197C117.425 7.37668 116.642 7.363 115.867 7.32744C115.32 7.30281 115.117 7.4779 115.07 8.0442C114.944 9.62547 114.883 11.2204 114.433 12.7606C113.658 15.4116 112.007 17.3977 109.707 18.886C109.328 19.1322 108.743 18.8149 108.394 18.1774C108.155 17.7424 108.617 17.6987 108.815 17.5646C110.883 16.1612 112.408 14.3556 113.045 11.9043C113.397 10.5556 113.441 9.16586 113.526 7.78431C113.554 7.33017 113.243 7.33838 112.935 7.33838C111.771 7.33838 110.603 7.30829 109.438 7.34659C108.845 7.36574 108.718 7.1332 108.699 6.59152C108.677 5.98965 108.963 5.93494 109.444 5.94588C110.587 5.96777 111.729 5.92673 112.872 5.96503C113.452 5.98418 113.71 5.84192 113.663 5.21544C113.614 4.53697 113.71 3.8503 113.653 3.17183C113.592 2.47695 113.977 2.47969 114.482 2.46601C114.999 2.45506 115.24 2.5727 115.194 3.14994C115.139 3.8503 115.196 4.55886 115.153 5.26195C115.12 5.779 115.257 5.98418 115.823 5.96777C117.147 5.92673 118.474 5.98418 119.798 5.94315C120.381 5.924 120.592 6.05805 120.573 6.68454C120.523 8.27401 120.556 9.86348 120.556 11.4557L120.567 11.4475Z" fill="white"/>
<path d="M92.7268 29.0603C92.834 28.7238 93.0235 28.4366 93.2296 28.1493C93.9274 27.1863 94.4878 26.1467 94.7983 24.995C94.9879 24.2864 95.4164 24.5463 95.8642 24.6503C96.4329 24.7843 96.2241 25.0907 96.1005 25.4163C95.8148 26.1714 95.8258 26.1823 96.6719 26.1823C98.867 26.1823 101.062 26.196 103.254 26.1714C103.76 26.1659 103.947 26.3054 103.919 26.8225C103.867 27.8292 103.279 28.6089 102.807 29.416C102.59 29.7853 102.169 29.3257 101.845 29.2299C101.581 29.1506 101.488 28.9673 101.634 28.7047C101.666 28.6445 101.688 28.5816 101.719 28.5186C102.09 27.7617 101.86 27.3824 101.026 27.3806C100.708 27.3806 100.386 27.3724 100.068 27.3806C99.7818 27.3915 99.4247 27.2903 99.2846 27.6405C99.1307 28.0207 99.0538 28.4092 99.356 28.7977C100.329 30.0561 101.661 30.7647 103.12 31.2817C103.293 31.3419 103.477 31.3775 103.636 31.4623C103.9 31.6046 104.403 31.4185 104.422 31.8371C104.441 32.2475 104.037 32.5347 103.798 32.8603C103.661 33.0463 103.469 32.9177 103.296 32.8603C101.625 32.3049 100.106 31.5033 98.9302 30.1683C98.6088 29.8044 98.411 29.7716 98.0923 30.1683C97.2708 31.1887 96.139 31.7824 94.9659 32.3077C94.6939 32.428 94.1637 32.4636 94.2268 32.7454C94.3148 33.1311 94.8148 32.9259 95.128 32.9287C97.2296 32.9478 99.334 32.956 101.436 32.9287C102.015 32.9205 102.177 33.1092 102.164 33.6701C102.128 35.079 102.136 36.4879 102.161 37.8968C102.169 38.3838 102.035 38.5944 101.504 38.5807C101.013 38.5671 100.724 38.4768 100.741 37.9023C100.768 36.8791 100.732 35.8559 100.754 34.8355C100.765 34.3759 100.617 34.1871 100.128 34.1898C97.4769 34.2063 94.8258 34.2035 92.1719 34.1898C91.7296 34.1898 91.5647 34.3294 91.5757 34.778C91.6005 35.8231 91.562 36.8681 91.5922 37.9132C91.6059 38.4303 91.4026 38.5835 90.9054 38.5753C90.4274 38.567 90.1224 38.4987 90.1307 37.9105C90.1581 36.4578 90.1499 35.0024 90.1307 33.5469C90.1252 33.1092 90.279 32.9259 90.7241 32.9369C91.3395 32.956 91.9576 32.9396 92.5757 32.9369C93.0703 32.9341 93.1609 32.7098 92.845 32.3596C92.345 31.807 92.5977 31.6647 93.1884 31.4951C94.3972 31.145 95.551 30.6553 96.5236 29.8209C97.1252 29.3038 97.5538 28.6828 97.8148 27.9304C97.9439 27.5556 97.9027 27.3696 97.4604 27.3806C96.867 27.3942 96.2708 27.3915 95.6774 27.3806C95.3615 27.3751 95.1774 27.5228 95.0318 27.7909C94.7928 28.2286 94.5098 28.6445 94.2763 29.0849C94.0208 29.5719 93.7214 29.5938 93.3038 29.2764C93.1389 29.1506 92.9796 28.9126 92.7021 29.0494L92.7186 29.0603H92.7268Z" fill="white"/>
<path d="M96.2955 8.85154C98.856 8.85154 101.416 8.85974 103.977 8.84333C104.447 8.84059 104.68 8.91993 104.68 9.46982C104.68 10.0224 104.491 10.1565 103.963 10.1538C101.54 10.1291 99.117 10.1565 96.6939 10.1346C96.1609 10.1291 95.812 10.2796 95.5098 10.7392C94.4356 12.3724 93.279 13.9482 92.0565 15.4748C91.9356 15.6253 91.7158 15.773 91.8532 15.9973C91.963 16.1779 92.1828 16.104 92.3587 16.0985C94.757 16.0356 97.1581 15.9672 99.5565 15.8961C99.7543 15.8906 100.004 15.9535 100.117 15.7402C100.254 15.4775 99.9878 15.3271 99.8587 15.1656C99.279 14.4352 98.6774 13.7239 98.084 13.0017C97.9137 12.7938 97.6389 12.5366 98.0181 12.3369C98.3587 12.1563 98.6527 11.508 99.1609 12.0633C100.743 13.795 102.235 15.6034 103.708 17.4254C103.919 17.688 103.87 17.8631 103.609 18.0355C103.419 18.1613 103.224 18.2871 103.059 18.4403C102.735 18.7385 102.48 18.6674 102.301 18.3063C101.785 17.2585 100.944 17.0725 99.8285 17.1436C96.5455 17.3543 93.2488 17.3242 89.9823 17.7591C89.6608 17.8029 89.5097 17.6907 89.3998 17.4363C89.2735 17.1463 89.1663 16.8454 89.0207 16.5636C88.9108 16.3475 88.9822 16.2162 89.1553 16.1067C91.018 14.9331 92.0207 13.0345 93.246 11.3247C93.4713 11.01 93.9301 10.6489 93.7268 10.2823C93.551 9.95951 93.0125 10.1565 92.6361 10.151C91.2872 10.1346 89.9383 10.1346 88.5894 10.151C88.1306 10.1565 87.8256 10.1401 87.8229 9.51906C87.8201 8.87616 88.1223 8.84333 88.6196 8.84606C91.1801 8.86248 93.7405 8.85427 96.301 8.85427L96.2955 8.85154Z" fill="white"/>
<path d="M78.6498 22.0812C78.6498 29.1012 78.6498 36.1211 78.6416 43.141C78.6416 43.4748 78.8394 43.9426 78.1773 43.9946C77.5014 44.0493 77.4465 43.6991 77.4465 43.1711C77.4575 37.4452 77.4547 31.7193 77.4547 25.9961C77.4547 17.6356 77.4547 9.27518 77.463 0.914725C77.463 0.602849 77.2597 0.148715 77.8751 0.088528C78.4437 0.0310772 78.669 0.178808 78.6663 0.816238C78.6415 7.90457 78.6525 14.9929 78.6525 22.0812H78.6498Z" fill="white"/>
<path d="M96.7932 36.266C96.7135 37.9567 96.3701 37.4615 98.1311 38.1044C99.8839 38.7446 101.648 39.3492 103.406 39.9784C103.705 40.0851 104.178 40.1453 103.859 40.6405C103.626 41.0016 103.593 41.6637 102.81 41.3381C101.233 40.687 99.6284 40.1043 98.0349 39.4915C97.9498 39.4586 97.8619 39.4313 97.7822 39.3902C96.8316 38.8978 96.0844 38.8759 95.153 39.7049C93.9305 40.7937 92.2245 40.9907 90.6365 41.3107C90.3453 41.3709 90.0431 41.3846 89.7601 41.4667C89.0678 41.6746 88.631 41.5132 88.3123 40.8019C88.0458 40.2082 88.2711 40.1371 88.7546 40.107C90.0101 40.0277 91.2519 39.828 92.4497 39.4477C94.9278 38.6625 95.3893 38.0251 95.4745 35.4344C95.4882 35.0541 95.4662 34.7231 96.0349 34.7367C96.8316 34.7559 96.8976 34.786 96.8481 35.5821C96.8344 35.8092 96.8124 36.0335 96.7959 36.2605L96.7932 36.266Z" fill="white"/>
<path d="M0.0115996 39.8336C-0.0763133 36.4413 2.86877 35.3251 5.0556 36.1677C5.69572 36.4139 6.1655 36.8735 6.47595 37.4836C6.61331 37.7544 6.87705 38.0608 6.39902 38.2688C6.03913 38.4274 5.70946 38.4876 5.50341 38.0116C5.09132 37.0541 4.3001 36.786 3.31932 36.8653C2.37975 36.9419 1.71766 37.4125 1.38524 38.2633C0.937433 39.4068 0.945674 40.575 1.46766 41.7049C1.88799 42.6104 2.66547 42.9934 3.62702 42.977C4.58582 42.9606 5.30286 42.4845 5.61055 41.5763C5.78638 41.0565 6.03363 41.0264 6.47595 41.1796C7.0309 41.3711 6.75892 41.7213 6.64078 41.9976C6.24243 42.925 5.57759 43.5624 4.55835 43.7977C2.0858 44.364 0.165447 42.9551 0.00610506 40.4437C-0.00763133 40.2412 0.00610506 40.036 0.00610506 39.8309L0.0115996 39.8336Z" fill="white"/>
<path d="M15.1932 41.4774C13.2508 41.5185 13.7591 41.1628 13.0366 43.0067C12.9404 43.2557 12.858 43.5703 12.6657 43.7071C12.4376 43.8685 12.0558 43.8657 11.8168 43.7071C11.5475 43.5265 11.7975 43.2447 11.8772 43.0395C12.6712 40.944 13.4816 38.8511 14.2976 36.7637C14.4514 36.3725 14.5613 35.9731 15.1629 35.9786C15.7454 35.984 15.869 36.326 16.0393 36.7418C16.8965 38.8402 17.7811 40.9248 18.6273 43.0259C18.7097 43.2283 19.0449 43.5785 18.685 43.7125C18.3278 43.8439 17.8058 43.9861 17.5641 43.428C17.3937 43.0341 17.2042 42.6374 17.1053 42.2216C16.9514 41.5787 16.5586 41.3954 15.9514 41.472C15.7042 41.5021 15.4487 41.4774 15.1987 41.4774H15.1932ZM15.1712 37.1741C14.7838 38.2219 14.4651 39.1137 14.119 39.9974C13.9624 40.3995 14.0146 40.5911 14.4954 40.5719C15.0173 40.55 15.5421 40.5719 16.0668 40.561C16.2591 40.5582 16.4432 40.5336 16.3305 40.2463C15.9514 39.2615 15.5833 38.2739 15.1684 37.1741H15.1712Z" fill="white"/>
<path d="M58.9792 43.7675C58.4654 43.8742 58.3363 43.5322 58.1742 43.1465C57.3335 41.1357 57.9901 41.4995 55.7538 41.4859C54.034 41.4749 54.4791 41.2123 53.795 42.9112C53.6494 43.2751 53.6851 43.7866 53.0423 43.7894C52.5066 43.7921 52.3445 43.6717 52.556 43.1355C53.2593 41.3682 53.9351 39.59 54.622 37.8172C54.7868 37.3959 54.9571 36.9746 55.111 36.5506C55.2483 36.1676 55.4709 35.987 55.9159 35.9815C56.3802 35.9761 56.5643 36.2086 56.7126 36.5697C57.6055 38.7474 58.5039 40.925 59.4022 43.1027C59.5808 43.5349 59.6357 43.8714 58.9764 43.7675H58.9792ZM55.9049 37.1771C55.5148 38.2221 55.1687 39.1441 54.8225 40.0633C54.6989 40.3888 54.7401 40.5831 55.1604 40.5694C55.6852 40.5502 56.2099 40.5721 56.7346 40.5585C56.9214 40.553 57.1907 40.5913 57.0561 40.2329C56.6797 39.2453 56.3143 38.2549 55.9077 37.1743L55.9049 37.1771Z" fill="white"/>
<path d="M96.262 3.58479C98.2482 3.58479 100.235 3.593 102.221 3.57932C102.735 3.57659 103.092 3.60668 103.092 4.28515C103.092 4.99644 102.671 4.95541 102.191 4.95541C98.1961 4.94993 94.2015 4.94993 90.2042 4.95541C89.7207 4.95541 89.3828 4.93625 89.3745 4.28788C89.3663 3.60942 89.7152 3.57111 90.2344 3.57385C92.2427 3.58753 94.2537 3.57932 96.262 3.57932V3.58479Z" fill="white"/>
<path d="M24.0612 39.8747C24.0612 38.8078 24.0777 37.7381 24.053 36.6711C24.042 36.1869 24.1684 35.9599 24.7041 35.9899C25.8662 36.0556 27.0365 35.8969 28.1931 36.1158C29.4679 36.3565 30.0613 37.1472 29.9981 38.5014C29.9431 39.6695 29.1629 40.493 27.9651 40.586C27.2838 40.6407 26.5915 40.6681 25.9101 40.6161C25.2398 40.5669 25.0777 40.8541 25.1107 41.4478C25.1464 42.0606 25.1024 42.6761 25.1217 43.2889C25.1354 43.6938 24.9458 43.7814 24.5804 43.7841C24.2068 43.7841 24.0365 43.6801 24.053 43.2807C24.0777 42.7144 24.0585 42.1454 24.0585 41.5763C24.0585 41.0073 24.0585 40.441 24.0585 39.872L24.0612 39.8747ZM26.6382 36.9557C26.6382 36.9557 26.6382 36.9666 26.6382 36.9721C26.3634 36.9721 26.086 36.9967 25.8167 36.9666C25.2728 36.9064 25.0695 37.128 25.1107 37.6642C25.1464 38.1621 25.1299 38.6628 25.1162 39.1634C25.1079 39.5026 25.2425 39.6777 25.5914 39.6695C26.3002 39.6531 27.009 39.6695 27.7123 39.6093C28.4569 39.5464 28.8854 39.0595 28.9047 38.3591C28.9239 37.656 28.5228 37.1444 27.8003 37.0241C27.4211 36.9611 27.0255 36.9776 26.6382 36.9557Z" fill="white"/>
<path d="M44.9711 40.3918C44.9711 39.437 44.9601 38.4822 44.9739 37.5302C44.9794 37.1253 44.8283 36.9502 44.4107 36.9694C43.9326 36.9913 43.4519 36.9666 42.9711 36.9748C42.6607 36.9803 42.4326 36.9365 42.4436 36.5426C42.4519 36.1924 42.5398 35.99 42.9491 35.9927C44.6854 36.0064 46.4244 36.0036 48.1607 35.9954C48.5179 35.9954 48.6387 36.1541 48.647 36.4906C48.6552 36.8408 48.5261 36.9858 48.1689 36.9748C47.7129 36.9584 47.2514 37.0022 46.7981 36.9639C46.2459 36.9201 46.081 37.1554 46.0865 37.6779C46.1057 39.4726 46.092 41.2672 46.0947 43.0619C46.0947 43.4394 46.125 43.7759 45.5563 43.7869C44.9601 43.7978 44.9601 43.4695 44.9684 43.0482C44.9821 42.1618 44.9739 41.2754 44.9711 40.3891V40.3918Z" fill="white"/>
<path d="M64.743 39.8723C64.743 38.8053 64.7485 37.7384 64.7375 36.6687C64.7348 36.2474 64.8117 35.9793 65.3364 35.9875C65.8886 35.9957 65.8172 36.3541 65.8199 36.6878C65.8227 38.5044 65.8364 40.3209 65.8117 42.1402C65.8062 42.6408 65.9573 42.8269 66.4738 42.805C67.3419 42.7721 68.2101 42.805 69.0782 42.794C69.4299 42.7886 69.6414 42.8843 69.6579 43.281C69.6744 43.6859 69.4683 43.7844 69.1112 43.7816C67.8309 43.7734 66.5507 43.7652 65.2732 43.7871C64.8337 43.7953 64.732 43.6011 64.7375 43.2126C64.7512 42.0992 64.743 40.9857 64.743 39.875V39.8723Z" fill="white"/>
<path d="M92.7097 29.0495C92.88 29.7417 92.4377 30.0536 91.9432 30.4092C90.9652 31.1096 90.0119 31.8482 89.097 32.6279C88.5201 33.1176 88.3443 32.6689 88.0421 32.3324C87.6904 31.9412 87.7673 31.7059 88.1822 31.416C89.1877 30.7129 90.1712 29.9824 91.1438 29.2356C91.652 28.8444 92.1053 28.3218 92.7262 29.0605L92.7097 29.0495Z" fill="white"/>
<path d="M36.7069 43.7181C35.8443 43.8193 35.8416 43.8193 35.8416 43.0205C35.8416 40.9686 35.8416 38.9141 35.8443 36.8623C35.8443 36.6626 35.88 36.4629 35.902 36.2632C36.5311 36.1729 36.7317 36.441 36.7234 37.0647C36.6932 39.2834 36.7097 41.5021 36.7097 43.7181H36.7069Z" fill="white"/>
<path d="M91.8969 26.7347C91.7485 27.0958 91.5123 27.3776 91.232 27.5965C90.9683 27.8017 90.776 27.5089 90.5864 27.3721C89.96 26.9207 89.3474 26.4557 88.7265 25.9988C88.537 25.8593 88.3062 25.7088 88.537 25.4626C88.7622 25.2246 88.8886 24.6583 89.3309 24.9045C90.1798 25.3778 90.971 25.9578 91.7787 26.5022C91.8419 26.5459 91.8584 26.6554 91.8969 26.732V26.7347Z" fill="white"/>
<path d="M36.7072 43.7181C36.7072 41.4994 36.6908 39.2807 36.721 37.0648C36.7292 36.441 36.5287 36.1729 35.8995 36.2632C36.0039 35.7926 36.3693 36.0361 36.6166 36.0279C36.8501 36.0197 36.8803 36.244 36.8803 36.4301C36.8803 38.7801 36.8803 41.1274 36.8803 43.4774C36.8803 43.5923 36.8556 43.7044 36.7072 43.7209V43.7181Z" fill="white"/>
</svg>
