<svg width="192" height="44" viewBox="0 0 192 44" fill="none" xmlns="http://www.w3.org/2000/svg">
<path d="M116.662 7.68066H111.598V13.1284H108.566V17.9082H111.598V30.4144C111.564 31.5108 111.724 32.6047 112.072 33.6451C112.359 34.4205 112.833 35.1135 113.45 35.6632C114.045 36.2054 114.757 36.6026 115.53 36.8238C117.286 37.2501 119.118 37.2501 120.874 36.8238C121.571 36.6398 122.244 36.3726 122.877 36.0279V32.1813C121.929 32.5814 120.913 32.7968 119.883 32.8161C119.458 32.8645 119.027 32.8183 118.622 32.6807C118.217 32.5431 117.847 32.3176 117.539 32.0203C116.956 31.4708 116.648 30.7507 116.648 29.538V17.9082H122.877V13.1284H116.662V7.68066ZM100.731 14.8243C98.8882 13.4752 96.7076 12.6629 94.4311 12.4776C92.1547 12.2922 89.8714 12.7411 87.8345 13.7743C85.7976 14.8076 84.0867 16.3848 82.8915 18.3312C81.6964 20.2775 81.0638 22.5168 81.0638 24.8008C81.0638 27.0848 81.6964 29.3242 82.8915 31.2705C84.0867 33.2168 85.7976 34.7941 87.8345 35.8273C89.8714 36.8606 92.1547 37.3094 94.4311 37.1241C96.7076 36.9387 98.8882 36.1265 100.731 34.7773V36.4874H105.795V13.1095H100.731V14.8243ZM93.4264 32.0819C91.9814 32.0819 90.569 31.6533 89.3676 30.8505C88.1663 30.0476 87.23 28.9065 86.6773 27.5714C86.1245 26.2364 85.9802 24.7674 86.2624 23.3503C86.5446 21.9332 87.2408 20.6316 88.2629 19.6102C89.2849 18.5888 90.5869 17.8935 92.0042 17.6122C93.4215 17.3309 94.8904 17.4762 96.2251 18.0298C97.5597 18.5834 98.7003 19.5204 99.5023 20.7223C100.304 21.9242 100.732 23.3369 100.731 24.7819C100.731 25.7409 100.542 26.6906 100.175 27.5766C99.8078 28.4625 99.2697 29.2675 98.5913 29.9454C97.9129 30.6234 97.1076 31.161 96.2214 31.5276C95.3352 31.8941 94.3854 32.0825 93.4264 32.0819ZM65.6761 20.2389V25.8762H73.2982C72.8246 27.879 71.6761 29.6579 70.0457 30.9139C68.4153 32.1699 66.4023 32.8266 64.3449 32.7735C62.7202 32.7703 61.1222 32.3596 59.6971 31.5792C58.2721 30.7987 57.0655 29.6733 56.1879 28.306C55.3102 26.9387 54.7894 25.3731 54.6732 23.7525C54.557 22.1319 54.849 20.508 55.5227 19.0294C56.1963 17.5509 57.2299 16.2649 58.529 15.289C59.8281 14.3132 61.3512 13.6788 62.9589 13.4438C64.5665 13.2088 66.2075 13.3807 67.7316 13.9438C69.2556 14.5069 70.6141 15.4432 71.6828 16.6671L76.0457 13.1047C74.3785 11.1395 72.2433 9.62566 69.837 8.70292C67.4306 7.78018 64.8307 7.47823 62.277 7.8249C59.7232 8.17157 57.2979 9.15571 55.2246 10.6866C53.1514 12.2174 51.497 14.2457 50.414 16.5843C49.3311 18.9229 48.8544 21.4965 49.028 24.0678C49.2016 26.6392 50.0199 29.1254 51.4074 31.2972C52.7949 33.469 54.707 35.2564 56.9672 36.4946C59.2274 37.7329 61.763 38.3821 64.3402 38.3823C66.3173 38.4183 68.2814 38.0546 70.1146 37.313C71.9477 36.5715 73.6123 35.4673 75.0083 34.0667C77.3705 31.6212 78.8377 28.4497 79.1723 25.0661C79.3096 23.4528 79.3333 21.8319 79.2433 20.2152L65.6761 20.2389ZM179.595 12.4321C177.149 12.4321 174.758 13.1575 172.724 14.5166C170.69 15.8757 169.104 17.8074 168.168 20.0675C167.232 22.3276 166.987 24.8145 167.464 27.2139C167.942 29.6132 169.12 31.8171 170.849 33.5469C172.579 35.2767 174.783 36.4547 177.182 36.9319C179.582 37.4092 182.069 37.1642 184.329 36.2281C186.589 35.2919 188.521 33.7066 189.88 31.6725C191.239 29.6385 191.964 27.2471 191.964 24.8008C191.967 23.1749 191.649 21.5645 191.028 20.0617C190.408 18.5588 189.497 17.1931 188.348 16.0425C187.199 14.892 185.835 13.9792 184.333 13.3564C182.831 12.7337 181.221 12.4131 179.595 12.4131V12.4321ZM179.595 32.1008C178.15 32.1008 176.738 31.6723 175.537 30.8694C174.335 30.0666 173.399 28.9254 172.846 27.5904C172.294 26.2554 172.149 24.7864 172.431 23.3693C172.714 21.9522 173.41 20.6506 174.432 19.6292C175.454 18.6078 176.756 17.9125 178.173 17.6311C179.591 17.3498 181.059 17.4952 182.394 18.0488C183.729 18.6024 184.869 19.5394 185.671 20.7412C186.473 21.9431 186.901 23.3559 186.9 24.8008C186.895 26.7344 186.123 28.5871 184.754 29.9521C183.384 31.3172 181.529 32.0831 179.595 32.0819V32.1008ZM158.941 36.5064H164.389V15.5254H158.941V36.5064ZM150.618 36.5064H156.066V31.0397H150.618V36.5064ZM136.814 12.4321C134.629 12.4299 132.482 13.0069 130.592 14.1042C128.702 15.2014 127.136 16.7798 126.055 18.6787C124.973 20.5776 124.414 22.7292 124.434 24.9145C124.454 27.0998 125.053 29.2407 126.169 31.1194C127.286 32.9981 128.88 34.5475 130.79 35.6098C132.699 36.6722 134.857 37.2096 137.041 37.1673C139.226 37.125 141.361 36.5046 143.228 35.3691C145.096 34.2337 146.629 32.6238 147.672 30.7033L143.1 28.4816C142.369 29.723 141.287 30.7204 139.99 31.3484C138.694 31.9764 137.24 32.2069 135.813 32.0109C134.386 31.815 133.048 31.2013 131.969 30.2471C130.889 29.2929 130.116 28.0408 129.746 26.6483H143.882H149.055C149.325 24.8861 149.21 23.0864 148.72 21.3725C148.229 19.6586 147.374 18.0709 146.213 16.7181C145.052 15.3654 143.612 14.2795 141.992 13.5348C140.373 12.7902 138.611 12.4043 136.828 12.4036L136.814 12.4321ZM129.978 22.2238C130.501 20.8336 131.435 19.6358 132.656 18.7903C133.877 17.9448 135.327 17.4918 136.812 17.4918C138.297 17.4918 139.747 17.9448 140.968 18.7903C142.189 19.6358 143.123 20.8336 143.645 22.2238H129.978ZM158.941 13.1474H164.389V7.69961H158.941V13.1474Z" fill="white"/>
<path d="M22.0699 34.1185C18.8662 34.1185 15.7936 32.8458 13.5282 30.5804C11.2628 28.315 9.99014 25.2425 9.99014 22.0387C9.99014 18.8349 11.2628 15.7624 13.5282 13.497C15.7936 11.2316 18.8662 9.9589 22.0699 9.9589V0.0771484C17.7263 0.0771484 13.4803 1.36517 9.86875 3.77834C6.2572 6.1915 3.44234 9.62143 1.78013 13.6344C0.117915 17.6473 -0.316997 22.0631 0.530392 26.3232C1.37778 30.5833 3.46942 34.4965 6.54079 37.5679C9.61216 40.6392 13.5253 42.7309 17.7854 43.5783C22.0455 44.4257 26.4613 43.9908 30.4742 42.3285C34.4872 40.6663 37.9171 37.8515 40.3302 34.2399C42.7434 30.6283 44.0314 26.3823 44.0314 22.0387H34.1497C34.1497 25.2425 32.877 28.315 30.6116 30.5804C28.3462 32.8458 25.2737 34.1185 22.0699 34.1185Z" fill="#2354E6"/>
<path d="M34.1498 9.95898H22.0701V22.0388H34.1498V9.95898Z" fill="#17E6A1"/>
</svg>
