<svg width="127" height="44" viewBox="0 0 127 44" fill="none" xmlns="http://www.w3.org/2000/svg">
<path d="M44.2206 19.204H21.841V27.2276L34.0779 27.4209C33.8476 28.2973 33.5431 29.1104 33.1513 29.8518C32.2062 31.6419 30.8585 33.011 29.1085 33.9537C27.3586 34.899 25.2378 35.3703 22.7439 35.3703C20.2897 35.3703 18.1186 34.8063 16.231 33.6809C14.3407 32.5555 12.8527 30.9877 11.7673 28.9753C10.6818 26.9654 10.139 24.6325 10.139 21.9765C10.139 19.3205 10.6924 16.9982 11.7964 15.0069C12.903 13.0155 14.4386 11.4691 16.411 10.3622C18.3808 9.25528 20.6126 8.70448 23.1065 8.70448C25.4391 8.70448 27.5306 9.14671 29.3786 10.0312C31.2265 10.9156 32.8362 12.2423 34.205 14.0139L40.6597 7.55788C38.6899 5.22495 36.2066 3.39515 33.2095 2.06848C30.2126 0.741807 26.8846 0.0771484 23.2258 0.0771484C20.0487 0.0771484 17.0729 0.63059 14.2983 1.73483C11.5237 2.84171 9.10121 4.39082 7.03086 6.3795C4.96049 8.37083 3.34021 10.6932 2.1753 13.3492C1.00775 16.0051 0.425293 18.881 0.425293 21.9765C0.425293 25.0747 0.997159 27.9585 2.14353 30.633C3.28991 33.3074 4.86783 35.6404 6.8773 37.6318C8.88677 39.623 11.251 41.1828 13.9647 42.3082C16.6785 43.4336 19.5827 43.9977 22.6804 43.9977C26.9032 43.9977 30.6308 43.1132 33.8688 41.3416C37.104 39.5728 39.6377 36.9486 41.4698 33.469C43.2993 29.9895 44.2153 25.697 44.2153 20.5889V19.204H44.2206Z" fill="#0505FA"/>
<path d="M86.9251 37.907L80.5314 31.5119C79.3638 32.7194 77.9765 33.6648 76.3694 34.348C74.7597 35.0312 72.8721 35.3727 70.6984 35.3727C68.8479 35.3727 67.1481 35.0523 65.602 34.4062C64.0532 33.7627 62.7267 32.8571 61.6201 31.692C60.5134 30.5269 59.6503 29.1181 59.0255 27.4683C58.4007 25.8187 58.091 23.9888 58.091 21.9789C58.091 20.0088 58.4007 18.2002 59.0255 16.5504C59.6477 14.9007 60.5134 13.4946 61.6201 12.3268C62.7267 11.1617 64.0532 10.2666 65.602 9.64168C67.1508 9.0194 68.8479 8.70692 70.6984 8.70692C72.7901 8.70692 74.6274 9.04852 76.2186 9.73172C77.8071 10.4149 79.1626 11.3602 80.2904 12.5678L86.6233 6.17274C84.6535 4.28204 82.3502 2.79383 79.7159 1.70814C77.0816 0.622438 74.0767 0.0795898 70.6984 0.0795898C67.5214 0.0795898 64.5748 0.63303 61.8611 1.73727C59.1474 2.84415 56.7831 4.38266 54.7736 6.35282C52.7616 8.32296 51.1941 10.6479 50.0689 13.3225C48.9437 15.997 48.3799 18.8834 48.3799 21.9789C48.3799 25.0771 48.9437 27.9609 50.0689 30.6354C51.1941 33.31 52.7721 35.6535 54.8053 37.6633C56.836 39.6759 59.2082 41.2329 61.9219 42.3398C64.6356 43.4467 67.5823 44.0001 70.7593 44.0001C74.217 44.0001 77.2643 43.4572 79.8986 42.3715C82.5303 41.2859 84.8733 39.7976 86.9251 37.907Z" fill="#0505FA"/>
<path d="M101.582 25.7814H102.572L115.275 43.338H126.495L112.85 25.4689C114.298 25.2121 115.635 24.7964 116.845 24.2138C119.016 23.1678 120.705 21.7088 121.912 19.8392C123.119 17.9697 123.723 15.7877 123.723 13.2932C123.723 10.8411 123.119 8.6671 121.912 6.77639C120.705 4.88568 119.037 3.40808 116.906 2.34356C114.774 1.27904 112.302 0.744141 109.487 0.744141H92.1143V43.338H101.584V25.7814H101.582ZM108.397 8.10307C110.287 8.10307 111.735 8.6062 112.739 9.61245C113.744 10.6187 114.247 11.8845 114.247 13.4123C114.247 15.0621 113.734 16.3676 112.709 17.3341C111.685 18.3007 110.226 18.7826 108.336 18.7826H101.579V8.10307H108.397Z" fill="#0505FA"/>
</svg>
