<svg width="914" height="353" viewBox="0 0 914 353" fill="none" xmlns="http://www.w3.org/2000/svg">
    <g clip-path="url(#clip0_182_4595)">
        <path d="M892.968 0.841797H21.0317C9.88083 0.841797 0.841309 9.88707 0.841309 21.045V331.955C0.841309 343.113 9.88083 352.158 21.0317 352.158H892.968C904.119 352.158 913.159 343.113 913.159 331.955V21.045C913.159 9.88707 904.119 0.841797 892.968 0.841797Z" fill="#3BD797" stroke="#231815" stroke-miterlimit="10"/>
        <path d="M875.807 111.454H40.0443C28.8935 111.454 19.854 120.499 19.854 131.657V186.543C19.854 197.701 28.8935 206.746 40.0443 206.746H875.807C886.958 206.746 895.997 197.701 895.997 186.543V131.657C895.997 120.499 886.958 111.454 875.807 111.454Z" fill="white" stroke="#231815" stroke-miterlimit="10"/>
        <path d="M434.008 223.683H42.2651C31.1142 223.683 22.0747 232.728 22.0747 243.886V307.307C22.0747 318.465 31.1142 327.51 42.2651 327.51H434.008C445.159 327.51 454.199 318.465 454.199 307.307V243.886C454.199 232.728 445.159 223.683 434.008 223.683Z" fill="#E7F8F1" stroke="#231815" stroke-miterlimit="10"/>
        <path d="M873.838 223.683H490.205C479.054 223.683 470.014 232.728 470.014 243.886V306.229C470.014 317.387 479.054 326.433 490.205 326.433H873.838C884.989 326.433 894.028 317.387 894.028 306.229V243.886C894.028 232.728 884.989 223.683 873.838 223.683Z" fill="#E7F8F1" stroke="#231815" stroke-miterlimit="10"/>
    </g>
    <defs>
        <clipPath id="clip0_182_4595">
            <rect width="914" height="353" fill="white"/>
        </clipPath>
    </defs>
</svg>
