<svg width="216" height="233" viewBox="0 0 216 233" fill="none" xmlns="http://www.w3.org/2000/svg">
    <g clip-path="url(#clip0_10_5709)">
        <path d="M94.3365 12.8708C94.4114 11.8948 94.5291 10.9241 94.5559 9.94807C94.5773 9.09538 94.5826 8.3124 95.7277 8.23732C96.9798 8.15688 96.9103 9.0203 96.9103 9.84081C96.9049 13.0585 96.83 16.2762 96.9103 19.4886C96.9424 20.8078 96.5036 21.3817 95.2461 21.0652C92.255 20.3091 90.8102 22.0198 89.3601 24.2776C86.1817 29.2275 82.8534 34.0862 79.4288 38.8699C78.3587 40.3661 77.8289 41.8248 78.1874 43.5677C78.8991 47.0482 78.867 50.4644 77.6898 53.859C76.2879 57.8973 79.7553 59.5222 81.8475 61.6083C85.3095 65.0513 89.1086 68.1456 92.7419 71.417C93.5231 72.1195 93.6194 73.1063 93.6034 74.1252C93.5445 77.5199 93.6034 80.9199 93.4429 84.3093C93.368 85.8591 93.5552 86.5724 95.3638 86.449C97.9376 86.2721 100.533 86.3847 103.117 86.4115C104.091 86.4222 104.888 86.3847 104.824 85.044C104.755 83.655 103.781 84.1162 103.075 84.1162C100.934 84.1162 98.7938 84.0947 96.6588 84.2288C95.2194 84.3146 94.8769 83.832 94.9144 82.4055C95.0749 76.4205 95.0588 70.4356 95.1766 64.4507C95.2087 62.933 95.0588 61.5386 93.6623 60.702C88.5254 57.6452 86.5028 53.194 86.9897 47.2306C87.2251 44.3239 86.9201 41.3475 87.0753 38.398C87.1449 37.0626 87.4177 36.5907 88.9481 36.7569C93.6409 37.2664 93.6623 37.1806 93.5552 41.9642C93.4857 44.9996 93.3359 48.035 93.2609 51.0704C93.17 54.7761 97.2688 59.238 100.982 59.4686C102.315 59.549 103.679 59.3774 104.985 59.5919C106.178 59.785 107.307 60.3427 108.672 60.8146C108.672 57.7256 108.613 54.7814 108.698 51.8372C108.73 50.6789 108.195 49.9602 107.366 49.4025C101.368 45.3268 98.7456 39.8352 100.051 32.5471C100.329 30.9865 100.153 29.3347 100.115 27.7313C99.9977 22.8457 102.646 18.2605 101.64 13.2784C101.512 12.6456 101.983 12.2809 102.55 12.1629C104.765 11.7071 106.986 11.2888 109.201 10.8383C110.63 10.5487 111.17 11.2137 111.16 12.5651C111.144 14.174 111.176 15.7828 111.149 17.3917C111.117 19.1132 111.577 20.8936 108.821 21.328C107.553 21.5265 106.44 23.087 106.446 24.8621C106.462 29.1524 106.446 33.4427 106.371 37.7276C106.349 38.9021 106.729 39.3901 107.89 39.2185C107.976 39.2077 108.067 39.2185 108.158 39.2185C112.749 39.3758 115.039 37.1788 115.028 32.6275C115.028 31.6461 115.109 30.654 115.007 29.678C114.574 25.5432 115.162 21.7195 118.046 18.4911C118.25 18.2658 118.276 17.8797 118.485 17.2684C117.559 17.2684 116.88 17.2094 116.211 17.2791C115.023 17.4078 114.386 17.1343 114.461 15.7239C114.52 14.5977 114.611 13.8469 116.018 13.879C117.527 13.9166 119.068 13.8951 120.551 13.6538C121.417 13.5144 123.14 14.4582 123.028 12.667C122.921 11.0206 121.305 12.0342 120.406 11.927C118.822 11.7446 117.201 11.9109 115.596 11.8733C114.836 11.8572 113.937 12.002 113.964 10.715C113.99 9.64239 114.675 9.2509 115.489 9.22409C118.517 9.12219 121.551 9.14364 124.58 9.07929C125.586 9.05784 125.746 9.58876 125.725 10.42C125.687 11.6695 125.623 12.9298 125.741 14.1686C125.939 16.2548 125.666 17.5365 122.991 17.2576C121.257 17.0753 117.827 21.3817 117.699 24.0899C117.468 29.0827 117.602 34.0916 117.624 39.0898C117.634 40.9828 119.133 40.1409 120.005 40.2106C121.086 40.2964 122.482 40.5914 122.52 38.7465C122.53 38.1191 122.621 37.4863 122.536 36.8749C121.835 31.9894 124.029 28.0852 127.041 24.6798C129.128 22.3202 128.09 19.4939 128.887 16.968C129.262 15.7721 129.508 15.3056 130.712 15.4128C131.777 15.5093 132.847 15.4986 133.917 15.5201C137.379 15.5791 138.08 16.3567 137.358 19.7728C137.106 20.9634 136.625 22.2504 135.854 23.1568C131.996 27.7098 132.649 33.1424 132.622 38.4677C132.622 39.5349 132.981 39.862 134.024 39.7601C136.063 39.5617 138.112 39.4544 140.162 39.3472C140.916 39.3096 141.853 39.0415 141.874 40.3554C141.89 41.487 141.077 41.2993 140.397 41.369C138.888 41.5299 137.379 41.8731 135.881 41.8195C133.195 41.7229 131.991 42.64 132.938 45.4984C134.907 41.9535 138.235 43.9324 140.986 43.5463C142.072 43.3961 141.804 44.5062 141.783 45.1444C141.762 45.8523 142.216 46.8659 140.932 47.0268C140.67 47.0589 140.397 47.0482 140.13 47.075C134.5 47.6542 134.42 47.6542 134.42 53.5212C134.42 55.7199 133.842 57.3449 132.162 58.8787C129.139 61.6459 126.415 64.7402 123.494 67.6201C122.514 68.5854 122.14 69.6633 122.14 70.9665C122.14 74.4524 122.15 77.9382 122.102 81.4187C122.086 82.5717 122.257 83.2421 123.675 83.1777C126.522 83.0544 129.38 83.1026 132.232 83.0758C134.158 83.0597 134.982 82.2499 134.95 80.1584C134.87 74.4416 135.078 68.7195 135.035 63.0027C135.025 61.3348 135.378 60.1443 136.812 59.1629C142.372 55.3553 145.652 50.8612 144.624 43.2621C143.629 35.8935 144.4 28.2783 144.421 20.7757C144.421 19.5529 144.512 18.3785 142.693 18.6305C141.296 18.8236 141.125 17.9762 141.13 16.8286C141.13 15.622 141.451 15.016 142.794 15.0749C144.662 15.1554 146.54 15.1554 148.407 15.0535C149.788 14.9731 150.521 15.3431 150.719 16.8393C150.944 18.5125 149.922 18.6359 148.803 18.6037C147.514 18.5715 147.059 19.1024 147.166 20.3573C147.246 21.3119 147.182 22.2826 147.182 23.3337C148.418 23.0495 149.419 22.6956 150.387 21.9716C151.602 21.0599 152.779 21.1671 152.747 23.0978C152.726 24.3044 153.469 25.9722 152.394 26.6265C151.174 27.3666 150.007 25.9454 148.894 25.2965C148.386 25.0016 147.931 24.6208 147.027 23.9773C147.027 29.7745 147.027 35.1803 147.027 40.586C147.027 41.0257 147.016 41.487 147.45 41.7765C147.979 42.1359 153.721 41.7819 154.192 41.3046C156.252 39.2024 158.28 37.068 160.313 34.9443C161.046 34.1774 161.394 33.2067 161.1 32.2414C160.731 31.0455 159.585 31.6998 158.788 31.614C157.82 31.5121 156.824 31.5228 155.85 31.6247C154.416 31.7695 154.277 30.949 154.235 29.8335C154.192 28.584 154.598 28.0316 155.925 28.1496C157.167 28.2622 158.419 28.2086 159.666 28.1871C160.361 28.171 161.292 28.23 161.25 27.2379C161.207 26.3691 160.324 26.6533 159.767 26.6372C158.521 26.589 157.274 26.6212 156.022 26.5782C155.117 26.5514 154.181 26.5461 154.197 25.2107C154.218 23.9076 155.182 24.1221 155.915 24.1757C158.344 24.358 162.181 22.9798 162.914 24.6583C164.134 27.4685 163.599 31.1259 163.459 34.4134C163.401 35.7433 161.806 36.4888 160.757 37.2181C156.268 40.3179 154.208 44.2971 155 49.9066C155.444 53.06 155.15 56.3313 155.026 59.5436C154.952 61.4475 155.214 62.638 157.547 62.2519C158.387 62.1125 159.329 62.327 160.179 62.5522C162.288 63.1099 162.855 65.1156 161.448 66.6923C157.381 71.2507 152.158 74.4416 147.658 78.4691C135.159 89.6507 122.744 100.934 110.427 112.314C108.532 114.062 107.489 113.762 105.83 112.228C100.72 107.509 95.4869 102.924 90.3019 98.2902C89.9059 97.9362 89.5207 97.5501 89.0765 97.2659C88.7234 97.0353 88.2418 96.7993 87.8672 97.1586C87.4766 97.5287 87.6639 97.9845 87.9743 98.3385C88.6752 99.1429 89.3441 99.9956 90.1253 100.72C95.1445 105.412 100.153 110.11 105.247 114.717C106.392 115.752 106.943 116.722 106.933 118.342C106.852 136.125 106.863 153.908 106.868 171.686C106.868 172.587 106.895 173.445 106.397 174.26C103.936 178.288 101.48 182.321 99.0613 186.37C98.5048 187.303 97.7985 187.651 96.7123 187.785C81.5264 189.684 66.3352 191.582 51.1654 193.609C41.4963 194.902 31.8593 196.42 22.2009 197.792C21.4411 197.9 20.2425 198.479 20.0873 197.042C19.9535 195.814 21.1628 196.017 21.8264 195.915C37.4992 193.577 53.1666 191.185 68.9036 189.314C77.5721 188.284 86.2245 187.126 94.8823 186.042C96.4768 185.844 97.5952 185.174 98.4246 183.661C100.035 180.739 101.555 177.751 103.594 175.075C104.38 174.04 104.498 172.802 104.492 171.52C104.45 154.273 104.391 137.026 104.439 119.784C104.444 117.8 103.802 116.519 102.357 115.215C96.9317 110.314 91.6289 105.273 86.2941 100.274C85.1811 99.2341 84.0841 98.14 86.2138 96.499C82.6715 97.4858 80.8896 95.2495 78.8402 93.4422C70.2092 85.827 61.5836 78.2117 53.7873 69.7223C51.3473 67.0677 48.7093 65.7699 44.9423 65.8772C35.6798 66.1399 26.4014 65.9254 17.1283 65.9576C15.4427 65.963 13.5753 65.8235 12.1198 66.4832C10.2791 67.3144 9.05374 66.5207 7.6625 65.8182C7.19697 65.5822 7.08996 65.2926 7.42171 64.6276C8.27251 62.9222 9.32128 61.6459 11.269 61.1686C13.5003 60.6216 14.5919 62.1393 15.8708 63.4317C16.3096 63.8768 16.6948 64.9172 17.4761 64.2951C18.1877 63.7267 17.2139 63.2869 16.957 62.7882C16.7269 62.3323 16.3952 61.7585 16.4968 61.3295C17.3476 57.7685 15.2501 58.0903 12.9385 58.455C11.9486 58.6105 10.5038 58.9216 10.2256 57.5487C9.84032 55.6341 11.3707 54.5294 12.7084 53.5265C13.7946 52.7114 14.6561 53.1672 15.2875 54.2666C15.8975 55.3177 16.545 56.3474 17.2727 57.5487C19.183 55.3338 20.8846 56.0417 22.5755 57.8168C23.1641 58.4335 23.7848 59.1146 24.8122 59.1146C29.6708 59.0932 34.5294 59.1039 40.0248 59.1039C37.9112 57.1894 36.3166 55.6931 35.0591 53.8805C34.4224 52.9634 33.288 53.1833 32.3248 53.1672C28.3866 53.0975 24.4536 53.0332 20.5154 53.0171C19.6057 53.0171 18.573 52.9044 18.3269 52.0947C18.0968 51.3492 19.1295 50.8129 19.6967 50.3464C20.6117 49.6009 21.623 48.7107 22.7146 48.5016C26.0429 47.8634 26.1124 45.5734 25.9305 42.9832C25.8556 41.9213 26.0268 40.8381 25.9894 39.7708C25.9465 38.5374 26.7224 38.5428 27.5732 38.6017C28.3973 38.6607 29.4567 38.3121 29.4086 39.7923C29.3604 41.487 29.4032 43.187 29.3925 44.887C29.3925 45.6217 29.323 46.2813 30.4199 46.3296C31.7095 46.3886 31.6827 45.611 31.5275 44.7905C31.1155 42.6292 32.1804 42.3718 34.0371 42.3933C40.0194 42.4576 40.1104 42.3825 40.0622 48.287C40.0462 50.3678 40.7097 51.8533 42.2294 53.178C44.2466 54.9262 46.1462 56.814 48.11 58.6266C49.0785 59.5168 55.1625 59.2701 55.9063 58.337C56.5644 57.5058 56.0079 52.1697 55.0394 51.1883C53.2308 49.3435 51.4704 47.4022 49.4263 45.8523C47.9869 44.7583 47.1896 43.6804 47.4786 41.8999C47.7943 39.9639 46.9007 39.3472 45.1028 39.626C44.6694 39.6958 44.1985 39.5671 43.7704 39.6475C41.812 40.0175 40.8007 39.3579 41.1164 37.1001C41.9297 37.1001 42.818 37.1001 43.7062 37.1001C47.3288 37.0841 47.2913 37.0841 47.0612 33.4534C47.0077 32.6168 46.9114 32.236 45.9643 32.0859C44.6159 31.8714 44.8406 30.6755 44.9209 29.7209C45.0172 28.6108 45.9482 28.6912 46.7295 28.5947C46.8151 28.584 46.906 28.5947 46.997 28.5893C53.8248 28.1013 53.8943 28.1013 53.905 35.0408C53.905 36.7408 54.392 37.2664 56.0079 37.0626C56.9711 36.9446 57.9664 37.0036 58.9456 37.0572C59.7429 37.1001 60.8612 36.6765 60.8345 38.1888C60.8077 39.6314 59.8499 39.6368 58.8065 39.6153C57.9182 39.5992 57.0139 39.5831 56.1364 39.6904C55.414 39.7762 54.3866 39.2077 54.0228 40.1945C53.6535 41.192 54.1565 42.0393 54.9592 42.774C56.7357 44.399 58.3784 46.1687 60.1816 47.7668C61.2197 48.6839 61.5568 49.6975 61.5087 51.0382C61.3963 54.2505 61.3107 57.4736 61.3909 60.6859C61.4445 62.6863 60.8666 63.6838 58.6994 63.5658C58.1001 63.5336 56.7571 63.1314 56.8534 64.3166C56.9443 65.3677 58.1644 64.9279 58.8867 64.9172C60.294 64.8958 61.7548 65.1264 63.0765 64.3809C63.435 64.3863 63.5795 64.2254 63.4778 63.8715C63.4778 51.7193 63.4243 39.5724 63.5099 27.4202C63.526 25.377 62.3595 25.5915 61.1181 25.6022C59.8392 25.6129 58.7101 25.7792 58.7262 23.7681C58.7422 21.6605 60.0532 22.0359 61.2251 22.0413C63.8845 22.0574 67.3358 21.1511 68.9839 22.4757C70.7443 23.8861 69.519 27.4953 69.5297 30.1392C69.5671 40.6825 69.4922 51.2259 69.5083 61.7692C69.5083 62.8847 68.7324 64.6652 71.1135 64.515C71.2634 64.5043 71.5416 65.0245 71.5951 65.3248C71.7075 65.9844 71.2687 66.2257 70.6908 66.3974C67.689 67.293 69.5243 69.7813 69.1337 71.5028C68.8073 72.9508 70.0166 73.3691 71.3008 73.5889C75.0946 74.2325 78.0323 77.2839 82.008 77.4931C82.2648 77.5092 82.6768 77.8899 82.7197 78.1527C82.816 78.7587 82.2755 78.8499 81.8368 78.8445C78.1874 78.7748 74.2331 79.8474 71.5202 76.1416C71.3169 75.8628 71.0226 75.6 70.7122 75.4498C67.8548 74.0662 66.4208 72.0123 67.2502 68.6873C67.3947 68.1135 67.9084 66.7889 66.6402 66.7942C65.1633 66.7942 65.9392 68.1296 65.9018 68.8804C65.8322 70.1835 66.8114 72.1249 63.3547 71.0201C66.4529 74.506 69.214 77.2518 72.4138 79.472C75.0518 81.3007 78.1393 80.2335 81.0234 80.2496C84.5711 80.271 84.5711 80.1638 84.5711 83.6711C84.5711 85.1888 84.6032 86.7118 84.555 88.2295C84.5283 89.1519 84.6513 89.7794 85.8071 89.7579C86.8024 89.7365 87.5301 89.6614 87.5194 88.3636C87.4927 83.9875 87.5462 79.606 87.5301 75.23C87.5301 74.3076 87.1021 73.5621 86.385 72.9132C81.9866 68.934 77.6256 64.9172 73.2539 60.9112C72.2479 59.9888 71.6593 58.9591 71.6754 57.4521C71.761 51.3814 71.7182 45.3053 71.6861 39.2346C71.6807 38.044 72.3764 37.2449 72.9864 36.3869C76.4323 31.5067 79.8944 26.6372 83.3297 21.741C83.6561 21.2798 84.3356 20.7703 83.8005 20.116C83.3083 19.51 82.9337 20.3788 82.4789 20.3842C79.5412 20.4271 76.6036 20.4324 73.6659 20.4807C72.4834 20.5021 72.6171 19.7621 72.8419 19.0649C73.4733 17.1236 74.7361 15.5147 75.924 13.9273C76.7266 12.8547 77.8557 13.4286 78.6209 14.3402C80.0388 16.0349 81.5478 17.6652 82.5003 19.7084C82.7036 20.1482 82.8588 20.8025 83.5116 20.7917C84.1644 20.781 84.2233 20.116 84.4641 19.6763C85.5984 17.5794 84.9028 15.3109 85.0527 13.1175C85.0901 12.5866 84.9456 12.0128 85.0794 11.514C85.3523 10.5058 84.1537 8.80578 86.3155 8.6449C88.5361 8.47865 87.1074 10.5273 87.7923 11.3156C90.5034 9.09538 92.4565 9.63524 93.6516 12.9352C93.6516 13.8361 93.6462 14.7425 93.6409 15.6434C93.384 15.6917 93.1272 15.7989 92.8703 15.7882C90.2751 15.6863 87.1342 14.6566 87.3856 19.1936C87.4017 19.4778 87.0485 19.7943 86.8345 20.0731C82.4789 25.7685 78.4496 31.6944 74.4097 37.615C73.6017 38.8002 73.1683 39.9425 73.6873 41.3314C73.4412 42.0715 73.4144 42.8116 73.7034 43.5463C73.5643 47.6435 73.4733 51.7461 73.2593 55.8433C73.179 57.4092 73.6606 58.573 74.7896 59.6187C78.974 63.4961 83.0407 67.5021 87.3107 71.2829C88.7876 72.5914 89.4779 73.8839 89.4136 75.8521C89.2745 79.9546 89.3227 84.0626 89.3334 88.1705C89.3334 88.9535 88.916 90.1494 90.4785 89.9885C96.0006 89.4254 101.539 89.7686 107.072 89.6292C107.992 89.6078 108.463 89.4254 108.613 88.3314C109.538 81.601 109.121 81.0701 102.491 81.0487C102.4 81.0487 102.309 81.0326 102.224 81.0487C100.11 81.4723 99.6446 80.3354 99.6713 78.512C99.7088 75.6536 99.2486 72.7416 99.6713 69.9529C100.565 64.0592 98.6011 59.6938 93.6462 56.5726C92.0302 55.5537 91.554 54.0575 91.6289 52.2341C91.7787 48.6678 91.8376 45.0961 91.966 41.5299C92.0142 40.2535 92.3085 39.1219 90.243 39.1273C88.2257 39.1327 88.5896 40.35 88.7501 41.3851C88.9909 42.9296 87.9261 44.7315 89.815 45.9917C92.7366 47.9438 88.4719 48.0886 88.7287 49.9173C89.1461 52.8401 89.1193 55.484 92.1961 57.0553C93.3359 57.6398 94.085 58.9376 95.1231 59.7689C96.4073 60.7986 96.9049 61.9623 96.8246 63.6677C96.6427 67.4967 96.739 71.3419 96.7016 75.1817C96.6802 77.5896 95.6474 80.8717 96.8193 82.1856C98.2052 83.7354 101.517 82.4859 103.99 82.6361C104.08 82.6414 104.171 82.6521 104.257 82.6361C106.761 82.2607 106.098 84.0894 106.119 85.3818C106.141 86.6207 106.718 88.1062 104.369 87.9935C100.993 87.838 97.5952 87.897 94.2188 88.0686C92.1319 88.1759 91.5915 87.2749 91.6557 85.4086C91.768 82.1963 91.7092 78.984 91.8055 75.7716C91.8644 73.841 91.158 72.4306 89.6919 71.1381C85.3469 67.309 81.1518 63.3137 76.839 59.4418C75.7474 58.4604 75.298 57.3878 75.3301 55.9345C75.4478 50.8451 75.4852 45.7558 75.5334 40.6718C75.5387 39.9639 75.603 39.3954 76.0792 38.7519C80.5472 32.6651 84.7905 26.4227 88.7341 19.9819C89.4618 18.7968 90.3072 18.2658 91.538 18.4964C94.0582 18.9737 94.7324 17.9173 94.1385 15.6327C94.4863 14.7371 94.4916 13.8308 94.2723 12.9084L94.3365 12.8708ZM42.1865 56.4493C42.4969 56.7979 42.743 57.5326 43.2942 57.0553C43.5778 56.8086 43.0748 56.2991 42.727 56.0256C39.8054 53.5105 37.5741 50.711 38.4142 46.4583C38.6657 45.1712 38.2697 44.3078 36.6002 44.2756C34.7113 44.2381 34.8291 45.4072 34.9896 46.5388C35.2732 48.5284 34.3956 48.9467 32.6138 48.7697C30.5002 48.5605 28.3545 48.6571 26.2408 48.4747C25.465 48.405 25.0904 48.3997 25.1011 49.2899C25.1118 49.9763 25.2028 50.5394 26.0482 50.5502C27.0221 50.5609 28.0013 50.6092 28.9752 50.5341C32.7476 50.2552 36.124 50.888 38.7727 53.9663C39.6663 55.0067 41.0361 55.6288 42.1919 56.4439L42.1865 56.4493ZM118.667 48.8823C117.666 53.9502 118.539 59.061 118.565 64.4882C122.022 61.4796 125.072 58.1654 128.127 54.8619C128.582 54.3685 128.984 53.8108 128.39 53.2638C126.346 51.376 124.612 49.0968 121.926 47.9921C123.911 43.6696 123.231 42.2538 119.363 42.3504C117.982 42.3825 117.736 42.9188 117.8 44.0933C117.891 45.729 117.65 47.4129 118.662 48.877L118.667 48.8823ZM111.791 49.9924C111.78 53.4675 111.77 56.948 111.764 60.4232C111.754 69.5185 111.764 78.6139 111.716 87.7093C111.711 88.9642 112.134 90.7769 110.389 91.0772C106.355 91.7743 102.245 91.7046 98.157 91.5652C97.6808 91.5491 97.3704 90.4497 96.6481 91.2059C96.0809 91.8012 96.2467 92.5734 96.3377 93.2384C96.4982 94.3753 97.4668 93.8176 98.0446 93.8229C101.694 93.8605 105.338 93.8229 108.987 93.7961C113.134 93.764 113.557 93.3457 113.814 89.0983C113.841 88.6532 113.841 88.208 113.841 87.7629C113.857 75.9915 113.846 64.22 113.915 52.454C113.926 51.065 113.643 50.0246 112.39 49.3542C110.539 46.941 108.265 44.9406 105.959 42.9993C104.46 41.739 103.738 40.3822 103.775 38.414C103.861 34.3115 103.856 30.2035 103.775 26.101C103.733 24.0363 104.514 22.5508 106.092 21.2744C108.383 19.4189 109.1 15.4718 107.826 12.4901C107.243 13.0532 107.88 14.3724 106.542 14.4904C105.622 14.5708 103.877 14.0882 104.535 15.8686C105.081 17.3488 106.012 15.4182 106.847 15.5844C107.013 15.6166 107.179 15.6541 107.403 15.7024C107.393 16.7857 108.067 18.1908 106.526 18.6681C103.267 19.6816 102.555 22.5079 102.352 25.1571C101.988 29.7691 102.267 34.4295 102.192 39.0683C102.17 40.4197 102.55 41.4548 103.556 42.3665C106.328 44.8763 109.046 47.4343 111.791 49.9763V49.9924ZM153.512 70.6608C151.629 71.7817 149.579 72.0981 147.417 72.0337C145.101 71.9694 142.773 71.8514 140.472 72.0552C138.76 72.2053 138.551 71.4599 138.578 70.0924C138.615 68.1296 138.679 66.1453 138.471 64.204C138.257 62.1822 139.054 60.9755 140.6 59.7421C142.998 57.8222 145.673 56.0578 146.807 52.8991C143.918 55.0335 141.301 57.479 138.53 59.726C137.288 60.7342 136.812 61.796 136.823 63.362C136.865 68.8106 136.823 74.2593 136.742 79.7079C136.689 83.7354 135.667 84.7276 131.563 84.867C128.443 84.9743 125.318 84.9153 122.209 85.1298C120.599 85.2424 120.235 84.7061 120.267 83.2099C120.353 78.8338 120.347 74.4577 120.283 70.0816C120.267 68.7892 120.797 67.9365 121.658 67.0731C124.687 64.0484 127.619 60.9273 130.674 57.9294C132.285 56.3474 132.858 54.6581 132.365 52.3896C131.761 49.6117 131.397 46.7694 131.113 43.9324C130.985 42.6775 130.557 42.0447 129.347 42.2592C128.031 42.4952 126.126 41.2778 125.559 43.5141C125.083 45.3911 125.179 47.252 126.672 48.7643C127.614 49.7189 128.475 50.7593 129.492 51.6174C131.482 53.2959 131.632 54.7814 129.61 56.6477C126.399 59.6134 123.44 62.8472 120.224 65.8021C118.838 67.0731 118.314 68.3763 118.33 70.2211C118.389 76.4742 118.303 82.7272 118.266 88.9803C118.255 90.6052 118.357 92.2516 117.313 93.6674C120.197 94.3485 121.423 93.4154 120.941 90.6052C120.866 90.1709 120.995 89.7043 120.925 89.2699C120.695 87.7147 121.407 87.2427 122.873 87.2803C125.634 87.3446 128.395 87.2535 131.161 87.2803C135.769 87.3232 138.738 84.4755 138.861 79.9439C138.915 78.0026 137.957 75.4284 139.247 74.2915C140.606 73.0956 143.153 73.9536 145.165 74.0501C148.547 74.2164 151.789 74.1574 154.325 71.4438C156.428 69.5722 158.531 67.7005 160.64 65.8289C160.442 65.5983 160.238 65.3731 160.04 65.1425C157.862 66.9819 155.685 68.8214 153.507 70.6662L153.512 70.6608ZM124.039 96.5848C120.834 95.3782 117.506 97.6467 114.788 95.2924C111.529 97.9631 107.719 96.188 104.187 96.5097C100.372 96.8583 96.4982 96.5902 91.9607 96.5902C97.4668 101.438 102.459 105.804 107.414 110.212C108.377 111.07 108.848 110.271 109.399 109.777C114.215 105.455 119.015 101.116 124.034 96.5902L124.039 96.5848ZM89.0177 93.8229C90.532 93.8229 92.0463 93.8122 93.5659 93.8229C94.3793 93.8283 95.2354 93.9785 95.1659 92.6968C95.1124 91.6295 94.3793 91.6993 93.6516 91.6993C90.9761 91.6993 88.2899 91.5652 85.6305 91.7475C83.5865 91.887 82.9926 91.1201 82.9818 89.1841C82.9712 86.98 83.9771 84.0197 82.5698 82.7594C81.0609 81.408 78.1446 82.4108 75.8438 82.3733C74.3401 82.3518 72.9114 82.4376 71.6486 81.1881C67.5284 77.1123 63.2798 73.1706 59.1115 69.1431C57.7042 67.7863 56.3076 66.3974 55.0555 64.9011C53.9906 63.6248 53.9853 62.0642 55.9598 62.0964C59.7429 62.1607 59.5663 59.8172 59.4593 57.2644C59.4058 56.0149 59.3576 54.7439 59.5395 53.5158C59.8927 51.0596 58.8065 49.424 57.2226 47.6381C55.0287 45.1605 51.0798 43.8895 51.267 39.61C51.2724 39.4598 50.9246 39.1756 50.7266 39.1595C50.3199 39.1273 50.1112 39.4437 50.0898 39.8352C50.0096 41.3475 49.8116 42.8277 51.1761 44.0343C53.1184 45.7451 54.9057 47.622 56.8213 49.3596C57.5972 50.0621 58.0787 50.7486 58.0252 51.8641C57.9236 53.9127 57.87 55.9774 57.9717 58.026C58.0627 59.9459 57.64 60.8039 55.3979 60.6913C52.3212 60.5358 50.9727 61.9462 51.3687 64.204C51.5881 65.4589 52.5834 66.1507 53.4234 66.9122C61.9421 74.6508 70.5356 82.3036 78.9901 90.1119C81.901 92.7986 84.8975 94.6864 89.023 93.8122L89.0177 93.8229ZM157.862 63.8715C157.274 63.8071 156.824 63.6409 156.423 63.7267C153.806 64.3005 153.352 63.0295 153.464 60.7235C153.635 57.1625 153.523 53.5909 153.512 50.0246C153.512 49.4561 153.764 48.6732 152.774 48.6464C151.96 48.6249 151.324 48.9467 151.468 49.8852C151.912 52.8401 150.045 54.406 148.049 56.0203C145.908 57.7578 143.913 59.6724 141.858 61.5172C140.798 62.4664 139.905 68.1886 140.675 69.3148C140.841 69.5561 141.237 69.7331 141.537 69.7599C147.749 70.2533 153.913 70.575 157.862 63.8715ZM101.357 70.6233C101.357 70.6233 101.368 70.6233 101.373 70.6233C101.373 71.8728 101.368 73.1224 101.373 74.3719C101.41 79.6758 101.41 79.6168 106.654 79.6758C108.136 79.6919 108.693 79.3379 108.65 77.772C108.548 74.2057 108.629 70.634 108.629 67.0677C108.629 61.4206 108.629 61.4635 103.021 61.721C101.758 61.78 101.287 62.1125 101.33 63.4049C101.41 65.8128 101.352 68.2207 101.352 70.6286L101.357 70.6233ZM125.356 35.3143C125.356 36.5907 125.302 37.3093 125.372 38.0172C125.447 38.7465 124.912 39.8513 125.998 40.0712C127.346 40.3447 127.523 39.0737 127.731 38.1674C128.689 33.9843 130.182 29.989 131.852 26.0527C132.788 23.8432 133.815 21.6659 134.693 19.4296C134.939 18.7968 135.421 17.8046 134.094 17.5472C132.97 17.3273 132.44 17.7403 132.478 18.9469C132.537 20.9365 131.504 22.3738 130.3 23.9129C127.571 27.4041 124.467 30.8417 125.356 35.309V35.3143ZM67.3786 45.0854C67.3786 45.0854 67.4107 45.0854 67.4268 45.0854C67.4268 39.4705 67.4268 33.861 67.4268 28.2461C67.4268 27.8921 67.4696 27.5275 67.4268 27.1789C67.3412 26.4656 67.7853 25.3609 66.5011 25.3823C65.4148 25.3984 65.784 26.4013 65.7038 27.0234C65.6235 27.6401 65.661 28.2675 65.661 28.8896C65.6503 40.0229 65.6289 51.1615 65.6663 62.2948C65.6663 63.008 64.9814 64.3648 66.4957 64.3112C67.8655 64.263 67.3465 62.9491 67.3519 62.1875C67.4 56.4868 67.3786 50.7861 67.3786 45.0854ZM19.6271 61.9194C20.8257 63.6355 22.2223 63.4532 23.5172 63.4478C31.3403 63.4156 39.1633 63.3566 46.981 63.3084C47.4251 63.3084 47.8692 63.3084 48.3133 63.2976C48.7896 63.2869 49.1855 63.185 49.1962 62.5844C49.2069 62.0964 49.0732 61.5869 48.5327 61.6566C46.5101 61.9301 44.5998 60.6269 42.7377 60.9273C39.7144 61.4206 36.7179 61.3295 33.7054 61.3885C29.125 61.4796 24.5339 61.3831 19.6218 61.914L19.6271 61.9194ZM132.28 89.2484C129.353 89.2484 126.966 89.2967 124.58 89.2324C122.461 89.1787 123.387 90.7339 123.221 91.6885C123.055 92.6753 122.953 93.3939 124.494 93.6245C128.181 94.1823 129.861 91.6027 132.28 89.2484ZM107.045 41.3636C107.377 41.8838 107.435 42.0661 107.559 42.168C109.447 43.7769 111.342 45.3804 113.241 46.9839C113.637 47.3164 113.99 47.9063 114.558 47.7186C115.36 47.4504 115.007 46.6514 115.002 46.1044C114.937 40.2964 115.842 41.621 110.528 41.369C109.485 41.3207 108.441 41.3636 107.045 41.3636ZM146.47 76.5331C140.172 75.5196 140.199 75.4123 141.071 81.3007C142.81 79.7616 144.533 78.2439 146.47 76.5331ZM63.4189 70.9182C63.5581 67.8042 62.0669 66.4528 58.9456 66.8639C60.4117 68.1939 61.7388 69.3952 63.4189 70.9182ZM150.061 45.6968C150.97 45.6968 151.602 45.7772 152.207 45.6753C152.881 45.5574 154.037 46.1526 154.058 44.8602C154.085 43.4873 152.945 44.1523 152.276 44.0879C151.661 44.0289 150.992 43.9378 150.425 44.1147C149.306 44.458 147.198 43.1387 147.225 45.0747C147.241 46.528 149.29 45.3267 150.066 45.6968H150.061ZM49.9561 34.7083C50.3627 35.4055 49.1534 37.1216 50.855 37.0572C51.9734 37.0143 51.2724 35.4538 51.465 34.5903C51.5613 34.172 51.5025 33.7162 51.4918 33.2764C51.4811 32.7831 51.6737 32.1395 50.8925 32.0698C50.0203 31.9894 49.9079 32.5685 49.9507 33.2604C49.9775 33.7001 49.9507 34.1399 49.9507 34.7083H49.9561ZM130.45 36.3118C130.107 37.5024 128.614 38.2371 129.23 39.685C129.31 39.8674 130.204 39.9746 130.418 39.7816C131.611 38.7036 130.573 37.5131 130.444 36.3118H130.45ZM147.118 52.8884C148.621 52.1644 149.338 49.8798 148.418 48.9252C148.22 48.7214 147.797 48.6142 147.508 48.6571C147.107 48.7214 147.118 49.1397 147.118 49.4937C147.118 50.6091 147.118 51.7246 147.118 52.8884Z" fill="#101010"/>
        <path d="M209.895 72.2375C210.269 73.2243 210.269 73.9858 208.926 74.1199C207.631 74.2486 206.336 74.3987 204.613 73.9322C206.582 77.5682 204.399 77.5146 202.237 77.3322C200.803 77.2089 198.749 78.0616 198.096 76.5332C197.357 74.7956 199.942 74.565 200.627 73.4013C193.697 73.4013 186.805 73.4227 179.908 73.3852C178.667 73.3798 177.928 73.8946 177.409 74.9618C176.061 77.7076 173.808 78.7266 170.838 78.3565C170.576 78.3243 170.303 78.3565 170.036 78.3565C159.457 78.3994 159.527 78.4638 151.955 86.2453C148.386 89.9188 144.496 93.276 140.36 97.1426C147.578 97.1426 154.304 97.1372 161.025 97.1479C162.534 97.1479 162.17 96.0271 162.106 95.2548C161.988 93.7908 162.523 93.1365 163.936 92.5305C167.28 91.0986 170.437 89.227 173.771 87.7576C175.135 87.157 175.103 86.2989 174.969 85.2156C174.798 83.8373 174.825 82.738 176.762 83.0812C178.378 83.3708 179.148 82.6414 178.72 80.9897C178.046 78.4102 179.32 77.9543 181.503 78.2064C182.733 78.3458 184.012 78.3512 185.238 78.1849C187.983 77.8202 189.738 78.319 189.08 81.6922C188.78 83.226 189.957 83.1026 190.958 83.1026C195.324 83.0919 199.69 83.1455 204.057 83.0544C205.635 83.0222 206.245 83.3601 206.138 85.1191C205.946 88.3261 206.074 91.5491 206.031 94.7615C206.01 96.5795 207.273 98.2366 206.593 100.151C206.374 100.768 206.342 101.385 205.528 101.417C204.715 101.449 204.372 100.923 204.426 100.232C204.533 98.8104 203.757 98.6227 202.617 98.7192C201.82 98.789 201.007 98.8158 200.215 98.7353C196.64 98.376 193.895 98.9928 191.536 102.43C188.689 106.57 184.43 108.421 178.918 108.281C165.113 107.927 151.297 108.27 137.481 108.265C135.849 108.265 134.709 108.71 133.537 109.912C130.359 113.161 127.041 116.283 123.686 119.35C122.611 120.332 122.081 121.313 122.086 122.793C122.129 137.176 122.129 151.554 122.097 165.937C122.086 169.396 124.35 171.847 125.671 174.727C127.047 177.73 128.898 179.253 132.467 179.494C142.232 180.165 151.966 181.296 161.704 182.321C168.447 183.029 174.873 185.249 181.465 186.691C187.437 187.995 193.366 189.507 199.289 191.019C199.974 191.196 201.376 191.051 201.119 192.392C200.873 193.695 199.91 193.266 198.957 193.041C189.16 190.681 179.304 188.525 169.543 186.021C162.068 184.101 154.432 183.688 146.824 182.943C143.549 182.621 140.269 182.321 136.994 182.01C133.596 181.613 130.198 181.216 126.8 180.824C124.719 179.012 124.152 176.234 122.562 174.115C120.433 171.273 119.866 168.077 119.898 164.554C120.01 150.798 120.048 137.042 119.834 123.292C119.791 120.326 120.909 118.503 122.905 116.69C125.939 113.934 129.048 111.204 131.664 108.077C133.109 106.345 134.516 105.793 136.566 105.793C151.447 105.804 166.333 105.771 181.214 105.75C186.484 105.745 191.536 100.918 191.493 95.7C191.482 94.5523 192.761 92.3857 190.615 92.2409C187.86 92.0586 189.492 94.5148 189.417 95.6303C189.069 100.939 185.923 104.109 180.588 104.114C165.616 104.136 150.644 104.205 135.672 104.125C133.216 104.114 131.477 104.983 129.813 106.646C126.281 110.169 122.739 113.708 118.951 116.942C117.313 118.342 116.821 119.731 116.826 121.731C116.853 135.128 117.035 148.535 116.66 161.92C116.489 168.034 117.233 173.413 121.284 178.293C122.884 180.218 124.184 181.752 126.784 181.613C130.182 182.015 133.585 182.417 136.983 182.819C144.046 183.683 151.115 184.53 158.173 185.436C158.815 185.517 159.997 185.018 159.906 186.412C159.815 187.796 158.863 187.474 157.943 187.367C146.535 186.042 135.126 184.734 123.713 183.458C122.161 183.286 121.134 182.551 120.326 181.216C118.945 178.947 117.656 176.631 115.81 174.636C114.857 173.606 114.381 172.104 114.386 170.458C114.461 153.581 114.456 136.704 114.434 119.827C114.434 118.567 114.804 117.666 115.74 116.797C120.32 112.561 124.869 108.281 129.369 103.953C131.119 102.269 132.943 101.524 135.517 101.588C144.774 101.819 154.047 101.653 163.31 101.771C165.482 101.798 166.221 100.918 165.825 98.9767C165.252 96.1504 166.627 94.7936 169.089 93.8766C171.748 92.8845 174.306 91.6296 176.912 90.5034C178.265 89.9188 179.138 89.0608 178.817 87.4358C178.661 86.6475 179.207 85.4355 177.811 85.355C176.253 85.2639 177.179 86.5027 177.104 87.0872C176.944 88.3207 176.007 88.6425 175.157 89.0608C172.363 90.4229 169.576 91.8226 166.718 93.0454C164.797 93.8659 163.583 94.9224 164.037 97.2176C164.257 98.317 163.764 98.8158 162.571 98.8158C153.967 98.7836 145.357 98.7997 136.689 98.7997C136.555 98.0918 137.235 97.6789 137.722 97.223C144.437 90.9592 151.201 84.7544 157.878 78.4477C159.762 76.6726 161.774 75.9057 164.364 76.1256C166.841 76.3401 169.351 76.1417 171.844 76.2007C173.434 76.2382 174.557 75.6322 175.429 73.9054C171.181 74.7152 167.13 74.4309 163.074 74.4256C161.608 74.4256 160.886 73.9697 161.084 72.4359L160.993 72.5271C163.738 72.4628 166.488 72.3448 169.233 72.3555C170.63 72.3555 171.497 71.8246 171.588 70.4356C171.727 68.3012 172.84 67.6845 174.798 68.0599C175.494 68.1939 176.216 68.1564 176.928 68.2207C178.699 68.3924 180.898 68.269 178.694 71.0791C185.104 71.0791 191.215 71.0845 197.325 71.0684C197.844 71.0684 198.604 71.1006 198.84 70.7949C200.852 68.1832 203.779 69.658 206.224 69.1807C208.081 68.816 208.926 70.8646 209.879 72.2375L209.868 72.2697L209.895 72.2375ZM183.065 85.8109C183.359 86.374 183.541 86.7655 183.761 87.1301C184.938 89.0822 184.596 90.0422 182.172 90.6267C177.586 91.7315 173.434 94.0697 169.094 95.8769C166.75 96.853 167.863 98.9713 167.804 100.564C167.74 102.291 169.41 101.578 170.282 101.615C173.482 101.749 176.74 101.342 179.887 101.798C185.222 102.575 188.341 96.912 187.089 92.5949C186.704 91.2649 186.634 89.9885 186.672 88.6532C186.757 85.4623 186.747 85.4623 183.071 85.8162L183.065 85.8109ZM196.453 85.4784V85.4945C194.762 85.4945 193.066 85.532 191.375 85.4837C189.936 85.4408 188.764 85.3658 188.935 87.5002C189.069 89.1358 188.882 90.5195 191.236 90.2138C192.365 90.069 193.671 89.8062 193.858 91.8441C194.281 96.4615 194.393 96.4508 199.086 96.44C199.979 96.44 200.873 96.3703 201.756 96.44C202.992 96.5419 203.522 96.129 203.49 94.799C203.431 92.2088 203.436 89.6131 203.564 87.0282C203.639 85.5803 202.949 85.4194 201.793 85.4569C200.011 85.5159 198.23 85.473 196.448 85.473L196.453 85.4784ZM183.338 83.3493C184.21 82.1373 186.773 84.5131 186.666 81.6708C186.586 79.3647 184.472 80.6196 183.359 80.5767C182.156 80.5285 179.823 79.4827 180.026 82.1052C180.192 84.2557 182.23 82.4216 183.333 83.3493H183.338ZM176.767 70.5482C176.51 69.6419 175.713 69.8564 175.044 69.7652C173.862 69.6044 173.482 70.2908 173.369 71.2883C173.252 72.3072 173.872 72.1303 174.525 72.0659C175.563 71.964 176.441 71.7066 176.767 70.5482Z" fill="#101010"/>
        <path d="M18.6372 76.56C20.7722 77.5574 22.2491 78.8284 23.7687 80.0297C24.2396 80.4051 24.9245 80.8073 24.6998 81.5045C24.459 82.2607 23.651 81.9764 23.0677 82.0354C22.3507 82.1105 21.5588 81.8209 20.9434 83.0329C22.645 83.0329 24.368 83.1777 26.0482 82.99C27.5411 82.8238 27.006 81.4348 26.8883 80.6357C26.5886 78.6032 27.2629 77.8524 29.3123 78.1045C30.452 78.2439 31.6292 78.1205 32.785 78.0347C35.4925 77.8363 37.5526 78.3726 37.36 81.7458C37.2905 82.9793 38.0503 83.3332 39.067 83.1026C40.7846 82.7165 40.897 83.8427 40.6883 84.9206C40.303 86.8888 41.3464 87.5216 42.9464 88.0847C46.3067 89.2699 49.3889 91.0879 52.5619 92.686C53.6642 93.2438 54.0388 93.9678 53.8247 95.0028C53.4181 96.9709 54.4241 97.1426 56.0133 97.1265C62.52 97.0568 69.0267 97.0997 76.031 97.0997C73.4198 94.6113 71.1135 92.3643 68.7591 90.1709C65.0991 86.7708 61.3695 83.4458 57.747 80.0029C56.5644 78.8821 55.3498 78.3351 53.7124 78.3726C50.5072 78.453 47.2913 78.2975 44.0861 78.3994C41.5016 78.4799 39.5164 77.5896 38.4355 75.2246C37.7292 73.6694 36.6376 73.294 35.0645 73.2833C29.2694 73.2618 23.4798 73.1331 17.6847 73.0473C17.3262 73.0473 16.9731 73.0366 16.6146 73.0366C17.1818 75.9379 12.3124 76.029 13.4415 79.3647C14.2334 81.7083 12.8636 82.3304 10.75 81.9443C9.54066 81.7244 8.326 81.5635 6.99898 81.3597C7.4217 79.5578 9.09654 79.2092 10.1293 78.2224C10.964 77.4234 12.8743 77.1874 12.184 75.5947C11.6864 74.447 10.1346 75.1656 9.05373 75.053C8.25644 74.9726 7.40565 75.1656 6.66187 74.9565C5.71476 74.6883 4.163 75.8521 3.858 74.0394C3.5423 72.1356 4.38239 70.6394 6.15889 69.8779C8.94671 68.6819 10.8463 70.0977 12.2536 72.3448C12.9706 71.9801 12.7191 71.4706 12.8261 71.0845C13.0295 70.3605 12.4569 69.288 13.3773 68.9501C14.1531 68.6659 14.9076 69.3201 15.416 69.9422C16.0795 70.7574 16.9784 70.7145 17.856 70.7574C19.1937 70.8217 20.5314 70.8539 21.8638 70.8539C26.4977 70.8646 31.1262 70.8539 35.7708 70.8539C34.9414 68.1993 34.9682 68.387 38.0396 67.9258C40.9826 67.486 43.4279 67.3788 43.8935 71.1864C44.0219 72.2536 44.9422 71.9962 45.579 72.0176C47.9816 72.0927 50.3895 72.141 52.7974 72.1088C53.9371 72.0927 54.8468 72.3769 54.8361 73.6211C54.82 75.1549 53.5251 74.4256 52.8295 74.4524C50.336 74.5435 47.8264 74.3237 45.3436 74.5274C43.1122 74.7151 42.1009 73.7874 41.5819 71.7495C41.3785 70.9611 41.5712 69.5561 40.0248 69.717C39.2703 69.7921 38.259 69.3148 37.8309 70.1085C37.4296 70.8539 38.4623 71.2347 38.7887 71.8192C40.8809 75.5357 44.0165 76.8656 48.1635 76.1631C53.889 75.1871 58.2393 77.2357 62.231 81.5313C67.2609 86.9424 72.9756 91.7154 78.3801 96.7725C78.883 97.2444 79.3165 97.7915 79.7231 98.2312C79.5466 99.0035 79.065 98.8962 78.6369 98.8908C70.8834 98.864 63.1246 98.8587 55.3712 98.7943C54.1993 98.7836 53.3325 98.6924 53.3432 100.355C53.3539 102.039 54.4294 101.685 55.3284 101.68C64.0664 101.642 72.8044 101.615 81.5371 101.486C82.7732 101.47 83.7738 101.642 84.7262 102.436C90.2912 107.053 95.4334 112.126 100.725 117.049C101.694 117.95 101.828 119.055 101.822 120.219C101.801 137.015 101.764 153.817 101.737 170.614C101.737 172.743 100.49 174.292 99.3288 175.88C99.072 176.228 98.5797 176.475 98.462 176.851C96.7176 182.524 92.5064 183.892 87.0753 184.337C77.7594 185.099 68.4969 186.53 59.2131 187.678C58.9456 187.71 58.678 187.732 58.4158 187.742C57.656 187.775 56.7196 188.129 56.65 186.825C56.5858 185.581 57.5276 185.715 58.2981 185.619C64.4838 184.868 70.6748 184.133 76.8604 183.361C81.719 182.76 86.5669 182.058 91.4363 181.532C92.7633 181.387 93.5071 180.846 94.1224 179.736C95.4976 177.242 96.8353 174.711 98.7402 172.555C99.5215 171.675 99.5482 170.635 99.5482 169.546C99.5589 153.463 99.5482 137.38 99.6339 121.297C99.6446 119.178 98.157 118.46 97.0173 117.146C93.7265 113.36 89.7507 110.351 86.2031 106.876C84.1002 104.817 81.8153 103.975 78.8028 104.007C64.366 104.163 49.9239 104.093 35.4818 104.087C29.8955 104.087 27.1505 101.363 27.1023 95.8287C27.0756 93.0614 26.9686 90.2888 27.0649 87.5216C27.1237 85.8377 26.487 85.28 24.8817 85.4569C23.7366 85.5856 22.5701 85.5749 21.409 85.5588C19.5843 85.5266 21.3501 88.2349 19.504 88.0686C17.9683 87.9292 19.381 85.6875 17.8132 85.5105C17.1978 85.4408 16.5664 85.4462 15.9457 85.4462C11.8469 85.4462 7.74276 85.4569 3.64396 85.4462C2.72361 85.4462 1.58386 85.784 1.65343 84.1269C1.71764 82.6253 2.78247 83.0329 3.5744 83.0222C7.76416 82.9632 11.9539 82.8559 16.1437 82.9632C18.1128 83.0115 18.9315 82.443 18.6586 80.3998C18.5034 79.2628 18.6318 78.0884 18.6318 76.5439L18.6372 76.56ZM39.8321 101.776C39.8321 101.717 39.8321 101.653 39.8321 101.594C41.5177 101.594 43.2193 101.728 44.8887 101.54C45.8251 101.433 47.6284 102.323 47.5374 100.441C47.4625 98.7782 48.7949 96.7189 46.0178 95.5015C41.6193 93.5816 37.0711 92.1444 32.5817 90.5141C30.8587 89.892 30.4895 89.0125 31.8539 87.645C32.2178 87.2803 33.4164 87.4787 32.8653 86.5402C32.2874 85.5588 31.0941 85.3497 30.0346 85.414C29.1036 85.4676 29.4888 86.374 29.4728 86.9049C29.4032 90.1065 29.3604 93.3135 29.3658 96.5151C29.3658 99.4808 31.763 101.771 34.7648 101.776C36.4504 101.776 38.1359 101.776 39.8268 101.776H39.8321ZM38.4088 84.8992C36.0651 88.5459 36.2149 89.0232 40.0729 90.8198C41.5979 91.5277 43.0962 92.3589 44.6961 92.8362C48.1688 93.8712 50.1754 95.7482 49.2925 99.6685C49.2176 100.006 49.2925 100.376 49.2818 100.736C49.2658 101.449 49.4638 101.905 50.3092 101.926C51.1493 101.948 51.3901 101.54 51.3954 100.8C51.4061 99.4647 51.3312 98.1186 51.4811 96.7993C51.6897 94.9384 51.0262 93.898 49.2337 93.2009C46.6813 92.2087 44.268 90.8734 41.7692 89.7472C39.7091 88.8194 37.649 87.9453 38.4141 84.9046L38.4088 84.8992ZM32.4586 82.8881C32.4586 82.8506 32.4586 82.813 32.4586 82.7701C32.9027 82.7701 33.3415 82.7862 33.7856 82.7701C34.5775 82.7272 35.6049 83.1938 35.53 81.6118C35.4604 80.1477 34.5187 80.448 33.6839 80.4319C32.6245 80.4158 31.5596 80.4695 30.5002 80.4373C29.4032 80.4051 29.5102 81.1345 29.4995 81.8585C29.4888 82.6414 29.7778 82.99 30.6018 82.8988C31.2118 82.8291 31.8379 82.8881 32.4586 82.8881Z" fill="#101010"/>
        <path d="M161.105 72.4091C160.147 72.3448 159.762 73.176 159.222 73.6962C144.405 87.8917 128.861 101.283 113.841 115.264C112.417 116.588 111.796 117.918 111.802 119.892C111.845 136.506 111.877 153.125 111.673 169.739C111.631 173.161 113.091 175.698 114.707 178.352C119.207 185.758 119.224 185.603 127.892 186.681C146.791 189.03 165.696 191.336 184.531 194.167C188.186 194.72 191.846 195.234 195.506 195.749C196.228 195.851 197.272 195.631 197.122 196.779C196.994 197.755 196.186 197.739 195.276 197.605C186.645 196.344 178.014 195.106 169.367 193.958C161.068 192.859 152.779 191.55 144.442 190.933C136.175 190.322 128.154 188.161 119.898 187.657C118.592 187.576 117.843 186.707 117.206 185.694C114.879 181.999 112.572 178.293 110.207 174.625C109.517 173.558 109.587 172.415 109.592 171.268C109.608 153.399 109.645 135.535 109.651 117.666C109.651 116.524 109.945 115.757 110.833 114.92C127.512 99.1965 144.571 83.8803 161.464 68.3977C161.86 68.0384 162.405 67.7327 162.603 67.2822C164.401 63.2011 167.911 63.3513 171.539 63.3942C178.934 63.4854 186.335 63.3942 193.735 63.3566C194.917 63.3513 196.239 63.5443 196.983 62.0481C196.314 61.4367 195.581 61.6191 194.933 61.6137C186.377 61.5601 177.821 61.5386 169.265 61.4957C166.782 61.485 164.123 61.0238 163.133 64.7081C163.085 61.3188 161.105 60.5626 158.713 60.6377C156.921 60.6913 156.712 59.8654 156.733 58.4067C156.798 53.8537 156.803 49.2953 156.755 44.7368C156.744 43.4712 157.135 42.5864 158.109 41.739C159.205 40.7898 160.211 39.4813 161.34 38.8431C165.391 36.5371 165.359 32.9386 165.145 29.1095C165.065 27.683 165.145 26.2511 165.156 24.8246C165.161 24.1489 165.289 23.5965 166.162 23.5912C166.921 23.5858 167.034 24.0577 167.045 24.6262C167.114 28.289 167.184 31.9465 167.237 35.6093C167.253 36.7408 166.461 37.3844 165.643 37.926C160.399 41.4226 157.718 46.0347 158.874 52.5666C159.227 54.5509 158.194 57.2376 159.184 58.5247C160.228 59.8762 163.037 58.7875 165.017 59.1522C166.857 59.49 168.088 58.8572 169.115 57.42C169.581 56.7711 170.127 56.1436 170.747 55.6556C174.268 52.9098 175.927 49.4562 175.055 44.9406C174.67 42.9296 175.558 42.1734 177.559 42.4469C178.522 42.581 179.534 42.5649 180.491 42.4255C182.482 42.1359 183.531 42.6561 183.087 44.9031C182.98 45.4394 182.733 46.2224 183.825 46.1902C184.751 46.1634 184.719 45.5574 184.713 44.9031C184.697 43.2942 184.777 41.68 184.67 40.0819C184.569 38.5857 185.43 38.5749 186.506 38.5803C187.597 38.5857 188.486 38.6715 188.347 40.1248C188.288 40.7415 188.352 41.3743 188.347 42.0018C188.32 44.0504 188.999 46.5763 188.047 48.0082C187.143 49.365 184.419 48.5552 182.498 48.7268C181.422 48.8233 180.663 49.247 180.085 50.4805C182.268 50.4805 184.312 50.5019 186.356 50.4697C187.255 50.459 187.902 50.5502 187.881 51.7246C187.86 52.7918 187.405 53.1672 186.415 53.06C186.329 53.0493 186.238 53.06 186.147 53.06C181.67 53.3246 177.95 55.3356 174.985 59.0932C177.998 59.0932 180.7 58.9806 183.386 59.12C187.41 59.3292 191.268 59.3613 194.436 56.1651C195.939 54.6528 196.903 54.9209 196.887 57.4253C196.876 59.3881 197.475 61.3509 197.807 63.3137C198.128 65.2336 197.491 65.9791 195.399 65.9523C186.575 65.8504 177.752 65.9523 168.928 65.9094C167.494 65.904 166.461 66.1024 165.685 67.5343C164.589 69.5615 162.063 70.3444 161.019 72.4949L161.11 72.4038L161.105 72.4091ZM170.18 58.9269C170.335 59.0878 170.485 59.2541 170.64 59.415C174.151 57.2645 176.446 53.784 179.459 51.0811C179.576 50.9738 179.689 50.6413 179.683 50.636C177.318 49.3167 179.641 48.153 179.849 46.9571C179.983 46.1902 180.759 45.3053 180.213 44.7047C179.619 44.0504 178.49 44.3507 177.65 44.5009C176.419 44.7208 176.997 45.8309 177.056 46.4798C177.308 49.3703 176.906 51.9392 174.632 54.0575C173.032 55.5483 171.657 57.2913 170.186 58.9216L170.18 58.9269Z" fill="#101010"/>
        <path d="M96.3751 144.7C96.3751 151.404 96.1986 158.107 96.4447 164.8C96.5785 168.501 95.4548 171.514 93.491 174.518C89.1193 181.221 89.1889 181.157 81.1572 181.811C72.7241 182.503 64.259 183.109 55.9009 184.358C45.1616 185.962 34.7595 189.228 24.1754 191.636C21.8317 192.167 19.4933 192.703 17.1496 193.229C16.5343 193.368 15.8119 194.006 15.5123 192.762C15.2447 191.657 15.8119 191.405 16.6895 191.185C23.3299 189.523 30.0239 188.037 36.5895 186.112C50.8015 181.945 65.4576 180.969 80.0763 179.623C82.115 179.435 84.1537 179.205 86.1924 179.055C87.2465 178.974 87.9475 178.551 88.6056 177.676C90.7888 174.78 92.0998 171.396 93.9191 168.302C94.2401 167.75 94.1171 166.908 94.1171 166.2C94.1331 151.634 94.1171 137.069 94.1813 122.509C94.1866 121.179 93.6462 120.439 92.7793 119.575C89.0819 115.886 84.5389 113.102 81.3284 108.903C80.7612 108.163 80.1137 108.297 79.4395 108.292C71.2366 108.265 63.0337 108.319 54.8361 108.179C52.8616 108.147 52.8455 109.118 53.0542 110.453C53.402 112.657 52.6101 113.344 50.3306 113.263C45.167 113.076 39.9873 113.145 34.8183 113.231C33.09 113.263 32.3302 112.727 32.6459 110.968C32.9455 109.279 32.1482 108.801 30.6286 107.959C27.5732 106.27 24.8175 103.803 23.1694 100.634C22.3454 99.0464 21.532 98.612 19.9589 98.7192C18.4499 98.8211 16.9303 98.7031 15.416 98.7514C13.8588 98.7997 11.6061 97.6896 11.788 100.859C11.8201 101.411 11.1834 101.385 10.7446 101.395C10.2363 101.406 9.86172 101.149 9.7761 100.661C9.37479 98.4296 9.76005 96.2202 10.0169 94.0107C10.0918 93.3403 10.7446 93.351 11.2851 93.3242C12.1573 93.276 12.398 93.839 12.2803 94.5201C11.9058 96.6599 13.2435 96.5312 14.6561 96.44C15.6353 96.3757 16.6146 96.4186 17.5991 96.4132C18.9315 96.4025 20.494 96.8261 21.5427 96.2684C22.8377 95.582 21.9334 93.8444 22.0992 92.5788C22.2223 91.6296 22.5059 91.163 23.5547 91.1254C24.6837 91.0879 24.9031 91.5867 24.871 92.5573C24.8389 93.6245 24.9352 94.6971 24.9673 95.7697C25.1546 102.007 28.8039 105.648 35.0217 105.664C49.8223 105.702 64.6175 105.707 79.4181 105.691C80.7023 105.691 81.8581 105.771 82.8534 106.742C86.9361 110.732 91.0349 114.706 95.1765 118.631C96.1611 119.565 96.4394 120.567 96.4287 121.903C96.3644 129.497 96.3965 137.09 96.3965 144.69H96.3751V144.7ZM43.1336 110.63V110.598C45.1777 110.598 47.2271 110.593 49.2711 110.598C50.0845 110.598 50.8604 110.743 50.855 109.456C50.855 108.324 50.3253 108.142 49.3835 108.142C45.2901 108.142 41.1966 108.126 37.1085 108.04C36.124 108.018 35.6691 108.206 35.6049 109.295C35.5407 110.416 36.0116 110.662 36.9962 110.641C39.0402 110.598 41.0896 110.63 43.1336 110.63Z" fill="#101010"/>
        <path d="M107.773 212.46C87.1769 212.111 66.7311 210.588 46.6331 205.59C41.9243 204.421 37.344 202.919 32.7261 201.509C31.9074 201.257 30.5323 201.219 31.062 199.707C31.5275 198.372 32.5014 199.063 33.2773 199.332C54.0655 206.663 75.6886 209.285 97.5202 210.138C113.905 210.776 130.273 209.778 146.583 207.837C159.355 206.314 171.78 203.391 184.028 199.551C184.799 199.31 185.89 198.409 186.361 200.077C186.779 201.552 185.66 201.364 184.863 201.621C170.095 206.378 154.946 209.231 139.525 210.76C128.968 211.806 118.394 212.562 107.773 212.46Z" fill="#101010"/>
        <path d="M113.535 205.869C93.6194 206.11 75.405 204.576 57.5169 200.018C56.0561 199.648 54.6167 199.187 53.1773 198.72C52.5298 198.511 51.663 198.35 51.9947 197.331C52.3212 196.328 53.1719 196.714 53.798 196.865C57.5062 197.76 61.1823 198.79 64.9065 199.627C84.2661 203.976 103.872 204.464 123.585 203.423C137.047 202.71 150.269 200.554 163.315 197.197C164.037 197.009 164.936 196.318 165.241 197.599C165.514 198.736 164.535 198.801 163.754 199.015C150.735 202.528 137.475 204.507 124.039 205.375C120.042 205.633 116.034 205.751 113.535 205.863V205.869Z" fill="#101010"/>
        <path d="M108.463 176.69C110.972 180.524 113.68 184.176 115.858 188.118C118.078 192.135 120.829 193.92 125.5 192.714C128.315 191.99 131.311 191.995 134.222 191.609C135.116 191.491 136.047 191.593 136.223 192.451C136.486 193.733 135.207 193.427 134.565 193.507C117.715 195.631 100.838 195.792 83.9557 193.969C83.0782 193.872 81.1465 194.462 81.3659 192.703C81.5906 190.928 83.2494 191.931 84.234 192.06C88.1187 192.569 92.0142 192.944 95.931 193.073C97.0226 193.111 97.6594 192.757 98.3389 191.893C101.164 188.311 103.503 184.423 105.841 180.529C106.611 179.242 107.216 177.837 108.458 176.69H108.463ZM99.9496 193.373C102.352 193.373 104.113 193.32 105.862 193.395C106.874 193.438 107.312 193.154 107.302 192.086C107.264 188.944 107.286 185.801 107.286 182.326C104.883 185.941 102.625 189.341 99.9442 193.373H99.9496ZM116.837 192.971C114.279 189.212 111.893 185.71 109.212 181.768C109.212 183.865 109.201 185.361 109.212 186.852C109.244 191.525 111.784 193.563 116.832 192.966L116.837 192.971Z" fill="#101010"/>
        <path d="M110.742 199.573C96.0755 199.573 83.7631 198.468 71.5363 196.387C70.7978 196.264 69.4066 196.682 69.6153 195.229C69.84 193.652 71.0814 194.408 71.959 194.548C96.3484 198.313 120.743 198.35 145.143 194.596C145.406 194.553 145.673 194.516 145.925 194.43C146.722 194.167 147.428 194.307 147.615 195.17C147.846 196.237 146.941 196.216 146.24 196.312C141.301 196.988 136.379 197.825 131.424 198.302C123.799 199.037 116.163 199.707 110.742 199.584V199.573Z" fill="#101010"/>
        <path d="M152.469 228.843C149.986 229.755 149.879 228.28 149.857 226.366C149.841 224.692 149.659 222.95 149.151 221.367C148.439 219.158 149.349 218.59 151.297 218.386C153.534 218.15 155.551 218.059 156.637 220.606C157.943 223.657 157.6 226.441 155.711 228.216C154.721 229.149 153.646 229.052 152.463 228.843H152.469ZM151.859 222.542C152.522 223.706 151.11 225.931 153.373 226.317C154.695 226.543 155.353 225.288 155.133 223.963C154.877 222.44 154.807 220.558 152.709 220.45C151.206 220.37 152.009 221.689 151.859 222.537V222.542Z" fill="#101010"/>
        <path d="M54.4883 220.354C54.1084 222.44 53.9425 224.784 51.7112 226.242C50.4483 227.068 46.8579 226.88 45.8466 225.84C45.4881 225.47 45.3436 224.961 45.563 224.617C47.0773 222.252 46.6974 219.453 47.3502 216.895C47.6391 215.747 48.0404 215.468 49.1374 215.645C52.6957 216.219 54.4776 217.683 54.4883 220.354ZM52.0215 220.692C52.0483 219.608 52.1339 218.413 50.6891 218.203C49.1427 217.984 49.4424 219.33 49.223 220.188C49.0303 220.96 48.8324 221.743 48.7521 222.531C48.6986 223.089 48.324 223.883 49.1374 224.14C49.9133 224.387 50.7266 224.285 51.2456 223.47C51.7914 222.622 52.0108 221.684 52.0215 220.686V220.692Z" fill="#101010"/>
        <path d="M92.0677 228.661C91.9553 230.533 92.3459 232.415 89.3494 231.273C88.3327 230.887 86.7275 231.841 85.4218 230.988C83.2333 229.562 82.923 226.789 84.5978 223.427C85.7376 221.137 87.6318 220.499 90.1895 221.426C91.2971 221.829 92.0677 222.392 92.1372 223.641C92.1586 224.076 92.2389 224.623 91.7038 224.757C90.5962 225.036 89.847 224.564 89.4083 223.497C89.2049 223.009 88.6805 223.019 88.2418 223.1C86.674 223.384 86.4439 224.692 86.2887 225.921C86.1335 227.143 86.0051 228.479 87.4338 229.165C88.2097 229.54 88.9855 229.417 88.8839 228.404C88.7341 226.891 88.8785 226.087 90.7567 226.258C92.8703 226.446 91.6664 227.969 92.073 228.661H92.0677Z" fill="#101010"/>
        <path d="M133.714 231.112C131.953 231.541 131.108 231.015 131.097 229.031C131.086 226.811 130.781 224.596 130.578 222.376C130.455 221.019 131.028 220.526 132.387 220.391C137.122 219.925 137.845 220.681 137.176 225.77C137.058 226.666 137.946 227.068 138.15 227.819C138.374 228.65 139.461 229.417 138.963 230.211C138.476 230.999 137.352 230.57 136.491 230.474C136.127 229.492 135.779 228.511 135.394 227.54C135.142 226.913 134.623 226.484 133.965 226.666C133.189 226.886 133.361 227.599 133.436 228.221C133.548 229.181 133.623 230.146 133.714 231.106V231.112ZM135.87 223.647C135.785 222.59 135.057 222.317 134.227 222.172C133.264 222 132.916 222.537 132.97 223.384C133.013 224.07 132.97 224.88 134.078 224.784C134.902 224.714 135.683 224.628 135.87 223.641V223.647Z" fill="#101010"/>
        <path d="M59.09 228.269C58.9456 228.291 58.5978 228.387 58.25 228.398C55.6548 228.463 55.0715 227.712 55.5745 225.277C56.024 223.105 56.4039 220.912 56.6286 218.708C56.7678 217.356 57.26 217.067 58.5068 217.383C59.7054 217.683 60.9575 217.764 62.1775 217.973C62.825 218.085 63.3547 218.338 63.2423 219.185C63.1246 220.08 62.5093 220.043 61.8725 220.005C61.6959 219.995 61.5033 219.93 61.3428 219.973C60.4652 220.209 58.9509 219.083 58.8279 220.869C58.7208 222.424 60.187 221.829 61.0164 222C61.8244 222.167 62.6591 222.199 62.5628 223.357C62.4665 224.505 61.5889 224.14 60.9522 224.156C60.3315 224.172 59.7054 224.124 59.0954 224.038C58.5496 223.963 58.2714 224.156 58.159 224.676C58.0306 225.25 58.1108 225.781 58.678 226.028C59.0686 226.199 59.5716 226.108 59.9676 226.269C60.7916 226.607 62.4718 225.524 62.3487 227.374C62.2417 228.988 60.797 228.334 59.8178 228.35C59.6412 228.35 59.4646 228.312 59.0793 228.269H59.09Z" fill="#101010"/>
        <path d="M93.9405 226.43C93.9886 225.449 93.9993 224.462 94.1064 223.491C94.192 222.697 93.7693 221.534 95.2301 221.534C96.9691 221.534 96.2735 222.864 96.3002 223.684C96.3538 225.288 96.2521 226.897 96.2253 228.5C96.2093 229.369 96.3645 230.125 97.456 230.195C98.6386 230.27 98.9917 229.573 99.0399 228.543C99.1202 226.848 99.3021 225.159 99.3021 223.464C99.3021 222.365 99.5482 221.861 100.779 221.888C102.234 221.914 102.01 222.692 101.876 223.647C101.646 225.325 101.448 227.009 101.362 228.698C101.234 231.133 100.003 232.415 96.541 232.158C94.0957 231.975 93.5713 230.195 93.8602 228.033C93.9298 227.503 93.9298 226.966 93.9565 226.43C93.9565 226.43 93.9512 226.43 93.9458 226.43H93.9405Z" fill="#101010"/>
        <path d="M76.9514 230.94C72.9864 231.171 71.8466 229.798 73.0024 225.974C73.3395 224.864 73.3663 223.722 73.7462 222.644C74.094 221.657 73.4733 220.043 75.1053 219.882C76.9567 219.7 78.8616 220.048 80.5258 220.842C81.1893 221.158 80.8575 222.193 79.889 222.29C79.1934 222.36 78.471 222.226 77.7754 222.113C76.9407 221.979 76.4591 222.15 76.3414 223.121C76.2022 224.301 76.9514 224.108 77.6523 224.183C78.3854 224.263 79.4609 223.754 79.7499 224.768C80.3759 226.977 78.7546 226.371 77.5774 226.414C76.8069 226.441 75.512 225.518 75.4531 227.352C75.3996 228.918 76.3628 229.176 77.5293 228.94C78.5941 228.725 79.6268 228.473 79.7071 229.964C79.7981 231.718 78.4496 230.908 77.6202 230.967C77.358 230.983 77.0905 230.946 76.9567 230.94H76.9514Z" fill="#101010"/>
        <path d="M140.167 228.666C140.483 226.108 140.772 223.722 141.082 221.335C141.216 220.322 141.462 219.464 142.768 219.303C144.036 219.142 144.491 219.823 144.929 220.783C145.962 223.046 147.096 225.272 148.097 227.551C148.327 228.082 149.296 228.8 148.263 229.342C147.557 229.712 146.652 229.583 146.171 228.725C145.791 228.044 145.641 227.224 144.56 227.229C143.452 227.229 142.693 227.374 142.693 228.774C142.693 229.878 141.852 230.259 140.841 230.168C139.536 230.055 140.547 229.01 140.167 228.666Z" fill="#101010"/>
        <path d="M168.265 221.609C169.008 221.732 169.265 222.344 169.683 222.794C170.255 223.411 170.994 223.25 171.657 222.939C172.069 222.74 172.395 222.301 172.192 221.845C171.914 221.207 171.256 221.067 170.619 221.014C169.725 220.938 168.816 220.885 168.061 220.359C166.905 219.555 166.028 218.488 166.413 216.997C166.847 215.324 168.516 214.626 169.822 214.219C170.705 213.945 171.925 215.184 172.679 216.149C172.952 216.498 172.957 217.013 172.62 217.388C172.272 217.774 171.839 217.753 171.422 217.474C171.127 217.276 170.887 216.981 170.571 216.847C169.838 216.536 169.046 216.616 168.741 217.388C168.302 218.504 169.436 218.509 169.988 218.595C171.052 218.766 172.096 218.96 173.022 219.507C175.317 220.863 175.563 222.687 173.444 224.285C170.485 226.516 168.302 225.963 167.184 223.641C166.547 222.322 167.184 221.877 168.254 221.603L168.265 221.609Z" fill="#101010"/>
        <path d="M112.808 226.618C112.808 226.173 112.69 225.685 112.829 225.288C113.247 224.081 111.491 222.091 114.038 221.652C117.319 221.083 119.587 221.99 120.064 224.51C121.08 229.884 120.647 232.243 114.654 232.265C113.423 232.265 112.829 231.932 112.893 230.624C112.958 229.288 112.909 227.953 112.909 226.618H112.813H112.808ZM115.028 226.736C115.836 227.776 113.98 229.948 116.35 230.077C118.292 230.184 118.266 228.35 118.218 226.923C118.169 225.545 118.346 223.711 116.382 223.695C114.017 223.674 115.692 225.738 115.023 226.736H115.028Z" fill="#101010"/>
        <path d="M43.2995 217.86C43.7651 218.788 45.0065 219.115 45.0867 220.397C45.2044 222.247 44.8031 223.85 42.9838 224.569C41.111 225.309 38.778 224.129 38.0396 222.29C37.7506 221.566 37.4617 220.847 37.1085 219.979C38.5586 219.936 40.1264 219.131 40.485 221.491C40.5759 222.086 41.2662 222.494 41.9511 222.354C42.2454 222.295 42.5932 221.968 42.7056 221.679C42.9731 221.008 42.5932 220.45 42.1009 220.048C41.2234 219.33 40.1907 218.772 39.4255 217.957C38.7352 217.222 37.9165 216.144 38.8101 215.173C39.7305 214.176 40.8167 213.05 42.4915 213.634C43.7758 214.079 45.0386 214.573 45.167 216.198C45.2954 217.764 44.1717 217.276 43.3477 217.249C42.9892 216.412 42.9892 215.275 41.7157 215.206C41.5391 215.195 41.2073 215.442 41.1752 215.613C40.9505 216.9 42.2829 216.959 42.834 217.646C42.9303 217.764 43.139 217.796 43.2942 217.871L43.2995 217.86Z" fill="#101010"/>
        <path d="M162.828 220.327C164.251 220.043 165.054 219.946 165.279 221.073C165.536 222.36 164.498 222.156 163.797 222.392C163.031 222.649 161.56 221.914 161.795 223.69C162.036 225.502 163.379 224.558 164.294 224.639C165.049 224.703 166.151 223.754 166.381 225.288C166.59 226.682 165.247 226.586 164.583 226.671C159.088 227.363 160.179 228.993 159.066 222.987C158.986 222.547 158.959 222.102 158.89 221.662C158.146 216.777 158.141 216.761 163.042 216.273C163.625 216.214 164.572 215.635 164.728 216.809C164.877 217.903 164 218.016 163.187 218.219C162.48 218.396 161.335 217.801 161.126 218.852C160.672 221.142 162.25 220.429 162.823 220.332L162.828 220.327Z" fill="#101010"/>
        <path d="M125.645 231.632C123.087 232.388 122.386 231.005 122.498 228.425C122.573 226.661 122.284 224.869 122.043 223.105C121.856 221.754 122.252 221.089 123.681 221.094C124.922 221.099 126.169 221.008 127.416 220.96C127.994 220.938 128.475 221.024 128.518 221.764C128.561 222.462 128.17 222.697 127.566 222.74C127.298 222.762 126.998 222.724 126.774 222.837C126.041 223.207 124.5 222.29 124.633 224.001C124.751 225.497 125.998 224.633 126.736 224.741C127.528 224.859 128.363 224.676 128.454 225.878C128.555 227.288 127.523 226.832 126.833 226.929C125.88 227.068 124.526 226.537 124.735 228.404C124.922 230.055 126.19 229.17 126.956 229.487C127.79 229.835 129.396 227.84 129.497 230.286C129.588 232.399 127.881 231.262 127.004 231.605C126.693 231.729 126.297 231.627 125.661 231.627L125.645 231.632Z" fill="#101010"/>
        <path d="M103.235 230.806C103.968 228.339 104.739 225.786 105.477 223.223C105.734 222.333 106.242 221.888 107.195 221.882C108.185 221.882 108.886 222.113 109.169 223.218C109.811 225.717 110.593 228.178 111.197 230.683C111.304 231.122 112.027 231.905 111.074 232.238C110.389 232.479 109.742 232.324 109.239 231.589C107.28 228.736 107.098 228.725 105.44 231.611C104.926 232.501 104.23 232.249 103.615 232.179C102.743 232.077 103.305 231.358 103.235 230.801V230.806Z" fill="#101010"/>
        <path d="M114.702 3.87734C114.579 1.5016 115.815 -0.0965256 118.127 0.00536848C120.513 0.107263 122.386 1.82337 122.381 4.15621C122.375 6.16191 120.823 7.42218 118.341 7.45436C115.778 7.48117 114.675 6.39788 114.702 3.87734Z" fill="#101010"/>
        <path d="M66.8596 225.256C66.8596 226.339 66.9398 227.315 66.8328 228.269C66.7579 228.918 67.0789 230.211 65.7359 229.75C64.9974 229.498 63.4938 229.76 64.1895 227.728C64.976 225.422 65.0296 222.837 65.2275 220.359C65.3399 218.933 65.8643 218.488 67.2234 218.75C68.529 219.002 69.8454 219.179 71.167 219.324C71.9269 219.41 72.28 219.716 72.2158 220.515C72.1463 221.4 71.6058 221.48 70.9155 221.367C70.5677 221.308 70.2199 221.174 69.8721 221.18C69.0213 221.18 67.7853 220.37 67.614 222.032C67.4535 223.555 68.7645 222.992 69.4869 223.212C70.2948 223.454 71.3329 223.303 71.258 224.671C71.1724 226.226 69.9791 225.422 69.2835 225.69C68.4862 226.001 67.9779 225.245 66.8703 225.261L66.8596 225.256Z" fill="#101010"/>
        <path d="M211.596 98.1615C211.596 99.3199 211.586 100.484 211.596 101.642C211.607 102.693 211.323 103.283 210.06 103.224C208.894 103.17 208.568 102.779 208.605 101.631C208.685 99.3145 208.61 96.987 208.589 94.6649C208.578 93.7318 208.514 92.8469 209.889 92.8737C211.125 92.9005 211.671 93.4476 211.639 94.6756C211.607 95.834 211.634 96.9978 211.634 98.1561C211.623 98.1561 211.607 98.1561 211.596 98.1561V98.1615Z" fill="#101010"/>
        <path d="M156.974 19.7567C155.578 19.7567 153.443 20.1375 153.047 19.0595C152.495 17.5633 154.593 16.7589 155.615 15.7399C156.305 15.0535 157.092 13.9809 158.339 14.7532C159.767 15.6434 160.549 17.0324 160.837 18.6573C160.993 19.5315 160.126 19.6334 159.585 19.7138C158.735 19.8425 157.846 19.746 156.974 19.746V19.7567Z" fill="#101010"/>
        <path d="M4.76766 98.4404C4.76766 97.0997 4.81047 95.7589 4.75696 94.4236C4.71415 93.2974 5.40977 93.1258 6.27127 93.0293C7.3361 92.9113 7.6839 93.4261 7.67855 94.4236C7.65715 97.0997 7.6411 99.7811 7.70531 102.457C7.73741 103.744 7.07925 103.846 6.04118 103.862C4.96029 103.878 4.63924 103.487 4.69275 102.457C4.76231 101.122 4.7088 99.7811 4.7088 98.4404H4.76766Z" fill="#101010"/>
        <path d="M37.7399 115.559C39.1579 115.559 40.5706 115.575 41.9886 115.548C42.6628 115.537 42.9624 115.859 42.9731 116.486C42.9838 117.151 42.8715 117.725 41.9939 117.725C39.1633 117.725 36.3273 117.773 33.4967 117.725C32.7743 117.714 32.1161 117.425 32.1536 116.449C32.1911 115.467 32.9509 115.618 33.4913 115.596C34.904 115.537 36.3219 115.575 37.7399 115.575V115.553V115.559Z" fill="#101010"/>
        <path d="M198.92 65.5608C201.858 64.0914 203.661 61.9248 206.31 61.0506C207.46 66.4349 206.55 67.0624 198.92 65.5608Z" fill="#101010"/>
        <path d="M145.753 10.9563C146.813 10.9563 147.867 10.9456 148.926 10.9563C149.815 10.967 150.13 11.5087 150.173 12.3292C150.227 13.3696 149.547 13.4393 148.793 13.4339C146.856 13.4232 144.913 13.3696 142.976 13.4232C141.772 13.4554 141.515 12.8708 141.483 11.809C141.44 10.302 142.5 10.9992 143.115 10.9348C143.988 10.849 144.876 10.9134 145.759 10.9134C145.759 10.9295 145.759 10.9402 145.759 10.9563H145.753Z" fill="#101010"/>
        <path d="M49.8704 26.8518C48.3829 26.8518 47.6659 26.8947 46.9595 26.8357C46.4191 26.7928 45.6111 27.1199 45.5844 26.0902C45.563 25.2215 45.7128 24.4492 46.7883 24.3741C48.827 24.2401 50.8657 24.1328 52.9044 24.0094C53.7445 23.9612 53.9157 24.4492 53.9478 25.1786C53.9853 26.042 53.6856 26.5729 52.8134 26.648C51.5774 26.7552 50.336 26.8142 49.8704 26.8464V26.8518Z" fill="#101010"/>
        <path d="M196.517 79.2414C195.886 80.2818 197.245 82.3465 194.933 81.9764C193.483 81.7458 191.637 82.1534 190.696 80.5231C190.385 79.9868 194.987 76.3454 195.736 76.635C197.17 77.1874 195.784 78.5388 196.517 79.2414Z" fill="#101010"/>
        <path d="M97.9751 45.3589C97.9751 45.8899 97.9644 46.4261 97.9751 46.9571C97.9911 47.7883 98.0393 48.6356 96.8086 48.5177C95.8615 48.4265 94.7431 48.5713 94.7431 47.0911C94.7431 45.7558 94.7592 44.4204 94.711 43.0905C94.6682 41.8463 95.198 41.3636 96.4554 41.3636C97.8413 41.3636 98.0821 42.093 98.0179 43.2299C97.9751 43.9378 98.0125 44.651 98.0125 45.3643H97.9751V45.3589Z" fill="#101010"/>
        <path d="M196.212 47.5523C196.678 53.0868 196.116 53.5909 191.006 52.6631C190.615 52.5934 190.07 52.765 189.941 52.159C189.829 51.6281 190.23 51.3492 190.589 51.1186C192.349 49.9817 194.131 48.8662 196.212 47.5523Z" fill="#101010"/>
        <path d="M0.0320871 96.9334C0.529721 95.8877 -1.07555 93.3779 1.59455 93.5012C3.50482 93.587 2.84131 95.775 3.0393 97.1211C3.11421 97.6413 3.02324 98.183 3.05535 98.7139C3.13561 99.9902 2.33298 100.435 1.2842 100.521C-0.0535274 100.639 -1.83197e-05 99.6631 0.0320871 98.7461C0.0481398 98.2151 0.0320871 97.6842 0.0320871 96.9334Z" fill="#101010"/>
        <path d="M22.3347 44.1791C21.3662 43.4605 19.3596 45.1498 19.3649 42.6078C19.3649 40.4787 20.922 39.9371 22.5327 39.8727C24.4429 39.7977 25.0583 41.546 25.1011 42.9081C25.176 45.1283 23.1694 43.3854 22.3347 44.1791Z" fill="#101010"/>
        <path d="M200.916 57.967C199.637 57.9026 198.374 58.1279 198.486 56.4386C198.583 54.9584 199.3 53.6821 200.841 53.7357C202.259 53.784 203.345 54.9531 203.313 56.4118C203.281 57.9831 201.815 57.849 200.916 57.9616V57.967Z" fill="#101010"/>
        <path d="M61.7494 20.2179C61.1287 20.2179 60.7756 20.2072 60.4224 20.2179C59.5609 20.2447 58.8118 20.1858 58.8974 18.9791C58.9777 17.8958 59.6305 17.7349 60.5241 17.7242C61.3909 17.7135 62.3434 17.7778 63.1086 17.4561C64.3286 16.9412 64.9546 17.2845 65.2703 18.4375C65.6663 19.9069 64.548 19.9766 63.6009 20.1107C62.9052 20.2072 62.1882 20.1911 61.7494 20.2126V20.2179Z" fill="#101010"/>
        <path d="M209.9 72.2053C211.307 71.8353 209.97 70.6823 210.751 69.7974C212.827 70.5911 214.149 72.3394 215.856 74.27C213.143 74.8492 211.157 74.5972 209.889 72.2375L209.9 72.2053Z" fill="#101010"/>
        <path d="M216 97.105C215.122 98.2366 216.819 100.323 214.684 100.387C212.5 100.451 213.517 98.3492 213.539 97.2927C213.565 96.0003 212.511 93.6031 214.641 93.6031C217.033 93.6031 214.817 96.1344 216 97.105Z" fill="#101010"/>
        <path d="M194.04 40.6825C195.351 40.5753 196.068 41.2564 196.148 42.4844C196.239 43.8895 195.18 44.3293 194.083 44.2756C192.986 44.222 191.541 44.0397 191.589 42.5542C191.637 41.2671 192.804 40.7576 194.04 40.6825Z" fill="#101010"/>
        <path d="M83.8808 40.6504C85.0205 42.8062 84.4373 45.0962 84.5978 47.3164C84.6299 47.7669 84.4373 48.1798 83.854 48.1691C83.3297 48.1583 83.0086 47.8741 83.03 47.3646C83.1263 45.1176 82.8267 42.8277 83.8808 40.6504Z" fill="#101010"/>
        <path d="M136.994 182.793C133.596 182.39 130.193 181.988 126.795 181.586C126.795 181.323 126.806 181.06 126.811 180.803C130.209 181.2 133.607 181.597 137.005 181.988C137.005 182.256 136.999 182.524 136.994 182.793Z" fill="#C9C8C7"/>
        <path d="M133.714 231.112C133.623 230.152 133.553 229.187 133.436 228.227C133.361 227.604 133.184 226.891 133.965 226.671C134.623 226.484 135.142 226.918 135.394 227.545C135.785 228.516 136.127 229.503 136.491 230.479C135.71 231.321 134.672 231.047 133.714 231.112Z" fill="#C9C8C7"/>
        <path d="M43.2995 217.86C43.1443 217.79 42.9357 217.758 42.8393 217.635C42.2936 216.949 40.9558 216.89 41.1806 215.602C41.2127 215.436 41.5391 215.189 41.721 215.195C42.9945 215.27 42.9945 216.407 43.353 217.238C43.337 217.442 43.3156 217.646 43.2995 217.855V217.86Z" fill="#C9C8C7"/>
        <path d="M94.3365 12.8708C94.5612 13.7932 94.5505 14.6996 94.2027 15.5952C94.0368 15.622 93.8656 15.6273 93.6997 15.6059C93.6997 14.7049 93.7051 13.7986 93.7104 12.8976C93.9191 12.8869 94.1278 12.8762 94.3311 12.8655L94.3365 12.8708Z" fill="#C9C8C7"/>
        <path d="M63.5474 63.8447C63.6544 64.204 63.5099 64.3649 63.146 64.3541C63.2798 64.1825 63.4136 64.0109 63.5474 63.8447Z" fill="#C9C8C7"/>
        <path d="M93.6997 15.6112C93.8656 15.6273 94.0368 15.622 94.2027 15.6005C94.7913 17.8851 94.1224 18.9416 91.6021 18.4643C90.3714 18.2337 89.526 18.7646 88.7983 19.9498C84.8547 26.3852 80.6114 32.6329 76.1434 38.7197C75.6725 39.3633 75.6083 39.9371 75.5976 40.6396C75.5494 45.729 75.512 50.8183 75.3943 55.9023C75.3621 57.3556 75.8116 58.4282 76.9032 59.4096C81.216 63.2762 85.4112 67.2715 89.7561 71.106C91.2222 72.3984 91.9286 73.8088 91.8697 75.7395C91.7734 78.9518 91.8322 82.1695 91.7199 85.3765C91.6557 87.2481 92.1961 88.1437 94.283 88.0365C97.6594 87.8595 101.057 87.8059 104.434 87.9614C106.788 88.0686 106.21 86.5885 106.183 85.3497C106.157 84.0572 106.825 82.2339 104.321 82.6039C104.236 82.6146 104.145 82.6039 104.054 82.6039C101.582 82.4537 98.2694 83.7086 96.8835 82.1534C95.7116 80.8395 96.739 77.5575 96.7658 75.1495C96.8032 71.3097 96.7069 67.4646 96.8888 63.6355C96.9691 61.9301 96.4768 60.7664 95.1873 59.7367C94.1492 58.9055 93.4001 57.6077 92.2603 57.0231C89.1835 55.4518 89.2103 52.8079 88.7929 49.8852C88.5307 48.0565 92.8008 47.9117 89.8792 45.9596C87.9903 44.6993 89.0498 42.8974 88.8143 41.3529C88.6538 40.3179 88.2899 39.1005 90.3072 39.0951C92.3727 39.0898 92.0784 40.2213 92.0302 41.4977C91.9018 45.064 91.8429 48.6356 91.6931 52.2019C91.6182 54.0307 92.0944 55.5269 93.7104 56.5405C98.6707 59.6616 100.629 64.027 99.7355 69.9208C99.3128 72.7095 99.7783 75.6215 99.7355 78.4799C99.7088 80.3032 100.174 81.4402 102.288 81.0165C102.374 81.0004 102.464 81.0165 102.555 81.0165C109.185 81.0379 109.603 81.5742 108.677 88.2992C108.527 89.3933 108.056 89.5756 107.136 89.5971C101.603 89.7365 96.0648 89.3986 90.5427 89.9564C88.9856 90.1172 89.4029 88.9213 89.3976 88.1384C89.3815 84.0304 89.3387 79.9225 89.4778 75.8199C89.5421 73.8517 88.8518 72.5593 87.3749 71.2508C83.1049 67.47 79.0382 63.4693 74.8538 59.5866C73.7248 58.5408 73.2432 57.3771 73.3235 55.8111C73.5375 51.7139 73.6285 47.6113 73.7676 43.5141C74.6077 42.7687 74.613 42.0286 73.7515 41.2993C73.2271 39.9103 73.6659 38.768 74.4739 37.5828C78.5138 31.6622 82.5431 25.7363 86.8987 20.041C87.1127 19.7621 87.4659 19.4457 87.4498 19.1614C87.1984 14.6245 90.3393 15.6488 92.9345 15.756C93.186 15.7668 93.4482 15.6649 93.7051 15.6112H93.6997Z" fill="#C1E4BE"/>
        <path d="M154.331 71.4438C151.794 74.1574 148.552 74.2164 145.17 74.0502C143.158 73.9483 140.611 73.0902 139.252 74.2915C137.962 75.4338 138.915 78.0026 138.867 79.9439C138.744 84.4755 135.774 87.3232 131.167 87.2803C128.406 87.2535 125.639 87.3446 122.878 87.2803C121.412 87.2481 120.7 87.7147 120.93 89.2699C120.995 89.7043 120.872 90.1709 120.947 90.6053C121.428 93.4154 120.197 94.3485 117.319 93.6674C118.362 92.2517 118.26 90.6053 118.271 88.9803C118.309 82.7272 118.394 76.4742 118.335 70.2211C118.319 68.3763 118.844 67.0731 120.23 65.8021C123.445 62.8472 126.404 59.6134 129.615 56.6477C131.632 54.7815 131.482 53.2959 129.497 51.6174C128.481 50.7593 127.614 49.7189 126.677 48.7643C125.184 47.252 125.093 45.3911 125.564 43.5141C126.132 41.2778 128.036 42.4952 129.353 42.2592C130.562 42.0393 130.996 42.6775 131.119 43.9324C131.402 46.764 131.771 49.6063 132.371 52.3896C132.863 54.6581 132.29 56.3474 130.68 57.9294C127.63 60.9273 124.698 64.0538 121.664 67.0731C120.802 67.9312 120.267 68.7838 120.288 70.0816C120.353 74.4577 120.353 78.8338 120.272 83.2099C120.246 84.7008 120.609 85.2371 122.215 85.1298C125.324 84.9153 128.448 84.9743 131.568 84.867C135.672 84.7276 136.694 83.7355 136.748 79.708C136.823 74.2593 136.865 68.8107 136.828 63.362C136.817 61.7961 137.294 60.7396 138.535 59.726C141.307 57.479 143.918 55.0335 146.813 52.8991C145.673 56.0578 143.003 57.8222 140.606 59.7421C139.059 60.9809 138.262 62.1875 138.476 64.204C138.679 66.1507 138.621 68.1296 138.583 70.0924C138.556 71.4599 138.765 72.2053 140.477 72.0552C142.778 71.8514 145.106 71.9694 147.423 72.0337C149.585 72.0927 151.634 71.7763 153.517 70.6608C153.79 70.9236 154.063 71.181 154.342 71.4438H154.331Z" fill="#C1E4BE"/>
        <path d="M124.039 96.5848C119.02 101.111 114.22 105.45 109.405 109.772C108.853 110.265 108.383 111.065 107.419 110.206C102.464 105.798 97.4721 101.427 91.966 96.5848C96.5036 96.5848 100.372 96.853 104.193 96.5044C107.724 96.1826 111.534 97.9577 114.793 95.287C117.511 97.6413 120.839 95.3782 124.045 96.5795L124.039 96.5848Z" fill="#C1E4BE"/>
        <path d="M89.0177 93.823C84.8921 94.6971 81.8956 92.8094 78.9847 90.1226C70.5303 82.3143 61.9367 74.6615 53.4181 66.9229C52.578 66.1614 51.5827 65.4696 51.3633 64.2147C50.9674 61.9516 52.3158 60.5412 55.3926 60.702C57.6346 60.8147 58.0573 59.962 57.9664 58.0367C57.8647 55.9881 57.9182 53.9288 58.0199 51.8748C58.0734 50.7593 57.5918 50.0729 56.8159 49.3704C54.9003 47.6328 53.1077 45.7558 51.1707 44.045C49.8009 42.8384 50.0042 41.3583 50.0845 39.8459C50.1059 39.4545 50.3146 39.138 50.7212 39.1702C50.9192 39.1863 51.267 39.4705 51.2617 39.6207C51.0744 43.9003 55.0287 45.1712 57.2172 47.6489C58.8011 49.4347 59.8873 51.0757 59.5342 53.5266C59.3576 54.7547 59.4004 56.0256 59.4539 57.2752C59.5609 59.8279 59.7429 62.1715 55.9544 62.1071C53.9799 62.0749 53.9853 63.6355 55.0501 64.9119C56.3022 66.4081 57.6988 67.7917 59.1061 69.1539C63.2744 73.1814 67.5231 77.1231 71.6433 81.1988C72.9061 82.4484 74.3348 82.3626 75.8384 82.384C78.1393 82.4216 81.0609 81.4187 82.5645 82.7701C83.9718 84.0304 82.9658 86.9907 82.9765 89.1948C82.9872 91.1255 83.5811 91.8977 85.6252 91.7583C88.2899 91.5759 90.9707 91.7154 93.6462 91.71C94.3739 91.71 95.107 91.6349 95.1605 92.7075C95.2301 93.9892 94.3686 93.8391 93.5606 93.8337C92.0463 93.823 90.532 93.8337 89.0123 93.8337L89.0177 93.823Z" fill="#C1E4BE"/>
        <path d="M157.862 63.8715C153.908 70.575 147.744 70.2586 141.537 69.7599C141.232 69.7331 140.836 69.5561 140.675 69.3148C139.905 68.1886 140.798 62.4664 141.858 61.5172C143.913 59.6724 145.908 57.7578 148.049 56.0203C150.045 54.4007 151.912 52.8347 151.468 49.8852C151.329 48.9467 151.96 48.6249 152.774 48.6464C153.764 48.6732 153.512 49.4561 153.512 50.0246C153.523 53.5909 153.641 57.1679 153.464 60.7235C153.352 63.0241 153.812 64.3005 156.423 63.7267C156.819 63.6409 157.274 63.8018 157.862 63.8715Z" fill="#C1E4BE"/>
        <path d="M101.357 70.6233C101.357 68.2154 101.416 65.8021 101.335 63.3996C101.293 62.1071 101.758 61.7746 103.026 61.7156C108.634 61.4636 108.634 61.4153 108.634 67.0624C108.634 70.6287 108.554 74.2003 108.655 77.7666C108.698 79.3379 108.142 79.6919 106.66 79.6704C101.416 79.6114 101.416 79.6704 101.378 74.3666C101.368 73.117 101.378 71.8675 101.378 70.6179C101.378 70.6179 101.368 70.6179 101.362 70.6179L101.357 70.6233Z" fill="#C1E4BE"/>
        <path d="M112.39 49.3596C113.643 50.03 113.921 51.0704 113.915 52.4593C113.846 64.2308 113.857 76.0022 113.841 87.7683C113.841 88.2134 113.841 88.6585 113.814 89.1037C113.557 93.351 113.134 93.7693 108.987 93.8015C105.338 93.8283 101.694 93.8659 98.0446 93.8283C97.4614 93.823 96.4929 94.3807 96.3377 93.2438C96.2467 92.5734 96.0809 91.8065 96.6481 91.2113C97.3704 90.4497 97.6808 91.5545 98.157 91.5706C102.245 91.7046 106.355 91.7797 110.389 91.0825C112.134 90.7822 111.711 88.9696 111.716 87.7147C111.764 78.6193 111.754 69.5239 111.764 60.4285C111.764 56.9534 111.78 53.4729 111.791 49.9978L112.396 49.365L112.39 49.3596Z" fill="#C1E4BE"/>
        <path d="M121.926 47.9975C124.607 49.0968 126.346 51.376 128.39 53.2691C128.984 53.8161 128.582 54.3792 128.127 54.8673C125.072 58.1708 122.022 61.485 118.565 64.4936C118.539 59.061 117.666 53.9556 118.667 48.8877C119.753 48.5927 120.845 48.2978 121.931 48.0028L121.926 47.9975Z" fill="#C1E4BE"/>
        <path d="M125.356 35.3143C124.467 30.8471 127.576 27.4041 130.3 23.9183C131.504 22.3791 132.537 20.9419 132.478 18.9523C132.44 17.7457 132.97 17.3381 134.094 17.5526C135.421 17.81 134.939 18.8021 134.693 19.4349C133.815 21.6713 132.788 23.8432 131.852 26.0581C130.182 29.9944 128.689 33.9897 127.731 38.1727C127.523 39.079 127.346 40.35 125.998 40.0765C124.906 39.8567 125.441 38.7465 125.372 38.0226C125.302 37.3147 125.356 36.596 125.356 35.3197V35.3143Z" fill="#C1E4BE"/>
        <path d="M112.39 49.3596L111.786 49.9924C109.046 47.4504 106.322 44.8924 103.551 42.3826C102.545 41.4709 102.165 40.4358 102.186 39.0844C102.256 34.4455 101.983 29.7852 102.347 25.1732C102.555 22.5239 103.262 19.6977 106.52 18.6841C108.062 18.2069 107.393 16.7964 107.398 15.7185C107.173 15.6702 107.007 15.6327 106.842 15.6005C106.007 15.4343 105.076 17.3595 104.53 15.8847C103.872 14.1096 105.616 14.5869 106.537 14.5065C107.874 14.3885 107.232 13.0692 107.821 12.5061C109.094 15.4825 108.383 19.4296 106.087 21.2905C104.509 22.5668 103.733 24.0577 103.77 26.117C103.85 30.2196 103.861 34.3276 103.77 38.4301C103.727 40.3929 104.455 41.7551 105.953 43.0154C108.254 44.9514 110.534 46.9571 112.385 49.3703L112.39 49.3596Z" fill="#C9C8C7"/>
        <path d="M67.3786 45.0854C67.3786 50.7861 67.4 56.4868 67.3518 62.1875C67.3465 62.9491 67.8655 64.263 66.4957 64.3112C64.9814 64.3649 65.6663 63.0081 65.6663 62.2948C65.6289 51.1615 65.6503 40.0229 65.661 28.8896C65.661 28.2676 65.6235 27.6347 65.7038 27.0234C65.784 26.4013 65.4148 25.3984 66.501 25.3823C67.7906 25.3663 67.3411 26.4656 67.4268 27.1789C67.4696 27.5275 67.4268 27.8922 67.4268 28.2461C67.4268 33.861 67.4268 39.4705 67.4268 45.0854C67.4107 45.0854 67.3946 45.0854 67.3786 45.0854Z" fill="#C1E4BE"/>
        <path d="M19.6271 61.9194C24.5393 61.3831 29.1303 61.485 33.7107 61.3939C36.7233 61.3349 39.7198 61.4207 42.743 60.9326C44.6051 60.627 46.5101 61.9355 48.5381 61.662C49.0732 61.5923 49.2069 62.1017 49.2016 62.5898C49.1909 63.1958 48.7949 63.2977 48.3187 63.303C47.8745 63.3138 47.4304 63.3084 46.9863 63.3137C39.1633 63.362 31.3403 63.4264 23.5226 63.4532C22.2277 63.4532 20.8311 63.6355 19.6325 61.9248L19.6271 61.9194Z" fill="#C1E4BE"/>
        <path d="M42.1865 56.4493C41.0307 55.6341 39.6609 55.0121 38.7673 53.9717C36.1186 50.888 32.7368 50.2552 28.9698 50.5394C28.0013 50.6145 27.0221 50.5663 26.0429 50.5555C25.1974 50.5448 25.1064 49.9817 25.0957 49.2953C25.085 48.405 25.4596 48.4158 26.2355 48.4801C28.3544 48.6624 30.4948 48.5659 32.6084 48.7751C34.3903 48.952 35.2678 48.5337 34.9842 46.5441C34.8237 45.4126 34.7113 44.2435 36.5948 44.281C38.2643 44.3132 38.6603 45.1766 38.4088 46.4637C37.5741 50.7164 39.8 53.5158 42.7216 56.031C42.545 56.1704 42.3631 56.3152 42.1865 56.4547V56.4493Z" fill="#C1E4BE"/>
        <path d="M132.28 89.2485C129.861 91.6027 128.176 94.1823 124.494 93.6245C122.953 93.3886 123.055 92.67 123.221 91.6886C123.381 90.734 122.461 89.1787 124.58 89.2324C126.966 89.2967 129.358 89.2485 132.28 89.2485Z" fill="#C1E4BE"/>
        <path d="M121.926 47.9975C120.84 48.2924 119.748 48.5874 118.662 48.8823C117.65 47.4183 117.891 45.7343 117.8 44.0987C117.736 42.9242 117.982 42.3879 119.363 42.3557C123.231 42.2592 123.911 43.675 121.926 47.9975Z" fill="#C9C8C7"/>
        <path d="M107.045 41.3636C108.441 41.3636 109.485 41.3207 110.528 41.369C115.842 41.621 114.937 40.2964 115.002 46.1044C115.007 46.6514 115.355 47.4504 114.558 47.7186C113.996 47.9063 113.637 47.3164 113.241 46.9839C111.342 45.3857 109.447 43.7823 107.559 42.168C107.435 42.0608 107.371 41.8838 107.045 41.3636Z" fill="#C1E4BE"/>
        <path d="M146.465 76.5331C144.528 78.2439 142.805 79.7616 141.066 81.3007C140.194 75.4123 140.167 75.5196 146.465 76.5331Z" fill="#C1E4BE"/>
        <path d="M63.4136 70.9183C61.7334 69.3952 60.4064 68.1939 58.9402 66.864C62.058 66.4528 63.5491 67.8042 63.4136 70.9183Z" fill="#C9C8C7"/>
        <path d="M150.055 45.6968C149.285 45.3268 147.235 46.528 147.214 45.0747C147.193 43.1441 149.301 44.458 150.414 44.1148C150.981 43.9378 151.65 44.0289 152.265 44.0879C152.934 44.1523 154.074 43.4873 154.047 44.8602C154.026 46.1473 152.87 45.5574 152.196 45.6753C151.591 45.7772 150.96 45.6968 150.05 45.6968H150.055Z" fill="#C1E4BE"/>
        <path d="M154.331 71.4438C154.058 71.181 153.785 70.9236 153.507 70.6608C155.685 68.8214 157.862 66.9819 160.04 65.1371C160.238 65.3677 160.442 65.593 160.64 65.8236C158.537 67.6952 156.434 69.5668 154.325 71.4385L154.331 71.4438Z" fill="#C9C8C7"/>
        <path d="M49.9507 34.7083C49.9507 34.1399 49.9721 33.7001 49.9507 33.2604C49.9079 32.5686 50.0256 31.984 50.8925 32.0698C51.6737 32.1449 51.4811 32.7831 51.4918 33.2764C51.5025 33.7162 51.556 34.172 51.465 34.5903C51.2724 35.4538 51.9733 37.0143 50.855 37.0573C49.1534 37.1216 50.3627 35.4055 49.956 34.7083H49.9507Z" fill="#C9C8C7"/>
        <path d="M130.45 36.3118C130.578 37.5131 131.616 38.709 130.423 39.7816C130.209 39.9746 129.31 39.8674 129.235 39.685C128.62 38.2371 130.113 37.5024 130.455 36.3118H130.45Z" fill="#C1E4BE"/>
        <path d="M147.118 52.8884C147.118 51.7246 147.118 50.6092 147.118 49.4937C147.118 49.1451 147.107 48.7268 147.508 48.6571C147.797 48.6088 148.22 48.7214 148.418 48.9252C149.338 49.8745 148.621 52.1644 147.118 52.8884Z" fill="#C1E4BE"/>
        <path d="M73.7569 41.2939C74.6184 42.0286 74.613 42.7687 73.7729 43.5088C73.484 42.774 73.5107 42.034 73.7569 41.2939Z" fill="#C9C8C7"/>
        <path d="M42.7216 56.0256C43.0694 56.2991 43.5778 56.8086 43.2888 57.0553C42.7377 57.5326 42.4915 56.7979 42.1812 56.4493C42.3578 56.3099 42.5397 56.1651 42.7163 56.0256H42.7216Z" fill="#C1E4BE"/>
        <path d="M126.811 180.798C126.811 181.06 126.8 181.323 126.795 181.581C124.195 181.725 122.889 180.186 121.294 178.261C117.244 173.381 116.5 168.002 116.671 161.888C117.046 148.503 116.864 135.095 116.837 121.699C116.837 119.693 117.324 118.304 118.961 116.91C122.75 113.676 126.287 110.137 129.824 106.613C131.493 104.951 133.227 104.082 135.683 104.093C150.655 104.173 165.627 104.098 180.598 104.082C185.933 104.077 189.08 100.907 189.427 95.5981C189.502 94.488 187.865 92.0264 190.626 92.2088C192.772 92.3536 191.493 94.5148 191.504 95.6678C191.546 100.886 186.5 105.707 181.224 105.718C166.344 105.739 151.457 105.777 136.577 105.761C134.532 105.761 133.125 106.313 131.675 108.045C129.058 111.172 125.95 113.907 122.916 116.658C120.914 118.471 119.796 120.294 119.844 123.26C120.053 137.01 120.015 150.766 119.908 164.521C119.882 168.045 120.444 171.241 122.573 174.083C124.162 176.207 124.735 178.98 126.811 180.792V180.798Z" fill="#C1E4BE"/>
        <path d="M183.06 85.8109C186.736 85.4569 186.747 85.4569 186.661 88.6478C186.624 89.9885 186.693 91.2595 187.078 92.5895C188.33 96.912 185.211 102.57 179.876 101.792C176.735 101.336 173.471 101.744 170.271 101.61C169.399 101.572 167.724 102.286 167.794 100.559C167.853 98.9713 166.74 96.8476 169.083 95.8716C173.423 94.0643 177.575 91.7261 182.161 90.6213C184.585 90.0368 184.927 89.0822 183.75 87.1248C183.531 86.7601 183.354 86.374 183.054 85.8055L183.06 85.8109Z" fill="#C1E4BE"/>
        <path d="M196.448 85.473C198.23 85.473 200.017 85.5159 201.793 85.4569C202.944 85.4194 203.634 85.5803 203.564 87.0282C203.436 89.6131 203.425 92.2087 203.49 94.799C203.522 96.129 202.992 96.5366 201.756 96.44C200.873 96.3703 199.974 96.44 199.086 96.44C194.393 96.4507 194.281 96.4615 193.858 91.8441C193.671 89.8008 192.36 90.069 191.236 90.2138C188.882 90.5194 189.064 89.1358 188.935 87.5002C188.764 85.3657 189.936 85.4408 191.375 85.4837C193.066 85.5374 194.762 85.4945 196.453 85.4945V85.4784L196.448 85.473Z" fill="#C1E4BE"/>
        <path d="M183.333 83.344C182.225 82.4162 180.192 84.2557 180.026 82.0998C179.823 79.4774 182.156 80.5231 183.359 80.5714C184.467 80.6143 186.581 79.3647 186.666 81.6654C186.768 84.5077 184.205 82.132 183.338 83.344H183.333Z" fill="#C9C8C7"/>
        <path d="M176.762 70.5429C176.435 71.7066 175.552 71.964 174.52 72.0605C173.867 72.1249 173.246 72.3019 173.364 71.2829C173.476 70.2854 173.856 69.5936 175.039 69.7599C175.708 69.8511 176.505 69.6365 176.762 70.5429Z" fill="#C1E4BE"/>
        <path d="M39.8321 101.781C38.1466 101.781 36.4611 101.781 34.7702 101.781C31.763 101.781 29.3711 99.4861 29.3711 96.5205C29.3711 93.3188 29.4086 90.1119 29.4781 86.9102C29.4888 86.3793 29.1089 85.473 30.04 85.4194C31.0995 85.355 32.2874 85.5642 32.8706 86.5456C33.4218 87.4787 32.2231 87.2856 31.8593 87.6503C30.4948 89.0178 30.864 89.8973 32.587 90.5194C37.0764 92.1497 41.6247 93.587 46.0231 95.5069C48.8056 96.7242 47.4679 98.7836 47.5428 100.446C47.6284 102.328 45.8252 101.438 44.8941 101.545C43.23 101.733 41.5284 101.599 39.8375 101.599C39.8375 101.658 39.8375 101.722 39.8375 101.781H39.8321Z" fill="#C1E4BE"/>
        <path d="M38.4141 84.8992C37.649 87.9453 39.7144 88.8141 41.7692 89.7418C44.268 90.8734 46.6866 92.2034 49.2337 93.1955C51.0262 93.8927 51.6897 94.9331 51.4811 96.794C51.3312 98.1132 51.4061 99.4593 51.3954 100.795C51.3954 101.529 51.1493 101.942 50.3092 101.921C49.4638 101.899 49.2604 101.444 49.2818 100.73C49.2925 100.376 49.2176 100.001 49.2925 99.6631C50.1754 95.7429 48.1742 93.8659 44.6961 92.8308C43.0962 92.3535 41.5979 91.5277 40.0729 90.8144C36.2149 89.0179 36.0651 88.5406 38.4088 84.8938L38.4141 84.8992Z" fill="#C1E4BE"/>
        <path d="M32.4639 82.8881C31.8432 82.8881 31.2225 82.8345 30.6072 82.8988C29.7831 82.99 29.4888 82.6361 29.5049 81.8584C29.5156 81.1398 29.4086 80.4051 30.5055 80.4373C31.565 80.4695 32.6298 80.4158 33.6893 80.4319C34.524 80.4426 35.4658 80.1423 35.5354 81.6117C35.6103 83.1938 34.5829 82.7272 33.791 82.7701C33.3522 82.7916 32.9081 82.7701 32.4639 82.7701C32.4639 82.8077 32.4639 82.8452 32.4639 82.8881Z" fill="#C1E4BE"/>
        <path d="M170.18 58.9269C171.657 57.2966 173.027 55.5537 174.627 54.0628C176.901 51.9445 177.302 49.3757 177.051 46.4851C176.992 45.8362 176.414 44.7208 177.645 44.5062C178.49 44.3561 179.614 44.0558 180.208 44.71C180.754 45.3107 179.972 46.1955 179.844 46.9624C179.635 48.1583 177.313 49.3221 179.678 50.6413C179.683 50.6413 179.571 50.9792 179.453 51.0865C176.441 53.784 174.145 57.2698 170.635 59.4203C170.48 59.2594 170.33 59.0932 170.175 58.9323L170.18 58.9269Z" fill="#C1E4BE"/>
        <path d="M43.1336 110.63C41.0896 110.63 39.0402 110.598 36.9962 110.641C36.0116 110.662 35.5407 110.416 35.6049 109.295C35.6691 108.211 36.124 108.018 37.1085 108.04C41.202 108.126 45.2954 108.142 49.3835 108.142C50.3253 108.142 50.8496 108.324 50.855 109.456C50.855 110.743 50.0845 110.603 49.2711 110.598C47.2271 110.587 45.1777 110.598 43.1336 110.598V110.63Z" fill="#C1E4BE"/>
        <path d="M99.9496 193.368C102.63 189.335 104.888 185.935 107.291 182.321C107.291 185.796 107.264 188.938 107.307 192.081C107.318 193.148 106.879 193.432 105.868 193.39C104.113 193.314 102.352 193.368 99.9549 193.368H99.9496Z" fill="#C1E4BE"/>
        <path d="M116.832 192.971C111.78 193.568 109.241 191.53 109.212 186.858C109.201 185.361 109.212 183.865 109.212 181.774C111.893 185.715 114.279 189.217 116.837 192.977L116.832 192.971Z" fill="#C1E4BE"/>
        <path d="M151.859 222.542C152.003 221.695 151.206 220.375 152.709 220.456C154.807 220.563 154.877 222.445 155.133 223.968C155.353 225.288 154.7 226.548 153.373 226.323C151.115 225.931 152.528 223.711 151.859 222.547V222.542Z" fill="#C1E4BE"/>
        <path d="M52.0162 220.697C52.0055 221.695 51.7807 222.628 51.2403 223.48C50.7159 224.296 49.9025 224.397 49.132 224.151C48.3187 223.893 48.6932 223.094 48.7468 222.542C48.827 221.754 49.025 220.971 49.2176 220.198C49.4317 219.34 49.1374 217.994 50.6838 218.214C52.1285 218.418 52.0429 219.614 52.0162 220.702V220.697Z" fill="#C1E4BE"/>
        <path d="M135.87 223.647C135.683 224.628 134.902 224.714 134.078 224.789C132.97 224.886 133.013 224.076 132.97 223.389C132.916 222.542 133.264 222.006 134.227 222.177C135.057 222.322 135.785 222.596 135.87 223.652V223.647Z" fill="#C9C8C7"/>
        <path d="M115.028 226.73C115.697 225.733 114.017 223.668 116.388 223.69C118.351 223.711 118.175 225.54 118.223 226.918C118.271 228.345 118.292 230.179 116.355 230.071C113.985 229.943 115.836 227.765 115.034 226.73H115.028Z" fill="#C1E4BE"/>
    </g>
    <defs>
        <clipPath id="clip0_10_5709">
            <rect width="216" height="232.351" fill="white"/>
        </clipPath>
    </defs>
</svg>
