<svg width="108" height="109" viewBox="0 0 108 109" fill="none" xmlns="http://www.w3.org/2000/svg">
    <path d="M98.1901 45.5098H52.4401C48.1323 45.5098 44.6401 49.0019 44.6401 53.3098V98.0797C44.6401 102.388 48.1323 105.88 52.4401 105.88H98.1901C102.498 105.88 105.99 102.388 105.99 98.0797V53.3098C105.99 49.0019 102.498 45.5098 98.1901 45.5098Z" fill="#FDFDFD"/>
    <path d="M53.3002 3.09961H11.9502C6.42735 3.09961 1.9502 7.57676 1.9502 13.0996V53.4696C1.9502 58.9925 6.42735 63.4696 11.9502 63.4696H53.3002C58.823 63.4696 63.3002 58.9925 63.3002 53.4696V13.0996C63.3002 7.57676 58.823 3.09961 53.3002 3.09961Z" fill="#FDFDFD"/>
    <path d="M42.6899 45.6499C42.1399 45.3299 41.6099 45.4699 41.1099 45.4699C31.4999 45.4699 21.8899 45.4699 12.2799 45.4599C11.8599 45.4599 11.4199 45.4599 11.0199 45.3799C10.1799 45.1899 9.70988 44.6099 9.73988 43.7599C9.76988 42.9299 10.2399 42.3399 11.1199 42.2199C11.5799 42.1599 12.0599 42.1799 12.5299 42.1799C28.7399 42.1799 44.9499 42.1799 61.1499 42.1899C63.0099 42.1899 63.0199 42.1399 63.0899 40.3099C63.1799 38.1399 62.3599 36.3599 60.8699 34.8599C58.7699 32.7599 56.9099 30.4499 55.0199 28.1599C53.8399 26.7299 53.8399 25.9699 55.0199 24.5499C57.4099 21.6999 59.8099 18.8599 62.2399 16.0499C62.7999 15.3999 63.0699 14.7299 63.0499 13.8799C63.0099 12.3299 63.0699 10.7699 63.0199 9.21989C62.9199 5.84989 61.1599 4.11989 57.7899 4.06989C55.5799 4.03989 53.3599 4.06989 51.1499 4.06989C41.9199 4.06989 32.6799 4.06989 23.4499 4.06989C22.9799 4.06989 22.4999 4.09989 22.0399 3.99989C21.2599 3.82989 20.8299 3.2699 20.8299 2.4799C20.8299 1.7099 21.1399 1.08989 21.9699 0.90989C22.4299 0.80989 22.8999 0.779885 23.3699 0.779885C34.7199 0.779885 46.0799 0.759885 57.4299 0.779885C63.1399 0.789885 66.2399 3.89987 66.2999 9.60987C66.2999 10.0799 66.2999 10.5499 66.2999 11.0199C66.2999 13.6599 66.3199 16.2999 66.2499 18.9299C66.2199 20.1099 66.5399 20.5899 67.8399 20.5499C71.0899 20.4499 74.3399 20.4699 77.5899 20.5099C83.9399 20.5999 88.0799 24.7499 88.1699 31.0999C88.2099 34.2999 88.2199 37.5099 88.1399 40.7099C88.1099 41.9099 88.5299 42.2299 89.6799 42.2099C92.8799 42.1399 96.0899 42.2799 99.2899 42.1499C103.88 41.9699 107.79 45.5399 107.76 50.6999C107.74 54.0899 107.76 57.4799 107.76 60.8799C107.76 62.1299 107.07 63.0099 106.04 62.9799C104.76 62.9399 104.39 62.0399 104.38 60.9499C104.36 57.5099 104.38 54.0699 104.37 50.6299C104.37 47.2399 102.36 45.2999 98.9699 45.3899C98.7399 45.3899 98.4899 45.4799 98.2699 45.4499C94.6399 44.8099 91.8499 46.1999 89.3999 48.8299C87.8999 50.4299 86.0699 51.7299 84.3799 53.1599C82.5799 54.6799 81.8899 54.7099 80.0999 53.1999C77.3999 50.9299 74.7099 48.6399 72.0499 46.3199C71.3699 45.7199 70.6399 45.4299 69.7499 45.4299C63.0099 45.4599 56.2799 45.4399 49.5399 45.5199C46.3899 45.5599 44.7299 47.3599 44.7299 50.5299C44.7299 57.2199 44.7399 63.9099 44.7099 70.5999C44.7099 71.5299 45.0199 72.1999 45.5999 72.8699C47.9599 75.5599 50.2799 78.2799 52.6099 80.9899C53.8699 82.4599 53.9099 83.2299 52.6599 84.6999C50.3399 87.4199 47.9799 90.1199 45.5999 92.7899C44.9599 93.4999 44.6699 94.2299 44.6999 95.1899C44.7699 96.9799 44.6999 98.7699 44.7199 100.56C44.7599 103.06 46.5099 104.93 48.9999 105.14C49.6099 105.19 50.2199 105.18 50.8299 105.18C66.7999 105.18 82.7699 105.18 98.7499 105.18C102.67 105.18 104.36 103.5 104.36 99.6199C104.36 89.7699 104.36 79.9299 104.36 70.0799C104.36 69.6599 104.34 69.2299 104.38 68.8099C104.48 67.7999 104.97 67.0599 106.06 67.1099C107.15 67.1599 107.76 67.8299 107.76 68.9599C107.76 79.7499 107.8 90.5399 107.74 101.33C107.72 104.75 103.86 108.43 100.32 108.43C83.0299 108.46 65.7399 108.46 48.4499 108.43C45.4099 108.43 42.1699 105.43 41.5899 102.09C41.0199 98.8199 41.3299 95.5099 41.3699 92.2199C41.4099 88.6699 41.4899 88.6899 37.9699 88.7099C34.9099 88.7299 31.8399 88.8799 28.7899 88.6099C23.4599 88.1399 19.6899 84.1399 19.5799 78.7799C19.5099 75.4399 19.5099 72.0899 19.5799 68.7499C19.6099 67.4999 19.3399 67.0099 17.9599 67.0499C14.8099 67.1599 11.6499 67.0999 8.48988 67.0799C3.29988 67.0499 0.049885 63.7799 0.029885 58.5699C0.00988498 53.3899 0.029885 48.2099 0.029885 43.0199C0.029885 42.5099 -0.020115 41.9799 0.209885 41.4899C0.519885 40.8299 0.989885 40.4299 1.74988 40.4999C2.47989 40.5699 3.00989 40.9299 3.16989 41.6599C3.28989 42.2099 3.31989 42.7799 3.31989 43.3399C3.31989 48.2399 3.31989 53.1399 3.31989 58.0399C3.31989 62.1799 4.93988 63.4899 9.04988 63.8299C12.9799 64.1499 16.0499 63.0799 18.6799 60.1699C20.1199 58.5799 21.8999 57.2799 23.5699 55.8999C25.1699 54.5699 25.9299 54.5799 27.5199 55.9399C29.9799 58.0599 32.5499 60.0799 34.8099 62.3999C36.6599 64.2899 38.8099 63.5999 40.8999 63.7399C41.4599 63.7799 41.3699 63.2599 41.3699 62.8999C41.3699 59.6499 41.3499 56.3999 41.3899 53.1499C41.4099 52.0099 40.6999 52.1399 39.9899 52.1399C33.6299 52.1399 27.2699 52.1399 20.9099 52.1399C17.8499 52.1399 14.7799 52.1599 11.7199 52.1199C10.0899 52.0999 9.32988 51.0299 9.95988 49.7699C10.2999 49.0899 10.8499 48.9699 11.5899 48.9499C20.7699 48.7399 29.9599 48.8999 39.1399 48.9199C40.6799 48.9199 41.7899 48.7699 42.0199 46.9699C42.0799 46.4999 42.4699 46.0799 42.7099 45.6199L42.6899 45.6499ZM62.8899 32.2499C63.1766 30.0366 64.4266 28.9299 66.6399 28.9299C72.0899 28.9299 77.5499 28.9299 82.9999 28.9299C83.4899 28.9299 83.9999 29.0699 84.4799 28.8099C83.5599 25.6699 81.2499 23.8699 78.0899 23.8499C73.8999 23.8299 69.7199 23.8499 65.5299 23.8399C63.4599 23.8399 63.0599 23.4099 63.0299 21.3599C63.0299 21.1499 63.1499 20.8999 62.7799 20.6299C61.2299 22.4199 59.6799 24.2199 58.1199 26.0099C57.8899 26.2699 57.9299 26.5299 58.1299 26.7699C59.6799 28.5699 61.2399 30.3599 62.8899 32.2499ZM44.7699 76.9699C44.7299 77.4499 44.7099 77.6699 44.6899 77.8899C44.5399 79.9499 44.2699 80.2299 42.2499 80.3499C41.7799 80.3799 41.3099 80.3799 40.8399 80.3799C35.3699 80.3799 29.9099 80.3799 24.4399 80.3799C23.0199 80.3799 22.9499 80.4699 23.6299 81.7399C24.9099 84.1599 26.9599 85.3999 29.6899 85.4199C33.4599 85.4599 37.2299 85.4399 40.9999 85.4399C43.2199 85.4399 44.5166 86.5099 44.8899 88.6499C46.4799 86.7999 47.9899 85.0299 49.5299 83.2699C49.9499 82.7899 49.5999 82.5099 49.3299 82.1899C47.8799 80.5199 46.4299 78.8499 44.7799 76.9499L44.7699 76.9699ZM36.3699 67.0999C35.0099 67.0999 33.6399 67.1299 32.2799 67.0899C31.5199 67.0599 31.1699 67.2499 31.1899 68.0999C31.2299 70.7299 31.2199 73.3699 31.1899 75.9999C31.1899 76.6799 31.3299 77.0299 32.1199 77.0099C34.8899 76.9699 37.6699 76.9799 40.4399 77.0099C41.0799 77.0099 41.3799 76.8699 41.3699 76.1599C41.3399 73.4299 41.3499 70.7099 41.3699 67.9799C41.3699 67.2999 41.1199 67.0799 40.4599 67.0899C39.0999 67.1299 37.7299 67.0999 36.3699 67.0999ZM71.3599 42.1899C72.7199 42.1899 74.0899 42.1599 75.4499 42.1999C76.1699 42.2199 76.4599 41.9999 76.4499 41.2499C76.4199 38.5699 76.4199 35.8899 76.4499 33.2099C76.4499 32.4799 76.2299 32.2199 75.4799 32.2299C72.7499 32.2599 70.0299 32.2599 67.2999 32.2299C66.5999 32.2299 66.2599 32.4399 66.2599 33.1899C66.2799 35.8699 66.2799 38.5499 66.2599 41.2299C66.2599 41.9599 66.5299 42.2199 67.2599 42.1999C68.6199 42.1599 69.9899 42.1899 71.3499 42.1899H71.3599ZM88.0299 45.6299C85.9165 45.2699 84.8599 44.0399 84.8599 41.9399C84.8599 39.8199 84.8599 37.6999 84.8599 35.5799C84.8599 33.4199 83.8065 32.3165 81.6999 32.2699C81.5099 32.2699 81.3199 32.2799 81.1399 32.2499C80.1099 32.0799 79.7199 32.4399 79.7499 33.5399C79.8199 36.5099 79.7799 39.4699 79.7699 42.4399C79.7699 45.2099 79.3499 45.5899 76.5099 45.3699C76.4599 45.3699 76.3899 45.4699 76.2999 45.5599C78.0199 47.0499 79.7199 48.5299 81.4299 49.9899C81.7799 50.2899 82.1599 50.6999 82.6599 50.2699C84.4299 48.7599 86.1799 47.2299 88.0399 45.6199L88.0299 45.6299ZM31.5099 63.7699C29.4699 62.0299 27.7699 60.5799 26.0799 59.1099C25.6399 58.7299 25.3099 58.7399 24.8699 59.1199C23.1899 60.5999 21.4899 62.0499 19.7199 63.5699C21.8066 64.0032 22.8532 65.2866 22.8599 67.4199C22.8599 70.1899 22.8599 72.9699 22.8199 75.7399C22.8099 76.6799 23.0599 77.1299 24.1099 76.9999C24.9399 76.8999 25.8099 76.9099 26.6399 76.9999C27.7199 77.1099 28.0099 76.6699 27.9999 75.6399C27.9499 72.3999 27.9599 69.1599 27.9799 65.9099C27.9799 64.2799 28.4299 63.8599 30.0799 63.7599C30.3999 63.7399 30.7299 63.7599 31.5099 63.7599V63.7699Z" fill="black"/>
    <path d="M33.2101 17.0298C40.1801 17.0298 47.1501 17.0298 54.1201 17.0298C55.7301 17.0298 56.3301 17.5498 56.3001 18.7498C56.2801 19.5798 55.8901 20.0898 55.0701 20.2098C54.5101 20.2898 53.9401 20.3098 53.3801 20.3098C39.8701 20.3098 26.3501 20.3098 12.8401 20.3098C12.3201 20.3098 11.8001 20.3098 11.2901 20.2298C10.3401 20.0998 9.90009 19.5098 9.92009 18.5698C9.94009 17.6698 10.4901 17.1998 11.3101 17.0598C11.8201 16.9798 12.3401 17.0198 12.8601 17.0198C19.6401 17.0198 26.4201 17.0198 33.2001 17.0198L33.2101 17.0298Z" fill="black"/>
    <path d="M9.98266e-05 21.1898C9.98266e-05 17.1898 -0.0199002 13.1898 9.98266e-05 9.18979C0.0300998 4.24979 3.0401 1.04978 7.9701 0.79978C10.0801 0.68978 12.2101 0.739801 14.3201 0.789801C15.7901 0.819801 16.4801 1.42978 16.4101 2.51978C16.3201 3.83978 15.3801 4.0698 14.3101 4.0698C12.4301 4.0798 10.5401 4.0698 8.6601 4.0698C5.0401 4.0898 3.3001 5.8098 3.2901 9.4498C3.2701 17.4998 3.2901 25.5398 3.2901 33.5898C3.2901 35.6598 2.8001 36.4598 1.5701 36.4198C0.4301 36.3798 0.0100998 35.6298 9.98266e-05 33.6098C9.98266e-05 29.4698 9.98266e-05 25.3298 9.98266e-05 21.1898Z" fill="black"/>
    <path d="M36.1299 39.4096C30.1999 39.4096 24.2699 39.4096 18.3499 39.4096C17.6899 39.4096 17.0099 39.4796 16.4999 38.9396C16.0299 38.4496 15.9699 37.8396 16.1399 37.2296C16.3299 36.5696 16.8699 36.2496 17.5099 36.1796C18.2399 36.1096 18.9799 36.0996 19.7199 36.0996C30.9199 36.0996 42.1199 36.0996 53.3099 36.0996C53.8699 36.0996 54.4399 36.1296 54.9899 36.2196C55.9199 36.3696 56.3799 36.9496 56.3099 37.8996C56.2399 38.8596 55.6899 39.3596 54.7599 39.3796C53.1599 39.4096 51.5599 39.3996 49.9599 39.3996C45.3499 39.3996 40.7399 39.3996 36.1299 39.3996V39.4096Z" fill="black"/>
    <path d="M36.3003 13.9496C30.3703 13.9496 24.4403 13.9496 18.5103 13.9496C17.0103 13.9496 16.1903 13.3496 16.2003 12.2896C16.2003 11.2696 17.0703 10.6396 18.5603 10.6396C30.4203 10.6396 42.2803 10.6396 54.1403 10.6396C55.6603 10.6396 56.3903 11.2296 56.3203 12.4096C56.2303 13.7996 55.2303 13.9596 54.1003 13.9596C48.1703 13.9496 42.2403 13.9596 36.3103 13.9596L36.3003 13.9496Z" fill="black"/>
    <path d="M82.3501 75.3295C82.3501 80.7895 82.3501 86.2595 82.3501 91.7195C82.3501 92.2395 82.3801 92.7695 82.2801 93.2695C82.1201 94.0495 81.6001 94.5195 80.7901 94.4995C79.9701 94.4795 79.3301 94.1196 79.1901 93.2296C79.1101 92.7696 79.1101 92.2896 79.1101 91.8196C79.1101 80.8396 79.1001 69.8696 79.1001 58.8896C79.1001 56.8796 79.5401 56.1196 80.6901 56.0696C81.8801 56.0196 82.3601 56.8296 82.3601 58.9196C82.3601 64.3796 82.3601 69.8495 82.3601 75.3095L82.3501 75.3295Z" fill="black"/>
    <path d="M23.88 26.6896C20.12 26.6896 16.35 26.6896 12.59 26.6896C12.17 26.6896 11.73 26.7396 11.32 26.6396C10.48 26.4396 9.86003 25.9996 9.92003 24.9996C9.98003 24.0596 10.48 23.4996 11.42 23.4596C12.91 23.3996 14.41 23.3796 15.9 23.3996C19.56 23.4396 23.23 23.5996 26.89 23.5196C29.75 23.4596 32.62 23.3796 35.48 23.3996C36.22 23.3996 37.02 23.3396 37.59 23.9496C38.09 24.4896 38.08 25.1996 37.8 25.8096C37.48 26.5296 36.77 26.6896 36.02 26.6896C31.97 26.6896 27.93 26.6896 23.88 26.6896Z" fill="black"/>
    <path d="M76.1499 75.2796C76.1499 78.3796 76.1399 81.4896 76.1499 84.5896C76.1499 85.7596 75.8199 86.7496 74.5199 86.7696C73.1699 86.7896 72.8999 85.7496 72.8999 84.6096C72.8999 78.3996 72.8999 72.1896 72.8999 65.9796C72.8999 64.9796 72.9299 63.9296 74.3699 63.8896C75.6299 63.8596 76.0999 64.2996 76.1199 65.8196C76.1499 68.9696 76.1199 72.1196 76.1199 75.2796H76.1299H76.1499Z" fill="black"/>
    <path d="M69.9202 67.67C69.9202 70.72 69.9202 73.78 69.9202 76.83C69.9202 77.93 69.7602 79 68.3302 79C66.9002 79 66.7002 77.92 66.7002 76.83C66.7002 70.53 66.7202 64.23 66.7202 57.92C66.7202 56.77 67.2902 56.1 68.4002 56.11C69.4902 56.11 69.9302 56.9 69.9402 57.92C69.9402 61.17 69.9402 64.41 69.9402 67.66H69.9302L69.9202 67.67Z" fill="black"/>
    <path d="M88.55 75.2498C88.55 77.8298 88.55 80.4198 88.55 82.9998C88.55 84.5698 88.01 85.3698 86.93 85.3298C85.53 85.2898 85.34 84.3098 85.34 83.1798C85.34 77.8698 85.29 72.5598 85.29 67.2598C85.29 66.1698 85.67 65.2498 86.97 65.2898C88.25 65.3298 88.56 66.2598 88.56 67.3498C88.56 69.9798 88.56 72.6098 88.56 75.2398L88.55 75.2498Z" fill="black"/>
    <path d="M63.7802 75.2799C63.7802 77.6799 63.7802 80.0799 63.7802 82.4899C63.7802 82.9599 63.7502 83.4299 63.6902 83.8999C63.5702 84.8299 63.0002 85.3599 62.0802 85.3399C61.1402 85.3199 60.6002 84.6999 60.5502 83.7999C60.4802 82.4899 60.5002 81.1599 60.5002 79.8499C60.5002 75.7099 60.5002 71.5599 60.5002 67.4199C60.5002 66.5299 60.6102 65.6899 61.6202 65.3699C62.8302 64.9799 63.7102 65.6899 63.7502 67.2299C63.8102 69.9099 63.7702 72.5999 63.7702 75.2799H63.7902H63.7802Z" fill="black"/>
    <path d="M16.5001 33.0898C15.0001 33.0898 13.5001 33.1198 12.0001 33.0898C10.6001 33.0598 9.83005 32.3998 9.93005 31.3398C10.0501 30.0798 10.9401 29.7798 12.0301 29.7798C14.9901 29.7798 17.9401 29.7798 20.9001 29.7798C22.3501 29.7798 23.0701 30.3498 23.0301 31.4298C22.9801 32.8198 21.9901 33.0698 20.8701 33.0798C19.4201 33.0998 17.9601 33.0798 16.5101 33.0798L16.5001 33.0898Z" fill="black"/>
    <path d="M66.71 88.7697C66.71 87.4997 66.67 86.2198 66.72 84.9498C66.76 83.9898 67.06 83.2197 68.26 83.1797C69.53 83.1397 69.93 83.8898 69.95 84.9498C69.99 87.4498 69.98 89.9398 69.97 92.4398C69.97 93.5498 69.54 94.4498 68.26 94.3898C66.99 94.3298 66.68 93.4197 66.7 92.2997C66.72 91.1197 66.7 89.9397 66.7 88.7697H66.71Z" fill="black"/>
    <path d="M57.5702 75.0396C57.5702 76.7196 57.6202 77.8496 57.5602 78.9696C57.5002 80.0196 56.8802 80.6396 55.8202 80.5696C54.8202 80.5096 54.3202 79.8496 54.3202 78.8596C54.3002 76.5596 54.3002 74.2496 54.3202 71.9496C54.3302 70.9296 54.8202 70.1996 55.9302 70.2096C57.0102 70.2096 57.4102 70.8496 57.5102 71.9296C57.6302 73.1496 57.5202 74.3696 57.5802 75.0296L57.5702 75.0396Z" fill="black"/>
    <path d="M94.7402 75.5697C94.7402 76.6497 94.7602 77.7297 94.7402 78.8097C94.7202 79.8397 94.2302 80.5497 93.1502 80.5797C92.0502 80.6097 91.5102 79.8897 91.5002 78.8797C91.4602 76.5297 91.4602 74.1797 91.5302 71.8297C91.5602 70.9097 92.0302 70.1997 93.1002 70.1997C94.2102 70.1997 94.7102 70.8897 94.7502 71.8997C94.8002 73.1197 94.7602 74.3397 94.7502 75.5697H94.7402Z" fill="black"/>
    <path d="M47.0902 26.6899C46.0502 26.6899 45.0202 26.6899 43.9802 26.6899C42.9002 26.6899 42.1402 26.2499 42.1102 25.0699C42.0802 23.9299 42.8302 23.4699 43.8302 23.4499C46.0302 23.4099 48.2302 23.3999 50.4302 23.4499C51.4402 23.4699 52.1702 23.9698 52.1102 25.1098C52.0602 26.1998 51.3602 26.6699 50.3302 26.6899C49.2502 26.7099 48.1602 26.6899 47.0802 26.6899H47.0902Z" fill="black"/>
    <path d="M62.8799 32.2499C61.2299 30.3499 59.6799 28.5599 58.1199 26.7699C57.9199 26.5299 57.8799 26.2699 58.1099 26.0099C59.6699 24.2199 61.2199 22.4199 62.7699 20.6299C63.1299 20.8999 63.0099 21.1499 63.0199 21.3599C63.0599 23.4099 63.4599 23.8299 65.5199 23.8399C69.7099 23.8599 73.8899 23.8299 78.0799 23.8499C81.2399 23.8699 83.5499 25.6699 84.4699 28.8099C83.9999 29.0699 83.4799 28.9299 82.9899 28.9299C77.5399 28.9399 72.0799 28.9299 66.6299 28.9299C64.4166 28.9299 63.1666 30.0365 62.8799 32.2499Z" fill="#FCFCFC"/>
    <path d="M44.7602 76.9697C46.4102 78.8697 47.8602 80.5397 49.3102 82.2097C49.5802 82.5197 49.9302 82.8097 49.5102 83.2897C47.9802 85.0497 46.4602 86.8197 44.8702 88.6697C44.4968 86.5297 43.2002 85.4597 40.9802 85.4597C37.2102 85.4597 33.4402 85.4797 29.6702 85.4397C26.9402 85.4097 24.9002 84.1797 23.6102 81.7597C22.9302 80.4897 23.0002 80.3997 24.4202 80.3997C29.8902 80.3997 35.3502 80.3997 40.8202 80.3997C41.2902 80.3997 41.7602 80.3997 42.2302 80.3697C44.2502 80.2497 44.5202 79.9597 44.6702 77.9097C44.6902 77.6897 44.7102 77.4697 44.7502 76.9897L44.7602 76.9697Z" fill="#FCFCFC"/>
    <path d="M88.01 45.6298C86.16 47.2298 84.4 48.7598 82.63 50.2798C82.13 50.7098 81.75 50.2898 81.4 49.9998C79.69 48.5398 77.99 47.0598 76.27 45.5698C76.37 45.4798 76.43 45.3798 76.48 45.3798C79.32 45.5998 79.74 45.2198 79.74 42.4498C79.74 39.4798 79.79 36.5098 79.72 33.5498C79.69 32.4498 80.08 32.0898 81.11 32.2598C81.29 32.2898 81.49 32.2698 81.67 32.2798C83.7767 32.3265 84.83 33.4298 84.83 35.5898C84.83 37.7098 84.83 39.8298 84.83 41.9498C84.83 44.0565 85.8867 45.2865 88 45.6398L88.01 45.6298Z" fill="black"/>
    <path d="M31.4902 63.7696C30.7102 63.7696 30.3802 63.7496 30.0602 63.7696C28.4102 63.8696 27.9702 64.2896 27.9602 65.9196C27.9402 69.1596 27.9302 72.4096 27.9802 75.6496C28.0002 76.6696 27.7102 77.1196 26.6202 77.0096C25.7802 76.9196 24.9202 76.9096 24.0902 77.0096C23.0402 77.1396 22.7902 76.6896 22.8002 75.7496C22.8402 72.9796 22.8402 70.2096 22.8402 67.4296C22.8402 65.2896 21.7935 64.0062 19.7002 63.5796C21.4702 62.0596 23.1702 60.6096 24.8502 59.1296C25.2902 58.7396 25.6202 58.7296 26.0602 59.1196C27.7502 60.5896 29.4502 62.0296 31.4902 63.7796V63.7696Z" fill="black"/>
</svg>
