<svg width="108" height="109" viewBox="0 0 108 109" fill="none" xmlns="http://www.w3.org/2000/svg">
    <path d="M27.7601 12.3998C21.8101 12.3998 16.1601 12.3998 10.5101 12.3998C9.42006 12.3998 8.84006 12.9498 8.82006 14.0398C8.79006 16.0198 8.80006 17.9998 8.76006 19.9798C8.74006 20.9998 9.51005 21.2698 10.2201 21.6498C12.8501 23.0698 14.1501 25.7598 13.7001 28.7798C13.3201 31.3398 11.0301 33.7098 8.41006 34.2398C5.53006 34.8198 2.63007 33.5398 1.14007 31.0298C-0.879932 27.6298 0.370044 23.2698 3.96004 21.5398C4.98004 21.0498 5.31006 20.4298 5.26006 19.3498C5.19006 17.6998 5.22005 16.0498 5.25005 14.3998C5.32005 10.5598 7.13005 8.73978 11.0601 8.71978C17.2801 8.68978 23.5001 8.71976 29.7201 8.73976C30.9501 8.73976 32.0001 8.45978 33.0001 7.71978C51.2501 -5.72022 75.7001 0.999784 85.8501 21.2598C86.4901 22.5398 87.1801 23.0598 88.6301 22.9998C91.5001 22.8798 94.3801 22.9698 97.2501 22.9598C98.8701 22.9598 99.29 22.5898 99.33 20.9898C99.39 19.1098 99.3301 17.2198 99.3801 15.3398C99.4101 14.3198 98.7401 14.0098 98.0101 13.6198C95.4001 12.2298 94.06 9.71976 94.33 6.85976C94.58 4.22976 96.6101 1.84976 99.2601 1.07976C102.57 0.119761 106.02 1.80976 107.36 5.04976C108.72 8.35976 107.46 12.0798 104.29 13.5898C103.09 14.1598 102.74 14.8598 102.81 16.0898C102.9 17.6898 102.85 19.2898 102.83 20.8998C102.79 24.3498 100.83 26.3098 97.36 26.3598C94.77 26.3998 92.17 26.3998 89.58 26.3498C88.59 26.3298 88.3001 26.4698 88.5701 27.5798C90.0101 33.5098 90.3201 39.4798 88.7301 45.4498C87.8401 48.7998 86.3901 51.8898 84.5101 54.7998C81.7001 59.1398 78.62 63.3198 76.62 68.1398C76.16 69.2598 75.67 70.3798 75.43 71.7298C77.43 71.7298 79.3601 71.6698 81.2801 71.7498C82.8301 71.8098 83.48 72.7498 83.05 74.0998C82.73 75.1098 81.8701 75.2598 81.0101 75.2798C79.2701 75.3298 77.5201 75.3598 75.7801 75.2598C74.6801 75.1898 74.3 75.5698 74.15 76.6298C73.8801 78.5398 73.6701 80.4598 73.59 82.3898C73.5201 84.1898 73.0501 84.6298 71.2601 84.6298C59.7601 84.6298 48.2601 84.6298 36.7601 84.6298C35.0701 84.6298 34.6801 84.2698 34.4501 82.6398C34.4201 82.4098 34.39 82.1698 34.37 81.9398C34.2034 79.7198 33.0301 78.6131 30.8501 78.6198C26.0001 78.6198 21.1401 78.6398 16.2901 78.6198C11.9701 78.6198 10.1101 76.7598 10.0401 72.4198C10.0401 71.8598 10 71.2798 10.09 70.7298C10.3601 68.9698 9.68006 67.7698 8.13006 66.8998C5.58006 65.4598 4.57004 62.8698 5.24004 59.8798C5.86004 57.1098 8.34004 54.8798 11.05 54.6398C14.47 54.3398 17.4801 56.3298 18.4101 59.5098C19.3401 62.7098 17.88 65.9898 14.74 67.5198C13.95 67.9098 13.5901 68.3498 13.6301 69.2398C13.6901 70.6498 13.6401 72.0698 13.6701 73.4798C13.6901 74.4898 14.1901 75.0198 15.2601 75.0198C21.0101 75.0198 26.7601 75.0198 32.5101 75.0898C33.4701 75.0898 33.5701 74.8298 33.3801 73.9498C32.3401 68.9298 30.1401 64.4498 27.2801 60.2498C24.8501 56.6798 21.9701 53.3398 20.5601 49.1798C16.1901 36.2898 18.0501 24.4198 26.6401 13.7298C26.9301 13.3698 27.2301 13.0198 27.7301 12.4098L27.7601 12.3998ZM50.5701 74.5698H50.5601C50.5601 76.3098 50.6101 78.0598 50.5401 79.7998C50.5001 80.8698 50.9101 81.2198 51.9401 81.1798C53.3501 81.1198 54.77 81.0998 56.18 81.1798C57.24 81.2398 57.6101 80.8698 57.59 79.8198C57.5401 77.5098 57.5501 75.1998 57.5701 72.8898C57.5801 71.3698 58.1501 70.6598 59.34 70.7298C60.69 70.7998 61.0101 71.7398 61.0101 72.8898C61.0101 75.1998 61.0401 77.5098 61.0001 79.8198C60.9801 80.7598 61.2201 81.2098 62.2601 81.1798C64.2901 81.1198 66.3201 81.0798 68.34 81.1698C69.86 81.2398 70.2501 80.5098 70.3201 79.1698C70.5901 73.4698 72.2701 68.1798 75.0301 63.2098C76.7701 60.0798 78.7801 57.1198 80.7501 54.1398C85.2601 47.3298 87.1301 39.8898 85.7501 31.8298C82.5001 12.9098 64.4501 1.01977 45.8501 5.39977C32.8301 8.46977 22.58 20.9398 21.93 34.2998C21.55 42.1898 23.5701 49.2698 28.2901 55.6198C30.6501 58.7898 32.91 62.0498 34.58 65.6498C36.58 69.9698 37.63 74.5298 37.86 79.2798C37.95 81.1198 38.0601 81.1898 39.84 81.1798C41.82 81.1598 43.8001 81.1398 45.7801 81.1798C46.8301 81.1998 47.1701 80.7898 47.1601 79.7498C47.1101 76.3598 47.1201 72.9598 47.1301 69.5698C47.1301 68.0598 47.73 67.3398 48.9 67.3698C50.29 67.3998 50.59 68.3298 50.59 69.4798C50.59 71.1798 50.59 72.8698 50.59 74.5698H50.5701ZM101.17 10.7998C102.97 10.7898 104.43 9.35978 104.43 7.62978C104.43 5.85978 102.85 4.28977 101.09 4.30977C99.3101 4.32977 97.8001 5.90977 97.8501 7.70977C97.8901 9.47977 99.3301 10.8198 101.17 10.8098V10.7998ZM7.01006 30.8798C8.85006 30.8798 10.2401 29.4298 10.2201 27.5398C10.2001 25.6798 8.88006 24.3798 7.01006 24.3798C5.20006 24.3798 3.77004 25.7598 3.74004 27.5298C3.71004 29.3398 5.21006 30.8798 7.01006 30.8798ZM15.1601 61.3298C15.1301 59.5298 13.5401 57.9998 11.7801 58.0698C10.0301 58.1398 8.65006 59.6198 8.66006 61.4098C8.67006 63.2798 10.1101 64.6698 12.0001 64.6098C13.8001 64.5598 15.1901 63.1098 15.1601 61.3298Z" fill="black"/>
    <path d="M38.7799 95.7096C40.9899 95.5596 43.6599 95.9596 46.3299 95.9096C55.5499 95.7096 64.7699 95.6996 73.9899 95.7196C74.5099 95.7196 75.0299 95.7396 75.5399 95.7996C76.4699 95.9096 77.0099 96.4297 76.9699 97.3897C76.9299 98.3797 76.3999 99.0097 75.3999 99.0397C73.3799 99.0997 71.3299 99.2497 69.3299 99.0397C66.5799 98.7597 64.9399 99.2697 63.8499 102.32C62.3199 106.61 57.8299 108.74 52.9699 108.41C48.7299 108.12 44.8499 105.09 43.5399 100.82C43.1599 99.5697 42.63 99.1996 41.39 99.2396C38.69 99.3296 35.9799 99.2796 33.2699 99.2696C31.8699 99.2696 31.1899 98.6696 31.1899 97.5196C31.1899 96.1496 32.0599 95.7396 33.2299 95.7196C34.9299 95.6896 36.6199 95.7196 38.7899 95.7196L38.7799 95.7096ZM54.1899 99.0697C52.0699 99.0697 49.9599 99.0697 47.8399 99.0697C46.9999 99.0697 46.7499 99.3396 47.0699 100.18C47.5299 101.41 48.2899 102.4 49.2599 103.24C52.9599 106.42 59.1399 105 61.0499 100.55C61.5799 99.2996 61.4499 99.0896 60.1199 99.0796C58.1399 99.0796 56.1699 99.0796 54.1899 99.0796V99.0697Z" fill="black"/>
    <path d="M98.83 79.4897C98.83 80.1497 98.89 80.8097 98.82 81.4597C98.66 83.0397 99.22 84.1397 100.67 84.9097C103.45 86.3897 104.58 89.5797 103.55 92.6597C102.47 95.8797 99.46 97.7597 96.05 97.3297C93.11 96.9597 90.52 94.1697 90.36 91.1897C90.19 88.0397 91.44 85.6997 94.34 84.3697C95.05 84.0397 95.32 83.5797 95.31 82.8397C95.29 80.8597 95.29 78.8797 95.27 76.9097C95.27 75.8197 94.73 75.2697 93.61 75.2797C92.29 75.2897 90.97 75.2897 89.65 75.2497C88.48 75.2097 87.6 74.7497 87.62 73.4197C87.64 72.1497 88.53 71.7397 89.62 71.7197C91.13 71.6897 92.64 71.6597 94.14 71.7697C96.76 71.9597 98.48 73.6197 98.78 76.2397C98.9 77.3097 98.8 78.3997 98.8 79.4797H98.83V79.4897ZM100.36 90.5697C100.42 88.7597 98.96 87.2097 97.16 87.1697C95.4 87.1297 93.92 88.5297 93.84 90.3097C93.76 92.0797 95.14 93.5997 96.9 93.6797C98.78 93.7597 100.3 92.3897 100.36 90.5797V90.5697Z" fill="black"/>
    <path d="M54.2 91.8596C48.73 91.8596 43.2599 91.8596 37.7999 91.8596C37.4199 91.8596 37.05 91.8696 36.67 91.8596C35.56 91.8096 34.57 91.5896 34.54 90.1696C34.52 88.9796 35.23 88.3096 36.69 88.3096C48.19 88.2996 59.69 88.3096 71.19 88.3096C71.65 88.3096 72.14 88.3696 72.57 88.5396C73.36 88.8496 73.68 89.5196 73.6 90.3396C73.53 91.1196 73.12 91.6696 72.29 91.7596C71.73 91.8196 71.16 91.8596 70.6 91.8596C65.13 91.8596 59.66 91.8596 54.2 91.8596Z" fill="black"/>
    <path d="M50.5703 74.57C50.5703 72.87 50.5703 71.18 50.5703 69.48C50.5703 68.32 50.2803 67.4 48.8803 67.37C47.7103 67.34 47.1203 68.06 47.1103 69.57C47.1003 72.96 47.0803 76.36 47.1403 79.75C47.1603 80.79 46.8103 81.2 45.7603 81.18C43.7803 81.13 41.8003 81.16 39.8203 81.18C38.0503 81.19 37.9303 81.12 37.8403 79.28C37.6103 74.53 36.5603 69.97 34.5603 65.65C32.8903 62.05 30.6303 58.79 28.2703 55.62C23.5503 49.27 21.5203 42.19 21.9103 34.3C22.5603 20.94 32.8103 8.45998 45.8303 5.39998C64.4303 1.01998 82.4803 12.91 85.7303 31.83C87.1103 39.89 85.2403 47.33 80.7303 54.14C78.7603 57.12 76.7503 60.08 75.0103 63.21C72.2503 68.18 70.5803 73.48 70.3003 79.17C70.2403 80.51 69.8403 81.24 68.3203 81.17C66.3003 81.08 64.2703 81.12 62.2403 81.18C61.2003 81.21 60.9603 80.76 60.9803 79.82C61.0303 77.51 60.9903 75.2 60.9903 72.89C60.9903 71.74 60.6703 70.81 59.3203 70.73C58.1303 70.66 57.5603 71.37 57.5503 72.89C57.5303 75.2 57.5203 77.51 57.5703 79.82C57.5903 80.87 57.2203 81.25 56.1603 81.18C54.7503 81.1 53.3303 81.11 51.9203 81.18C50.8903 81.22 50.4703 80.88 50.5203 79.8C50.5903 78.06 50.5403 76.31 50.5403 74.57H50.5503H50.5703ZM30.1503 45.29C30.1703 45.37 30.1803 45.62 30.2903 45.82C31.4803 47.95 32.6503 50.1 33.9203 52.19C34.4603 53.09 35.3703 53.16 36.3003 52.75C37.3803 52.28 38.4603 51.82 39.5203 51.33C40.2303 51 40.8203 50.98 41.4503 51.55C43.1103 53.06 45.0403 54.14 47.1503 54.85C47.9703 55.12 48.2103 55.6 48.2803 56.4C48.3903 57.66 48.6103 58.92 48.8203 60.17C48.9903 61.18 49.6003 61.75 50.6603 61.75C52.9203 61.75 55.1803 61.75 57.4503 61.75C58.4903 61.75 59.1503 61.24 59.3103 60.2C59.5103 58.95 59.7303 57.69 59.8403 56.43C59.9103 55.65 60.1203 55.14 60.9603 54.87C63.0803 54.18 65.0103 53.08 66.6703 51.58C67.2703 51.03 67.8503 50.95 68.5803 51.29C69.7203 51.83 70.8903 52.32 72.0703 52.79C73.0003 53.17 73.8903 53.04 74.4303 52.14C75.6103 50.19 76.7203 48.19 77.8603 46.22C78.4903 45.13 78.2803 44.26 77.2803 43.52C76.3303 42.82 75.4403 42.04 74.4603 41.41C73.6903 40.92 73.5403 40.36 73.6903 39.51C74.0403 37.6 74.2103 35.66 73.7503 33.76C73.4203 32.41 73.8303 31.53 75.0003 30.84C75.7703 30.39 76.4403 29.78 77.1603 29.25C78.1803 28.5 78.4403 27.57 77.8303 26.46C76.7603 24.53 75.6603 22.61 74.5503 20.7C73.9303 19.63 72.9903 19.4 71.8803 19.86C70.8403 20.29 69.8003 20.72 68.7903 21.22C67.8503 21.69 67.0903 21.69 66.2503 20.9C65.5103 20.2 64.6503 19.42 63.7103 19.16C60.3503 18.22 59.0303 16.08 59.2303 12.69C59.2903 11.6 58.5303 10.86 57.3203 10.86C55.1503 10.86 52.9803 10.82 50.8203 10.87C49.6503 10.9 48.9003 11.47 48.7703 12.75C48.6603 13.96 48.3503 15.16 48.2603 16.37C48.2003 17.16 47.8803 17.57 47.1703 17.8C45.0303 18.49 43.1303 19.6 41.4503 21.08C40.8303 21.63 40.2603 21.69 39.5403 21.33C38.4903 20.81 37.4103 20.34 36.3303 19.9C35.2203 19.45 34.2903 19.7 33.6803 20.79C32.5903 22.71 31.4903 24.62 30.4103 26.55C29.8403 27.57 30.0803 28.45 31.0103 29.14C31.9103 29.81 32.7703 30.57 33.7303 31.15C34.6003 31.68 34.8103 32.33 34.6103 33.27C34.2003 35.27 34.1903 37.3 34.6103 39.3C34.8203 40.31 34.5603 40.99 33.6803 41.55C32.7303 42.16 31.8603 42.89 30.9703 43.58C30.4803 43.97 30.0803 44.43 30.1503 45.28V45.29Z" fill="#FCFCFC"/>
    <path d="M101.17 10.8C99.3299 10.81 97.8899 9.47002 97.8499 7.70002C97.8099 5.90002 99.3099 4.31999 101.09 4.29999C102.85 4.27999 104.43 5.85 104.43 7.62C104.43 9.36 102.96 10.78 101.17 10.79V10.8Z" fill="#FCFCFC"/>
    <path d="M7.01021 30.8799C5.21021 30.8799 3.71019 29.3499 3.74019 27.5299C3.77019 25.7599 5.20021 24.3799 7.01021 24.3799C8.88021 24.3799 10.1902 25.6799 10.2202 27.5399C10.2402 29.4299 8.85021 30.8799 7.01021 30.8799Z" fill="#FCFCFC"/>
    <path d="M15.1602 61.3297C15.1902 63.1097 13.8002 64.5597 12.0002 64.6097C10.1102 64.6697 8.67016 63.2797 8.66016 61.4097C8.66016 59.6197 10.0302 58.1497 11.7802 58.0697C13.5402 57.9997 15.1302 59.5297 15.1602 61.3297Z" fill="#FCFCFC"/>
    <path d="M54.1901 99.0796C56.1701 99.0796 58.1401 99.0796 60.1201 99.0796C61.4401 99.0796 61.5801 99.2996 61.0501 100.55C59.1401 105 52.9601 106.42 49.2601 103.24C48.2801 102.4 47.5301 101.41 47.0701 100.18C46.7501 99.3396 47.0101 99.0596 47.8401 99.0696C49.9601 99.0796 52.0701 99.0696 54.1901 99.0696V99.0796Z" fill="#FCFCFC"/>
    <path d="M100.36 90.5697C100.3 92.3897 98.7701 93.7597 96.9001 93.6697C95.1401 93.5897 93.7501 92.0696 93.8401 90.2996C93.9201 88.5196 95.4001 87.1297 97.1601 87.1597C98.9601 87.1997 100.42 88.7497 100.36 90.5597V90.5697Z" fill="#FCFCFC"/>
    <path d="M30.1503 45.2999C30.0803 44.4499 30.4803 43.9899 30.9703 43.5999C31.8603 42.8999 32.7303 42.1799 33.6803 41.5699C34.5603 41.0099 34.8203 40.3299 34.6103 39.3199C34.1903 37.3199 34.2003 35.2899 34.6103 33.2899C34.8003 32.3399 34.6003 31.6999 33.7303 31.1699C32.7703 30.5899 31.9203 29.8299 31.0103 29.1599C30.0803 28.4599 29.8403 27.5899 30.4103 26.5699C31.4803 24.6399 32.5803 22.7299 33.6803 20.8099C34.3003 19.7299 35.2203 19.4799 36.3303 19.9199C37.4203 20.3599 38.4903 20.8299 39.5403 21.3499C40.2703 21.7099 40.8303 21.6499 41.4503 21.0999C43.1303 19.6199 45.0303 18.5099 47.1703 17.8199C47.8803 17.5899 48.2103 17.1799 48.2603 16.3899C48.3503 15.1799 48.6503 13.9799 48.7703 12.7699C48.8903 11.4799 49.6503 10.9099 50.8203 10.8899C52.9903 10.8399 55.1503 10.8699 57.3203 10.8799C58.5303 10.8799 59.2903 11.6199 59.2303 12.7099C59.0303 16.0999 60.3503 18.2399 63.7103 19.1799C64.6503 19.4399 65.5103 20.2199 66.2503 20.9199C67.0803 21.7099 67.8403 21.7099 68.7903 21.2399C69.8003 20.7399 70.8403 20.3099 71.8803 19.8799C72.9903 19.4199 73.9303 19.6499 74.5503 20.7199C75.6603 22.6299 76.7503 24.5499 77.8303 26.4799C78.4503 27.5899 78.1803 28.5299 77.1603 29.2699C76.4403 29.7999 75.7703 30.4099 75.0003 30.8599C73.8203 31.5499 73.4203 32.4299 73.7503 33.7799C74.2103 35.6899 74.0403 37.6299 73.6903 39.5299C73.5303 40.3799 73.6903 40.9399 74.4603 41.4299C75.4503 42.0599 76.3403 42.8399 77.2803 43.5399C78.2803 44.2799 78.4903 45.1499 77.8603 46.2399C76.7103 48.2099 75.6103 50.2099 74.4303 52.1599C73.8903 53.0599 73.0003 53.1799 72.0703 52.8099C70.9003 52.3399 69.7303 51.8499 68.5803 51.3099C67.8503 50.9599 67.2703 51.0499 66.6703 51.5999C65.0103 53.0999 63.0903 54.1999 60.9603 54.8899C60.1203 55.1599 59.9203 55.6699 59.8403 56.4499C59.7203 57.7099 59.5103 58.9699 59.3103 60.2199C59.1403 61.2599 58.4903 61.7699 57.4503 61.7699C55.1903 61.7699 52.9303 61.7699 50.6603 61.7699C49.6003 61.7699 48.9903 61.1999 48.8203 60.1899C48.6103 58.9399 48.3903 57.6799 48.2803 56.4199C48.2103 55.6199 47.9703 55.1499 47.1503 54.8699C45.0303 54.1699 43.1003 53.0899 41.4503 51.5699C40.8203 50.9999 40.2303 51.0199 39.5203 51.3499C38.4603 51.8499 37.3803 52.3099 36.3003 52.7699C35.3703 53.1699 34.4603 53.0999 33.9203 52.2099C32.6603 50.1199 31.4903 47.9699 30.2903 45.8399C30.1803 45.6399 30.1703 45.3899 30.1503 45.3099V45.2999ZM54.3603 58.0099C55.6603 58.2899 56.3003 57.6599 56.1903 56.0999C56.1503 55.4999 56.3903 54.8899 56.4103 54.2799C56.4703 52.8699 57.1103 52.0399 58.5303 51.6999C60.7603 51.1599 62.8403 50.1699 64.4203 48.5199C66.0403 46.8399 67.5103 46.7799 69.5603 47.7399C72.5703 49.1599 71.5703 49.2799 73.3703 46.4899C73.8603 45.7299 73.8703 45.1499 73.0103 44.6199C72.2903 44.1799 71.6903 43.5499 70.9703 43.1099C69.6203 42.2799 69.3903 41.1699 69.8103 39.7199C70.2703 38.0799 70.6303 36.3099 70.1403 34.6899C69.1403 31.4399 69.9103 29.1399 73.0603 27.6999C73.7203 27.3999 73.8303 26.7899 73.6303 26.1299C72.9603 23.9199 71.9703 23.4599 69.8803 24.3699C69.3203 24.6099 68.7403 24.8199 68.2003 25.1099C67.1303 25.6799 66.2703 25.4599 65.4103 24.6199C63.7503 22.9799 61.8703 21.4899 59.6003 20.9999C56.9803 20.4399 56.1203 18.9499 56.2503 16.5199C56.2603 16.2899 56.2203 16.0499 56.2303 15.8099C56.2903 14.5499 55.7203 13.9699 54.4403 14.1299C54.0203 14.1799 53.5903 14.2199 53.1703 14.1699C52.3703 14.0699 52.0703 14.4799 51.9903 15.1899C51.8703 16.3099 51.7503 17.4299 51.6203 18.5599C51.5103 19.5499 51.0203 20.1699 50.0103 20.4399C48.0503 20.9699 46.0203 21.5799 44.6103 23.0299C42.4203 25.2899 40.3003 26.0499 37.6203 23.9399C37.1003 23.5299 36.4003 23.4899 35.8403 24.1099C34.2203 25.8999 34.3103 26.8999 36.2303 28.3399C36.5703 28.5899 36.8803 28.8899 37.2403 29.1099C38.5503 29.9199 38.8603 31.0099 38.4603 32.4999C37.8803 34.7099 37.7203 37.0099 38.3603 39.2099C38.9503 41.2199 38.3003 42.4599 36.6803 43.6199C34.2103 45.3799 34.2703 45.4599 35.8003 47.9999C35.8203 48.0399 35.8403 48.0799 35.8603 48.1299C36.1003 48.6599 36.4403 48.7899 36.9903 48.5199C37.9203 48.0599 38.8703 47.6599 39.8203 47.2399C40.8103 46.7899 41.7603 46.7899 42.5603 47.5799C44.6903 49.6799 47.1903 51.0899 50.1203 51.7399C51.0603 51.9499 51.5303 52.6099 51.6203 53.5599C51.7003 54.3599 51.8303 55.1499 51.8703 55.9499C51.9803 57.9899 52.0603 58.0899 54.3203 58.0099H54.3603Z" fill="black"/>
    <path d="M54.3701 58.0099C52.1101 58.0899 52.0301 57.9899 51.9201 55.9499C51.8801 55.1499 51.7501 54.3599 51.6701 53.5599C51.5801 52.6099 51.1101 51.9499 50.1701 51.7399C47.2401 51.0899 44.74 49.6899 42.61 47.5799C41.81 46.7899 40.8501 46.7999 39.8701 47.2399C38.9301 47.6699 37.9701 48.0699 37.0401 48.5199C36.4901 48.7899 36.1501 48.6599 35.9101 48.1299C35.8901 48.0899 35.8701 48.0399 35.8501 47.9999C34.3101 45.4499 34.2601 45.3799 36.7301 43.6199C38.3501 42.4699 39.0001 41.2299 38.4101 39.2099C37.7701 37.0099 37.9201 34.7099 38.5101 32.4999C38.9001 31.0099 38.6001 29.9199 37.2901 29.1099C36.9301 28.8899 36.6201 28.5899 36.2801 28.3399C34.3601 26.8999 34.2701 25.8999 35.8901 24.1099C36.4501 23.4899 37.1501 23.5299 37.6701 23.9399C40.3401 26.0499 42.4701 25.2899 44.6601 23.0299C46.0701 21.5699 48.1101 20.9699 50.0601 20.4399C51.0801 20.1699 51.5601 19.5499 51.6701 18.5599C51.8001 17.4399 51.9201 16.3199 52.0401 15.1899C52.1201 14.4799 52.4101 14.0699 53.2201 14.1699C53.6401 14.2199 54.0701 14.1799 54.4901 14.1299C55.7701 13.9799 56.3401 14.5499 56.2801 15.8099C56.2701 16.0399 56.3101 16.2799 56.3001 16.5199C56.1601 18.9499 57.0201 20.4399 59.6501 20.9999C61.9201 21.4899 63.8001 22.9799 65.4601 24.6199C66.3201 25.4599 67.1701 25.6799 68.2501 25.1099C68.7901 24.8199 69.3701 24.6199 69.9301 24.3699C72.0201 23.4599 73.0101 23.9299 73.6801 26.1299C73.8801 26.7899 73.7701 27.3999 73.1101 27.6999C69.96 29.1299 69.1901 31.4299 70.1901 34.6899C70.6901 36.3099 70.32 38.0799 69.8601 39.7199C69.4501 41.1799 69.6701 42.2799 71.0201 43.1099C71.7401 43.5499 72.3401 44.1799 73.0601 44.6199C73.9101 45.1499 73.9101 45.7199 73.4201 46.4899C71.6201 49.2799 72.6301 49.1599 69.6101 47.7399C67.5601 46.7699 66.0901 46.8299 64.4701 48.5199C62.8901 50.1599 60.81 51.1599 58.58 51.6999C57.16 52.0399 56.5201 52.8699 56.4601 54.2799C56.4301 54.8899 56.1901 55.4999 56.2401 56.0999C56.3501 57.6599 55.7101 58.2899 54.4101 58.0099H54.3701ZM54.1401 25.7599C47.9801 25.7899 43.4101 30.3699 43.4501 36.4699C43.4901 42.3399 48.2601 47.0499 54.1301 46.9999C60.0301 46.9499 64.7001 42.1599 64.6901 36.1899C64.6701 30.3399 60.0201 25.7399 54.1501 25.7699L54.1401 25.7599Z" fill="black"/>
    <path d="M54.1402 25.76C60.0102 25.73 64.6602 30.33 64.6802 36.18C64.7002 42.16 60.0202 46.95 54.1202 46.99C48.2502 47.04 43.4802 42.33 43.4402 36.46C43.4002 30.36 47.9802 25.78 54.1302 25.75L54.1402 25.76ZM54.0202 43.31C57.9102 43.34 61.1502 40.17 61.2202 36.26C61.2902 32.39 58.1002 29.11 54.2002 29.05C50.2402 28.98 46.9302 32.21 46.9302 36.15C46.9302 40.03 50.1502 43.28 54.0202 43.31Z" fill="black"/>
    <path d="M54.0202 43.31C50.1502 43.28 46.9202 40.03 46.9302 36.15C46.9302 32.21 50.2502 28.9799 54.2002 29.0499C58.1002 29.1199 61.2902 32.4 61.2202 36.26C61.1502 40.17 57.9102 43.34 54.0202 43.31Z" fill="#FCFCFC"/>
</svg>
