<svg width="112" height="112" viewBox="0 0 112 112" fill="none" xmlns="http://www.w3.org/2000/svg">
    <g clip-path="url(#clip0_47_3741)">
        <path d="M59.8006 24.7776C59.4812 20.1889 59.2433 16.5455 58.9678 12.9147C58.5108 6.81104 62.4115 1.49619 68.2594 0.269208C74.1637 -0.964038 79.8301 2.22237 81.8337 8.07559C83.4177 12.6956 84.8515 17.3656 86.2791 22.0419C86.7236 23.5131 87.475 24.5648 88.7773 25.4349C92.2585 27.7574 94.6941 30.9501 96.0591 34.919C100.93 49.0732 106.058 63.1522 110.579 77.4191C113.979 88.1364 111.242 97.7895 102.79 105.195C94.5626 112.407 84.9016 113.966 74.8211 109.496C64.5215 104.926 59.3435 96.6064 58.9428 85.3757C58.7988 81.3129 58.7988 77.2438 58.949 73.1809C59.0304 71.0149 57.797 71.0275 56.4007 71.2591C55.0609 71.4845 52.9195 70.1636 52.9321 73.2435C52.9634 78.5521 53.3954 83.8733 52.6628 89.1631C50.5779 104.338 35.6637 114.548 20.5805 111.167C5.64136 107.812 -3.54379 91.9175 1.27106 77.3627C5.9419 63.2461 10.8569 49.2109 15.7093 35.1569C17.1056 31.1129 19.5349 27.7574 23.1539 25.4036C24.4687 24.546 25.1888 23.488 25.6333 22.0106C26.9857 17.5346 28.4446 13.09 29.8972 8.64526C31.9696 2.35383 37.5483 -1.02038 43.7031 0.275468C49.695 1.53375 53.3578 6.79226 52.8882 13.2652C52.4249 19.7069 52.0555 26.1548 51.7111 32.6028C51.517 36.3276 52.0555 36.7345 56.5886 36.7282C59.7317 36.7282 60.3202 36.0584 60.1762 32.5652C60.0573 29.648 59.8882 26.737 59.7943 24.7776H59.8006ZM104.718 67.19C105.031 67.4091 105.1 68.2229 105.676 67.7221C105.82 67.5969 105.488 66.9271 105.382 66.5014C101.75 55.8779 98.238 45.2107 94.4562 34.6373C91.9893 27.7387 85.3024 23.4192 77.9517 23.4943C70.4383 23.5694 63.8891 28.1706 61.3596 35.0943C60.8211 36.5592 60.5018 37.9239 62.0546 38.9443C63.839 40.1212 64.1083 41.9304 64.2523 43.8397C64.4777 46.9573 64.6029 50.0936 65.0412 53.1798C65.9115 59.3836 66.2934 65.3245 60.9338 70.0697C59.5626 71.2841 60.195 73.2623 60.5582 75.6287C62.2236 72.749 63.4133 70.3576 65.1414 68.3168C75.1342 56.5165 93.4294 55.4773 104.725 67.1837L104.718 67.19ZM51.2415 75.2593C52.6628 71.6284 50.5465 69.4624 48.8247 67.1337C47.56 65.4246 45.882 64.0036 46.1575 61.4182C46.8086 55.2206 47.2406 49.0043 47.6977 42.788C47.8041 41.3357 48.2675 40.1087 49.4446 39.3011C51.2916 38.0366 51.1351 36.5341 50.4151 34.6999C47.7415 27.939 41.2487 23.4943 33.8668 23.4818C26.6539 23.4755 19.9607 27.7637 17.5313 34.462C13.712 45.0229 10.1682 55.6839 6.51793 66.3011C6.38018 66.6955 6.09217 67.3841 6.19861 67.4592C8.941 69.2997 6.19861 70.4015 5.5224 71.5157C0.269268 80.2111 -0.212843 89.1067 4.85871 97.8834C9.94279 106.679 17.9696 110.873 28.0752 110.385C38.8068 109.865 47.8981 102.291 50.6405 92.1867C53.5143 81.5946 49.695 70.9899 40.7228 64.6672C32.2075 58.6637 20.5743 58.8265 11.721 65.0741C10.8507 65.6876 10.0993 66.7393 8.78447 65.9192C18.4016 56.0094 40.6852 54.5633 51.2415 75.2656V75.2593ZM85.4777 110.466C99.2084 110.422 110.598 99.0165 110.547 85.3506C110.497 71.5533 99.1897 60.2225 85.4839 60.2287C71.5465 60.235 60.0635 71.7286 60.2388 85.4884C60.4142 99.3045 71.7344 110.504 85.4714 110.46L85.4777 110.466ZM84.5823 21.178C83.1109 16.5455 81.8838 12.2448 80.3685 8.05681C78.7907 3.68724 74.0698 0.807579 69.8247 1.32717C64.7907 1.94066 61.297 5.33365 60.458 10.3355C60.051 12.7456 60.627 15.0995 60.6959 17.4783C60.8024 21.322 61.1906 25.1595 61.4973 29.5353C67.458 21.2782 74.9589 18.8994 84.5823 21.178ZM50.4526 29.5478C50.8846 23.1375 51.4231 17.3656 51.6172 11.575C51.7737 7.03015 48.2988 2.81708 43.9598 1.7153C39.2451 0.519613 34.3927 2.36635 32.2639 6.67332C30.0474 11.1744 28.9956 16.1136 27.4115 21.1968C37.0036 18.7804 44.4419 21.3658 50.4589 29.5478H50.4526ZM56.0251 62.545C56.0251 62.545 56.0251 62.5262 56.0251 62.5199C58.1101 62.5199 60.2013 62.4386 62.28 62.545C63.9016 62.6264 64.4526 62.2007 64.271 60.4291C63.695 54.8325 63.382 49.2047 62.8372 43.6081C62.449 39.5891 60.2138 38.0804 55.0922 38.118C51.4982 38.143 49.5322 40.1087 48.9312 43.6769C48.0671 48.7915 48.6056 54.0124 47.6539 59.0894C47.0779 62.1506 48.2487 62.8956 51.0224 62.5763C52.6691 62.3885 54.3533 62.5387 56.0251 62.5387V62.545Z" fill="#232323"/>
        <path d="M51.2415 75.2593C40.6852 54.557 18.4016 56.0031 8.78446 65.9129C10.0993 66.733 10.8444 65.6813 11.721 65.0678C20.5743 58.8202 32.2075 58.6511 40.7227 64.6609C49.6888 70.9836 53.5081 81.5883 50.6405 92.1804C47.8981 102.284 38.8131 109.859 28.0752 110.379C17.9696 110.867 9.94278 106.673 4.8587 97.8771C-0.212852 89.1004 0.269258 80.2048 5.52239 71.5095C6.1986 70.3951 8.94099 69.2934 6.1986 67.4529C6.09216 67.384 6.38017 66.6891 6.51792 66.2948C10.1744 55.6776 13.712 45.0166 17.5313 34.4557C19.9544 27.7574 26.6476 23.4692 33.8668 23.4755C41.2487 23.4817 47.7415 27.9264 50.4151 34.6936C51.1413 36.5278 51.2916 38.0303 49.4446 39.2948C48.2675 40.1024 47.8041 41.3294 47.6977 42.7817C47.2406 48.998 46.8024 55.2143 46.1575 61.4119C45.8882 63.9973 47.5662 65.4183 48.8247 67.1274C50.5465 69.4561 52.6628 71.6221 51.2415 75.253V75.2593ZM36.2272 103.611C36.5215 103.53 36.8533 103.499 37.11 103.355C46.6521 97.8959 50.1834 85.5071 45.0054 75.6599C39.7084 65.5686 27.449 61.6059 17.1932 66.6579C7.21291 71.5721 2.90522 83.5602 7.47588 93.6703C12.1279 104.957 26.5412 109.94 36.2272 103.611Z" fill="#FDFDFD"/>
        <path d="M104.718 67.1837C93.4232 55.4773 75.128 56.5164 65.1352 68.3168C63.4071 70.3576 62.2237 72.7427 60.552 75.6286C60.1826 73.2623 59.5502 71.2841 60.9276 70.0696C66.2872 65.3244 65.9053 59.3836 65.035 53.1798C64.603 50.0873 64.4715 46.9572 64.2461 43.8397C64.1083 41.9303 63.8391 40.1212 62.0484 38.9443C60.4956 37.9239 60.8149 36.5591 61.3534 35.0943C63.8829 28.1706 70.4321 23.5694 77.9455 23.4943C85.2962 23.4191 91.9768 27.7386 94.45 34.6373C98.2318 45.2106 101.751 55.8779 105.376 66.5014C105.157 66.733 104.937 66.9583 104.718 67.19V67.1837Z" fill="#FDFDFD"/>
        <path d="M85.4777 110.466C71.7344 110.51 60.4205 99.3107 60.2451 85.4946C60.0698 71.7349 71.5528 60.2412 85.4902 60.235C99.1959 60.2287 110.504 71.5596 110.554 85.3569C110.604 99.0165 99.2147 110.429 85.484 110.473L85.4777 110.466ZM70.7201 98.572C68.8376 95.8802 69.0901 93.3427 71.4777 90.9597C71.8471 90.5966 72.1852 90.2022 72.5546 89.8391C73.0367 89.3696 73.6378 89.0065 74.1137 89.7327C76.1172 92.7626 77.4196 90.4589 78.8158 89.1318C79.9491 88.0613 81.1011 86.9908 82.1029 85.8014C83.2049 84.4993 84.0001 84.7309 85.0707 85.8702C87.3498 88.2929 89.9044 90.4777 92.0645 93.0005C93.9115 95.154 95.2952 95.323 97.0985 93.0381C97.6933 92.2931 98.2317 90.822 99.7094 91.4042C102.195 92.3808 102.784 94.8285 101.118 97.032C100.598 97.7144 100.047 98.378 99.3337 99.2794C101.469 98.7661 101.5 98.7849 102.339 97.5767C105.883 92.4371 107.129 86.8218 105.764 80.6868C103.823 71.979 96.6163 65.675 87.3185 64.542C79.0287 63.5341 70.4383 68.3669 66.6378 76.1858C62.8248 84.0235 64.196 93.2947 70.0689 99.2919C77.2129 107.9 94.043 108.72 98.7827 100.575C98.2255 100.394 97.8248 100.513 97.3364 100.807C87.162 107.004 79.9929 106.391 70.7201 98.5783V98.572Z" fill="#FDFDFD"/>
        <path d="M84.5823 21.1843C74.9589 18.9056 67.458 21.2845 61.4974 29.5416C61.1906 25.1658 60.8086 21.3283 60.6959 17.4846C60.6271 15.1057 60.051 12.7457 60.458 10.3418C61.297 5.33992 64.797 1.94693 69.8247 1.33344C74.0698 0.820105 78.7908 3.6935 80.3686 8.06308C81.8838 12.2574 83.1047 16.5518 84.5823 21.1843Z" fill="#FDFDFD"/>
        <path d="M50.4526 29.5478C44.4356 21.3595 36.9973 18.7804 27.4052 21.1968C28.9892 16.1136 30.0411 11.1743 32.2576 6.67328C34.3864 2.36631 39.2388 0.51957 43.9534 1.71526C48.2924 2.81704 51.7674 7.03011 51.6109 11.575C51.4168 17.3593 50.8783 23.1374 50.4463 29.5478H50.4526Z" fill="#FDFDFD"/>
        <path d="M56.0251 62.5512C54.3596 62.5512 52.6691 62.3947 51.0224 62.5888C48.2487 62.908 47.0778 62.1568 47.6539 59.1019C48.6056 54.0249 48.0671 48.804 48.9311 43.6894C49.5322 40.1212 51.4982 38.1555 55.0921 38.1304C60.2138 38.0929 62.449 39.6016 62.8372 43.6206C63.3819 49.2234 63.6887 54.845 64.271 60.4416C64.4526 62.2132 63.9016 62.6389 62.28 62.5575C60.2013 62.451 58.11 62.5324 56.0251 62.5324C56.0251 62.5387 56.0251 62.5512 56.0251 62.5575V62.5512ZM55.9249 60.2663C61.3784 60.1473 62.3989 59.0142 61.8417 53.5178C61.5537 50.6319 61.1467 47.7523 60.8211 44.8726C60.3265 40.4717 58.2791 39.1571 53.8023 40.1712C52.0304 40.5719 51.2165 41.2918 51.1163 43.245C50.9284 46.8633 50.3524 50.4566 50.0331 54.075C49.6011 58.9892 50.9598 60.3789 55.9311 60.2725L55.9249 60.2663Z" fill="#FDFDFD"/>
        <path d="M105.376 66.5013C105.488 66.9208 105.82 67.5906 105.67 67.7221C105.094 68.2229 105.031 67.4091 104.712 67.19C104.931 66.9583 105.15 66.733 105.369 66.5013H105.376Z" fill="#FDFDFD"/>
        <path d="M7.47589 93.6641C2.89897 83.554 7.21292 71.5721 17.1932 66.6516C27.4553 61.5997 39.7084 65.5623 45.0054 75.6537C50.1771 85.5071 46.6521 97.8896 37.1101 103.348C36.8533 103.499 36.5215 103.524 36.2272 103.605C36.2335 103.236 36.2397 102.86 36.2523 102.491C38.0805 101.126 39.9526 99.8366 41.4303 98.0462C45.594 92.9942 45.475 91.448 40.5036 87.3538C40.0403 86.972 39.458 86.1707 38.9696 86.7278C37.1038 88.8625 36.3587 86.7591 35.382 85.8514C33.704 84.3052 32.0072 82.7464 30.5358 81.0123C29.0143 79.2157 27.9562 78.9715 26.2219 80.9184C23.3229 84.1674 20.0296 87.0596 17.043 90.2335C15.7907 91.5669 15.0143 91.5294 13.8498 90.2085C13.1986 89.4698 12.441 87.7858 11.2639 88.7874C9.86766 89.9768 7.36945 90.9221 8.64047 93.6703C8.25227 93.6703 7.86408 93.6578 7.47589 93.6578V93.6641Z" fill="#0F0F0F"/>
        <path d="M7.47583 93.6641C7.86402 93.6641 8.25222 93.6766 8.64041 93.6766C14.4508 104.325 25.6019 107.712 36.2522 102.491C36.246 102.86 36.2397 103.236 36.2272 103.605C26.5411 109.934 12.1279 104.945 7.47583 93.6641Z" fill="#232323"/>
        <path d="M70.0688 99.2919C64.2021 93.2885 62.8246 84.0235 66.6377 76.1858C70.4445 68.3731 79.0348 63.5341 87.3184 64.5419C96.6162 65.6688 103.823 71.979 105.764 80.6868C107.135 86.828 105.883 92.4371 102.339 97.5766C101.506 98.7848 101.469 98.7598 99.3336 99.2794C100.054 98.3779 100.605 97.7144 101.118 97.032C102.784 94.8284 102.201 92.3807 99.7093 91.4042C98.2316 90.822 97.6869 92.2931 97.0984 93.038C95.2951 95.3167 93.9114 95.154 92.0644 93.0005C89.9042 90.4777 87.3559 88.2929 85.0706 85.8702C84 84.7309 83.2048 84.4992 82.1028 85.8013C81.101 86.9908 79.949 88.055 78.8157 89.1317C77.4132 90.4589 76.1171 92.7626 74.1136 89.7327C73.6377 89.0128 73.0366 89.3696 72.5545 89.8391C72.1851 90.2022 71.8408 90.5903 71.4776 90.9597C69.09 93.3427 68.8375 95.8802 70.72 98.572C70.5009 98.8099 70.2817 99.0478 70.0626 99.2857L70.0688 99.2919ZM83.1297 83.1971C84.7137 81.1438 82.8291 78.6836 85.1082 78.0263C86.6484 77.5818 88.4204 77.9386 90.0858 77.9386C87.9696 75.9103 89.0026 74.3328 90.5429 72.4986C88.2638 72.4986 86.5483 72.5424 84.8264 72.486C83.7057 72.4485 83.0796 72.7239 83.1046 74.0073C83.161 76.8807 83.1234 79.7603 83.1234 83.1971H83.1297Z" fill="#0F0F0F"/>
        <path d="M70.0688 99.2919C70.288 99.054 70.5071 98.8162 70.7263 98.5783C79.9991 106.397 87.1681 107.004 97.3425 100.807C97.8309 100.513 98.2316 100.394 98.7889 100.575C94.0492 108.72 77.2191 107.9 70.0751 99.2919H70.0688Z" fill="#232323"/>
        <path d="M55.925 60.26C50.9598 60.3665 49.5949 58.9767 50.0269 54.0625C50.3462 50.4504 50.9285 46.8508 51.1101 43.2325C51.2103 41.2856 52.0242 40.5594 53.7962 40.1588C58.2792 39.1446 60.3203 40.4592 60.8149 44.8601C61.1405 47.746 61.5475 50.6194 61.8355 53.5054C62.3865 59.0018 61.3722 60.1348 55.9187 60.2538L55.925 60.26ZM53.5708 41.8803C53.2827 41.8615 52.9947 41.8365 52.7067 41.8177C52.2183 46.2874 51.73 50.7572 51.2103 55.5336C53.7899 54.2754 54.56 48.66 53.5708 41.8803ZM56.933 41.3294C56.2693 41.3294 55.6119 41.3294 54.9482 41.3294C54.9482 45.4986 54.9419 49.6742 54.9607 53.8434C54.9607 54.4256 55.2863 54.7323 55.9375 54.7323C56.5824 54.7323 56.9267 54.4506 56.9267 53.8559C56.9455 49.6804 56.933 45.5112 56.933 41.3357V41.3294ZM59.1119 41.8615C58.8427 41.8678 58.5797 41.8803 58.3105 41.8866C58.3105 45.7929 58.3105 49.7055 58.3105 53.6118C58.3105 55.0453 59.2872 55.2081 60.6772 55.3333C60.145 50.7697 59.6316 46.3125 59.1119 41.8553V41.8615Z" fill="#232323"/>
        <path d="M36.2522 102.497C25.6019 107.712 14.4508 104.325 8.64039 93.6829C7.36937 90.9347 9.86758 89.9894 11.2638 88.8C12.4409 87.7921 13.2048 89.4823 13.8497 90.221C15.0143 91.5419 15.7907 91.5795 17.0429 90.2461C20.0295 87.0722 23.3291 84.18 26.2218 80.931C27.9561 78.9841 29.0143 79.2345 30.5357 81.0249C32.0071 82.7589 33.7039 84.3177 35.3819 85.864C36.3586 86.7654 37.1037 88.8751 38.9696 86.7404C39.4579 86.1832 40.0402 86.9845 40.5035 87.3664C45.4687 91.4543 45.5876 93.0068 41.4302 98.0587C39.9526 99.8491 38.0805 101.145 36.2522 102.503V102.497Z" fill="#FDFDFD"/>
        <path d="M83.1296 83.1971C83.1296 79.7603 83.1672 76.8806 83.1108 74.0072C83.0858 72.7177 83.7182 72.4485 84.8326 72.486C86.5482 72.5424 88.27 72.4985 90.5491 72.4985C89.0088 74.339 87.9695 75.9103 90.092 77.9386C88.4266 77.9386 86.6547 77.5818 85.1144 78.0262C82.8291 78.6836 84.7199 81.15 83.1359 83.1971H83.1296Z" fill="#FDFDFD"/>
        <path d="M53.5707 41.8803C54.5599 48.66 53.7898 54.2753 51.2102 55.5336C51.7299 50.7572 52.2183 46.2874 52.7066 41.8177C52.9946 41.8365 53.2827 41.8615 53.5707 41.8803Z" fill="#FDFDFD"/>
        <path d="M56.9328 41.3294C56.9328 45.5049 56.9391 49.6741 56.9266 53.8496C56.9266 54.4444 56.5822 54.7261 55.9373 54.7261C55.2799 54.7261 54.9605 54.4193 54.9605 53.8371C54.9418 49.6679 54.948 45.4924 54.948 41.3231C55.6117 41.3231 56.2691 41.3231 56.9328 41.3231V41.3294Z" fill="#FDFDFD"/>
        <path d="M59.1181 41.8615C59.6378 46.3187 60.1512 50.7697 60.6834 55.3396C59.2997 55.2144 58.3167 55.0453 58.3167 53.618C58.3229 49.7117 58.3167 45.7991 58.3167 41.8928C58.5859 41.8865 58.8488 41.874 59.1181 41.8678V41.8615Z" fill="#FDFDFD"/>
    </g>
    <defs>
        <clipPath id="clip0_47_3741">
            <rect width="112" height="112" fill="white"/>
        </clipPath>
    </defs>
</svg>
