<svg width="117" height="125" viewBox="0 0 117 125" fill="none" xmlns="http://www.w3.org/2000/svg">
    <g clip-path="url(#clip0_47_3760)">
        <path d="M79.2898 71.4317C77.027 72.5386 78.2953 74.4342 78.562 75.8523C78.8358 77.3138 80.3851 76.5179 81.3219 76.4456C85.8979 76.091 90.3153 74.9407 94.2787 72.6472C96.4262 71.4027 98.1556 71.5474 100.281 72.4735C104.706 74.4053 109.239 76.1055 114.197 78.0879C113.209 75.3314 112.417 73.1247 111.624 70.918C111.927 70.6069 112.229 70.2958 112.532 69.9847C114.456 74.5934 117.173 78.9127 116.985 84.2305C116.906 86.4516 116.719 87.3198 114.211 86.2056C109.289 84.0279 104.187 82.2553 99.2438 80.1282C97.7521 79.4843 96.5991 79.5205 95.2299 80.2584C90.6324 82.7401 85.6745 84.2088 80.4788 84.4041C77.6684 84.5126 78.3097 86.4299 78.1296 87.8769C76.0326 104.727 64.8197 117.693 48.6346 121.737C39.7061 123.965 30.9866 123.09 22.7499 118.988C20.5736 117.902 18.9018 117.895 16.7399 118.85C12.1423 120.883 7.35742 122.475 2.76707 124.522C0.252101 125.644 0.136802 124.768 0.0142967 122.547C-0.288364 116.933 2.93281 112.476 4.67671 107.564C5.59911 104.966 5.50543 103.049 4.43891 100.509C-3.90588 80.5551 -0.38925 52.5916 23.557 41.7897C27.5276 39.9954 31.6712 38.8016 36.0021 38.5411C37.9694 38.4254 39.1945 37.9117 39.0287 34.4244C40.8086 38.5267 42.6534 40.0532 45.5936 37.5065C45.8962 37.5065 46.1917 37.4993 46.4943 37.492C46.4871 39.1633 47.8059 39.2502 48.93 39.5179C52.7782 40.4295 56.2587 42.1731 59.7321 44.0108C62.3552 45.4 64.1351 47.9467 66.9528 49.003C67.2338 49.2852 67.522 49.5673 67.8031 49.8495C67.868 50.1968 67.8175 50.6454 68.0193 50.8696C72.7033 55.9848 75.8596 61.9031 77.3441 68.6968C77.5819 69.7893 78.1728 70.3536 79.2826 70.3826C79.2826 70.7371 79.2826 71.0844 79.2826 71.4389L79.2898 71.4317ZM59.4943 53.2066C59.6961 53.3874 59.8907 53.5683 60.0925 53.7564C61.0869 54.7549 62.0814 55.7605 63.0758 56.759C63.256 56.9543 63.4361 57.1497 63.6163 57.345C67.8103 62.7568 70.1235 68.9717 71.4711 76.1923C69.1579 70.4405 73.46 71.4968 76.4505 70.6865C70.736 71.5908 70.2532 67.4596 68.8696 64.0809C67.7887 61.4401 66.4339 58.8861 64.2216 56.9471C63.9982 56.6939 63.7676 56.4406 63.5442 56.1874C63.3064 54.5016 62.5137 53.373 60.6689 53.2862L59.9195 52.5916C59.1124 51.3689 57.8441 50.7611 56.6407 50.0593C55.1922 49.249 53.8303 48.0697 52.2737 47.7007C48.5481 46.818 46.1412 45.0237 46.1556 40.878C46.1556 40.7985 45.7737 40.7189 45.2044 40.5091C46.4871 44.3943 45.3413 46.326 40.8735 45.6242C46.516 46.3477 51.3946 48.3084 56.1579 50.5947C57.2676 51.4702 58.3774 52.3456 59.4871 53.221L59.4943 53.2066ZM53.1024 58.7197C51.3585 55.8112 49.6074 52.9099 47.8635 50.0014C48.2959 53.6913 50.0974 56.6432 52.5548 59.2551C54.1617 60.8251 53.8231 62.5615 52.8358 64.5873C54.5148 61.5848 56.0786 63.4442 57.6279 64.2979C59.8474 66.7361 62.7299 67.9082 65.9079 68.5449C63.3064 66.9532 60.7122 65.3687 58.1107 63.777C56.5758 62.5326 55.5742 61.2158 57.7072 59.3564C55.8552 60.4778 54.2698 60.7744 53.1096 58.7124L53.1024 58.7197ZM71.2837 83.7602C70.8513 83.7457 70.419 83.7385 69.9866 83.724C70.0226 83.1307 69.9289 82.4868 70.1163 81.9442C71.2188 78.7752 70.1956 77.3138 66.8519 76.5758C61.5481 75.4037 56.9289 72.6255 52.7133 69.1888C51.8846 68.5159 51.2865 67.0689 49.766 67.901C49.4993 67.6405 49.2399 67.38 48.9733 67.1196C49.8524 65.4193 48.2094 64.7537 47.4888 63.8566C44.6856 60.3548 42.4949 56.5492 41.032 52.2877C38.7116 45.5302 38.6684 45.5447 31.3685 47.3896C31.0226 47.4764 30.6551 47.4692 30.302 47.5054C30.302 47.0857 30.302 46.6661 30.302 46.2392C32.399 45.2118 34.7122 44.9369 36.9461 44.9007C39.3386 44.8646 38.8702 43.5478 38.8702 42.0791C38.8702 40.0894 38.0487 39.7928 36.2039 39.9737C8.06363 42.8026 -7.07661 73.6745 8.07084 97.6443C9.13015 99.3228 9.10133 100.567 8.41674 102.217C6.55753 106.717 4.80643 111.261 2.76707 116.405C7.78979 114.408 12.236 112.78 16.5597 110.877C18.8009 109.886 20.5376 109.857 22.8868 111.007C46.5808 122.583 74.2382 107.158 76.5947 81.1918C76.7244 79.723 77.4738 78.1458 74.7571 77.9649C72.516 77.813 71.7377 78.3556 71.8242 80.5695C71.8674 81.6259 71.4783 82.6966 71.2909 83.7602H71.2837Z" fill="#0F0F0F"/>
        <path d="M112.539 69.9774C112.237 70.2886 111.934 70.5997 111.631 70.9108C111.48 70.7299 111.285 70.5779 111.17 70.3754C107.985 64.9129 108.67 60.1522 111.466 54.205C118.074 40.1256 115.861 26.3139 105.665 14.5425C95.6624 2.99533 82.5904 -0.998425 67.9329 2.98085C53.3115 6.94566 44.3038 16.9517 40.9385 31.9283C40.6502 33.2234 40.8808 34.75 39.7999 35.9944C38.4595 35.0973 38.964 33.9396 39.0937 33.0136C41.6303 14.3182 58.9828 -0.30386 78.2018 1.26711e-05C97.5288 0.31112 114.326 15.3383 116.15 34.2435C117.151 44.6258 117.159 54.9864 111.61 64.4137C110.305 66.6348 112.633 68.0529 112.539 69.963V69.9774Z" fill="#232323"/>
        <path d="M46.4944 37.4848C46.1917 37.4848 45.8963 37.4921 45.5936 37.4993C44.7001 24.2953 56.1579 10.3027 70.4262 7.1772C87.9229 3.34262 105.376 14.3616 109.412 31.7981C113.404 49.0392 102.645 66.4974 85.3359 70.8818C83.3397 71.3883 81.3508 71.75 79.2899 71.4245C79.2899 71.0699 79.2899 70.7227 79.2899 70.3681C79.8736 70.2451 80.4428 70.0932 81.0338 70.0136C93.8536 68.2338 102.746 61.2447 106.868 49.032C111.062 36.6239 108.187 25.3444 98.6385 16.4236C89.1047 7.51001 77.7765 5.49143 65.6773 10.4981C53.8159 15.4107 47.9284 24.9248 46.4944 37.4776V37.4848Z" fill="#232323"/>
        <path d="M46.4944 37.4848C47.9284 24.932 53.8159 15.4179 65.6773 10.5053C77.7765 5.49863 89.1047 7.51721 98.6385 16.4308C108.187 25.3516 111.055 36.6311 106.868 49.0392C102.739 61.2519 93.8464 68.241 81.0337 70.0208C80.45 70.1004 79.8735 70.2596 79.2898 70.3753C78.1801 70.3464 77.5892 69.7893 77.3514 68.6896C75.8669 61.8959 72.7106 55.9776 68.0265 50.8624C67.8248 50.6454 67.8752 50.1895 67.8104 49.8423C68.7688 48.9451 69.7488 48.0697 70.6784 47.1436C75.6075 42.2165 79.7294 42.231 84.5216 47.1436C85.6457 48.294 87.123 49.249 84.5648 50.4862C83.4622 51.0216 84.2117 51.6293 84.8747 51.9694C86.9789 53.0546 88.2111 54.9792 89.6163 57.2654C90.9855 54.4365 92.9816 52.6712 95.8065 50.9999C92.7222 49.7482 91.1008 47.7224 89.6163 45.1322C88.1679 48.6051 86.6402 47.4475 85.0548 45.494C84.4495 44.7488 83.7289 44.1049 83.0227 43.4537C82.266 42.7592 81.7616 42.0574 82.2156 40.9431C82.6768 39.8145 83.5847 39.8868 84.5576 39.7421C89.1191 39.0548 92.47 40.7189 94.6247 45.6315C95.9074 42.2527 97.9323 40.6176 100.512 39.2067C98.026 37.6295 95.965 35.9076 94.5021 32.7169C94.0914 33.5417 93.9689 33.889 93.7671 34.1856C91.0936 38.1504 88.2183 39.2646 83.6712 38.2879C82.475 38.0274 81.7688 37.2388 82.1147 36.3344C83.0443 33.9179 85.1701 32.3624 87.0942 30.843C88.5354 29.6999 88.3841 32.8616 90.0487 32.4203C91.0504 30.0327 93.2843 28.6291 95.511 26.842C92.7294 25.6265 91.1152 23.6007 89.5803 20.9238C88.1102 23.7454 86.179 25.4818 83.7433 27.1531C86.5537 28.3976 86.3735 29.7361 84.3198 31.2844C83.4694 31.921 82.8209 32.8399 82.0714 33.614C81.3868 34.3158 80.7023 34.9236 79.5637 34.4967C78.3675 34.0481 78.4972 33.0569 78.3963 32.1164C77.9279 27.7175 78.807 23.9625 84.0604 22.1103C80.6806 20.7284 79.2034 18.3987 77.2721 15.9895C76.2344 18.992 74.1446 20.5331 71.2982 22.1971C76.4218 24.194 77.5099 27.826 76.9262 32.3117C76.8109 33.1944 76.7677 33.9686 75.8741 34.4027C74.8292 34.9091 74.0653 34.504 73.3447 33.7153C72.6169 32.9195 71.8891 32.0947 71.0315 31.4508C68.8192 29.7939 68.6679 28.3542 71.7594 27.0446C68.8913 25.6844 67.1978 23.5863 65.4611 20.9382C64.2145 23.9046 62.2327 25.5614 59.3719 27.2327C62.5426 28.2818 63.955 30.6621 65.5044 32.6663C66.7871 32.1815 66.8087 29.9242 67.9401 30.7634C69.929 32.2249 72.9051 34.2797 72.9051 36.0957C72.9123 39.214 74.3104 43.3452 70.1596 45.617C68.8697 46.326 68.0121 47.8237 66.96 48.9668C64.1424 47.9105 62.3625 45.3638 59.7394 43.9746C56.266 42.1369 52.7854 40.3861 48.9373 39.4817C47.8131 39.214 46.4944 39.1199 46.5016 37.4559L46.4944 37.4848Z" fill="#FDFDFD"/>
        <path d="M30.3166 47.4981C30.6697 47.462 31.0372 47.4692 31.3831 47.3824C38.6758 45.5374 38.7262 45.5157 41.0466 52.2805C42.5095 56.542 44.7001 60.3404 47.5034 63.8494C48.224 64.7465 49.8598 65.4121 48.9879 67.1124C45.5793 69.3625 43.6985 74.0218 38.1065 72.8063C35.4546 72.2275 31.7938 69.6374 32.3559 66.7144C32.8531 64.1315 31.9956 62.1708 29.7184 60.977C27.7223 59.9352 25.6686 60.1667 24.076 61.7657C22.5483 63.2995 21.8925 65.224 22.9734 67.3728C24.1336 69.688 25.9784 70.9108 28.5438 70.1656C32.2334 69.102 33.0837 72.4663 34.9574 74.1593C35.5627 74.7092 34.9357 75.8017 34.3232 76.3298C33.1198 77.3572 27.8664 76.4239 26.9585 75.0492C25.5533 72.9076 23.7373 71.9164 21.1647 72.6472C18.7578 73.3345 17.5472 75.0492 17.5327 77.4223C17.5183 79.6362 18.6497 81.4233 20.8188 82.1251C23.3986 82.9644 25.4812 82.1323 26.9729 79.7665C27.8592 78.3556 33.1558 77.3427 34.2584 78.428C34.8349 78.9996 35.8293 80.0631 34.8132 80.9096C32.8171 82.5664 31.8803 85.8511 27.9457 84.5778C25.2218 83.6951 22.5122 86.4951 22.469 89.3601C22.4258 92.218 25.0344 94.7285 27.8088 94.5043C30.6841 94.2727 33.2567 91.4728 32.3559 88.7452C31.0228 84.7297 34.6331 83.999 36.1896 81.9515C36.7877 81.1628 37.8254 82.0672 38.3587 82.5881C39.5333 83.7385 38.7406 89.0056 37.2417 89.9245C34.8493 91.3932 33.9701 93.4914 34.806 96.067C35.4906 98.158 37.148 99.4313 39.454 99.3879C41.8537 99.3445 43.5544 98.1941 44.2318 95.7921C44.9596 93.2237 43.9363 91.3932 41.8105 89.9824C40.5061 89.1214 39.591 83.6734 40.607 82.5809C41.0394 82.1179 41.8897 81.7561 42.5095 81.814C44.03 81.9515 47.0278 86.5168 46.6674 88.123C46.0837 90.7348 47.035 92.587 49.2401 93.8603C51.4452 95.1265 53.4845 94.526 55.1131 92.833C56.6769 91.2123 56.9003 89.1648 55.8554 87.1607C54.6519 84.8382 52.663 84.0713 50.112 84.5778C48.1591 84.9685 43.7057 81.9659 43.9363 80.1427C44.3759 76.6047 43.4391 72.4591 47.6547 70.2451C48.5339 69.7821 49.0815 68.6896 49.7877 67.8865C51.3082 67.0545 51.9064 68.5015 52.7351 69.1743C56.9579 72.611 61.5699 75.3893 66.8737 76.5613C70.2245 77.2993 71.2406 78.768 70.1381 81.9297C69.9507 82.4724 70.0444 83.1163 70.0084 83.7096C69.7489 84.5054 69.4679 85.294 69.2373 86.0971C64.6686 102.26 48.0078 111.695 31.4191 107.498C15.6447 103.505 5.58485 86.7555 9.30326 70.6141C11.984 58.9585 19.428 51.6293 30.331 47.4837L30.3166 47.4981Z" fill="#FDFDFD"/>
        <path d="M66.9529 49.003C68.005 47.8671 68.8625 46.3622 70.1524 45.6532C74.296 43.3814 72.9052 39.2502 72.898 36.1318C72.898 34.3158 69.9218 32.2611 67.9329 30.7996C66.7943 29.9676 66.7727 32.2177 65.4972 32.7024C63.9479 30.7056 62.5427 28.318 59.3647 27.2689C62.2184 25.5904 64.2001 23.9335 65.454 20.9744C67.1907 23.6224 68.8841 25.7134 71.7522 27.0808C68.6608 28.3903 68.8121 29.8301 71.0244 31.4869C71.8819 32.1309 72.6098 32.9557 73.3376 33.7515C74.0582 34.5401 74.8221 34.9453 75.867 34.4388C76.7605 34.0047 76.8038 33.2306 76.9191 32.3479C77.51 27.8549 76.4146 24.2302 71.291 22.2333C74.1303 20.5765 76.2201 19.0282 77.265 16.0256C79.1962 18.4277 80.6735 20.7574 84.0532 22.1465C78.7999 24.0059 77.9207 27.7537 78.3891 32.1526C78.49 33.0931 78.3603 34.0843 79.5565 34.5329C80.6951 34.9598 81.3797 34.352 82.0643 33.6502C82.821 32.8761 83.4623 31.9645 84.3126 31.3205C86.3664 29.7722 86.5466 28.4338 83.7361 27.1893C86.1718 25.518 88.0959 23.7816 89.5732 20.9599C91.1081 23.6297 92.7223 25.6555 95.5039 26.8782C93.2772 28.6653 91.0432 30.0689 90.0416 32.4564C88.3769 32.8978 88.5283 29.7361 87.087 30.8792C85.163 32.4058 83.0371 33.9613 82.1075 36.3706C81.7616 37.275 82.4606 38.0636 83.6641 38.3241C88.2112 39.3008 91.0937 38.1866 93.76 34.2218C93.9618 33.9252 94.0843 33.5779 94.495 32.7531C95.9579 35.9365 98.0189 37.6657 100.505 39.2429C97.9252 40.6538 95.9002 42.2889 94.6175 45.6676C92.4629 40.755 89.112 39.091 84.5504 39.7783C83.5704 39.923 82.6696 39.8507 82.2084 40.9793C81.7472 42.0935 82.2589 42.7953 83.0155 43.4899C83.7217 44.141 84.4424 44.7922 85.0477 45.5302C86.6402 47.4836 88.168 48.6413 89.6092 45.1684C91.1009 47.7586 92.7223 49.7844 95.7993 51.0361C92.9673 52.7074 90.9712 54.4655 89.6092 57.3016C88.1968 55.0153 86.9717 53.0908 84.8675 52.0055C84.2118 51.6655 83.4551 51.0505 84.5577 50.5224C87.1231 49.2852 85.6386 48.3301 84.5144 47.1798C79.7223 42.2599 75.5931 42.2455 70.6713 47.1798C69.7417 48.1059 68.7616 48.9813 67.8032 49.8784C67.5222 49.5963 67.2339 49.3141 66.9529 49.0319V49.003ZM80.9618 39.4889C80.8969 37.2316 79.852 35.8497 77.7694 35.7339C75.6868 35.6182 74.3825 36.8336 74.2384 38.939C74.0942 41.0879 75.3193 42.354 77.3875 42.5059C79.5133 42.6579 80.6375 41.37 80.9618 39.4889ZM68.3653 27.1097C67.4501 26.133 66.7295 24.5124 65.5621 24.6571C64.6037 24.7801 63.8182 26.2632 62.9534 27.1459C63.7894 27.9635 64.5532 29.3309 65.4756 29.4611C66.7511 29.6348 67.3853 28.0069 68.3581 27.1097H68.3653ZM89.5948 48.3808C89.4291 49.9508 85.3215 49.9074 88.1175 52.6278C89.3065 53.7854 89.7966 53.865 91.0432 52.6278C93.7095 49.9797 90.0055 49.864 89.5948 48.388V48.3808ZM97.4135 39.1561C96.2245 38.23 95.648 36.5442 94.3653 36.7613C93.4429 36.9205 92.0161 38.3458 92.0809 39.0982C92.1674 40.1473 93.4285 41.6667 94.5455 41.5654C95.5255 41.4786 96.3902 40.075 97.4135 39.1489V39.1561ZM80.3348 22.2116C79.3692 21.1481 78.699 19.5419 77.4884 19.6576C76.602 19.7445 75.2184 21.2059 75.1968 22.0886C75.1608 23.2245 76.5804 24.5775 77.7045 24.5268C78.5981 24.4906 79.4268 23.0653 80.3348 22.2116ZM89.7101 29.8663C89.6741 28.2384 93.8753 28.3614 91.0144 25.5976C89.5516 24.1795 88.9967 24.7439 87.9806 25.8364C85.5809 28.4265 89.3282 28.318 89.7101 29.8663Z" fill="#232323"/>
        <path d="M49.7732 67.8937C49.0742 68.6968 48.5193 69.7893 47.6402 70.2524C43.4245 72.4663 44.3613 76.612 43.9218 80.1499C43.6912 81.9732 48.1446 84.9757 50.0975 84.585C52.6413 84.0713 54.6374 84.8455 55.8408 87.1679C56.8785 89.172 56.6623 91.2196 55.0986 92.8402C53.4628 94.526 51.4306 95.1337 49.2255 93.8676C47.0204 92.5942 46.0692 90.742 46.6529 88.1302C47.0132 86.524 44.0154 81.9587 42.4949 81.8212C41.8752 81.7633 41.0249 82.1251 40.5925 82.5881C39.5692 83.6806 40.4916 89.1286 41.7959 89.9896C43.9218 91.4004 44.945 93.2309 44.2172 95.7994C43.5398 98.2014 41.832 99.3518 39.4395 99.3952C37.1335 99.4386 35.4689 98.1724 34.7915 96.0743C33.9556 93.4986 34.8419 91.4077 37.2272 89.9317C38.7261 89.0056 39.5188 83.7458 38.3441 82.5954C37.8109 82.0745 36.7732 81.1701 36.1751 81.9587C34.6257 84.0062 31.0082 84.737 32.3414 88.7524C33.2422 91.48 30.6767 94.2728 27.7943 94.5115C25.0199 94.7358 22.4112 92.218 22.4545 89.3674C22.4977 86.4951 25.2072 83.7023 27.9312 84.585C31.8658 85.8584 32.8026 82.5737 34.7987 80.9168C35.822 80.0703 34.8275 79.0068 34.2438 78.4352C33.1413 77.3427 27.8447 78.3629 26.9583 79.7737C25.4739 82.1396 23.3913 82.9716 20.8042 82.1323C18.6352 81.4305 17.5038 79.6435 17.5182 77.4295C17.5326 75.0564 18.7433 73.3417 21.1501 72.6544C23.7227 71.9237 25.5387 72.9149 26.9439 75.0564C27.8519 76.4311 33.098 77.3644 34.3087 76.3371C34.9212 75.8161 35.5481 74.7164 34.9428 74.1665C33.0692 72.4735 32.2189 69.1092 28.5293 70.1728C25.9639 70.9108 24.1263 69.6953 22.9589 67.3801C21.878 65.2312 22.5337 63.3067 24.0614 61.7729C25.6468 60.1739 27.7078 59.9424 29.7039 60.9843C31.9811 62.1781 32.8386 64.1388 32.3414 66.7217C31.7793 69.6446 35.4473 72.242 38.0919 72.8136C43.6912 74.0291 45.572 69.3697 48.9733 67.1196C49.2399 67.3801 49.4994 67.6405 49.766 67.901L49.7732 67.8937ZM54.8536 88.7524C54.4716 87.3054 53.4484 85.9018 51.3009 86.032C49.1895 86.155 47.9644 87.5803 48.0725 89.6206C48.1806 91.632 49.5138 93.0066 51.6252 92.8764C53.6862 92.7534 54.8392 91.4366 54.8608 88.7452L54.8536 88.7524ZM27.3835 68.8198C29.5382 68.6317 30.8785 67.4886 30.8857 65.4121C30.8929 63.3791 29.7327 62.0478 27.5348 62.0117C25.3009 61.9755 24.1335 63.3935 24.0831 65.347C24.0254 67.3656 25.3441 68.61 27.3907 68.8126L27.3835 68.8198ZM27.5492 85.9597C25.4739 86.2129 24.1047 87.3054 24.0831 89.3963C24.0542 91.5017 25.445 92.8402 27.4556 92.8692C29.4805 92.8981 30.8425 91.5451 30.8857 89.4687C30.929 87.3633 29.5814 86.2563 27.5565 85.9524L27.5492 85.9597ZM36.031 94.1136C36.103 96.3854 37.2056 97.7166 39.2882 97.8396C41.3996 97.9554 42.7111 96.588 42.8336 94.5983C42.9561 92.5653 41.7599 91.1689 39.6269 91.0459C37.4506 90.9157 36.3985 92.2397 36.031 94.1208V94.1136ZM25.9567 77.3934C25.7189 75.165 24.4362 73.9857 22.4184 74.0074C20.307 74.0291 19.0387 75.5484 19.1324 77.5236C19.2189 79.4481 20.4367 80.9241 22.6418 80.8011C24.746 80.6853 25.7837 79.3685 25.9567 77.3934ZM39.2233 73.8844C37.4362 74.4559 35.9229 75.4399 36.0886 77.596C36.2471 79.6579 37.5875 80.8807 39.6701 80.8011C41.8103 80.7215 42.9129 79.26 42.8336 77.2342C42.7543 75.136 41.2771 74.1448 39.2305 73.8771L39.2233 73.8844Z" fill="#232323"/>
        <path d="M71.2911 83.7529C68.2573 100.263 53.6431 111.109 36.0672 109.9C20.9269 108.859 7.80442 95.1047 7.04777 79.477C6.28391 63.8059 16.0988 49.7844 30.3166 46.2392C30.3166 46.6588 30.3166 47.0785 30.3166 47.5053C19.4136 51.6438 11.9696 58.9729 9.2889 70.6358C5.57049 86.7772 15.6376 103.526 31.4047 107.52C47.9934 111.716 64.6542 102.289 69.2229 86.1188C69.4535 85.3157 69.7346 84.5271 69.994 83.7312C70.4264 83.7457 70.8587 83.7529 71.2911 83.7674V83.7529Z" fill="#232323"/>
        <path d="M64.2289 56.9399C66.4412 58.8789 67.7887 61.4328 68.8769 64.0736C70.2605 67.4524 70.7433 71.5836 76.4578 70.6792C73.4672 71.4896 69.1579 70.4333 71.4783 76.1851C70.1379 68.9718 67.8248 62.7496 63.6235 57.3378C63.8253 57.2076 64.0271 57.0701 64.2289 56.9399Z" fill="#FDFDFD"/>
        <path d="M56.1652 50.573C51.3947 48.2868 46.5233 46.3261 40.8809 45.6025C45.3487 46.3116 46.4945 44.3726 45.2118 40.4874C45.7811 40.7044 46.163 40.784 46.163 40.8564C46.1414 45.002 48.5483 46.7963 52.2811 47.679C53.8376 48.048 55.1996 49.2273 56.648 50.0376C56.4823 50.2113 56.3238 50.3849 56.1724 50.5586L56.1652 50.573Z" fill="#FDFDFD"/>
        <path d="M53.1098 58.7197C54.27 60.7889 55.8482 60.485 57.7074 59.3636C55.5743 61.223 56.576 62.5398 58.1109 63.7842C57.9452 63.9506 57.7866 64.1242 57.6281 64.3051C56.0788 63.4441 54.515 61.5847 52.836 64.5945C53.8232 62.5687 54.1619 60.8323 52.5549 59.2623C52.7423 59.0814 52.9224 58.9005 53.1098 58.7269V58.7197Z" fill="#FDFDFD"/>
        <path d="M52.5548 59.2551C50.1047 56.6432 48.2959 53.6913 47.8635 50.0015C49.6074 52.91 51.3585 55.8112 53.1024 58.7197C52.9151 58.9006 52.7349 59.0815 52.5476 59.2551H52.5548Z" fill="#FDFDFD"/>
        <path d="M58.1107 63.777C60.7122 65.3687 63.3064 66.9532 65.9079 68.5449C62.7227 67.9082 59.8402 66.7361 57.6279 64.2979C57.7865 64.117 57.945 63.9434 58.1107 63.777Z" fill="#FDFDFD"/>
        <path d="M60.6763 53.2789C62.5211 53.3658 63.3138 54.4944 63.5516 56.1802C63.3931 56.3683 63.2418 56.5636 63.0832 56.7518L60.0999 53.7492C60.2944 53.59 60.4818 53.4309 60.6763 53.2789Z" fill="#FDFDFD"/>
        <path d="M59.5016 53.1993C58.3919 52.3239 57.2821 51.4484 56.1724 50.573C56.3309 50.3921 56.4894 50.2185 56.648 50.0521C57.8514 50.7539 59.1197 51.3616 59.9268 52.5843C59.7827 52.7869 59.6458 52.9967 59.5016 53.1993Z" fill="#FDFDFD"/>
        <path d="M63.6237 57.345C63.4436 57.1497 63.2634 56.9543 63.0833 56.759C63.2418 56.5709 63.3931 56.3756 63.5517 56.1874C63.775 56.4407 64.0056 56.6939 64.229 56.9471C64.0273 57.0773 63.8255 57.2148 63.6237 57.345Z" fill="#FDFDFD"/>
        <path d="M60.0998 53.7492C59.8981 53.5683 59.7035 53.3874 59.5017 53.1993C59.6458 52.9967 59.7828 52.7869 59.9269 52.5844L60.6763 53.2789C60.4818 53.4381 60.2944 53.5973 60.0998 53.7492Z" fill="#FDFDFD"/>
        <path d="M80.969 39.4817C80.6375 41.3628 79.5205 42.6506 77.3947 42.4987C75.3265 42.3467 74.1015 41.0879 74.2456 38.9318C74.3897 36.8264 75.694 35.6037 77.7766 35.7267C79.8664 35.8424 80.9041 37.2243 80.969 39.4817Z" fill="#FDFDFD"/>
        <path d="M68.3724 27.1097C67.3996 28.0069 66.7582 29.6348 65.4899 29.4611C64.5603 29.3381 63.8037 27.9635 62.9678 27.1459C63.8325 26.2632 64.618 24.7801 65.5764 24.6571C66.7438 24.5051 67.4644 26.1258 68.3796 27.1097H68.3724Z" fill="#FDFDFD"/>
        <path d="M89.5947 48.3808C90.0054 49.864 93.7094 49.9725 91.0431 52.6205C89.7964 53.8577 89.3064 53.7854 88.1174 52.6205C85.3214 49.8929 89.4289 49.9435 89.5947 48.3735V48.3808Z" fill="#FDFDFD"/>
        <path d="M97.4207 39.1561C96.3974 40.075 95.5326 41.4858 94.5526 41.5726C93.4356 41.6667 92.1745 40.1473 92.0881 39.1055C92.0232 38.353 93.4501 36.9277 94.3724 36.7685C95.6552 36.5515 96.2244 38.2373 97.4207 39.1633V39.1561Z" fill="#FDFDFD"/>
        <path d="M80.3347 22.2116C79.4268 23.0654 78.5981 24.4834 77.7045 24.5269C76.5803 24.5775 75.1607 23.2245 75.1967 22.0886C75.2255 21.206 76.6019 19.7445 77.4883 19.6577C78.6989 19.5419 79.3691 21.1481 80.3347 22.2116Z" fill="#FDFDFD"/>
        <path d="M89.7172 29.8591C89.3353 28.3108 85.5881 28.4193 87.9877 25.8292C89.0038 24.7367 89.5587 24.1723 91.0216 25.5904C93.8824 28.3542 89.6812 28.2312 89.7172 29.8591Z" fill="#FDFDFD"/>
        <path d="M54.8537 88.7524C54.8249 91.4438 53.6791 92.7606 51.6181 92.8836C49.5067 93.0138 48.1735 91.6391 48.0654 89.6278C47.9573 87.5875 49.1824 86.1622 51.2938 86.0392C53.4413 85.909 54.4718 87.3053 54.8465 88.7596L54.8537 88.7524Z" fill="#FDFDFD"/>
        <path d="M27.3835 68.8198C25.337 68.6172 24.0254 67.3728 24.0759 65.3542C24.1263 63.3935 25.3009 61.9827 27.5276 62.0189C29.7255 62.055 30.8857 63.3863 30.8785 65.4193C30.8713 67.4958 29.531 68.6389 27.3763 68.8271L27.3835 68.8198Z" fill="#FDFDFD"/>
        <path d="M27.5567 85.9669C29.5744 86.2636 30.922 87.3778 30.8859 89.4832C30.8427 91.5596 29.4807 92.9198 27.4558 92.8836C25.4452 92.8547 24.0616 91.5162 24.0833 89.4108C24.1121 87.3126 25.4813 86.2274 27.5494 85.9742L27.5567 85.9669Z" fill="#FDFDFD"/>
        <path d="M36.0383 94.1208C36.4058 92.2469 37.4652 90.9157 39.6342 91.0459C41.7673 91.1761 42.9635 92.5725 42.841 94.5983C42.7185 96.5879 41.407 97.9554 39.2955 97.8396C37.2057 97.7238 36.1104 96.3854 36.0383 94.1136V94.1208Z" fill="#FDFDFD"/>
        <path d="M25.964 77.4006C25.791 79.3757 24.7533 80.6853 22.6491 80.8083C20.444 80.9313 19.2262 79.4553 19.1397 77.5308C19.0532 75.5556 20.3143 74.0435 22.4257 74.0146C24.4434 73.9929 25.7262 75.1722 25.964 77.4006Z" fill="#FDFDFD"/>
        <path d="M39.2234 73.8916C41.27 74.1593 42.7473 75.1505 42.8265 77.2487C42.9058 79.2745 41.8033 80.7287 39.663 80.8155C37.5804 80.8951 36.2401 79.6724 36.0815 77.6104C35.9158 75.4544 37.4291 74.4704 39.2162 73.8988L39.2234 73.8916Z" fill="#FDFDFD"/>
    </g>
    <defs>
        <clipPath id="clip0_47_3760">
            <rect width="117" height="125" fill="white"/>
        </clipPath>
    </defs>
</svg>
