<svg width="109" height="108" viewBox="0 0 109 108" fill="none" xmlns="http://www.w3.org/2000/svg">
    <path d="M23.4201 0.300159C29.1701 0.300159 34.9101 0.290159 40.6601 0.300159C43.6501 0.300159 45.8001 2.27016 45.9001 5.27016C46.0201 8.70016 45.9401 12.1502 45.9401 15.5802C45.9401 17.5702 45.9401 17.5702 47.8501 17.5702C51.3401 17.5702 54.8201 17.5302 58.3101 17.6002C59.4701 17.6202 59.7701 17.2102 59.7501 16.1202C59.6801 13.4802 59.7701 10.8402 59.6901 8.21016C59.6201 6.06016 60.6001 4.65016 62.4201 3.67016C64.8601 2.34016 67.5101 1.75016 70.2201 1.33016C80.2701 -0.209841 90.3001 -0.189841 100.29 1.76016C102.64 2.22016 104.93 2.96016 106.87 4.47016C107.86 5.24016 108.4 6.21016 108.4 7.49016C108.4 17.4302 108.35 27.3702 108.45 37.3002C108.47 39.7202 107.47 41.1902 105.41 42.2102C101.66 44.0702 97.5901 44.5302 93.5301 44.9802C91.3801 45.2102 89.2101 45.3102 87.0501 45.4002C86.1501 45.4402 85.7901 45.7602 85.8501 46.6802C85.9201 47.6702 85.9301 48.6602 85.8901 49.6502C85.8301 51.3102 85.8901 52.6302 87.6201 53.8302C90.3001 55.6602 89.8801 59.9502 87.0901 61.7702C86.1701 62.3702 85.8501 63.0402 85.8701 64.0602C85.9001 65.4202 85.9201 66.7902 85.8501 68.1602C85.7901 69.2402 86.1001 69.6402 87.2701 69.6202C91.6501 69.5502 96.0301 69.5902 100.41 69.5902C104.67 69.5902 106.67 71.5602 106.68 75.7802C106.68 84.4502 106.68 93.1202 106.68 101.78C106.68 105.88 104.73 107.91 100.65 107.92C89.5801 107.95 78.5101 107.95 67.4401 107.92C63.4701 107.91 61.4801 105.84 61.4401 101.86C61.4201 99.6902 61.3601 97.5202 61.4701 95.3602C61.5301 94.1702 61.0001 93.8702 60.0001 93.9002C59.1601 93.9302 58.3101 94.0202 57.4701 94.0202C48.3301 94.0202 39.1901 94.0402 30.0501 94.0102C28.9801 94.0102 28.2501 94.2302 27.6101 95.2102C26.4001 97.0602 24.5901 97.8602 22.3601 97.3902C20.2001 96.9402 18.5301 95.2902 18.2001 93.2702C17.8301 91.0102 18.5501 89.1902 20.4801 87.8902C21.3801 87.2902 22.0301 84.9002 21.5301 84.0402C21.2201 83.5202 20.6901 83.4902 20.1601 83.5302C15.7401 83.8202 11.3101 83.6302 6.88008 83.6502C2.75008 83.6702 0.740078 81.6102 0.730078 77.4602C0.720078 68.8402 0.720078 60.2202 0.730078 51.6002C0.730078 47.3202 2.76008 45.3102 7.09008 45.2902C11.4201 45.2802 15.7601 45.2902 20.0901 45.3502C21.2401 45.3702 21.7001 45.0702 21.6001 43.8602C21.5001 42.6002 21.5101 41.3102 21.6001 40.0502C21.6801 38.8802 21.2801 38.4802 20.0901 38.4902C15.5701 38.5502 11.0401 38.5302 6.52008 38.5002C2.84008 38.4702 0.770078 36.5202 0.750078 32.8402C0.690078 23.8402 0.690078 14.8402 0.750078 5.85016C0.780078 2.27016 2.87008 0.310159 6.47008 0.280159C12.1201 0.240159 17.7801 0.280159 23.4301 0.280159C23.4301 0.280159 23.4301 0.290159 23.4301 0.300159H23.4201ZM62.6001 55.7502C67.0701 55.7502 71.5501 55.7302 76.0201 55.7602C77.7101 55.7702 79.4401 56.0102 80.2201 53.9502C80.2601 53.8302 80.4001 53.7002 80.5201 53.6602C82.4401 52.9502 82.4101 51.3902 82.2901 49.7402C82.2201 48.7602 82.2501 47.7602 82.3101 46.7702C82.3701 45.8102 82.0001 45.4302 81.0201 45.4002C78.8601 45.3202 76.6901 45.2302 74.5401 44.9902C70.5201 44.5502 66.5101 44.0402 62.7901 42.2602C60.6601 41.2402 59.6301 39.6602 59.6801 37.2302C59.7701 32.3302 59.6801 27.4302 59.7601 22.5402C59.7801 21.4402 59.2501 21.0302 58.3801 21.1102C54.7701 21.4502 51.1601 21.2602 47.5501 21.2002C46.3201 21.1802 45.8801 21.5302 45.9101 22.7902C45.9901 25.9902 45.9601 29.1902 45.9501 32.4002C45.9301 36.6302 44.0301 38.5302 39.8201 38.5402C35.3901 38.5502 30.9601 38.5602 26.5401 38.5202C25.5101 38.5102 25.0901 38.8102 25.1601 39.8902C25.2401 41.2002 25.2501 42.5302 25.1601 43.8402C25.0701 45.0102 25.4701 45.4102 26.6601 45.3802C30.1401 45.3002 33.6301 45.3002 37.1101 45.3102C38.6601 45.3102 40.2101 45.1702 41.7601 45.5202C44.1801 46.0602 45.7201 47.7402 45.9001 50.2202C45.9901 51.5302 46.0101 52.8602 45.9401 54.1702C45.8801 55.3402 46.1601 55.8102 47.4801 55.7902C52.5201 55.7102 57.5601 55.7602 62.6001 55.7602V55.7502ZM44.8901 90.4702C49.9301 90.4702 54.9701 90.4502 60.0101 90.5002C61.1201 90.5102 61.4701 90.1902 61.4501 89.0502C61.3901 84.7602 61.5101 80.4702 61.4001 76.1902C61.2901 71.7702 63.6201 69.4802 68.0301 69.5702C72.3601 69.6702 76.7001 69.5702 81.0301 69.6102C82.0101 69.6202 82.3701 69.3502 82.3201 68.3402C82.2401 66.8402 82.2601 65.3202 82.3101 63.8202C82.3401 62.9202 82.1001 62.3002 81.2101 61.9302C80.5001 61.6402 79.9601 61.0502 79.6601 60.3502C79.3201 59.5702 78.7901 59.3902 77.9901 59.3902C67.9801 59.4002 57.9801 59.3802 47.9701 59.3602C46.6167 59.3602 45.9434 60.0202 45.9501 61.3402C45.9501 66.7602 45.9801 72.1802 45.9501 77.5902C45.9301 81.5502 44.1901 83.4802 40.2501 83.6102C36.1601 83.7502 32.0501 83.7102 27.9501 83.6202C24.9101 83.5502 24.8301 83.5602 25.1701 86.5602C25.2301 87.0902 25.4101 87.4302 25.8901 87.6502C26.6301 87.9902 27.3201 88.4802 27.6401 89.2202C28.1001 90.2702 28.8601 90.4702 29.9001 90.4702C34.8901 90.4302 39.8901 90.4502 44.8801 90.4502L44.8901 90.4702ZM84.1101 87.1202C78.2201 87.1202 72.3301 87.1402 66.4401 87.1002C65.3801 87.1002 65.0701 87.4202 65.0901 88.4602C65.1401 92.9302 65.1101 97.4102 65.1101 101.89C65.1101 103.83 65.5801 104.32 67.5201 104.32C78.5401 104.32 89.5701 104.32 100.59 104.32C102.58 104.32 103.04 103.88 103.05 101.94C103.07 97.4602 103.04 92.9902 103.1 88.5102C103.12 87.3702 102.74 87.0802 101.63 87.0902C95.7901 87.1402 89.9501 87.1102 84.1001 87.1102L84.1101 87.1202ZM23.3801 62.8102C17.5401 62.8102 11.7001 62.8402 5.87008 62.7902C4.73008 62.7902 4.29008 63.0802 4.31008 64.2902C4.38008 68.6702 4.34008 73.0502 4.35008 77.4202C4.35008 79.5402 4.83008 80.0302 6.90008 80.0302C17.8701 80.0302 28.8401 80.0302 39.8101 80.0302C41.9101 80.0302 42.3801 79.5602 42.3901 77.4502C42.4101 73.0702 42.3901 68.6902 42.4401 64.3202C42.4501 63.1602 42.0801 62.7702 40.9001 62.7802C35.0601 62.8302 29.2201 62.8002 23.3901 62.8002L23.3801 62.8102ZM23.4201 17.7302C17.5401 17.7302 11.6501 17.7502 5.77008 17.7102C4.69008 17.7102 4.29008 18.0002 4.31008 19.1502C4.38008 23.5302 4.34008 27.9002 4.35008 32.2802C4.35008 34.5002 4.75008 34.9002 6.98008 34.9102C17.9001 34.9102 28.8201 34.9102 39.7501 34.9102C41.9601 34.9102 42.3801 34.4802 42.3901 32.2702C42.4101 28.0302 42.3601 23.8002 42.4501 19.5602C42.4801 18.1602 42.1201 17.6802 40.6501 17.7002C34.9101 17.7802 29.1601 17.7302 23.4201 17.7302ZM23.3801 14.1602C29.2701 14.1602 35.1501 14.1402 41.0401 14.1802C42.0801 14.1802 42.4601 13.8602 42.4301 12.8002C42.3601 10.5902 42.4301 8.37016 42.3801 6.16016C42.3501 4.36016 41.8801 3.90016 40.1001 3.86016C38.5001 3.82016 36.9001 3.86016 35.3001 3.86016C25.8401 3.86016 16.3701 3.86016 6.91008 3.86016C4.78008 3.86016 4.36008 4.32016 4.35008 6.44016C4.35008 8.46016 4.42008 10.4902 4.31008 12.5102C4.23008 13.8602 4.74008 14.2002 6.01008 14.1802C11.8001 14.1302 17.5901 14.1602 23.3801 14.1502V14.1602ZM84.0401 83.4402C89.9201 83.4402 95.8101 83.4102 101.69 83.4602C102.72 83.4602 103.12 83.2102 103.09 82.1402C103.03 79.8802 103.08 77.6202 103.05 75.3602C103.03 73.7302 102.55 73.2602 100.92 73.2602C89.6701 73.2602 78.4201 73.2602 67.1601 73.2602C65.6201 73.2602 65.1201 73.7602 65.1101 75.2802C65.0901 77.5902 65.1601 79.8902 65.0801 82.2002C65.0501 83.2302 65.4301 83.4502 66.3801 83.4502C72.2601 83.4102 78.1501 83.4302 84.0301 83.4302L84.0401 83.4402ZM23.4101 59.2002C23.4101 59.2002 23.4101 59.2602 23.4101 59.2902C29.3801 59.2902 35.3501 59.2902 41.3201 59.2902C42.2201 59.2902 42.4001 58.8002 42.4001 58.0602C42.3901 55.7102 42.4301 53.3602 42.3701 51.0002C42.3301 49.4302 41.7801 48.9502 40.1501 48.9502C28.9501 48.9502 17.7501 48.9502 6.56008 48.9502C4.92008 48.9502 4.37008 49.5102 4.35008 51.1702C4.32008 53.3802 4.40008 55.6002 4.31008 57.8002C4.26008 58.9802 4.72008 59.2102 5.77008 59.2102C11.6501 59.1702 17.5301 59.1902 23.4101 59.1902V59.2002ZM85.0401 41.9102C86.5401 41.9802 89.0401 41.8202 91.5201 41.5502C95.6701 41.1002 99.8501 40.7902 103.76 39.0702C104.53 38.7302 104.84 38.2802 104.84 37.5402C104.84 36.1302 104.77 34.7202 104.77 33.3102C104.77 32.5802 104.57 32.2702 103.78 32.5402C98.7901 34.2702 93.5801 34.6902 88.3601 34.9602C80.8501 35.3502 73.4001 34.8702 66.0701 33.1002C65.2201 32.8902 64.1201 32.1502 63.6001 32.4602C62.9201 32.8602 63.4301 34.0902 63.4201 34.9502C63.3701 39.1102 63.3901 39.1702 67.5101 40.1502C72.9401 41.4402 78.4701 41.8702 85.0401 41.9202V41.9102ZM85.0101 21.0602C87.0101 21.0902 89.9301 20.9802 92.8301 20.6202C96.3201 20.1902 99.8301 19.8602 103.15 18.5202C104.35 18.0302 105.01 17.4102 104.82 16.0202C104.7 15.0902 104.72 14.1302 104.81 13.2002C104.93 11.9602 104.67 11.6102 103.31 11.9402C90.9001 14.9602 78.4501 15.0802 65.9901 12.2402C63.4301 11.6602 63.4301 11.6702 63.4001 14.3402C63.3501 18.2102 63.4001 18.2602 67.1701 19.2402C67.2201 19.2502 67.2601 19.2502 67.3101 19.2602C72.8201 20.6202 78.4401 21.0202 85.0101 21.0502V21.0602ZM63.3301 21.7302C63.3301 23.6802 63.3301 25.4602 63.3301 27.2402C63.3301 27.9302 63.7601 28.3102 64.3601 28.6102C65.6801 29.2602 67.0701 29.6902 68.4901 29.9802C76.4801 31.6102 84.5501 31.8302 92.6501 31.0402C95.9601 30.7202 99.2901 30.3602 102.45 29.1802C104.83 28.2902 104.82 28.2602 104.8 25.7802C104.8 24.8402 104.74 23.8902 104.81 22.9602C104.89 21.9802 104.53 21.8802 103.69 22.1402C94.1201 25.1602 84.3101 24.9402 74.4701 24.2102C70.7101 23.9302 67.0601 23.0902 63.3301 21.7302ZM83.9101 10.7202C88.3801 10.6602 92.8401 10.3302 97.2501 9.60016C99.5101 9.22016 101.79 8.87016 103.86 7.76016C104.53 7.40016 104.64 7.17016 103.89 6.76016C103.01 6.29016 102.08 5.96016 101.13 5.73016C90.9701 3.26016 80.7301 3.37016 70.4701 4.96016C68.3501 5.29016 66.2201 5.72016 64.2801 6.74016C63.6101 7.09016 63.4801 7.36016 64.2501 7.74016C65.1801 8.20016 66.1401 8.57016 67.1501 8.80016C72.6701 10.0902 78.2701 10.6402 83.9201 10.7102L83.9101 10.7202ZM24.9701 92.1102C24.8701 91.1802 24.3001 90.6102 23.3201 90.6202C22.3201 90.6202 21.7801 91.2602 21.7301 92.2402C21.6901 93.1802 22.5401 93.9902 23.4501 93.8802C24.4201 93.7602 24.9501 93.1802 24.9701 92.1102ZM84.0501 55.9302C83.1101 56.0302 82.4801 56.4802 82.4701 57.5202C82.4601 58.5302 82.9901 59.0902 84.0001 59.1402C85.1101 59.2002 85.7001 58.5702 85.7001 57.5302C85.7001 56.5402 85.0601 56.0202 84.0501 55.9302Z" fill="black"/>
    <path d="M84.1001 87.1201C89.9401 87.1201 95.7801 87.1501 101.63 87.1001C102.74 87.1001 103.11 87.3801 103.1 88.5201C103.04 92.9901 103.07 97.4701 103.05 101.95C103.05 103.89 102.58 104.33 100.59 104.33C89.5701 104.33 78.5401 104.33 67.5201 104.33C65.5801 104.33 65.1101 103.83 65.1101 101.9C65.1101 97.4201 65.1401 92.9501 65.0901 88.4701C65.0801 87.4201 65.3801 87.1001 66.4401 87.1101C72.3301 87.1601 78.2201 87.1301 84.1101 87.1301L84.1001 87.1201ZM68.4701 95.6601C68.4701 98.6701 70.7101 100.97 73.6501 100.97C76.5501 100.97 78.9501 98.5801 78.9501 95.6901C78.9501 92.8101 76.5701 90.4901 73.6101 90.4901C70.6901 90.4901 68.4701 92.7201 68.4701 95.6601ZM91.2101 90.4401C91.2101 90.4401 91.2101 90.4701 91.2101 90.4901C88.8201 90.4901 86.4201 90.4701 84.0301 90.4901C82.4301 90.5101 82.3401 90.7501 82.2401 92.6001C82.1601 94.0001 82.9701 94.0601 83.9601 94.0601C88.5201 94.0501 93.0701 94.0401 97.6301 94.0201C97.9601 94.0201 98.2901 94.0001 98.6101 93.9501C100.18 93.7101 99.6801 92.4301 99.7701 91.5001C99.8701 90.5001 99.1801 90.4201 98.4001 90.4301C96.0001 90.4501 93.6101 90.4301 91.2101 90.4301V90.4401ZM87.2901 100.98C88.7001 100.97 90.1201 101.06 91.5201 100.95C93.2901 100.81 92.7101 99.3601 92.8001 98.3301C92.9001 97.2401 92.1201 97.2901 91.3901 97.3001C89.5601 97.3201 87.7201 97.3301 85.8901 97.3501C85.0401 97.3601 84.1801 97.3201 83.3601 97.4501C81.6901 97.7301 82.3901 99.1001 82.2901 100.06C82.1801 101.08 82.9501 100.99 83.6301 100.98C84.8501 100.98 86.0801 100.98 87.3001 100.98H87.2901ZM97.8901 100.98C99.6501 100.98 99.7601 100.88 99.7701 99.2301C99.7701 97.6001 99.5501 97.4201 97.9501 97.3301C96.6601 97.2601 96.0601 97.6401 96.1401 99.0601C96.2401 100.87 96.2401 100.96 97.8901 100.97V100.98Z" fill="#FCFCFC"/>
    <path d="M23.3702 62.8102C29.2102 62.8102 35.0502 62.8402 40.8802 62.7902C42.0702 62.7802 42.4402 63.1702 42.4202 64.3302C42.3702 68.7102 42.4002 73.0902 42.3702 77.4602C42.3602 79.5702 41.8802 80.0402 39.7902 80.0402C28.8202 80.0402 17.8502 80.0402 6.88021 80.0402C4.81021 80.0402 4.34021 79.5502 4.33021 77.4302C4.32021 73.0502 4.36021 68.6702 4.29021 64.3002C4.27021 63.0902 4.70021 62.7902 5.85021 62.8002C11.6902 62.8502 17.5302 62.8202 23.3602 62.8202L23.3702 62.8102ZM23.1002 76.7002V76.6802C27.8102 76.6802 32.5102 76.6802 37.2202 76.6802C37.8002 76.6802 38.4402 76.8302 38.8202 76.1102C39.7502 74.3502 39.0402 73.0402 37.1002 73.0502C28.2102 73.0502 19.3102 73.0702 10.4202 73.0802C10.0002 73.0802 9.57021 73.1002 9.15021 73.1102C7.37021 73.1602 7.77021 74.5002 7.68021 75.5702C7.58021 76.8602 8.47021 76.7102 9.27022 76.7102C13.8802 76.7102 18.4902 76.7102 23.1002 76.7102V76.7002ZM26.5702 69.8002C26.5702 69.8002 26.5702 69.7902 26.5702 69.7802C29.9102 69.7802 33.2502 69.7802 36.5802 69.7802C37.0902 69.7802 37.6302 69.7802 38.1202 69.6402C39.3802 69.2802 39.0702 68.1802 39.0802 67.2902C39.0902 66.5702 38.7602 66.1302 37.8902 66.1402C30.6502 66.1802 23.4102 66.1802 16.1702 66.1702C14.5002 66.1702 14.6702 67.3402 14.5802 68.4102C14.4802 69.5902 15.1202 69.8202 16.1402 69.8102C19.6202 69.7802 23.1002 69.8002 26.5802 69.8002H26.5702ZM7.70021 67.9502C7.70021 69.6702 7.81021 69.7402 9.50021 69.8002C10.7802 69.8502 11.4002 69.4502 11.3402 68.0502C11.2602 66.3202 11.2102 66.1802 9.55021 66.1802C7.73021 66.1802 7.71021 66.2002 7.70021 67.9502Z" fill="#FCFCFC"/>
    <path d="M23.41 17.7401C29.15 17.7401 34.9 17.7901 40.64 17.7101C42.11 17.6901 42.47 18.1701 42.44 19.5701C42.35 23.8001 42.4 28.0401 42.38 32.2801C42.37 34.5001 41.95 34.9201 39.74 34.9201C28.82 34.9201 17.9 34.9201 6.97003 34.9201C4.73003 34.9201 4.34003 34.5201 4.34003 32.2901C4.34003 27.9101 4.37003 23.5301 4.30003 19.1601C4.28003 18.0101 4.68003 17.7101 5.76003 17.7201C11.64 17.7601 17.53 17.7401 23.41 17.7401ZM39.09 26.3501C39.09 24.9901 39.05 23.6201 39.1 22.2601C39.14 21.3301 38.74 21.0101 37.85 21.0201C35.08 21.0501 32.31 21.0501 29.54 21.0201C28.74 21.0201 28.45 21.3401 28.46 22.1101C28.48 24.9301 28.48 27.7501 28.46 30.5601C28.46 31.3201 28.73 31.6701 29.53 31.6601C32.35 31.6301 35.17 31.6401 37.98 31.6601C38.84 31.6601 39.12 31.2601 39.1 30.4401C39.06 29.0801 39.09 27.7201 39.09 26.3501ZM16.2 24.6801C18.59 24.6701 20.99 24.6801 23.38 24.6601C24.9 24.6501 25.27 24.1501 25.24 22.3801C25.22 21.1101 24.41 21.0201 23.43 21.0201C19.02 21.0501 14.6 21.0401 10.19 21.0501C9.72003 21.0501 9.25003 21.0601 8.79003 21.1401C7.11003 21.4301 7.82003 22.7901 7.70003 23.7401C7.58003 24.7501 8.34003 24.6801 9.02003 24.6801C11.41 24.6801 13.81 24.6801 16.2 24.6801ZM13.11 28.0201V28.0501C11.75 28.0501 10.38 28.0501 9.02003 28.0501C8.42003 28.0501 7.91003 28.1901 7.71003 28.8701C7.14003 30.8201 7.74003 31.6601 9.71003 31.6501C10.56 31.6501 11.4 31.6501 12.25 31.6501C13.89 31.6201 15.55 31.7001 17.18 31.5101C18.79 31.3301 18.07 29.9201 18.2 29.0201C18.34 28.0501 17.64 28.0101 16.92 28.0201C15.65 28.0401 14.38 28.0201 13.11 28.0201ZM21.56 29.7901C21.56 31.5301 21.67 31.6501 23.34 31.6501C24.96 31.6501 25.12 31.4301 25.21 29.7901C25.28 28.4701 24.85 27.9201 23.45 28.0101C21.64 28.1201 21.57 28.0901 21.57 29.7901H21.56Z" fill="#FCFCFC"/>
    <path d="M23.3699 14.1603C17.5799 14.1603 11.7899 14.1303 5.99986 14.1903C4.72986 14.2003 4.22986 13.8703 4.29986 12.5203C4.40986 10.5003 4.32986 8.47027 4.33986 6.45027C4.33986 4.33027 4.76986 3.87027 6.89986 3.87027C16.3599 3.86027 25.8299 3.87027 35.2899 3.87027C36.8899 3.87027 38.4899 3.84027 40.0899 3.87027C41.8699 3.91027 42.3399 4.37027 42.3699 6.17027C42.4099 8.38027 42.3499 10.6003 42.4199 12.8103C42.4499 13.8703 42.0699 14.1903 41.0299 14.1903C35.1399 14.1503 29.2599 14.1703 23.3699 14.1703V14.1603ZM23.2699 10.8003C25.0099 10.8003 25.1699 10.6703 25.1899 9.04027C25.2099 7.44027 24.8899 7.12027 23.3599 7.11027C22.1399 7.11027 21.4399 7.44027 21.5399 8.90027C21.6599 10.7503 21.5899 10.7903 23.2799 10.8003H23.2699ZM9.37986 10.8003C11.1299 10.8003 11.2799 10.6703 11.2999 9.06027C11.3199 7.41027 11.0699 7.16027 9.49986 7.12027C8.25986 7.09027 7.56986 7.43027 7.65986 8.88027C7.76986 10.7503 7.70986 10.7903 9.37986 10.8003ZM18.1999 9.05027C18.1999 7.33027 18.0199 7.13027 16.4499 7.13027C14.8899 7.13027 14.6299 7.42027 14.5799 9.02027C14.5399 10.2603 14.8599 10.9303 16.3099 10.8403C18.1199 10.7203 18.1899 10.7603 18.1999 9.06027V9.05027Z" fill="black"/>
    <path d="M84.04 83.4503C78.16 83.4503 72.27 83.4303 66.39 83.4703C65.44 83.4703 65.06 83.2603 65.09 82.2203C65.16 79.9203 65.1 77.6103 65.12 75.3003C65.13 73.7803 65.63 73.2803 67.17 73.2803C78.42 73.2803 89.67 73.2803 100.93 73.2803C102.56 73.2803 103.04 73.7503 103.06 75.3803C103.09 77.6403 103.04 79.9003 103.1 82.1603C103.13 83.2203 102.73 83.4803 101.7 83.4803C95.82 83.4303 89.93 83.4603 84.05 83.4603L84.04 83.4503ZM77.4 76.5903C75.44 76.5903 75.29 76.7303 75.29 78.3503C75.29 80.0003 75.47 80.0903 77.29 80.1703C78.72 80.2403 78.99 79.6003 79 78.3203C79 76.9703 78.6 76.3503 77.4 76.5903ZM82.3 78.0703C82.29 80.0203 82.4 80.0803 84.05 80.1603C85.33 80.2303 85.96 79.8903 85.89 78.4603C85.8 76.6903 85.78 76.6303 84.1 76.5703C82.89 76.5303 81.99 76.7003 82.29 78.0703H82.3ZM68.42 78.2603C68.4 80.0303 68.48 80.1303 69.99 80.1503C71.77 80.1803 71.93 80.0203 71.99 78.4703C72.04 77.3203 71.95 76.4803 70.4 76.5603C68.59 76.6603 68.44 76.6903 68.42 78.2603Z" fill="black"/>
    <path d="M23.4099 59.2103C17.5299 59.2103 11.6499 59.1903 5.76986 59.2303C4.70986 59.2303 4.24986 59.0003 4.30986 57.8203C4.40986 55.6103 4.32986 53.4003 4.34986 51.1903C4.36986 49.5303 4.91986 48.9703 6.55986 48.9703C17.7599 48.9603 28.9599 48.9703 40.1499 48.9703C41.7799 48.9703 42.3299 49.4603 42.3699 51.0203C42.4299 53.3703 42.3899 55.7203 42.3999 58.0803C42.3999 58.8203 42.2199 59.3103 41.3199 59.3103C35.3499 59.2903 29.3799 59.3103 23.4099 59.3103C23.4099 59.2803 23.4099 59.2503 23.4099 59.2203V59.2103ZM7.69986 53.7903C7.69986 55.7903 7.77986 55.8903 9.42986 55.9003C11.1199 55.9203 11.3199 55.7303 11.3199 54.1103C11.3199 52.4303 11.1899 52.3503 9.44986 52.3003C8.21986 52.2603 7.33986 52.4503 7.69986 53.7903ZM23.5299 52.3103C21.5899 52.3103 21.6499 52.3503 21.5299 54.1303C21.4399 55.5103 21.9499 55.9703 23.2799 55.9203C24.9799 55.8603 25.1399 55.7003 25.2099 53.9903C25.2699 52.5903 24.6799 52.0903 23.5299 52.3103ZM18.1599 54.2103C18.4199 52.8603 17.9999 52.2003 16.4899 52.2903C14.6999 52.3903 14.5999 52.4003 14.5999 54.0603C14.5999 55.7303 14.7799 55.8803 16.4199 55.9203C17.6199 55.9503 18.5299 55.7503 18.1699 54.2203L18.1599 54.2103Z" fill="black"/>
    <path d="M85.0399 41.9203C78.4699 41.8703 72.9399 41.4403 67.5099 40.1503C63.3899 39.1703 63.3598 39.1103 63.4198 34.9503C63.4298 34.0903 62.9198 32.8603 63.5998 32.4603C64.1198 32.1603 65.2099 32.9003 66.0699 33.1003C73.3999 34.8703 80.8499 35.3503 88.3599 34.9603C93.5799 34.6903 98.7799 34.2703 103.78 32.5403C104.57 32.2703 104.77 32.5803 104.77 33.3103C104.77 34.7203 104.84 36.1303 104.84 37.5403C104.84 38.2803 104.52 38.7403 103.76 39.0703C99.8499 40.7903 95.6698 41.1003 91.5198 41.5503C89.0398 41.8203 86.5499 41.9903 85.0399 41.9103V41.9203Z" fill="#FCFCFC"/>
    <path d="M85.0103 21.07C78.4403 21.04 72.8203 20.64 67.3103 19.28C67.2603 19.27 67.2203 19.27 67.1703 19.26C63.4003 18.28 63.3603 18.23 63.4003 14.36C63.4303 11.68 63.4303 11.67 65.9903 12.26C78.4503 15.1 90.9003 14.98 103.31 11.96C104.66 11.63 104.93 11.98 104.81 13.22C104.72 14.15 104.7 15.11 104.82 16.04C105 17.43 104.35 18.05 103.15 18.54C99.8303 19.88 96.3203 20.21 92.8303 20.64C89.9303 21 87.0103 21.1 85.0103 21.08V21.07Z" fill="#FCFCFC"/>
    <path d="M63.3301 21.7402C67.0601 23.1002 70.7201 23.9402 74.4701 24.2202C84.3101 24.9502 94.1201 25.1602 103.69 22.1502C104.54 21.8802 104.89 21.9902 104.81 22.9702C104.74 23.9102 104.79 24.8502 104.8 25.7902C104.81 28.2702 104.82 28.3002 102.45 29.1902C99.3001 30.3702 95.9601 30.7302 92.6501 31.0502C84.5501 31.8402 76.4901 31.6202 68.4901 29.9902C67.0701 29.7002 65.6801 29.2702 64.3601 28.6202C63.7601 28.3202 63.3401 27.9402 63.3301 27.2502C63.3201 25.4702 63.3301 23.7002 63.3301 21.7402Z" fill="#FCFCFC"/>
    <path d="M83.9099 10.7302C78.2499 10.6502 72.6499 10.1102 67.1399 8.82015C66.1299 8.58015 65.1699 8.21015 64.2399 7.76015C63.4699 7.38015 63.6099 7.11015 64.2699 6.76015C66.2099 5.74015 68.3499 5.30015 70.4599 4.98015C80.7199 3.39015 90.9599 3.28015 101.12 5.75015C102.08 5.98015 103 6.31015 103.88 6.78015C104.64 7.18015 104.52 7.42015 103.85 7.78015C101.78 8.89015 99.4999 9.25015 97.2399 9.62015C92.8299 10.3502 88.3699 10.6702 83.8999 10.7402L83.9099 10.7302Z" fill="#FCFCFC"/>
    <path d="M24.9701 92.1101C24.9501 93.1801 24.4201 93.7701 23.4501 93.8801C22.5301 93.9901 21.6801 93.1801 21.7301 92.2401C21.7801 91.2601 22.3201 90.6301 23.3201 90.6201C24.3001 90.6201 24.8701 91.1801 24.9701 92.1101Z" fill="#FCFCFC"/>
    <path d="M84.0499 55.9302C85.0599 56.0202 85.6999 56.5402 85.6999 57.5302C85.6999 58.5702 85.1099 59.2002 83.9999 59.1402C82.9999 59.0902 82.4599 58.5302 82.4699 57.5202C82.4799 56.4902 83.1099 56.0302 84.0499 55.9302Z" fill="#FCFCFC"/>
    <path d="M68.4702 95.6602C68.4702 92.7302 70.6902 90.4902 73.6102 90.4902C76.5802 90.4902 78.9602 92.8002 78.9502 95.6902C78.9502 98.5802 76.5402 100.98 73.6502 100.97C70.7102 100.97 68.4702 98.6702 68.4702 95.6602ZM75.2902 95.8702C75.2602 94.7702 74.7502 94.1502 73.7702 94.1002C72.7102 94.0402 72.0502 94.7002 72.0402 95.7102C72.0302 96.6402 72.5802 97.2902 73.6302 97.3002C74.6602 97.3102 75.1402 96.7302 75.3002 95.8702H75.2902Z" fill="black"/>
    <path d="M91.2103 90.4502C93.6103 90.4502 96.0003 90.4702 98.4003 90.4502C99.1803 90.4502 99.8703 90.5202 99.7703 91.5202C99.6703 92.4502 100.18 93.7302 98.6103 93.9702C98.2903 94.0202 97.9603 94.0402 97.6303 94.0402C93.0703 94.0602 88.5203 94.0602 83.9603 94.0802C82.9803 94.0802 82.1603 94.0302 82.2403 92.6202C82.3403 90.7802 82.4303 90.5302 84.0303 90.5102C86.4203 90.4802 88.8203 90.5102 91.2103 90.5102C91.2103 90.4902 91.2103 90.4802 91.2103 90.4602V90.4502Z" fill="black"/>
    <path d="M87.3 100.98C86.08 100.98 84.85 100.98 83.63 100.98C82.96 100.98 82.19 101.08 82.29 100.06C82.39 99.1002 81.7 97.7302 83.36 97.4502C84.19 97.3102 85.05 97.3602 85.89 97.3502C87.72 97.3202 89.56 97.3202 91.39 97.3002C92.12 97.3002 92.9 97.2502 92.8 98.3302C92.71 99.3602 93.29 100.81 91.52 100.95C90.12 101.06 88.7 100.97 87.29 100.97L87.3 100.98Z" fill="black"/>
    <path d="M97.8899 100.98C96.2399 100.98 96.2399 100.88 96.1399 99.0699C96.0599 97.6499 96.6599 97.2699 97.9499 97.3399C99.5499 97.4299 99.7699 97.5999 99.7699 99.2399C99.7699 100.88 99.6499 100.99 97.8899 100.99V100.98Z" fill="black"/>
    <path d="M23.1001 76.7C18.4901 76.7 13.8801 76.7 9.27008 76.7C8.47008 76.7 7.58008 76.85 7.68008 75.56C7.77008 74.49 7.37008 73.15 9.15008 73.1C9.57008 73.09 10.0001 73.07 10.4201 73.07C19.3101 73.07 28.2101 73.05 37.1001 73.04C39.0401 73.04 39.7501 74.35 38.8201 76.1C38.4401 76.82 37.8001 76.66 37.2201 76.67C32.5101 76.69 27.8101 76.67 23.1001 76.67V76.69V76.7Z" fill="black"/>
    <path d="M26.5599 69.8104C23.0799 69.8104 19.5999 69.7904 16.1199 69.8204C15.1099 69.8304 14.4599 69.6104 14.5599 68.4204C14.6499 67.3504 14.4899 66.1704 16.1499 66.1804C23.3899 66.1904 30.6299 66.1804 37.8699 66.1504C38.7399 66.1504 39.0699 66.5804 39.0599 67.3004C39.0499 68.1804 39.3599 69.2804 38.0999 69.6504C37.6099 69.7904 37.0799 69.7904 36.5599 69.7904C33.2199 69.8004 29.8799 69.7904 26.5499 69.7904C26.5499 69.7904 26.5499 69.8004 26.5499 69.8104H26.5599Z" fill="black"/>
    <path d="M7.68994 67.9502C7.68994 66.2002 7.71994 66.1702 9.53994 66.1802C11.1999 66.1802 11.2499 66.3202 11.3299 68.0502C11.3899 69.4502 10.7799 69.8502 9.48994 69.8002C7.79994 69.7402 7.68994 69.6702 7.68994 67.9502Z" fill="black"/>
    <path d="M39.1 26.35C39.1 27.71 39.07 29.07 39.11 30.44C39.14 31.26 38.85 31.67 37.99 31.66C35.17 31.64 32.35 31.64 29.54 31.66C28.74 31.66 28.46 31.33 28.47 30.56C28.49 27.74 28.49 24.92 28.47 22.11C28.47 21.34 28.76 21.02 29.55 21.02C32.32 21.05 35.09 21.05 37.86 21.02C38.75 21.02 39.14 21.33 39.11 22.26C39.06 23.62 39.1 24.98 39.1 26.35ZM35.38 26.4C35.63 25.14 35.19 24.61 33.83 24.64C32.62 24.66 32.02 24.93 32.06 26.28C32.1 27.46 32.33 28.11 33.71 28.05C34.88 27.99 35.7 27.84 35.38 26.4Z" fill="black"/>
    <path d="M16.2 24.6703C13.81 24.6703 11.41 24.6703 9.01998 24.6703C8.33998 24.6703 7.57998 24.7403 7.69998 23.7303C7.81998 22.7803 7.10998 21.4203 8.78998 21.1303C9.24998 21.0503 9.71998 21.0403 10.19 21.0403C14.6 21.0303 19.02 21.0403 23.43 21.0103C24.42 21.0103 25.23 21.0903 25.24 22.3703C25.27 24.1403 24.9 24.6403 23.38 24.6503C20.99 24.6703 18.59 24.6503 16.2 24.6503V24.6703Z" fill="black"/>
    <path d="M13.1101 28.01C14.3801 28.01 15.6501 28.02 16.9201 28.01C17.6401 28 18.3401 28.03 18.2001 29.01C18.0701 29.92 18.7901 31.32 17.1801 31.5C15.5501 31.68 13.8901 31.61 12.2501 31.64C11.4001 31.65 10.5601 31.64 9.71011 31.64C7.74011 31.66 7.13011 30.81 7.71011 28.86C7.91011 28.18 8.42011 28.04 9.02011 28.04C10.3801 28.04 11.7501 28.04 13.1101 28.04V28.01Z" fill="black"/>
    <path d="M21.5603 29.7803C21.5603 28.0803 21.6403 28.1003 23.4403 28.0003C24.8403 27.9203 25.2703 28.4703 25.2003 29.7803C25.1103 31.4203 24.9603 31.6403 23.3303 31.6403C21.6603 31.6403 21.5503 31.5203 21.5503 29.7803H21.5603Z" fill="black"/>
    <path d="M23.2703 10.8004C21.5803 10.8004 21.6503 10.7604 21.5303 8.90035C21.4403 7.45035 22.1303 7.11035 23.3503 7.11035C24.8803 7.11035 25.2003 7.43035 25.1803 9.04035C25.1603 10.6604 25.0103 10.8004 23.2603 10.8004H23.2703Z" fill="white"/>
    <path d="M9.38008 10.8002C7.71008 10.8002 7.77007 10.7502 7.66007 8.88025C7.58007 7.42025 8.27008 7.08025 9.50008 7.12025C11.0701 7.16025 11.3201 7.41025 11.3001 9.06025C11.2801 10.6702 11.1201 10.8102 9.38008 10.8002Z" fill="white"/>
    <path d="M18.1999 9.05036C18.1999 10.7504 18.1299 10.7104 16.3099 10.8304C14.8599 10.9204 14.5399 10.2504 14.5799 9.01036C14.6299 7.41036 14.8799 7.11036 16.4499 7.12036C18.0299 7.12036 18.2099 7.33036 18.1999 9.04036V9.05036Z" fill="white"/>
    <path d="M77.3902 76.5901C78.5902 76.3501 79.0002 76.9701 78.9902 78.3201C78.9902 79.5901 78.7102 80.2401 77.2802 80.1701C75.4502 80.0801 75.2702 79.9901 75.2802 78.3501C75.2802 76.7401 75.4302 76.6001 77.3902 76.5901Z" fill="white"/>
    <path d="M82.2901 78.07C81.9801 76.7 82.8801 76.53 84.1001 76.57C85.7801 76.63 85.7901 76.69 85.8901 78.46C85.9701 79.89 85.3301 80.23 84.0501 80.16C82.4001 80.07 82.2901 80.01 82.3001 78.07H82.2901Z" fill="white"/>
    <path d="M68.41 78.2603C68.43 76.6903 68.58 76.6602 70.39 76.5602C71.94 76.4702 72.03 77.3202 71.98 78.4702C71.92 80.0202 71.76 80.1802 69.98 80.1502C68.47 80.1302 68.39 80.0303 68.41 78.2603Z" fill="white"/>
    <path d="M7.7 53.7901C7.34 52.4501 8.22 52.2601 9.45 52.3001C11.19 52.3601 11.32 52.4401 11.32 54.1101C11.32 55.7401 11.13 55.9201 9.43 55.9001C7.78 55.8801 7.7 55.7901 7.7 53.7901Z" fill="white"/>
    <path d="M23.5299 52.31C24.6799 52.09 25.2599 52.59 25.2099 53.99C25.1399 55.7 24.9799 55.86 23.2799 55.92C21.9599 55.96 21.4399 55.51 21.5299 54.13C21.6499 52.35 21.5899 52.31 23.5299 52.31Z" fill="white"/>
    <path d="M18.1598 54.21C18.5198 55.74 17.6098 55.94 16.4098 55.91C14.7698 55.87 14.5898 55.72 14.5898 54.05C14.5898 52.39 14.6898 52.38 16.4798 52.28C17.9998 52.19 18.4098 52.86 18.1498 54.2L18.1598 54.21Z" fill="white"/>
    <path d="M75.2899 95.87C75.1299 96.72 74.6499 97.31 73.6199 97.3C72.5699 97.29 72.0199 96.65 72.0299 95.71C72.0399 94.69 72.6999 94.04 73.7599 94.1C74.7499 94.15 75.2499 94.78 75.2799 95.87H75.2899Z" fill="#FCFCFC"/>
    <path d="M35.38 26.4003C35.7 27.8403 34.88 27.9903 33.71 28.0503C32.32 28.1203 32.09 27.4703 32.06 26.2803C32.02 24.9203 32.62 24.6603 33.83 24.6403C35.19 24.6103 35.63 25.1503 35.38 26.4003Z" fill="#FCFCFC"/>
</svg>
