<svg width="112" height="133" viewBox="0 0 112 133" fill="none" xmlns="http://www.w3.org/2000/svg">
    <g clip-path="url(#clip0_47_3790)">
        <path d="M52.7316 127.022C54.2176 127.969 56.1314 128.17 55.8537 130.332C55.7862 130.883 55.2158 130.958 54.7055 130.741C53.1594 130.1 51.7409 129.385 52.7316 127.022Z" fill="#FDFDFD"/>
        <path d="M62.0079 43.0314C78.0615 52.5426 94.1076 62.0612 110.176 71.55C111.355 72.2432 111.993 73.0035 111.978 74.472C111.91 80.7929 111.94 87.1138 111.993 93.4347C112.008 94.8062 111.737 95.9839 110.394 96.4833C107.97 97.3778 107.512 99.0997 107.572 101.47C107.67 105.316 103.677 107.634 100.179 105.749C98.0629 104.608 96.4868 104.683 94.3928 105.965C84.1933 112.211 73.8887 118.264 63.584 124.339C62.098 125.218 61.0698 126.046 61.1899 128.051C61.3325 130.376 58.0752 133.574 55.9963 132.911C53.6547 132.158 50.1948 131.882 50.8027 127.879C51.0428 126.299 50.2623 125.449 48.9339 124.659C38.209 118.331 27.5141 111.943 16.8567 105.51C15.4007 104.63 14.2899 104.63 12.7438 105.406C7.99305 107.776 4.66075 105.741 4.46561 100.494C4.41307 99.0624 4.36054 97.7952 2.73942 97.1542C0.427816 96.2523 -0.0750317 94.5006 0.0150306 92.1079C0.217671 86.7858 0.20266 81.4414 0.0225358 76.1193C-0.0600213 73.6148 0.675488 72.1613 2.94956 70.8345C17.247 62.4786 31.3642 53.8172 45.7067 45.5285C49.4217 43.3817 51.8384 41.1754 50.8177 36.621C50.6301 35.7937 50.8102 34.8917 50.8177 34.0196C51.268 34.519 51.7258 35.011 52.1761 35.5104C52.4913 41.727 52.5064 47.9435 52.1611 54.1601C51.7633 54.1601 51.3581 54.1601 50.9603 54.1601V44.2166C34.4038 54.093 18.6054 63.5073 2.49925 73.1153C17.5171 82.0749 32.445 90.3935 46.6823 99.7407C53.5421 104.25 58.4955 104.273 65.3778 99.7407C79.6076 90.3711 94.5429 82.0675 109.546 73.1153C105.418 70.6556 101.583 68.3896 97.7702 66.0863C85.8519 58.8859 73.9487 51.6705 62.038 44.4551C62.038 43.9706 62.0304 43.4935 62.0229 43.009L62.0079 43.0314ZM2.139 74.9043C1.81628 75.3739 1.50106 75.8435 1.17834 76.3056C6.52203 80.4873 12.7438 83.4614 18.5078 87.0467C24.5195 90.7886 30.6512 94.3292 36.7379 97.9518C42.7646 101.537 48.7913 105.108 55.0581 108.827C55.651 105.808 53.377 105.368 51.966 104.519C38.0063 96.133 24.0091 87.8294 10.0119 79.5108C7.40014 77.9604 4.75831 76.4398 2.139 74.9043ZM57.047 108.41C57.2947 108.41 57.5724 108.499 57.73 108.395C74.6917 98.2872 91.6459 88.1648 108.615 78.0647C109.756 77.3864 110.679 76.7379 110.116 75.2397C109.801 75.2174 109.508 75.0981 109.343 75.195C92.3739 85.2876 75.4122 95.41 58.4355 105.503C57.2647 106.203 56.349 106.889 57.0395 108.41H57.047ZM54.893 117.526C55.7861 115.245 54.3151 114.678 53.1818 114C36.9631 104.31 20.7369 94.6273 4.46561 85.0267C3.76012 84.6093 2.66436 82.8278 1.76374 84.5124C1.1258 85.705 2.58181 86.3311 3.54247 86.9051C20.6168 97.0797 37.6911 107.262 54.893 117.518V117.526ZM110.199 83.8862C109.606 84.0055 109.328 83.9981 109.126 84.1173C92.2238 94.1875 75.3372 104.28 58.4204 114.321C57.1746 115.058 56.4541 115.781 57.0245 117.257C68.1097 112.368 109.493 86.6218 110.199 83.8937V83.8862ZM54.8705 121.871C55.9437 119.732 54.3601 119.113 53.0993 118.361C36.8881 108.685 20.6768 99.0102 4.4431 89.3798C3.71509 88.9474 2.79946 87.5387 1.95137 88.6493C1.04324 89.8494 2.35665 90.6022 3.30981 91.1762C20.4892 101.41 37.6761 111.63 54.878 121.871H54.8705ZM57.1746 121.856C59.3286 120.589 61.4751 119.344 63.6065 118.077C78.3242 109.297 93.0494 100.531 107.737 91.7128C108.938 90.9973 111.009 90.6097 110.034 88.3288C109.801 88.3437 109.658 88.3064 109.561 88.3586C92.4715 98.4735 75.3897 108.596 58.2929 118.703C57.0695 119.426 56.394 120.284 57.1671 121.856H57.1746ZM54.9005 126.306C55.8011 124.122 54.3902 123.534 53.2344 122.84C48.7538 120.149 44.2582 117.466 39.77 114.79C27.2814 107.344 14.7853 99.9047 2.2816 92.4508C1.18584 94.2397 2.27409 94.8957 3.39237 95.5591C20.4967 105.763 37.601 115.975 54.9005 126.299V126.306ZM110.244 79.5779C109.793 79.5779 109.643 79.5332 109.561 79.5779C92.464 89.6928 75.3747 99.8152 58.2779 109.93C57.047 110.661 56.394 111.51 57.1145 112.942C71.9523 105.644 109.523 82.2017 110.251 79.5704L110.244 79.5779ZM54.863 113.12C55.7411 111.16 54.6378 110.467 53.3619 109.736C51.0504 108.424 48.8138 106.986 46.5247 105.629C32.52 97.2884 18.5153 88.94 4.47312 80.6662C3.74511 80.2413 2.68688 78.5418 1.80877 80.1518C1.14832 81.3668 2.63434 81.993 3.57249 82.552C9.34399 85.9957 15.123 89.4245 20.8945 92.8682C32.2048 99.6065 43.5076 106.352 54.8705 113.12H54.863ZM109.944 92.3539C92.6666 102.633 75.5773 112.807 58.488 122.982C57.3547 123.653 56.364 124.391 57.1145 125.971C57.4598 125.874 57.835 125.837 58.1353 125.658C74.9244 115.685 91.7135 105.704 108.495 95.7081C109.538 95.0895 110.777 94.5081 109.944 92.3539ZM6.477 99.6438C5.98666 102.188 6.95233 103.766 9.37401 104.377C10.0119 101.835 9.16386 100.21 6.477 99.6438ZM52.7315 127.015C51.7408 129.377 53.1593 130.093 54.7054 130.734C55.2232 130.95 55.7861 130.876 55.8537 130.324C56.1314 128.17 54.2175 127.969 52.7315 127.015Z" fill="#232323"/>
        <path d="M62.008 43.0314C62.008 43.5159 62.0155 43.993 62.023 44.4775C60.7471 45.0514 59.6288 45.4241 59.6813 43.2923C59.7414 41.0636 59.7639 38.8349 59.6513 36.6136C59.6063 35.7191 60.4093 34.1463 58.3754 34.2656C56.8069 34.3551 56.7693 35.4582 56.7768 36.6434C56.7994 44.0675 56.7768 51.499 56.8294 58.9231C56.8294 59.6983 56.1464 61.1369 57.9476 60.9953C59.1185 60.9059 59.5913 60.1605 59.7114 58.9977C59.854 57.5591 59.1034 55.9267 61.0323 54.1303C60.3718 57.0224 62.4357 57.2982 63.7867 58.2374C67.5243 60.8239 67.4267 64.0887 63.4039 66.3323C58.7207 68.9412 53.8273 68.9486 49.0765 66.6156C44.4608 64.3421 44.3182 60.5481 48.7838 57.9616C50.4725 56.9851 50.9828 55.867 50.9528 54.1824C51.3506 54.1824 51.7559 54.1824 52.1536 54.1824C52.2212 55.9043 52.2962 57.6261 52.3638 59.348C52.4163 60.6301 53.347 60.9879 54.3752 61.0698C55.2608 61.1444 55.2308 60.4139 55.2308 59.8027C55.2308 51.7823 55.2308 43.7619 55.2533 35.7489C55.2533 34.8246 54.7279 34.4818 53.9249 34.2805C52.7991 33.9898 52.3263 34.519 52.1761 35.5328C51.7258 35.0334 51.268 34.5414 50.8177 34.042C45.5265 31.4629 41.136 28.0714 39.4173 22.0934C36.9331 13.4469 41.2936 4.5767 49.7745 1.21499C58.0752 -2.07218 67.4942 1.6026 71.5921 9.7199C75.5098 17.472 72.7029 27.162 65.2502 31.8878C63.9293 32.7226 61.5351 32.7674 61.4075 34.3774C61.1824 37.2323 60.4319 40.266 62.0004 43.0463L62.008 43.0314ZM51.6433 8.11731C49.4743 8.34093 48.0933 9.57082 48.0183 11.6356C47.9432 13.7152 49.2942 15.1985 51.4031 15.3103C53.7297 15.4296 55.1557 13.9686 55.1857 11.6877C55.2158 9.50374 53.6847 8.4751 51.6433 8.11731Z" fill="#0F0F0F"/>
        <path d="M50.9602 54.175C50.9828 55.8596 50.4799 56.9702 48.7912 57.9541C44.3257 60.5406 44.4683 64.3346 49.0839 66.6081C53.8272 68.9412 58.7281 68.9337 63.4114 66.3248C67.4341 64.0887 67.5317 60.8164 63.7941 58.2299C62.4432 57.2907 60.3793 57.0149 61.0397 54.1228C59.1109 55.9192 59.8614 57.5516 59.7188 58.9902C59.5987 60.153 59.1259 60.8984 57.9551 60.9878C56.1538 61.1295 56.8443 59.6909 56.8368 58.9157C56.7843 51.4916 56.8068 44.06 56.7843 36.6359C56.7843 35.4433 56.8143 34.3401 58.3829 34.2581C60.4168 34.1463 59.6137 35.7191 59.6588 36.6061C59.7713 38.8274 59.7488 41.0636 59.6888 43.2848C59.6362 45.4166 60.7545 45.0439 62.0304 44.47C73.9411 51.6779 85.8519 58.9008 97.7626 66.1012C101.575 68.4045 105.418 70.6705 109.538 73.1303C94.5354 82.0824 79.6001 90.386 65.3702 99.7556C58.4879 104.288 53.542 104.258 46.6748 99.7556C32.4374 90.4084 17.5096 82.0898 2.4917 73.1303C18.6054 63.5222 34.3963 54.1004 50.9527 44.2315V54.175H50.9602ZM67.9895 61.7556C66.2558 67.7485 61.7377 68.9933 56.8143 69.1871C51.1929 69.4108 46.1494 68.1436 43.9129 62.0314C41.3986 63.5445 41.1059 65.9298 40.9633 68.3747C39.6724 67.8753 40.6481 65.982 39.2972 66.1161C38.6667 66.1758 38.0213 67.2193 37.601 67.9423C35.7022 71.2295 36.9781 73.8607 39.4773 76.1864C46.8474 83.0439 65.3102 83.0141 72.6352 76.1342C76.2452 72.7426 76.2527 69.8207 72.6578 66.0341C72.0498 66.1609 71.9598 66.6454 71.9147 67.1448C71.8547 67.7634 71.8397 68.4119 70.9316 68.3448C70.9916 65.0353 70.879 64.7595 67.997 61.7705L67.9895 61.7556ZM88.9966 78.2138C91.7435 78.184 94.2127 77.9157 96.3817 76.5143C97.6801 75.6795 98.7308 74.6136 98.6708 72.9439C98.5732 70.4543 94.4528 65.6391 91.9536 65.0055C87.0152 63.7383 84.1107 65.1024 81.2737 70.0369C78.8796 74.1962 79.5625 75.9702 84.0732 77.543C85.7618 78.1318 87.488 78.1393 88.9966 78.2213V78.2138ZM22.4105 65.8403C18.5453 65.3931 16.3913 67.9051 14.3799 71.6022C12.7438 74.6061 13.5469 76.2087 15.8434 77.7591C19.3784 80.1369 27.0037 79.9208 30.4485 77.4908C31.7244 76.5889 32.7451 75.4633 32.5425 73.8309C31.9571 69.1275 28.0619 65.9 22.418 65.8403H22.4105ZM54.923 98.8462C58.548 98.9655 60.9947 98.5257 63.1562 97.2213C64.6572 96.3119 66.0382 95.082 65.5729 93.0396C64.1694 86.92 58.0677 83.8191 52.056 86.1224C49.9621 86.9274 45.9993 92.3241 46.4421 94.1055C47.2302 97.2511 50.0446 97.9145 52.6939 98.6002C53.7597 98.876 54.9005 98.8462 54.9155 98.8462H54.923ZM60.3042 44.8278C59.8839 48.0777 59.306 51.3425 60.5744 54.5551C61.1598 51.3052 61.5201 48.0628 60.3042 44.8278Z" fill="#FDFDFD"/>
        <path d="M2.13901 74.9043C4.76583 76.4398 7.40015 77.9529 10.012 79.5108C24.0091 87.8294 38.0063 96.1405 51.966 104.519C53.3845 105.368 55.6585 105.808 55.0581 108.827C48.7988 105.108 42.7646 101.537 36.738 97.9518C30.6512 94.3292 24.512 90.7886 18.5078 87.0467C12.7438 83.4614 6.52204 80.4873 1.17834 76.3056C1.50107 75.836 1.81629 75.3664 2.13901 74.9043Z" fill="#FDFDFD"/>
        <path d="M57.0469 108.41C56.3564 106.889 57.272 106.203 58.4428 105.503C75.4196 95.41 92.3738 85.295 109.351 75.195C109.516 75.0981 109.808 75.2174 110.124 75.2397C110.686 76.7454 109.763 77.3864 108.623 78.0647C91.6533 88.1648 74.6991 98.2872 57.7374 108.395C57.5722 108.492 57.2945 108.41 57.0544 108.41H57.0469Z" fill="#FDFDFD"/>
        <path d="M54.893 117.526C37.6911 107.269 20.6243 97.0871 3.54249 86.9125C2.57432 86.3386 1.12582 85.7124 1.76376 84.5198C2.66438 82.8352 3.75263 84.6167 4.46563 85.0341C20.7369 94.6348 36.9631 104.317 53.1818 114.007C54.3151 114.686 55.7861 115.252 54.893 117.533V117.526Z" fill="#FDFDFD"/>
        <path d="M110.199 83.8862C109.493 86.6144 68.1096 112.36 57.0244 117.25C56.454 115.774 57.1745 115.058 58.4204 114.313C75.3371 104.273 92.2237 94.1801 109.125 84.1099C109.328 83.9906 109.606 84.0055 110.199 83.8788V83.8862Z" fill="#FDFDFD"/>
        <path d="M54.8629 121.871C37.661 111.637 20.4741 101.41 3.29475 91.1762C2.33409 90.6022 1.02818 89.8494 1.93631 88.6493C2.7844 87.5312 3.70003 88.9475 4.42803 89.3798C20.6693 99.0028 36.873 108.685 53.0842 118.361C54.3451 119.113 55.9287 119.732 54.8554 121.871H54.8629Z" fill="#FDFDFD"/>
        <path d="M57.1745 121.856C56.4014 120.284 57.0694 119.426 58.3002 118.703C75.3971 108.596 92.4789 98.4735 109.568 88.3586C109.658 88.3064 109.801 88.3362 110.041 88.3288C111.009 90.6097 108.938 90.9898 107.744 91.7128C93.0493 100.531 78.3316 109.304 63.6139 118.077C61.4824 119.344 59.3435 120.589 57.182 121.856H57.1745Z" fill="#FDFDFD"/>
        <path d="M54.893 126.306C37.586 115.975 20.4892 105.771 3.38485 95.5665C2.26658 94.8957 1.17082 94.2397 2.27408 92.4582C14.7777 99.9047 27.2664 107.351 39.7625 114.798C44.2581 117.474 48.7462 120.157 53.2268 122.848C54.3902 123.548 55.8011 124.13 54.893 126.314V126.306Z" fill="#FDFDFD"/>
        <path d="M110.236 79.5779C109.508 82.2091 71.9373 105.652 57.0996 112.949C56.3791 111.518 57.032 110.661 58.2629 109.938C75.3597 99.8302 92.449 89.7003 109.546 79.5854C109.636 79.5332 109.786 79.5854 110.229 79.5854L110.236 79.5779Z" fill="#FDFDFD"/>
        <path d="M54.8555 113.12C43.4926 106.345 32.1898 99.6065 20.8795 92.8682C15.108 89.4319 9.32898 85.9957 3.55748 82.552C2.61933 81.9929 1.13331 81.3668 1.79376 80.1518C2.67187 78.5418 3.7301 80.2413 4.45811 80.6662C18.5078 88.94 32.505 97.2884 46.5097 105.629C48.7913 106.993 51.0353 108.424 53.3469 109.736C54.6228 110.467 55.7336 111.153 54.848 113.12H54.8555Z" fill="#FDFDFD"/>
        <path d="M109.944 92.3613C110.777 94.523 109.538 95.0969 108.495 95.7156C91.7136 105.711 74.9245 115.692 58.1354 125.665C57.8426 125.844 57.4599 125.874 57.1146 125.978C56.3641 124.398 57.3548 123.668 58.4881 122.989C75.5774 112.815 92.6743 102.64 109.944 92.3613Z" fill="#FDFDFD"/>
        <path d="M52.1761 35.5179C52.3262 34.5041 52.799 33.9824 53.9248 34.2656C54.7278 34.4669 55.2532 34.8097 55.2532 35.734C55.2382 43.7544 55.2382 51.7748 55.2307 59.7878C55.2307 60.399 55.2607 61.1295 54.3751 61.0549C53.3469 60.9655 52.4162 60.6152 52.3637 59.3331C52.2962 57.6112 52.2211 55.8894 52.1536 54.1675C52.4988 47.951 52.4838 41.7344 52.1686 35.5179H52.1761Z" fill="#FDFDFD"/>
        <path d="M6.477 99.6438C9.16386 100.21 10.0119 101.835 9.374 104.377C6.95233 103.766 5.98666 102.188 6.477 99.6438Z" fill="#FDFDFD"/>
        <path d="M51.6434 8.11731C53.6848 8.46764 55.2158 9.50374 55.1858 11.6877C55.1558 13.9686 53.7373 15.4296 51.4032 15.3103C49.2942 15.1985 47.9433 13.7152 48.0184 11.6356C48.0934 9.57082 49.4744 8.34093 51.6434 8.11731Z" fill="#FDFDFD"/>
        <path d="M67.9896 61.7482C70.8716 64.7446 70.9842 65.013 70.9241 68.3225C71.8323 68.397 71.8473 67.7411 71.9073 67.1224C71.9599 66.623 72.0424 66.1385 72.6578 66.0118C76.2528 69.7984 76.2453 72.7203 72.6353 76.1118C65.3103 82.9918 46.8475 83.0216 39.4774 76.164C36.9782 73.8384 35.7023 71.2072 37.6011 67.92C38.0214 67.197 38.6743 66.1534 39.2973 66.0938C40.6482 65.9596 39.6725 67.8529 40.9634 68.3523C41.0985 65.9149 41.3987 63.5296 43.913 62.009C46.1495 68.1212 51.193 69.3884 56.8144 69.1648C61.7303 68.971 66.2559 67.7336 67.9896 61.7332V61.7482ZM42.1417 71.0655C42.3594 71.2668 42.5695 71.468 42.7872 71.6693C43.3125 72.2358 43.7929 72.8619 44.671 72.8843C51.7859 77.1554 62.826 76.8572 67.802 72.2731C53.9474 75.3888 52.6865 75.3888 45.2264 72.3029C44.6184 71.9302 44.003 71.55 43.3951 71.1773C43.1474 70.9314 42.8922 70.6779 42.6446 70.432C42.3068 69.7686 42.0292 68.479 41.1435 69.1946C40.4831 69.7238 41.6389 70.499 42.1492 71.073L42.1417 71.0655Z" fill="#0F0F0F"/>
        <path d="M88.9966 78.2064C87.4955 78.1169 85.7693 78.1169 84.0732 77.5281C79.5701 75.9553 78.8796 74.1887 81.2737 70.022C84.1107 65.0949 87.0077 63.7234 91.9536 64.9906C94.4528 65.6316 98.5732 70.4468 98.6708 72.929C98.7383 74.5987 97.6801 75.6646 96.3817 76.4994C94.2052 77.9008 91.7435 78.1766 88.9966 78.1989V78.2064ZM89.4694 71.3637C91.3382 70.827 94.633 71.2966 94.603 68.6206C94.5804 66.4366 91.3982 66.1907 89.3493 66.2279C87.1428 66.2727 83.6754 66.049 83.6979 68.8517C83.7204 71.2742 87.0903 71.0059 89.4694 71.3711V71.3637ZM83.5703 72.0047C87.0302 75.3515 91.8561 75.2472 95.331 71.3786C90.9629 73.2197 87.2779 73.1675 83.5703 72.0047Z" fill="#0F0F0F"/>
        <path d="M22.4105 65.8403C28.0544 65.9 31.9571 69.1275 32.535 73.8309C32.7377 75.4633 31.7245 76.5889 30.4411 77.4908C26.9962 79.9208 19.3709 80.1369 15.836 77.7591C13.5319 76.2087 12.7363 74.6136 14.3725 71.6022C16.3839 67.9051 18.5454 65.3931 22.403 65.8403H22.4105ZM22.7933 72.355C24.8797 71.9302 28.2871 72.4221 28.3321 69.9102C28.3772 67.264 25.0374 67.4653 22.8759 67.4578C20.7144 67.4578 17.4796 67.3684 17.4871 69.9772C17.4946 72.206 20.7444 71.9749 22.7858 72.355H22.7933ZM28.9025 72.601C24.8047 74.3676 21.0671 74.1216 17.0668 72.7277C20.2265 76.5963 25.6753 76.5889 28.9025 72.601Z" fill="#232323"/>
        <path d="M54.923 98.8462C54.923 98.8462 53.7597 98.876 52.7015 98.6002C50.0521 97.9145 47.2377 97.2511 46.4497 94.1055C45.9993 92.3241 49.9621 86.92 52.0635 86.1224C58.0677 83.8192 64.1694 86.92 65.5804 93.0396C66.0532 95.082 64.6723 96.3119 63.1637 97.2213C61.0022 98.5332 58.563 98.9655 54.9305 98.8462H54.923ZM50.7501 92.9353C50.6451 92.7862 50.5475 92.6371 50.4424 92.488C50.4049 92.5924 50.3674 92.6893 50.3373 92.7937C50.495 92.8086 50.6601 92.8309 50.8177 92.8458C53.0467 96.2895 58.9758 96.2225 62.0304 92.0855C57.9851 94.3366 54.3676 93.6807 50.7501 92.9427V92.9353ZM56.0338 86.9423C53.9323 87.4418 50.615 87.0467 50.5775 89.6407C50.54 91.8619 53.7447 91.7948 55.8086 92.0706C55.9287 92.0855 56.0563 92.093 56.1839 92.0706C58.2778 91.8545 61.445 91.8321 61.4525 89.6779C61.46 87.0467 58.1427 87.4641 56.0338 86.9349V86.9423Z" fill="#232323"/>
        <path d="M60.2968 44.8278C61.5126 48.0553 61.1524 51.2978 60.567 54.5551C59.2911 51.35 59.8765 48.0777 60.2968 44.8278Z" fill="#0F0F0F"/>
        <path d="M45.2263 72.3029C52.6789 75.3962 53.9473 75.3888 67.8019 72.2731C62.8185 76.8647 51.7858 77.1554 44.6709 72.8843C44.8585 72.6905 45.0387 72.4892 45.2263 72.2954V72.3029Z" fill="#FDFDFD"/>
        <path d="M43.3875 71.1773C43.9954 71.55 44.6108 71.9302 45.2187 72.3029C45.0311 72.4967 44.851 72.6979 44.6633 72.8917C43.7852 72.8619 43.3049 72.2433 42.7795 71.6768C42.9822 71.5128 43.1848 71.3488 43.3875 71.1773Z" fill="#FDFDFD"/>
        <path d="M42.1416 71.0655C41.6312 70.4841 40.4754 69.7164 41.1359 69.1872C42.029 68.4716 42.3067 69.7611 42.6369 70.4245C42.4718 70.6407 42.3067 70.8494 42.1341 71.0655H42.1416Z" fill="#FDFDFD"/>
        <path d="M42.6444 70.4245C42.8921 70.6705 43.1473 70.9239 43.395 71.1699C43.1923 71.3339 42.9897 71.4979 42.787 71.6693C42.5694 71.468 42.3593 71.2668 42.1416 71.0655C42.3067 70.8494 42.4718 70.6407 42.6444 70.4245Z" fill="#FDFDFD"/>
        <path d="M89.4694 71.3637C87.0977 71.0059 83.7204 71.2668 83.6979 68.8443C83.6753 66.0491 87.1428 66.2727 89.3493 66.2205C91.3907 66.1758 94.5804 66.4292 94.6029 68.6132C94.6329 71.2966 91.3306 70.827 89.4694 71.3562V71.3637Z" fill="#FDFDFD"/>
        <path d="M83.5779 72.0047C87.2854 73.1601 90.978 73.2123 95.3385 71.3786C91.8636 75.2546 87.0378 75.3515 83.5779 72.0047Z" fill="#FDFDFD"/>
        <path d="M22.7933 72.355C20.7444 71.9749 17.5021 72.206 17.4946 69.9772C17.4871 67.3684 20.7219 67.4504 22.8834 67.4578C25.0449 67.4578 28.3847 67.264 28.3396 69.9102C28.2946 72.4147 24.8873 71.9227 22.8008 72.355H22.7933Z" fill="#FDFDFD"/>
        <path d="M28.9025 72.601C25.6752 76.5963 20.234 76.5963 17.0668 72.7278C21.067 74.1216 24.8046 74.3676 28.9025 72.601Z" fill="#FDFDFD"/>
        <path d="M56.0262 86.9424C58.1427 87.4716 61.4524 87.0467 61.4449 89.6854C61.4374 91.8396 58.2702 91.8619 56.1763 92.0781C56.0562 92.093 55.9286 92.0855 55.801 92.0781C53.7296 91.8023 50.5324 91.8694 50.5699 89.6481C50.6074 87.0542 53.9247 87.4492 56.0262 86.9498V86.9424Z" fill="#FDFDFD"/>
        <path d="M50.7427 92.9278C54.3602 93.6732 57.9777 94.3292 62.023 92.0706C58.9684 96.2076 53.0393 96.2746 50.8102 92.8309L50.7427 92.9204V92.9278Z" fill="#FDFDFD"/>
        <path d="M50.8102 92.8384C50.6526 92.8235 50.4874 92.8011 50.3298 92.7862C50.3674 92.6818 50.4049 92.5849 50.4349 92.4806C50.54 92.6297 50.6375 92.7787 50.7426 92.9278L50.8102 92.8384Z" fill="#FDFDFD"/>
    </g>
    <defs>
        <clipPath id="clip0_47_3790">
            <rect width="112" height="133" fill="white"/>
        </clipPath>
    </defs>
</svg>
