<svg width="112" height="108" viewBox="0 0 112 108" fill="none" xmlns="http://www.w3.org/2000/svg">
    <path d="M47.4199 63.0004C56.5657 63.0004 63.9799 55.5862 63.9799 46.4404C63.9799 37.2945 56.5657 29.8804 47.4199 29.8804C38.2741 29.8804 30.8599 37.2945 30.8599 46.4404C30.8599 55.5862 38.2741 63.0004 47.4199 63.0004Z" fill="#FDFDFD"/>
    <path d="M0.839813 46.5801C0.839813 43.8001 0.909815 41.0201 0.809815 38.2401C0.769815 37.1201 1.21981 36.7101 2.17981 36.5501C3.52981 36.3201 4.87982 36.1901 6.24982 36.2901C7.41982 36.3801 8.59982 36.4501 9.77982 36.4201C11.1798 36.3901 12.1398 35.8501 12.4598 34.2701C12.6998 33.0401 13.2598 31.8701 13.7598 30.7001C14.3898 29.2201 14.1498 27.9801 12.9898 26.8601C11.6298 25.5501 10.3198 24.2001 9.00983 22.8501C7.68983 21.4901 7.67981 20.5801 9.01981 19.2301C12.7098 15.5201 16.4098 11.8201 20.1098 8.14014C21.3698 6.89014 22.3298 6.90014 23.6198 8.16014C25.2998 9.81014 26.9898 11.4501 28.6098 13.1601C29.2898 13.8701 29.9198 13.9101 30.7398 13.5001C32.2098 12.7701 33.6898 12.0501 35.2098 11.4201C36.4498 10.9001 37.0598 10.0601 37.0498 8.72014C37.0498 6.74014 37.0798 4.76014 37.1098 2.79014C37.1298 0.800137 37.8398 0.0401367 39.8398 0.0301367C44.9798 0.0101367 50.1098 0.0101367 55.2498 0.0301367C57.1898 0.0301367 57.8798 0.760137 57.8898 2.69014C57.8998 4.95014 57.9198 7.21014 57.8898 9.47014C57.8698 10.5401 58.3898 11.2201 59.3298 11.4601C60.8898 11.8501 62.3498 12.4801 63.7998 13.1501C65.0398 13.7201 66.0598 13.5301 67.0098 12.5901C68.4798 11.1201 69.9498 9.66014 71.4298 8.21014C72.7998 6.87014 73.6598 6.86014 75.0398 8.22014C78.6898 11.8401 82.3198 15.4601 85.9298 19.1201C87.4798 20.6901 87.4198 21.5801 85.8098 23.1501C84.2998 24.6301 82.7998 26.1301 81.2598 27.5801C80.4598 28.3301 80.2898 29.0701 80.8198 30.0801C81.5798 31.5301 82.2398 33.0501 82.9098 34.5501C83.4198 35.7101 84.2598 36.3001 85.5398 36.3101C87.5198 36.3301 89.4998 36.3901 91.4698 36.4301C93.7898 36.4801 94.0998 36.7801 94.1198 39.0301C94.1298 41.6701 94.1398 44.3101 94.1198 46.9401C94.0998 49.4001 93.3898 50.0001 91.0098 49.4401C88.6598 48.8901 86.2898 48.6201 83.8798 48.5901C79.6798 48.5301 75.6498 49.3101 71.7498 50.8601C71.3998 51.0001 71.0498 51.1301 70.6998 51.2601C68.5898 52.0701 67.6898 51.4601 67.7198 49.1601C67.7398 47.4701 67.8698 45.7801 67.6198 44.0801C65.6898 30.9001 53.3098 23.1301 40.6598 27.1701C31.4598 30.1101 25.8798 38.5201 26.5298 48.5001C27.0998 57.4001 34.3398 65.3901 43.2998 67.0501C45.6498 67.4801 47.9798 67.4701 50.3198 67.1301C50.4598 67.1101 50.5998 67.0801 50.7398 67.0601C53.8298 66.6601 54.5798 67.5101 53.6598 70.4901C51.6698 76.9901 51.7498 83.4601 53.8298 89.9301C54.6598 92.5101 54.0698 93.3101 51.3698 93.3301C47.5498 93.3501 43.7398 93.3601 39.9198 93.3501C37.8098 93.3501 37.1098 92.6401 37.1098 90.5501C37.1098 88.5701 37.1598 86.5901 37.1898 84.6201C37.2198 82.8401 36.8098 82.2101 35.1098 81.8001C33.8598 81.5001 32.6998 80.9901 31.5698 80.4201C30.0898 79.6801 28.8898 79.9301 27.7698 81.1001C26.3998 82.5301 24.9798 83.9101 23.5698 85.2901C22.2898 86.5401 21.6598 86.6101 20.3898 85.3701C16.4698 81.5601 12.5998 77.7101 8.73981 73.8501C7.73981 72.8501 7.72981 71.9601 8.73981 70.8801C10.2898 69.2301 11.8898 67.6401 13.5398 66.1001C14.5598 65.1501 14.7598 64.2601 14.0998 62.9901C13.3698 61.5801 12.7698 60.0801 12.2598 58.5701C11.8598 57.3801 11.1798 56.9501 9.96982 57.0001C7.89982 57.0801 5.81982 57.0801 3.74982 57.0301C1.96982 56.9901 0.619805 56.8501 0.799805 54.2101C0.979805 51.6801 0.839813 49.1201 0.839813 46.5801ZM4.45981 46.5801C4.45981 48.3701 4.49982 50.1601 4.43982 51.9501C4.39982 53.0401 4.75983 53.4901 5.88983 53.4501C7.86983 53.3801 9.8498 53.4301 11.8298 53.4301C13.8198 53.4301 14.6098 53.9601 15.1298 55.8101C15.8598 58.4001 16.8798 60.8701 18.1798 63.2201C19.0298 64.7601 18.8698 65.7701 17.6198 67.0301C16.2298 68.4401 14.8598 69.8701 13.3798 71.1801C12.4098 72.0401 12.5198 72.6601 13.3698 73.4901C15.8698 75.9201 18.3498 78.3701 20.7698 80.8801C21.6098 81.7501 22.1798 81.6701 22.9598 80.8301C24.4098 79.2801 25.9498 77.8201 27.4298 76.3101C28.4298 75.2901 29.5598 75.1601 30.7598 75.8701C33.2098 77.3101 35.8298 78.3201 38.5398 79.1401C40.1698 79.6301 40.6798 80.3101 40.6898 82.0001C40.6898 84.0301 40.7098 86.0501 40.6498 88.0801C40.6098 89.3701 41.1598 89.8601 42.4198 89.8201C44.3498 89.7701 46.2798 89.8001 48.2098 89.8001C49.7098 89.8001 49.9698 89.5301 49.5998 88.0301C48.3498 82.9101 48.2498 77.7901 49.4098 72.6401C49.7798 71.0101 49.6998 70.9601 48.0298 70.9501C47.7498 70.9501 47.4598 70.9501 47.1798 70.9501C33.6798 71.2301 20.9298 58.8501 23.0198 43.5801C25.2398 27.3801 42.4098 17.6401 57.1698 24.6001C65.5798 28.5701 70.2598 35.3601 71.2198 44.6501C71.4598 46.9801 71.5098 47.0101 73.7798 46.3601C78.6798 44.9501 83.6298 44.3701 88.6898 45.5001C90.0798 45.8101 90.6398 45.3201 90.6698 43.9101C90.6898 43.0601 90.5698 42.2101 90.6098 41.3701C90.6598 40.2601 90.1698 39.8601 89.0898 39.8901C87.1098 39.9501 85.1298 39.9301 83.1498 39.9301C81.1498 39.9301 80.4598 39.4201 79.8898 37.5001C79.1398 34.9701 78.1698 32.5301 76.8598 30.2301C75.9198 28.5801 76.0798 27.6801 77.4298 26.3201C78.8898 24.8501 80.3498 23.3701 81.8598 21.9501C82.5698 21.2901 82.6098 20.7901 81.8998 20.0901C79.3098 17.5501 76.7398 14.9901 74.1998 12.4001C73.4598 11.6501 72.9398 11.6601 72.2198 12.4201C70.7998 13.9301 69.3198 15.3801 67.8398 16.8301C66.5698 18.0801 65.6198 18.2201 64.0298 17.3601C61.7098 16.1001 59.2998 15.0601 56.7398 14.3501C54.7698 13.8101 54.1698 12.8801 54.2098 10.8401C54.2498 8.91014 54.2098 6.98014 54.2898 5.05014C54.3398 3.93014 53.8798 3.55014 52.7998 3.56014C49.2698 3.59014 45.7398 3.59014 42.1998 3.56014C41.0298 3.55014 40.6198 4.05014 40.6398 5.18014C40.6798 7.35014 40.6198 9.51014 40.6598 11.6801C40.6798 13.0801 40.0098 13.8301 38.6998 14.2001C35.9698 14.9601 33.3798 16.0601 30.8898 17.4001C29.3498 18.2201 28.4598 18.0801 27.2198 16.8401C25.7498 15.3801 24.2798 13.9101 22.8498 12.4201C22.1398 11.6801 21.5398 11.6801 20.8198 12.4001C18.3298 14.9101 15.8398 17.4101 13.3098 19.8801C12.4898 20.6801 12.4698 21.3301 13.3098 22.1201C14.8198 23.5401 16.2498 25.0401 17.7398 26.4901C18.7898 27.5201 18.9798 28.6901 18.2798 29.9501C16.9098 32.4301 15.8298 35.0201 15.0598 37.7501C14.5898 39.4201 13.8398 39.9001 12.0398 39.9101C10.0598 39.9201 8.07982 39.9401 6.09982 39.8701C4.90982 39.8301 4.35981 40.2001 4.42981 41.4801C4.50981 43.1701 4.44983 44.8701 4.44983 46.5701L4.45981 46.5801Z" fill="black"/>
    <path d="M111.33 79.9801C111.33 81.4401 111.35 82.9001 111.33 84.3601C111.31 85.9401 110.81 86.5001 109.27 86.6401C108.52 86.7101 107.76 86.7301 107.02 86.6301C105.49 86.4201 104.63 87.1701 104.05 88.4501C103.48 89.7001 103.81 90.6701 104.8 91.6001C108.06 94.6601 108.05 94.7701 104.91 97.9101C103.31 99.5101 101.7 101.09 100.07 102.66C98.9099 103.78 98.0899 103.79 96.8799 102.73C96.4199 102.33 95.9499 101.91 95.5999 101.42C94.7099 100.18 93.6499 99.8301 92.1699 100.35C90.7099 100.86 90.1999 101.83 90.3399 103.27C90.4299 104.14 90.1399 104.97 90.2599 105.88C90.3999 106.94 89.5499 107.64 88.4799 107.66C85.2799 107.72 82.0699 107.73 78.8699 107.66C77.5899 107.64 76.9399 106.77 76.8699 105.52C76.8199 104.58 76.8099 103.63 76.8699 102.69C76.9299 101.45 76.3298 100.76 75.2098 100.39C74.0398 100 72.9398 99.7901 72.0198 100.97C71.4998 101.63 70.8799 102.22 70.2599 102.79C69.3199 103.66 68.2699 103.7 67.3499 102.81C65.0899 100.61 62.8599 98.3801 60.6699 96.1101C59.7699 95.1801 59.8798 94.1401 60.7698 93.2201C61.2598 92.7101 61.7598 92.2101 62.2998 91.7501C63.7798 90.5001 63.7999 88.1301 62.3099 86.8501C62.0099 86.5901 61.6399 86.4901 61.2499 86.5801C60.3599 86.7701 59.4599 86.6101 58.5699 86.5601C56.4799 86.4501 55.9698 85.9801 55.9298 83.9401C55.8798 81.1101 55.8898 78.2901 55.9298 75.4601C55.9498 73.8501 56.6698 73.1801 58.2998 73.1501C58.9098 73.1401 59.5299 73.1101 60.1399 73.1801C61.6799 73.3601 62.6198 72.6901 63.2398 71.3101C63.8698 69.9101 63.2399 69.0301 62.2799 68.1101C59.2099 65.1401 59.2299 65.1001 62.2799 62.0401C63.8399 60.4701 65.3999 58.9001 66.9699 57.3401C68.3599 55.9601 69.0899 55.9501 70.5599 57.3001C70.9799 57.6801 71.3698 58.0901 71.7398 58.5101C72.9198 59.8201 73.8198 60.0201 75.4898 59.3201C76.3598 58.9501 76.8399 58.3501 76.8399 57.3801C76.8399 56.3001 76.8399 55.2101 76.9199 54.1301C77.0099 52.9301 77.6199 52.2501 78.9099 52.2501C81.9199 52.2501 84.9199 52.1501 87.9299 52.1701C89.6699 52.1801 90.2998 52.8901 90.3298 54.6001C90.3398 55.2101 90.3698 55.8301 90.2998 56.4401C90.1498 57.8101 90.5499 58.7901 91.9099 59.3701C93.3199 59.9701 94.3899 59.7201 95.4399 58.5901C98.2699 55.5201 98.4599 55.5401 101.41 58.4701C102.98 60.0301 104.55 61.5901 106.1 63.1701C107.54 64.6301 107.53 65.5201 106.08 67.0101C105.69 67.4201 105.28 67.8101 104.86 68.1801C103.88 69.0301 103.42 69.9901 103.99 71.3001C104.54 72.5601 105.4 73.2501 106.82 73.1801C107.57 73.1401 108.33 73.1301 109.08 73.1601C110.67 73.2201 111.29 73.8401 111.32 75.4201C111.34 76.9301 111.32 78.4401 111.32 79.9401L111.33 79.9801ZM83.6199 55.7301C83.3399 55.7401 83.0498 55.7301 82.7698 55.7501C81.2432 55.7768 80.4965 56.5668 80.5299 58.1201C80.5799 60.5201 79.5599 61.8801 77.1899 62.4901C76.2699 62.7301 75.4199 63.0601 74.5999 63.5401C73.5299 64.1701 72.3898 64.1801 71.4598 63.2901C68.4598 60.4301 68.6499 60.9001 65.7599 63.6201C65.6199 63.7501 65.4999 63.9001 65.3499 64.0101C64.3199 64.7901 64.4099 65.3801 65.4499 66.1801C67.8199 67.9801 68.1199 69.9501 66.5599 72.4601C66.2099 73.0301 65.9499 73.6001 65.7899 74.2601C65.3699 76.0101 64.5198 76.6801 62.7098 76.8101C60.4965 76.9568 59.4265 78.1635 59.4999 80.4301C59.4999 80.4301 59.4999 80.5201 59.4999 80.5701C59.5799 82.6901 59.7399 82.9901 61.8499 83.0101C63.4399 83.0301 64.4199 83.7701 65.2199 84.9401C65.7499 85.7101 66.2599 86.5201 66.6499 87.3701C68.1699 90.7101 67.8198 91.7301 65.4598 93.4401C64.3298 94.2501 64.3498 95.0201 65.3598 96.0201C66.0598 96.7201 66.8399 97.3201 67.5599 98.0101C68.8799 99.2601 68.8699 99.2801 69.9999 97.9001C71.7899 95.7301 73.5599 95.4301 75.9199 96.9001C76.3599 97.1701 76.7999 97.4101 77.3099 97.5501C80.2599 98.3101 80.7599 99.1101 80.3099 102.19C80.1199 103.51 80.6299 104.14 81.9999 104.16C82.7499 104.17 83.5099 103.97 84.2499 104.05C87.1599 104.34 86.6698 103.67 86.7698 101.64C86.8198 100.63 86.6499 99.4201 87.6299 98.7801C91.3299 96.3601 94.6099 94.9201 97.7599 98.2701C98.4399 99.0001 99.1398 98.9001 99.7698 98.0901C100.35 97.3601 100.82 96.5301 101.61 95.9601C103.03 94.9201 103.02 94.8001 101.63 93.6101C99.4999 91.7801 99.1599 89.9001 100.53 87.4801C100.8 86.9901 101.09 86.5001 101.27 85.9701C102.12 83.4301 102.56 83.0901 105.19 83.0701C105.52 83.0701 105.85 83.0701 106.18 83.0701C107.15 83.1101 107.71 82.7401 107.67 81.6801C107.65 81.2601 107.71 80.8301 107.71 80.4101C107.71 76.4901 107.62 77.0101 104.41 76.7201C102.45 76.5401 101.67 75.8701 101.16 73.9701C100.92 73.0601 100.8 72.1201 100.35 71.2801C99.1599 69.0601 99.1799 68.9201 100.89 67.0301C102.71 65.0301 102.71 64.9801 100.86 63.0401C98.5198 60.5801 98.4999 60.5601 96.0599 62.9801C95.0899 63.9501 94.0799 64.2001 92.8799 63.6001C91.6999 63.0201 90.4699 62.5801 89.2199 62.1701C87.4099 61.5801 86.5999 60.3001 86.6199 58.4201C86.6399 56.6201 85.7299 55.7168 83.8899 55.7101C83.7999 55.7101 83.6998 55.7101 83.6098 55.7101L83.6199 55.7301Z" fill="black"/>
    <path d="M47.21 29.0901C50.92 29.0301 54.25 30.1801 57.26 32.2901C57.94 32.7701 58.73 33.2601 58.65 34.2701C58.55 35.5701 57.29 36.2401 56.07 35.6401C54.52 34.8801 53.14 33.7901 51.42 33.3101C45.85 31.7601 40.87 32.8401 36.91 37.0301C32.78 41.3901 31.81 46.6401 34.19 52.1901C36.49 57.5601 40.8 60.4501 46.63 60.7101C56.96 61.1701 64.18 50.2601 59.86 40.8601C58.99 38.9701 59.1 38.2001 60.31 37.6101C61.45 37.0501 62.29 37.4101 62.91 38.7001C66.47 46.1401 64.81 54.4101 58.64 59.9401C53.28 64.7401 47.16 65.4401 40.6 63.0501C34.2 60.7101 30.65 55.8901 29.65 49.3101C28 38.4501 36.23 29.1001 47.21 29.1101V29.0901Z" fill="black"/>
    <path d="M4.45996 46.58C4.45996 44.88 4.51997 43.18 4.43997 41.49C4.37997 40.21 4.92995 39.84 6.10995 39.88C8.08995 39.94 10.07 39.93 12.05 39.92C13.84 39.92 14.59 39.43 15.07 37.76C15.84 35.03 16.92 32.44 18.29 29.96C18.99 28.7 18.8 27.53 17.75 26.5C16.27 25.05 14.83 23.55 13.32 22.13C12.48 21.33 12.49 20.69 13.32 19.89C15.85 17.42 18.34 14.92 20.83 12.41C21.55 11.69 22.16 11.69 22.86 12.43C24.29 13.93 25.76 15.4 27.23 16.85C28.47 18.08 29.37 18.23 30.9 17.41C33.4 16.07 35.99 14.97 38.71 14.21C40.02 13.84 40.7 13.1 40.67 11.69C40.63 9.52002 40.7 7.36002 40.65 5.19002C40.63 4.06002 41.04 3.56002 42.21 3.57002C45.74 3.61002 49.27 3.61002 52.81 3.57002C53.89 3.56002 54.34 3.94002 54.3 5.06002C54.22 6.99002 54.26 8.92002 54.22 10.85C54.18 12.89 54.78 13.81 56.75 14.36C59.31 15.06 61.71 16.11 64.04 17.37C65.63 18.23 66.58 18.09 67.85 16.84C69.33 15.39 70.81 13.93 72.23 12.43C72.94 11.67 73.47 11.66 74.21 12.41C76.75 15 79.32 17.56 81.91 20.1C82.62 20.8 82.58 21.29 81.87 21.96C80.36 23.38 78.9 24.85 77.44 26.33C76.09 27.69 75.94 28.59 76.87 30.24C78.18 32.54 79.15 34.98 79.9 37.51C80.47 39.44 81.16 39.93 83.16 39.94C85.14 39.94 87.12 39.96 89.1 39.9C90.18 39.87 90.67 40.26 90.62 41.38C90.58 42.22 90.7 43.08 90.68 43.92C90.65 45.33 90.09 45.82 88.7 45.51C83.64 44.39 78.69 44.97 73.79 46.37C71.51 47.02 71.47 47 71.23 44.66C70.27 35.37 65.6 28.58 57.18 24.61C42.42 17.65 25.25 27.39 23.03 43.59C20.94 58.86 33.68 71.24 47.19 70.96C47.47 70.96 47.76 70.96 48.04 70.96C49.71 70.96 49.79 71.01 49.42 72.65C48.27 77.8 48.37 82.92 49.61 88.04C49.98 89.55 49.72 89.81 48.22 89.81C46.29 89.81 44.36 89.78 42.43 89.83C41.17 89.86 40.62 89.38 40.66 88.09C40.73 86.07 40.71 84.04 40.7 82.01C40.7 80.32 40.18 79.64 38.55 79.15C35.84 78.33 33.22 77.32 30.77 75.88C29.57 75.17 28.44 75.31 27.44 76.32C25.95 77.83 24.41 79.29 22.97 80.84C22.19 81.67 21.62 81.76 20.78 80.89C18.36 78.38 15.88 75.93 13.38 73.5C12.53 72.67 12.42 72.05 13.39 71.19C14.87 69.88 16.24 68.45 17.63 67.04C18.88 65.78 19.04 64.77 18.19 63.23C16.89 60.87 15.87 58.41 15.14 55.82C14.62 53.97 13.83 53.44 11.84 53.44C9.85996 53.44 7.87996 53.4 5.89996 53.46C4.76996 53.5 4.40998 53.04 4.44998 51.96C4.50998 50.17 4.46997 48.38 4.46997 46.59L4.45996 46.58Z" fill="#FCFCFC"/>
    <path d="M83.6096 55.73C83.6996 55.73 83.7996 55.73 83.8896 55.73C85.7296 55.7366 86.6396 56.64 86.6196 58.44C86.5996 60.32 87.4096 61.59 89.2196 62.19C90.4696 62.6 91.6996 63.04 92.8796 63.62C94.0796 64.21 95.0896 63.96 96.0596 63C98.4896 60.58 98.5196 60.6 100.86 63.06C102.71 65 102.71 65.05 100.89 67.05C99.1796 68.94 99.1596 69.08 100.35 71.3C100.8 72.14 100.92 73.08 101.16 73.99C101.67 75.89 102.45 76.56 104.41 76.74C107.62 77.04 107.71 76.52 107.71 80.43C107.71 80.85 107.65 81.28 107.67 81.7C107.72 82.76 107.16 83.13 106.18 83.09C105.85 83.08 105.52 83.09 105.19 83.09C102.56 83.11 102.12 83.46 101.27 85.99C101.09 86.52 100.81 87.01 100.53 87.5C99.1596 89.93 99.4996 91.8 101.63 93.63C103.02 94.82 103.03 94.94 101.61 95.98C100.83 96.55 100.35 97.37 99.7696 98.11C99.1396 98.91 98.4396 99.01 97.7596 98.29C94.6096 94.94 91.3296 96.38 87.6296 98.8C86.6496 99.44 86.8196 100.65 86.7696 101.66C86.6696 103.69 87.1596 104.36 84.2496 104.07C83.5096 104 82.7496 104.19 81.9996 104.18C80.6296 104.16 80.1196 103.54 80.3096 102.21C80.7596 99.13 80.2596 98.33 77.3096 97.57C76.7896 97.44 76.3496 97.2 75.9196 96.92C73.5596 95.44 71.7896 95.74 69.9996 97.92C68.8696 99.29 68.8796 99.28 67.5596 98.03C66.8396 97.35 66.0596 96.74 65.3596 96.04C64.3596 95.04 64.3396 94.27 65.4596 93.46C67.8196 91.75 68.1796 90.73 66.6496 87.39C66.2596 86.54 65.7496 85.74 65.2196 84.96C64.4196 83.79 63.4396 83.05 61.8496 83.03C59.7396 83 59.5796 82.7 59.4996 80.59C59.4996 80.54 59.4996 80.5 59.4996 80.45C59.4263 78.1833 60.4963 76.9767 62.7096 76.83C64.5196 76.71 65.3696 76.03 65.7896 74.28C65.9496 73.63 66.2096 73.05 66.5596 72.48C68.1196 69.97 67.8196 68 65.4496 66.2C64.3996 65.4 64.3096 64.81 65.3496 64.03C65.4996 63.92 65.6196 63.77 65.7596 63.64C68.6496 60.92 68.4596 60.45 71.4596 63.31C72.3896 64.2 73.5296 64.19 74.5996 63.56C75.4196 63.08 76.2696 62.75 77.1896 62.51C79.5696 61.9 80.5796 60.54 80.5296 58.14C80.4963 56.5866 81.2429 55.7966 82.7696 55.77C83.0496 55.77 83.3396 55.77 83.6196 55.77L83.6096 55.73ZM98.0396 79.9C98.0296 71.78 91.4296 65.09 83.3996 65.07C75.2396 65.05 68.5896 71.83 68.5796 80.21C68.5596 87.95 75.4396 94.72 83.2996 94.71C91.5196 94.7 98.0496 88.13 98.0396 79.9Z" fill="black"/>
    <path d="M98.0499 79.9101C98.0599 88.1401 91.5199 94.7101 83.3099 94.7201C75.4499 94.7301 68.5699 87.9601 68.5899 80.2201C68.6099 71.8501 75.2499 65.0601 83.4099 65.0801C91.4299 65.1001 98.0399 71.7901 98.0499 79.9101ZM94.5799 79.9701C94.5699 73.7901 89.4899 68.6801 83.3699 68.7001C77.2199 68.7201 72.0999 73.8401 72.1199 79.9601C72.1399 86.0301 77.3899 91.2401 83.4399 91.1901C89.4999 91.1301 94.5999 86.0001 94.5899 79.9701H94.5799Z" fill="black"/>
    <path d="M94.5799 79.9703C94.5899 86.0003 89.4899 91.1303 83.4299 91.1903C77.3799 91.2503 72.1299 86.0403 72.1099 79.9603C72.0899 73.8503 77.2099 68.7203 83.3599 68.7003C89.4799 68.6803 94.5599 73.7803 94.5699 79.9703H94.5799ZM83.4299 71.7903C78.8899 71.7703 75.15 75.3803 75.14 79.8303C75.14 84.4003 78.7799 88.0303 83.3499 88.0903C87.8499 88.1603 91.4899 84.5103 91.5299 79.9603C91.5699 75.4203 87.9799 71.8103 83.4299 71.7903Z" fill="white"/>
    <path d="M83.4296 71.7901C87.9896 71.8101 91.5697 75.4301 91.5297 79.9601C91.4897 84.5101 87.8497 88.1501 83.3497 88.0901C78.7797 88.0201 75.1297 84.4001 75.1397 79.8301C75.1397 75.3901 78.8896 71.7701 83.4296 71.7901ZM78.8097 79.9601C78.8097 82.4701 80.8796 84.5101 83.3996 84.4901C85.9696 84.4701 87.9397 82.4601 87.9097 79.8901C87.8797 77.3001 85.9196 75.3701 83.3296 75.3901C80.7496 75.4101 78.8097 77.3801 78.8197 79.9601H78.8097Z" fill="black"/>
    <path d="M78.8098 79.9603C78.8098 77.3803 80.7398 75.4103 83.3198 75.3903C85.9098 75.3703 87.8698 77.3003 87.8998 79.8903C87.9298 82.4503 85.9598 84.4603 83.3898 84.4903C80.8798 84.5103 78.8098 82.4703 78.7998 79.9603H78.8098Z" fill="#FCFCFC"/>
</svg>
