<svg width="117" height="128" viewBox="0 0 117 128" fill="none" xmlns="http://www.w3.org/2000/svg">
    <g clip-path="url(#clip0_47_3825)">
        <path d="M61.4325 63.745C61.7855 64.176 61.3676 65.62 62.506 64.9663C71.4406 59.8009 80.7067 54.9731 82.7962 43.3276C83.5744 39.0028 83.4015 35.4394 79.2512 32.6807C75.9656 30.4967 74.6686 26.9765 74.7047 23.0108C74.7335 19.9001 74.7047 16.7894 74.7047 13.6786C74.7047 10.259 75.6341 9.41124 78.682 10.9415C81.0597 12.1412 82.6089 12.0263 84.0788 9.92131C85.4694 7.92412 86.8384 8.06062 88.2362 9.92131C89.7133 11.8898 91.1832 12.3064 93.633 10.9774C96.6593 9.3394 97.596 10.1943 97.6104 13.6211C97.6104 16.0135 97.4735 18.413 97.6392 20.7981C98.0283 26.373 96.3062 30.8918 91.5219 34.0816C89.526 35.4107 89.0649 37.4294 89.0288 39.714C88.928 45.878 86.8384 51.3882 83.279 56.3884C82.5945 57.3511 82.0757 58.5508 80.1519 57.7606C86.1035 51.4098 87.6526 43.5934 87.7679 35.2454H84.5399C85.8801 47.6237 80.4041 56.4028 69.7906 62.4159C68.1262 63.357 66.5771 64.5065 64.8838 65.3758C63.1906 66.245 62.679 67.4376 63.3851 69.4995C68.4937 66.3097 73.5518 63.1559 78.6099 60.002C78.7829 60.2678 78.963 60.5408 79.1359 60.8066C75.0937 65.0812 69.3295 67.0425 64.5163 70.8429C67.0166 72.4665 69.3799 74.0183 71.7577 75.5341C77.0536 78.9179 80.4833 83.6522 81.91 89.7372C82.3711 91.6985 83.2934 92.3091 85.2676 92.5965C91.666 93.5448 98.0211 94.8883 103.922 97.6398C107.222 99.1772 110.789 100.65 111.971 104.695C111.531 104.695 111.084 104.687 110.645 104.68C109.146 102.424 107.064 100.88 104.65 99.7016C98.3381 96.6124 91.5147 95.3265 84.6912 94.0333C83.0989 93.7316 82.5368 94.1842 82.6521 95.8365C82.8899 99.2418 81.7298 102.446 80.858 105.664C80.3536 107.54 79.5682 109.616 76.9959 108.861C74.5966 108.165 74.6398 106.246 75.2306 104.185C76.052 101.325 76.8807 98.4731 76.8951 95.4199C76.8951 93.5807 76.2394 92.8408 74.5029 92.7689C71.0299 92.6252 67.5498 92.5678 64.0912 92.2517C61.9152 92.0577 61.5045 92.9557 61.5693 94.8667C61.6918 98.4516 61.6342 102.044 61.591 105.629C61.5694 107.547 60.6831 108.962 58.644 108.984C56.5544 109.005 55.8051 107.59 55.8051 105.636C55.8051 101.929 55.697 98.2217 55.7619 94.5147C55.7907 92.8911 55.4448 92.0792 53.5787 92.2229C50.1129 92.4887 46.6327 92.6396 43.1598 92.7114C40.7099 92.7617 40.0038 94.0836 40.3713 96.1814C40.818 98.7677 41.38 101.332 41.9853 103.883C42.4825 105.973 42.958 108.15 40.2344 108.876C37.6981 109.551 36.9848 107.54 36.43 105.607C35.5077 102.388 34.5494 99.1772 34.6647 95.7719C34.7007 94.8236 34.8448 93.7172 33.2668 93.9974C24.6637 95.5348 15.9525 96.7849 8.70391 102.281C7.01786 103.56 5.99471 105.298 6.6576 107.575C6.10999 107.575 5.55518 107.575 5.00758 107.575C4.35189 103.394 7.02507 101.174 10.0945 99.364C16.9036 95.348 24.5484 93.8681 32.2077 92.5031C33.4614 92.2804 34.6575 92.4816 35.0682 90.5921C36.9776 81.7053 42.886 76.1448 50.8334 72.3875C50.9055 72.8257 50.9775 73.2711 51.0496 73.7094C50.1633 74.2985 49.2987 74.9163 48.3908 75.4695C37.7702 81.9568 34.0018 91.3034 37.4387 103.222C37.8566 104.673 37.4603 107.827 39.8525 107.159C42.0934 106.534 40.3064 104.048 39.9102 102.503C37.0568 91.3465 40.1119 83.7816 50.0841 77.675C51.5035 76.8057 52.9086 75.9077 54.3208 75.0241C54.4073 75.5126 54.5009 76.0011 54.5874 76.4896C52.397 77.9193 50.1417 79.2699 48.0378 80.8145C46.7048 81.7915 45.4438 82.9554 44.4063 84.2413C42.8499 86.1739 40.6595 88.4728 41.625 90.7861C42.1654 92.0864 45.343 90.9226 47.3316 90.901C49.9544 90.8723 53.2328 91.483 55.0197 90.1754C56.9579 88.7602 55.5097 85.3118 55.7402 82.7686C55.7907 82.1795 55.7186 81.5617 56.3527 81.1809C57.6929 81.2096 57.311 82.2585 57.311 82.9841C57.347 89.7947 57.2966 96.5981 57.3975 103.409C57.4191 104.781 56.4608 107.188 58.6296 107.245C60.7696 107.302 60.0562 104.889 60.0634 103.495C60.1283 91.4327 60.1139 79.3705 60.1283 67.3011C60.1283 66.1085 60.222 64.916 60.2724 63.7306C60.6615 63.7306 61.0578 63.7306 61.4469 63.7234L61.4325 63.745ZM61.6054 76.1807C61.6054 80.7211 61.6918 84.6365 61.5693 88.5446C61.5045 90.4269 62.4268 90.6568 63.9543 90.6999C67.3048 90.7861 70.6625 90.8579 73.9913 91.2315C76.3691 91.4973 76.3547 90.6927 75.6413 88.9039C74.7191 86.5834 73.3212 84.5862 71.6208 82.6752C73.5734 81.8778 74.2075 83.2715 74.9136 84.2916C78.3145 89.184 79.1431 94.5793 77.875 100.334C77.5147 101.965 77.0608 103.574 76.6357 105.183C76.4051 106.052 76.3979 106.943 77.3346 107.317C78.4442 107.762 78.8333 106.807 79.0783 106.031C80.6635 100.995 81.8379 95.9299 80.6202 90.5778C78.4586 81.0588 71.2821 76.4034 62.9023 72.1217C63.1329 77.6535 69.3151 77.1434 70.5472 81.3749C67.7731 79.7584 64.9991 78.1492 61.6054 76.1735V76.1807ZM85.1091 32.1922C84.367 27.1776 83.7689 22.2278 82.8539 17.3354C82.4215 15.0149 80.649 13.4703 78.4802 12.4645C77.0032 11.782 76.2682 12.0406 76.297 13.8295C76.3619 17.3928 76.1385 20.9777 76.3835 24.5267C76.6861 28.7797 79.6115 32.0772 83.3366 33.1261C84.4318 33.435 85.2388 33.7296 85.0947 32.1922H85.1091ZM87.0402 33.4135C92.8477 32.1634 95.5352 29.3544 95.9531 24.2034C96.1765 21.4806 96.1621 18.7291 96.0252 15.9991C95.9604 14.7131 96.9475 12.7878 95.3407 12.2418C93.8852 11.7389 92.4802 13.0752 91.3561 14.1671C90.4987 15.0005 89.7277 15.9488 89.5332 17.1701C88.6902 22.5223 87.8832 27.8817 87.033 33.4207L87.0402 33.4135Z" fill="#232323"/>
        <path d="M5.00773 107.59C5.55534 107.59 6.11015 107.59 6.65775 107.59C9.72001 112.475 14.8718 114.034 19.9083 115.413C41.8846 121.426 64.1562 121.462 86.5071 117.942C93.4891 116.843 100.399 115.284 106.56 111.548C109.096 110.011 111.293 108.165 110.631 104.695C111.07 104.695 111.517 104.702 111.956 104.709C113.455 114.803 111.546 118.28 101.927 121.843C89.8936 126.297 77.2915 127.569 64.5669 127.907C49.4357 128.316 34.4054 127.54 19.757 123.309C17.2424 122.583 14.7565 121.649 12.4076 120.521C5.62018 117.26 4.48174 115.155 5.00773 107.59Z" fill="#0F0F0F"/>
        <path d="M51.0424 73.7236C50.9704 73.2854 50.8983 72.84 50.8263 72.4018C51.0064 71.5109 53.9174 71.59 51.7414 69.8586C52.0296 69.5353 52.3106 69.212 52.5988 68.8815C53.2473 68.9462 54.2128 70.1172 54.3569 68.4146C54.4794 67.0136 53.1248 65.153 55.7115 64.492C55.9276 64.4345 55.7763 62.9187 55.7763 62.0853C55.7763 51.9198 55.7043 41.7542 55.7979 31.5958C55.8268 28.7078 54.9261 26.5597 52.4979 24.9145C48.852 22.4504 47.1804 18.9014 47.238 14.5119C47.2741 11.2862 47.411 8.04615 47.2092 4.82765C47.0075 1.58042 48.6719 1.21402 50.8623 2.46407C53.3986 3.90808 55.1783 3.60635 56.8067 1.2715C57.9307 -0.337752 59.1268 -0.517356 60.4166 1.19966C62.0089 3.33335 63.7382 4.10924 66.397 2.47844C68.5442 1.15655 70.2518 1.60915 70.0068 4.8492C69.8051 7.58637 69.8771 10.3523 70.0357 13.0966C70.3455 18.3123 68.5297 22.4288 64.1561 25.3887C62.2035 26.7106 61.519 28.5641 61.5406 30.9277C61.6198 39.7785 61.5622 48.6294 61.5478 57.4803C61.5478 58.2634 61.764 59.1326 61.0146 59.6858C59.9986 59.6571 60.1428 58.953 60.1428 58.4142C60.2004 48.2558 60.3301 38.1046 60.3013 27.9462C60.2941 24.7852 57.8226 27.4434 56.6626 26.222C57.8371 32.4866 57.167 38.3345 57.2462 44.1537C57.3831 54.427 57.3039 64.7075 57.2822 74.9881C57.2822 75.9004 57.765 77.0643 56.9076 77.6893C55.5818 78.6592 55.9493 75.7783 54.573 76.4895C54.4866 76.001 54.3929 75.5125 54.3064 75.024C54.9405 70.3615 52.4835 73.271 51.0424 73.7021V73.7236ZM68.5802 11.1784C68.5802 9.86374 68.6739 9.13096 68.5586 8.4341C68.2992 6.81766 69.5601 4.217 67.7083 3.77877C65.6548 3.29024 63.8247 5.28025 62.6502 7.14813C62.1026 8.01741 61.7928 9.10941 61.6271 10.1439C61.0794 13.5492 60.4814 16.9545 60.2436 20.3885C60.1428 21.8685 58.4783 24.0309 60.3373 24.778C62.0233 25.4533 63.9111 23.8082 65.3234 22.5294C66.1808 21.7535 66.8725 20.719 67.4201 19.6773C68.926 16.8108 68.537 13.657 68.5874 11.1856L68.5802 11.1784ZM48.7728 10.5678C48.7728 12.2345 48.6863 13.9084 48.7872 15.5751C49.0394 19.7563 51.1505 22.6946 54.9621 24.4404C56.8427 25.3025 57.8443 25.2306 57.4263 22.6731C56.749 18.5637 56.3239 14.4185 55.7547 10.2948C55.3872 7.64384 54.011 5.61791 51.6549 4.34631C49.9761 3.43393 48.4341 2.93104 48.7511 5.93401C48.9169 7.46424 48.78 9.03038 48.7728 10.575V10.5678Z" fill="#0F0F0F"/>
        <path d="M-0.000118898 61.1299C9.32357 61.1299 18.2942 60.8641 27.2288 61.2305C32.7985 61.4532 37.3739 64.3772 41.2575 68.4075C43.5344 70.7711 41.1927 71.5757 40.1263 72.9479C38.6276 74.8588 37.7846 73.6088 36.8983 72.3947C35.1402 69.9808 33.4037 69.4779 30.3487 70.9435C19.3318 76.231 5.47592 71.7481 -0.00732422 61.1371L-0.000118898 61.1299ZM2.58659 62.4374C5.11566 65.9721 7.80324 67.8758 10.8079 69.4204C11.8454 69.9521 12.5876 69.9018 13.6612 69.1905C22.5309 63.3858 29.412 63.8384 37.482 70.6274C38.2097 71.238 38.7069 72.2223 39.7805 71.1087C40.7892 70.067 40.011 69.4276 39.3337 68.7379C36.4012 65.7565 32.9426 63.6659 28.7779 63.0625C20.3405 61.8412 11.867 62.8541 2.58659 62.4303V62.4374ZM31.5952 68.6446C25.4275 65.5697 19.1228 66.4175 14.8356 70.8214C20.7368 72.3372 26.1552 71.6332 31.5952 68.6446Z" fill="#232323"/>
        <path d="M96.7027 73.1418C93.2514 73.2927 89.8577 72.6964 86.9827 70.9866C84.079 69.248 82.1624 69.7294 80.4259 72.3156C79.3811 73.8674 78.4156 74.4278 76.8593 72.7611C75.5119 71.3099 74.0564 70.3616 76.1748 68.2207C80.5052 63.8312 85.6137 61.2161 91.7383 61.0581C99.5056 60.8641 107.28 61.0293 115.047 61.0581C115.696 61.0581 116.568 60.6199 116.921 61.5322C117.223 62.3153 116.532 62.8685 116.121 63.4001C111.207 69.7437 104.751 73.0556 96.6955 73.149L96.7027 73.1418ZM114.579 62.5021C106.841 62.5021 99.7866 62.4303 92.7326 62.5236C87.1269 62.5955 82.1768 64.4849 78.1562 68.4793C77.4861 69.1403 76.2324 69.7509 77.4789 71.0728C78.7903 72.4593 79.2947 71.0297 79.9792 70.4478C87.4511 64.018 95.0887 63.4863 103.267 68.896C104.16 69.4851 104.816 70.2322 106.098 69.6C109.319 67.998 112.209 66.0582 114.586 62.5165L114.579 62.5021ZM102.539 70.7208C97.906 66.4318 91.6806 65.62 85.4696 68.6445C91.1042 71.4679 96.5298 72.5312 102.539 70.7208Z" fill="#232323"/>
        <path d="M51.7415 69.8587C46.532 66.7408 40.9839 64.097 36.704 59.6213C31.8332 54.5277 28.9078 48.5218 28.3963 41.4669C28.281 39.8649 27.7982 38.9812 26.2563 38.2341C21.9043 36.1147 19.6706 32.5298 19.721 27.6159C19.7499 24.3974 19.7066 21.1717 19.721 17.946C19.7283 14.2893 20.4416 13.8295 23.9506 15.216C25.1971 15.7046 26.3211 17.0336 27.7838 15.6686C27.9567 16.9762 29.0447 18.4992 26.9264 19.2607C26.1122 18.5854 25.3628 17.8023 24.4694 17.2563C23.6912 16.7822 22.7977 16.0207 21.8466 16.5092C20.7874 17.0552 21.3783 18.2118 21.3567 19.0739C21.2846 22.1559 21.2342 25.2523 21.3567 28.3343C21.5656 33.6146 25.3916 37.4007 30.176 37.2139C30.7596 37.7599 30.6083 38.4855 30.6731 39.1608C29.0808 40.418 29.9526 42.0704 30.2048 43.4354C31.6891 51.5175 35.7745 57.9905 42.7132 62.5452C45.9844 64.6933 49.3061 66.7623 52.6061 68.8745C52.3179 69.1977 52.0369 69.521 51.7487 69.8515L51.7415 69.8587Z" fill="#232323"/>
        <path d="M26.9263 19.2607C29.0446 18.4992 27.9566 16.9761 27.7837 15.6686C29.8204 13.3314 31.9892 13.2164 34.2901 15.3238C34.9098 15.8985 35.4718 16.5164 36.4229 16.4373C36.7327 16.5954 37.1362 16.9402 36.9777 16.1643C37.1794 16.387 37.9144 16.4876 37.5181 16.8325C34.1892 19.778 33.7857 23.8155 33.267 27.817C32.1789 29.3904 30.392 30.8775 32.5752 32.8962C32.9715 34.527 31.0982 36.28 32.8418 37.8389C32.5969 38.3203 32.3519 38.8088 32.1069 39.2901C31.6313 39.247 31.1558 39.2039 30.6802 39.168C30.6154 38.4927 30.7667 37.7671 30.1831 37.2211C29.6283 32.8747 29.0735 28.5283 28.5114 24.1818C28.8645 24.4261 29.2176 24.7853 29.5778 24.1818C29.2104 23.9663 28.8429 23.7508 28.4754 23.5425L26.9335 19.2607H26.9263Z" fill="#0F0F0F"/>
        <path d="M111.502 58.1054H88.8057C98.7922 49.8652 106.351 49.7862 111.502 58.1054Z" fill="#0F0F0F"/>
        <path d="M6.12451 58.0407C8.76886 51.848 15.7724 48.0332 28.5907 58.0407H6.12451Z" fill="#0F0F0F"/>
        <path d="M32.0924 39.2901C32.3374 38.8088 32.5824 38.3203 32.8274 37.8389C39.2257 35.2383 40.8469 32.8747 40.9333 25.9491C40.9622 23.8011 40.782 21.6315 40.9982 19.505C41.272 16.8325 40.4722 15.7117 37.3667 16.9905C38.1953 14.433 40.0327 14.6126 41.4593 14.7131C43.1238 14.8281 42.3384 16.387 42.3744 17.3138C42.4681 19.8211 42.2159 22.3499 42.4753 24.8284C43.203 31.7755 40.4506 36.5961 34.0234 39.3548C33.5047 39.3763 32.9931 39.4051 32.4743 39.4266L32.2365 39.4841L32.0852 39.2901H32.0924Z" fill="#232323"/>
        <path d="M34.0957 41.4813C35.4575 49.8796 39.7374 56.2519 47.2526 60.4259C49.0107 61.4029 50.6247 62.6314 52.3035 63.745C52.0369 64.0467 51.7775 64.3413 51.5109 64.643C42.951 60.3828 35.652 54.9516 33.3031 44.98C33.0365 43.8449 32.9788 42.6595 32.8203 41.4957C33.2454 41.4957 33.6777 41.4885 34.1029 41.4813H34.0957Z" fill="#232323"/>
        <path d="M12.4148 79.6076C12.6382 77.4451 13.7478 75.9149 16.2264 75.8933C18.6546 75.8718 20.0813 77.2296 20.1677 79.6004C20.2542 82.1723 18.7339 83.7169 16.212 83.6882C13.8631 83.6666 12.5517 82.1651 12.4148 79.6004V79.6076ZM16.1976 82.1436C17.4297 81.9496 18.4529 81.4323 18.5753 79.9955C18.6906 78.6305 18.0205 77.6247 16.6515 77.4523C15.1096 77.2583 14.1441 78.0989 14.0432 79.6722C13.9495 81.1019 14.8862 81.7844 16.1976 82.1364V82.1436Z" fill="#232323"/>
        <path d="M66.3611 43.5862C66.8078 41.0574 68.2777 39.8074 70.6267 39.9942C72.9972 40.1809 74.3734 41.7686 74.1789 44.0963C73.9771 46.5605 72.3632 48.0835 69.7981 47.7387C67.4924 47.4298 66.3323 45.8205 66.3611 43.5934V43.5862ZM72.6009 43.8449C72.4568 42.5876 71.8732 41.589 70.4249 41.5531C68.8325 41.51 67.9895 42.4152 68.0328 43.9957C68.0688 45.4397 69.0487 46.2156 70.3457 46.1941C71.6426 46.1653 72.5289 45.3392 72.6009 43.8521V43.8449Z" fill="#232323"/>
        <path d="M101.004 75.8143C103.31 76.0514 104.801 77.2943 104.845 79.6722C104.895 82.2585 103.288 83.7528 100.795 83.6882C98.4751 83.6235 96.9836 82.0286 97.0484 79.701C97.1133 77.4092 98.5543 76.037 101.004 75.8215V75.8143ZM103.346 79.6219C103.05 78.3791 102.445 77.4236 101.004 77.4451C99.419 77.4667 98.5327 78.4797 98.6192 79.9165C98.7056 81.3533 99.7144 82.2801 101.271 82.0789C102.611 81.9065 103.274 80.9797 103.346 79.6219Z" fill="#232323"/>
        <path d="M47.5622 47.8536C44.6441 47.5663 42.9797 46.2659 43.0733 43.7371C43.1526 41.4741 44.572 39.9439 47.0219 39.9942C49.4284 40.0444 50.7974 41.51 50.8839 43.8233C50.9704 46.23 49.2771 47.3076 47.5695 47.8536H47.5622ZM49.3492 43.8161C49.097 42.3721 48.3332 41.4597 46.7553 41.5387C45.3214 41.6106 44.5937 42.5804 44.6369 43.8592C44.6873 45.3463 45.7393 46.2731 47.202 46.2084C48.5061 46.1438 49.2267 45.1739 49.3492 43.8161Z" fill="#232323"/>
        <path d="M32.5608 32.8962C30.3776 30.8775 32.1645 29.3975 33.2525 27.817C33.022 29.5125 32.7914 31.2008 32.5608 32.8962Z" fill="#232323"/>
        <path d="M61.4325 63.745C61.0434 63.745 60.6471 63.745 60.2581 63.7521V60.5049C62.0234 61.3239 61.3677 62.6602 61.4325 63.745Z" fill="#0F0F0F"/>
        <path d="M34.0957 41.4813C33.6706 41.4813 33.2382 41.4885 32.8131 41.4956C32.7051 40.806 32.5898 40.1235 32.4817 39.4338C33.0005 39.4122 33.512 39.3835 34.0308 39.362C34.0524 40.066 34.0741 40.7772 34.0957 41.4813Z" fill="#0F0F0F"/>
        <path d="M51.5037 64.643C51.7703 64.3412 52.0296 64.0467 52.2962 63.745C52.8294 63.9318 53.4131 64.1616 52.8655 64.837C52.3827 65.4332 51.9144 65.0453 51.5037 64.643Z" fill="#0F0F0F"/>
        <path d="M36.9706 16.1643C37.1291 16.9402 36.7256 16.6026 36.4158 16.4373C36.5239 16.1787 36.7112 16.0925 36.9706 16.1643Z" fill="#232323"/>
        <path d="M110.638 104.687C111.301 108.165 109.096 110.004 106.567 111.541C100.406 115.277 93.4962 116.836 86.5142 117.935C64.1633 121.448 41.8917 121.412 19.9155 115.406C14.8861 114.034 9.72714 112.468 6.66487 107.583C5.99478 105.305 7.02514 103.567 8.71119 102.288C15.9525 96.7921 24.6638 95.542 33.2741 94.0046C34.8521 93.7244 34.7008 94.8308 34.672 95.7791C34.5567 99.1844 35.515 102.396 36.4373 105.614C36.9921 107.547 37.7126 109.558 40.2417 108.883C42.9653 108.157 42.4897 105.981 41.9926 103.89C41.3873 101.34 40.8253 98.7677 40.3786 96.1886C40.0111 94.0908 40.7172 92.7617 43.167 92.7186C46.64 92.654 50.1202 92.5031 53.5859 92.2301C55.4449 92.0864 55.798 92.8982 55.7691 94.5219C55.7043 98.2289 55.8124 101.936 55.8124 105.643C55.8124 107.597 56.5617 109.012 58.6513 108.991C60.6904 108.969 61.5766 107.554 61.5982 105.636C61.6343 102.051 61.6991 98.4588 61.5766 94.8739C61.5118 92.9629 61.9225 92.0649 64.0985 92.2589C67.557 92.575 71.0372 92.6324 74.5102 92.7761C76.2395 92.848 76.9096 93.5807 76.9023 95.4271C76.8951 98.4803 76.0665 101.332 75.2379 104.192C74.6399 106.261 74.6039 108.172 77.0032 108.869C79.5755 109.616 80.3609 107.54 80.8653 105.672C81.7371 102.453 82.8972 99.2562 82.6594 95.8437C82.5441 94.1986 83.1061 93.7388 84.6985 94.0405C91.5219 95.3408 98.3454 96.6268 104.657 99.7088C107.064 100.887 109.146 102.432 110.652 104.687H110.638Z" fill="#FDFDFD"/>
        <path d="M61.6128 76.1807C65.0065 78.1564 67.7806 79.7728 70.5546 81.3821C69.3225 77.1506 63.1403 77.6679 62.9098 72.1289C71.2896 76.4106 78.4661 81.0731 80.6277 90.585C81.8454 95.9371 80.6709 101.002 79.0857 106.038C78.8407 106.814 78.4516 107.769 77.342 107.324C76.4053 106.943 76.4198 106.06 76.6431 105.19C77.0682 103.574 77.5222 101.965 77.8824 100.341C79.1506 94.5865 78.322 89.184 74.921 84.2988C74.2149 83.2859 73.5809 81.8849 71.6282 82.6824C73.3287 84.5862 74.7193 86.5906 75.6488 88.911C76.3621 90.6999 76.3765 91.5045 73.9988 91.2387C70.6771 90.8651 67.3122 90.7933 63.9617 90.7071C62.4342 90.6712 61.5191 90.4413 61.5768 88.5518C61.7065 84.6437 61.6128 80.7283 61.6128 76.1879V76.1807Z" fill="#FDFDFD"/>
        <path d="M85.1091 32.1994C85.246 33.7368 84.439 33.435 83.351 33.1333C79.6187 32.0916 76.6933 28.7869 76.3979 24.5339C76.1457 20.9849 76.3691 17.4 76.3114 13.8367C76.2826 12.0406 77.0104 11.782 78.4946 12.4717C80.6635 13.4775 82.4288 15.0221 82.8683 17.3425C83.7834 22.2349 84.3814 27.192 85.1235 32.1994H85.1091Z" fill="#FDFDFD"/>
        <path d="M87.0403 33.4207C87.8905 27.8817 88.6975 22.5295 89.5405 17.1701C89.7351 15.9416 90.506 15.0005 91.3635 14.1671C92.4803 13.0751 93.8925 11.7461 95.348 12.2418C96.9548 12.795 95.9677 14.7203 96.0325 15.9991C96.1694 18.7291 96.1766 21.4806 95.9605 24.2034C95.5426 29.3544 92.855 32.1634 87.0475 33.4135L87.0403 33.4207Z" fill="#FDFDFD"/>
        <path d="M51.0424 73.7237C52.4835 73.2927 54.9405 70.3759 54.3064 75.0456C52.8942 75.9293 51.4891 76.8201 50.0697 77.6966C40.0975 83.8031 37.0425 91.368 39.8958 102.525C40.2921 104.062 42.079 106.555 39.8381 107.18C37.4532 107.848 37.8422 104.695 37.4243 103.243C33.9874 91.3249 37.7558 81.9712 48.3764 75.491C49.2843 74.9379 50.1489 74.32 51.0352 73.7309L51.0424 73.7237Z" fill="#FDFDFD"/>
        <path d="M68.5802 11.1785C68.5298 13.6499 68.9189 16.8037 67.4129 19.6702C66.8653 20.7047 66.1808 21.7464 65.3162 22.5223C63.904 23.8011 62.0162 25.4463 60.3301 24.7709C58.4711 24.031 60.1356 21.8685 60.2364 20.3814C60.4742 16.9546 61.0723 13.5421 61.6199 10.1368C61.7856 9.10231 62.0954 8.0175 62.643 7.14104C63.8175 5.27316 65.6476 3.29033 67.7012 3.77167C69.5529 4.20991 68.292 6.81057 68.5514 8.427C68.6667 9.12386 68.573 9.84946 68.573 11.1713L68.5802 11.1785Z" fill="#FDFDFD"/>
        <path d="M48.7728 10.5607C48.7728 9.00893 48.9097 7.44997 48.744 5.91974C48.4197 2.90959 49.9689 3.41966 51.6477 4.33205C54.0039 5.60364 55.3801 7.62957 55.7475 10.2805C56.3168 14.4042 56.7491 18.5567 57.4192 22.6588C57.8371 25.2164 56.8428 25.2882 54.955 24.4261C51.1361 22.6875 49.0322 19.742 48.78 15.5609C48.6791 13.9013 48.7656 12.2274 48.7656 10.5535L48.7728 10.5607Z" fill="#FDFDFD"/>
        <path d="M2.58667 62.4375C11.8743 62.8613 20.3478 61.8412 28.778 63.0697C32.9427 63.6731 36.4084 65.7637 39.3338 68.7451C40.0111 69.4348 40.7893 70.0742 39.7805 71.1159C38.7069 72.2294 38.2026 71.2452 37.482 70.6346C29.4121 63.8527 22.531 63.4001 13.6612 69.1977C12.5805 69.9018 11.8455 69.9593 10.8079 69.4276C7.80332 67.883 5.11574 65.9792 2.58667 62.4446V62.4375Z" fill="#FDFDFD"/>
        <path d="M31.5882 68.6446C26.1554 71.6332 20.737 72.3372 14.8286 70.8214C19.1158 66.4175 25.4132 65.5697 31.5882 68.6446Z" fill="#FDFDFD"/>
        <path d="M114.579 62.5021C112.208 66.0511 109.319 67.9908 106.091 69.5857C104.809 70.2251 104.153 69.4707 103.259 68.8816C95.0886 63.472 87.4509 64.0108 79.9718 70.4334C79.2945 71.0153 78.7829 72.4522 77.4716 71.0584C76.225 69.7365 77.486 69.1259 78.1489 68.465C82.1694 64.4706 87.1195 62.5883 92.7252 62.5093C99.7792 62.4159 106.833 62.4877 114.572 62.4877L114.579 62.5021Z" fill="#FDFDFD"/>
        <path d="M102.539 70.7208C96.5296 72.524 91.104 71.4679 85.4695 68.6445C91.6805 65.62 97.9059 66.4318 102.539 70.7208Z" fill="#FDFDFD"/>
        <path d="M28.5043 24.1818C29.0592 28.5283 29.614 32.8747 30.176 37.2211C25.3844 37.4007 21.5584 33.6218 21.3567 28.3415C21.2342 25.2595 21.2846 22.1703 21.3567 19.0811C21.3783 18.219 20.7874 17.0624 21.8466 16.5164C22.8049 16.0206 23.6984 16.7894 24.4694 17.2635C25.3628 17.8095 26.1122 18.5926 26.9264 19.2679C27.438 20.6975 27.9567 22.12 28.4683 23.5496C28.4251 23.6143 28.3314 23.6933 28.3386 23.7508C28.3674 23.9017 28.4467 24.0453 28.4971 24.189L28.5043 24.1818Z" fill="#FDFDFD"/>
        <path d="M28.5042 24.1819C28.4466 24.0382 28.3745 23.8945 28.3457 23.7436C28.3313 23.6861 28.425 23.6143 28.4754 23.5425C28.8429 23.758 29.2104 23.9735 29.5778 24.1819C29.2176 24.7781 28.8645 24.4261 28.5114 24.1819H28.5042Z" fill="#232323"/>
        <path d="M16.1975 82.1507C14.8789 81.7987 13.9494 81.1162 14.0431 79.6866C14.144 78.1204 15.1095 77.2727 16.6514 77.4667C18.0205 77.6391 18.6905 78.6377 18.5753 80.0099C18.4528 81.4395 17.4296 81.964 16.1975 82.1579V82.1507Z" fill="#FDFDFD"/>
        <path d="M72.6008 43.8449C72.5287 45.332 71.6353 46.1653 70.3455 46.1869C69.0486 46.2156 68.0686 45.4326 68.0326 43.9886C67.9966 42.4152 68.8324 41.5028 70.4248 41.5459C71.873 41.5819 72.4567 42.5805 72.6008 43.8377V43.8449Z" fill="#FDFDFD"/>
        <path d="M103.346 79.6219C103.274 80.9798 102.611 81.9065 101.271 82.0789C99.7145 82.2801 98.7058 81.3533 98.6193 79.9165C98.5329 78.4797 99.4191 77.4667 101.004 77.4452C102.445 77.4236 103.043 78.3791 103.346 79.6219Z" fill="#FDFDFD"/>
        <path d="M49.342 43.8161C49.2267 45.1739 48.499 46.1438 47.1948 46.2084C45.7322 46.2803 44.6802 45.3463 44.6297 43.8592C44.5865 42.5804 45.3143 41.6034 46.7481 41.5387C48.3261 41.4597 49.0898 42.3793 49.342 43.8161Z" fill="#FDFDFD"/>
    </g>
    <defs>
        <clipPath id="clip0_47_3825">
            <rect width="117" height="128" fill="white"/>
        </clipPath>
    </defs>
</svg>
