<svg width="391" height="78" viewBox="0 0 391 78" fill="none" xmlns="http://www.w3.org/2000/svg">
    <g clip-path="url(#clip0_82_5483)">
        <rect x="4" y="4" width="383" height="74" rx="30" fill="black"/>
        <rect x="4" y="4" width="383" height="74" fill="black"/>
    </g>
    <rect x="4.5" y="4.5" width="382" height="73" rx="29.5" stroke="black"/>
    <g filter="url(#filter0_d_82_5483)">
        <g clip-path="url(#clip1_82_5483)">
            <rect x="4" width="383" height="67" fill="#FF914B"/>
            <path d="M57.3752 42V27.9H66.8752V29.92H59.8552V33.82H66.4152V35.86H59.8552V39.96H66.8752V42H57.3752ZM67.8098 42L72.5098 36.22V37.36L68.0698 31.9H71.0298L73.9298 35.64H73.0298L75.9298 31.9H78.8698L74.4698 37.36V36.22L79.1498 42H76.1698L73.0298 37.98H73.9298L70.7698 42H67.8098ZM80.6463 46.32V34.42C80.6463 34.0067 80.633 33.5867 80.6063 33.16C80.5797 32.7333 80.5397 32.3133 80.4863 31.9H82.9063L83.1263 34.02H82.9063C83.1063 33.3133 83.5263 32.7533 84.1663 32.34C84.8197 31.9133 85.573 31.7 86.4263 31.7C87.3197 31.7 88.0997 31.9133 88.7663 32.34C89.433 32.7533 89.953 33.3533 90.3263 34.14C90.6997 34.9133 90.8863 35.8467 90.8863 36.94C90.8863 38.0333 90.6997 38.9733 90.3263 39.76C89.953 40.5467 89.433 41.1533 88.7663 41.58C88.0997 41.9933 87.3197 42.2 86.4263 42.2C85.5863 42.2 84.8463 41.9933 84.2063 41.58C83.5663 41.1667 83.1397 40.6133 82.9263 39.92H83.1463V46.32H80.6463ZM85.7263 40.28C86.5263 40.28 87.1663 40.0067 87.6463 39.46C88.1263 38.9 88.3663 38.06 88.3663 36.94C88.3663 35.82 88.1263 34.9867 87.6463 34.44C87.1663 33.8933 86.5263 33.62 85.7263 33.62C84.9397 33.62 84.3063 33.8933 83.8263 34.44C83.3463 34.9867 83.1063 35.82 83.1063 36.94C83.1063 38.06 83.3463 38.9 83.8263 39.46C84.3063 40.0067 84.9397 40.28 85.7263 40.28ZM93.3487 42V27.28H95.8487V42H93.3487ZM103.424 42.2C102.384 42.2 101.484 41.9867 100.724 41.56C99.9635 41.1333 99.3702 40.5267 98.9435 39.74C98.5302 38.9533 98.3235 38.02 98.3235 36.94C98.3235 35.86 98.5302 34.9333 98.9435 34.16C99.3702 33.3733 99.9635 32.7667 100.724 32.34C101.484 31.9133 102.384 31.7 103.424 31.7C104.464 31.7 105.364 31.9133 106.124 32.34C106.897 32.7667 107.49 33.3733 107.904 34.16C108.33 34.9333 108.544 35.86 108.544 36.94C108.544 38.02 108.33 38.9533 107.904 39.74C107.49 40.5267 106.897 41.1333 106.124 41.56C105.364 41.9867 104.464 42.2 103.424 42.2ZM103.424 40.28C104.21 40.28 104.837 40.0067 105.304 39.46C105.77 38.9 106.004 38.06 106.004 36.94C106.004 35.82 105.77 34.9867 105.304 34.44C104.837 33.8933 104.21 33.62 103.424 33.62C102.637 33.62 102.01 33.8933 101.544 34.44C101.077 34.9867 100.844 35.82 100.844 36.94C100.844 38.06 101.077 38.9 101.544 39.46C102.01 40.0067 102.637 40.28 103.424 40.28ZM110.979 42V34.48C110.979 34.0533 110.966 33.62 110.939 33.18C110.926 32.74 110.893 32.3133 110.839 31.9H113.259L113.539 34.66H113.139C113.273 33.9933 113.493 33.44 113.799 33C114.119 32.56 114.506 32.2333 114.959 32.02C115.413 31.8067 115.906 31.7 116.439 31.7C116.679 31.7 116.873 31.7133 117.019 31.74C117.166 31.7533 117.313 31.7867 117.459 31.84L117.439 34.04C117.186 33.9333 116.966 33.8667 116.779 33.84C116.606 33.8133 116.386 33.8 116.119 33.8C115.546 33.8 115.059 33.92 114.659 34.16C114.273 34.4 113.979 34.7333 113.779 35.16C113.593 35.5867 113.499 36.0733 113.499 36.62V42H110.979ZM123.875 42.2C122.181 42.2 120.855 41.7333 119.895 40.8C118.935 39.8667 118.455 38.5867 118.455 36.96C118.455 35.9067 118.661 34.9867 119.075 34.2C119.488 33.4133 120.061 32.8 120.795 32.36C121.541 31.92 122.408 31.7 123.395 31.7C124.368 31.7 125.181 31.9067 125.835 32.32C126.488 32.7333 126.981 33.3133 127.315 34.06C127.661 34.8067 127.835 35.68 127.835 36.68V37.34H120.475V36.02H126.055L125.715 36.3C125.715 35.3667 125.515 34.6533 125.115 34.16C124.728 33.6667 124.161 33.42 123.415 33.42C122.588 33.42 121.948 33.7133 121.495 34.3C121.055 34.8867 120.835 35.7067 120.835 36.76V37.02C120.835 38.1133 121.101 38.9333 121.635 39.48C122.181 40.0133 122.948 40.28 123.935 40.28C124.508 40.28 125.041 40.2067 125.535 40.06C126.041 39.9 126.521 39.6467 126.975 39.3L127.715 40.98C127.235 41.3667 126.661 41.6667 125.995 41.88C125.328 42.0933 124.621 42.2 123.875 42.2ZM136.24 42V27.9H142.4C143.947 27.9 145.14 28.2667 145.98 29C146.833 29.7333 147.26 30.7533 147.26 32.06C147.26 32.9267 147.067 33.6667 146.68 34.28C146.307 34.8933 145.767 35.3667 145.06 35.7C144.353 36.02 143.52 36.18 142.56 36.18L142.84 35.8H143.52C144.08 35.8 144.58 35.9467 145.02 36.24C145.46 36.5333 145.82 36.98 146.1 37.58L148.16 42H145.32L143.24 37.42C143.053 36.9533 142.767 36.6467 142.38 36.5C142.007 36.3533 141.553 36.28 141.02 36.28H138.82V42H136.24ZM138.82 34.38H141.98C142.887 34.38 143.573 34.1933 144.04 33.82C144.52 33.4333 144.76 32.8733 144.76 32.14C144.76 31.4067 144.52 30.8533 144.04 30.48C143.573 30.1067 142.887 29.92 141.98 29.92H138.82V34.38ZM154.689 42.2C153.649 42.2 152.749 41.9867 151.989 41.56C151.229 41.1333 150.636 40.5267 150.209 39.74C149.796 38.9533 149.589 38.02 149.589 36.94C149.589 35.86 149.796 34.9333 150.209 34.16C150.636 33.3733 151.229 32.7667 151.989 32.34C152.749 31.9133 153.649 31.7 154.689 31.7C155.729 31.7 156.629 31.9133 157.389 32.34C158.162 32.7667 158.756 33.3733 159.169 34.16C159.596 34.9333 159.809 35.86 159.809 36.94C159.809 38.02 159.596 38.9533 159.169 39.74C158.756 40.5267 158.162 41.1333 157.389 41.56C156.629 41.9867 155.729 42.2 154.689 42.2ZM154.689 40.28C155.476 40.28 156.102 40.0067 156.569 39.46C157.036 38.9 157.269 38.06 157.269 36.94C157.269 35.82 157.036 34.9867 156.569 34.44C156.102 33.8933 155.476 33.62 154.689 33.62C153.902 33.62 153.276 33.8933 152.809 34.44C152.342 34.9867 152.109 35.82 152.109 36.94C152.109 38.06 152.342 38.9 152.809 39.46C153.276 40.0067 153.902 40.28 154.689 40.28ZM166.825 42.2C165.785 42.2 164.885 41.9867 164.125 41.56C163.365 41.1333 162.772 40.5267 162.345 39.74C161.932 38.9533 161.725 38.02 161.725 36.94C161.725 35.86 161.932 34.9333 162.345 34.16C162.772 33.3733 163.365 32.7667 164.125 32.34C164.885 31.9133 165.785 31.7 166.825 31.7C167.865 31.7 168.765 31.9133 169.525 32.34C170.298 32.7667 170.892 33.3733 171.305 34.16C171.732 34.9333 171.945 35.86 171.945 36.94C171.945 38.02 171.732 38.9533 171.305 39.74C170.892 40.5267 170.298 41.1333 169.525 41.56C168.765 41.9867 167.865 42.2 166.825 42.2ZM166.825 40.28C167.612 40.28 168.238 40.0067 168.705 39.46C169.172 38.9 169.405 38.06 169.405 36.94C169.405 35.82 169.172 34.9867 168.705 34.44C168.238 33.8933 167.612 33.62 166.825 33.62C166.038 33.62 165.412 33.8933 164.945 34.44C164.478 34.9867 164.245 35.82 164.245 36.94C164.245 38.06 164.478 38.9 164.945 39.46C165.412 40.0067 166.038 40.28 166.825 40.28ZM179.041 42.2C178.001 42.2 177.088 41.9867 176.301 41.56C175.528 41.1333 174.928 40.5267 174.501 39.74C174.074 38.94 173.861 37.9933 173.861 36.9C173.861 35.8067 174.074 34.8733 174.501 34.1C174.941 33.3267 175.548 32.7333 176.321 32.32C177.094 31.9067 178.001 31.7 179.041 31.7C179.708 31.7 180.354 31.8067 180.981 32.02C181.621 32.22 182.141 32.5133 182.541 32.9L181.781 34.64C181.421 34.3067 181.014 34.06 180.561 33.9C180.121 33.7267 179.688 33.64 179.261 33.64C178.368 33.64 177.668 33.92 177.161 34.48C176.668 35.04 176.421 35.8533 176.421 36.92C176.421 37.9867 176.668 38.8067 177.161 39.38C177.668 39.9533 178.368 40.24 179.261 40.24C179.674 40.24 180.101 40.16 180.541 40C180.994 39.84 181.408 39.5933 181.781 39.26L182.541 40.98C182.128 41.3667 181.601 41.6667 180.961 41.88C180.334 42.0933 179.694 42.2 179.041 42.2ZM184.779 42V27.28H187.279V33.92H186.999C187.306 33.2 187.779 32.6533 188.419 32.28C189.059 31.8933 189.792 31.7 190.619 31.7C191.819 31.7 192.712 32.04 193.299 32.72C193.886 33.3867 194.179 34.4067 194.179 35.78V42H191.679V35.9C191.679 35.1133 191.526 34.5467 191.219 34.2C190.926 33.84 190.452 33.66 189.799 33.66C189.039 33.66 188.426 33.9 187.959 34.38C187.506 34.8467 187.279 35.4733 187.279 36.26V42H184.779ZM203.118 42V27.9H209.378C210.925 27.9 212.105 28.2733 212.918 29.02C213.732 29.7667 214.138 30.7933 214.138 32.1C214.138 33.3933 213.732 34.42 212.918 35.18C212.105 35.94 210.925 36.32 209.378 36.32H205.698V42H203.118ZM205.698 34.28H209.078C209.932 34.28 210.572 34.0933 210.998 33.72C211.425 33.3333 211.638 32.7933 211.638 32.1C211.638 31.4067 211.425 30.8733 210.998 30.5C210.572 30.1133 209.932 29.92 209.078 29.92H205.698V34.28ZM216.323 42V34.48C216.323 34.0533 216.31 33.62 216.283 33.18C216.27 32.74 216.237 32.3133 216.183 31.9H218.603L218.883 34.66H218.483C218.617 33.9933 218.837 33.44 219.143 33C219.463 32.56 219.85 32.2333 220.303 32.02C220.757 31.8067 221.25 31.7 221.783 31.7C222.023 31.7 222.217 31.7133 222.363 31.74C222.51 31.7533 222.657 31.7867 222.803 31.84L222.783 34.04C222.53 33.9333 222.31 33.8667 222.123 33.84C221.95 33.8133 221.73 33.8 221.463 33.8C220.89 33.8 220.403 33.92 220.003 34.16C219.617 34.4 219.323 34.7333 219.123 35.16C218.937 35.5867 218.843 36.0733 218.843 36.62V42H216.323ZM229.219 42.2C227.525 42.2 226.199 41.7333 225.239 40.8C224.279 39.8667 223.799 38.5867 223.799 36.96C223.799 35.9067 224.005 34.9867 224.419 34.2C224.832 33.4133 225.405 32.8 226.139 32.36C226.885 31.92 227.752 31.7 228.739 31.7C229.712 31.7 230.525 31.9067 231.179 32.32C231.832 32.7333 232.325 33.3133 232.659 34.06C233.005 34.8067 233.179 35.68 233.179 36.68V37.34H225.819V36.02H231.399L231.059 36.3C231.059 35.3667 230.859 34.6533 230.459 34.16C230.072 33.6667 229.505 33.42 228.759 33.42C227.932 33.42 227.292 33.7133 226.839 34.3C226.399 34.8867 226.179 35.7067 226.179 36.76V37.02C226.179 38.1133 226.445 38.9333 226.979 39.48C227.525 40.0133 228.292 40.28 229.279 40.28C229.852 40.28 230.385 40.2067 230.879 40.06C231.385 39.9 231.865 39.6467 232.319 39.3L233.059 40.98C232.579 41.3667 232.005 41.6667 231.339 41.88C230.672 42.0933 229.965 42.2 229.219 42.2ZM241.364 37.48V35.5H247.444V37.48H241.364ZM256.242 42V34.42C256.242 34.0067 256.228 33.5867 256.202 33.16C256.175 32.7333 256.135 32.3133 256.082 31.9H258.502L258.702 33.9H258.462C258.742 33.2067 259.168 32.6667 259.742 32.28C260.328 31.8933 261.022 31.7 261.822 31.7C262.622 31.7 263.282 31.8933 263.802 32.28C264.335 32.6533 264.708 33.24 264.922 34.04H264.602C264.882 33.32 265.342 32.7533 265.982 32.34C266.622 31.9133 267.355 31.7 268.182 31.7C269.315 31.7 270.162 32.0333 270.722 32.7C271.282 33.3667 271.562 34.4067 271.562 35.82V42H269.062V35.92C269.062 35.12 268.928 34.5467 268.662 34.2C268.395 33.84 267.968 33.66 267.382 33.66C266.688 33.66 266.142 33.9067 265.742 34.4C265.342 34.88 265.142 35.5333 265.142 36.36V42H262.642V35.92C262.642 35.12 262.508 34.5467 262.242 34.2C261.975 33.84 261.548 33.66 260.962 33.66C260.268 33.66 259.722 33.9067 259.322 34.4C258.935 34.88 258.742 35.5333 258.742 36.36V42H256.242ZM278.43 42.2C277.55 42.2 276.777 41.9933 276.11 41.58C275.443 41.1533 274.923 40.5467 274.55 39.76C274.177 38.9733 273.99 38.0333 273.99 36.94C273.99 35.8467 274.177 34.9133 274.55 34.14C274.923 33.3533 275.443 32.7533 276.11 32.34C276.777 31.9133 277.55 31.7 278.43 31.7C279.283 31.7 280.03 31.9133 280.67 32.34C281.323 32.7533 281.757 33.3133 281.97 34.02H281.75L281.97 31.9H284.37C284.33 32.3133 284.29 32.7333 284.25 33.16C284.223 33.5867 284.21 34.0067 284.21 34.42V42H281.73L281.71 39.92H281.95C281.737 40.6133 281.303 41.1667 280.65 41.58C279.997 41.9933 279.257 42.2 278.43 42.2ZM279.13 40.28C279.917 40.28 280.55 40.0067 281.03 39.46C281.51 38.9 281.75 38.06 281.75 36.94C281.75 35.82 281.51 34.9867 281.03 34.44C280.55 33.8933 279.917 33.62 279.13 33.62C278.343 33.62 277.71 33.8933 277.23 34.44C276.75 34.9867 276.51 35.82 276.51 36.94C276.51 38.06 276.743 38.9 277.21 39.46C277.69 40.0067 278.33 40.28 279.13 40.28ZM287.232 42V31.9H289.732V42H287.232ZM287.092 30V27.56H289.872V30H287.092ZM292.747 42V34.42C292.747 34.0067 292.734 33.5867 292.707 33.16C292.68 32.7333 292.64 32.3133 292.587 31.9H295.007L295.207 33.9H294.967C295.287 33.1933 295.76 32.6533 296.387 32.28C297.014 31.8933 297.74 31.7 298.567 31.7C299.754 31.7 300.647 32.0333 301.247 32.7C301.847 33.3667 302.147 34.4067 302.147 35.82V42H299.647V35.94C299.647 35.1267 299.487 34.5467 299.167 34.2C298.86 33.84 298.394 33.66 297.767 33.66C296.994 33.66 296.38 33.9 295.927 34.38C295.474 34.86 295.247 35.5 295.247 36.3V42H292.747ZM305.098 42V34.42C305.098 34.0067 305.085 33.5867 305.058 33.16C305.031 32.7333 304.991 32.3133 304.938 31.9H307.358L307.558 33.9H307.318C307.638 33.1933 308.111 32.6533 308.738 32.28C309.365 31.8933 310.091 31.7 310.918 31.7C312.105 31.7 312.998 32.0333 313.598 32.7C314.198 33.3667 314.498 34.4067 314.498 35.82V42H311.998V35.94C311.998 35.1267 311.838 34.5467 311.518 34.2C311.211 33.84 310.745 33.66 310.118 33.66C309.345 33.66 308.731 33.9 308.278 34.38C307.825 34.86 307.598 35.5 307.598 36.3V42H305.098ZM322.329 42.2C320.635 42.2 319.309 41.7333 318.349 40.8C317.389 39.8667 316.909 38.5867 316.909 36.96C316.909 35.9067 317.115 34.9867 317.529 34.2C317.942 33.4133 318.515 32.8 319.249 32.36C319.995 31.92 320.862 31.7 321.849 31.7C322.822 31.7 323.635 31.9067 324.289 32.32C324.942 32.7333 325.435 33.3133 325.769 34.06C326.115 34.8067 326.289 35.68 326.289 36.68V37.34H318.929V36.02H324.509L324.169 36.3C324.169 35.3667 323.969 34.6533 323.569 34.16C323.182 33.6667 322.615 33.42 321.869 33.42C321.042 33.42 320.402 33.7133 319.949 34.3C319.509 34.8867 319.289 35.7067 319.289 36.76V37.02C319.289 38.1133 319.555 38.9333 320.089 39.48C320.635 40.0133 321.402 40.28 322.389 40.28C322.962 40.28 323.495 40.2067 323.989 40.06C324.495 39.9 324.975 39.6467 325.429 39.3L326.169 40.98C325.689 41.3667 325.115 41.6667 324.449 41.88C323.782 42.0933 323.075 42.2 322.329 42.2ZM332.987 42.2C331.787 42.2 330.88 41.8867 330.267 41.26C329.653 40.6333 329.347 39.6933 329.347 38.44V33.78H327.407V31.9H329.347V29.32L331.847 28.68V31.9H334.547V33.78H331.847V38.28C331.847 38.9733 331.98 39.46 332.247 39.74C332.513 40.02 332.88 40.16 333.347 40.16C333.6 40.16 333.813 40.14 333.987 40.1C334.173 40.06 334.353 40.0067 334.527 39.94V41.92C334.3 42.0133 334.047 42.08 333.767 42.12C333.5 42.1733 333.24 42.2 332.987 42.2Z" fill="black"/>
        </g>
        <rect x="4.5" y="0.5" width="382" height="66" rx="29.5" stroke="black" shape-rendering="crispEdges"/>
    </g>
    <defs>
        <filter id="filter0_d_82_5483" x="0" y="0" width="391" height="75" filterUnits="userSpaceOnUse" color-interpolation-filters="sRGB">
            <feFlood flood-opacity="0" result="BackgroundImageFix"/>
            <feColorMatrix in="SourceAlpha" type="matrix" values="0 0 0 0 0 0 0 0 0 0 0 0 0 0 0 0 0 0 127 0" result="hardAlpha"/>
            <feOffset dy="4"/>
            <feGaussianBlur stdDeviation="2"/>
            <feComposite in2="hardAlpha" operator="out"/>
            <feColorMatrix type="matrix" values="0 0 0 0 0 0 0 0 0 0 0 0 0 0 0 0 0 0 0.25 0"/>
            <feBlend mode="normal" in2="BackgroundImageFix" result="effect1_dropShadow_82_5483"/>
            <feBlend mode="normal" in="SourceGraphic" in2="effect1_dropShadow_82_5483" result="shape"/>
        </filter>
        <clipPath id="clip0_82_5483">
            <rect x="4" y="4" width="383" height="74" rx="30" fill="white"/>
        </clipPath>
        <clipPath id="clip1_82_5483">
            <rect x="4" width="383" height="67" rx="30" fill="white"/>
        </clipPath>
    </defs>
</svg>
