<svg width="1691" height="986" viewBox="0 0 1691 986" fill="none" xmlns="http://www.w3.org/2000/svg">
<g opacity="0.64">
<path d="M89.9863 0V986" stroke="#009149" stroke-opacity="0.6" stroke-miterlimit="10"/>
<path d="M57 0V986" stroke="#009149" stroke-opacity="0.6" stroke-miterlimit="10"/>
<path d="M23 0V986" stroke="#009149" stroke-opacity="0.6" stroke-miterlimit="10"/>
<path d="M123.766 0V986" stroke="#009149" stroke-opacity="0.6" stroke-miterlimit="10"/>
<path d="M157.552 0V986" stroke="#009149" stroke-opacity="0.6" stroke-miterlimit="10"/>
<path d="M191.331 0V986" stroke="#009149" stroke-opacity="0.6" stroke-miterlimit="10"/>
<path d="M225.11 0V986" stroke="#009149" stroke-opacity="0.6" stroke-miterlimit="10"/>
<path d="M258.889 0V986" stroke="#009149" stroke-opacity="0.6" stroke-miterlimit="10"/>
<path d="M292.675 0V986" stroke="#009149" stroke-opacity="0.6" stroke-miterlimit="10"/>
<path d="M326.454 0V986" stroke="#009149" stroke-opacity="0.6" stroke-miterlimit="10"/>
<path d="M360.233 0V986" stroke="#009149" stroke-opacity="0.6" stroke-miterlimit="10"/>
<path d="M394.02 0V986" stroke="#009149" stroke-opacity="0.6" stroke-miterlimit="10"/>
<path d="M427.799 0V986" stroke="#009149" stroke-opacity="0.6" stroke-miterlimit="10"/>
<path d="M461.578 0V986" stroke="#009149" stroke-opacity="0.6" stroke-miterlimit="10"/>
<path d="M495.364 0V986" stroke="#009149" stroke-opacity="0.6" stroke-miterlimit="10"/>
<path d="M529.143 0V986" stroke="#009149" stroke-opacity="0.6" stroke-miterlimit="10"/>
<path d="M562.922 0V986" stroke="#009149" stroke-opacity="0.6" stroke-miterlimit="10"/>
<path d="M596.708 0V986" stroke="#009149" stroke-opacity="0.6" stroke-miterlimit="10"/>
<path d="M630.487 0V986" stroke="#009149" stroke-opacity="0.6" stroke-miterlimit="10"/>
<path d="M664.266 0V986" stroke="#009149" stroke-opacity="0.6" stroke-miterlimit="10"/>
<path d="M698.045 0V986" stroke="#009149" stroke-opacity="0.6" stroke-miterlimit="10"/>
<path d="M731.832 0V986" stroke="#009149" stroke-opacity="0.6" stroke-miterlimit="10"/>
<path d="M765.611 0V986" stroke="#009149" stroke-opacity="0.6" stroke-miterlimit="10"/>
<path d="M799.39 0V986" stroke="#009149" stroke-opacity="0.6" stroke-miterlimit="10"/>
<path d="M833.176 0V986" stroke="#009149" stroke-opacity="0.6" stroke-miterlimit="10"/>
<path d="M866.955 0V986" stroke="#009149" stroke-opacity="0.6" stroke-miterlimit="10"/>
<path d="M900.734 0V986" stroke="#009149" stroke-opacity="0.6" stroke-miterlimit="10"/>
<path d="M934.521 0V986" stroke="#009149" stroke-opacity="0.6" stroke-miterlimit="10"/>
<path d="M968.299 0V986" stroke="#009149" stroke-opacity="0.6" stroke-miterlimit="10"/>
<path d="M1002.08 0V986" stroke="#009149" stroke-opacity="0.6" stroke-miterlimit="10"/>
<path d="M1035.86 0V986" stroke="#009149" stroke-opacity="0.6" stroke-miterlimit="10"/>
<path d="M1103.42 0V986" stroke="#009149" stroke-opacity="0.6" stroke-miterlimit="10"/>
<path d="M1170.99 0V986" stroke="#009149" stroke-opacity="0.6" stroke-miterlimit="10"/>
<path d="M1238.55 0V986" stroke="#009149" stroke-opacity="0.6" stroke-miterlimit="10"/>
<path d="M1069.64 0V986" stroke="#009149" stroke-opacity="0.6" stroke-miterlimit="10"/>
<path d="M1137.2 0V986" stroke="#009149" stroke-opacity="0.6" stroke-miterlimit="10"/>
<path d="M1204.77 0V986" stroke="#009149" stroke-opacity="0.6" stroke-miterlimit="10"/>
<path d="M1272.33 0V986" stroke="#009149" stroke-opacity="0.6" stroke-miterlimit="10"/>
<path d="M1306.11 0V986" stroke="#009149" stroke-opacity="0.6" stroke-miterlimit="10"/>
<path d="M1339.89 0V986" stroke="#009149" stroke-opacity="0.6" stroke-miterlimit="10"/>
<path d="M1373.67 0V986" stroke="#009149" stroke-opacity="0.6" stroke-miterlimit="10"/>
<path d="M1407.46 0V986" stroke="#009149" stroke-opacity="0.6" stroke-miterlimit="10"/>
<path d="M1441.23 0V986" stroke="#009149" stroke-opacity="0.6" stroke-miterlimit="10"/>
<path d="M1475.01 0V986" stroke="#009149" stroke-opacity="0.6" stroke-miterlimit="10"/>
<path d="M1508.8 0V986" stroke="#009149" stroke-opacity="0.6" stroke-miterlimit="10"/>
<path d="M1542.58 0V986" stroke="#009149" stroke-opacity="0.6" stroke-miterlimit="10"/>
<path d="M1576.36 0V986" stroke="#009149" stroke-opacity="0.6" stroke-miterlimit="10"/>
<path d="M1610.14 0V986" stroke="#009149" stroke-opacity="0.6" stroke-miterlimit="10"/>
<path d="M1643.92 0V986" stroke="#009149" stroke-opacity="0.6" stroke-miterlimit="10"/>
<path d="M1677.7 0V986" stroke="#009149" stroke-opacity="0.6" stroke-miterlimit="10"/>
<path d="M1691 71.4459H0" stroke="#009149" stroke-opacity="0.6" stroke-miterlimit="10"/>
<path d="M1691 36H0" stroke="#009149" stroke-opacity="0.6" stroke-miterlimit="10"/>
<path d="M1691 107.568H0" stroke="#009149" stroke-opacity="0.6" stroke-miterlimit="10"/>
<path d="M1691 143.69H0" stroke="#009149" stroke-opacity="0.6" stroke-miterlimit="10"/>
<path d="M1691 179.813H0" stroke="#009149" stroke-opacity="0.6" stroke-miterlimit="10"/>
<path d="M1691 215.935H0" stroke="#009149" stroke-opacity="0.6" stroke-miterlimit="10"/>
<path d="M1691 252.057H0" stroke="#009149" stroke-opacity="0.6" stroke-miterlimit="10"/>
<path d="M1691 288.179H0" stroke="#009149" stroke-opacity="0.6" stroke-miterlimit="10"/>
<path d="M1691 324.302H0" stroke="#009149" stroke-opacity="0.6" stroke-miterlimit="10"/>
<path d="M1691 360.424H0" stroke="#009149" stroke-opacity="0.6" stroke-miterlimit="10"/>
<path d="M1691 396.546H0" stroke="#009149" stroke-opacity="0.6" stroke-miterlimit="10"/>
<path d="M1691 432.668H0" stroke="#009149" stroke-opacity="0.6" stroke-miterlimit="10"/>
<path d="M1691 468.791H0" stroke="#009149" stroke-opacity="0.6" stroke-miterlimit="10"/>
<path d="M1691 504.913H0" stroke="#009149" stroke-opacity="0.6" stroke-miterlimit="10"/>
<path d="M1691 541.035H0" stroke="#009149" stroke-opacity="0.6" stroke-miterlimit="10"/>
<path d="M1691 577.157H0" stroke="#009149" stroke-opacity="0.6" stroke-miterlimit="10"/>
<path d="M1691 613.28H0" stroke="#009149" stroke-opacity="0.6" stroke-miterlimit="10"/>
<path d="M1691 649.402H0" stroke="#009149" stroke-opacity="0.6" stroke-miterlimit="10"/>
<path d="M1691 685.524H0" stroke="#009149" stroke-opacity="0.6" stroke-miterlimit="10"/>
<path d="M1691 721.646H0" stroke="#009149" stroke-opacity="0.6" stroke-miterlimit="10"/>
<path d="M1691 757.769H0" stroke="#009149" stroke-opacity="0.6" stroke-miterlimit="10"/>
<path d="M1691 793.891H0" stroke="#009149" stroke-opacity="0.6" stroke-miterlimit="10"/>
<path d="M1691 830.013H0" stroke="#009149" stroke-opacity="0.6" stroke-miterlimit="10"/>
<path d="M1691 866.135H0" stroke="#009149" stroke-opacity="0.6" stroke-miterlimit="10"/>
<path d="M1691 902.257H0" stroke="#009149" stroke-opacity="0.6" stroke-miterlimit="10"/>
<path d="M1691 938.38H0" stroke="#009149" stroke-opacity="0.6" stroke-miterlimit="10"/>
<path d="M1691 974.502H0" stroke="#009149" stroke-opacity="0.6" stroke-miterlimit="10"/>
</g>
</svg>
