<svg width="3056" height="64" viewBox="0 0 3056 64" fill="none" xmlns="http://www.w3.org/2000/svg">
<g opacity="1">
<rect y="1" width="1533" height="63" fill="#B2D1C5"/>
<path d="M49.5 14H33L21 33.5L33 52.5H49.5L37.5 33.5L49.5 14Z" fill="#F1F2E0"/>
<path d="M86.5 14H70L58 33.5L70 52.5H86.5L74.5 33.5L86.5 14Z" fill="#F1F2E0"/>
<path d="M123.5 14H107L95 33.5L107 52.5H123.5L111.5 33.5L123.5 14Z" fill="#F1F2E0"/>
<path d="M346.5 14H330L318 33.5L330 52.5H346.5L334.5 33.5L346.5 14Z" fill="#F1F2E0"/>
<path d="M383.5 14H367L355 33.5L367 52.5H383.5L371.5 33.5L383.5 14Z" fill="#F1F2E0"/>
<path d="M420.5 14H404L392 33.5L404 52.5H420.5L408.5 33.5L420.5 14Z" fill="#F1F2E0"/>
<path d="M150.952 49C150.584 49 150.264 48.896 149.992 48.688L146.08 45.112L142.12 39.952C141.944 39.728 141.832 39.592 141.784 39.544C141.736 39.48 141.712 39.336 141.712 39.112V26.872C141.712 26.648 141.736 26.504 141.784 26.44C141.848 26.376 141.96 26.24 142.12 26.032L145.792 21.28L149.992 17.32C150.168 17.176 150.304 17.088 150.4 17.056C150.512 17.024 150.696 17.008 150.952 17.008H156.88C157.28 17.008 157.48 17.208 157.48 17.608V21.448C157.48 21.576 157.464 21.712 157.432 21.856C157.416 21.984 157.336 22.096 157.192 22.192L152.68 25.288L149.728 29.08V36.928L152.728 40.72L157.192 43.792C157.32 43.872 157.4 43.968 157.432 44.08C157.464 44.192 157.48 44.312 157.48 44.44V48.4C157.48 48.8 157.28 49 156.88 49H150.952ZM162.562 49C162.162 49 161.962 48.8 161.962 48.4V26.152C161.962 25.944 162.042 25.704 162.202 25.432L167.89 17.368C168.066 17.128 168.322 17.008 168.658 17.008H176.602C176.954 17.008 177.21 17.128 177.37 17.368L183.082 25.432C183.242 25.656 183.322 25.896 183.322 26.152V48.4C183.322 48.8 183.122 49 182.722 49H175.93C175.53 49 175.33 48.8 175.33 48.4V38.2H169.978V48.4C169.978 48.8 169.778 49 169.378 49H162.562ZM172.642 33.04C174.114 33.04 175.106 32.72 175.618 32.08C176.146 31.424 176.41 30.184 176.41 28.36C176.41 26.536 176.146 25.304 175.618 24.664C175.106 24.008 174.114 23.68 172.642 23.68C171.186 23.68 170.194 24.008 169.666 24.664C169.154 25.304 168.898 26.536 168.898 28.36C168.898 30.184 169.154 31.424 169.666 32.08C170.194 32.72 171.186 33.04 172.642 33.04ZM195.111 49C194.727 49 194.407 48.864 194.151 48.592L189.351 43.792C189.079 43.536 188.943 43.216 188.943 42.832V17.608C188.943 17.208 189.143 17.008 189.543 17.008H196.335C196.735 17.008 196.935 17.208 196.935 17.608V42.112C196.935 42.432 197.095 42.592 197.415 42.592H201.351V17.608C201.351 17.208 201.551 17.008 201.951 17.008H208.743C209.143 17.008 209.343 17.208 209.343 17.608V48.4C209.343 48.8 209.143 49 208.743 49H195.111ZM220.499 49C220.099 49 219.899 48.8 219.899 48.4V23.392H215.699C215.299 23.392 215.099 23.192 215.099 22.792V17.608C215.099 17.208 215.299 17.008 215.699 17.008H232.091C232.491 17.008 232.691 17.208 232.691 17.608V22.792C232.691 23.192 232.491 23.392 232.091 23.392H227.891V48.4C227.891 48.8 227.691 49 227.291 49H220.499ZM239.043 49C238.643 49 238.443 48.8 238.443 48.4V17.608C238.443 17.208 238.643 17.008 239.043 17.008H245.835C246.235 17.008 246.435 17.208 246.435 17.608V48.4C246.435 48.8 246.235 49 245.835 49H239.043ZM258.345 49C257.977 49 257.657 48.864 257.385 48.592L252.585 43.792C252.313 43.536 252.177 43.216 252.177 42.832V23.152C252.177 22.784 252.313 22.464 252.585 22.192L257.385 17.392C257.657 17.136 257.977 17.008 258.345 17.008H267.777C268.161 17.008 268.481 17.136 268.737 17.392L273.537 22.192C273.809 22.464 273.945 22.784 273.945 23.152V42.832C273.945 43.216 273.809 43.536 273.537 43.792L268.737 48.592C268.481 48.864 268.161 49 267.777 49H258.345ZM261.177 42.592H264.945C265.617 42.592 265.953 42.144 265.953 41.248V24.76C265.953 23.848 265.617 23.392 264.945 23.392H261.177C260.521 23.392 260.193 23.848 260.193 24.76V41.248C260.193 42.144 260.521 42.592 261.177 42.592ZM280.293 49C279.893 49 279.693 48.8 279.693 48.4V17.608C279.693 17.208 279.893 17.008 280.293 17.008H293.925C294.309 17.008 294.629 17.136 294.885 17.392L299.685 22.192C299.957 22.464 300.093 22.784 300.093 23.152V48.4C300.093 48.8 299.893 49 299.493 49H292.701C292.301 49 292.101 48.8 292.101 48.4V23.392H287.685V48.4C287.685 48.8 287.485 49 287.085 49H280.293Z" fill="#F1F2E0"/>
<path d="M463.5 14H447L435 33.5L447 52.5H463.5L451.5 33.5L463.5 14Z" fill="#F1F2E0"/>
<path d="M500.5 14H484L472 33.5L484 52.5H500.5L488.5 33.5L500.5 14Z" fill="#F1F2E0"/>
<path d="M537.5 14H521L509 33.5L521 52.5H537.5L525.5 33.5L537.5 14Z" fill="#F1F2E0"/>
<path d="M760.5 14H744L732 33.5L744 52.5H760.5L748.5 33.5L760.5 14Z" fill="#F1F2E0"/>
<path d="M797.5 14H781L769 33.5L781 52.5H797.5L785.5 33.5L797.5 14Z" fill="#F1F2E0"/>
<path d="M834.5 14H818L806 33.5L818 52.5H834.5L822.5 33.5L834.5 14Z" fill="#F1F2E0"/>
<path d="M564.952 49C564.584 49 564.264 48.896 563.992 48.688L560.08 45.112L556.12 39.952C555.944 39.728 555.832 39.592 555.784 39.544C555.736 39.48 555.712 39.336 555.712 39.112V26.872C555.712 26.648 555.736 26.504 555.784 26.44C555.848 26.376 555.96 26.24 556.12 26.032L559.792 21.28L563.992 17.32C564.168 17.176 564.304 17.088 564.4 17.056C564.512 17.024 564.696 17.008 564.952 17.008H570.88C571.28 17.008 571.48 17.208 571.48 17.608V21.448C571.48 21.576 571.464 21.712 571.432 21.856C571.416 21.984 571.336 22.096 571.192 22.192L566.68 25.288L563.728 29.08V36.928L566.728 40.72L571.192 43.792C571.32 43.872 571.4 43.968 571.432 44.08C571.464 44.192 571.48 44.312 571.48 44.44V48.4C571.48 48.8 571.28 49 570.88 49H564.952ZM576.562 49C576.162 49 575.962 48.8 575.962 48.4V26.152C575.962 25.944 576.042 25.704 576.202 25.432L581.89 17.368C582.066 17.128 582.322 17.008 582.658 17.008H590.602C590.954 17.008 591.21 17.128 591.37 17.368L597.082 25.432C597.242 25.656 597.322 25.896 597.322 26.152V48.4C597.322 48.8 597.122 49 596.722 49H589.93C589.53 49 589.33 48.8 589.33 48.4V38.2H583.978V48.4C583.978 48.8 583.778 49 583.378 49H576.562ZM586.642 33.04C588.114 33.04 589.106 32.72 589.618 32.08C590.146 31.424 590.41 30.184 590.41 28.36C590.41 26.536 590.146 25.304 589.618 24.664C589.106 24.008 588.114 23.68 586.642 23.68C585.186 23.68 584.194 24.008 583.666 24.664C583.154 25.304 582.898 26.536 582.898 28.36C582.898 30.184 583.154 31.424 583.666 32.08C584.194 32.72 585.186 33.04 586.642 33.04ZM609.111 49C608.727 49 608.407 48.864 608.151 48.592L603.351 43.792C603.079 43.536 602.943 43.216 602.943 42.832V17.608C602.943 17.208 603.143 17.008 603.543 17.008H610.335C610.735 17.008 610.935 17.208 610.935 17.608V42.112C610.935 42.432 611.095 42.592 611.415 42.592H615.351V17.608C615.351 17.208 615.551 17.008 615.951 17.008H622.743C623.143 17.008 623.343 17.208 623.343 17.608V48.4C623.343 48.8 623.143 49 622.743 49H609.111ZM634.499 49C634.099 49 633.899 48.8 633.899 48.4V23.392H629.699C629.299 23.392 629.099 23.192 629.099 22.792V17.608C629.099 17.208 629.299 17.008 629.699 17.008H646.091C646.491 17.008 646.691 17.208 646.691 17.608V22.792C646.691 23.192 646.491 23.392 646.091 23.392H641.891V48.4C641.891 48.8 641.691 49 641.291 49H634.499ZM653.043 49C652.643 49 652.443 48.8 652.443 48.4V17.608C652.443 17.208 652.643 17.008 653.043 17.008H659.835C660.235 17.008 660.435 17.208 660.435 17.608V48.4C660.435 48.8 660.235 49 659.835 49H653.043ZM672.345 49C671.977 49 671.657 48.864 671.385 48.592L666.585 43.792C666.313 43.536 666.177 43.216 666.177 42.832V23.152C666.177 22.784 666.313 22.464 666.585 22.192L671.385 17.392C671.657 17.136 671.977 17.008 672.345 17.008H681.777C682.161 17.008 682.481 17.136 682.737 17.392L687.537 22.192C687.809 22.464 687.945 22.784 687.945 23.152V42.832C687.945 43.216 687.809 43.536 687.537 43.792L682.737 48.592C682.481 48.864 682.161 49 681.777 49H672.345ZM675.177 42.592H678.945C679.617 42.592 679.953 42.144 679.953 41.248V24.76C679.953 23.848 679.617 23.392 678.945 23.392H675.177C674.521 23.392 674.193 23.848 674.193 24.76V41.248C674.193 42.144 674.521 42.592 675.177 42.592ZM694.293 49C693.893 49 693.693 48.8 693.693 48.4V17.608C693.693 17.208 693.893 17.008 694.293 17.008H707.925C708.309 17.008 708.629 17.136 708.885 17.392L713.685 22.192C713.957 22.464 714.093 22.784 714.093 23.152V48.4C714.093 48.8 713.893 49 713.493 49H706.701C706.301 49 706.101 48.8 706.101 48.4V23.392H701.685V48.4C701.685 48.8 701.485 49 701.085 49H694.293Z" fill="#F1F2E0"/>
<path d="M871.5 13H855L843 32.5L855 51.5H871.5L859.5 32.5L871.5 13Z" fill="#F1F2E0"/>
<path d="M908.5 13H892L880 32.5L892 51.5H908.5L896.5 32.5L908.5 13Z" fill="#F1F2E0"/>
<path d="M945.5 13H929L917 32.5L929 51.5H945.5L933.5 32.5L945.5 13Z" fill="#F1F2E0"/>
<path d="M1168.5 13H1152L1140 32.5L1152 51.5H1168.5L1156.5 32.5L1168.5 13Z" fill="#F1F2E0"/>
<path d="M1205.5 13H1189L1177 32.5L1189 51.5H1205.5L1193.5 32.5L1205.5 13Z" fill="#F1F2E0"/>
<path d="M1242.5 13H1226L1214 32.5L1226 51.5H1242.5L1230.5 32.5L1242.5 13Z" fill="#F1F2E0"/>
<path d="M972.952 48C972.584 48 972.264 47.896 971.992 47.688L968.08 44.112L964.12 38.952C963.944 38.728 963.832 38.592 963.784 38.544C963.736 38.48 963.712 38.336 963.712 38.112V25.872C963.712 25.648 963.736 25.504 963.784 25.44C963.848 25.376 963.96 25.24 964.12 25.032L967.792 20.28L971.992 16.32C972.168 16.176 972.304 16.088 972.4 16.056C972.512 16.024 972.696 16.008 972.952 16.008H978.88C979.28 16.008 979.48 16.208 979.48 16.608V20.448C979.48 20.576 979.464 20.712 979.432 20.856C979.416 20.984 979.336 21.096 979.192 21.192L974.68 24.288L971.728 28.08V35.928L974.728 39.72L979.192 42.792C979.32 42.872 979.4 42.968 979.432 43.08C979.464 43.192 979.48 43.312 979.48 43.44V47.4C979.48 47.8 979.28 48 978.88 48H972.952ZM984.562 48C984.162 48 983.962 47.8 983.962 47.4V25.152C983.962 24.944 984.042 24.704 984.202 24.432L989.89 16.368C990.066 16.128 990.322 16.008 990.658 16.008H998.602C998.954 16.008 999.21 16.128 999.37 16.368L1005.08 24.432C1005.24 24.656 1005.32 24.896 1005.32 25.152V47.4C1005.32 47.8 1005.12 48 1004.72 48H997.93C997.53 48 997.33 47.8 997.33 47.4V37.2H991.978V47.4C991.978 47.8 991.778 48 991.378 48H984.562ZM994.642 32.04C996.114 32.04 997.106 31.72 997.618 31.08C998.146 30.424 998.41 29.184 998.41 27.36C998.41 25.536 998.146 24.304 997.618 23.664C997.106 23.008 996.114 22.68 994.642 22.68C993.186 22.68 992.194 23.008 991.666 23.664C991.154 24.304 990.898 25.536 990.898 27.36C990.898 29.184 991.154 30.424 991.666 31.08C992.194 31.72 993.186 32.04 994.642 32.04ZM1017.11 48C1016.73 48 1016.41 47.864 1016.15 47.592L1011.35 42.792C1011.08 42.536 1010.94 42.216 1010.94 41.832V16.608C1010.94 16.208 1011.14 16.008 1011.54 16.008H1018.33C1018.73 16.008 1018.93 16.208 1018.93 16.608V41.112C1018.93 41.432 1019.09 41.592 1019.41 41.592H1023.35V16.608C1023.35 16.208 1023.55 16.008 1023.95 16.008H1030.74C1031.14 16.008 1031.34 16.208 1031.34 16.608V47.4C1031.34 47.8 1031.14 48 1030.74 48H1017.11ZM1042.5 48C1042.1 48 1041.9 47.8 1041.9 47.4V22.392H1037.7C1037.3 22.392 1037.1 22.192 1037.1 21.792V16.608C1037.1 16.208 1037.3 16.008 1037.7 16.008H1054.09C1054.49 16.008 1054.69 16.208 1054.69 16.608V21.792C1054.69 22.192 1054.49 22.392 1054.09 22.392H1049.89V47.4C1049.89 47.8 1049.69 48 1049.29 48H1042.5ZM1061.04 48C1060.64 48 1060.44 47.8 1060.44 47.4V16.608C1060.44 16.208 1060.64 16.008 1061.04 16.008H1067.83C1068.23 16.008 1068.43 16.208 1068.43 16.608V47.4C1068.43 47.8 1068.23 48 1067.83 48H1061.04ZM1080.34 48C1079.98 48 1079.66 47.864 1079.38 47.592L1074.58 42.792C1074.31 42.536 1074.18 42.216 1074.18 41.832V22.152C1074.18 21.784 1074.31 21.464 1074.58 21.192L1079.38 16.392C1079.66 16.136 1079.98 16.008 1080.34 16.008H1089.78C1090.16 16.008 1090.48 16.136 1090.74 16.392L1095.54 21.192C1095.81 21.464 1095.94 21.784 1095.94 22.152V41.832C1095.94 42.216 1095.81 42.536 1095.54 42.792L1090.74 47.592C1090.48 47.864 1090.16 48 1089.78 48H1080.34ZM1083.18 41.592H1086.94C1087.62 41.592 1087.95 41.144 1087.95 40.248V23.76C1087.95 22.848 1087.62 22.392 1086.94 22.392H1083.18C1082.52 22.392 1082.19 22.848 1082.19 23.76V40.248C1082.19 41.144 1082.52 41.592 1083.18 41.592ZM1102.29 48C1101.89 48 1101.69 47.8 1101.69 47.4V16.608C1101.69 16.208 1101.89 16.008 1102.29 16.008H1115.92C1116.31 16.008 1116.63 16.136 1116.88 16.392L1121.68 21.192C1121.96 21.464 1122.09 21.784 1122.09 22.152V47.4C1122.09 47.8 1121.89 48 1121.49 48H1114.7C1114.3 48 1114.1 47.8 1114.1 47.4V22.392H1109.68V47.4C1109.68 47.8 1109.48 48 1109.08 48H1102.29Z" fill="#F1F2E0"/>
<path d="M1279.5 14H1263L1251 33.5L1263 52.5H1279.5L1267.5 33.5L1279.5 14Z" fill="#F1F2E0"/>
<path d="M1316.5 14H1300L1288 33.5L1300 52.5H1316.5L1304.5 33.5L1316.5 14Z" fill="#F1F2E0"/>
<path d="M1353.5 14H1337L1325 33.5L1337 52.5H1353.5L1341.5 33.5L1353.5 14Z" fill="#F1F2E0"/>
<path d="M1380.95 49C1380.58 49 1380.26 48.896 1379.99 48.688L1376.08 45.112L1372.12 39.952C1371.94 39.728 1371.83 39.592 1371.78 39.544C1371.74 39.48 1371.71 39.336 1371.71 39.112V26.872C1371.71 26.648 1371.74 26.504 1371.78 26.44C1371.85 26.376 1371.96 26.24 1372.12 26.032L1375.79 21.28L1379.99 17.32C1380.17 17.176 1380.3 17.088 1380.4 17.056C1380.51 17.024 1380.7 17.008 1380.95 17.008H1386.88C1387.28 17.008 1387.48 17.208 1387.48 17.608V21.448C1387.48 21.576 1387.46 21.712 1387.43 21.856C1387.42 21.984 1387.34 22.096 1387.19 22.192L1382.68 25.288L1379.73 29.08V36.928L1382.73 40.72L1387.19 43.792C1387.32 43.872 1387.4 43.968 1387.43 44.08C1387.46 44.192 1387.48 44.312 1387.48 44.44V48.4C1387.48 48.8 1387.28 49 1386.88 49H1380.95ZM1392.56 49C1392.16 49 1391.96 48.8 1391.96 48.4V26.152C1391.96 25.944 1392.04 25.704 1392.2 25.432L1397.89 17.368C1398.07 17.128 1398.32 17.008 1398.66 17.008H1406.6C1406.95 17.008 1407.21 17.128 1407.37 17.368L1413.08 25.432C1413.24 25.656 1413.32 25.896 1413.32 26.152V48.4C1413.32 48.8 1413.12 49 1412.72 49H1405.93C1405.53 49 1405.33 48.8 1405.33 48.4V38.2H1399.98V48.4C1399.98 48.8 1399.78 49 1399.38 49H1392.56ZM1402.64 33.04C1404.11 33.04 1405.11 32.72 1405.62 32.08C1406.15 31.424 1406.41 30.184 1406.41 28.36C1406.41 26.536 1406.15 25.304 1405.62 24.664C1405.11 24.008 1404.11 23.68 1402.64 23.68C1401.19 23.68 1400.19 24.008 1399.67 24.664C1399.15 25.304 1398.9 26.536 1398.9 28.36C1398.9 30.184 1399.15 31.424 1399.67 32.08C1400.19 32.72 1401.19 33.04 1402.64 33.04ZM1425.11 49C1424.73 49 1424.41 48.864 1424.15 48.592L1419.35 43.792C1419.08 43.536 1418.94 43.216 1418.94 42.832V17.608C1418.94 17.208 1419.14 17.008 1419.54 17.008H1426.33C1426.73 17.008 1426.93 17.208 1426.93 17.608V42.112C1426.93 42.432 1427.09 42.592 1427.41 42.592H1431.35V17.608C1431.35 17.208 1431.55 17.008 1431.95 17.008H1438.74C1439.14 17.008 1439.34 17.208 1439.34 17.608V48.4C1439.34 48.8 1439.14 49 1438.74 49H1425.11ZM1450.5 49C1450.1 49 1449.9 48.8 1449.9 48.4V23.392H1445.7C1445.3 23.392 1445.1 23.192 1445.1 22.792V17.608C1445.1 17.208 1445.3 17.008 1445.7 17.008H1462.09C1462.49 17.008 1462.69 17.208 1462.69 17.608V22.792C1462.69 23.192 1462.49 23.392 1462.09 23.392H1457.89V48.4C1457.89 48.8 1457.69 49 1457.29 49H1450.5ZM1469.04 49C1468.64 49 1468.44 48.8 1468.44 48.4V17.608C1468.44 17.208 1468.64 17.008 1469.04 17.008H1475.83C1476.23 17.008 1476.43 17.208 1476.43 17.608V48.4C1476.43 48.8 1476.23 49 1475.83 49H1469.04ZM1488.34 49C1487.98 49 1487.66 48.864 1487.38 48.592L1482.58 43.792C1482.31 43.536 1482.18 43.216 1482.18 42.832V23.152C1482.18 22.784 1482.31 22.464 1482.58 22.192L1487.38 17.392C1487.66 17.136 1487.98 17.008 1488.34 17.008H1497.78C1498.16 17.008 1498.48 17.136 1498.74 17.392L1503.54 22.192C1503.81 22.464 1503.94 22.784 1503.94 23.152V42.832C1503.94 43.216 1503.81 43.536 1503.54 43.792L1498.74 48.592C1498.48 48.864 1498.16 49 1497.78 49H1488.34ZM1491.18 42.592H1494.94C1495.62 42.592 1495.95 42.144 1495.95 41.248V24.76C1495.95 23.848 1495.62 23.392 1494.94 23.392H1491.18C1490.52 23.392 1490.19 23.848 1490.19 24.76V41.248C1490.19 42.144 1490.52 42.592 1491.18 42.592ZM1510.29 49C1509.89 49 1509.69 48.8 1509.69 48.4V17.608C1509.69 17.208 1509.89 17.008 1510.29 17.008H1523.92C1524.31 17.008 1524.63 17.136 1524.88 17.392L1529.68 22.192C1529.96 22.464 1530.09 22.784 1530.09 23.152V48.4C1530.09 48.8 1529.89 49 1529.49 49H1522.7C1522.3 49 1522.1 48.8 1522.1 48.4V23.392H1517.68V48.4C1517.68 48.8 1517.48 49 1517.08 49H1510.29Z" fill="#F1F2E0"/>
</g>
<g opacity="1">
<rect x="1533" y="1" width="1523" height="63" fill="#B2D1C5"/>
<path d="M1572.5 14H1556L1544 33.5L1556 52.5H1572.5L1560.5 33.5L1572.5 14Z" fill="#F1F2E0"/>
<path d="M1609.5 14H1593L1581 33.5L1593 52.5H1609.5L1597.5 33.5L1609.5 14Z" fill="#F1F2E0"/>
<path d="M1646.5 14H1630L1618 33.5L1630 52.5H1646.5L1634.5 33.5L1646.5 14Z" fill="#F1F2E0"/>
<path d="M1869.5 14H1853L1841 33.5L1853 52.5H1869.5L1857.5 33.5L1869.5 14Z" fill="#F1F2E0"/>
<path d="M1906.5 14H1890L1878 33.5L1890 52.5H1906.5L1894.5 33.5L1906.5 14Z" fill="#F1F2E0"/>
<path d="M1943.5 14H1927L1915 33.5L1927 52.5H1943.5L1931.5 33.5L1943.5 14Z" fill="#F1F2E0"/>
<path d="M1673.95 49C1673.58 49 1673.26 48.896 1672.99 48.688L1669.08 45.112L1665.12 39.952C1664.94 39.728 1664.83 39.592 1664.78 39.544C1664.74 39.48 1664.71 39.336 1664.71 39.112V26.872C1664.71 26.648 1664.74 26.504 1664.78 26.44C1664.85 26.376 1664.96 26.24 1665.12 26.032L1668.79 21.28L1672.99 17.32C1673.17 17.176 1673.3 17.088 1673.4 17.056C1673.51 17.024 1673.7 17.008 1673.95 17.008H1679.88C1680.28 17.008 1680.48 17.208 1680.48 17.608V21.448C1680.48 21.576 1680.46 21.712 1680.43 21.856C1680.42 21.984 1680.34 22.096 1680.19 22.192L1675.68 25.288L1672.73 29.08V36.928L1675.73 40.72L1680.19 43.792C1680.32 43.872 1680.4 43.968 1680.43 44.08C1680.46 44.192 1680.48 44.312 1680.48 44.44V48.4C1680.48 48.8 1680.28 49 1679.88 49H1673.95ZM1685.56 49C1685.16 49 1684.96 48.8 1684.96 48.4V26.152C1684.96 25.944 1685.04 25.704 1685.2 25.432L1690.89 17.368C1691.07 17.128 1691.32 17.008 1691.66 17.008H1699.6C1699.95 17.008 1700.21 17.128 1700.37 17.368L1706.08 25.432C1706.24 25.656 1706.32 25.896 1706.32 26.152V48.4C1706.32 48.8 1706.12 49 1705.72 49H1698.93C1698.53 49 1698.33 48.8 1698.33 48.4V38.2H1692.98V48.4C1692.98 48.8 1692.78 49 1692.38 49H1685.56ZM1695.64 33.04C1697.11 33.04 1698.11 32.72 1698.62 32.08C1699.15 31.424 1699.41 30.184 1699.41 28.36C1699.41 26.536 1699.15 25.304 1698.62 24.664C1698.11 24.008 1697.11 23.68 1695.64 23.68C1694.19 23.68 1693.19 24.008 1692.67 24.664C1692.15 25.304 1691.9 26.536 1691.9 28.36C1691.9 30.184 1692.15 31.424 1692.67 32.08C1693.19 32.72 1694.19 33.04 1695.64 33.04ZM1718.11 49C1717.73 49 1717.41 48.864 1717.15 48.592L1712.35 43.792C1712.08 43.536 1711.94 43.216 1711.94 42.832V17.608C1711.94 17.208 1712.14 17.008 1712.54 17.008H1719.33C1719.73 17.008 1719.93 17.208 1719.93 17.608V42.112C1719.93 42.432 1720.09 42.592 1720.41 42.592H1724.35V17.608C1724.35 17.208 1724.55 17.008 1724.95 17.008H1731.74C1732.14 17.008 1732.34 17.208 1732.34 17.608V48.4C1732.34 48.8 1732.14 49 1731.74 49H1718.11ZM1743.5 49C1743.1 49 1742.9 48.8 1742.9 48.4V23.392H1738.7C1738.3 23.392 1738.1 23.192 1738.1 22.792V17.608C1738.1 17.208 1738.3 17.008 1738.7 17.008H1755.09C1755.49 17.008 1755.69 17.208 1755.69 17.608V22.792C1755.69 23.192 1755.49 23.392 1755.09 23.392H1750.89V48.4C1750.89 48.8 1750.69 49 1750.29 49H1743.5ZM1762.04 49C1761.64 49 1761.44 48.8 1761.44 48.4V17.608C1761.44 17.208 1761.64 17.008 1762.04 17.008H1768.83C1769.23 17.008 1769.43 17.208 1769.43 17.608V48.4C1769.43 48.8 1769.23 49 1768.83 49H1762.04ZM1781.34 49C1780.98 49 1780.66 48.864 1780.38 48.592L1775.58 43.792C1775.31 43.536 1775.18 43.216 1775.18 42.832V23.152C1775.18 22.784 1775.31 22.464 1775.58 22.192L1780.38 17.392C1780.66 17.136 1780.98 17.008 1781.34 17.008H1790.78C1791.16 17.008 1791.48 17.136 1791.74 17.392L1796.54 22.192C1796.81 22.464 1796.94 22.784 1796.94 23.152V42.832C1796.94 43.216 1796.81 43.536 1796.54 43.792L1791.74 48.592C1791.48 48.864 1791.16 49 1790.78 49H1781.34ZM1784.18 42.592H1787.94C1788.62 42.592 1788.95 42.144 1788.95 41.248V24.76C1788.95 23.848 1788.62 23.392 1787.94 23.392H1784.18C1783.52 23.392 1783.19 23.848 1783.19 24.76V41.248C1783.19 42.144 1783.52 42.592 1784.18 42.592ZM1803.29 49C1802.89 49 1802.69 48.8 1802.69 48.4V17.608C1802.69 17.208 1802.89 17.008 1803.29 17.008H1816.92C1817.31 17.008 1817.63 17.136 1817.88 17.392L1822.68 22.192C1822.96 22.464 1823.09 22.784 1823.09 23.152V48.4C1823.09 48.8 1822.89 49 1822.49 49H1815.7C1815.3 49 1815.1 48.8 1815.1 48.4V23.392H1810.68V48.4C1810.68 48.8 1810.48 49 1810.08 49H1803.29Z" fill="#F1F2E0"/>
<path d="M1986.5 14H1970L1958 33.5L1970 52.5H1986.5L1974.5 33.5L1986.5 14Z" fill="#F1F2E0"/>
<path d="M2023.5 14H2007L1995 33.5L2007 52.5H2023.5L2011.5 33.5L2023.5 14Z" fill="#F1F2E0"/>
<path d="M2060.5 14H2044L2032 33.5L2044 52.5H2060.5L2048.5 33.5L2060.5 14Z" fill="#F1F2E0"/>
<path d="M2283.5 14H2267L2255 33.5L2267 52.5H2283.5L2271.5 33.5L2283.5 14Z" fill="#F1F2E0"/>
<path d="M2320.5 14H2304L2292 33.5L2304 52.5H2320.5L2308.5 33.5L2320.5 14Z" fill="#F1F2E0"/>
<path d="M2357.5 14H2341L2329 33.5L2341 52.5H2357.5L2345.5 33.5L2357.5 14Z" fill="#F1F2E0"/>
<path d="M2087.95 49C2087.58 49 2087.26 48.896 2086.99 48.688L2083.08 45.112L2079.12 39.952C2078.94 39.728 2078.83 39.592 2078.78 39.544C2078.74 39.48 2078.71 39.336 2078.71 39.112V26.872C2078.71 26.648 2078.74 26.504 2078.78 26.44C2078.85 26.376 2078.96 26.24 2079.12 26.032L2082.79 21.28L2086.99 17.32C2087.17 17.176 2087.3 17.088 2087.4 17.056C2087.51 17.024 2087.7 17.008 2087.95 17.008H2093.88C2094.28 17.008 2094.48 17.208 2094.48 17.608V21.448C2094.48 21.576 2094.46 21.712 2094.43 21.856C2094.42 21.984 2094.34 22.096 2094.19 22.192L2089.68 25.288L2086.73 29.08V36.928L2089.73 40.72L2094.19 43.792C2094.32 43.872 2094.4 43.968 2094.43 44.08C2094.46 44.192 2094.48 44.312 2094.48 44.44V48.4C2094.48 48.8 2094.28 49 2093.88 49H2087.95ZM2099.56 49C2099.16 49 2098.96 48.8 2098.96 48.4V26.152C2098.96 25.944 2099.04 25.704 2099.2 25.432L2104.89 17.368C2105.07 17.128 2105.32 17.008 2105.66 17.008H2113.6C2113.95 17.008 2114.21 17.128 2114.37 17.368L2120.08 25.432C2120.24 25.656 2120.32 25.896 2120.32 26.152V48.4C2120.32 48.8 2120.12 49 2119.72 49H2112.93C2112.53 49 2112.33 48.8 2112.33 48.4V38.2H2106.98V48.4C2106.98 48.8 2106.78 49 2106.38 49H2099.56ZM2109.64 33.04C2111.11 33.04 2112.11 32.72 2112.62 32.08C2113.15 31.424 2113.41 30.184 2113.41 28.36C2113.41 26.536 2113.15 25.304 2112.62 24.664C2112.11 24.008 2111.11 23.68 2109.64 23.68C2108.19 23.68 2107.19 24.008 2106.67 24.664C2106.15 25.304 2105.9 26.536 2105.9 28.36C2105.9 30.184 2106.15 31.424 2106.67 32.08C2107.19 32.72 2108.19 33.04 2109.64 33.04ZM2132.11 49C2131.73 49 2131.41 48.864 2131.15 48.592L2126.35 43.792C2126.08 43.536 2125.94 43.216 2125.94 42.832V17.608C2125.94 17.208 2126.14 17.008 2126.54 17.008H2133.33C2133.73 17.008 2133.93 17.208 2133.93 17.608V42.112C2133.93 42.432 2134.09 42.592 2134.41 42.592H2138.35V17.608C2138.35 17.208 2138.55 17.008 2138.95 17.008H2145.74C2146.14 17.008 2146.34 17.208 2146.34 17.608V48.4C2146.34 48.8 2146.14 49 2145.74 49H2132.11ZM2157.5 49C2157.1 49 2156.9 48.8 2156.9 48.4V23.392H2152.7C2152.3 23.392 2152.1 23.192 2152.1 22.792V17.608C2152.1 17.208 2152.3 17.008 2152.7 17.008H2169.09C2169.49 17.008 2169.69 17.208 2169.69 17.608V22.792C2169.69 23.192 2169.49 23.392 2169.09 23.392H2164.89V48.4C2164.89 48.8 2164.69 49 2164.29 49H2157.5ZM2176.04 49C2175.64 49 2175.44 48.8 2175.44 48.4V17.608C2175.44 17.208 2175.64 17.008 2176.04 17.008H2182.83C2183.23 17.008 2183.43 17.208 2183.43 17.608V48.4C2183.43 48.8 2183.23 49 2182.83 49H2176.04ZM2195.34 49C2194.98 49 2194.66 48.864 2194.38 48.592L2189.58 43.792C2189.31 43.536 2189.18 43.216 2189.18 42.832V23.152C2189.18 22.784 2189.31 22.464 2189.58 22.192L2194.38 17.392C2194.66 17.136 2194.98 17.008 2195.34 17.008H2204.78C2205.16 17.008 2205.48 17.136 2205.74 17.392L2210.54 22.192C2210.81 22.464 2210.94 22.784 2210.94 23.152V42.832C2210.94 43.216 2210.81 43.536 2210.54 43.792L2205.74 48.592C2205.48 48.864 2205.16 49 2204.78 49H2195.34ZM2198.18 42.592H2201.94C2202.62 42.592 2202.95 42.144 2202.95 41.248V24.76C2202.95 23.848 2202.62 23.392 2201.94 23.392H2198.18C2197.52 23.392 2197.19 23.848 2197.19 24.76V41.248C2197.19 42.144 2197.52 42.592 2198.18 42.592ZM2217.29 49C2216.89 49 2216.69 48.8 2216.69 48.4V17.608C2216.69 17.208 2216.89 17.008 2217.29 17.008H2230.92C2231.31 17.008 2231.63 17.136 2231.88 17.392L2236.68 22.192C2236.96 22.464 2237.09 22.784 2237.09 23.152V48.4C2237.09 48.8 2236.89 49 2236.49 49H2229.7C2229.3 49 2229.1 48.8 2229.1 48.4V23.392H2224.68V48.4C2224.68 48.8 2224.48 49 2224.08 49H2217.29Z" fill="#F1F2E0"/>
<path d="M2394.5 13H2378L2366 32.5L2378 51.5H2394.5L2382.5 32.5L2394.5 13Z" fill="#F1F2E0"/>
<path d="M2431.5 13H2415L2403 32.5L2415 51.5H2431.5L2419.5 32.5L2431.5 13Z" fill="#F1F2E0"/>
<path d="M2468.5 13H2452L2440 32.5L2452 51.5H2468.5L2456.5 32.5L2468.5 13Z" fill="#F1F2E0"/>
<path d="M2691.5 13H2675L2663 32.5L2675 51.5H2691.5L2679.5 32.5L2691.5 13Z" fill="#F1F2E0"/>
<path d="M2728.5 13H2712L2700 32.5L2712 51.5H2728.5L2716.5 32.5L2728.5 13Z" fill="#F1F2E0"/>
<path d="M2765.5 13H2749L2737 32.5L2749 51.5H2765.5L2753.5 32.5L2765.5 13Z" fill="#F1F2E0"/>
<path d="M2495.95 48C2495.58 48 2495.26 47.896 2494.99 47.688L2491.08 44.112L2487.12 38.952C2486.94 38.728 2486.83 38.592 2486.78 38.544C2486.74 38.48 2486.71 38.336 2486.71 38.112V25.872C2486.71 25.648 2486.74 25.504 2486.78 25.44C2486.85 25.376 2486.96 25.24 2487.12 25.032L2490.79 20.28L2494.99 16.32C2495.17 16.176 2495.3 16.088 2495.4 16.056C2495.51 16.024 2495.7 16.008 2495.95 16.008H2501.88C2502.28 16.008 2502.48 16.208 2502.48 16.608V20.448C2502.48 20.576 2502.46 20.712 2502.43 20.856C2502.42 20.984 2502.34 21.096 2502.19 21.192L2497.68 24.288L2494.73 28.08V35.928L2497.73 39.72L2502.19 42.792C2502.32 42.872 2502.4 42.968 2502.43 43.08C2502.46 43.192 2502.48 43.312 2502.48 43.44V47.4C2502.48 47.8 2502.28 48 2501.88 48H2495.95ZM2507.56 48C2507.16 48 2506.96 47.8 2506.96 47.4V25.152C2506.96 24.944 2507.04 24.704 2507.2 24.432L2512.89 16.368C2513.07 16.128 2513.32 16.008 2513.66 16.008H2521.6C2521.95 16.008 2522.21 16.128 2522.37 16.368L2528.08 24.432C2528.24 24.656 2528.32 24.896 2528.32 25.152V47.4C2528.32 47.8 2528.12 48 2527.72 48H2520.93C2520.53 48 2520.33 47.8 2520.33 47.4V37.2H2514.98V47.4C2514.98 47.8 2514.78 48 2514.38 48H2507.56ZM2517.64 32.04C2519.11 32.04 2520.11 31.72 2520.62 31.08C2521.15 30.424 2521.41 29.184 2521.41 27.36C2521.41 25.536 2521.15 24.304 2520.62 23.664C2520.11 23.008 2519.11 22.68 2517.64 22.68C2516.19 22.68 2515.19 23.008 2514.67 23.664C2514.15 24.304 2513.9 25.536 2513.9 27.36C2513.9 29.184 2514.15 30.424 2514.67 31.08C2515.19 31.72 2516.19 32.04 2517.64 32.04ZM2540.11 48C2539.73 48 2539.41 47.864 2539.15 47.592L2534.35 42.792C2534.08 42.536 2533.94 42.216 2533.94 41.832V16.608C2533.94 16.208 2534.14 16.008 2534.54 16.008H2541.33C2541.73 16.008 2541.93 16.208 2541.93 16.608V41.112C2541.93 41.432 2542.09 41.592 2542.41 41.592H2546.35V16.608C2546.35 16.208 2546.55 16.008 2546.95 16.008H2553.74C2554.14 16.008 2554.34 16.208 2554.34 16.608V47.4C2554.34 47.8 2554.14 48 2553.74 48H2540.11ZM2565.5 48C2565.1 48 2564.9 47.8 2564.9 47.4V22.392H2560.7C2560.3 22.392 2560.1 22.192 2560.1 21.792V16.608C2560.1 16.208 2560.3 16.008 2560.7 16.008H2577.09C2577.49 16.008 2577.69 16.208 2577.69 16.608V21.792C2577.69 22.192 2577.49 22.392 2577.09 22.392H2572.89V47.4C2572.89 47.8 2572.69 48 2572.29 48H2565.5ZM2584.04 48C2583.64 48 2583.44 47.8 2583.44 47.4V16.608C2583.44 16.208 2583.64 16.008 2584.04 16.008H2590.83C2591.23 16.008 2591.43 16.208 2591.43 16.608V47.4C2591.43 47.8 2591.23 48 2590.83 48H2584.04ZM2603.34 48C2602.98 48 2602.66 47.864 2602.38 47.592L2597.58 42.792C2597.31 42.536 2597.18 42.216 2597.18 41.832V22.152C2597.18 21.784 2597.31 21.464 2597.58 21.192L2602.38 16.392C2602.66 16.136 2602.98 16.008 2603.34 16.008H2612.78C2613.16 16.008 2613.48 16.136 2613.74 16.392L2618.54 21.192C2618.81 21.464 2618.94 21.784 2618.94 22.152V41.832C2618.94 42.216 2618.81 42.536 2618.54 42.792L2613.74 47.592C2613.48 47.864 2613.16 48 2612.78 48H2603.34ZM2606.18 41.592H2609.94C2610.62 41.592 2610.95 41.144 2610.95 40.248V23.76C2610.95 22.848 2610.62 22.392 2609.94 22.392H2606.18C2605.52 22.392 2605.19 22.848 2605.19 23.76V40.248C2605.19 41.144 2605.52 41.592 2606.18 41.592ZM2625.29 48C2624.89 48 2624.69 47.8 2624.69 47.4V16.608C2624.69 16.208 2624.89 16.008 2625.29 16.008H2638.92C2639.31 16.008 2639.63 16.136 2639.88 16.392L2644.68 21.192C2644.96 21.464 2645.09 21.784 2645.09 22.152V47.4C2645.09 47.8 2644.89 48 2644.49 48H2637.7C2637.3 48 2637.1 47.8 2637.1 47.4V22.392H2632.68V47.4C2632.68 47.8 2632.48 48 2632.08 48H2625.29Z" fill="#F1F2E0"/>
<path d="M2802.5 14H2786L2774 33.5L2786 52.5H2802.5L2790.5 33.5L2802.5 14Z" fill="#F1F2E0"/>
<path d="M2839.5 14H2823L2811 33.5L2823 52.5H2839.5L2827.5 33.5L2839.5 14Z" fill="#F1F2E0"/>
<path d="M2876.5 14H2860L2848 33.5L2860 52.5H2876.5L2864.5 33.5L2876.5 14Z" fill="#F1F2E0"/>
<path d="M2903.95 49C2903.58 49 2903.26 48.896 2902.99 48.688L2899.08 45.112L2895.12 39.952C2894.94 39.728 2894.83 39.592 2894.78 39.544C2894.74 39.48 2894.71 39.336 2894.71 39.112V26.872C2894.71 26.648 2894.74 26.504 2894.78 26.44C2894.85 26.376 2894.96 26.24 2895.12 26.032L2898.79 21.28L2902.99 17.32C2903.17 17.176 2903.3 17.088 2903.4 17.056C2903.51 17.024 2903.7 17.008 2903.95 17.008H2909.88C2910.28 17.008 2910.48 17.208 2910.48 17.608V21.448C2910.48 21.576 2910.46 21.712 2910.43 21.856C2910.42 21.984 2910.34 22.096 2910.19 22.192L2905.68 25.288L2902.73 29.08V36.928L2905.73 40.72L2910.19 43.792C2910.32 43.872 2910.4 43.968 2910.43 44.08C2910.46 44.192 2910.48 44.312 2910.48 44.44V48.4C2910.48 48.8 2910.28 49 2909.88 49H2903.95ZM2915.56 49C2915.16 49 2914.96 48.8 2914.96 48.4V26.152C2914.96 25.944 2915.04 25.704 2915.2 25.432L2920.89 17.368C2921.07 17.128 2921.32 17.008 2921.66 17.008H2929.6C2929.95 17.008 2930.21 17.128 2930.37 17.368L2936.08 25.432C2936.24 25.656 2936.32 25.896 2936.32 26.152V48.4C2936.32 48.8 2936.12 49 2935.72 49H2928.93C2928.53 49 2928.33 48.8 2928.33 48.4V38.2H2922.98V48.4C2922.98 48.8 2922.78 49 2922.38 49H2915.56ZM2925.64 33.04C2927.11 33.04 2928.11 32.72 2928.62 32.08C2929.15 31.424 2929.41 30.184 2929.41 28.36C2929.41 26.536 2929.15 25.304 2928.62 24.664C2928.11 24.008 2927.11 23.68 2925.64 23.68C2924.19 23.68 2923.19 24.008 2922.67 24.664C2922.15 25.304 2921.9 26.536 2921.9 28.36C2921.9 30.184 2922.15 31.424 2922.67 32.08C2923.19 32.72 2924.19 33.04 2925.64 33.04ZM2948.11 49C2947.73 49 2947.41 48.864 2947.15 48.592L2942.35 43.792C2942.08 43.536 2941.94 43.216 2941.94 42.832V17.608C2941.94 17.208 2942.14 17.008 2942.54 17.008H2949.33C2949.73 17.008 2949.93 17.208 2949.93 17.608V42.112C2949.93 42.432 2950.09 42.592 2950.41 42.592H2954.35V17.608C2954.35 17.208 2954.55 17.008 2954.95 17.008H2961.74C2962.14 17.008 2962.34 17.208 2962.34 17.608V48.4C2962.34 48.8 2962.14 49 2961.74 49H2948.11ZM2973.5 49C2973.1 49 2972.9 48.8 2972.9 48.4V23.392H2968.7C2968.3 23.392 2968.1 23.192 2968.1 22.792V17.608C2968.1 17.208 2968.3 17.008 2968.7 17.008H2985.09C2985.49 17.008 2985.69 17.208 2985.69 17.608V22.792C2985.69 23.192 2985.49 23.392 2985.09 23.392H2980.89V48.4C2980.89 48.8 2980.69 49 2980.29 49H2973.5ZM2992.04 49C2991.64 49 2991.44 48.8 2991.44 48.4V17.608C2991.44 17.208 2991.64 17.008 2992.04 17.008H2998.83C2999.23 17.008 2999.43 17.208 2999.43 17.608V48.4C2999.43 48.8 2999.23 49 2998.83 49H2992.04ZM3011.34 49C3010.98 49 3010.66 48.864 3010.38 48.592L3005.58 43.792C3005.31 43.536 3005.18 43.216 3005.18 42.832V23.152C3005.18 22.784 3005.31 22.464 3005.58 22.192L3010.38 17.392C3010.66 17.136 3010.98 17.008 3011.34 17.008H3020.78C3021.16 17.008 3021.48 17.136 3021.74 17.392L3026.54 22.192C3026.81 22.464 3026.94 22.784 3026.94 23.152V42.832C3026.94 43.216 3026.81 43.536 3026.54 43.792L3021.74 48.592C3021.48 48.864 3021.16 49 3020.78 49H3011.34ZM3014.18 42.592H3017.94C3018.62 42.592 3018.95 42.144 3018.95 41.248V24.76C3018.95 23.848 3018.62 23.392 3017.94 23.392H3014.18C3013.52 23.392 3013.19 23.848 3013.19 24.76V41.248C3013.19 42.144 3013.52 42.592 3014.18 42.592ZM3033.29 49C3032.89 49 3032.69 48.8 3032.69 48.4V17.608C3032.69 17.208 3032.89 17.008 3033.29 17.008H3046.92C3047.31 17.008 3047.63 17.136 3047.88 17.392L3052.68 22.192C3052.96 22.464 3053.09 22.784 3053.09 23.152V48.4C3053.09 48.8 3052.89 49 3052.49 49H3045.7C3045.3 49 3045.1 48.8 3045.1 48.4V23.392H3040.68V48.4C3040.68 48.8 3040.48 49 3040.08 49H3033.29Z" fill="#F1F2E0"/>
</g>
</svg>
