<svg width="339" height="380" viewBox="0 0 339 380" fill="none" xmlns="http://www.w3.org/2000/svg">
<path fill-rule="evenodd" clip-rule="evenodd" d="M108.888 8.59864L231.622 2L272.864 42.2517L318.395 39.6122L337.201 57.7585V151.129L318.395 171.915L273.524 173.895L229.973 221.735L181.143 224.544L181.245 242.641L181.563 298.981L181.143 378.5H167.616V299.816V243.376V225.322L109.548 228.663L65.3367 187.422L20.1361 190.061L1 172.245V77.8844L20.1361 57.4286L64.017 55.449L108.888 8.59864Z" fill="#D9D9D9"/>
<path fill-rule="evenodd" clip-rule="evenodd" d="M108.888 8.59864L231.622 2L272.864 42.2517L318.395 39.6122L337.201 57.7585V151.129L318.395 171.915L273.524 173.895L229.973 221.735L181.143 224.544L181.245 242.641L181.563 298.981L181.143 378.5H167.616V299.816V243.376V225.322L109.548 228.663L65.3367 187.422L20.1361 190.061L1 172.245V77.8844L20.1361 57.4286L64.017 55.449L108.888 8.59864Z" fill="black" fill-opacity="0.2"/>
<path d="M226.344 296.299L254.388 266.276L226.344 240.211L181.245 242.641L181.563 298.981L226.344 296.299Z" fill="#D9D9D9"/>
<path d="M226.344 296.299L254.388 266.276L226.344 240.211L181.245 242.641L181.563 298.981L226.344 296.299Z" fill="black" fill-opacity="0.2"/>
<path d="M116.146 246.15L87.7721 275.844L116.146 302.898L167.616 299.816V243.376L116.146 246.15Z" fill="#D9D9D9"/>
<path d="M116.146 246.15L87.7721 275.844L116.146 302.898L167.616 299.816V243.376L116.146 246.15Z" fill="black" fill-opacity="0.2"/>
<path d="M167.616 225.322L109.548 228.663L65.3367 187.422L20.1361 190.061L1 172.245V77.8844L20.1361 57.4286L64.017 55.449L108.888 8.59864L231.622 2L272.864 42.2517L318.395 39.6122L337.201 57.7585V151.129L318.395 171.915L273.524 173.895L229.973 221.735L181.143 224.544M167.616 225.322L181.143 224.544M167.616 225.322V243.376M181.143 224.544L181.245 242.641M181.245 242.641L226.344 240.211L254.388 266.276L226.344 296.299L181.563 298.981M181.245 242.641L181.563 298.981M181.245 242.641L167.616 243.376M181.563 298.981L181.143 378.5H167.616V299.816M181.563 298.981L167.616 299.816M167.616 299.816L116.146 302.898L87.7721 275.844L116.146 246.15L167.616 243.376M167.616 299.816V243.376M226.673 8.59864L111.857 14.8673L67.6463 63.0374L23.1054 65.017L8.58844 80.5238V167.956L22.7755 181.483L68.6361 179.173L111.527 220.415L226.344 213.486L270.224 166.966L315.095 164.327L329.942 148.49V61.3878L315.755 47.8605L270.224 50.1701L226.673 8.59864Z" stroke="#3C3838" stroke-width="2"/>
<path d="M181.473 248.129L165.966 248.789L143.531 272.874L165.966 293.99L182.463 293L165.966 278.153L198.299 276.503V263.306L165.966 264.956L181.473 248.129Z" fill="white" stroke="black" stroke-width="2"/>
</svg>
