<svg width="333" height="620" viewBox="0 0 333 620" fill="none" xmlns="http://www.w3.org/2000/svg">
<path d="M161 619V322H172V619H161Z" fill="#D9D9D9" stroke="#3C3838" stroke-width="2"/>
<path d="M294 430.658L286.783 426L77.4783 426.776L74.7717 428.329L46.8043 450.842L45 454.724L46.8043 459.382L77.4783 485H288.587L294 480.342V430.658Z" fill="#D9D9D9" stroke="#3C3838" stroke-width="2"/>
<path d="M288 433.111L284.386 430L80.2008 431.556L78.3938 433.111L55.5844 450.55L54 453.518L55.5844 457.079L78.3938 476.667L284.386 479L288 476.667V433.111Z" fill="#D9D9D9" stroke="black" stroke-width="2"/>
<rect x="166.142" y="1.41421" width="232.96" height="232.96" rx="11" transform="rotate(45 166.142 1.41421)" fill="#D9D9D9" stroke="black" stroke-width="2"/>
<rect x="165.764" y="18.0648" width="208.879" height="208.879" rx="11" transform="rotate(45 165.764 18.0648)" fill="#D9D9D9" stroke="black" stroke-width="2"/>
</svg>
