<svg width="209" height="338" viewBox="0 0 209 338" fill="none" xmlns="http://www.w3.org/2000/svg">
<path d="M61.5297 1H147.028L207.558 60.7731V150.054L147.028 209.071H109.197V336.5H100.117V209.071H61.5297L1 150.054V60.7731L61.5297 1Z" fill="#D9D9D9"/>
<path d="M100.117 209.071H61.5297L1 150.054V60.7731L61.5297 1H147.028L207.558 60.7731V150.054L147.028 209.071H109.197M100.117 209.071V336.5H109.197V209.071M100.117 209.071H109.197M64.5562 8.56622H144.001L201.505 65.3128V146.271L147.028 201.505H64.5562L7.80959 146.271V65.3128L64.5562 8.56622Z" stroke="#3C3838" stroke-width="2"/>
<rect x="24.6987" y="224.447" width="159.917" height="85.7681" rx="5" fill="#D9D9D9" stroke="black" stroke-width="2"/>
</svg>
