<svg width="340" height="384" viewBox="0 0 340 384" fill="none" xmlns="http://www.w3.org/2000/svg">
<mask id="mask0_638_333" style="mask-type:luminance" maskUnits="userSpaceOnUse" x="0" y="0" width="340" height="384">
<path d="M340 0H0V384H340V0Z" fill="white"/>
</mask>
<g mask="url(#mask0_638_333)">
<path d="M167 383V225.757L178 225.065V383H167Z" fill="#B4B4B4"/>
<path d="M167 383V225.757L178 225.065V383H167Z" stroke="black" stroke-width="2"/>
<path fill-rule="evenodd" clip-rule="evenodd" d="M109.888 10.5986L232.622 4L273.864 44.2517L319.395 41.6122L338.201 59.7585V153.129L319.395 173.915L274.524 175.895L230.973 223.735L182.143 226.544L168.616 227.322L110.548 230.663L66.3367 189.422L21.1361 192.061L2 174.245V79.8844L21.1361 59.4286L65.017 57.449L109.888 10.5986Z" fill="#D9D9D9"/>
<path fill-rule="evenodd" clip-rule="evenodd" d="M109.888 10.5986L232.622 4L273.864 44.2517L319.395 41.6122L338.201 59.7585V153.129L319.395 173.915L274.524 175.895L230.973 223.735L182.143 226.544L168.616 227.322L110.548 230.663L66.3367 189.422L21.1361 192.061L2 174.245V79.8844L21.1361 59.4286L65.017 57.449L109.888 10.5986Z" fill="#AEAEAE"/>
<path d="M120.776 257.439L95.728 289.939L122.755 319.439L232.952 312.84L253.728 277.939L230.973 251.5L120.776 257.439Z" fill="#D9D9D9"/>
<path d="M120.776 257.439L95.728 289.939L122.755 319.439L232.952 312.84L253.728 277.939L230.973 251.5L120.776 257.439Z" fill="#AEAEAE"/>
<path d="M109.888 10.5986L232.622 4L273.864 44.2517L319.395 41.6122L338.201 59.7585V153.129L319.395 173.915L274.524 175.895L230.973 223.735L182.143 226.544L168.616 227.322L110.548 230.663L66.3367 189.422L21.1361 192.061L2 174.245V79.8844L21.1361 59.4286L65.017 57.449L109.888 10.5986Z" stroke="#3C3737" stroke-width="2"/>
<path d="M120.776 257.439L95.728 289.939L122.755 319.439L232.952 312.84L253.728 277.939L230.973 251.5L120.776 257.439Z" stroke="#3C3737" stroke-width="2"/>
<path d="M178.942 263L163.435 263.66L141 287.745L163.435 308.861L179.932 307.871L163.435 293.024L195.769 291.374V278.177L163.435 279.827L178.942 263Z" fill="white"/>
<path d="M178.942 263L163.435 263.66L141 287.745L163.435 308.861L179.932 307.871L163.435 293.024L195.769 291.374V278.177L163.435 279.827L178.942 263Z" stroke="black" stroke-width="2"/>
<path d="M227.5 10.5L113.5 17L69 65L24 67L9.5 83V169.5L24 183.5L70 181.5L112.5 222.5L227.5 215.5L271.5 169L316.5 166.5L331 150.5V63.5L317 49.5L271.5 52.5L227.5 10.5Z" stroke="black" stroke-width="2"/>
</g>
</svg>
