<svg width="388" height="395" viewBox="0 0 388 395" fill="none" xmlns="http://www.w3.org/2000/svg">
<path d="M60.2 239.657L313.8 164.376L317.4 166.778L327.4 205.22L319.8 255.674L313.8 258.477L60.2 318.141L57.4 315.338L51.8 280.901L60.2 239.657Z" fill="#D9D9D9"/>
<path d="M60.2 239.657L313.8 164.376L317.4 166.778L327.4 205.22L319.8 255.674L313.8 258.477L60.2 318.141L57.4 315.338L51.8 280.901L60.2 239.657Z" fill="black" fill-opacity="0.2"/>
<path d="M60.2 239.657L313.8 164.376L317.4 166.778L327.4 205.22L319.8 255.674L313.8 258.477L60.2 318.141L57.4 315.338L51.8 280.901L60.2 239.657Z" fill="black" fill-opacity="0.2"/>
<path d="M60.2 239.657L313.8 164.376L317.4 166.778L327.4 205.22L319.8 255.674L313.8 258.477L60.2 318.141L57.4 315.338L51.8 280.901L60.2 239.657Z" fill="#E8EEB0"/>
<path d="M60.2 239.657L313.8 164.376L317.4 166.778L327.4 205.22L319.8 255.674L313.8 258.477L60.2 318.141L57.4 315.338L51.8 280.901L60.2 239.657Z" fill="#006840"/>
<path d="M328.6 147.921L322.6 116.724L320.2 114.322L76.6 17.4177L72.6 16.6168L69.8 17.4177L68.6 20.6211L59 49.8525L58.2 53.4564V58.662L64.6 96.7029L65.4 100.307L68.2 102.309L261.8 168.126L328.6 147.921Z" fill="#D9D9D9"/>
<path d="M328.6 147.921L322.6 116.724L320.2 114.322L76.6 17.4177L72.6 16.6168L69.8 17.4177L68.6 20.6211L59 49.8525L58.2 53.4564V58.662L64.6 96.7029L65.4 100.307L68.2 102.309L261.8 168.126L328.6 147.921Z" fill="black" fill-opacity="0.2"/>
<path d="M328.6 147.921L322.6 116.724L320.2 114.322L76.6 17.4177L72.6 16.6168L69.8 17.4177L68.6 20.6211L59 49.8525L58.2 53.4564V58.662L64.6 96.7029L65.4 100.307L68.2 102.309L261.8 168.126L328.6 147.921Z" fill="black" fill-opacity="0.2"/>
<path d="M328.6 147.921L322.6 116.724L320.2 114.322L76.6 17.4177L72.6 16.6168L69.8 17.4177L68.6 20.6211L59 49.8525L58.2 53.4564V58.662L64.6 96.7029L65.4 100.307L68.2 102.309L261.8 168.126L328.6 147.921Z" fill="#E8EEB0"/>
<path d="M328.6 147.921L322.6 116.724L320.2 114.322L76.6 17.4177L72.6 16.6168L69.8 17.4177L68.6 20.6211L59 49.8525L58.2 53.4564V58.662L64.6 96.7029L65.4 100.307L68.2 102.309L261.8 168.126L328.6 147.921Z" fill="#006840"/>
<path d="M246.2 172.845L51.8 108.716L48.6 104.712L27 45.4478V41.0431L57.4 1L29 15.8159L1 53.4564V57.0603L22.6 118.727L27 121.93L180.6 169.244V161.573L187.4 158.77H197L202.2 161.573L203.4 164.376V176.267L219 181.073L246.2 172.845Z" fill="#D9D9D9"/>
<path d="M246.2 172.845L51.8 108.716L48.6 104.712L27 45.4478V41.0431L57.4 1L29 15.8159L1 53.4564V57.0603L22.6 118.727L27 121.93L180.6 169.244V161.573L187.4 158.77H197L202.2 161.573L203.4 164.376V176.267L219 181.073L246.2 172.845Z" fill="black" fill-opacity="0.2"/>
<path d="M246.2 172.845L51.8 108.716L48.6 104.712L27 45.4478V41.0431L57.4 1L29 15.8159L1 53.4564V57.0603L22.6 118.727L27 121.93L180.6 169.244V161.573L187.4 158.77H197L202.2 161.573L203.4 164.376V176.267L219 181.073L246.2 172.845Z" fill="black" fill-opacity="0.2"/>
<path d="M246.2 172.845L51.8 108.716L48.6 104.712L27 45.4478V41.0431L57.4 1L29 15.8159L1 53.4564V57.0603L22.6 118.727L27 121.93L180.6 169.244V161.573L187.4 158.77H197L202.2 161.573L203.4 164.376V176.267L219 181.073L246.2 172.845Z" fill="#E8EEB0"/>
<path d="M246.2 172.845L51.8 108.716L48.6 104.712L27 45.4478V41.0431L57.4 1L29 15.8159L1 53.4564V57.0603L22.6 118.727L27 121.93L180.6 169.244V161.573L187.4 158.77H197L202.2 161.573L203.4 164.376V176.267L219 181.073L246.2 172.845Z" fill="black" fill-opacity="0.2"/>
<path fill-rule="evenodd" clip-rule="evenodd" d="M48.2 330.955L30.2 284.905L51.8 231.648L180.6 192.688V169.244V161.573L187.4 158.77H197L202.2 161.573L203.4 164.376V176.267L219 181.073L246.2 172.845L51.8 108.716L48.6 104.712L27 45.4478V41.0431L57.4 1H61.4L329.8 108.716L332.6 111.919L347.8 155.28L329.8 147.558L361 196.811L333.8 265.685L48.2 330.955ZM177.945 314.443V394H202.2V309.218V303.325L198.2 301.723H190.2H182.2L178.2 303.325L177.945 314.443ZM328.6 147.921L322.6 116.724L320.2 114.322L76.6 17.4177L72.6 16.6168L69.8 17.4177L68.6 20.6211L59 49.8525L58.2 53.4564V58.662L64.6 96.7029L65.4 100.307L68.2 102.309L261.8 168.126L328.6 147.921ZM313.8 164.376L60.2 239.657L51.8 280.901L57.4 315.338L60.2 318.141L313.8 258.477L319.8 255.674L327.4 205.22L317.4 166.778L313.8 164.376Z" fill="#D9D9D9"/>
<path fill-rule="evenodd" clip-rule="evenodd" d="M48.2 330.955L30.2 284.905L51.8 231.648L180.6 192.688V169.244V161.573L187.4 158.77H197L202.2 161.573L203.4 164.376V176.267L219 181.073L246.2 172.845L51.8 108.716L48.6 104.712L27 45.4478V41.0431L57.4 1H61.4L329.8 108.716L332.6 111.919L347.8 155.28L329.8 147.558L361 196.811L333.8 265.685L48.2 330.955ZM177.945 314.443V394H202.2V309.218V303.325L198.2 301.723H190.2H182.2L178.2 303.325L177.945 314.443ZM328.6 147.921L322.6 116.724L320.2 114.322L76.6 17.4177L72.6 16.6168L69.8 17.4177L68.6 20.6211L59 49.8525L58.2 53.4564V58.662L64.6 96.7029L65.4 100.307L68.2 102.309L261.8 168.126L328.6 147.921ZM313.8 164.376L60.2 239.657L51.8 280.901L57.4 315.338L60.2 318.141L313.8 258.477L319.8 255.674L327.4 205.22L317.4 166.778L313.8 164.376Z" fill="black" fill-opacity="0.2"/>
<path fill-rule="evenodd" clip-rule="evenodd" d="M48.2 330.955L30.2 284.905L51.8 231.648L180.6 192.688V169.244V161.573L187.4 158.77H197L202.2 161.573L203.4 164.376V176.267L219 181.073L246.2 172.845L51.8 108.716L48.6 104.712L27 45.4478V41.0431L57.4 1H61.4L329.8 108.716L332.6 111.919L347.8 155.28L329.8 147.558L361 196.811L333.8 265.685L48.2 330.955ZM177.945 314.443V394H202.2V309.218V303.325L198.2 301.723H190.2H182.2L178.2 303.325L177.945 314.443ZM328.6 147.921L322.6 116.724L320.2 114.322L76.6 17.4177L72.6 16.6168L69.8 17.4177L68.6 20.6211L59 49.8525L58.2 53.4564V58.662L64.6 96.7029L65.4 100.307L68.2 102.309L261.8 168.126L328.6 147.921ZM313.8 164.376L60.2 239.657L51.8 280.901L57.4 315.338L60.2 318.141L313.8 258.477L319.8 255.674L327.4 205.22L317.4 166.778L313.8 164.376Z" fill="black" fill-opacity="0.2"/>
<path fill-rule="evenodd" clip-rule="evenodd" d="M48.2 330.955L30.2 284.905L51.8 231.648L180.6 192.688V169.244V161.573L187.4 158.77H197L202.2 161.573L203.4 164.376V176.267L219 181.073L246.2 172.845L51.8 108.716L48.6 104.712L27 45.4478V41.0431L57.4 1H61.4L329.8 108.716L332.6 111.919L347.8 155.28L329.8 147.558L361 196.811L333.8 265.685L48.2 330.955ZM177.945 314.443V394H202.2V309.218V303.325L198.2 301.723H190.2H182.2L178.2 303.325L177.945 314.443ZM328.6 147.921L322.6 116.724L320.2 114.322L76.6 17.4177L72.6 16.6168L69.8 17.4177L68.6 20.6211L59 49.8525L58.2 53.4564V58.662L64.6 96.7029L65.4 100.307L68.2 102.309L261.8 168.126L328.6 147.921ZM313.8 164.376L60.2 239.657L51.8 280.901L57.4 315.338L60.2 318.141L313.8 258.477L319.8 255.674L327.4 205.22L317.4 166.778L313.8 164.376Z" fill="#E8EEB0"/>
<path d="M329.8 147.558L361 196.811L333.8 265.685L48.2 330.955L79 335.76L177.945 314.443L178.2 303.325L182.2 301.723H190.2H198.2L202.2 303.325V309.218L357.8 275.695L363.8 272.492L387 210.025V205.22L357.8 159.57L347.8 155.28L329.8 147.558Z" fill="#D9D9D9"/>
<path d="M329.8 147.558L361 196.811L333.8 265.685L48.2 330.955L79 335.76L177.945 314.443L178.2 303.325L182.2 301.723H190.2H198.2L202.2 303.325V309.218L357.8 275.695L363.8 272.492L387 210.025V205.22L357.8 159.57L347.8 155.28L329.8 147.558Z" fill="black" fill-opacity="0.2"/>
<path d="M329.8 147.558L361 196.811L333.8 265.685L48.2 330.955L79 335.76L177.945 314.443L178.2 303.325L182.2 301.723H190.2H198.2L202.2 303.325V309.218L357.8 275.695L363.8 272.492L387 210.025V205.22L357.8 159.57L347.8 155.28L329.8 147.558Z" fill="black" fill-opacity="0.2"/>
<path d="M329.8 147.558L361 196.811L333.8 265.685L48.2 330.955L79 335.76L177.945 314.443L178.2 303.325L182.2 301.723H190.2H198.2L202.2 303.325V309.218L357.8 275.695L363.8 272.492L387 210.025V205.22L357.8 159.57L347.8 155.28L329.8 147.558Z" fill="#E8EEB0"/>
<path d="M329.8 147.558L361 196.811L333.8 265.685L48.2 330.955L79 335.76L177.945 314.443L178.2 303.325L182.2 301.723H190.2H198.2L202.2 303.325V309.218L357.8 275.695L363.8 272.492L387 210.025V205.22L357.8 159.57L347.8 155.28L329.8 147.558Z" fill="black" fill-opacity="0.2"/>
<path d="M329.8 147.558L361 196.811L333.8 265.685L48.2 330.955M329.8 147.558L347.8 155.28M329.8 147.558L328.6 147.921M48.2 330.955L30.2 284.905L51.8 231.648L180.6 192.688M48.2 330.955L79 335.76L177.945 314.443M246.2 172.845L51.8 108.716L48.6 104.712L27 45.4478V41.0431L57.4 1M246.2 172.845L261.8 168.126M246.2 172.845L219 181.073M57.4 1H61.4L329.8 108.716L332.6 111.919L347.8 155.28M57.4 1L29 15.8159L1 53.4564V57.0603L22.6 118.727L27 121.93L180.6 169.244M347.8 155.28L357.8 159.57L387 205.22V210.025L363.8 272.492L357.8 275.695L202.2 309.218M328.6 147.921L322.6 116.724L320.2 114.322L76.6 17.4177L72.6 16.6168L69.8 17.4177L68.6 20.6211L59 49.8525L58.2 53.4564V58.662L64.6 96.7029L65.4 100.307L68.2 102.309L261.8 168.126M328.6 147.921L261.8 168.126M219 181.073L203.4 185.791M219 181.073L203.4 176.267M203.4 185.791L180.6 192.688M203.4 185.791V176.267M180.6 192.688V169.244M180.6 169.244V161.573L187.4 158.77H197L202.2 161.573L203.4 164.376V176.267M180.6 169.244L191.5 172.845L203.4 176.267M202.2 309.218V394H177.945V314.443M202.2 309.218L177.945 314.443M202.2 309.218V303.325L198.2 301.723H190.2H182.2L178.2 303.325L177.945 314.443M60.2 239.657L313.8 164.376L317.4 166.778L327.4 205.22L319.8 255.674L313.8 258.477L60.2 318.141L57.4 315.338L51.8 280.901L60.2 239.657Z" stroke="#3C3838" stroke-width="2"/>
<path d="M329.8 147.558L361 196.811L333.8 265.685L48.2 330.955M329.8 147.558L347.8 155.28M329.8 147.558L328.6 147.921M48.2 330.955L30.2 284.905L51.8 231.648L180.6 192.688M48.2 330.955L79 335.76L177.945 314.443M246.2 172.845L51.8 108.716L48.6 104.712L27 45.4478V41.0431L57.4 1M246.2 172.845L261.8 168.126M246.2 172.845L219 181.073M57.4 1H61.4L329.8 108.716L332.6 111.919L347.8 155.28M57.4 1L29 15.8159L1 53.4564V57.0603L22.6 118.727L27 121.93L180.6 169.244M347.8 155.28L357.8 159.57L387 205.22V210.025L363.8 272.492L357.8 275.695L202.2 309.218M328.6 147.921L322.6 116.724L320.2 114.322L76.6 17.4177L72.6 16.6168L69.8 17.4177L68.6 20.6211L59 49.8525L58.2 53.4564V58.662L64.6 96.7029L65.4 100.307L68.2 102.309L261.8 168.126M328.6 147.921L261.8 168.126M219 181.073L203.4 185.791M219 181.073L203.4 176.267M203.4 185.791L180.6 192.688M203.4 185.791V176.267M180.6 192.688V169.244M180.6 169.244V161.573L187.4 158.77H197L202.2 161.573L203.4 164.376V176.267M180.6 169.244L191.5 172.845L203.4 176.267M202.2 309.218V394H177.945V314.443M202.2 309.218L177.945 314.443M202.2 309.218V303.325L198.2 301.723H190.2H182.2L178.2 303.325L177.945 314.443M60.2 239.657L313.8 164.376L317.4 166.778L327.4 205.22L319.8 255.674L313.8 258.477L60.2 318.141L57.4 315.338L51.8 280.901L60.2 239.657Z" stroke="black" stroke-opacity="0.2" stroke-width="2"/>
<rect x="182" y="166" width="20" height="10" fill="#E8EEB0"/>
<rect x="179" y="306" width="22" height="11" fill="#E8EEB0"/>
<path d="M73.9219 72.4634C73.5674 72.3359 73.4512 72.0868 73.5732 71.7162L74.9494 67.5362C75.0128 67.3435 75.0712 67.1904 75.1244 67.0769C75.1918 66.9685 75.3086 66.9028 75.4747 66.8797L81.9248 66.2168L83.2278 62.2591L78.9124 56.727C78.7202 56.492 78.6728 56.2263 78.7704 55.9299L81.4569 47.7699C81.535 47.5327 81.6053 47.3673 81.6678 47.2738C81.7352 47.1654 81.883 47.0777 82.1112 47.0106L89.0071 45.0657C89.1782 45.0278 89.3277 45.007 89.4558 45.0034C89.6029 44.99 89.7686 45.0165 89.9529 45.0828L95.6947 47.1492C96.0492 47.2768 96.1654 47.5258 96.0434 47.8964L94.799 51.6762C94.6916 52.0023 94.5121 52.1864 94.2604 52.2285L87.8981 52.6246L86.5439 56.7379L91.0176 62.0783C91.1961 62.2586 91.2243 62.534 91.1023 62.9046L87.9181 72.5765C87.8791 72.6951 87.8163 72.8134 87.7299 72.9315C87.6576 73.0547 87.555 73.1256 87.4221 73.1441L79.6027 74.2095C79.503 74.2233 79.3771 74.2443 79.2251 74.2725C79.0922 74.291 78.969 74.2798 78.8556 74.239L73.9219 72.4634Z" fill="#E8EEB0"/>
<path d="M95.8241 80.3458C95.498 80.2285 95.256 80.0004 95.0979 79.6617L92.7616 74.6927C92.6178 74.359 92.6019 74.0218 92.7142 73.6808L97.4283 59.3619L96.5351 59.0405C96.1807 58.9129 96.0645 58.6639 96.1865 58.2933L97.526 54.2244C97.648 53.8538 97.8862 53.7323 98.2407 53.8599L99.1338 54.1813L100.049 51.402C100.171 51.0315 100.409 50.91 100.763 51.0375L106.42 53.0733C106.775 53.2009 106.891 53.4499 106.769 53.8205L105.854 56.5998L107.917 57.3422C108.271 57.4697 108.387 57.7188 108.265 58.0894L106.926 62.1582C106.804 62.5288 106.566 62.6503 106.211 62.5228L104.148 61.7804L100.239 73.6535C100.147 73.9352 100.156 74.1955 100.268 74.4346L101.627 77.3859C101.725 77.5703 101.723 77.8181 101.62 78.1294L100.537 81.4201C100.415 81.7907 100.177 81.9122 99.8221 81.7846L95.8241 80.3458Z" fill="#E8EEB0"/>
<path d="M109.541 85.2822C109.215 85.1649 108.972 84.9368 108.814 84.5981L106.025 78.6206C105.862 78.2967 105.839 77.9568 105.957 77.6011L110.246 64.5718C110.363 64.216 110.581 63.9629 110.9 63.8125L116.618 60.8963C116.942 60.7311 117.267 60.7071 117.593 60.8245L128.97 64.919C129.324 65.0466 129.441 65.2956 129.319 65.6662L121.633 89.0123C121.511 89.3828 121.272 89.5043 120.918 89.3768L116.495 87.7849C116.31 87.7185 116.181 87.6305 116.106 87.5206C116.045 87.4159 115.975 87.2913 115.896 87.1467L115.199 85.6523L113.769 86.3813C113.46 86.5517 113.135 86.5756 112.794 86.4532L109.541 85.2822ZM113.734 80.9971L115.223 81.5328C115.677 81.6961 116.02 81.712 116.254 81.5805C116.487 81.449 116.685 81.1387 116.846 80.6496L121.055 67.8648L118.375 66.9005C117.907 66.7321 117.557 66.7137 117.323 66.8451C117.09 66.9766 116.892 67.2869 116.731 67.7761L112.954 79.249C112.793 79.7382 112.766 80.1097 112.873 80.3636C112.979 80.6175 113.266 80.8287 113.734 80.9971Z" fill="#E8EEB0"/>
<path d="M126.935 91.5424C126.581 91.4149 126.465 91.1658 126.587 90.7952L134.273 67.4492C134.395 67.0786 134.633 66.9571 134.988 67.0847L138.22 68.248C138.489 68.3449 138.682 68.5551 138.797 68.8785L140.054 72.141L143.236 70.3516C143.45 70.2299 143.678 70.2124 143.919 70.2991L146.216 71.1257C146.57 71.2532 146.687 71.5023 146.565 71.8728L144.991 76.6532C144.913 76.8904 144.845 77.0483 144.787 77.1271C144.734 77.191 144.63 77.2444 144.473 77.2875L137.859 79.4583L133.328 93.2214C133.206 93.5919 132.968 93.7135 132.613 93.5859L126.935 91.5424Z" fill="#E8EEB0"/>
<path d="M146.123 98.4478C145.797 98.3305 145.555 98.1024 145.397 97.7637L143.061 92.7947C142.917 92.4611 142.901 92.1238 143.013 91.7829L147.727 77.4639L146.834 77.1425C146.48 77.0149 146.363 76.7659 146.485 76.3953L147.825 72.3264C147.947 71.9559 148.185 71.8343 148.54 71.9619L149.433 72.2833L150.348 69.5041C150.47 69.1335 150.708 69.012 151.062 69.1395L156.719 71.1753C157.074 71.3029 157.19 71.5519 157.068 71.9225L156.153 74.7018L158.216 75.4442C158.57 75.5717 158.686 75.8208 158.564 76.1914L157.225 80.2603C157.103 80.6308 156.864 80.7523 156.51 80.6248L154.447 79.8824L150.538 91.7555C150.446 92.0372 150.455 92.2975 150.567 92.5366L151.926 95.4879C152.024 95.6723 152.021 95.9202 151.919 96.2314L150.836 99.5221C150.714 99.8927 150.475 100.014 150.121 99.8867L146.123 98.4478Z" fill="#E8EEB0"/>
<path d="M161.931 104.137C161.577 104.009 161.461 103.76 161.583 103.39L170.974 74.8632C171.096 74.4926 171.334 74.3711 171.689 74.4986L184.491 79.106C184.817 79.2233 185.061 79.444 185.224 79.7679L188.014 85.7454C188.157 86.079 188.173 86.4163 188.061 86.7572L186.524 91.4264C186.475 91.5747 186.408 91.683 186.322 91.7516C186.236 91.8201 186.116 91.8933 185.964 91.971L181.6 93.8822L181.011 94.5901L181.132 95.3052L183.446 99.6196C183.52 99.779 183.571 99.9134 183.599 100.023C183.631 100.117 183.62 100.246 183.567 100.409L182.059 104.989C181.942 105.345 181.73 105.601 181.426 105.756L175.708 108.673C175.384 108.838 175.059 108.862 174.733 108.744L161.931 104.137ZM172.042 102.18C173.219 102.604 174.1 102.648 174.687 102.311C175.287 101.98 175.812 101.133 176.261 99.7694C176.715 98.3909 176.802 97.3779 176.524 96.7306C176.26 96.0884 175.539 95.5555 174.363 95.132C173.2 94.7137 172.318 94.67 171.718 95.001C171.132 95.337 170.611 96.1943 170.158 97.5729C169.709 98.9366 169.616 99.9395 169.881 100.582C170.159 101.229 170.88 101.762 172.042 102.18ZM176.193 89.5735C177.369 89.997 178.251 90.0407 178.837 89.7046C179.438 89.3736 179.962 88.5262 180.411 87.1625C180.86 85.7988 180.946 84.7933 180.667 84.146C180.403 83.5038 179.682 82.9709 178.506 82.5474C177.343 82.129 176.462 82.0853 175.861 82.4163C175.275 82.7524 174.757 83.6023 174.308 84.966C173.859 86.3297 173.767 87.3327 174.031 87.9749C174.309 88.6222 175.03 89.1551 176.193 89.5735Z" fill="#E8EEB0"/>
<path d="M190.849 114.544C190.509 114.422 190.267 114.194 190.123 113.86L187.334 107.883C187.171 107.559 187.148 107.219 187.265 106.863L193.253 88.6753C193.375 88.3048 193.613 88.1833 193.967 88.3108L199.645 90.3543C200 90.4818 200.116 90.7309 199.994 91.1015L194.299 108.4C194.07 109.096 194.281 109.562 194.933 109.797L197.847 110.845L203.886 92.502C204.008 92.1315 204.246 92.0099 204.6 92.1375L210.278 94.181C210.633 94.3085 210.749 94.5576 210.627 94.9281L202.941 118.274C202.819 118.645 202.581 118.766 202.226 118.639L190.849 114.544Z" fill="#E8EEB0"/>
<path d="M208.261 120.811C207.907 120.683 207.79 120.434 207.912 120.063L215.598 96.7174C215.72 96.3468 215.959 96.2253 216.313 96.3528L221.97 98.3886C222.324 98.5162 222.44 98.7653 222.318 99.1358L214.632 122.482C214.51 122.852 214.272 122.974 213.918 122.846L208.261 120.811ZM216.814 94.4691C216.531 94.3671 216.438 94.1678 216.535 93.8714L217.465 91.0476C217.563 90.7511 217.753 90.6539 218.037 90.756L223.949 92.8836C224.204 92.9755 224.283 93.1696 224.185 93.4661L223.255 96.2898C223.158 96.5863 222.981 96.6886 222.726 96.5968L216.814 94.4691Z" fill="#E8EEB0"/>
<path d="M219.677 124.919C219.323 124.792 219.207 124.543 219.329 124.172L228.72 95.6453C228.842 95.2747 229.08 95.1532 229.435 95.2808L235.113 97.3242C235.467 97.4518 235.583 97.7008 235.461 98.0714L226.07 126.598C225.948 126.969 225.71 127.09 225.355 126.963L219.677 124.919Z" fill="#E8EEB0"/>
<path d="M235.89 130.754C235.564 130.637 235.322 130.409 235.164 130.07L232.375 124.092C232.212 123.768 232.189 123.429 232.306 123.073L236.596 110.044C236.713 109.688 236.931 109.435 237.25 109.284L242.967 106.368C243.291 106.203 243.616 106.179 243.942 106.296L247.196 107.467C247.536 107.59 247.778 107.818 247.922 108.151L248.619 109.646L250.632 103.531C250.754 103.161 250.993 103.039 251.347 103.167L257.025 105.21C257.379 105.338 257.496 105.587 257.374 105.957L247.982 134.484C247.86 134.855 247.622 134.976 247.267 134.849L242.844 133.257C242.66 133.19 242.53 133.102 242.455 132.992C242.395 132.888 242.325 132.763 242.245 132.618L241.548 131.124L240.119 131.853C239.809 132.023 239.484 132.047 239.144 131.925L235.89 130.754ZM240.084 126.469L241.572 127.005C242.026 127.168 242.37 127.184 242.603 127.052C242.837 126.921 243.034 126.611 243.195 126.121L247.404 113.337L244.725 112.372C244.257 112.204 243.906 112.185 243.673 112.317C243.439 112.448 243.242 112.759 243.081 113.248L239.304 124.721C239.142 125.21 239.115 125.581 239.222 125.835C239.329 126.089 239.616 126.3 240.084 126.469Z" fill="#E8EEB0"/>
<path d="M253.285 137.014C252.931 136.887 252.814 136.638 252.936 136.267L260.622 112.921C260.744 112.55 260.983 112.429 261.337 112.556L266.994 114.592C267.348 114.72 267.464 114.969 267.342 115.339L259.656 138.685C259.534 139.056 259.296 139.178 258.942 139.05L253.285 137.014ZM261.838 110.673C261.555 110.571 261.462 110.371 261.559 110.075L262.489 107.251C262.587 106.955 262.777 106.858 263.061 106.96L268.973 109.087C269.228 109.179 269.307 109.373 269.209 109.67L268.279 112.493C268.182 112.79 268.005 112.892 267.75 112.8L261.838 110.673Z" fill="#E8EEB0"/>
<path d="M264.956 141.215C264.602 141.087 264.486 140.838 264.608 140.467L272.294 117.121C272.416 116.751 272.654 116.629 273.008 116.757L284.386 120.851C284.712 120.969 284.954 121.197 285.112 121.536L287.901 127.513C288.064 127.837 288.087 128.177 287.97 128.533L281.982 146.72C281.86 147.091 281.622 147.212 281.267 147.085L275.589 145.041C275.235 144.914 275.119 144.665 275.241 144.294L280.936 126.996C281.165 126.299 280.946 125.831 280.28 125.591L277.388 124.55L271.349 142.894C271.227 143.264 270.989 143.386 270.634 143.258L264.956 141.215Z" fill="#E8EEB0"/>
<path d="M290.405 156.593L291.123 154.412C291.221 154.115 291.381 153.991 291.603 154.037L294.979 154.332L297.593 153.905C297.845 153.863 298.027 153.672 298.139 153.331L299.34 149.684L296.704 150.899C296.38 151.065 296.055 151.089 295.729 150.971L292.069 149.804C291.743 149.686 291.499 149.466 291.336 149.142L288.791 143.65C288.628 143.326 288.605 142.986 288.722 142.63L292.792 130.268C292.91 129.912 293.128 129.659 293.447 129.509L299.164 126.593C299.488 126.427 299.813 126.404 300.139 126.521L311.516 130.615C311.871 130.743 311.987 130.992 311.865 131.363L305 152.214L290.405 156.593ZM296.5 146.026L297.989 146.562C298.443 146.725 298.786 146.741 299.02 146.61C299.253 146.478 299.451 146.168 299.612 145.679L303.601 133.561L300.922 132.597C300.454 132.429 300.103 132.41 299.869 132.542C299.636 132.673 299.439 132.983 299.278 133.472L295.72 144.278C295.559 144.768 295.532 145.139 295.638 145.393C295.745 145.647 296.032 145.858 296.5 146.026Z" fill="#E8EEB0"/>
<path d="M83.4449 289.416C83.0312 289.527 82.65 289.462 82.3013 289.218L75.8443 285.007C75.4827 284.787 75.2505 284.453 75.1477 284.005L68.3945 254.561C68.2874 254.094 68.4493 253.803 68.8803 253.687L76.1985 251.717C76.6295 251.601 76.8985 251.777 77.0056 252.244L83.5661 280.847C83.6518 281.221 83.867 281.361 84.2118 281.268L88.4527 280.127L81.7638 250.963C81.6567 250.496 81.8186 250.205 82.2496 250.089L89.5678 248.12C89.9988 248.004 90.2678 248.179 90.3749 248.646L98.6189 284.589C98.726 285.056 98.564 285.347 98.133 285.463L83.4449 289.416Z" fill="#E8EEB0"/>
<path d="M104.827 283.662C104.396 283.778 104.127 283.603 104.019 283.136L102.979 278.597C102.88 278.168 102.945 277.853 103.174 277.652L107.671 272.843L107.003 269.929L101.021 268.267C100.724 268.169 100.528 267.914 100.434 267.503L98.3842 258.567C98.3371 258.361 98.3244 258.186 98.3462 258.041C98.3851 257.892 98.4542 257.755 98.5535 257.629L103.059 251.776C103.215 251.576 103.348 251.441 103.46 251.371C103.572 251.301 103.689 251.25 103.81 251.217L110.093 249.526C110.524 249.41 110.793 249.586 110.9 250.053L111.909 254.451C111.982 254.768 112.006 254.99 111.98 255.116C111.971 255.237 111.906 255.354 111.785 255.466L107.553 259.639L108.299 262.888L114.165 264.284C114.488 264.336 114.699 264.577 114.797 265.006L116.77 273.607C116.877 274.074 116.816 274.487 116.587 274.846L112.216 281.287C111.996 281.604 111.679 281.818 111.266 281.929L104.827 283.662Z" fill="#E8EEB0"/>
<path d="M135.254 275.473C135.082 275.52 134.886 275.543 134.666 275.542C134.463 275.537 134.272 275.54 134.091 275.549L129.205 275.555L123.493 275.069C122.933 275.022 122.55 274.55 122.344 273.653L118.071 255.023C117.969 254.575 118.029 254.162 118.254 253.784L122.141 246.79C122.361 246.393 122.669 246.142 123.066 246.035L131.341 243.808C131.737 243.701 132.119 243.767 132.484 244.006L138.941 248.217C139.303 248.437 139.535 248.771 139.638 249.219L142.273 260.705L128.386 264.443L129.06 268.217L133.034 268.546L139.743 267.275C140.049 267.253 140.245 267.428 140.331 267.801L141.532 273.04C141.64 273.507 141.478 273.799 141.047 273.915L135.254 275.473ZM130.429 259.223L130.92 259.091C131.765 258.864 132.358 258.337 132.699 257.511C133.058 256.681 133.102 255.678 132.833 254.501L132.704 253.941C132.438 252.783 131.968 251.928 131.292 251.376C130.634 250.82 129.882 250.655 129.037 250.882L128.52 251.022C127.693 251.244 127.108 251.769 126.767 252.594C126.443 253.415 126.413 254.404 126.679 255.562L126.807 256.123C127.077 257.299 127.533 258.168 128.174 258.729C128.832 259.286 129.584 259.45 130.429 259.223Z" fill="#E8EEB0"/>
<path d="M151.084 271.213C150.653 271.329 150.384 271.154 150.277 270.687L143.53 241.271C143.423 240.804 143.585 240.513 144.016 240.397L147.947 239.339C148.274 239.251 148.595 239.333 148.909 239.586L152.169 242.07L154.23 238.005C154.368 237.73 154.584 237.553 154.877 237.474L157.67 236.723C158.101 236.607 158.37 236.782 158.477 237.249L159.858 243.272C159.927 243.571 159.957 243.781 159.948 243.902C159.935 244.005 159.864 244.133 159.734 244.287L154.497 251.14L158.474 268.481C158.581 268.948 158.42 269.239 157.989 269.355L151.084 271.213Z" fill="#E8EEB0"/>
<path d="M177.347 264.145C176.916 264.261 176.647 264.086 176.54 263.619L168.296 227.676C168.189 227.209 168.351 226.918 168.782 226.802L183.082 222.953C183.496 222.842 183.875 222.899 184.22 223.123L190.677 227.334C191.043 227.573 191.275 227.907 191.373 228.337L193.59 238.002C193.693 238.45 193.632 238.863 193.407 239.241L189.521 246.235C189.318 246.627 189.009 246.879 188.596 246.99L182.26 248.695L185.152 261.302C185.259 261.769 185.097 262.06 184.666 262.176L177.347 264.145ZM182.452 240.553C183.883 240.168 184.786 239.598 185.162 238.842C185.555 238.082 185.554 236.843 185.16 235.125C184.766 233.406 184.231 232.311 183.555 231.838C182.897 231.361 181.852 231.315 180.421 231.7C179.008 232.081 178.104 232.651 177.711 233.411C177.335 234.167 177.345 235.404 177.739 237.122C178.133 238.84 178.659 239.938 179.318 240.415C179.993 240.887 181.038 240.933 182.452 240.553Z" fill="#E8EEB0"/>
<path d="M208.924 255.648C208.528 255.754 208.146 255.688 207.781 255.45L201.324 251.239C200.962 251.019 200.73 250.685 200.627 250.236L196.862 233.82C196.759 233.371 196.82 232.958 197.044 232.581L200.931 225.586C201.151 225.19 201.46 224.938 201.856 224.831L209.691 222.723C210.105 222.611 210.486 222.677 210.835 222.921L217.292 227.132C217.654 227.352 217.886 227.686 217.989 228.134L221.754 244.551C221.857 244.999 221.796 245.412 221.571 245.79L217.685 252.784C217.482 253.176 217.173 253.428 216.76 253.539L208.924 255.648ZM210.453 248.306L212.263 247.819C212.814 247.67 213.166 247.447 213.317 247.148C213.468 246.85 213.473 246.393 213.332 245.776L210.016 231.321C209.875 230.704 209.673 230.303 209.41 230.115C209.148 229.928 208.741 229.909 208.189 230.057L206.379 230.545C205.81 230.698 205.45 230.923 205.299 231.222C205.147 231.52 205.143 231.978 205.284 232.594L208.599 247.05C208.741 247.666 208.943 248.068 209.205 248.255C209.468 248.442 209.884 248.459 210.453 248.306Z" fill="#E8EEB0"/>
<path d="M230.076 249.955C229.645 250.071 229.376 249.896 229.269 249.429L222.522 220.013C222.415 219.546 222.577 219.255 223.008 219.139L226.939 218.081C227.266 217.993 227.587 218.075 227.901 218.328L231.162 220.811L233.222 216.747C233.36 216.472 233.576 216.295 233.869 216.216L236.662 215.464C237.093 215.349 237.362 215.524 237.469 215.991L238.851 222.014C238.919 222.313 238.949 222.523 238.94 222.644C238.927 222.747 238.856 222.875 238.726 223.029L233.489 229.882L237.467 247.223C237.574 247.69 237.412 247.981 236.981 248.097L230.076 249.955Z" fill="#E8EEB0"/>
<path d="M253.408 243.676C253.012 243.783 252.631 243.717 252.265 243.478L246.88 239.99C246.531 239.747 246.307 239.41 246.209 238.981L242.071 220.939L240.985 221.232C240.554 221.348 240.285 221.172 240.178 220.705L239.002 215.578C238.895 215.112 239.056 214.82 239.487 214.704L240.574 214.412L239.77 210.91C239.663 210.443 239.825 210.152 240.256 210.036L247.135 208.184C247.566 208.068 247.835 208.244 247.942 208.711L248.745 212.213L251.253 211.538C251.684 211.422 251.954 211.597 252.061 212.064L253.236 217.191C253.344 217.658 253.182 217.949 252.751 218.065L250.242 218.74L253.674 233.7C253.755 234.055 253.925 234.317 254.183 234.485L257.353 236.576C257.564 236.698 257.715 236.955 257.805 237.347L258.756 241.494C258.863 241.96 258.701 242.252 258.27 242.368L253.408 243.676Z" fill="#E8EEB0"/>
<path d="M270.088 239.188C269.691 239.294 269.31 239.228 268.944 238.99L262.487 234.779C262.125 234.559 261.893 234.224 261.79 233.776L258.025 217.36C257.922 216.911 257.983 216.498 258.208 216.121L262.094 209.126C262.315 208.729 262.623 208.478 263.019 208.371L276.854 204.648C277.285 204.532 277.554 204.708 277.661 205.174L284.408 234.59C284.515 235.057 284.353 235.348 283.922 235.464L278.544 236.912C278.319 236.972 278.136 236.972 277.994 236.911C277.869 236.845 277.723 236.766 277.555 236.672L275.941 235.619L274.969 237.368C274.766 237.76 274.458 238.011 274.044 238.123L270.088 239.188ZM271.616 231.846L273.426 231.359C273.978 231.21 274.329 230.987 274.48 230.688C274.632 230.39 274.637 229.932 274.495 229.316L270.8 213.208L267.542 214.084C266.973 214.238 266.613 214.463 266.462 214.762C266.311 215.06 266.306 215.518 266.447 216.134L269.763 230.59C269.904 231.206 270.106 231.608 270.369 231.795C270.631 231.982 271.047 231.999 271.616 231.846Z" fill="#E8EEB0"/>
<path d="M290.929 233.579C290.498 233.695 290.229 233.519 290.122 233.052L281.878 197.109C281.771 196.642 281.933 196.351 282.364 196.235L289.269 194.377C289.7 194.261 289.969 194.436 290.076 194.903L298.32 230.846C298.427 231.313 298.265 231.605 297.834 231.721L290.929 233.579Z" fill="#E8EEB0"/>
</svg>
