<svg width="333" height="618" viewBox="0 0 333 618" fill="none" xmlns="http://www.w3.org/2000/svg">
<path d="M160.807 617V321.913H171.907V617H160.807Z" fill="#D9D9D9" stroke="#3C3838" stroke-width="2"/>
<path d="M293.311 479.753L285.91 485.303L71.3015 484.378L68.5264 482.528L39.8503 455.702L38.0002 451.076L39.8503 445.526L71.3015 415H287.76L293.311 420.55V479.753Z" fill="#D9D9D9" stroke="#3C3838" stroke-width="2"/>
<path d="M284.06 475.127L280.36 478.828L71.3014 476.977L69.4514 475.127L46.0975 454.387L44.4754 450.857L46.0975 446.622L69.4514 423.325L280.36 420.55L284.06 423.325V475.127Z" fill="#D9D9D9" stroke="#3C3838" stroke-width="2"/>
<rect x="166.142" y="1.41421" width="232.96" height="232.96" rx="11" transform="rotate(45 166.142 1.41421)" fill="#D9D9D9" stroke="black" stroke-width="2"/>
<rect x="165.764" y="18.0648" width="208.879" height="208.879" rx="11" transform="rotate(45 165.764 18.0648)" fill="#D9D9D9" stroke="black" stroke-width="2"/>
</svg>
