<?xml version="1.0" encoding="UTF-8"?>
<svg id="uuid-0a0ca4ee-49d0-4666-afdb-8316bbd48bc7" data-name="图层 1" xmlns="http://www.w3.org/2000/svg" viewBox="0 0 538.58 538.58">
  <defs>
    <style>
      .uuid-c0ce8ab5-6691-47b3-a1e1-4a61455e8ff9 {
        fill: #006840;
      }

      .uuid-c945e648-2997-454c-9c2c-2f693606ab14 {
        fill: #e6ecae;
      }
    </style>
  </defs>
  <circle class="uuid-c945e648-2997-454c-9c2c-2f693606ab14" cx="269.29" cy="269.29" r="267.87"/>
  <circle class="uuid-c0ce8ab5-6691-47b3-a1e1-4a61455e8ff9" cx="269.29" cy="269.29" r="238.72"/>
  <path class="uuid-c945e648-2997-454c-9c2c-2f693606ab14" d="M369.16,427.25c-27.02-23.84-53.27-47-80.28-70.83-.12,2.68-.26,4.33-.26,5.98-.01,31.32,0,62.63-.01,93.95q0,6.71-6.89,6.71c-9.02,0-18.05-.18-27.07,.09-3.55,.1-4.48-.83-4.46-4.43,.15-32.74,.09-65.48,.09-98.22v-4.27c-27.05,23.97-53.46,47.37-79.81,70.71-1.65-.73-1-2.01-1-2.98-.05-15.5,.03-31-.09-46.5-.02-2.45,.75-4,2.56-5.62,29.63-26.65,59.19-53.39,88.78-80.09,.69-.62,1.48-1.12,2.46-1.84-1.95-1.71-3.75-1.11-5.33-1.11-27.87-.04-55.73-.12-83.6,.07-4.02,.03-5.02-1.05-4.9-4.97,.3-9.8,.32-19.62-.01-29.41-.13-3.97,1.29-4.55,4.79-4.54,27.71,.13,55.42,.07,83.12,.07h5.99c-2.16-3.7-5.23-5.66-7.78-7.97-27.88-25.27-55.84-50.46-83.84-75.61-1.54-1.39-2.23-2.73-2.22-4.81,.08-16.6,.05-33.21,.05-50.99,27.1,24,53.57,47.45,80.84,71.6,0-2.55,0-4.2,0-5.85,0-32.11,.07-64.21-.1-96.32-.02-3.84,1.11-4.72,4.75-4.62,9.65,.25,19.32,.32,28.97-.02,4.18-.15,4.83,1.3,4.81,5.07-.15,31.79-.09,63.58-.09,95.37v6.41c27.11-24.11,53.33-47.42,79.72-70.89,1.08,1.65,.68,3.09,.68,4.41,.03,14.39-.13,28.79,.12,43.18,.07,4-1.14,6.65-4.1,9.31-28.93,26.01-57.74,52.16-86.57,78.28-.79,.72-1.56,1.47-2.5,2.36,1.72,1.76,3.7,1.04,5.42,1.05,27.71,.05,55.42,.1,83.12-.04,3.51-.02,4.9,.59,4.77,4.54-.32,9.95-.27,19.93-.02,29.89,.09,3.5-.77,4.51-4.41,4.49-27.87-.17-55.73-.09-83.6-.09-1.69,0-3.37,0-6.31,0,9.06,8.17,17.19,15.53,25.35,22.86,22.34,20.08,44.68,40.16,67.04,60.22,1.11,1,1.87,1.94,1.87,3.57-.05,16.9-.03,33.8-.03,51.83Z"/>
  <rect class="uuid-c945e648-2997-454c-9c2c-2f693606ab14" x="169.27" y="250.05" width="201.12" height="38.87" rx="2.53" ry="2.53"/>
</svg>