<?xml version="1.0" encoding="UTF-8"?>
<svg id="uuid-4caa53e3-1a1d-463d-b0be-465a223da921" data-name="图层 1" xmlns="http://www.w3.org/2000/svg" viewBox="0 0 109.75 212.6">
  <defs>
    <style>
      .uuid-7f23120a-999b-4b36-b611-b9ab4997f93e {
        fill: #fff;
      }
    </style>
  </defs>
  <path class="uuid-7f23120a-999b-4b36-b611-b9ab4997f93e" d="M109.58,192.98c-14.81-13.09-29.18-25.81-43.98-38.89-.07,1.47-.15,2.37-.15,3.28-.03,17.17-.04,34.34-.06,51.52q0,3.68-3.78,3.68c-4.95,0-9.9-.11-14.85,.03-1.95,.06-2.46-.46-2.45-2.43,.1-17.95,.09-35.91,.11-53.86,0-.59,0-1.19,0-2.34-14.85,13.13-29.34,25.94-43.81,38.73-.9-.4-.55-1.11-.55-1.63-.02-8.5,.03-17-.02-25.5,0-1.34,.41-2.19,1.41-3.08,16.27-14.6,32.49-29.24,48.73-43.87,.38-.34,.81-.61,1.35-1.01-1.07-.94-2.05-.61-2.92-.61-15.28-.04-30.56-.1-45.84-.01-2.2,.01-2.75-.58-2.68-2.73,.17-5.37,.19-10.76,.01-16.13-.07-2.18,.71-2.5,2.63-2.48,15.19,.09,30.39,.07,45.58,.09,.95,0,1.9,0,3.28,0-1.18-2.03-2.87-3.11-4.26-4.37-15.28-13.87-30.59-27.7-45.93-41.51-.85-.76-1.22-1.5-1.21-2.64,.05-9.1,.05-18.21,.06-27.96,14.85,13.18,29.34,26.05,44.29,39.32,0-1.4,0-2.3,0-3.21,.02-17.61,.08-35.21,0-52.82,0-2.1,.61-2.58,2.61-2.53,5.29,.14,10.6,.19,15.89,0,2.29-.08,2.65,.72,2.63,2.78-.1,17.43-.09,34.86-.11,52.3,0,.93,0,1.86,0,3.52,14.88-13.2,29.27-25.97,43.76-38.83,.59,.91,.37,1.69,.37,2.42,0,7.89-.09,15.79,.04,23.68,.04,2.19-.63,3.64-2.26,5.1-15.88,14.24-31.69,28.57-47.52,42.87-.44,.39-.85,.8-1.37,1.29,.94,.96,2.03,.57,2.97,.58,15.19,.05,30.39,.09,45.58,.03,1.93,0,2.69,.33,2.61,2.49-.18,5.46-.16,10.93-.03,16.39,.04,1.92-.42,2.47-2.42,2.46-15.28-.11-30.56-.08-45.84-.1-.92,0-1.85,0-3.46,0,4.96,4.49,9.42,8.53,13.88,12.55,12.24,11.03,24.48,22.05,36.73,33.06,.61,.55,1.03,1.07,1.02,1.96-.04,9.27-.04,18.53-.05,28.42Z"/>
</svg>