<svg width="60" height="60" viewBox="0 0 1000 1000" fill="none" xmlns="http://www.w3.org/2000/svg">
<circle cx="500" cy="500" r="500" fill="black"/>
<circle cx="500" cy="500" r="490" fill="#F25749"/>
<path d="M699.991 408.885C694.034 447.784 648.106 460.144 623.353 429.552C571.546 365.523 543.951 281.858 552.746 193.424C553.805 182.782 562.986 175 573.681 175H614.844C634.537 175 653.316 184.48 662.903 201.681C688.921 248.362 703.746 302.136 703.746 359.373C703.746 376.207 702.464 392.742 699.991 408.885Z" fill="white"/>
<path d="M606.78 500.351C629.718 522.811 637.107 558.937 615.044 582.258C602.37 595.654 588.566 607.97 573.785 619.054C546.141 639.783 508.679 624.784 491.327 594.904C433.506 495.341 338.886 418.688 224.07 385.213C196.096 377.057 175 352.545 175 323.406V255C175 210.817 210.817 175 255 175H481.916C488.574 175 493.7 180.86 493.041 187.486C481.027 308.276 526.307 421.558 606.78 500.351Z" fill="white"/>
<path d="M773.478 596.17C802.51 604.126 825 629.067 825 659.169V745C825 789.183 789.183 825 745 825H613.171C579.972 825 553.495 797.927 549.219 765.004C548.95 762.931 548.666 760.862 548.369 758.797C544.216 729.945 558.099 701.002 582.818 685.552C615.267 665.269 644.473 640.279 669.477 611.537C689.591 588.417 722.491 579.573 751.506 589.433C758.729 591.887 766.055 594.135 773.478 596.17Z" fill="white"/>
<path d="M825 491.239C825 519.977 798.622 542.007 771.397 532.808C747.662 524.788 738.932 497.838 746.388 473.92C757.668 437.741 763.746 399.267 763.746 359.373C763.746 302.63 751.451 248.76 729.379 200.28C724.104 188.694 732.27 175 745 175C789.183 175 825 210.817 825 255V491.239Z" fill="white"/>
<path d="M379.373 683.746C384.794 683.746 390.185 683.613 395.541 683.35C431.76 681.572 450.993 642.778 431.612 612.128C387.823 542.878 323.028 487.602 245.177 456.007C210.031 441.743 175 470.325 175 508.254V582.716C175 600.786 182.96 618.172 197.931 628.293C249.717 663.302 312.158 683.746 379.373 683.746Z" fill="white"/>
<path d="M445.811 825C471.899 825 493.344 803.401 490.295 777.492C487.176 750.992 460.46 736.126 434.043 739.888C416.186 742.43 397.933 743.746 379.373 743.746C325.664 743.746 274.529 732.73 228.102 712.835C204.124 702.56 175 718.913 175 745C175 789.183 210.817 825 255 825H445.811Z" fill="white"/>
</svg>
