<svg width="56" height="49" viewBox="0 0 56 49" fill="none" xmlns="http://www.w3.org/2000/svg"> <path d="M45.7266 25.5824C44.8167 25.5785 43.9067 25.5747 42.9967 25.5708C29.4468 25.5137 15.8869 25.4565 2.33711 25.3793C1.49712 25.3758 0.144309 26.0401 0.101777 24.2699C0.059245 22.4997 1.39683 23.0753 2.26682 23.079C15.7368 23.1158 29.2067 23.1726 42.6765 23.2395C43.7265 23.2439 44.7765 23.2483 45.9077 22.9731C41.9791 20.2565 38.1805 17.5505 34.995 14.107C31.899 10.7639 28.9737 7.28153 27.2417 3.00418C26.9052 2.17275 25.7707 0.867957 27.3733 0.254712C28.8758 -0.328955 28.8896 1.15112 29.3855 2.10322C34.6234 12.0954 42.2425 19.4376 53.1777 22.9738C54.0366 23.2474 55.3682 22.873 55.2912 24.5127C55.2146 26.0924 53.9363 25.687 53.0552 25.9433C46.0366 27.9537 40.3891 32.0999 35.5467 37.3895C32.8242 40.3581 30.1611 43.4569 28.9543 47.4318C28.6095 48.5804 27.8691 48.6572 27.04 48.4437C26.0411 48.1895 26.4947 47.3314 26.6471 46.7721C27.1243 45.0641 27.9808 43.5177 28.9571 42.0318C33.013 35.8988 38.1243 30.8703 44.4602 27.107C44.9314 26.829 45.3927 26.521 45.8639 26.2229C45.8148 26.0127 45.7757 25.8026 45.7266 25.5924L45.7266 25.5824Z" fill="#505149"/> </svg>