<svg version="1.1" xmlns="http://www.w3.org/2000/svg" viewBox="0 0 2048.4285714285716 1008.0714285714288" width="2048.4285714285716" height="1008.0714285714288">
    <!-- svg-source:excalidraw -->

    <defs>
        <style class="style-fonts">
            @font-face {
            font-family: "Virgil";
            src: url("https://excalidraw.com/Virgil.woff2");
            }
            @font-face {
            font-family: "Cascadia";
            src: url("https://excalidraw.com/Cascadia.woff2");
            }
            @font-face {
            font-family: "Assistant";
            src: url("https://excalidraw.com/Assistant-Regular.woff2");
            }
        </style>

    </defs>
    <rect x="0" y="0" width="2048.4285714285716" height="1008.0714285714288" fill="#ffffff"></rect><g stroke-linecap="round" transform="translate(379.9142717633929 65.42857142857142) rotate(0 310 211.5)"><path d="M32 0 C215.54 0, 399.08 0, 588 0 M588 0 C609.33 0, 620 10.67, 620 32 M620 32 C620 143.13, 620 254.26, 620 391 M620 391 C620 412.33, 609.33 423, 588 423 M588 423 C411.71 423, 235.42 423, 32 423 M32 423 C10.67 423, 0 412.33, 0 391 M0 391 C0 262.96, 0 134.93, 0 32 M0 32 C0 10.67, 10.67 0, 32 0" stroke="#1e1e1e" stroke-width="2.5" fill="none" stroke-dasharray="1.5 8"></path></g><g transform="translate(628.9142717633929 10) rotate(0 66.65384674072266 17.5)"><text x="0" y="0" font-family="Virgil, Segoe UI Emoji" font-size="28px" fill="#1e1e1e" text-anchor="start" style="white-space: pre;" direction="ltr" dominant-baseline="text-before-edge">Sequencer</text></g><g stroke-linecap="round" transform="translate(143.0571289062501 140.14285714285714) rotate(0 38 41.50000000000003)"><path d="M19 0 C32.77 0, 46.53 0, 57 0 M57 0 C69.67 0, 76 6.33, 76 19 M76 19 C76 35.33, 76 51.66, 76 64 M76 64 C76 76.67, 69.67 83, 57 83 M57 83 C47.73 83, 38.46 83, 19 83 M19 83 C6.33 83, 0 76.67, 0 64 M0 64 C0 47.22, 0 30.45, 0 19 M0 19 C0 6.33, 6.33 0, 19 0" stroke="#1e1e1e" stroke-width="2.5" fill="none" stroke-dasharray="1.5 8"></path></g><g transform="translate(151.82635879516613 164.14285714285714) rotate(0 29.230770111083984 17.5)"><text x="29.230770111083984" y="0" font-family="Virgil, Segoe UI Emoji" font-size="28px" fill="#1e1e1e" text-anchor="middle" style="white-space: pre;" direction="ltr" dominant-baseline="text-before-edge">user</text></g><g stroke-linecap="round" transform="translate(602.9142717633929 133.42857142857142) rotate(0 155 62)"><path d="M31 0 C96.93 0, 162.87 0, 279 0 M31 0 C129.17 0, 227.34 0, 279 0 M279 0 C299.67 0, 310 10.33, 310 31 M279 0 C299.67 0, 310 10.33, 310 31 M310 31 C310 51.45, 310 71.91, 310 93 M310 31 C310 45.22, 310 59.45, 310 93 M310 93 C310 113.67, 299.67 124, 279 124 M310 93 C310 113.67, 299.67 124, 279 124 M279 124 C204.22 124, 129.43 124, 31 124 M279 124 C194.44 124, 109.89 124, 31 124 M31 124 C10.33 124, 0 113.67, 0 93 M31 124 C10.33 124, 0 113.67, 0 93 M0 93 C0 69.31, 0 45.62, 0 31 M0 93 C0 79.39, 0 65.78, 0 31 M0 31 C0 10.33, 10.33 0, 31 0 M0 31 C0 10.33, 10.33 0, 31 0" stroke="#1e1e1e" stroke-width="2" fill="none"></path></g><g transform="translate(717.1450418744769 101.42857142857142) rotate(0 32.230770111083984 10)"><text x="0" y="0" font-family="Virgil, Segoe UI Emoji" font-size="16px" fill="#1e1e1e" text-anchor="start" style="white-space: pre;" direction="ltr" dominant-baseline="text-before-edge">batch_n</text></g><g stroke-linecap="round" transform="translate(629.9142717633929 165.42857142857142) rotate(0 24 29.5)"><path d="M12 0 C19.25 0, 26.5 0, 36 0 M12 0 C20.7 0, 29.4 0, 36 0 M36 0 C44 0, 48 4, 48 12 M36 0 C44 0, 48 4, 48 12 M48 12 C48 25.3, 48 38.61, 48 47 M48 12 C48 19.27, 48 26.53, 48 47 M48 47 C48 55, 44 59, 36 59 M48 47 C48 55, 44 59, 36 59 M36 59 C29.67 59, 23.34 59, 12 59 M36 59 C28.15 59, 20.3 59, 12 59 M12 59 C4 59, 0 55, 0 47 M12 59 C4 59, 0 55, 0 47 M0 47 C0 39.71, 0 32.42, 0 12 M0 47 C0 37.93, 0 28.86, 0 12 M0 12 C0 4, 4 0, 12 0 M0 12 C0 4, 4 0, 12 0" stroke="#1e1e1e" stroke-width="2" fill="none"></path></g><g transform="translate(644.8950409208026 184.92857142857142) rotate(0 9.019230842590332 10)"><text x="9.019230842590332" y="0" font-family="Virgil, Segoe UI Emoji" font-size="16px" fill="#2f9e44" text-anchor="middle" style="white-space: pre;" direction="ltr" dominant-baseline="text-before-edge">tx</text></g><g transform="translate(695.9142717633929 184.42857142857142) rotate(0 6.57692289352417 10)"><text x="0" y="0" font-family="Virgil, Segoe UI Emoji" font-size="16px" fill="#1e1e1e" text-anchor="start" style="white-space: pre;" direction="ltr" dominant-baseline="text-before-edge">...</text></g><g stroke-linecap="round" transform="translate(727.9142717633929 166.92857142857142) rotate(0 24 29.5)"><path d="M12 0 C20.87 0, 29.74 0, 36 0 M12 0 C18.05 0, 24.11 0, 36 0 M36 0 C44 0, 48 4, 48 12 M36 0 C44 0, 48 4, 48 12 M48 12 C48 25.58, 48 39.16, 48 47 M48 12 C48 25.75, 48 39.5, 48 47 M48 47 C48 55, 44 59, 36 59 M48 47 C48 55, 44 59, 36 59 M36 59 C27.38 59, 18.76 59, 12 59 M36 59 C26.62 59, 17.24 59, 12 59 M12 59 C4 59, 0 55, 0 47 M12 59 C4 59, 0 55, 0 47 M0 47 C0 36.79, 0 26.57, 0 12 M0 47 C0 36.01, 0 25.02, 0 12 M0 12 C0 4, 4 0, 12 0 M0 12 C0 4, 4 0, 12 0" stroke="#1e1e1e" stroke-width="2" fill="none"></path></g><g transform="translate(742.8950409208026 186.42857142857142) rotate(0 9.019230842590332 10)"><text x="9.019230842590332" y="0" font-family="Virgil, Segoe UI Emoji" font-size="16px" fill="#1e1e1e" text-anchor="middle" style="white-space: pre;" direction="ltr" dominant-baseline="text-before-edge">tx</text></g><g stroke-linecap="round" transform="translate(786.9142717633929 166.92857142857142) rotate(0 24 29.5)"><path d="M12 0 C17.3 0, 22.59 0, 36 0 M12 0 C21.51 0, 31.01 0, 36 0 M36 0 C44 0, 48 4, 48 12 M36 0 C44 0, 48 4, 48 12 M48 12 C48 19.56, 48 27.12, 48 47 M48 12 C48 25.7, 48 39.4, 48 47 M48 47 C48 55, 44 59, 36 59 M48 47 C48 55, 44 59, 36 59 M36 59 C27.15 59, 18.3 59, 12 59 M36 59 C27.14 59, 18.28 59, 12 59 M12 59 C4 59, 0 55, 0 47 M12 59 C4 59, 0 55, 0 47 M0 47 C0 39.52, 0 32.05, 0 12 M0 47 C0 37.42, 0 27.83, 0 12 M0 12 C0 4, 4 0, 12 0 M0 12 C0 4, 4 0, 12 0" stroke="#1e1e1e" stroke-width="2" fill="none"></path></g><g transform="translate(801.8950409208026 186.42857142857142) rotate(0 9.019230842590332 10)"><text x="9.019230842590332" y="0" font-family="Virgil, Segoe UI Emoji" font-size="16px" fill="#1e1e1e" text-anchor="middle" style="white-space: pre;" direction="ltr" dominant-baseline="text-before-edge">tx</text></g><g stroke-linecap="round" transform="translate(848.9142717633929 164.92857142857142) rotate(0 24 29.5)"><path d="M12 0 C17.29 0, 22.58 0, 36 0 M12 0 C19.19 0, 26.38 0, 36 0 M36 0 C44 0, 48 4, 48 12 M36 0 C44 0, 48 4, 48 12 M48 12 C48 20.77, 48 29.54, 48 47 M48 12 C48 22.53, 48 33.05, 48 47 M48 47 C48 55, 44 59, 36 59 M48 47 C48 55, 44 59, 36 59 M36 59 C28.31 59, 20.63 59, 12 59 M36 59 C30.23 59, 24.46 59, 12 59 M12 59 C4 59, 0 55, 0 47 M12 59 C4 59, 0 55, 0 47 M0 47 C0 37.24, 0 27.49, 0 12 M0 47 C0 33.6, 0 20.2, 0 12 M0 12 C0 4, 4 0, 12 0 M0 12 C0 4, 4 0, 12 0" stroke="#1e1e1e" stroke-width="2" fill="none"></path></g><g transform="translate(863.8950409208026 184.42857142857142) rotate(0 9.019230842590332 10)"><text x="9.019230842590332" y="0" font-family="Virgil, Segoe UI Emoji" font-size="16px" fill="#1e1e1e" text-anchor="middle" style="white-space: pre;" direction="ltr" dominant-baseline="text-before-edge">tx</text></g><g transform="translate(744.3373488698687 276.92857142857144) rotate(0 8.192307472229004 12.5)"><text x="0" y="0" font-family="Virgil, Segoe UI Emoji" font-size="20px" fill="#1e1e1e" text-anchor="start" style="white-space: pre;" direction="ltr" dominant-baseline="text-before-edge">...</text></g><g stroke-linecap="round" transform="translate(602.9142717633929 342.42857142857144) rotate(0 155 62)"><path d="M31 0 C101.45 0, 171.9 0, 279 0 M31 0 C114.93 0, 198.86 0, 279 0 M279 0 C299.67 0, 310 10.33, 310 31 M279 0 C299.67 0, 310 10.33, 310 31 M310 31 C310 52.82, 310 74.65, 310 93 M310 31 C310 47.43, 310 63.85, 310 93 M310 93 C310 113.67, 299.67 124, 279 124 M310 93 C310 113.67, 299.67 124, 279 124 M279 124 C185.24 124, 91.49 124, 31 124 M279 124 C184.28 124, 89.56 124, 31 124 M31 124 C10.33 124, 0 113.67, 0 93 M31 124 C10.33 124, 0 113.67, 0 93 M0 93 C0 78.62, 0 64.25, 0 31 M0 93 C0 75.53, 0 58.07, 0 31 M0 31 C0 10.33, 10.33 0, 31 0 M0 31 C0 10.33, 10.33 0, 31 0" stroke="#1e1e1e" stroke-width="2" fill="none"></path></g><g stroke-linecap="round" transform="translate(627.9142717633929 372.42857142857144) rotate(0 24 29.5)"><path d="M12 0 C20.6 0, 29.19 0, 36 0 M12 0 C20.63 0, 29.26 0, 36 0 M36 0 C44 0, 48 4, 48 12 M36 0 C44 0, 48 4, 48 12 M48 12 C48 25.48, 48 38.95, 48 47 M48 12 C48 22.23, 48 32.46, 48 47 M48 47 C48 55, 44 59, 36 59 M48 47 C48 55, 44 59, 36 59 M36 59 C29.15 59, 22.3 59, 12 59 M36 59 C29.29 59, 22.58 59, 12 59 M12 59 C4 59, 0 55, 0 47 M12 59 C4 59, 0 55, 0 47 M0 47 C0 34.48, 0 21.95, 0 12 M0 47 C0 39.92, 0 32.84, 0 12 M0 12 C0 4, 4 0, 12 0 M0 12 C0 4, 4 0, 12 0" stroke="#1e1e1e" stroke-width="2" fill="none"></path></g><g transform="translate(642.8950409208026 391.92857142857144) rotate(0 9.019230842590332 10)"><text x="9.019230842590332" y="0" font-family="Virgil, Segoe UI Emoji" font-size="16px" fill="#1e1e1e" text-anchor="middle" style="white-space: pre;" direction="ltr" dominant-baseline="text-before-edge">tx</text></g><g transform="translate(693.9142717633929 391.42857142857144) rotate(0 6.57692289352417 10)"><text x="0" y="0" font-family="Virgil, Segoe UI Emoji" font-size="16px" fill="#1e1e1e" text-anchor="start" style="white-space: pre;" direction="ltr" dominant-baseline="text-before-edge">...</text></g><g stroke-linecap="round" transform="translate(725.9142717633929 373.92857142857144) rotate(0 24 29.5)"><path d="M12 0 C21.58 0, 31.17 0, 36 0 M12 0 C18.11 0, 24.23 0, 36 0 M36 0 C44 0, 48 4, 48 12 M36 0 C44 0, 48 4, 48 12 M48 12 C48 22.17, 48 32.35, 48 47 M48 12 C48 19.28, 48 26.55, 48 47 M48 47 C48 55, 44 59, 36 59 M48 47 C48 55, 44 59, 36 59 M36 59 C27.49 59, 18.97 59, 12 59 M36 59 C27.24 59, 18.48 59, 12 59 M12 59 C4 59, 0 55, 0 47 M12 59 C4 59, 0 55, 0 47 M0 47 C0 37.14, 0 27.29, 0 12 M0 47 C0 37.68, 0 28.35, 0 12 M0 12 C0 4, 4 0, 12 0 M0 12 C0 4, 4 0, 12 0" stroke="#1e1e1e" stroke-width="2" fill="none"></path></g><g transform="translate(740.8950409208026 393.42857142857144) rotate(0 9.019230842590332 10)"><text x="9.019230842590332" y="0" font-family="Virgil, Segoe UI Emoji" font-size="16px" fill="#1e1e1e" text-anchor="middle" style="white-space: pre;" direction="ltr" dominant-baseline="text-before-edge">tx</text></g><g stroke-linecap="round" transform="translate(784.9142717633929 373.92857142857144) rotate(0 24 29.5)"><path d="M12 0 C20.92 0, 29.83 0, 36 0 M12 0 C17.82 0, 23.63 0, 36 0 M36 0 C44 0, 48 4, 48 12 M36 0 C44 0, 48 4, 48 12 M48 12 C48 21.79, 48 31.58, 48 47 M48 12 C48 24.79, 48 37.58, 48 47 M48 47 C48 55, 44 59, 36 59 M48 47 C48 55, 44 59, 36 59 M36 59 C28.76 59, 21.53 59, 12 59 M36 59 C29.41 59, 22.81 59, 12 59 M12 59 C4 59, 0 55, 0 47 M12 59 C4 59, 0 55, 0 47 M0 47 C0 34.97, 0 22.93, 0 12 M0 47 C0 33.75, 0 20.51, 0 12 M0 12 C0 4, 4 0, 12 0 M0 12 C0 4, 4 0, 12 0" stroke="#1e1e1e" stroke-width="2" fill="none"></path></g><g transform="translate(799.8950409208026 393.42857142857144) rotate(0 9.019230842590332 10)"><text x="9.019230842590332" y="0" font-family="Virgil, Segoe UI Emoji" font-size="16px" fill="#1e1e1e" text-anchor="middle" style="white-space: pre;" direction="ltr" dominant-baseline="text-before-edge">tx</text></g><g stroke-linecap="round" transform="translate(846.9142717633929 371.92857142857144) rotate(0 24 29.5)"><path d="M12 0 C20.68 0, 29.35 0, 36 0 M12 0 C20.08 0, 28.17 0, 36 0 M36 0 C44 0, 48 4, 48 12 M36 0 C44 0, 48 4, 48 12 M48 12 C48 23.78, 48 35.57, 48 47 M48 12 C48 19.14, 48 26.28, 48 47 M48 47 C48 55, 44 59, 36 59 M48 47 C48 55, 44 59, 36 59 M36 59 C30.66 59, 25.33 59, 12 59 M36 59 C26.64 59, 17.28 59, 12 59 M12 59 C4 59, 0 55, 0 47 M12 59 C4 59, 0 55, 0 47 M0 47 C0 37.21, 0 27.43, 0 12 M0 47 C0 38.83, 0 30.65, 0 12 M0 12 C0 4, 4 0, 12 0 M0 12 C0 4, 4 0, 12 0" stroke="#1e1e1e" stroke-width="2" fill="none"></path></g><g transform="translate(861.8950409208026 391.42857142857144) rotate(0 9.019230842590332 10)"><text x="9.019230842590332" y="0" font-family="Virgil, Segoe UI Emoji" font-size="16px" fill="#1e1e1e" text-anchor="middle" style="white-space: pre;" direction="ltr" dominant-baseline="text-before-edge">tx</text></g><g transform="translate(720.6835016523089 315.42857142857144) rotate(0 34 10)"><text x="0" y="0" font-family="Virgil, Segoe UI Emoji" font-size="16px" fill="#1e1e1e" text-anchor="start" style="white-space: pre;" direction="ltr" dominant-baseline="text-before-edge">batch_0</text></g><g stroke-linecap="round" transform="translate(388.9142717633929 614.4285714285714) rotate(0 94 69.5)"><path d="M32 0 C75.55 0, 119.1 0, 156 0 M156 0 C177.33 0, 188 10.67, 188 32 M188 32 C188 57.51, 188 83.01, 188 107 M188 107 C188 128.33, 177.33 139, 156 139 M156 139 C114.75 139, 73.5 139, 32 139 M32 139 C10.67 139, 0 128.33, 0 107 M0 107 C0 79.93, 0 52.86, 0 32 M0 32 C0 10.67, 10.67 0, 32 0" stroke="#1e1e1e" stroke-width="2.5" fill="none" stroke-dasharray="1.5 8"></path></g><g transform="translate(439.06811850411555 671.4285714285714) rotate(0 43.846153259277344 12.5)"><text x="43.846153259277344" y="0" font-family="Virgil, Segoe UI Emoji" font-size="20px" fill="#1e1e1e" text-anchor="middle" style="white-space: pre;" direction="ltr" dominant-baseline="text-before-edge">Executor</text></g><g mask="url(#mask-R1bXY2XddV_SCNC5QO5Ga)" stroke-linecap="round"><g transform="translate(487.05712890625 196.42857142857142) rotate(0 3 211.5)"><path d="M0 0 C1 70.5, 5 352.5, 6 423" stroke="#1e1e1e" stroke-width="2.5" fill="none" stroke-dasharray="8 10"></path></g><g transform="translate(487.05712890625 196.42857142857142) rotate(0 3 211.5)"><path d="M-4.66 394.96 C-0.84 405.01, 2.98 415.05, 6 423" stroke="#1e1e1e" stroke-width="2.5" fill="none"></path></g><g transform="translate(487.05712890625 196.42857142857142) rotate(0 3 211.5)"><path d="M15.86 394.67 C12.33 404.82, 8.79 414.97, 6 423" stroke="#1e1e1e" stroke-width="2.5" fill="none"></path></g></g><mask id="mask-R1bXY2XddV_SCNC5QO5Ga"><rect x="0" y="0" fill="#fff" width="593.05712890625" height="719.4285714285714"></rect><rect x="405.13404846191406" y="395.42857142857144" fill="#000" width="169.84616088867188" height="25" opacity="1"></rect></mask><g transform="translate(405.13404846191406 395.42857142857144) rotate(0 84.92308044433594 12.5)"><text x="84.92308044433594" y="0" font-family="Virgil, Segoe UI Emoji" font-size="20px" fill="#1e1e1e" text-anchor="middle" style="white-space: pre;" direction="ltr" dominant-baseline="text-before-edge">emit tx/new block</text></g><g stroke-opacity="0" fill-opacity="0" transform="translate(333.9142717633929 145.42857142857142) rotate(0 10.5 0)" stroke="none"><path fill="#1e1e1e" d="M -2.37,-4.75 Q -2.37,-4.75 -0.67,-5.67 1.03,-6.59 4.29,-7.52 7.54,-8.44 9.82,-8.67 12.10,-8.90 15.11,-8.50 18.13,-8.11 20.64,-6.35 23.16,-4.60 24.86,-2.31 26.57,-0.02 26.85,0.96 27.13,1.94 27.08,2.97 27.04,3.99 26.66,4.94 26.29,5.90 25.63,6.68 24.97,7.47 24.10,8.00 23.23,8.54 22.23,8.76 21.23,8.99 20.21,8.89 19.19,8.78 18.26,8.36 17.33,7.94 16.58,7.24 15.83,6.54 15.34,5.64 14.86,4.73 14.68,3.72 14.51,2.71 14.67,1.70 14.83,0.69 15.30,-0.21 15.78,-1.12 16.51,-1.83 17.25,-2.53 18.18,-2.97 19.11,-3.41 20.12,-3.53 21.14,-3.64 22.14,-3.43 23.15,-3.22 24.03,-2.69 24.91,-2.17 25.58,-1.40 26.25,-0.62 26.63,0.32 27.02,1.27 27.08,2.29 27.14,3.31 26.87,4.30 26.61,5.29 26.04,6.14 25.47,6.99 24.66,7.62 23.85,8.25 22.88,8.58 21.91,8.91 20.88,8.92 19.86,8.93 18.89,8.61 17.91,8.29 17.09,7.67 16.28,7.06 15.69,6.21 15.11,5.37 15.11,5.37 15.11,5.37 14.99,5.12 14.86,4.88 12.61,3.89 10.36,2.90 8.11,3.02 5.86,3.14 4.12,3.95 2.37,4.75 1.77,4.97 1.17,5.18 0.53,5.25 -0.10,5.31 -0.73,5.22 -1.37,5.13 -1.96,4.89 -2.56,4.65 -3.08,4.28 -3.60,3.90 -4.01,3.42 -4.43,2.93 -4.72,2.36 -5.00,1.78 -5.14,1.16 -5.28,0.53 -5.27,-0.10 -5.26,-0.74 -5.09,-1.36 -4.93,-1.98 -4.62,-2.54 -4.31,-3.10 -3.88,-3.57 -3.44,-4.04 -2.91,-4.40 -2.37,-4.75 -2.37,-4.75 L -2.37,-4.75 Z"></path></g><g transform="translate(269.7714146205358 154.92857142857142) rotate(0 2.692307710647583 12.5)"><text x="0" y="0" font-family="Virgil, Segoe UI Emoji" font-size="20px" fill="#f08c00" text-anchor="start" style="white-space: pre;" direction="ltr" dominant-baseline="text-before-edge">1</text></g><g transform="translate(450.6752608844213 346.21428571428567) rotate(0 7.096153736114502 12.5)"><text x="0" y="0" font-family="Virgil, Segoe UI Emoji" font-size="20px" fill="#f08c00" text-anchor="start" style="white-space: pre;" direction="ltr" dominant-baseline="text-before-edge">2</text></g><g stroke-linecap="round" transform="translate(613.9142717633929 901.9285714285714) rotate(0 114.71428571428567 48.07142857142867)"><path d="M24.04 0 C78.68 0, 133.32 0, 205.39 0 M205.39 0 C221.42 0, 229.43 8.01, 229.43 24.04 M229.43 24.04 C229.43 38.59, 229.43 53.14, 229.43 72.11 M229.43 72.11 C229.43 88.13, 221.42 96.14, 205.39 96.14 M205.39 96.14 C145.64 96.14, 85.89 96.14, 24.04 96.14 M24.04 96.14 C8.01 96.14, 0 88.13, 0 72.11 M0 72.11 C0 60.68, 0 49.26, 0 24.04 M0 24.04 C0 8.01, 8.01 0, 24.04 0" stroke="#1e1e1e" stroke-width="2.5" fill="none" stroke-dasharray="1.5 8"></path></g><g transform="translate(654.8785574776786 937.5000000000001) rotate(0 73.75 12.5)"><text x="73.75" y="0" font-family="Virgil, Segoe UI Emoji" font-size="20px" fill="#1e1e1e" text-anchor="middle" style="white-space: pre;" direction="ltr" dominant-baseline="text-before-edge">L2BatchOracle</text></g><g mask="url(#mask-qmvPXuUHhw16uuvDyFfkj)" stroke-linecap="round"><g transform="translate(742.543377131584 467.92857142857144) rotate(0 -9.499072822823678 212.5)"><path d="M0 0 C-3.17 70.83, -15.83 354.17, -19 425" stroke="#1e1e1e" stroke-width="2.5" fill="none" stroke-dasharray="8 10"></path></g><g transform="translate(742.543377131584 467.92857142857144) rotate(0 -9.499072822823678 212.5)"><path d="M-27.99 396.38 C-25.14 405.45, -22.29 414.53, -19 425" stroke="#1e1e1e" stroke-width="2.5" fill="none"></path></g><g transform="translate(742.543377131584 467.92857142857144) rotate(0 -9.499072822823678 212.5)"><path d="M-7.49 397.3 C-11.14 406.08, -14.79 414.87, -19 425" stroke="#1e1e1e" stroke-width="2.5" fill="none"></path></g></g><mask id="mask-qmvPXuUHhw16uuvDyFfkj"><rect x="0" y="0" fill="#fff" width="861.5415227772313" height="992.9285714285714"></rect><rect x="641.5443043087604" y="667.9285714285716" fill="#000" width="183" height="25" opacity="1"></rect></mask><g transform="translate(641.5443043087603 667.9285714285716) rotate(0 91.5 12.5)"><text x="91.5" y="0" font-family="Virgil, Segoe UI Emoji" font-size="20px" fill="#1e1e1e" text-anchor="middle" style="white-space: pre;" direction="ltr" dominant-baseline="text-before-edge">submit batch meta</text></g><g stroke-linecap="round" transform="translate(1111.914271763393 73.92857142857142) rotate(0 263.42857142857144 177.9285714285714)"><path d="M32 0 C138.38 0, 244.76 0, 494.86 0 M494.86 0 C516.19 0, 526.86 10.67, 526.86 32 M526.86 32 C526.86 117.77, 526.86 203.54, 526.86 323.86 M526.86 323.86 C526.86 345.19, 516.19 355.86, 494.86 355.86 M494.86 355.86 C326.56 355.86, 158.26 355.86, 32 355.86 M32 355.86 C10.67 355.86, 0 345.19, 0 323.86 M0 323.86 C0 256.08, 0 188.29, 0 32 M0 32 C0 10.67, 10.67 0, 32 0" stroke="#1e1e1e" stroke-width="2.5" fill="none" stroke-dasharray="1.5 8"></path></g><g transform="translate(1162.1835054670062 20.928571428571416) rotate(0 70.30769348144531 17.5)"><text x="0" y="0" font-family="Virgil, Segoe UI Emoji" font-size="28px" fill="#1e1e1e" text-anchor="start" style="white-space: pre;" direction="ltr" dominant-baseline="text-before-edge">DA Server</text></g><g stroke-linecap="round" transform="translate(1173.914271763393 107.42857142857142) rotate(0 60.78571428571422 149.0714285714286)"><path d="M30.39 0 C54.62 0, 78.84 0, 91.18 0 M30.39 0 C48.6 0, 66.8 0, 91.18 0 M91.18 0 C111.44 0, 121.57 10.13, 121.57 30.39 M91.18 0 C111.44 0, 121.57 10.13, 121.57 30.39 M121.57 30.39 C121.57 123.01, 121.57 215.62, 121.57 267.75 M121.57 30.39 C121.57 96.73, 121.57 163.07, 121.57 267.75 M121.57 267.75 C121.57 288.01, 111.44 298.14, 91.18 298.14 M121.57 267.75 C121.57 288.01, 111.44 298.14, 91.18 298.14 M91.18 298.14 C73.88 298.14, 56.58 298.14, 30.39 298.14 M91.18 298.14 C70.15 298.14, 49.13 298.14, 30.39 298.14 M30.39 298.14 C10.13 298.14, 0 288.01, 0 267.75 M30.39 298.14 C10.13 298.14, 0 288.01, 0 267.75 M0 267.75 C0 173.51, 0 79.27, 0 30.39 M0 267.75 C0 196.05, 0 124.36, 0 30.39 M0 30.39 C0 10.13, 10.13 0, 30.39 0 M0 30.39 C0 10.13, 10.13 0, 30.39 0" stroke="#1e1e1e" stroke-width="2" fill="none"></path></g><g stroke-linecap="round" transform="translate(1189.914271763393 122.92857142857142) rotate(0 40 23)"><path d="M11.5 0 C22.9 0, 34.31 0, 68.5 0 M11.5 0 C30.81 0, 50.12 0, 68.5 0 M68.5 0 C76.17 0, 80 3.83, 80 11.5 M68.5 0 C76.17 0, 80 3.83, 80 11.5 M80 11.5 C80 20.36, 80 29.23, 80 34.5 M80 11.5 C80 16.44, 80 21.38, 80 34.5 M80 34.5 C80 42.17, 76.17 46, 68.5 46 M80 34.5 C80 42.17, 76.17 46, 68.5 46 M68.5 46 C52.94 46, 37.39 46, 11.5 46 M68.5 46 C45.85 46, 23.2 46, 11.5 46 M11.5 46 C3.83 46, 0 42.17, 0 34.5 M11.5 46 C3.83 46, 0 42.17, 0 34.5 M0 34.5 C0 26.29, 0 18.08, 0 11.5 M0 34.5 C0 28.33, 0 22.15, 0 11.5 M0 11.5 C0 3.83, 3.83 0, 11.5 0 M0 11.5 C0 3.83, 3.83 0, 11.5 0" stroke="#1e1e1e" stroke-width="2" fill="none"></path></g><g transform="translate(1197.683501652309 135.92857142857142) rotate(0 32.230770111083984 10)"><text x="32.230770111083984" y="0" font-family="Virgil, Segoe UI Emoji" font-size="16px" fill="#1e1e1e" text-anchor="middle" style="white-space: pre;" direction="ltr" dominant-baseline="text-before-edge">batch_n</text></g><g transform="translate(1222.1505357197352 303.92857142857144) rotate(0 8.192307472229004 12.5)"><text x="0" y="0" font-family="Virgil, Segoe UI Emoji" font-size="20px" fill="#1e1e1e" text-anchor="start" style="white-space: pre;" direction="ltr" dominant-baseline="text-before-edge">...</text></g><g stroke-linecap="round" transform="translate(1189.914271763393 337.8571428571429) rotate(0 40 23)"><path d="M11.5 0 C28.2 0, 44.89 0, 68.5 0 M11.5 0 C28.48 0, 45.46 0, 68.5 0 M68.5 0 C76.17 0, 80 3.83, 80 11.5 M68.5 0 C76.17 0, 80 3.83, 80 11.5 M80 11.5 C80 20.12, 80 28.73, 80 34.5 M80 11.5 C80 16.86, 80 22.23, 80 34.5 M80 34.5 C80 42.17, 76.17 46, 68.5 46 M80 34.5 C80 42.17, 76.17 46, 68.5 46 M68.5 46 C55 46, 41.49 46, 11.5 46 M68.5 46 C48.44 46, 28.39 46, 11.5 46 M11.5 46 C3.83 46, 0 42.17, 0 34.5 M11.5 46 C3.83 46, 0 42.17, 0 34.5 M0 34.5 C0 28.78, 0 23.06, 0 11.5 M0 34.5 C0 26.67, 0 18.83, 0 11.5 M0 11.5 C0 3.83, 3.83 0, 11.5 0 M0 11.5 C0 3.83, 3.83 0, 11.5 0" stroke="#1e1e1e" stroke-width="2" fill="none"></path></g><g transform="translate(1195.914271763393 350.8571428571429) rotate(0 34 10)"><text x="34" y="0" font-family="Virgil, Segoe UI Emoji" font-size="16px" fill="#1e1e1e" text-anchor="middle" style="white-space: pre;" direction="ltr" dominant-baseline="text-before-edge">batch_0</text></g><g transform="translate(1207.914271763393 81.42857142857142) rotate(0 27.076923370361328 10)"><text x="0" y="0" font-family="Virgil, Segoe UI Emoji" font-size="16px" fill="#1e1e1e" text-anchor="start" style="white-space: pre;" direction="ltr" dominant-baseline="text-before-edge">stream</text></g><g mask="url(#mask-ZyNt_PDDoIN4tAAviV0w1)" stroke-linecap="round"><g transform="translate(931.3428431919644 175.78862567845292) rotate(0 125.07142857142856 -15.428106423468165)"><path d="M0 0 C41.69 -5.14, 208.45 -25.71, 250.14 -30.86 M0 0 C41.69 -5.14, 208.45 -25.71, 250.14 -30.86" stroke="#e03131" stroke-width="2" fill="none"></path></g><g transform="translate(931.3428431919644 175.78862567845292) rotate(0 125.07142857142856 -15.428106423468165)"><path d="M223.42 -17.22 C232.99 -22.1, 242.55 -26.98, 250.14 -30.86 M223.42 -17.22 C229.89 -20.52, 236.37 -23.83, 250.14 -30.86" stroke="#e03131" stroke-width="2" fill="none"></path></g><g transform="translate(931.3428431919644 175.78862567845292) rotate(0 125.07142857142856 -15.428106423468165)"><path d="M220.91 -37.59 C231.37 -35.18, 241.84 -32.77, 250.14 -30.86 M220.91 -37.59 C227.99 -35.96, 235.07 -34.33, 250.14 -30.86" stroke="#e03131" stroke-width="2" fill="none"></path></g></g><mask id="mask-ZyNt_PDDoIN4tAAviV0w1"><rect x="0" y="0" fill="#fff" width="1281.4857003348216" height="306.6448385253892"></rect><rect x="1007.9719652448382" y="147.86051925498475" fill="#000" width="96.88461303710938" height="25" opacity="1"></rect></mask><g transform="translate(1007.9719652448382 147.8605192549847) rotate(0 48.4423065185548 12.500000000000028)"><text x="48.44230651855469" y="0" font-family="Virgil, Segoe UI Emoji" font-size="20px" fill="#e03131" text-anchor="middle" style="white-space: pre;" direction="ltr" dominant-baseline="text-before-edge">put batch</text></g><g stroke-linecap="round"><g transform="translate(10 830.2285679408483) rotate(0 918.5714285714289 -0.7142857142857224)"><path d="M0 0 C306.19 -0.24, 1530.95 -1.19, 1837.14 -1.43" stroke="#1971c2" stroke-width="1.5" fill="none" stroke-dasharray="8 9"></path></g></g><mask></mask><g stroke-linecap="round" transform="translate(1192.8571428571424 180.0857107979909) rotate(0 40 23)"><path d="M11.5 0 C26.67 0, 41.85 0, 68.5 0 M11.5 0 C23.64 0, 35.79 0, 68.5 0 M68.5 0 C76.17 0, 80 3.83, 80 11.5 M68.5 0 C76.17 0, 80 3.83, 80 11.5 M80 11.5 C80 19.41, 80 27.31, 80 34.5 M80 11.5 C80 19.28, 80 27.06, 80 34.5 M80 34.5 C80 42.17, 76.17 46, 68.5 46 M80 34.5 C80 42.17, 76.17 46, 68.5 46 M68.5 46 C53.58 46, 38.67 46, 11.5 46 M68.5 46 C50 46, 31.51 46, 11.5 46 M11.5 46 C3.83 46, 0 42.17, 0 34.5 M11.5 46 C3.83 46, 0 42.17, 0 34.5 M0 34.5 C0 26.15, 0 17.8, 0 11.5 M0 34.5 C0 26.44, 0 18.39, 0 11.5 M0 11.5 C0 3.83, 3.83 0, 11.5 0 M0 11.5 C0 3.83, 3.83 0, 11.5 0" stroke="#1e1e1e" stroke-width="2" fill="none"></path></g><g transform="translate(1200.2994493756971 193.0857107979909) rotate(0 32.55769348144531 10)"><text x="32.55769348144531" y="0" font-family="Virgil, Segoe UI Emoji" font-size="16px" fill="#1e1e1e" text-anchor="middle" style="white-space: pre;" direction="ltr" dominant-baseline="text-before-edge">batch_b</text></g><g stroke-linecap="round" transform="translate(1194.2857142857142 238.65713936941935) rotate(0 40 23)"><path d="M11.5 0 C32.78 0, 54.06 0, 68.5 0 M11.5 0 C28.59 0, 45.69 0, 68.5 0 M68.5 0 C76.17 0, 80 3.83, 80 11.5 M68.5 0 C76.17 0, 80 3.83, 80 11.5 M80 11.5 C80 19.19, 80 26.87, 80 34.5 M80 11.5 C80 17.78, 80 24.06, 80 34.5 M80 34.5 C80 42.17, 76.17 46, 68.5 46 M80 34.5 C80 42.17, 76.17 46, 68.5 46 M68.5 46 C50.14 46, 31.77 46, 11.5 46 M68.5 46 C47.19 46, 25.88 46, 11.5 46 M11.5 46 C3.83 46, 0 42.17, 0 34.5 M11.5 46 C3.83 46, 0 42.17, 0 34.5 M0 34.5 C0 28.83, 0 23.17, 0 11.5 M0 34.5 C0 29.35, 0 24.2, 0 11.5 M0 11.5 C0 3.83, 3.83 0, 11.5 0 M0 11.5 C0 3.83, 3.83 0, 11.5 0" stroke="#1e1e1e" stroke-width="2" fill="none"></path></g><g transform="translate(1201.7664843967982 251.65713936941935) rotate(0 32.519229888916016 10)"><text x="32.519229888916016" y="0" font-family="Virgil, Segoe UI Emoji" font-size="16px" fill="#1e1e1e" text-anchor="middle" style="white-space: pre;" direction="ltr" dominant-baseline="text-before-edge">batch_c</text></g><g stroke-linecap="round"><g transform="translate(1277.142857142857 145.9428536551338) rotate(0 35.714285714285666 32.85714285714283)"><path d="M0 0 C11.9 10.95, 59.52 54.76, 71.43 65.71" stroke="#1e1e1e" stroke-width="2.5" fill="none" stroke-dasharray="8 10"></path></g></g><mask></mask><g stroke-linecap="round"><g transform="translate(1277.142857142857 267.3714250837053) rotate(0 35.714285714285666 -28.571428571428612)"><path d="M0 0 C11.9 -9.52, 59.52 -47.62, 71.43 -57.14" stroke="#1e1e1e" stroke-width="2.5" fill="none" stroke-dasharray="8 10"></path></g></g><mask></mask><g stroke-linecap="round" transform="translate(1514.2857142857142 125.79999651227644) rotate(0 40 22.999999999999986)"><path d="M11.5 0 C27.79 0, 44.08 0, 68.5 0 M11.5 0 C24.53 0, 37.56 0, 68.5 0 M68.5 0 C76.17 0, 80 3.83, 80 11.5 M68.5 0 C76.17 0, 80 3.83, 80 11.5 M80 11.5 C80 17.52, 80 23.53, 80 34.5 M80 11.5 C80 20.68, 80 29.85, 80 34.5 M80 34.5 C80 42.17, 76.17 46, 68.5 46 M80 34.5 C80 42.17, 76.17 46, 68.5 46 M68.5 46 C56.68 46, 44.85 46, 11.5 46 M68.5 46 C50.24 46, 31.97 46, 11.5 46 M11.5 46 C3.83 46, 0 42.17, 0 34.5 M11.5 46 C3.83 46, 0 42.17, 0 34.5 M0 34.5 C0 27.78, 0 21.07, 0 11.5 M0 34.5 C0 28.09, 0 21.69, 0 11.5 M0 11.5 C0 3.83, 3.83 0, 11.5 0 M0 11.5 C0 3.83, 3.83 0, 11.5 0" stroke="#1e1e1e" stroke-width="2" fill="none"></path></g><g transform="translate(1531.208790915353 138.7999965122764) rotate(0 23.076923370361328 10)"><text x="23.076923370361328" y="0" font-family="Virgil, Segoe UI Emoji" font-size="16px" fill="#1e1e1e" text-anchor="middle" style="white-space: pre;" direction="ltr" dominant-baseline="text-before-edge">seg_n</text></g><g stroke-linecap="round" transform="translate(1506.3571428571427 111.87142508370525) rotate(0 50.07142857142867 108.35714285714289)"><path d="M25.04 0 C36.29 0, 47.54 0, 75.11 0 M25.04 0 C37.92 0, 50.8 0, 75.11 0 M75.11 0 C91.8 0, 100.14 8.35, 100.14 25.04 M75.11 0 C91.8 0, 100.14 8.35, 100.14 25.04 M100.14 25.04 C100.14 60.94, 100.14 96.85, 100.14 191.68 M100.14 25.04 C100.14 69.85, 100.14 114.66, 100.14 191.68 M100.14 191.68 C100.14 208.37, 91.8 216.71, 75.11 216.71 M100.14 191.68 C100.14 208.37, 91.8 216.71, 75.11 216.71 M75.11 216.71 C62.01 216.71, 48.91 216.71, 25.04 216.71 M75.11 216.71 C61.15 216.71, 47.19 216.71, 25.04 216.71 M25.04 216.71 C8.35 216.71, 0 208.37, 0 191.68 M25.04 216.71 C8.35 216.71, 0 208.37, 0 191.68 M0 191.68 C0 152.88, 0 114.08, 0 25.04 M0 191.68 C0 154.04, 0 116.41, 0 25.04 M0 25.04 C0 8.35, 8.35 0, 25.04 0 M0 25.04 C0 8.35, 8.35 0, 25.04 0" stroke="#1e1e1e" stroke-width="2" fill="none"></path></g><g mask="url(#mask-C37lhpVKeae9hy--M-ZW9)" stroke-linecap="round"><g transform="translate(1342.857142857143 211.65713936941947) rotate(0 78.57142857142856 1.1946520503843487)"><path d="M0 0 C26.19 0.4, 130.95 1.99, 157.14 2.39" stroke="#1e1e1e" stroke-width="2.5" fill="none" stroke-dasharray="8 10"></path></g><g transform="translate(1342.857142857143 211.65713936941947) rotate(0 78.57142857142856 1.1946520503843487)"><path d="M128.8 12.22 C139.4 8.54, 149.99 4.87, 157.14 2.39" stroke="#1e1e1e" stroke-width="2.5" fill="none"></path></g><g transform="translate(1342.857142857143 211.65713936941947) rotate(0 78.57142857142856 1.1946520503843487)"><path d="M129.11 -8.3 C139.59 -4.3, 150.07 -0.31, 157.14 2.39" stroke="#1e1e1e" stroke-width="2.5" fill="none"></path></g></g><mask id="mask-C37lhpVKeae9hy--M-ZW9"><rect x="0" y="0" fill="#fff" width="1600" height="314.04644347018814"></rect><rect x="1379.1593415396555" y="200.35179141980382" fill="#000" width="84.53845977783203" height="25" opacity="1"></rect></mask><g transform="translate(1379.159341539655 200.35179141980382) rotate(0 42.26922988891613 12.500000000000028)"><text x="42.269229888916016" y="0" font-family="Virgil, Segoe UI Emoji" font-size="20px" fill="#1e1e1e" text-anchor="middle" style="white-space: pre;" direction="ltr" dominant-baseline="text-before-edge">compress</text></g><g stroke-linecap="round" transform="translate(1514.2857142857142 181.51428222656236) rotate(0 40 23)"><path d="M11.5 0 C24.38 0, 37.26 0, 68.5 0 M11.5 0 C24.15 0, 36.8 0, 68.5 0 M68.5 0 C76.17 0, 80 3.83, 80 11.5 M68.5 0 C76.17 0, 80 3.83, 80 11.5 M80 11.5 C80 16.54, 80 21.57, 80 34.5 M80 11.5 C80 17.25, 80 23.01, 80 34.5 M80 34.5 C80 42.17, 76.17 46, 68.5 46 M80 34.5 C80 42.17, 76.17 46, 68.5 46 M68.5 46 C47.99 46, 27.48 46, 11.5 46 M68.5 46 C47.16 46, 25.82 46, 11.5 46 M11.5 46 C3.83 46, 0 42.17, 0 34.5 M11.5 46 C3.83 46, 0 42.17, 0 34.5 M0 34.5 C0 29.53, 0 24.57, 0 11.5 M0 34.5 C0 28.21, 0 21.92, 0 11.5 M0 11.5 C0 3.83, 3.83 0, 11.5 0 M0 11.5 C0 3.83, 3.83 0, 11.5 0" stroke="#1e1e1e" stroke-width="2" fill="none"></path></g><g transform="translate(1529.8818675449916 194.51428222656236) rotate(0 24.403846740722656 10)"><text x="24.403846740722656" y="0" font-family="Virgil, Segoe UI Emoji" font-size="16px" fill="#1e1e1e" text-anchor="middle" style="white-space: pre;" direction="ltr" dominant-baseline="text-before-edge">seg_m</text></g><g transform="translate(1544.6648353849134 242.01428222656236) rotate(0 8.192307472229004 12.5)"><text x="0" y="0" font-family="Virgil, Segoe UI Emoji" font-size="20px" fill="#1e1e1e" text-anchor="start" style="white-space: pre;" direction="ltr" dominant-baseline="text-before-edge">...</text></g><g stroke-linecap="round" transform="translate(1517.142857142857 265.7999965122767) rotate(0 40 23)"><path d="M11.5 0 C31.77 0, 52.03 0, 68.5 0 M11.5 0 C29.82 0, 48.14 0, 68.5 0 M68.5 0 C76.17 0, 80 3.83, 80 11.5 M68.5 0 C76.17 0, 80 3.83, 80 11.5 M80 11.5 C80 19.1, 80 26.71, 80 34.5 M80 11.5 C80 19.27, 80 27.03, 80 34.5 M80 34.5 C80 42.17, 76.17 46, 68.5 46 M80 34.5 C80 42.17, 76.17 46, 68.5 46 M68.5 46 C49.95 46, 31.39 46, 11.5 46 M68.5 46 C45.91 46, 23.33 46, 11.5 46 M11.5 46 C3.83 46, 0 42.17, 0 34.5 M11.5 46 C3.83 46, 0 42.17, 0 34.5 M0 34.5 C0 26.46, 0 18.42, 0 11.5 M0 34.5 C0 29.01, 0 23.52, 0 11.5 M0 11.5 C0 3.83, 3.83 0, 11.5 0 M0 11.5 C0 3.83, 3.83 0, 11.5 0" stroke="#1e1e1e" stroke-width="2" fill="none"></path></g><g transform="translate(1532.2967038835798 278.7999965122767) rotate(0 24.846153259277344 10)"><text x="24.846153259277344" y="0" font-family="Virgil, Segoe UI Emoji" font-size="16px" fill="#1e1e1e" text-anchor="middle" style="white-space: pre;" direction="ltr" dominant-baseline="text-before-edge">seg_0</text></g><g transform="translate(1530.0659337724956 83.08571079799091) rotate(0 26.038461685180664 10)"><text x="0" y="0" font-family="Virgil, Segoe UI Emoji" font-size="16px" fill="#1e1e1e" text-anchor="start" style="white-space: pre;" direction="ltr" dominant-baseline="text-before-edge">extent</text></g><g transform="translate(1034.3324176924568 123.44285365513375) rotate(0 6.788461685180664 12.5)"><text x="0" y="0" font-family="Virgil, Segoe UI Emoji" font-size="20px" fill="#f08c00" text-anchor="start" style="white-space: pre;" direction="ltr" dominant-baseline="text-before-edge">3</text></g><g mask="url(#mask-U2mcKF_dQ2U4mKUabp0JP)" stroke-linecap="round"><g transform="translate(1595.2857142857144 287.3802422121079) rotate(0 127.35714285714289 0.017028780694204215)"><path d="M0 0 C42.45 0.01, 212.26 0.03, 254.71 0.03" stroke="#1e1e1e" stroke-width="2.5" fill="none" stroke-dasharray="8 10"></path></g><g transform="translate(1595.2857142857144 287.3802422121079) rotate(0 127.35714285714289 0.017028780694204215)"><path d="M226.52 10.29 C233.9 7.61, 241.27 4.93, 254.71 0.03" stroke="#1e1e1e" stroke-width="2.5" fill="none"></path></g><g transform="translate(1595.2857142857144 287.3802422121079) rotate(0 127.35714285714289 0.017028780694204215)"><path d="M226.52 -10.23 C233.9 -7.55, 241.27 -4.86, 254.71 0.03" stroke="#1e1e1e" stroke-width="2.5" fill="none"></path></g></g><mask id="mask-U2mcKF_dQ2U4mKUabp0JP"><rect x="0" y="0" fill="#fff" width="1950.0000000000002" height="387.4142997734963"></rect><rect x="1649.54670388358" y="274.897270992802" fill="#000" width="146.1923065185547" height="25" opacity="1"></rect></mask><g transform="translate(1649.54670388358 274.8972709928021) rotate(0 73.09615325927734 12.5)"><text x="73.09615325927734" y="0" font-family="Virgil, Segoe UI Emoji" font-size="20px" fill="#1e1e1e" text-anchor="middle" style="white-space: pre;" direction="ltr" dominant-baseline="text-before-edge">submit segment</text></g><g stroke-linecap="round" transform="translate(1877.2857142857142 191.58571079799108) rotate(0 80.57142857142867 73.64285714285711)"><path d="M32 0 C63.61 0, 95.23 0, 129.14 0 M129.14 0 C150.48 0, 161.14 10.67, 161.14 32 M161.14 32 C161.14 54.55, 161.14 77.1, 161.14 115.29 M161.14 115.29 C161.14 136.62, 150.48 147.29, 129.14 147.29 M129.14 147.29 C103.15 147.29, 77.16 147.29, 32 147.29 M32 147.29 C10.67 147.29, 0 136.62, 0 115.29 M0 115.29 C0 82.58, 0 49.88, 0 32 M0 32 C0 10.67, 10.67 0, 32 0" stroke="#1e1e1e" stroke-width="2.5" fill="none" stroke-dasharray="1.5 8"></path></g><g transform="translate(1899.0494493756976 252.7285679408482) rotate(0 58.80769348144531 12.5)"><text x="58.80769348144531" y="0" font-family="Virgil, Segoe UI Emoji" font-size="20px" fill="#1e1e1e" text-anchor="middle" style="white-space: pre;" direction="ltr" dominant-baseline="text-before-edge">DA Backend</text></g><g stroke-linecap="round" transform="translate(1400 598.7999965122765) rotate(0 62.14285714285711 66.42857142857144)"><path d="M124.29 66.43 C124.29 69.1, 124.13 71.79, 123.83 74.44 C123.53 77.09, 123.08 79.73, 122.48 82.33 C121.88 84.92, 121.13 87.49, 120.25 89.98 C119.36 92.48, 118.33 94.94, 117.17 97.3 C116.01 99.66, 114.7 101.97, 113.29 104.16 C111.87 106.36, 110.31 108.48, 108.66 110.48 C107 112.48, 105.22 114.38, 103.35 116.15 C101.48 117.92, 99.5 119.58, 97.44 121.1 C95.39 122.61, 93.23 124.01, 91.02 125.25 C88.81 126.49, 86.51 127.59, 84.18 128.54 C81.84 129.49, 79.44 130.29, 77.01 130.93 C74.59 131.57, 72.11 132.05, 69.63 132.37 C67.15 132.69, 64.64 132.86, 62.14 132.86 C59.65 132.86, 57.13 132.69, 54.65 132.37 C52.17 132.05, 49.7 131.57, 47.27 130.93 C44.85 130.29, 42.44 129.49, 40.11 128.54 C37.77 127.59, 35.47 126.49, 33.26 125.25 C31.05 124.01, 28.9 122.61, 26.84 121.1 C24.79 119.58, 22.8 117.92, 20.93 116.15 C19.07 114.38, 17.28 112.48, 15.63 110.48 C13.97 108.48, 12.42 106.36, 11 104.16 C9.58 101.97, 8.28 99.66, 7.12 97.3 C5.96 94.94, 4.92 92.48, 4.04 89.98 C3.15 87.49, 2.4 84.92, 1.81 82.33 C1.21 79.73, 0.75 77.09, 0.45 74.44 C0.15 71.79, 0 69.1, 0 66.43 C0 63.76, 0.15 61.07, 0.45 58.42 C0.75 55.77, 1.21 53.12, 1.81 50.53 C2.4 47.94, 3.15 45.37, 4.04 42.87 C4.92 40.38, 5.96 37.92, 7.12 35.56 C8.28 33.19, 9.58 30.89, 11 28.69 C12.42 26.5, 13.97 24.38, 15.63 22.38 C17.28 20.38, 19.07 18.48, 20.93 16.71 C22.8 14.94, 24.79 13.28, 26.84 11.76 C28.9 10.24, 31.05 8.85, 33.26 7.61 C35.47 6.37, 37.77 5.26, 40.11 4.32 C42.44 3.37, 44.85 2.57, 47.27 1.93 C49.7 1.29, 52.17 0.81, 54.65 0.48 C57.13 0.16, 59.65 0, 62.14 0 C64.64 0, 67.15 0.16, 69.63 0.48 C72.11 0.81, 74.59 1.29, 77.01 1.93 C79.44 2.57, 81.84 3.37, 84.18 4.32 C86.51 5.26, 88.81 6.37, 91.02 7.61 C93.23 8.85, 95.39 10.24, 97.44 11.76 C99.5 13.28, 101.48 14.94, 103.35 16.71 C105.22 18.48, 107 20.38, 108.66 22.38 C110.31 24.38, 111.87 26.5, 113.29 28.69 C114.7 30.89, 116.01 33.19, 117.17 35.56 C118.33 37.92, 119.36 40.38, 120.25 42.87 C121.13 45.37, 121.88 47.94, 122.48 50.53 C123.08 53.12, 123.53 55.77, 123.83 58.42 C124.13 61.07, 124.29 63.76, 124.29 66.43" stroke="#1e1e1e" stroke-width="2.5" fill="none" stroke-dasharray="8 10"></path></g><g transform="translate(1428.3358383066427 652.7564746191701) rotate(0 33.86538314819336 12.5)"><text x="33.86538314819336" y="0" font-family="Virgil, Segoe UI Emoji" font-size="20px" fill="#1e1e1e" text-anchor="middle" style="white-space: pre;" direction="ltr" dominant-baseline="text-before-edge">verifier</text></g><g mask="url(#mask-1l8MQGDebDngDJGxJS47P)" stroke-linecap="round"><g transform="translate(1231.3182443131423 416.27180389442674) rotate(0 88.18717811315298 93.87909283355981)"><path d="M0 0 C29.4 31.29, 146.98 156.47, 176.37 187.76 M0 0 C29.4 31.29, 146.98 156.47, 176.37 187.76" stroke="#e03131" stroke-width="2" fill="none"></path></g><g transform="translate(1231.3182443131423 416.27180389442674) rotate(0 88.18717811315298 93.87909283355981)"><path d="M149.59 174.24 C156.58 177.76, 163.57 181.29, 176.37 187.76 M149.59 174.24 C155.14 177.04, 160.69 179.84, 176.37 187.76" stroke="#e03131" stroke-width="2" fill="none"></path></g><g transform="translate(1231.3182443131423 416.27180389442674) rotate(0 88.18717811315298 93.87909283355981)"><path d="M164.55 160.19 C167.64 167.38, 170.72 174.58, 176.37 187.76 M164.55 160.19 C167 165.9, 169.45 171.61, 176.37 187.76" stroke="#e03131" stroke-width="2" fill="none"></path></g></g><mask id="mask-1l8MQGDebDngDJGxJS47P"><rect x="0" y="0" fill="#fff" width="1507.6926005394482" height="704.0299895615464"></rect><rect x="1265.0054224262951" y="497.6508967279866" fill="#000" width="109" height="25" opacity="1"></rect></mask><g transform="translate(1265.0054224262951 497.6508967279865) rotate(0 54.500000000000114 12.499999999999943)"><text x="54.5" y="0" font-family="Virgil, Segoe UI Emoji" font-size="20px" fill="#e03131" text-anchor="middle" style="white-space: pre;" direction="ltr" dominant-baseline="text-before-edge">pull stream</text></g><g mask="url(#mask-vSpOuHdGEUyklqYybhSmB)" stroke-linecap="round"><g transform="translate(1281.864801186275 342.06376082157396) rotate(0 92.47289239886732 116.73623569070264)"><path d="M0 0 C30.82 38.91, 154.12 194.56, 184.95 233.47 M0 0 C30.82 38.91, 154.12 194.56, 184.95 233.47" stroke="#1e1e1e" stroke-width="2" fill="none"></path></g><g transform="translate(1281.864801186275 342.06376082157396) rotate(0 92.47289239886732 116.73623569070264)"><path d="M159.4 217.75 C168.6 223.41, 177.81 229.08, 184.95 233.47 M159.4 217.75 C168.61 223.42, 177.82 229.09, 184.95 233.47" stroke="#1e1e1e" stroke-width="2" fill="none"></path></g><g transform="translate(1281.864801186275 342.06376082157396) rotate(0 92.47289239886732 116.73623569070264)"><path d="M175.48 205 C178.89 215.26, 182.3 225.52, 184.95 233.47 M175.48 205 C178.9 215.27, 182.31 225.54, 184.95 233.47" stroke="#1e1e1e" stroke-width="2" fill="none"></path></g></g><mask id="mask-vSpOuHdGEUyklqYybhSmB"><rect x="0" y="0" fill="#fff" width="1566.8105859840095" height="675.5362322029792"></rect><rect x="1326.0107702147807" y="446.2999965122766" fill="#000" width="96.65384674072266" height="25" opacity="1"></rect></mask><g transform="translate(1326.0107702147811 446.2999965122766) rotate(0 48.32692337036133 12.5)"><text x="48.32692337036133" y="0" font-family="Virgil, Segoe UI Emoji" font-size="20px" fill="#1e1e1e" text-anchor="middle" style="white-space: pre;" direction="ltr" dominant-baseline="text-before-edge">get batch</text></g><g mask="url(#mask-mMNwA7wMUvnUBvXEbSHCs)" stroke-linecap="round"><g transform="translate(1868.962239443785 339.2019608943855) rotate(0 -177.5343498044997 126.02709103122697)"><path d="M0 0 C-59.18 42.01, -295.89 210.05, -355.07 252.05 M0 0 C-59.18 42.01, -295.89 210.05, -355.07 252.05" stroke="#1e1e1e" stroke-width="2" fill="none"></path></g><g transform="translate(1868.962239443785 339.2019608943855) rotate(0 -177.5343498044997 126.02709103122697)"><path d="M-338.02 227.37 C-342.27 233.52, -346.52 239.67, -355.07 252.05 M-338.02 227.37 C-342.08 233.25, -346.14 239.13, -355.07 252.05" stroke="#1e1e1e" stroke-width="2" fill="none"></path></g><g transform="translate(1868.962239443785 339.2019608943855) rotate(0 -177.5343498044997 126.02709103122697)"><path d="M-326.14 244.1 C-333.35 246.08, -340.56 248.07, -355.07 252.05 M-326.14 244.1 C-333.03 246, -339.92 247.89, -355.07 252.05" stroke="#1e1e1e" stroke-width="2" fill="none"></path></g></g><mask id="mask-mMNwA7wMUvnUBvXEbSHCs"><rect x="0" y="0" fill="#fff" width="2324.0309390527846" height="691.2561429568394"></rect><rect x="1632.4855831207306" y="452.72905192561245" fill="#000" width="117.88461303710938" height="25" opacity="1"></rect></mask><g transform="translate(1632.4855831207306 452.72905192561257) rotate(0 58.94230651855469 12.5)"><text x="58.94230651855469" y="0" font-family="Virgil, Segoe UI Emoji" font-size="20px" fill="#1e1e1e" text-anchor="middle" style="white-space: pre;" direction="ltr" dominant-baseline="text-before-edge">get segment</text></g><g transform="translate(1232.1868131501337 502.0142822265624) rotate(0 6.384615421295166 12.5)"><text x="0" y="0" font-family="Virgil, Segoe UI Emoji" font-size="20px" fill="#f08c00" text-anchor="start" style="white-space: pre;" direction="ltr" dominant-baseline="text-before-edge">4</text></g><g mask="url(#mask-SdXRE__UKiF1Q57pvzE8L)" stroke-linecap="round"><g transform="translate(227.1428571428571 185.94285365513375) rotate(0 198.57142857142856 0.7142857142857224)"><path d="M0 0 C14.29 0.24, 19.52 1.43, 85.71 1.43 C151.9 1.43, 345.24 0.24, 397.14 0 M0 0 C14.29 0.24, 19.52 1.43, 85.71 1.43 C151.9 1.43, 345.24 0.24, 397.14 0" stroke="#e03131" stroke-width="2" fill="none"></path></g><g transform="translate(227.1428571428571 185.94285365513375) rotate(0 198.57142857142856 0.7142857142857224)"><path d="M369.01 10.41 C379.61 6.49, 390.2 2.57, 397.14 0 M369.01 10.41 C374.88 8.24, 380.76 6.06, 397.14 0" stroke="#e03131" stroke-width="2" fill="none"></path></g><g transform="translate(227.1428571428571 185.94285365513375) rotate(0 198.57142857142856 0.7142857142857224)"><path d="M368.9 -10.11 C379.54 -6.3, 390.18 -2.49, 397.14 0 M368.9 -10.11 C374.8 -8, 380.7 -5.89, 397.14 0" stroke="#e03131" stroke-width="2" fill="none"></path></g></g><mask id="mask-SdXRE__UKiF1Q57pvzE8L"><rect x="0" y="0" fill="#fff" width="724.2857142857142" height="287.37142508370516"></rect><rect x="266.4148363385882" y="174.87142508370522" fill="#000" width="92.88461303710938" height="25" opacity="1"></rect></mask><g transform="translate(266.4148363385882 174.87142508370522) rotate(0 159.29944937569746 11.785714285714278)"><text x="46.44230651855469" y="0" font-family="Virgil, Segoe UI Emoji" font-size="20px" fill="#e03131" text-anchor="middle" style="white-space: pre;" direction="ltr" dominant-baseline="text-before-edge">submit tx</text></g><g transform="translate(455.7609891210284 154.87142508370513) rotate(0 7.096153736114502 12.5)"><text x="0" y="0" font-family="Virgil, Segoe UI Emoji" font-size="20px" fill="#f08c00" text-anchor="start" style="white-space: pre;" direction="ltr" dominant-baseline="text-before-edge">2</text></g><g transform="translate(481.42857142857133 157.37142508370525) rotate(0 46.346153259277344 12.5)"><text x="0" y="0" font-family="Virgil, Segoe UI Emoji" font-size="20px" fill="#1e1e1e" text-anchor="start" style="white-space: pre;" direction="ltr" dominant-baseline="text-before-edge">buffer tx</text></g><g mask="url(#mask-tp6APFhZczcdOXamMj0u1)" stroke-linecap="round"><g transform="translate(864.8785574776787 941.9985868856701) rotate(0 257.9660759544506 -127.02786661526818)"><path d="M0 0 C58.71 -26.96, 266.28 -119.43, 352.26 -161.77 C438.25 -204.11, 488.65 -238.67, 515.93 -254.06 M0 0 C58.71 -26.96, 266.28 -119.43, 352.26 -161.77 C438.25 -204.11, 488.65 -238.67, 515.93 -254.06" stroke="#1e1e1e" stroke-width="2" fill="none"></path></g><g transform="translate(864.8785574776787 941.9985868856701) rotate(0 257.9660759544506 -127.02786661526818)"><path d="M497.06 -230.74 C501.86 -236.67, 506.66 -242.6, 515.93 -254.06 M497.06 -230.74 C501.48 -236.2, 505.9 -241.66, 515.93 -254.06" stroke="#1e1e1e" stroke-width="2" fill="none"></path></g><g transform="translate(864.8785574776787 941.9985868856701) rotate(0 257.9660759544506 -127.02786661526818)"><path d="M486.48 -248.33 C493.98 -249.78, 501.47 -251.24, 515.93 -254.06 M486.48 -248.33 C493.38 -249.67, 500.27 -251.01, 515.93 -254.06" stroke="#1e1e1e" stroke-width="2" fill="none"></path></g></g><mask id="mask-tp6APFhZczcdOXamMj0u1"><rect x="0" y="0" fill="#fff" width="1480.81070938658" height="1296.0543201162063"></rect><rect x="1139.7967038835798" y="767.7285679408478" fill="#000" width="154.6923065185547" height="25" opacity="1"></rect></mask><g transform="translate(1139.79670388358 767.7285679408477) rotate(0 -16.95207045145048 47.242152329554074)"><text x="77.34615325927734" y="0" font-family="Virgil, Segoe UI Emoji" font-size="20px" fill="#1e1e1e" text-anchor="middle" style="white-space: pre;" direction="ltr" dominant-baseline="text-before-edge">get batch meta</text></g><g transform="translate(21.917581830706126 767.7285679408478) rotate(0 23.653846740722656 22.5)"><text x="0" y="0" font-family="Virgil, Segoe UI Emoji" font-size="36px" fill="#1e1e1e" text-anchor="start" style="white-space: pre;" direction="ltr" dominant-baseline="text-before-edge">L2</text></g><g transform="translate(22.06043897356318 850.5857107979907) rotate(0 15.692307472229004 22.5)"><text x="0" y="0" font-family="Virgil, Segoe UI Emoji" font-size="36px" fill="#1e1e1e" text-anchor="start" style="white-space: pre;" direction="ltr" dominant-baseline="text-before-edge">L1</text></g><g transform="translate(133.42860630580407 465.7999877929684) rotate(0 103.28845977783203 35)"><text x="0" y="0" font-family="Virgil, Segoe UI Emoji" font-size="28px" fill="#1e1e1e" text-anchor="start" style="white-space: pre;" direction="ltr" dominant-baseline="text-before-edge">        : Sync </text><text x="0" y="35" font-family="Virgil, Segoe UI Emoji" font-size="28px" fill="#1e1e1e" text-anchor="start" style="white-space: pre;" direction="ltr" dominant-baseline="text-before-edge">        : Async</text></g><g stroke-linecap="round"><g transform="translate(132.85714285714295 485.9428536551336) rotate(0 25.714285714285694 5.684341886080802e-14)"><path d="M0 0 C8.57 0, 42.86 0, 51.43 0 M0 0 C8.57 0, 42.86 0, 51.43 0" stroke="#1e1e1e" stroke-width="2" fill="none"></path></g></g><mask></mask><g stroke-linecap="round"><g transform="translate(135.7142857142858 521.6571393694189) rotate(0 25.714285714285694 5.684341886080802e-14)"><path d="M0 0 C8.57 0, 42.86 0, 51.43 0" stroke="#1e1e1e" stroke-width="2.5" fill="none" stroke-dasharray="8 10"></path></g></g><mask></mask></svg>