 <svg
  width="20"
  height="20"
  viewBox="0 0 20 20"
  fill="none"
  xmlns="http://www.w3.org/2000/svg"
>
  <path
    fill-rule="evenodd"
    clip-rule="evenodd"
    d="M1.04169 9.99999C1.04169 14.9475 5.05247 18.9583 10 18.9583C14.9476 18.9583 18.9584 14.9475 18.9584 9.99999C18.9584 5.05244 14.9476 1.04166 10 1.04166C5.05247 1.04166 1.04169 5.05244 1.04169 9.99999ZM13.8965 6.8857C14.2357 7.19669 14.2586 7.72383 13.9476 8.0631L9.36432 13.0631C9.21073 13.2306 8.99536 13.3282 8.76812 13.3331C8.54088 13.3381 8.32149 13.25 8.16077 13.0892L6.07743 11.0059C5.75199 10.6805 5.75199 10.1528 6.07743 9.82741C6.40287 9.50197 6.93051 9.50197 7.25594 9.82741L8.72384 11.2953L12.7191 6.93689C13.0301 6.59763 13.5572 6.57471 13.8965 6.8857Z"
    fill="#40C4AA"
  ></path>
</svg>
