<svg width="453" height="136" viewBox="0 0 453 136" fill="none" xmlns="http://www.w3.org/2000/svg">
<path fill-rule="evenodd" clip-rule="evenodd" d="M0 31.2282V12.35L28.3398 37.5L28.3454 0H41.7221L41.7461 37.5L69.9492 12.3665L69.9491 31.2282L36.8554 61.233H70V74.8389H36.9346L70 104.607V123.438L41.7461 98.4688L41.7219 136H28.3452L28.3398 98.4688L0 123.619V104.772L33.1326 74.8389H0V61.233H33.2121L0 31.2282ZM394.315 29.375V106.625H408.065V76.925C408.065 72.965 408.725 69.7017 410.045 67.135C411.438 64.495 413.381 62.515 415.875 61.195C418.368 59.875 421.228 59.215 424.455 59.215C428.855 59.215 432.265 60.4983 434.685 63.065C437.178 65.6317 438.425 69.5183 438.425 74.725V106.625H452.175V72.965C452.175 67.025 451.111 62.185 448.985 58.445C446.858 54.6317 443.925 51.8083 440.185 49.975C436.518 48.1417 432.338 47.225 427.645 47.225C422.511 47.225 417.965 48.2517 414.005 50.305C411.703 51.4774 409.723 52.9583 408.065 54.7478V29.375H394.315ZM110 106.625V29.625H141.68C148.5 29.625 154.33 30.725 159.17 32.925C164.083 35.125 167.86 38.2783 170.5 42.385C173.14 46.4917 174.46 51.3683 174.46 57.015C174.46 62.6617 173.14 67.5383 170.5 71.645C167.86 75.6783 164.083 78.795 159.17 80.995C158.827 81.1459 158.478 81.2914 158.125 81.4316L175.78 106.625H160.38L144.692 84.1127C143.711 84.1609 142.707 84.185 141.68 84.185H124.3V106.625H110ZM124.3 72.905L141.02 72.415C147.327 72.415 152.057 71.0583 155.21 68.345C158.437 65.6317 160.05 61.855 160.05 57.015C160.05 52.1017 158.437 48.325 155.21 45.685C152.057 43.045 147.327 41.725 141.02 41.725H124.3V72.905ZM199.479 102.545C204.172 105.112 209.526 106.395 215.539 106.395C221.626 106.395 227.016 105.112 231.709 102.545C236.476 99.905 240.179 96.3117 242.819 91.765C245.532 87.2183 246.889 82.0483 246.889 76.255C246.889 70.315 245.532 65.1083 242.819 60.635C240.179 56.1617 236.476 52.6417 231.709 50.075C227.016 47.5083 221.626 46.225 215.539 46.225C209.526 46.225 204.172 47.5083 199.479 50.075C194.786 52.6417 191.082 56.1983 188.369 60.745C185.656 65.2183 184.299 70.3883 184.299 76.255C184.299 82.0483 185.656 87.2183 188.369 91.765C191.082 96.3117 194.786 99.905 199.479 102.545ZM224.559 92.425C221.919 93.8917 218.912 94.625 215.539 94.625C212.239 94.625 209.269 93.8917 206.629 92.425C204.062 90.9583 202.009 88.8317 200.469 86.045C198.929 83.2583 198.159 79.995 198.159 76.255C198.159 72.4417 198.929 69.1783 200.469 66.465C202.009 63.6783 204.062 61.5517 206.629 60.085C209.269 58.6183 212.276 57.885 215.649 57.885C218.949 57.885 221.919 58.6183 224.559 60.085C227.199 61.5517 229.252 63.6783 230.719 66.465C232.259 69.1783 233.029 72.4417 233.029 76.255C233.029 79.995 232.259 83.2583 230.719 86.045C229.252 88.8317 227.199 90.9583 224.559 92.425ZM270.377 102.545C275.071 105.112 280.424 106.395 286.437 106.395C292.524 106.395 297.914 105.112 302.607 102.545C307.374 99.905 311.077 96.3117 313.717 91.765C316.431 87.2183 317.787 82.0483 317.787 76.255C317.787 70.315 316.431 65.1083 313.717 60.635C311.077 56.1617 307.374 52.6417 302.607 50.075C297.914 47.5083 292.524 46.225 286.437 46.225C280.424 46.225 275.071 47.5083 270.377 50.075C265.684 52.6417 261.981 56.1983 259.267 60.745C256.554 65.2183 255.197 70.3883 255.197 76.255C255.197 82.0483 256.554 87.2183 259.267 91.765C261.981 96.3117 265.684 99.905 270.377 102.545ZM295.457 92.425C292.817 93.8917 289.811 94.625 286.437 94.625C283.137 94.625 280.167 93.8917 277.527 92.425C274.961 90.9583 272.907 88.8317 271.367 86.045C269.827 83.2583 269.057 79.995 269.057 76.255C269.057 72.4417 269.827 69.1783 271.367 66.465C272.907 63.6783 274.961 61.5517 277.527 60.085C280.167 58.6183 283.174 57.885 286.547 57.885C289.847 57.885 292.817 58.6183 295.457 60.085C298.097 61.5517 300.151 63.6783 301.617 66.465C303.157 69.1783 303.927 72.4417 303.927 76.255C303.927 79.995 303.157 83.2583 301.617 86.045C300.151 88.8317 298.097 90.9583 295.457 92.425ZM341.386 102.545C346.226 105.112 351.726 106.395 357.886 106.395C363.606 106.395 368.629 105.222 372.956 102.875C377.356 100.455 380.693 97.045 382.966 92.645L372.406 86.485C370.646 89.2717 368.483 91.325 365.916 92.645C363.423 93.965 360.709 94.625 357.776 94.625C354.403 94.625 351.359 93.8917 348.646 92.425C345.933 90.9583 343.806 88.8683 342.266 86.155C340.726 83.3683 339.956 80.0683 339.956 76.255C339.956 72.4417 340.726 69.1783 342.266 66.465C343.806 63.6783 345.933 61.5517 348.646 60.085C351.359 58.6183 354.403 57.885 357.776 57.885C360.709 57.885 363.423 58.545 365.916 59.865C368.483 61.185 370.646 63.2383 372.406 66.025L382.966 59.865C380.693 55.3917 377.356 52.0183 372.956 49.745C368.629 47.3983 363.606 46.225 357.886 46.225C351.726 46.225 346.226 47.5083 341.386 50.075C336.619 52.6417 332.879 56.1983 330.166 60.745C327.453 65.2183 326.096 70.3883 326.096 76.255C326.096 82.0483 327.453 87.2183 330.166 91.765C332.879 96.3117 336.619 99.905 341.386 102.545Z" fill="#1C1A1A"/>
</svg>
