<svg width="126" height="44" viewBox="0 0 126 44" fill="none" xmlns="http://www.w3.org/2000/svg">
<path d="M45.1192 18.6694C45.5313 17.5176 45.8884 16.5273 46.2401 15.5369C46.7401 14.128 47.2566 12.7218 47.7209 11.302C48.1275 10.0627 47.8363 9.63317 46.5698 9.45535C46.2813 9.41432 45.9241 9.45535 45.9516 9.00942C45.9818 8.55255 46.3527 8.65651 46.6302 8.65378C47.9104 8.64557 49.1907 8.6483 50.4709 8.65104C50.7236 8.65104 51.0011 8.62915 51.0561 8.97112C51.1083 9.29121 50.9077 9.43073 50.6275 9.46903C49.9022 9.57299 49.6137 10.1229 49.3967 10.7056C47.6604 15.381 45.9489 20.0646 44.2043 24.74C43.6659 26.1817 43.2648 27.6864 42.4708 29.0214C41.4818 30.6875 40.0862 31.7599 38.0312 31.7052C37.2537 31.6833 36.5614 31.3988 35.9708 30.8927C35.2702 30.2936 35.0834 28.6986 35.5971 27.7931C36.0861 26.9313 37.2922 26.5182 38.2949 26.8684C39.1136 27.1529 39.5395 27.8752 39.3994 28.9695C39.3307 29.5139 39.5642 29.596 39.9845 29.6178C40.5312 29.6479 40.9571 29.44 41.2812 29.0023C42.012 28.0174 42.4571 26.9094 42.7098 25.7194C42.8719 24.9561 42.5038 24.3023 42.2483 23.6265C40.6301 19.3424 39.0065 15.0609 37.3911 10.7767C37.1493 10.1338 36.8471 9.56752 36.0724 9.45809C36.0065 9.44988 35.9158 9.41979 35.8911 9.37328C35.3389 8.28718 34.5559 9.03131 33.913 9.17904C33.152 9.35413 32.5476 9.89034 31.9817 10.4293C31.0421 11.3239 30.1273 12.2458 29.163 13.1131C28.7536 13.4824 28.7344 13.745 29.0504 14.1882C31.0586 17.0006 33.0312 19.8348 35.0312 22.6526C35.4845 23.2928 35.7565 24.0807 36.5284 24.4692C36.7372 24.5758 36.7098 24.8221 36.6768 25.0245C36.6356 25.2762 36.4543 25.3364 36.2235 25.3364C33.6411 25.3364 31.0586 25.3337 28.4734 25.3364C28.2179 25.3364 28.0146 25.2899 28.0146 24.978C28.0146 24.7236 27.9927 24.4582 28.3635 24.4336C28.5971 24.4172 28.8031 24.3269 29.0036 24.2065C29.663 23.8153 29.7619 23.446 29.3306 22.814C28.152 21.0878 26.9679 19.3642 25.7701 17.6517C25.6135 17.4273 25.5146 16.9923 25.163 17.1155C24.814 17.2386 24.5228 17.5477 24.4239 17.9526C24.402 18.0401 24.4047 18.1332 24.4047 18.2234C24.4047 19.6789 24.3827 21.1315 24.4157 22.587C24.4432 23.8399 24.6107 24.0506 25.7674 24.4445C26.0366 24.5375 26.0393 24.7126 26.0448 24.9151C26.0503 25.1394 25.9899 25.3254 25.7124 25.3309C25.575 25.3337 25.4377 25.3391 25.3003 25.3391C22.9926 25.3391 20.6821 25.3419 18.3744 25.3364C18.075 25.3364 17.6958 25.4486 17.6409 24.9561C17.5915 24.5047 17.8854 24.4664 18.2288 24.4008C18.7865 24.2941 19.0777 23.8864 19.1601 23.353C19.2151 22.9946 19.2123 22.628 19.2123 22.2641C19.2151 15.9008 19.2123 9.54016 19.2123 3.1768C19.2123 2.97162 19.2123 2.76644 19.2014 2.56399C19.1547 1.60374 18.9623 1.31376 18.0283 1.06207C17.6601 0.963579 17.6134 0.780284 17.6327 0.482087C17.6574 0.145589 17.8744 0.0936102 18.1574 0.0936102C20.0558 0.0990817 21.9514 0.107289 23.8498 0.0908744C24.4761 0.0854029 24.3965 0.495766 24.3992 0.876035C24.3992 5.442 24.3965 10.0107 24.4102 14.5767C24.4102 14.9132 24.1987 15.4083 24.5915 15.5533C24.9047 15.6682 25.1163 15.195 25.3525 14.9706C26.586 13.7915 27.8086 12.596 29.0339 11.4059C29.4872 10.9655 29.9322 10.4949 29.696 9.80553C29.4762 9.16536 28.8553 9.01216 28.2784 8.87537C27.9707 8.80424 27.6987 8.80698 27.7454 8.36652C27.7948 7.88503 28.1465 8.01087 28.413 8.01087C30.5614 8.00267 32.7097 8.0054 34.8581 8.00814C35.2152 8.00814 35.5999 7.93154 35.6548 8.48963C35.6823 8.78236 35.9845 8.65104 36.1713 8.65104C38.5257 8.65651 40.8801 8.65104 43.2346 8.65104C43.3939 8.65104 43.556 8.65651 43.7153 8.65104C43.9681 8.64557 44.1741 8.69755 44.1989 9.00122C44.2208 9.29394 44.0478 9.38148 43.7923 9.44167C42.1329 9.81921 41.9818 9.99977 42.5203 11.6385C43.2428 13.8353 44.067 15.9965 44.8527 18.1715C44.8939 18.2891 44.9681 18.3958 45.1164 18.6748L45.1192 18.6694Z" fill="black"/>
<path d="M63.8225 15.8514C63.8225 15.3891 63.8308 14.9568 63.8225 14.5246C63.8033 13.7804 63.7319 13.7394 63.1082 14.1279C61.8307 14.9185 60.4599 15.2988 58.9434 15.1948C55.1686 14.9377 51.1795 11.2635 53.6906 6.1258C56.24 0.911462 63.2456 0.408084 66.8253 5.14093C68.5643 7.43896 69.1962 10.0625 69.1577 12.8749C69.1083 16.5545 68.0314 19.8347 65.2593 22.4281C62.7676 24.7645 59.4928 25.339 56.6109 23.9191C55.99 23.6127 55.4406 23.2133 55.001 22.6771C54.4131 21.9603 54.1439 21.1697 54.5367 20.2778C54.9296 19.3833 55.6906 18.9428 56.6219 18.8224C57.534 18.7048 58.4241 18.8033 59.0395 19.6021C59.8335 20.6308 59.4434 21.9932 58.2153 22.6169C57.9873 22.7318 57.5889 22.7564 57.6411 23.0957C57.6961 23.4486 58.0862 23.4212 58.3719 23.4677C60.8252 23.8617 62.7758 22.5047 63.3527 20.0043C63.4406 19.6295 63.5478 19.2547 63.5945 18.8744C63.7236 17.8622 63.8912 16.8499 63.8225 15.8541V15.8514ZM63.8527 9.03938C63.8582 7.08058 63.6742 5.47196 62.6632 4.07399C62.045 3.22317 61.2483 2.73894 60.1439 2.9113C59.0697 3.07818 58.523 3.83598 58.2401 4.74972C57.523 7.06417 57.5313 9.40597 58.262 11.7204C58.6906 13.0773 59.6357 13.8844 60.6824 13.9145C61.8692 13.9473 62.872 13.1731 63.4132 11.8162C63.8088 10.8231 63.8665 9.78624 63.8527 9.03938Z" fill="black"/>
<path d="M0.673731 21.6816C0.673731 20.4998 0.673731 19.318 0.673731 18.1361C0.673731 17.8954 0.616039 17.6191 1.0034 17.5835C1.32484 17.5534 1.51989 17.6437 1.60506 17.9747C1.72594 18.4343 1.87429 18.8884 2.0144 19.3426C2.73694 21.7035 4.15453 23.5146 6.47324 24.4557C8.03094 25.0877 9.6381 24.8962 11.0887 24.0508C13.053 22.9045 13.27 20.1442 11.5337 18.634C10.2672 17.5315 8.72875 16.8613 7.22874 16.1445C5.51444 15.3265 3.82761 14.5058 2.58034 12.9929C-0.529577 9.21209 1.0089 3.65305 5.6573 2.0882C7.50896 1.46444 9.36337 1.82556 11.1848 2.33441C11.8634 2.52592 12.5337 2.75572 13.2123 2.94722C13.7947 3.11137 14.2453 2.94996 14.487 2.35903C14.531 2.25508 14.5969 2.15933 14.6491 2.06084C14.8057 1.77085 15.064 1.7134 15.3497 1.78726C15.6437 1.86113 15.6162 2.1265 15.6162 2.34809C15.6217 4.21114 15.6189 6.07419 15.6189 7.93723C15.6189 8.1643 15.6327 8.3941 15.6162 8.61843C15.5942 8.86739 15.7398 9.20389 15.3387 9.28869C14.9788 9.36256 14.825 9.15191 14.6794 8.84824C14.2261 7.90714 13.7618 6.97151 13.2563 6.06051C12.1244 4.01964 10.4046 2.92534 8.0227 2.96364C6.50071 2.98826 5.42378 3.70229 4.81938 5.09752C4.32212 6.2438 4.64904 7.86337 5.58861 8.82635C6.69027 9.95622 8.14358 10.4569 9.57217 10.9985C11.6628 11.7892 13.6079 12.8041 15.0667 14.566C18.1574 18.2948 16.325 24.0672 11.6519 25.3913C9.38535 26.0342 7.15456 26.0123 4.91004 25.3065C4.193 25.0822 3.44574 24.9591 2.71771 24.7758C2.15177 24.6335 1.76715 24.7977 1.64077 25.3886C1.5611 25.7607 1.38528 25.9439 0.981427 25.8728C0.555598 25.7962 0.68472 25.4679 0.681973 25.2272C0.668237 24.0453 0.676479 22.8635 0.676479 21.6816H0.673731Z" fill="black"/>
<path d="M112.315 27.5688C113.321 27.5688 114.329 27.5442 115.332 27.5797C115.859 27.5989 116.087 27.4457 116.049 26.8903C116.01 26.3021 116.06 25.7085 116.035 25.1176C116.013 24.6142 116.216 24.4446 116.722 24.4473C117.208 24.4473 117.442 24.5731 117.414 25.0984C117.381 25.7112 117.436 26.3268 117.398 26.9368C117.362 27.4785 117.618 27.5797 118.093 27.5743C120.129 27.5578 122.162 27.577 124.197 27.5606C124.692 27.5551 124.95 27.6427 124.936 28.2308C124.923 28.7698 124.697 28.8765 124.228 28.8737C122.467 28.8573 120.706 28.8628 118.947 28.8737C118.689 28.8737 118.351 28.7424 118.186 29.016C118.019 29.295 118.307 29.5249 118.436 29.7437C120.03 32.4439 122.079 34.7365 124.686 36.5065C125.192 36.8485 125.12 37.0509 124.744 37.423C124 38.1561 124.021 38.1671 123.239 37.5105C121.101 35.7186 119.381 33.5902 118.016 31.1718C117.914 30.9912 117.865 30.6465 117.604 30.6985C117.271 30.7641 117.417 31.1143 117.414 31.3387C117.401 32.8625 117.436 34.3835 117.395 35.9074C117.379 36.5338 117.62 36.6898 118.197 36.6624C119.019 36.6241 119.843 36.6788 120.664 36.646C121.173 36.6269 121.346 36.8047 121.348 37.3108C121.348 37.8032 121.156 37.9373 120.695 37.9236C119.826 37.899 118.958 37.9346 118.087 37.9127C117.596 37.9017 117.379 38.0741 117.401 38.5857C117.431 39.3106 117.387 40.0411 117.414 40.7661C117.434 41.2585 117.277 41.45 116.752 41.45C116.214 41.45 116.01 41.2722 116.032 40.7387C116.063 40.0137 116.024 39.2833 116.043 38.5583C116.054 38.0932 115.87 37.9017 115.398 37.9099C114.508 37.9291 113.615 37.9099 112.722 37.9154C112.288 37.9181 111.931 37.9482 111.933 37.3026C111.933 36.6405 112.282 36.6378 112.76 36.646C113.651 36.6624 114.543 36.6351 115.436 36.6542C115.879 36.6624 116.049 36.4928 116.043 36.0551C116.03 34.441 116.041 32.8269 116.035 31.2155C116.035 31.0213 116.109 30.7395 115.87 30.6766C115.629 30.6137 115.563 30.9146 115.472 31.0733C114.01 33.623 112.082 35.7952 109.942 37.7923C109.752 37.9674 109.571 38.3148 109.293 38.1999C108.898 38.0385 108.557 37.7266 108.34 37.3546C108.181 37.081 108.519 36.977 108.675 36.8485C110.271 35.5161 111.738 34.0553 113.046 32.4412C113.791 31.522 114.477 30.559 115.076 29.5385C115.423 28.9503 115.373 28.871 114.67 28.871C112.865 28.8655 111.057 28.8573 109.252 28.8765C108.736 28.882 108.519 28.7506 108.521 28.1871C108.521 27.6372 108.76 27.5524 109.227 27.5633C110.255 27.5879 111.285 27.5715 112.313 27.5715L112.315 27.5688Z" fill="black"/>
<path d="M120.567 11.3703C120.567 12.9598 120.565 14.552 120.567 16.1415C120.57 16.9513 120.848 17.2659 121.57 17.3124C122.867 17.3945 123.37 17.1428 123.507 16.322C123.631 15.5834 123.762 14.8447 123.743 14.0897C123.732 13.6437 123.861 13.5152 124.359 13.6383C125.095 13.8216 125.37 14.1663 125.224 14.9213C125.067 15.7421 125.065 16.5901 124.771 17.389C124.51 18.1003 123.974 18.4778 123.243 18.5872C122.425 18.7104 121.603 18.7076 120.782 18.6119C119.65 18.4805 119.081 17.8322 119.073 16.623C119.059 13.7833 119.04 10.9436 119.084 8.10384C119.095 7.39255 118.875 7.19557 118.197 7.24482C117.425 7.29953 116.642 7.28585 115.867 7.25029C115.32 7.22567 115.117 7.40075 115.07 7.96706C114.944 9.54832 114.883 11.1433 114.433 12.6835C113.658 15.3344 112.007 17.3206 109.707 18.8088C109.328 19.0551 108.743 18.7377 108.394 18.1003C108.155 17.6653 108.617 17.6215 108.815 17.4875C110.883 16.084 112.408 14.2784 113.045 11.8272C113.397 10.4785 113.441 9.08871 113.526 7.70716C113.554 7.25302 113.243 7.26123 112.935 7.26123C111.771 7.26123 110.603 7.23114 109.438 7.26944C108.845 7.28859 108.718 7.05605 108.699 6.51437C108.677 5.91251 108.963 5.85779 109.444 5.86873C110.587 5.89062 111.729 5.84958 112.872 5.88788C113.452 5.90703 113.71 5.76478 113.663 5.13829C113.614 4.45982 113.71 3.77315 113.653 3.09468C113.592 2.3998 113.977 2.40254 114.482 2.38886C114.999 2.37792 115.24 2.49555 115.194 3.0728C115.139 3.77315 115.196 4.48171 115.153 5.1848C115.12 5.70185 115.257 5.90704 115.823 5.89062C117.147 5.84958 118.474 5.90703 119.798 5.866C120.381 5.84685 120.592 5.9809 120.573 6.60739C120.523 8.19686 120.556 9.78633 120.556 11.3785L120.567 11.3703Z" fill="black"/>
<path d="M92.7268 28.9832C92.834 28.6467 93.0235 28.3594 93.2296 28.0722C93.9274 27.1092 94.4878 26.0696 94.7983 24.9178C94.9879 24.2093 95.4164 24.4692 95.8642 24.5731C96.4329 24.7072 96.2241 25.0136 96.1005 25.3391C95.8148 26.0942 95.8258 26.1052 96.6719 26.1052C98.867 26.1052 101.062 26.1188 103.254 26.0942C103.76 26.0887 103.947 26.2283 103.919 26.7453C103.867 27.7521 103.279 28.5318 102.807 29.3388C102.59 29.7081 102.169 29.2485 101.845 29.1528C101.581 29.0734 101.488 28.8901 101.634 28.6275C101.666 28.5673 101.688 28.5044 101.719 28.4415C102.09 27.6846 101.86 27.3052 101.026 27.3034C100.708 27.3034 100.386 27.2952 100.068 27.3034C99.7818 27.3144 99.4247 27.2131 99.2846 27.5633C99.1307 27.9436 99.0538 28.3321 99.356 28.7205C100.329 29.979 101.661 30.6875 103.12 31.2046C103.293 31.2648 103.477 31.3003 103.636 31.3852C103.9 31.5274 104.403 31.3414 104.422 31.76C104.441 32.1703 104.037 32.4576 103.798 32.7831C103.661 32.9692 103.469 32.8406 103.296 32.7831C101.625 32.2278 100.106 31.4262 98.9302 30.0911C98.6088 29.7273 98.411 29.6945 98.0923 30.0911C97.2708 31.1116 96.139 31.7052 94.9659 32.2305C94.6939 32.3509 94.1637 32.3864 94.2268 32.6682C94.3148 33.054 94.8148 32.8488 95.128 32.8515C97.2296 32.8707 99.334 32.8789 101.436 32.8515C102.015 32.8433 102.177 33.0321 102.164 33.5929C102.128 35.0018 102.136 36.4107 102.161 37.8196C102.169 38.3066 102.035 38.5173 101.504 38.5036C101.013 38.4899 100.724 38.3996 100.741 37.8251C100.768 36.8019 100.732 35.7788 100.754 34.7583C100.765 34.2987 100.617 34.11 100.128 34.1127C97.4769 34.1291 94.8258 34.1264 92.1719 34.1127C91.7296 34.1127 91.5647 34.2522 91.5757 34.7009C91.6005 35.7459 91.562 36.791 91.5922 37.8361C91.6059 38.3531 91.4026 38.5063 90.9054 38.4981C90.4274 38.4899 90.1224 38.4215 90.1307 37.8333C90.1581 36.3806 90.1499 34.9252 90.1307 33.4698C90.1252 33.0321 90.279 32.8488 90.7241 32.8597C91.3395 32.8789 91.9576 32.8625 92.5757 32.8597C93.0703 32.857 93.1609 32.6327 92.845 32.2825C92.345 31.7299 92.5977 31.5876 93.1884 31.418C94.3972 31.0678 95.551 30.5781 96.5236 29.7437C97.1252 29.2266 97.5538 28.6056 97.8148 27.8533C97.9439 27.4785 97.9027 27.2925 97.4604 27.3034C96.867 27.3171 96.2708 27.3144 95.6774 27.3034C95.3615 27.2979 95.1774 27.4457 95.0318 27.7138C94.7928 28.1515 94.5098 28.5673 94.2763 29.0078C94.0208 29.4948 93.7214 29.5166 93.3038 29.1993C93.1389 29.0734 92.9796 28.8354 92.7021 28.9722L92.7186 28.9832H92.7268Z" fill="black"/>
<path d="M96.2955 8.77439C98.856 8.77439 101.416 8.78259 103.977 8.76618C104.447 8.76344 104.68 8.84278 104.68 9.39267C104.68 9.94529 104.491 10.0793 103.963 10.0766C101.54 10.052 99.117 10.0793 96.6939 10.0575C96.1609 10.052 95.812 10.2024 95.5098 10.6621C94.4356 12.2953 93.279 13.8711 92.0565 15.3976C91.9356 15.5481 91.7158 15.6958 91.8532 15.9202C91.963 16.1007 92.1828 16.0269 92.3587 16.0214C94.757 15.9585 97.1581 15.8901 99.5565 15.8189C99.7543 15.8135 100.004 15.8764 100.117 15.663C100.254 15.4004 99.9878 15.2499 99.8587 15.0885C99.279 14.3581 98.6774 13.6468 98.084 12.9245C97.9137 12.7166 97.6389 12.4594 98.0181 12.2597C98.3587 12.0792 98.6527 11.4308 99.1609 11.9862C100.743 13.7179 102.235 15.5262 103.708 17.3482C103.919 17.6109 103.87 17.786 103.609 17.9583C103.419 18.0841 103.224 18.21 103.059 18.3632C102.735 18.6614 102.48 18.5903 102.301 18.2291C101.785 17.1813 100.944 16.9953 99.8285 17.0664C96.5455 17.2771 93.2488 17.247 89.9823 17.682C89.6608 17.7258 89.5097 17.6136 89.3998 17.3592C89.2735 17.0692 89.1663 16.7683 89.0207 16.4865C88.9108 16.2703 88.9822 16.139 89.1553 16.0296C91.018 14.856 92.0207 12.9574 93.246 11.2475C93.4713 10.9329 93.9301 10.5718 93.7268 10.2052C93.551 9.88237 93.0125 10.0793 92.6361 10.0739C91.2872 10.0575 89.9383 10.0575 88.5894 10.0739C88.1306 10.0793 87.8256 10.0629 87.8229 9.44191C87.8201 8.79901 88.1223 8.76618 88.6196 8.76892C91.1801 8.78533 93.7405 8.77712 96.301 8.77712L96.2955 8.77439Z" fill="black"/>
<path d="M78.6498 22.0041C78.6498 29.024 78.6498 36.044 78.6416 43.0639C78.6416 43.3977 78.8394 43.8655 78.1773 43.9175C77.5014 43.9722 77.4465 43.622 77.4465 43.094C77.4575 37.3681 77.4547 31.6421 77.4547 25.9189C77.4547 17.5585 77.4547 9.19803 77.463 0.837576C77.463 0.525701 77.2597 0.0715661 77.8751 0.0113796C78.4437 -0.0460712 78.669 0.101659 78.6663 0.739089C78.6415 7.82742 78.6525 14.9158 78.6525 22.0041H78.6498Z" fill="black"/>
<path d="M96.7932 36.1889C96.7135 37.8796 96.3701 37.3844 98.1311 38.0273C99.8839 38.6675 101.648 39.2721 103.406 39.9013C103.705 40.008 104.178 40.0682 103.859 40.5633C103.626 40.9245 103.593 41.5865 102.81 41.261C101.233 40.6098 99.6284 40.0271 98.0349 39.4143C97.9498 39.3815 97.8619 39.3541 97.7822 39.3131C96.8316 38.8207 96.0844 38.7988 95.153 39.6277C93.9305 40.7165 92.2245 40.9135 90.6365 41.2336C90.3453 41.2938 90.0431 41.3075 89.7601 41.3895C89.0678 41.5975 88.631 41.436 88.3123 40.7247C88.0458 40.1311 88.2711 40.06 88.7546 40.0299C90.0101 39.9505 91.2519 39.7508 92.4497 39.3706C94.9278 38.5854 95.3893 37.948 95.4745 35.3572C95.4882 34.9769 95.4662 34.6459 96.0349 34.6596C96.8316 34.6787 96.8976 34.7088 96.8481 35.5049C96.8344 35.732 96.8124 35.9563 96.7959 36.1834L96.7932 36.1889Z" fill="black"/>
<path d="M0.0115996 39.7565C-0.0763133 36.3641 2.86877 35.2479 5.0556 36.0905C5.69572 36.3368 6.1655 36.7964 6.47595 37.4064C6.61331 37.6773 6.87705 37.9837 6.39902 38.1916C6.03913 38.3503 5.70946 38.4105 5.50341 37.9344C5.09132 36.9769 4.3001 36.7088 3.31932 36.7882C2.37975 36.8648 1.71766 37.3353 1.38524 38.1861C0.937433 39.3297 0.945674 40.4978 1.46766 41.6277C1.88799 42.5332 2.66547 42.9162 3.62702 42.8998C4.58582 42.8834 5.30286 42.4074 5.61055 41.4991C5.78638 40.9793 6.03363 40.9492 6.47595 41.1024C7.0309 41.2939 6.75892 41.6441 6.64078 41.9204C6.24243 42.8479 5.57759 43.4853 4.55835 43.7206C2.0858 44.2869 0.165447 42.8779 0.00610506 40.3665C-0.00763133 40.1641 0.00610506 39.9589 0.00610506 39.7537L0.0115996 39.7565Z" fill="black"/>
<path d="M15.1932 41.4003C13.2508 41.4413 13.7591 41.0857 13.0366 42.9296C12.9404 43.1785 12.858 43.4931 12.6657 43.6299C12.4376 43.7913 12.0558 43.7886 11.8168 43.6299C11.5475 43.4494 11.7975 43.1676 11.8772 42.9624C12.6712 40.8668 13.4816 38.774 14.2976 36.6866C14.4514 36.2954 14.5613 35.896 15.1629 35.9014C15.7454 35.9069 15.869 36.2489 16.0393 36.6647C16.8965 38.763 17.7811 40.8477 18.6273 42.9487C18.7097 43.1512 19.0449 43.5013 18.685 43.6354C18.3278 43.7667 17.8058 43.909 17.5641 43.3509C17.3937 42.9569 17.2042 42.5602 17.1053 42.1444C16.9514 41.5015 16.5586 41.3182 15.9514 41.3948C15.7042 41.4249 15.4487 41.4003 15.1987 41.4003H15.1932ZM15.1712 37.0969C14.7838 38.1447 14.4651 39.0366 14.119 39.9202C13.9624 40.3224 14.0146 40.5139 14.4954 40.4948C15.0173 40.4729 15.5421 40.4947 16.0668 40.4838C16.2591 40.4811 16.4432 40.4565 16.3305 40.1692C15.9514 39.1843 15.5833 38.1967 15.1684 37.0969H15.1712Z" fill="black"/>
<path d="M58.9792 43.6903C58.4654 43.797 58.3363 43.4551 58.1742 43.0693C57.3335 41.0585 57.9901 41.4224 55.7538 41.4087C54.034 41.3978 54.4791 41.1351 53.795 42.834C53.6494 43.1979 53.6851 43.7095 53.0423 43.7122C52.5066 43.715 52.3445 43.5946 52.556 43.0584C53.2593 41.2911 53.9351 39.5128 54.622 37.7401C54.7868 37.3188 54.9571 36.8975 55.111 36.4734C55.2483 36.0904 55.4709 35.9099 55.9159 35.9044C56.3802 35.8989 56.5643 36.1315 56.7126 36.4926C57.6055 38.6702 58.5039 40.8479 59.4022 43.0256C59.5808 43.4578 59.6357 43.7943 58.9764 43.6903H58.9792ZM55.9049 37.0999C55.5148 38.145 55.1687 39.0669 54.8225 39.9861C54.6989 40.3117 54.7401 40.5059 55.1604 40.4922C55.6852 40.4731 56.2099 40.495 56.7346 40.4813C56.9214 40.4758 57.1907 40.5141 57.0561 40.1557C56.6797 39.1681 56.3143 38.1778 55.9077 37.0972L55.9049 37.0999Z" fill="black"/>
<path d="M96.262 3.50765C98.2482 3.50765 100.235 3.51585 102.221 3.50217C102.735 3.49944 103.092 3.52953 103.092 4.208C103.092 4.91929 102.671 4.87826 102.191 4.87826C98.1961 4.87279 94.2015 4.87279 90.2042 4.87826C89.7207 4.87826 89.3828 4.85911 89.3745 4.21073C89.3663 3.53227 89.7152 3.49397 90.2344 3.4967C92.2427 3.51038 94.2537 3.50217 96.262 3.50217V3.50765Z" fill="black"/>
<path d="M24.0612 39.7976C24.0612 38.7306 24.0777 37.6609 24.053 36.594C24.042 36.1098 24.1684 35.8827 24.7041 35.9128C25.8662 35.9785 27.0365 35.8198 28.1931 36.0386C29.4679 36.2794 30.0613 37.07 29.9981 38.4242C29.9431 39.5924 29.1629 40.4158 27.9651 40.5089C27.2838 40.5636 26.5915 40.5909 25.9101 40.5389C25.2398 40.4897 25.0777 40.777 25.1107 41.3706C25.1464 41.9834 25.1024 42.599 25.1217 43.2118C25.1354 43.6167 24.9458 43.7042 24.5804 43.707C24.2068 43.707 24.0365 43.603 24.053 43.2036C24.0777 42.6373 24.0585 42.0682 24.0585 41.4992C24.0585 40.9302 24.0585 40.3639 24.0585 39.7948L24.0612 39.7976ZM26.6382 36.8785C26.6382 36.8785 26.6382 36.8895 26.6382 36.8949C26.3634 36.8949 26.086 36.9196 25.8167 36.8895C25.2728 36.8293 25.0695 37.0509 25.1107 37.5871C25.1464 38.085 25.1299 38.5856 25.1162 39.0863C25.1079 39.4255 25.2425 39.6006 25.5914 39.5924C26.3002 39.576 27.009 39.5924 27.7123 39.5322C28.4569 39.4693 28.8854 38.9823 28.9047 38.282C28.9239 37.5789 28.5228 37.0673 27.8003 36.9469C27.4211 36.884 27.0255 36.9004 26.6382 36.8785Z" fill="black"/>
<path d="M44.9711 40.3146C44.9711 39.3599 44.9601 38.4051 44.9739 37.453C44.9794 37.0482 44.8283 36.8731 44.4107 36.8922C43.9326 36.9141 43.4519 36.8895 42.9711 36.8977C42.6607 36.9032 42.4326 36.8594 42.4436 36.4654C42.4519 36.1153 42.5398 35.9128 42.9491 35.9156C44.6854 35.9292 46.4244 35.9265 48.1607 35.9183C48.5179 35.9183 48.6387 36.077 48.647 36.4135C48.6552 36.7636 48.5261 36.9086 48.1689 36.8977C47.7129 36.8813 47.2514 36.925 46.7981 36.8867C46.2459 36.843 46.081 37.0783 46.0865 37.6008C46.1057 39.3954 46.092 41.1901 46.0947 42.9847C46.0947 43.3623 46.125 43.6988 45.5563 43.7097C44.9601 43.7207 44.9601 43.3924 44.9684 42.9711C44.9821 42.0847 44.9739 41.1983 44.9711 40.3119V40.3146Z" fill="black"/>
<path d="M64.743 39.7951C64.743 38.7282 64.7485 37.6612 64.7375 36.5915C64.7348 36.1702 64.8117 35.9021 65.3364 35.9103C65.8886 35.9185 65.8172 36.2769 65.8199 36.6107C65.8227 38.4272 65.8364 40.2438 65.8117 42.063C65.8062 42.5637 65.9573 42.7497 66.4738 42.7278C67.3419 42.695 68.2101 42.7278 69.0782 42.7169C69.4299 42.7114 69.6414 42.8072 69.6579 43.2039C69.6744 43.6087 69.4683 43.7072 69.1112 43.7045C67.8309 43.6963 66.5507 43.6881 65.2732 43.71C64.8337 43.7182 64.732 43.5239 64.7375 43.1355C64.7512 42.022 64.743 40.9086 64.743 39.7978V39.7951Z" fill="black"/>
<path d="M92.7097 28.9724C92.88 29.6645 92.4377 29.9764 91.9432 30.3321C90.9652 31.0324 90.0119 31.7711 89.097 32.5507C88.5201 33.0404 88.3443 32.5918 88.0421 32.2553C87.6904 31.8641 87.7673 31.6288 88.1822 31.3388C89.1877 30.6357 90.1712 29.9053 91.1438 29.1584C91.652 28.7672 92.1053 28.2447 92.7262 28.9833L92.7097 28.9724Z" fill="black"/>
<path d="M36.7069 43.6409C35.8443 43.7422 35.8416 43.7422 35.8416 42.9433C35.8416 40.8915 35.8416 38.837 35.8443 36.7851C35.8443 36.5854 35.88 36.3857 35.902 36.186C36.5311 36.0957 36.7317 36.3638 36.7234 36.9876C36.6932 39.2063 36.7097 41.425 36.7097 43.6409H36.7069Z" fill="black"/>
<path d="M91.8969 26.6576C91.7485 27.0187 91.5123 27.3005 91.232 27.5193C90.9683 27.7245 90.776 27.4318 90.5864 27.295C89.96 26.8436 89.3474 26.3785 88.7265 25.9216C88.537 25.7821 88.3062 25.6317 88.537 25.3854C88.7622 25.1474 88.8886 24.5811 89.3309 24.8273C90.1798 25.3006 90.971 25.8806 91.7787 26.425C91.8419 26.4688 91.8584 26.5782 91.8969 26.6548V26.6576Z" fill="black"/>
<path d="M36.7072 43.641C36.7072 41.4223 36.6908 39.2036 36.721 36.9876C36.7292 36.3639 36.5287 36.0958 35.8995 36.186C36.0039 35.7155 36.3693 35.959 36.6166 35.9508C36.8501 35.9426 36.8803 36.1669 36.8803 36.3529C36.8803 38.7029 36.8803 41.0502 36.8803 43.4002C36.8803 43.5151 36.8556 43.6273 36.7072 43.6437V43.641Z" fill="black"/>
</svg>
