<svg width="192" height="44" viewBox="0 0 192 44" fill="none" xmlns="http://www.w3.org/2000/svg">
<path d="M116.554 7.60352H111.49V13.0513H108.458V17.8311H111.49V30.3372C111.455 31.4337 111.616 32.5275 111.963 33.568C112.251 34.3434 112.724 35.0364 113.342 35.586C113.936 36.1282 114.648 36.5255 115.422 36.7466C117.177 37.173 119.009 37.173 120.765 36.7466C121.463 36.5626 122.135 36.2954 122.769 35.9508V32.1042C121.82 32.5042 120.804 32.7197 119.775 32.739C119.35 32.7874 118.919 32.7411 118.514 32.6035C118.108 32.466 117.738 32.2404 117.43 31.9431C116.847 31.3936 116.54 30.6736 116.54 29.4609V17.8311H122.769V13.0513H116.554V7.60352ZM100.623 14.7472C98.7798 13.398 96.5992 12.5858 94.3227 12.4004C92.0463 12.2151 89.763 12.6639 87.7261 13.6972C85.6892 14.7304 83.9783 16.3077 82.7831 18.254C81.588 20.2003 80.9554 22.4397 80.9554 24.7237C80.9554 27.0077 81.588 29.247 82.7831 31.1933C83.9783 33.1397 85.6892 34.7169 87.7261 35.7502C89.763 36.7834 92.0463 37.2323 94.3227 37.0469C96.5992 36.8616 98.7798 36.0493 100.623 34.7002V36.4103H105.687V13.0323H100.623V14.7472ZM93.318 32.0047C91.873 32.0047 90.4606 31.5762 89.2592 30.7733C88.0579 29.9705 87.1216 28.8293 86.5689 27.4943C86.0161 26.1593 85.8718 24.6903 86.154 23.2732C86.4362 21.8561 87.1324 20.5545 88.1545 19.5331C89.1765 18.5117 90.4785 17.8164 91.8958 17.535C93.3131 17.2537 94.782 17.3991 96.1167 17.9527C97.4513 18.5063 98.5919 19.4433 99.3939 20.6451C100.196 21.847 100.624 23.2598 100.623 24.7047C100.623 25.6638 100.434 26.6134 100.067 27.4994C99.6994 28.3854 99.1613 29.1903 98.4829 29.8683C97.8045 30.5462 96.9992 31.0838 96.113 31.4504C95.2268 31.817 94.277 32.0053 93.318 32.0047ZM65.5677 20.1618V25.799H73.1898C72.7162 27.8019 71.5677 29.5807 69.9373 30.8368C68.3069 32.0928 66.2939 32.7494 64.2365 32.6963C62.6118 32.6931 61.0138 32.2825 59.5887 31.502C58.1637 30.7215 56.9571 29.5962 56.0795 28.2288C55.2018 26.8615 54.681 25.2959 54.5648 23.6753C54.4486 22.0547 54.7406 20.4308 55.4143 18.9523C56.0879 17.4737 57.1215 16.1877 58.4206 15.2119C59.7197 14.2361 61.2428 13.6017 62.8505 13.3666C64.4581 13.1316 66.0991 13.3035 67.6232 13.8666C69.1472 14.4298 70.5057 15.3661 71.5744 16.5899L75.9373 13.0276C74.2701 11.0623 72.1349 9.54851 69.7286 8.62577C67.3222 7.70303 64.7223 7.40108 62.1686 7.74775C59.6148 8.09442 57.1895 9.07856 55.1162 10.6094C53.043 12.1403 51.3886 14.1685 50.3056 16.5071C49.2227 18.8457 48.746 21.4194 48.9196 23.9907C49.0932 26.562 49.9115 29.0482 51.299 31.22C52.6865 33.3918 54.5986 35.1793 56.8588 36.4175C59.119 37.6558 61.6546 38.3049 64.2318 38.3052C66.2089 38.3412 68.173 37.9775 70.0062 37.2359C71.8393 36.4943 73.5039 35.3901 74.8999 33.9896C77.2621 31.5441 78.7293 28.3726 79.0639 24.989C79.2012 23.3757 79.2249 21.7547 79.1349 20.1381L65.5677 20.1618ZM179.487 12.3549C177.041 12.3549 174.649 13.0803 172.615 14.4394C170.581 15.7985 168.996 17.7303 168.06 19.9904C167.124 22.2504 166.879 24.7374 167.356 27.1367C167.833 29.536 169.011 31.7399 170.741 33.4697C172.471 35.1995 174.675 36.3775 177.074 36.8548C179.473 37.332 181.96 37.0871 184.22 36.1509C186.48 35.2148 188.412 33.6294 189.771 31.5954C191.13 29.5614 191.856 27.17 191.856 24.7237C191.858 23.0978 191.54 21.4874 190.92 19.9845C190.299 18.4817 189.389 17.1159 188.24 15.9654C187.091 14.8148 185.727 13.9021 184.225 13.2793C182.723 12.6565 181.113 12.3359 179.487 12.336V12.3549ZM179.487 32.0237C178.042 32.0237 176.63 31.5951 175.428 30.7923C174.227 29.9894 173.291 28.8483 172.738 27.5132C172.185 26.1782 172.041 24.7092 172.323 23.2921C172.605 21.875 173.301 20.5734 174.323 19.552C175.346 18.5306 176.648 17.8353 178.065 17.554C179.482 17.2727 180.951 17.418 182.286 17.9716C183.62 18.5252 184.761 19.4622 185.563 20.6641C186.365 21.866 186.793 23.2787 186.792 24.7237C186.787 26.6573 186.015 28.5099 184.645 29.875C183.276 31.24 181.421 32.006 179.487 32.0047V32.0237ZM158.833 36.4292H164.281V15.4483H158.833V36.4292ZM150.51 36.4292H155.958V30.9625H150.51V36.4292ZM136.706 12.3549C134.52 12.3528 132.373 12.9297 130.483 14.027C128.594 15.1243 127.028 16.7027 125.946 18.6016C124.865 20.5005 124.305 22.6521 124.326 24.8374C124.346 27.0227 124.944 29.1636 126.061 31.0423C127.177 32.921 128.771 34.4704 130.681 35.5327C132.591 36.595 134.748 37.1324 136.933 37.0901C139.118 37.0478 141.253 36.4274 143.12 35.292C144.987 34.1566 146.52 32.5467 147.563 30.6262L142.992 28.4045C142.261 29.6458 141.179 30.6433 139.882 31.2712C138.585 31.8992 137.132 32.1297 135.705 31.9338C134.277 31.7378 132.94 31.1242 131.86 30.17C130.781 29.2158 130.007 27.9637 129.638 26.5712H143.774H148.947C149.216 24.8089 149.102 23.0093 148.611 21.2954C148.121 19.5814 147.266 17.9937 146.104 16.641C144.943 15.2882 143.504 14.2023 141.884 13.4577C140.264 12.713 138.503 12.3271 136.72 12.3265L136.706 12.3549ZM129.87 22.1467C130.392 20.7564 131.326 19.5587 132.547 18.7132C133.768 17.8677 135.218 17.4147 136.703 17.4147C138.188 17.4147 139.638 17.8677 140.859 18.7132C142.08 19.5587 143.014 20.7564 143.537 22.1467H129.87ZM158.833 13.0702H164.281V7.62246H158.833V13.0702Z" fill="black"/>
<path d="M21.9615 34.0414C18.7578 34.0414 15.6852 32.7687 13.4198 30.5033C11.1544 28.2379 9.88174 25.1653 9.88174 21.9616C9.88174 18.7578 11.1544 15.6853 13.4198 13.4198C15.6852 11.1544 18.7578 9.88175 21.9615 9.88175V0C17.6179 0 13.3719 1.28802 9.76035 3.70119C6.1488 6.11435 3.33394 9.54428 1.67173 13.5572C0.00951645 17.5702 -0.425396 21.9859 0.421994 26.246C1.26938 30.5062 3.36102 34.4193 6.43239 37.4907C9.50376 40.5621 13.4169 42.6537 17.677 43.5011C21.9371 44.3485 26.3529 43.9136 30.3658 42.2514C34.3788 40.5892 37.8087 37.7743 40.2218 34.1627C42.635 30.5512 43.923 26.3051 43.923 21.9616H34.0413C34.0413 25.1653 32.7686 28.2379 30.5032 30.5033C28.2378 32.7687 25.1653 34.0414 21.9615 34.0414Z" fill="#2354E6"/>
<path d="M34.0414 9.88184H21.9617V21.9616H34.0414V9.88184Z" fill="#17E6A1"/>
</svg>
