<svg width="127" height="44" viewBox="0 0 127 44" fill="none" xmlns="http://www.w3.org/2000/svg">
<path d="M43.7953 19.1269H21.4157V27.1504L33.6526 27.3437C33.4223 28.2202 33.1178 29.0332 32.726 29.7746C31.7809 31.5647 30.4332 32.9338 28.6833 33.8765C26.9333 34.8218 24.8125 35.2931 22.3186 35.2931C19.8644 35.2931 17.6933 34.7292 15.8057 33.6037C13.9154 32.4783 12.4275 30.9106 11.342 28.8981C10.2565 26.8882 9.71375 24.5554 9.71375 21.8993C9.71375 19.2434 10.2671 16.9211 11.3711 14.9297C12.4777 12.9383 14.0133 11.3919 15.9857 10.285C17.9555 9.17813 20.1874 8.62733 22.6813 8.62733C25.0138 8.62733 27.1053 9.06956 28.9533 9.95401C30.8013 10.8385 32.4109 12.1652 33.7797 13.9367L40.2344 7.48073C38.2646 5.14781 35.7813 3.318 32.7842 1.99133C29.7873 0.664659 26.4593 0 22.8005 0C19.6234 0 16.6476 0.553442 13.873 1.65768C11.0984 2.76456 8.67592 4.31367 6.60556 6.30235C4.5352 8.29368 2.91492 10.616 1.75001 13.272C0.582455 15.928 0 18.8038 0 21.8993C0 24.9976 0.571866 27.8813 1.71824 30.5558C2.86461 33.2303 4.44254 35.5633 6.45201 37.5546C8.46148 39.5459 10.8257 41.1056 13.5394 42.231C16.2532 43.3564 19.1574 43.9205 22.2551 43.9205C26.4779 43.9205 30.2056 43.036 33.4435 41.2645C36.6788 39.4956 39.2124 36.8714 41.0445 33.3918C42.874 29.9123 43.79 25.6198 43.79 20.5118V19.1269H43.7953Z" fill="#0505FA"/>
<path d="M86.4998 37.8298L80.1061 31.4347C78.9385 32.6423 77.5512 33.5876 75.9441 34.2708C74.3344 34.9541 72.4468 35.2956 70.2731 35.2956C68.4226 35.2956 66.7229 34.9751 65.1767 34.329C63.6279 33.6856 62.3014 32.78 61.1948 31.6148C60.0881 30.4497 59.225 29.0409 58.6002 27.3912C57.9754 25.7415 57.6657 23.9117 57.6657 21.9017C57.6657 19.9317 57.9754 18.123 58.6002 16.4733C59.2224 14.8235 60.0881 13.4174 61.1948 12.2496C62.3014 11.0846 63.6279 10.1895 65.1767 9.56454C66.7255 8.94226 68.4226 8.62978 70.2731 8.62978C72.3648 8.62978 74.2021 8.97138 75.7933 9.65457C77.3818 10.3378 78.7373 11.2831 79.8651 12.4907L86.198 6.09559C84.2282 4.20489 81.9249 2.71668 79.2906 1.63099C76.6563 0.54529 73.6515 0.00244141 70.2731 0.00244141C67.0961 0.00244141 64.1495 0.555882 61.4358 1.66012C58.7221 2.767 56.3578 4.30552 54.3483 6.27567C52.3363 8.24581 50.7688 10.5708 49.6436 13.2454C48.5184 15.9198 47.9546 18.8063 47.9546 21.9017C47.9546 25 48.5184 27.8838 49.6436 30.5582C50.7688 33.2328 52.3468 35.5763 54.38 37.5862C56.4108 39.5987 58.7829 41.1558 61.4966 42.2627C64.2103 43.3695 67.1571 43.923 70.334 43.923C73.7918 43.923 76.839 43.3801 79.4733 42.2944C82.105 41.2087 84.448 39.7205 86.4998 37.8298Z" fill="#0505FA"/>
<path d="M101.156 25.7043H102.147L114.849 43.2608H126.07L112.424 25.3918C113.872 25.1349 115.21 24.7192 116.419 24.1367C118.591 23.0906 120.279 21.6316 121.487 19.762C122.694 17.8926 123.297 15.7106 123.297 13.2161C123.297 10.764 122.694 8.58995 121.487 6.69924C120.279 4.80854 118.612 3.33093 116.481 2.26642C114.349 1.20189 111.876 0.666992 109.062 0.666992H91.689V43.2608H101.159V25.7043H101.156ZM107.971 8.02592C109.862 8.02592 111.31 8.52905 112.313 9.53531C113.319 10.5416 113.822 11.8073 113.822 13.3352C113.822 14.985 113.309 16.2905 112.284 17.257C111.259 18.2235 109.8 18.7055 107.91 18.7055H101.154V8.02592H107.971Z" fill="#0505FA"/>
</svg>
