<svg width="171" height="44" viewBox="0 0 171 44" fill="none" xmlns="http://www.w3.org/2000/svg">
<path d="M28.1448 31.9277L20.317 35.3343V35.0082C18.7586 35.4068 17.1641 35.6243 15.5333 35.6967C8.17655 35.6243 2.34191 31.7828 2.26943 27.2165V25.5132C4.66127 29.0285 9.62615 31.3841 15.5333 31.2754C17.4902 31.3479 19.411 31.0942 21.2954 30.5869L21.984 28.8836C19.8821 29.5359 17.7077 29.8983 15.5333 29.8983C8.17655 29.9345 2.34191 26.093 2.26943 21.418V20.0409C4.66127 23.3025 9.58991 25.6219 15.5333 25.5132C18.1063 25.6582 20.6794 25.187 22.9987 24.1361L23.3249 22.4328C20.8968 23.6287 18.215 24.2448 15.497 24.1361C8.14031 24.2448 2.30567 20.4033 2.23319 15.6558V14.2787C4.62503 17.6128 9.58992 19.9322 15.497 20.0409C18.6862 19.9322 21.8391 19.1349 24.702 17.6853L25.0282 15.6558C22.6726 17.3954 19.1935 18.5551 15.5333 18.7C8.14031 18.5188 2.30567 14.6773 2.23319 9.85737C2.30567 5.29109 8.14031 1.41337 15.497 1.37713C19.8821 1.44961 23.941 3.00795 26.3691 5.47229L26.6227 5.83469H28.326L28.0723 5.43605C25.6443 2.17442 20.8243 0 15.4608 0C7.34303 0 0.819824 4.4938 0.819824 9.85737V27.5427C1.10974 32.7975 7.45175 37.0739 15.4608 37.0739C20.8243 37.0376 25.5718 34.9357 28.1448 31.9277Z" fill="black"/>
<path d="M24.9557 43.9232L27.7099 32.2538L19.8096 35.6966L24.6295 15.4383H15.3521L17.7439 5.47217H47.2795L44.8877 15.4383H35.2841L33.2184 20.9468L43.873 16.4892L24.9557 43.9232ZM29.7756 29.8257L28.3985 36.6751L39.7416 19.4972L30.4641 23.6286L34.5955 14.0249H43.873L45.5762 6.81306H18.7949L17.0916 14.0249H26.369L21.9115 33.2323L29.7756 29.8257Z" fill="#FFC51A"/>
<path d="M65.6171 12.1409C65.6171 12.6483 65.4721 13.1194 65.2909 13.5543C65.0735 13.9892 64.7836 14.3878 64.4212 14.714C63.5877 15.3663 62.5729 15.7287 61.522 15.6562C60.9421 15.6925 60.3623 15.5838 59.8187 15.3663C59.2751 15.1489 58.804 14.7865 58.4053 14.3516C57.6443 13.4818 57.2819 12.2497 57.2819 10.6913V10.0752C57.2457 9.16922 57.4269 8.29946 57.7893 7.46593C58.1154 6.74112 58.6228 6.16127 59.2751 5.72639C60.0724 5.29151 60.9784 5.07407 61.8844 5.14655C62.7904 5.21903 63.6601 5.54519 64.3849 6.08879C65.146 6.77736 65.5809 7.75585 65.6533 8.77058H63.5514C63.5514 8.22698 63.3702 7.71961 63.0078 7.32097C62.6092 6.99481 62.0656 6.84985 61.5582 6.88609C61.2683 6.84985 60.9421 6.92233 60.6522 7.06729C60.3623 7.21225 60.1449 7.39345 59.9637 7.64713C59.6013 8.15449 59.4201 8.95178 59.4201 10.0028V10.7638C59.4201 11.8873 59.6013 12.6845 59.9274 13.1919C60.1086 13.4456 60.3261 13.663 60.616 13.7718C60.9059 13.9167 61.1958 13.953 61.522 13.953C62.0656 13.9892 62.5729 13.8442 62.9716 13.5181C63.334 13.1557 63.5152 12.6483 63.5152 12.1409H65.6171Z" fill="black"/>
<path d="M75.438 10.6545C75.4742 11.5605 75.293 12.4665 74.8944 13.3001C74.5682 14.0249 74.0246 14.641 73.3723 15.0758C72.6837 15.4745 71.8864 15.6919 71.0892 15.6919C70.2919 15.6919 69.4946 15.4745 68.806 15.0758C68.1175 14.641 67.5739 14.0611 67.2477 13.3363C66.8853 12.5028 66.6679 11.633 66.7041 10.727V10.2196C66.6679 9.31364 66.8853 8.40762 67.2477 7.53786C67.5739 6.81305 68.1175 6.19696 68.806 5.76208C69.4946 5.36344 70.2919 5.146 71.0892 5.146C71.8864 5.146 72.6837 5.36344 73.3723 5.76208C74.0609 6.19696 74.5682 6.81305 74.9306 7.53786C75.293 8.37138 75.5104 9.27739 75.4742 10.1834V10.6545H75.438ZM73.2998 10.1834C73.2998 9.09619 73.1186 8.2989 72.72 7.71906C72.5388 7.46537 72.2851 7.24793 71.9952 7.10297C71.7052 6.95801 71.3791 6.88553 71.0892 6.88553C70.763 6.88553 70.4368 6.95801 70.1832 7.10297C69.8932 7.24793 69.6396 7.46537 69.4584 7.71906C69.0597 8.26266 68.8785 9.09619 68.8785 10.1472V10.6545C68.8423 11.4881 69.0235 12.3578 69.4584 13.0826C69.6396 13.3363 69.8932 13.5538 70.1832 13.6987C70.4731 13.8437 70.7992 13.9162 71.1254 13.9162C71.4516 13.9162 71.7777 13.8437 72.0676 13.6987C72.3576 13.5538 72.6112 13.3363 72.7924 13.0826C73.1548 12.539 73.3723 11.7055 73.3723 10.6545V10.1834H73.2998Z" fill="black"/>
<path d="M79.2067 15.5104H77.1047V5.25439H79.2067V15.5104Z" fill="black"/>
<path d="M89.4999 15.5104H87.398L83.3028 8.76971V15.5104H81.2009V5.25439H83.3028L87.4342 11.9951V5.25439H89.5361V15.5104H89.4999Z" fill="black"/>
<path d="M98.8497 6.99431H95.6969V15.547H93.6312V6.99431H90.5508V5.29102H98.886V6.99431H98.8497Z" fill="black"/>
<path d="M106.243 11.0895H102.184V13.8437H106.931V15.547H100.046V5.29102H106.895V6.99431H102.148V9.42242H106.206V11.0895H106.243Z" fill="black"/>
<path d="M110.302 13.8071H114.796V15.5104H108.2V5.25439H110.302V13.8071Z" fill="black"/>
<path d="M122.152 11.0895H118.093V13.8437H122.841V15.547H115.955V5.29102H122.804V6.99431H118.057V9.42242H122.116V11.0895H122.152Z" fill="black"/>
<path d="M132.227 14.2423C131.792 14.7497 131.248 15.1121 130.632 15.2933C129.907 15.547 129.11 15.6919 128.313 15.6557C127.479 15.6919 126.682 15.4745 125.993 15.0759C125.305 14.6772 124.761 14.0974 124.435 13.3726C124.036 12.5753 123.855 11.6693 123.892 10.7633V10.0747C123.855 9.16867 124.036 8.26267 124.399 7.42914C124.725 6.70434 125.232 6.12449 125.885 5.72584C126.573 5.3272 127.371 5.10976 128.168 5.146C129.4 5.146 130.342 5.43592 131.031 6.01577C131.756 6.66809 132.19 7.5741 132.263 8.55259H130.197C130.161 8.04523 129.944 7.61034 129.581 7.24794C129.219 6.95802 128.748 6.81305 128.24 6.84929C127.914 6.84929 127.588 6.88554 127.298 7.0305C127.008 7.17546 126.754 7.3929 126.573 7.64658C126.211 8.19019 125.993 8.98748 125.993 10.0384V10.6908C125.993 11.778 126.211 12.5753 126.61 13.1189C126.827 13.4088 127.081 13.6262 127.407 13.7712C127.733 13.9162 128.059 13.9886 128.422 13.9524C129.219 13.9524 129.762 13.7712 130.125 13.445V11.6693H128.204V10.1109H132.227V14.2423Z" fill="black"/>
<path d="M137.698 11.778H136.031V15.547H133.929V5.29102H137.735C138.931 5.29102 139.873 5.5447 140.525 6.0883C140.851 6.37822 141.105 6.70439 141.286 7.10303C141.467 7.50168 141.54 7.93656 141.504 8.37144C141.54 8.98753 141.359 9.60362 141.032 10.111C140.706 10.6183 140.199 10.9808 139.655 11.2344L141.866 15.4383V15.547H139.583L137.698 11.778ZM136.031 10.0385H137.735C138.17 10.0747 138.641 9.92978 138.967 9.63986C139.112 9.4949 139.22 9.3137 139.293 9.13249C139.365 8.95129 139.402 8.73385 139.402 8.51641C139.402 8.29897 139.365 8.11776 139.329 7.90032C139.257 7.71912 139.148 7.53792 139.003 7.35671C138.822 7.21175 138.641 7.10303 138.423 7.03055C138.206 6.95807 137.988 6.92183 137.735 6.95807H136.031V10.0385Z" fill="black"/>
<path d="M148.897 13.4085H145.2L144.512 15.5104H142.265L146.07 5.25439H148.027L151.869 15.5104H149.622L148.897 13.4085ZM145.78 11.7052H148.353L147.049 7.8637L145.78 11.7052Z" fill="black"/>
<path d="M154.949 11.923V15.547H152.847V5.29102H156.834C157.522 5.29102 158.211 5.43598 158.863 5.7259C159.407 5.97958 159.878 6.41447 160.204 6.92183C160.53 7.46544 160.675 8.08153 160.675 8.69761C160.711 9.1325 160.603 9.60362 160.421 10.0023C160.24 10.4009 159.986 10.7633 159.624 11.0532C158.936 11.6331 157.993 11.923 156.761 11.923H154.949ZM154.949 10.1835H156.834C157.305 10.2197 157.74 10.0747 158.102 9.78482C158.247 9.63986 158.356 9.45866 158.464 9.27745C158.537 9.09625 158.573 8.87881 158.573 8.66137C158.573 8.44393 158.537 8.22648 158.464 8.00904C158.392 7.7916 158.283 7.6104 158.138 7.4292C157.993 7.28424 157.776 7.13928 157.558 7.0668C157.341 6.99432 157.123 6.95807 156.906 6.95807H154.985V10.1835H154.949Z" fill="black"/>
<path d="M170.46 15.5104H168.358V11.1253H164.226V15.5104H162.125V5.25439H164.226V9.42203H168.358V5.25439H170.46V15.5104Z" fill="black"/>
<path d="M63.8778 26.4915H61.2685V33.5946H59.4927V26.4915H56.9197V25.0781H63.8778V26.4915Z" fill="black"/>
<path d="M66.4147 27.9413C66.6321 27.6876 66.8858 27.4701 67.1758 27.3252C67.4657 27.1802 67.7918 27.1077 68.118 27.1077C69.4951 27.1077 70.1837 27.905 70.2199 29.4996V33.5585H68.5166V29.5358C68.5529 29.2459 68.4442 28.956 68.2992 28.7385C68.1905 28.6298 68.0818 28.5573 67.9368 28.5211C67.7918 28.4849 67.6469 28.4486 67.5019 28.4849C67.2845 28.4849 67.067 28.5211 66.8858 28.6298C66.7046 28.7385 66.5234 28.8835 66.4147 29.0647V33.5585H64.7114V24.5347H66.4147V27.9413Z" fill="black"/>
<path d="M74.3879 33.7396C73.953 33.7396 73.5543 33.7034 73.1557 33.5584C72.7571 33.4135 72.3947 33.196 72.1047 32.9061C71.8148 32.6162 71.5611 32.2538 71.4162 31.8551C71.2712 31.4565 71.1987 31.0579 71.1987 30.623V30.4418C71.1987 29.8619 71.3075 29.2821 71.5611 28.7385C71.7786 28.2673 72.141 27.8687 72.6121 27.5788C73.0832 27.2889 73.6268 27.1439 74.1704 27.1801C74.569 27.1439 74.9315 27.2164 75.2939 27.3613C75.6563 27.5063 75.9824 27.7237 76.2361 28.0137C76.7435 28.5573 76.9971 29.3546 76.9971 30.333V31.0216H72.9745C73.0107 31.4203 73.1919 31.7464 73.4818 32.0363C73.7718 32.29 74.1342 32.435 74.5328 32.3987C74.8227 32.3987 75.1127 32.3625 75.4026 32.2175C75.6563 32.1088 75.9099 31.8914 76.0911 31.6739L76.9247 32.6162C76.671 32.9786 76.3086 33.2685 75.9099 33.4497C75.4026 33.6309 74.8952 33.7396 74.3879 33.7396ZM74.2067 28.521C74.0617 28.521 73.9167 28.5573 73.7718 28.5935C73.6268 28.666 73.5181 28.7385 73.4094 28.8472C73.1919 29.1371 73.047 29.4633 73.0107 29.8257H75.3663V29.6807C75.3663 29.3546 75.2576 29.0646 75.0764 28.8109C74.9677 28.7022 74.8227 28.6297 74.6778 28.5573C74.4966 28.521 74.3516 28.521 74.2067 28.521Z" fill="black"/>
<path d="M81.4178 33.5945V28.4846H80.4756V27.2524H81.4178V26.7088C81.3816 26.4189 81.4541 26.0927 81.5628 25.8028C81.6715 25.5129 81.8165 25.2592 82.0339 25.0418C82.505 24.6431 83.1211 24.4257 83.7372 24.4619C84.0271 24.4619 84.317 24.4982 84.6069 24.5706V25.8753C84.4257 25.839 84.2808 25.8028 84.0996 25.839C83.4473 25.839 83.1573 26.129 83.1573 26.7451V27.2524H84.4257V28.4846H83.1211V33.5945H81.4178Z" fill="black"/>
<path d="M89.0653 32.9783C88.8479 33.232 88.5942 33.4494 88.3043 33.5582C88.0144 33.7031 87.6882 33.7394 87.3621 33.7394C87.0722 33.7756 86.7822 33.7031 86.5285 33.6306C86.2749 33.5219 86.0212 33.377 85.8037 33.1595C85.4051 32.6884 85.2239 32.0723 85.2601 31.4562V27.2886H86.9634V31.3837C86.9634 32.0361 87.2534 32.3622 87.8694 32.3622C88.0869 32.3985 88.3406 32.326 88.558 32.2535C88.7754 32.1448 88.9566 31.9998 89.0653 31.7824V27.2886H90.7686V33.6306H89.1741L89.0653 32.9783Z" fill="black"/>
<path d="M94.0293 25.6938V27.2522H95.1165V28.4844H94.0293V31.6373C94.0293 31.8185 94.0656 31.9997 94.1743 32.1446C94.2468 32.2171 94.3193 32.2533 94.428 32.2896C94.5005 32.3258 94.6092 32.3258 94.7179 32.3258C94.8991 32.3258 95.0441 32.3258 95.2253 32.2896V33.558C94.8991 33.6667 94.5367 33.703 94.2105 33.703C93.0146 33.703 92.3985 33.0869 92.3985 31.8909V28.4844H91.4563V27.2522H92.3985V25.6938H94.0293Z" fill="black"/>
<path d="M99.8639 32.9783C99.6465 33.232 99.3928 33.4494 99.1029 33.5582C98.813 33.7031 98.4868 33.7394 98.1606 33.7394C97.8707 33.7756 97.5808 33.7031 97.3271 33.6306C97.0735 33.5219 96.8198 33.377 96.6023 33.1595C96.2037 32.6884 96.0225 32.0723 96.0587 31.4562V27.2886H97.762V31.3837C97.762 32.0361 98.0519 32.3622 98.668 32.3622C98.8854 32.3985 99.1391 32.326 99.3566 32.2535C99.574 32.1448 99.7552 31.9998 99.8639 31.7824V27.2886H101.567V33.6306H99.9726L99.8639 32.9783Z" fill="black"/>
<path d="M106.351 28.8469C106.134 28.8107 105.953 28.8107 105.735 28.8107C105.083 28.8107 104.684 29.0281 104.467 29.463V33.6307H102.763V27.2886H104.358L104.394 28.0496C104.539 27.796 104.72 27.5785 104.974 27.3973C105.228 27.2524 105.518 27.1436 105.808 27.1799C105.989 27.1799 106.17 27.2161 106.351 27.2524V28.8469Z" fill="black"/>
<path d="M109.975 33.7396C109.54 33.7396 109.142 33.7034 108.743 33.5584C108.344 33.4135 107.982 33.196 107.692 32.9061C107.402 32.6162 107.148 32.2538 107.003 31.8551C106.858 31.4565 106.786 31.0579 106.786 30.623V30.4418C106.786 29.8619 106.895 29.2821 107.148 28.7385C107.366 28.2673 107.728 27.8687 108.199 27.5788C108.67 27.2889 109.214 27.1439 109.758 27.1801C110.156 27.1439 110.519 27.2164 110.881 27.3613C111.243 27.5063 111.57 27.7237 111.823 28.0137C112.331 28.5573 112.584 29.3546 112.584 30.333V31.0216H108.525C108.562 31.4203 108.743 31.7464 109.033 32.0363C109.323 32.29 109.685 32.435 110.084 32.3987C110.374 32.3987 110.664 32.3625 110.953 32.2175C111.207 32.1088 111.461 31.8914 111.642 31.6739L112.476 32.6162C112.222 32.9786 111.86 33.2685 111.461 33.4497C110.954 33.6309 110.482 33.7396 109.975 33.7396ZM109.758 28.521C109.613 28.521 109.468 28.5573 109.323 28.5935C109.178 28.666 109.069 28.7385 108.96 28.8472C108.743 29.1371 108.598 29.4633 108.562 29.8257H110.917V29.6807C110.917 29.3546 110.809 29.0646 110.627 28.8109C110.519 28.7022 110.374 28.6297 110.229 28.5573C110.084 28.521 109.939 28.521 109.758 28.521Z" fill="black"/>
<path d="M116.281 30.3689C116.281 29.7891 116.39 29.2093 116.644 28.7019C116.861 28.2308 117.223 27.8321 117.695 27.5422C118.166 27.2523 118.709 27.1436 119.289 27.1436C119.688 27.1436 120.05 27.1798 120.413 27.3248C120.775 27.4697 121.101 27.6509 121.391 27.9408C121.971 28.5207 122.261 29.2817 122.297 30.079V30.5139C122.333 31.3837 122.043 32.2172 121.5 32.8695C120.92 33.4494 120.123 33.7393 119.325 33.7393C118.492 33.7393 117.731 33.4131 117.151 32.8695C116.571 32.2172 116.281 31.3474 116.317 30.4777V30.3689H116.281ZM117.948 30.5139C117.912 30.985 118.021 31.4924 118.274 31.891C118.383 32.036 118.528 32.1447 118.709 32.2534C118.891 32.3259 119.072 32.3622 119.253 32.3984C119.434 32.3984 119.615 32.3622 119.797 32.2897C119.978 32.2172 120.123 32.0722 120.231 31.9273C120.485 31.4562 120.63 30.9488 120.594 30.4052C120.63 29.9341 120.485 29.4267 120.231 29.0281C120.123 28.8831 119.978 28.7381 119.797 28.6656C119.615 28.5932 119.434 28.5569 119.253 28.5569C119.072 28.5569 118.891 28.5932 118.709 28.6656C118.528 28.7381 118.383 28.8831 118.274 29.0281C118.057 29.4629 117.912 29.9703 117.948 30.5139Z" fill="black"/>
<path d="M123.783 33.5945V28.4846H122.841V27.2524H123.783V26.7088C123.747 26.4189 123.819 26.0927 123.928 25.8028C124.037 25.5129 124.182 25.2592 124.399 25.0418C124.87 24.6431 125.486 24.4257 126.102 24.4619C126.392 24.4619 126.682 24.4982 126.972 24.5706V25.8753C126.791 25.839 126.646 25.8028 126.465 25.839C125.813 25.839 125.523 26.129 125.523 26.7451V27.2524H126.791V28.4846H125.523V33.5945H123.783Z" fill="black"/>
<path d="M132.226 27.2526L132.262 27.9774C132.48 27.7237 132.769 27.5063 133.059 27.3613C133.386 27.2164 133.712 27.1439 134.074 27.1801C134.437 27.1439 134.763 27.2164 135.053 27.3976C135.343 27.5788 135.596 27.8325 135.741 28.1586C135.959 27.8325 136.249 27.5788 136.575 27.4338C136.901 27.2526 137.263 27.1801 137.662 27.2164C137.952 27.1801 138.242 27.2526 138.495 27.3251C138.749 27.4338 139.003 27.5788 139.184 27.7962C139.546 28.3398 139.728 28.9559 139.691 29.6082V33.6672H137.988V29.6082C138.024 29.3183 137.952 29.0646 137.771 28.8109C137.662 28.7022 137.553 28.6297 137.408 28.5935C137.263 28.5573 137.155 28.521 137.01 28.5573C136.792 28.5573 136.538 28.5935 136.357 28.7385C136.176 28.8834 136.031 29.0646 135.959 29.2821V33.6309H134.255V29.572C134.292 29.2821 134.219 28.9921 134.038 28.7747C133.929 28.666 133.82 28.6297 133.712 28.5573C133.567 28.521 133.458 28.4848 133.313 28.521C133.096 28.521 132.878 28.5573 132.697 28.666C132.516 28.7747 132.371 28.9197 132.262 29.1371V33.6309H130.559V27.2889H132.226V27.2526Z" fill="black"/>
<path d="M140.743 30.3689C140.743 29.7891 140.851 29.2093 141.105 28.7019C141.323 28.2308 141.685 27.8321 142.156 27.5422C142.627 27.2523 143.171 27.1436 143.751 27.1436C144.149 27.1436 144.512 27.1798 144.874 27.3248C145.236 27.4697 145.563 27.6509 145.853 27.9408C146.432 28.5207 146.722 29.2817 146.759 30.079V30.5139C146.795 31.3837 146.505 32.2172 145.961 32.8695C145.381 33.4494 144.584 33.7393 143.787 33.7393C142.99 33.7393 142.192 33.4131 141.612 32.8695C141.033 32.2172 140.743 31.3474 140.779 30.4777V30.3689H140.743ZM142.446 30.5139C142.41 30.985 142.518 31.4924 142.772 31.891C142.881 32.036 143.026 32.1447 143.207 32.2534C143.388 32.3259 143.569 32.3622 143.751 32.3984C143.932 32.4346 144.113 32.3622 144.294 32.2897C144.475 32.2172 144.62 32.0722 144.729 31.9273C144.983 31.4562 145.128 30.9488 145.091 30.4052C145.128 29.9341 144.983 29.4267 144.729 29.0281C144.62 28.8831 144.475 28.7381 144.294 28.6656C144.113 28.5932 143.932 28.5569 143.751 28.5569C143.569 28.5569 143.388 28.5932 143.207 28.6656C143.026 28.7381 142.881 28.8831 142.772 29.0281C142.518 29.4629 142.41 29.9703 142.446 30.5139Z" fill="black"/>
<path d="M149.368 27.2523L149.404 27.9771C149.622 27.6871 149.912 27.4697 150.202 27.3247C150.528 27.1798 150.854 27.1073 151.216 27.1073C151.506 27.0711 151.76 27.1435 152.05 27.216C152.304 27.3247 152.557 27.4697 152.738 27.6871C153.101 28.1945 153.282 28.8106 153.246 29.4629V33.5581H151.543V29.4992C151.579 29.2092 151.47 28.9193 151.325 28.7019C151.216 28.6294 151.108 28.5569 150.963 28.4844C150.818 28.4482 150.673 28.412 150.564 28.4482C150.347 28.4482 150.129 28.4844 149.948 28.5932C149.767 28.7019 149.586 28.8468 149.513 29.0643V33.5581H147.81V27.216H149.368V27.2523Z" fill="black"/>
<path d="M157.486 33.7396C157.051 33.7396 156.652 33.7034 156.253 33.5584C155.855 33.4135 155.492 33.196 155.202 32.9061C154.912 32.6162 154.659 32.2538 154.514 31.8551C154.369 31.4565 154.296 31.0579 154.296 30.623V30.4418C154.296 29.8619 154.405 29.2821 154.659 28.7385C154.876 28.2673 155.239 27.8687 155.71 27.5788C156.181 27.2889 156.724 27.1439 157.268 27.1801C157.667 27.1439 158.029 27.2164 158.392 27.3613C158.754 27.5063 159.08 27.7237 159.334 28.0137C159.841 28.5573 160.095 29.3546 160.095 30.333V31.0216H156.036C156.072 31.4203 156.253 31.7464 156.543 32.0363C156.833 32.29 157.196 32.435 157.594 32.3987C157.884 32.3987 158.174 32.3625 158.464 32.2175C158.718 32.1088 158.971 31.8914 159.153 31.6739L159.986 32.6162C159.732 32.9786 159.37 33.2685 158.971 33.4497C158.464 33.6309 157.957 33.7396 157.486 33.7396ZM157.268 28.521C157.123 28.521 156.978 28.5573 156.833 28.5935C156.688 28.666 156.58 28.7385 156.471 28.8472C156.253 29.1371 156.108 29.4633 156.072 29.8257H158.428V29.6807C158.428 29.3546 158.319 29.0646 158.138 28.8109C158.029 28.7022 157.884 28.6297 157.739 28.5573C157.594 28.521 157.413 28.521 157.268 28.521Z" fill="black"/>
<path d="M163.321 31.2026L164.48 27.2524H166.292L163.756 34.573L163.611 34.8992C163.466 35.2616 163.212 35.5877 162.886 35.8052C162.56 36.0226 162.161 36.1313 161.762 36.1313C161.509 36.1313 161.255 36.0951 161.001 36.0226V34.7542H161.255C161.509 34.7542 161.762 34.718 161.98 34.6092C162.161 34.5005 162.27 34.3193 162.342 34.1381L162.56 33.6307L160.349 27.2524H162.161L163.321 31.2026Z" fill="black"/>
</svg>
