<svg width="191" height="45" viewBox="0 0 191 45" fill="none" xmlns="http://www.w3.org/2000/svg">
<path d="M145.766 14.9612H141.825C141.366 14.9612 140.929 14.7636 140.624 14.4203L139.026 12.6153C138.788 12.3468 138.445 12.1914 138.086 12.1914C137.727 12.1914 137.384 12.3449 137.146 12.6153L135.775 14.1652C135.326 14.6715 134.681 14.9631 134.004 14.9631H112.433C111.819 16.7143 111.418 18.5634 111.259 20.4834H131.624C131.983 20.4834 132.324 20.3377 132.572 20.0787L134.469 18.1011C134.704 17.8537 135.032 17.7137 135.374 17.7137H135.453C135.811 17.7137 136.155 17.8671 136.392 18.1376L137.99 19.9425C138.295 20.2859 138.731 20.4834 139.191 20.4834H155.813C155.654 18.5634 155.253 16.7143 154.64 14.9631H145.766V14.9612Z" fill="black"/>
<path d="M123.585 32.0865C123.943 32.0865 124.285 31.9407 124.532 31.6818L126.429 29.7042C126.665 29.4568 126.993 29.3167 127.335 29.3167H127.413C127.772 29.3167 128.115 29.4702 128.353 29.7406L129.951 31.5456C130.256 31.8889 130.691 32.0865 131.152 32.0865H153.678C154.522 30.3429 155.14 28.4708 155.508 26.5124H133.887C133.428 26.5124 132.991 26.3149 132.686 25.9715L131.088 24.1666C130.851 23.898 130.507 23.7427 130.148 23.7427C129.79 23.7427 129.446 23.8961 129.209 24.1666L127.837 25.7164C127.388 26.2228 126.744 26.5144 126.067 26.5144H111.568C111.936 28.4747 112.554 30.3448 113.398 32.0884H123.585V32.0865Z" fill="black"/>
<path d="M139.565 8.93076C139.923 8.93076 140.265 8.78498 140.512 8.52604L142.409 6.54846C142.645 6.30102 142.973 6.161 143.315 6.161H143.393C143.752 6.161 144.095 6.31445 144.333 6.5849L145.931 8.38985C146.236 8.73319 146.671 8.93076 147.132 8.93076H151.415C147.335 3.50824 140.846 0 133.538 0C126.23 0 119.741 3.50824 115.661 8.93076H139.567H139.565Z" fill="black"/>
<path d="M130.96 37.6125H125.102C124.644 37.6125 124.206 37.415 123.901 37.0716L122.304 35.2667C122.066 34.9981 121.722 34.8428 121.364 34.8428C121.005 34.8428 120.662 34.9962 120.424 35.2667L119.052 36.8165C118.604 37.3229 117.959 37.6145 117.282 37.6145H117.19C121.272 41.9878 127.082 44.7249 133.536 44.7249C139.991 44.7249 145.801 41.9878 149.882 37.6145H130.96V37.6125Z" fill="black"/>
<path d="M34.6854 43.2785L30.1356 32.2282H9.80927L5.25949 43.2785H0L19.9427 1.44434L39.9449 43.2785H34.6854ZM11.5222 28.0333H28.3633L19.9159 10.2101L11.5241 28.0333H11.5222Z" fill="black"/>
<path d="M47.2092 43.2785V1.44434H58.8503C67.9499 1.44434 72.7356 5.63926 72.7356 13.4978C72.7356 21.3563 67.6545 25.4342 58.7908 25.4342H52.1139V43.2785H47.2092ZM52.1139 21.0609H57.6687C64.7006 21.0609 67.7734 18.7573 67.7734 13.4978C67.7734 8.23831 64.6411 5.81573 57.6687 5.81573H52.1139V21.0609Z" fill="black"/>
<path d="M90.5492 5.93465H76.1326V1.44434H109.872V5.93465H95.4538V43.2785H90.5492V5.93465Z" fill="black"/>
<path d="M162.718 35.6559L166.942 32.7902L167.268 33.4692C169.867 38.1955 172.704 40.0868 177.018 40.0868C181.804 40.0868 185.172 36.778 185.172 32.7595C185.172 28.977 183.28 26.4374 175.717 23.3051C167.032 19.701 164.076 15.9779 164.076 10.6609C164.076 4.87009 168.626 0.320312 176.485 0.320312C182.275 0.320312 186.234 2.80236 188.481 6.82082L185.053 9.18394L184.048 8.94801C182.275 6.17057 180.089 4.5747 176.366 4.5747C171.816 4.5747 169.157 7.11621 169.157 10.542C169.157 13.7318 170.87 15.5636 178.257 18.9318C187.888 23.3051 190.253 26.9093 190.253 32.7001C190.253 39.0222 184.817 44.3987 177.075 44.3987C170.575 44.3987 166.085 41.9166 162.716 35.654L162.718 35.6559Z" fill="black"/>
</svg>
