<svg width="52" height="52" viewBox="0 0 52 52" fill="none" xmlns="http://www.w3.org/2000/svg">
    <path d="M28.65 0C28.97 0.2 29.3501 0.1 29.7001 0.19C29.8801 0.24 30.07 0.24 30.24 0.28C30.75 0.4 31.0301 0.8 30.9501 1.27C30.8601 1.75 30.43 2.04 29.89 1.96C28.59 1.77 27.29 1.65 25.98 1.74C23.47 1.92 20.98 2.26 18.51 2.77C16.7 3.14 14.92 3.58 13.24 4.38C10.29 5.77 8.50002 8.19 7.27002 11.1C6.91002 11.95 6.65008 12.83 6.46008 13.74C6.19008 15.06 5.64999 16.29 5.12 17.52C4.67 18.55 4.71008 18.69 5.58008 19.4C5.99008 19.74 6.32005 20.12 6.55005 20.6C6.86005 21.27 6.84002 21.92 6.52002 22.59C5.37002 24.99 3.9701 27.23 2.3501 29.33C1.5501 30.37 1.45008 30.23 2.71008 31.02C2.98008 31.19 3.27005 31.31 3.55005 31.47C4.90005 32.25 5.31007 33.5 4.70007 34.95C4.54007 35.34 4.08008 35.72 4.21008 36.1C4.33008 36.43 4.83003 36.62 5.16003 36.89C5.57003 37.23 5.62 37.68 5.25 38.18C5 38.52 5.03003 38.67 5.41003 38.88C6.61003 39.53 7.08009 40.72 6.72009 42.15C6.51009 42.96 6.53007 43.74 6.82007 44.52C7.12007 45.31 7.85003 45.73 8.66003 45.53C12.94 44.47 17.0701 42.97 21.2001 41.45C21.8601 41.21 22.47 40.84 23 40.37C23.5 39.93 23.82 39.42 23.87 38.73C23.91 38.15 24.26 37.86 24.79 37.9C25.27 37.93 25.5801 38.29 25.5701 38.83C25.5501 40.02 24.9801 40.94 24.1001 41.69C22.9801 42.64 21.65 43.19 20.28 43.65C19.57 43.89 18.86 44.14 18.11 44.39C18.43 44.8 18.76 45.19 19.04 45.59C19.89 46.78 20.55 48.08 20.98 49.49C21.06 49.74 21.1301 49.91 21.4701 49.91C27.7501 49.87 34.0301 49.85 40.3101 49.83C40.3701 49.83 40.4401 49.82 40.5701 49.8C40.0101 48.9 39.5601 48 39.2101 47.04C38.4401 44.95 38.01 42.79 37.75 40.59C37.69 40.09 38.02 39.68 38.49 39.62C38.97 39.56 39.3701 39.84 39.4401 40.37C39.6701 42.02 39.95 43.65 40.42 45.24C40.81 46.58 41.34 47.86 42.14 49.02C42.37 49.35 42.5601 49.71 42.7201 50.07C43.1301 50.99 42.77 51.54 41.77 51.54C38.98 51.56 36.19 51.57 33.41 51.58C29.19 51.59 24.98 51.6 20.76 51.61C19.97 51.61 19.78 51.46 19.55 50.7C19.05 49.02 18.39 47.41 17.25 46.05C16.38 45.01 16.3401 45.01 15.0601 45.45C13.0601 46.13 11.04 46.72 8.98999 47.21C7.42999 47.58 5.84 46.78 5.25 45.31C4.82 44.24 4.70009 43.14 4.97009 42.01C5.23009 40.89 5.17006 40.77 4.19006 40.19C3.17006 39.59 2.98999 39.14 3.35999 38.04C3.43999 37.8 3.36008 37.71 3.21008 37.6C2.28008 36.91 1.80999 36.61 2.73999 34.97C3.53999 33.57 3.48003 33.38 2.03003 32.64C1.14003 32.19 0.37 31.64 0 30.67V29.86C0.29 29.3 0.58998 28.75 0.97998 28.25C2.35998 26.53 3.55002 24.69 4.52002 22.71C5.18002 21.36 5.41999 21.63 4.10999 20.44C3.13999 19.56 2.8301 18.47 3.3501 17.31C4.0801 15.67 4.58007 13.96 5.07007 12.24C6.56007 7.06 9.70001 3.39 15.01 1.86C17.9 1.03 20.8601 0.54 23.8401 0.22C24.2201 0.18 24.63 0.22 24.99 0.02H28.62L28.65 0Z" fill="#050505"/>
    <path d="M34.7001 0C35.1501 0.26 35.3301 0.63 35.3101 1.16C35.2801 1.88 35.31 2.6 35.3 3.32C35.3 3.91 34.9601 4.3 34.4601 4.31C33.9501 4.33 33.5901 3.92 33.5901 3.31C33.5901 2.62 33.6201 1.94 33.5801 1.25C33.5501 0.73 33.69 0.32 34.11 0H34.7101H34.7001Z" fill="#050505"/>
    <path d="M45.6001 18.6298C45.5201 21.3698 44.1 24.5398 41.01 26.8898C40.34 27.3998 39.67 27.8998 39.08 28.4998C38.82 28.7598 38.57 29.0298 38.38 29.3498C38.23 29.5898 38.06 29.8398 38.03 30.1198C38 30.4898 38.4101 30.4698 38.6001 30.6398C39.1901 31.1498 39.55 31.7698 39.58 32.5498C39.61 33.1998 39.61 33.8598 39.58 34.5098C39.53 35.4898 39.05 36.2298 38.17 36.6798C37.95 36.7998 37.8601 36.9298 37.8401 37.1798C37.6901 39.0598 36.26 40.4098 34.45 40.4198C32.61 40.4198 31.15 39.0698 31 37.1798C30.98 36.8998 30.88 36.7898 30.65 36.6598C29.84 36.2298 29.37 35.5298 29.29 34.6198C29.23 33.9198 29.24 33.2098 29.29 32.5098C29.35 31.6198 29.78 30.8998 30.57 30.4698C30.9 30.2898 30.89 30.1298 30.77 29.8498C30.42 29.0598 29.83 28.4698 29.18 27.9298C28.59 27.4398 27.96 26.9798 27.37 26.4898C24.48 24.0698 23.18 20.9298 23.27 17.2198C23.4 11.8998 26.94 7.56983 32.06 6.32983C36.5 5.25983 41.39 7.35983 43.88 11.3998C45.05 13.2898 45.6201 15.3398 45.6001 18.6398V18.6298ZM37.02 28.2898C37.99 26.9898 39.1701 26.1198 40.3401 25.2198C40.8701 24.8098 41.36 24.3498 41.77 23.8098C44.52 20.2498 44.65 15.3898 41.9799 11.7798C39.6999 8.69983 36.61 7.16983 32.78 7.93983C28.76 8.74983 26.2 11.3798 25.28 15.3298C24.35 19.3198 25.51 22.7598 28.75 25.3798C29.59 26.0498 30.47 26.6698 31.19 27.4798C31.39 27.7098 31.6 27.9398 31.87 28.2498V21.6498C31.87 21.0165 31.5567 20.6832 30.93 20.6498C29.74 20.5998 28.7199 19.7498 28.4799 18.6198C28.24 17.4798 28.78 16.3198 29.81 15.7798C31.57 14.8498 33.5601 16.1298 33.5901 18.2098C33.5901 18.6965 33.8233 18.9398 34.29 18.9398C35.27 18.9398 35.25 18.9398 35.31 17.9298C35.37 16.8998 35.88 16.1498 36.82 15.7298C37.77 15.3098 38.7 15.4198 39.51 16.0898C40.3 16.7398 40.61 17.5998 40.39 18.6098C40.12 19.8398 39.11 20.6398 37.82 20.6598C37.2867 20.6665 37.02 20.9398 37.02 21.4798C37.02 23.2398 37.02 25.0098 37.02 26.7698C37.02 27.2298 37.02 27.6998 37.02 28.2898ZM34.4 31.8398C33.58 31.8398 32.75 31.8398 31.93 31.8398C31.33 31.8398 31 32.1698 30.99 32.7698C30.98 33.2898 30.97 33.8098 30.99 34.3298C31.01 34.9298 31.34 35.2598 31.94 35.2598C33.6 35.2598 35.26 35.2598 36.93 35.2598C37.51 35.2598 37.84 34.9498 37.86 34.3598C37.88 33.8198 37.88 33.2898 37.86 32.7498C37.84 32.1298 37.53 31.8398 36.91 31.8298C36.07 31.8298 35.23 31.8298 34.39 31.8298L34.4 31.8398ZM35.3 25.3998C35.3 24.2298 35.3 23.0498 35.3 21.8798C35.3 21.4798 35.4901 20.9398 35.2201 20.7298C34.9701 20.5298 34.45 20.6898 34.05 20.6498C33.68 20.6098 33.57 20.7298 33.58 21.1098C33.6 23.6898 33.5801 26.2798 33.5901 28.8598C33.5901 29.2598 33.46 29.7998 33.66 30.0298C33.9 30.2998 34.45 30.0698 34.86 30.1198C35.21 30.1598 35.32 30.0398 35.31 29.6798C35.29 28.2498 35.31 26.8298 35.31 25.3998H35.3ZM34.4701 36.9898C33.9701 36.9898 33.4701 36.9898 32.9701 36.9898C32.7901 36.9898 32.7 37.0198 32.7299 37.2398C32.83 38.0198 33.57 38.6798 34.4 38.6998C35.23 38.7198 36 38.0998 36.13 37.3198C36.18 37.0498 36.11 36.9698 35.83 36.9798C35.38 36.9998 34.9299 36.9798 34.4799 36.9798L34.4701 36.9898ZM31.31 18.9298C31.46 18.8598 31.7901 19.0798 31.8401 18.7898C31.9001 18.3998 31.9401 17.9798 31.7101 17.6098C31.4901 17.2498 31.14 17.1398 30.75 17.2498C30.35 17.3598 30.14 17.6498 30.15 18.0798C30.15 18.6398 30.55 18.9298 31.31 18.9398V18.9298ZM37.02 18.3898C37.09 18.5398 36.87 18.8598 37.16 18.9098C37.49 18.9698 37.86 18.9898 38.19 18.8498C38.59 18.6798 38.8001 18.2798 38.7101 17.8798C38.6101 17.4498 38.23 17.1798 37.78 17.2198C37.25 17.2698 37.01 17.6198 37.01 18.3798L37.02 18.3898Z" fill="#050505"/>
    <path d="M7.93994 15.1001C8.39994 12.4701 9.31994 10.1201 11.0599 8.1501C12.4199 6.61011 14.1399 5.6501 16.1099 5.1201C16.6499 4.9801 17.07 5.2201 17.21 5.7101C17.34 6.1601 17.11 6.6001 16.59 6.7501C15.27 7.1301 14.0399 7.7001 13.0199 8.6201C11.3899 10.0901 10.4499 11.9801 9.91992 14.0801C9.80992 14.5001 9.73986 14.9301 9.60986 15.3501C9.46986 15.8001 9.07988 16.0101 8.62988 15.9301C8.19988 15.8501 7.91995 15.4701 7.94995 15.0901L7.93994 15.1001Z" fill="#050505"/>
    <path d="M46.85 5.61996C46.83 5.89996 46.7199 6.12996 46.5199 6.32996C45.9599 6.87996 45.41 7.44996 44.85 7.98996C44.39 8.42996 43.8899 8.44996 43.5299 8.05996C43.1799 7.68996 43.2099 7.20996 43.6399 6.76996C44.1999 6.19996 44.77 5.62996 45.34 5.06996C45.63 4.77996 45.98 4.69996 46.35 4.85996C46.67 4.99996 46.82 5.26996 46.85 5.61996Z" fill="#050505"/>
    <path d="M25.55 7.39987C25.55 7.80987 25.39 8.06987 25.09 8.22987C24.76 8.39987 24.4199 8.36987 24.1499 8.10987C23.4999 7.47987 22.8499 6.83987 22.2299 6.17987C21.8899 5.81987 21.9399 5.32987 22.2799 4.99987C22.5899 4.69987 23.09 4.65987 23.42 4.96987C24.09 5.59987 24.7299 6.26987 25.3799 6.92987C25.5099 7.06987 25.56 7.24987 25.55 7.37987V7.39987Z" fill="#050505"/>
    <path d="M49.4998 18.06C49.0598 18.06 48.6299 18.07 48.1899 18.06C47.7099 18.04 47.3499 17.69 47.3299 17.25C47.3099 16.79 47.6699 16.37 48.1599 16.35C49.0299 16.33 49.8998 16.33 50.7698 16.35C51.2798 16.36 51.6298 16.75 51.6298 17.22C51.6298 17.69 51.2698 18.04 50.7498 18.06C50.3298 18.07 49.9098 18.06 49.4898 18.06H49.4998Z" fill="#050505"/>
    <path d="M19.4002 18.0501C18.9602 18.0501 18.5303 18.0601 18.0903 18.0501C17.5803 18.0301 17.2602 17.7201 17.2402 17.2501C17.2202 16.7601 17.5302 16.3701 18.0502 16.3501C18.9402 16.3201 19.8203 16.3201 20.7103 16.3501C21.2203 16.3701 21.5402 16.7601 21.5102 17.2601C21.4802 17.7301 21.1602 18.0401 20.6602 18.0601C20.2402 18.0701 19.8202 18.0601 19.4002 18.0601V18.0501Z" fill="#050505"/>
    <path d="M8.61982 18.0602C8.61982 18.5402 8.22983 18.9402 7.75983 18.9202C7.28983 18.9102 6.89986 18.5002 6.90986 18.0402C6.91986 17.5902 7.29983 17.2202 7.75983 17.2202C8.24983 17.2202 8.61982 17.5702 8.61982 18.0602Z" fill="#050505"/>
</svg>
