<svg width="69" height="66" viewBox="0 0 69 66" fill="none" xmlns="http://www.w3.org/2000/svg">
    <g clip-path="url(#clip0_41_5728)">
        <path d="M35.9508 32.4662C35.9508 24.9473 35.9443 17.4283 35.9573 9.90944C35.9703 4.86627 38.6962 1.16577 43.003 0.288126C47.5635 -0.641913 51.4605 1.59804 53.3667 6.44472C53.8156 7.5778 54.3686 7.80048 55.481 7.92492C61.4728 8.59953 65.0315 13.7475 63.4571 19.5963C63.0732 21.0241 63.3595 21.5808 64.4785 22.3798C69.8067 26.1851 70.4378 33.0163 65.8707 37.66C64.9209 38.6227 64.9144 39.1009 65.5715 40.2601C69.2017 46.6787 65.5845 54.119 58.298 55.2259C56.8212 55.4486 56.4569 56.0512 56.2032 57.3545C55.1297 62.8758 50.6798 66.3405 45.4231 65.8689C39.9193 65.3777 36.0419 61.245 35.9768 55.5599C35.8922 47.8576 35.9573 40.1619 35.9573 32.4596L35.9508 32.4662ZM38.5856 13.2628C38.5856 14.9854 38.5726 16.7079 38.5921 18.437C38.5921 18.9478 38.475 19.5046 39.1126 19.832C42.2223 21.4563 46.3405 19.2229 46.8869 15.6338C47.2057 13.5379 48.4939 12.3524 50.5952 12.49C52.5665 12.621 53.77 13.8981 53.7895 15.8826C53.8156 17.9982 52.6055 19.2164 50.4716 19.4194C49.7885 19.4849 48.9102 18.9937 48.4483 19.7469C46.4706 22.9955 43.3218 22.6549 40.2771 22.4781C38.1172 22.3536 38.4815 23.8207 38.6181 24.9865C38.7548 26.1524 37.6032 28.1238 40.2576 28.0517C43.2307 27.9732 46.2038 28.0517 49.177 28.0255C51.5255 28.0059 53.8481 28.412 55.8909 26.3554C57.153 25.0848 59.0072 25.7332 60.1522 27.1938C61.2907 28.6543 61.2972 30.2262 60.009 31.6409C58.7469 33.0294 56.9318 33.5272 55.6957 32.2173C54.0563 30.4882 52.2282 30.6716 50.3025 30.665C47.2382 30.6585 44.161 30.8353 41.1163 30.6126C38.8523 30.4423 38.6051 31.3724 38.488 33.3372C38.3449 35.8195 39.1776 36.5007 41.5002 36.2256C43.1917 36.0226 44.9352 36.3369 46.6267 36.147C48.8191 35.9047 50.4131 36.6513 51.7858 38.3346C52.7356 39.5069 53.757 40.3649 55.6177 40.3191C57.6149 40.2732 58.8705 41.8451 58.6754 44.013C58.4932 46.0107 57.2376 47.1306 55.2533 47.1372C53.0999 47.1437 51.7858 45.8666 51.8378 43.7773C51.8703 42.4018 51.2133 41.701 50.5562 40.7252C48.9818 38.387 46.7048 38.8061 44.4993 38.7996C38.4099 38.7799 38.4555 38.7865 38.5466 44.8972C38.5661 46.3512 38.8328 47.052 40.4658 46.9473C42.398 46.8294 44.4733 46.4757 45.859 48.5126C46.0152 48.7484 46.6788 48.6698 47.1081 48.6698C49.4632 48.6501 51.0051 49.757 51.0441 52.1607C51.0766 54.2238 49.8405 55.5534 47.7002 55.6778C45.6248 55.7957 44.2066 54.3417 44.1936 51.8136C44.1871 50.091 43.3934 49.6588 41.9231 49.5016C39.6135 49.2527 38.0456 49.6064 38.5531 52.534C38.7222 53.5034 38.5531 54.5251 38.5921 55.5206C38.7417 60.1643 42.1247 63.4915 46.5096 63.3408C50.7058 63.1902 53.9392 59.6927 53.7635 55.1735C53.6854 53.1235 54.1343 52.4227 56.3008 52.6716C59.5666 53.0449 62.1169 51.6105 63.5872 48.6108C65.0575 45.6177 64.6411 42.7162 62.3836 40.3191C60.9589 38.8061 60.8288 37.8957 62.7349 36.8085C65.4544 35.2628 66.5538 32.7543 66.196 29.7022C65.8512 26.768 64.2248 24.646 61.4078 23.6897C59.6447 23.0937 58.9746 22.3929 60.1912 20.6049C61.7786 18.2732 61.72 15.791 60.1912 13.4462C58.7274 11.2063 56.5675 10.1518 53.9262 10.5906C51.9549 10.9181 51.2523 10.4269 51.0897 8.2917C50.8294 4.86627 47.8693 2.54118 44.5904 2.72457C41.2269 2.90795 38.7743 5.41644 38.6051 8.90081C38.5336 10.3483 38.5921 11.8023 38.5986 13.2563L38.5856 13.2628Z" fill="#1A1A1A" stroke="#282727" stroke-width="0.25" stroke-miterlimit="10"/>
        <path d="M33.0557 32.499C33.0557 40.1096 33.1208 47.7202 33.0362 55.3308C32.9712 60.9372 29.4906 65.0045 24.338 65.7905C19.3872 66.5437 14.5143 63.7601 13.2262 58.8741C12.5691 56.3918 11.5803 55.4552 9.10156 54.8199C3.01868 53.2611 0.175669 46.24 3.21386 40.7056C4.08563 39.1141 3.8254 38.3871 2.70641 37.1623C-1.38571 32.6955 -0.585504 25.9953 4.40441 22.4913C5.57544 21.666 6.01133 21.0962 5.54291 19.5112C3.90997 13.9441 7.5597 8.59307 13.3303 7.95122C14.6249 7.80713 15.295 7.55824 15.783 6.18938C17.3704 1.73568 21.3324 -0.523925 25.7563 0.242374C29.985 0.975926 32.9972 4.62404 33.0492 9.39212C33.1338 17.0944 33.0687 24.7967 33.0687 32.4925H33.0622L33.0557 32.499ZM22.4384 28.0191V28.0322C24.4226 28.0322 26.4134 27.875 28.3781 28.0715C30.9999 28.3269 30.4014 26.5847 30.473 25.1176C30.5445 23.5785 30.6941 22.2358 28.3781 22.4651C25.5026 22.7532 22.5685 22.8777 20.7338 19.8583C20.35 19.2296 19.6669 19.4195 19.0228 19.3933C16.4856 19.3016 15.1454 18.0179 15.2365 15.8303C15.3211 13.7738 16.5116 12.6669 18.4438 12.4573C20.4931 12.2346 22.1196 13.8393 22.0675 16.2037C22.0415 17.2647 22.4839 17.8083 23.0434 18.5419C24.6308 20.6377 26.8297 19.6291 28.788 19.8714C30.1021 20.0352 30.525 19.4588 30.499 18.1816C30.4339 15.0968 30.5575 12.0119 30.4404 8.93365C30.3103 5.46893 27.7666 2.93425 24.4486 2.73121C21.3259 2.54127 18.2226 4.76158 17.9689 8.03636C17.7672 10.6824 16.7133 10.7282 14.5664 10.5972C9.40082 10.2829 5.99832 15.6339 8.59411 20.1138C9.9343 22.4323 9.30324 22.9956 7.16285 23.9191C1.74356 26.2638 1.1125 33.3832 6.04386 36.6645C8.10618 38.0399 8.06064 38.8062 6.46673 40.5091C4.30031 42.8342 3.98153 45.7422 5.4128 48.6044C6.83105 51.4403 9.27722 53.0777 12.439 52.6848C15.1194 52.3507 15.4056 53.3528 15.308 55.6714C15.1324 59.8238 18.3723 63.092 22.4839 63.3213C26.3613 63.5374 29.8809 60.5966 30.3624 56.6342C30.525 55.2915 30.3038 53.8964 30.499 52.5669C30.8698 50.006 29.8094 49.2724 27.3827 49.4296C25.2163 49.5672 24.7089 50.5365 24.7544 52.5538C24.7999 54.4531 23.4272 55.4945 21.6186 55.6517C19.9076 55.7958 18.6195 54.9509 18.1315 53.2611C17.6241 51.5124 18.0275 49.4624 19.784 49.2331C22.8352 48.8271 25.2033 46.0959 28.5407 46.8949C30.0696 47.2617 30.473 46.4103 30.5055 44.9039C30.6226 38.7931 30.6746 38.7931 24.5267 38.7997C23.6289 38.7997 22.7246 38.7735 21.8268 38.8062C19.732 38.8848 17.2533 41.3475 17.2012 43.4761C17.1492 45.7815 16.0042 47.1045 13.7597 47.1307C11.6518 47.1569 10.3246 45.9191 10.3311 43.7512C10.3311 41.485 11.6778 40.1685 13.9093 40.2406C14.9372 40.2733 15.7244 40.1227 16.2384 39.3368C18.1771 36.3763 20.9876 35.8458 24.2144 36.1602C25.7303 36.3108 27.2786 36.134 28.8075 36.193C31.4683 36.2977 30.2908 34.2674 30.4469 33.1081C30.6031 31.9423 30.9023 30.5538 28.7554 30.6324C24.891 30.7765 21.0136 30.6979 17.1362 30.6455C15.8285 30.6258 14.8071 30.8354 13.7987 31.8833C12.2959 33.4356 10.4613 33.1998 9.02349 31.6803C7.67029 30.2459 7.62475 28.53 8.97795 27.0301C10.4157 25.4386 12.3349 25.2159 13.7402 26.7419C14.9307 28.0322 16.1538 28.0387 17.5786 28.0191C19.1985 27.9994 20.8184 28.0191 22.4449 28.0191H22.4384Z" fill="#1A1A1A" stroke="#282727" stroke-width="0.25" stroke-miterlimit="10"/>
    </g>
    <defs>
        <clipPath id="clip0_41_5728">
            <rect width="69" height="66" fill="white"/>
        </clipPath>
    </defs>
</svg>
