<svg width="71" height="80" viewBox="0 0 71 80" fill="none" xmlns="http://www.w3.org/2000/svg">
    <g clip-path="url(#clip0_165_7383)">
        <path d="M22.6711 80C22.655 77.2946 22.637 74.5891 22.623 71.8836C22.619 70.9457 22.5849 70.0078 22.635 69.0719C22.6651 68.5028 22.4607 68.3905 21.9357 68.3925C18.1369 68.4146 14.336 68.3865 10.5371 68.4226C9.84785 68.4286 9.68756 68.2503 9.69357 67.5669C9.72763 62.699 9.69758 57.8291 9.72963 52.9613C9.73364 52.2839 9.53127 52.0494 8.8801 51.9112C5.94278 51.2859 3.01948 50.5985 0.00201416 49.9131C0.765397 48.5484 1.49472 47.2397 2.22604 45.9331C4.09142 42.6023 5.90871 39.2415 7.85424 35.9569C8.57154 34.7464 8.80797 33.5921 8.61562 32.2133C8.21489 29.3495 8.58156 26.5057 9.07845 23.678C9.14658 23.2912 9.33492 23.2331 9.65951 23.2391C10.3628 23.2531 11.0661 23.2231 11.7673 23.2531C12.1781 23.2692 12.2843 23.1169 12.3163 22.7201C12.3965 21.7782 12.148 21.1348 11.3245 20.4996C7.82619 17.8041 6.26937 12.7779 7.62783 8.40707C9.06643 3.77369 12.2642 0.972018 17.0629 0.184423C23.3603 -0.849671 29.8501 3.72159 30.373 11.3591C31.0683 8.93615 31.7094 6.70563 32.3506 4.47511C32.6512 3.42699 32.9617 2.38287 33.2462 1.33074C33.3264 1.03615 33.3925 0.843758 33.7552 1.00007C37.8866 2.77968 42.0201 4.55527 46.2959 6.393C45.0656 7.01025 43.9717 7.58341 42.8556 8.11047C42.4729 8.29084 42.3868 8.43713 42.5831 8.84596C43.5549 10.8841 44.4966 12.9362 45.4283 14.9944C45.5846 15.3391 45.7469 15.5215 46.1656 15.4994C46.945 15.4574 47.7265 15.5054 48.5079 15.4794C49.8443 15.4333 50.9022 14.4453 50.9463 13.1246C50.9984 11.4853 50.9603 9.84398 50.9804 8.20466C50.9844 7.86397 50.8722 7.72169 50.5355 7.76778C50.4835 7.77379 50.4314 7.76978 50.3793 7.76778C49.7601 7.74974 48.9407 7.96618 48.57 7.65355C48.1312 7.2828 48.4357 6.43508 48.4277 5.79579C48.4037 4.05226 48.4337 2.30672 48.4097 0.56319C48.4037 0.120293 48.5299 4.98211e-05 48.9687 0.00405794C51.1807 0.0261026 53.3927 0.0281066 55.6047 0.00405794C56.0776 -0.00195424 56.1477 0.170395 56.1437 0.585235C56.1237 2.77166 56.1217 4.96009 56.1437 7.14652C56.1497 7.61347 56.0395 7.84193 55.5446 7.77179C55.4685 7.76177 55.3883 7.77179 55.3102 7.77179C54.1548 7.77847 53.5771 8.34829 53.5771 9.48125C53.5771 10.4973 53.5811 11.5114 53.5751 12.5274C53.557 15.8902 51.4632 18.0125 48.0851 18.0947C47.7225 18.1027 47.3578 18.0947 46.8649 18.0947C47.6483 19.7901 48.3937 21.4074 49.137 23.0227C49.2252 23.2151 49.3774 23.2531 49.5778 23.2531C51.347 23.2471 53.1182 23.2351 54.8874 23.2632C55.3663 23.2712 55.4264 22.9385 55.5526 22.6419C57.2918 18.5917 59.0269 14.5375 60.7621 10.4853C61.273 9.29287 61.836 8.12049 62.2828 6.90603C62.6114 6.01022 63.1484 5.37093 63.9178 4.81981C65.9014 3.39492 67.8389 1.90391 69.7964 0.444951C69.9327 0.342744 70.0389 0.168391 70.3234 0.206468C70.3234 2.1464 70.2432 4.09033 70.3434 6.02625C70.4596 8.25477 70.0469 10.3029 69.1072 12.345C67.5884 15.6417 66.272 19.0306 64.8735 22.3814C64.5089 23.2551 64.5129 23.2571 65.4185 23.2531C67.1516 23.2471 67.1176 23.2531 67.35 25.0227C67.9411 29.5379 67.9711 34.069 67.4602 38.5742C66.6728 45.5302 63.8977 51.6546 59.2573 56.9133C57.6845 58.6949 55.9393 60.2901 54.0138 61.681C53.7193 61.8934 53.565 62.1118 53.567 62.5066C53.5871 68.3384 53.5871 74.1702 53.5911 80.0021H22.6711V80ZM38.1511 25.8063H32.9998C26.0272 25.8063 19.0545 25.8123 12.0819 25.7963C11.5229 25.7963 11.3025 25.8825 11.2324 26.5298C10.9639 29.0308 11.0019 31.5139 11.3987 33.9929C11.4748 34.4739 11.3926 34.8847 11.1442 35.3236C8.84203 39.3918 6.56991 43.4761 4.27175 47.5463C3.99124 48.0413 4.00326 48.1977 4.62238 48.3259C6.90652 48.8009 9.17062 49.372 11.4548 49.853C12.136 49.9973 12.3344 50.2698 12.3283 50.9753C12.2903 55.5566 12.3083 60.1378 12.3103 64.7191C12.3103 65.4379 12.6576 65.7973 13.3522 65.7973C17.0729 65.7973 20.7937 65.8093 24.5144 65.7833C25.0614 65.7793 25.2037 65.9195 25.1997 66.4687C25.1736 69.8775 25.1997 73.2885 25.1716 76.6974C25.1676 77.2745 25.2958 77.4369 25.8949 77.4349C34.0116 77.4108 42.1303 77.4088 50.247 77.4328C50.8982 77.4328 50.9844 77.2084 50.9824 76.6473C50.9623 71.597 50.9784 66.5488 50.9563 61.4986C50.9543 60.9254 51.1046 60.5787 51.5955 60.232C58.0772 55.6648 62.3309 49.5464 64.2544 41.8408C65.5267 36.7465 65.2442 31.57 64.9677 26.3995C64.9356 25.8103 64.607 25.7963 64.1402 25.7963C55.4765 25.8083 46.8128 25.8043 38.1471 25.8043L38.1511 25.8063ZM20.0243 19.233V21.2631C20.0243 23.3694 20.0243 23.3553 22.1201 23.2632C22.5529 23.2451 22.641 23.0888 22.629 22.706C22.607 21.9786 22.655 21.2471 22.611 20.5216C22.5809 20.0146 22.7612 19.75 23.196 19.4775C26.4339 17.4554 28.0348 14.5435 27.6882 10.7037C27.3155 6.57537 24.0696 3.26266 19.9682 2.69751C15.8167 2.12636 11.7673 4.54926 10.3087 8.47922C8.84403 12.4292 10.2265 16.8361 13.7469 19.0967C14.6185 19.6559 15.0773 20.227 14.8669 21.2531C14.8609 21.2771 14.8669 21.3052 14.8669 21.3312C14.8669 23.3153 14.8669 23.2952 16.8726 23.2652C17.3735 23.2571 17.4777 23.0848 17.4737 22.6279C17.4536 20.3893 17.4536 18.1528 17.4737 15.9143C17.4777 15.4694 17.3454 15.2389 16.9347 15.0225C15.3719 14.2028 14.6145 12.5595 14.9691 10.9081C15.3618 9.08044 16.8205 7.84995 18.6498 7.80586C20.431 7.76177 22.0119 8.93615 22.4747 10.6476C22.9456 12.3911 22.1662 14.1908 20.5092 15.0505C20.1205 15.2509 20.0022 15.4654 20.0123 15.8822C20.0403 17.0005 20.0223 18.1207 20.0223 19.239L20.0243 19.233ZM58.0892 23.2511C59.2173 23.2511 60.2071 23.2351 61.1949 23.2591C61.5936 23.2692 61.7859 23.1269 61.9382 22.7541C63.6753 18.5356 65.4245 14.3211 67.1997 10.1185C67.374 9.7057 67.2578 9.57945 66.9232 9.42514C66.3582 9.16661 65.7792 8.91811 65.2562 8.58944C64.7152 8.24875 64.4688 8.29685 64.2083 8.93414C63.1885 11.4292 62.1045 13.9002 61.0426 16.3792C60.0748 18.6378 59.1011 20.8964 58.0892 23.2531V23.2511ZM42.8096 15.4834C41.6454 12.9683 40.5394 10.5735 39.4314 8.18062C39.1309 7.52996 39.2979 7.03296 39.9323 6.6896C39.9644 6.67156 39.9724 6.60943 40.0165 6.51124C38.8083 5.99619 37.6001 5.48516 36.3959 4.96611C35.5103 4.58534 34.9313 4.86791 34.6588 5.81382C34.3502 6.88599 34.0417 7.95817 33.7071 9.11852C34.4698 8.78851 35.0047 8.96086 35.312 9.63556C36.1295 11.4252 36.9529 13.2128 37.7584 15.0064C37.8987 15.3191 38.0249 15.5014 38.4256 15.4934C39.8522 15.4634 41.2788 15.4814 42.8116 15.4814L42.8096 15.4834ZM35.1377 15.5315C34.6688 14.4834 34.206 13.4513 33.7451 12.4172C33.6029 12.0965 33.4246 12.2028 33.1901 12.323C32.2925 12.7839 31.3889 13.2369 30.4752 13.6637C30.1466 13.818 30.0625 14.0625 29.9843 14.3832C29.3712 16.8502 28.141 18.9765 26.1293 20.5276C25.3058 21.1609 25.0875 21.8122 25.1616 22.7481C25.1936 23.167 25.3159 23.2732 25.7106 23.2612C26.6182 23.2371 27.5279 23.2531 28.4375 23.2531C29.7065 23.2531 30.3403 22.6305 30.339 21.3854C30.335 18.0546 31.8357 16.1968 35.1357 15.5315H35.1377ZM39.1569 18.0927C39.9263 19.7801 40.6637 21.3733 41.375 22.9766C41.5052 23.2712 41.7196 23.2471 41.946 23.2471C43.2463 23.2531 44.5447 23.2431 45.8451 23.2612C46.2418 23.2672 46.366 23.175 46.1797 22.7782C45.5084 21.3473 44.8533 19.9084 44.1921 18.4715C44.0939 18.257 43.9917 18.0827 43.6891 18.0847C42.2145 18.1007 40.7398 18.0927 39.1589 18.0927H39.1569ZM38.666 23.2511C37.8866 21.5357 37.1573 19.9424 36.44 18.3432C36.3639 18.1749 36.2577 18.1268 36.0934 18.0927C34.5766 17.7881 33.0619 18.9224 32.9657 20.4775C32.9196 21.227 32.9737 21.9826 32.9377 22.7341C32.9176 23.1549 33.0679 23.2612 33.4686 23.2571C35.1537 23.2391 36.8387 23.2491 38.666 23.2491V23.2511ZM52.2867 5.18455C53.1456 5.18455 53.5744 4.77639 53.573 3.96007C53.573 3.07561 53.1242 2.63338 52.2266 2.63338C51.3891 2.63338 50.971 3.05557 50.9723 3.89995C50.9737 4.74432 51.4118 5.17252 52.2867 5.18455ZM18.7039 12.9322C19.3851 12.9563 20.0022 12.3631 20.0163 11.6737C20.0303 10.9843 19.4392 10.3751 18.748 10.365C18.0908 10.355 17.5217 10.9081 17.4917 11.5875C17.4596 12.307 18.0026 12.9102 18.7039 12.9322ZM66.3021 6.28878C66.8551 6.46915 67.2819 6.97618 67.6345 6.80182C67.9711 6.63549 67.7127 6.00822 67.7607 5.58536C67.7728 5.48315 67.7607 5.38095 67.5744 5.32884C67.2198 5.59538 66.8331 5.88797 66.3021 6.28878Z" fill="#040404"/>
        <path d="M38.1511 25.8063C46.8148 25.8063 55.4785 25.8103 64.1442 25.7983C64.611 25.7983 64.9396 25.8123 64.9717 26.4015C65.2482 31.5739 65.5307 36.7484 64.2584 41.8427C62.3349 49.5483 58.0792 55.6667 51.5995 60.234C51.1086 60.5787 50.9583 60.9274 50.9603 61.5005C50.9823 66.5508 50.9663 71.599 50.9863 76.6492C50.9883 77.2124 50.9022 77.4368 50.251 77.4348C42.1343 77.4108 34.0156 77.4148 25.8989 77.4368C25.3018 77.4368 25.1716 77.2765 25.1756 76.6993C25.2036 73.2904 25.1756 69.8795 25.2036 66.4706C25.2077 65.9235 25.0654 65.7832 24.5184 65.7852C20.7977 65.8113 17.0769 65.7993 13.3562 65.7993C12.6629 65.7993 12.3156 65.4399 12.3143 64.7211C12.3143 60.1398 12.2943 55.5585 12.3323 50.9772C12.3383 50.2718 12.142 49.9993 11.4588 49.855C9.17462 49.374 6.91052 48.8028 4.62638 48.3279C4.00726 48.1996 3.99724 48.0433 4.27575 47.5483C6.57591 43.4781 8.84602 39.3938 11.1482 35.3255C11.3966 34.8867 11.4788 34.4758 11.4027 33.9949C11.0079 31.5158 10.9679 29.0328 11.2364 26.5317C11.3065 25.8824 11.5269 25.7962 12.0859 25.7983C19.0585 25.8143 26.0311 25.8083 33.0038 25.8083C34.7209 25.8083 36.438 25.8083 38.1551 25.8083L38.1511 25.8063ZM16.1833 29.6901C15.8968 29.6901 15.6083 29.7142 15.3258 29.6841C14.913 29.642 14.8709 29.8244 14.901 30.1851C15.1254 33.0369 16.8665 35.1632 19.6155 35.9107C23.2221 36.8887 26.8086 34.7524 27.626 31.1371C27.8438 30.1724 27.4617 29.6901 26.48 29.6901C26.2716 29.6901 26.0592 29.7162 25.8568 29.6841C25.3419 29.608 25.1856 29.7723 25.1295 30.3274C24.9332 32.3054 23.3783 33.578 21.3026 33.56C19.1988 33.5419 17.6961 32.2633 17.5257 30.2873C17.4857 29.8244 17.3695 29.618 16.8866 29.6841C16.6562 29.7162 16.4197 29.6901 16.1853 29.6881L16.1833 29.6901Z" fill="#FDFDFD"/>
        <path d="M20.0243 19.2329C20.0243 18.1146 20.0423 16.9944 20.0142 15.8761C20.0042 15.4593 20.1224 15.2468 20.5111 15.0444C22.1681 14.1847 22.9496 12.385 22.4767 10.6415C22.0139 8.93204 20.433 7.75766 18.6518 7.79975C16.8225 7.84384 15.3638 9.07433 14.9711 10.902C14.6165 12.5534 15.3738 14.1967 16.9367 15.0164C17.3474 15.2328 17.4797 15.4633 17.4756 15.9082C17.4556 18.1467 17.4556 20.3832 17.4756 22.6218C17.4797 23.0787 17.3775 23.251 16.8746 23.2591C14.8689 23.2891 14.8689 23.3092 14.8689 21.3251C14.8689 21.2991 14.8649 21.273 14.8689 21.247C15.0793 20.2229 14.6205 19.6497 13.7489 19.0906C10.2285 16.832 8.84401 12.4231 10.3107 8.47311C11.7673 4.54516 15.8186 2.12025 19.9702 2.6914C24.0716 3.25655 27.3175 6.56925 27.6901 10.6976C28.0368 14.5374 26.4359 17.4493 23.198 19.4714C22.7632 19.7439 22.5809 20.0085 22.613 20.5155C22.657 21.241 22.6069 21.9724 22.631 22.6999C22.643 23.0827 22.5548 23.239 22.1221 23.257C20.0263 23.3492 20.0263 23.3633 20.0263 21.257C20.0263 20.5796 20.0263 19.9043 20.0263 19.2269L20.0243 19.2329Z" fill="#FBFBFB"/>
        <path d="M58.0912 23.2511C59.1051 20.8944 60.0768 18.6378 61.0446 16.3772C62.1065 13.8982 63.1885 11.4292 64.2103 8.93213C64.4708 8.29484 64.7172 8.24875 65.2582 8.58743C65.7832 8.9161 66.3602 9.1646 66.9252 9.42312C67.2598 9.57744 67.376 9.70369 67.2017 10.1165C65.4265 14.319 63.6793 18.5336 61.9402 22.7521C61.7859 23.1249 61.5956 23.2672 61.1968 23.2571C60.2091 23.2331 59.2193 23.2491 58.0912 23.2491V23.2511Z" fill="#FBFBFB"/>
        <path d="M42.8116 15.4813C41.2788 15.4813 39.8522 15.4633 38.4256 15.4933C38.0269 15.5013 37.8987 15.319 37.7584 15.0063C36.9549 13.2107 36.1295 11.4251 35.312 9.63547C35.0047 8.96211 34.4698 8.78976 33.7071 9.11843C34.0417 7.95808 34.3482 6.8859 34.6588 5.81373C34.9326 4.86648 35.5117 4.58391 36.3959 4.96602C37.6021 5.48306 38.8103 5.9961 40.0165 6.51115C39.9724 6.60934 39.9644 6.67147 39.9323 6.68951C39.2979 7.03421 39.1309 7.53121 39.4314 8.18053C40.5394 10.5754 41.6474 12.9702 42.8095 15.4833L42.8116 15.4813Z" fill="#FBFBFB"/>
        <path d="M35.1396 15.5295C31.8397 16.1948 30.339 18.0526 30.343 21.3834C30.3443 22.6285 29.7105 23.2511 28.4415 23.2511C27.5319 23.2511 26.6222 23.2331 25.7146 23.2591C25.3199 23.2692 25.1996 23.165 25.1656 22.7461C25.0914 21.8102 25.3098 21.1609 26.1333 20.5256C28.145 18.9745 29.3752 16.8482 29.9883 14.3812C30.0685 14.0605 30.1506 13.816 30.4792 13.6617C31.3929 13.2349 32.2965 12.7819 33.1941 12.321C33.4285 12.2008 33.6069 12.0965 33.7491 12.4152C34.208 13.4493 34.6728 14.4814 35.1416 15.5295H35.1396Z" fill="#FBFBFB"/>
        <path d="M39.1589 18.0906C40.7398 18.0906 42.2145 18.0986 43.6891 18.0826C43.9917 18.0786 44.0939 18.2549 44.192 18.4694C44.8552 19.9043 45.5084 21.3452 46.1796 22.7761C46.366 23.1729 46.2438 23.2631 45.845 23.2591C44.5467 23.243 43.2463 23.2511 41.946 23.245C41.7196 23.245 41.5052 23.2691 41.3749 22.9745C40.6637 21.3712 39.9263 19.78 39.1569 18.0906H39.1589Z" fill="#FBFBFB"/>
        <path d="M38.668 23.2471C36.8407 23.2471 35.1557 23.2371 33.4706 23.2551C33.0719 23.2591 32.9196 23.1529 32.9397 22.7321C32.9757 21.9805 32.9216 21.225 32.9677 20.4755C33.0639 18.9203 34.5786 17.786 36.0954 18.0907C36.2597 18.1227 36.3659 18.1728 36.442 18.3412C37.1593 19.9404 37.8886 21.5336 38.668 23.2491V23.2471Z" fill="#FBFBFB"/>
        <path d="M52.2867 5.18447C51.4104 5.18447 50.9723 4.75627 50.9723 3.89987C50.9723 3.04347 51.3904 2.62128 52.2266 2.63331C53.1229 2.63331 53.5717 3.07554 53.573 3.95999C53.573 4.77765 53.1443 5.18581 52.2867 5.18447Z" fill="#FBFBFB"/>
        <path d="M18.7039 12.9322C18.0026 12.9082 17.4596 12.3049 17.4917 11.5875C17.5217 10.9081 18.0908 10.355 18.748 10.365C19.4392 10.375 20.0303 10.9863 20.0162 11.6737C20.0022 12.363 19.3851 12.9562 18.7039 12.9322Z" fill="#FBFBFB"/>
        <path d="M66.3021 6.28868C66.8331 5.88787 67.2198 5.59728 67.5744 5.32874C67.7607 5.37884 67.7728 5.48305 67.7607 5.58525C67.7126 6.00611 67.9691 6.63538 67.6345 6.80172C67.2819 6.97607 66.8551 6.46904 66.3021 6.28868Z" fill="#FBFBFB"/>
        <path d="M16.1833 29.6902C16.4177 29.6902 16.6562 29.7162 16.8846 29.6842C17.3675 29.618 17.4837 29.8224 17.5238 30.2874C17.6941 32.2634 19.1968 33.542 21.3006 33.56C23.3743 33.578 24.9292 32.3055 25.1275 30.3275C25.1836 29.7703 25.3399 29.608 25.8548 29.6842C26.0592 29.7142 26.2696 29.6902 26.478 29.6902C27.4597 29.6902 27.8418 30.1725 27.624 31.1371C26.8086 34.7524 23.2221 36.8887 19.6135 35.9108C16.8646 35.1653 15.1234 33.0389 14.899 30.1852C14.8709 29.8244 14.911 29.6421 15.3238 29.6842C15.6063 29.7142 15.8948 29.6902 16.1813 29.6902H16.1833Z" fill="#040404"/>
    </g>
    <defs>
        <clipPath id="clip0_165_7383">
            <rect width="70.3614" height="80" fill="white"/>
        </clipPath>
    </defs>
</svg>
