<svg width="80" height="80" viewBox="0 0 80 80" fill="none" xmlns="http://www.w3.org/2000/svg">
    <g clip-path="url(#clip0_165_7427)">
        <path d="M79.988 40.4401C79.5269 41.0857 78.8592 41.1559 78.1355 41.1559C72.3294 41.1498 66.5213 41.1679 60.7152 41.1458C60.1078 41.1438 59.8792 41.2922 59.9574 41.9097C60.0356 42.5232 59.6928 43.3672 60.0937 43.702C60.4666 44.0148 61.2786 43.8143 61.8981 43.8203C62.8885 43.8303 63.8769 43.8043 64.8673 43.8283C65.6793 43.8484 66.1805 44.2935 66.2086 44.9511C66.2366 45.6267 65.7113 46.144 64.8733 46.162C63.4679 46.1941 62.0605 46.1981 60.6551 46.162C60.1318 46.15 59.8912 46.2542 59.9594 46.8296C60.0336 47.4712 59.6948 48.3132 60.0877 48.7142C60.4787 49.1152 61.3187 48.8285 61.9623 48.8325C64.4884 48.8445 67.0145 48.8245 69.5406 48.8425C70.0539 48.8465 70.3606 48.7362 70.6273 48.227C71.4232 46.7133 73.1334 46.0096 74.7312 46.4427C76.3331 46.8757 77.4538 48.2892 77.4879 49.9171C77.524 51.5611 76.3892 53.0848 74.8054 53.5259C73.1975 53.9729 71.4713 53.3214 70.6594 51.8237C70.3506 51.2563 70.0058 51.1661 69.4464 51.1701C66.5815 51.1942 63.7165 51.2183 60.8536 51.1621C60.0637 51.1461 59.9033 51.3867 59.9514 52.1104C60.0095 53.0166 60.0095 53.9308 59.8491 54.837C59.6887 55.7392 59.2136 56.2384 58.5259 56.1703C57.7901 56.0981 57.4052 55.5588 57.5014 54.6265C57.746 52.2367 57.5997 49.8409 57.6057 47.4471C57.6257 40.5724 57.6057 33.6978 57.6017 26.8231C57.5997 23.8719 56.08 22.3523 53.1288 22.3543C44.3536 22.3583 35.5783 22.3623 26.803 22.3763C26.2336 22.3763 25.6642 22.4786 25.0928 22.5006C24.329 22.5307 23.8518 22.1397 23.7877 21.4681C23.7275 20.8486 24.1626 20.3253 24.8863 20.177C25.9409 19.9625 27.0135 19.9985 28.0781 20.0326C28.6074 20.0507 28.8079 19.9364 28.7758 19.361C28.7216 18.4007 28.7517 17.4343 28.7517 16.472C28.7517 15.7563 28.4811 15.1528 27.9839 14.6536C25.5399 12.2057 23.084 9.76774 20.6521 7.30577C20.3493 6.99903 20.1148 7.04714 19.7639 7.15942C17.7871 7.78694 15.7001 6.66421 15.1387 4.69945C14.5713 2.71865 15.7462 0.649629 17.729 0.138389C19.774 -0.388889 21.7928 0.832071 22.248 2.89507C22.3903 3.53663 22.4023 4.20425 22.1377 4.81573C21.9572 5.23274 22.0856 5.45729 22.3743 5.74398C24.724 8.06962 27.0456 10.4253 29.4033 12.743C30.5641 13.8857 31.1576 15.225 31.1135 16.8569C31.0914 17.6889 31.1335 18.525 31.1014 19.357C31.0834 19.8261 31.1616 20.0928 31.7209 20.0246C32.3845 19.9444 33.2747 20.3053 33.6616 19.8742C33.9904 19.5094 33.7659 18.6393 33.7699 17.9937C33.7779 17.0554 33.7539 16.1191 33.7759 15.1809C33.798 14.3108 34.243 13.7915 34.9207 13.7735C35.6244 13.7554 36.1056 14.3007 36.1176 15.2029C36.1356 16.6083 36.1457 18.0157 36.1136 19.4212C36.1015 19.9083 36.2459 20.0687 36.7251 20.0206C37.3927 19.9524 38.2788 20.2993 38.6698 19.8763C39.0006 19.5194 38.7861 18.6453 38.7861 17.9997C38.7861 12.6086 38.782 7.21956 38.778 1.82849C38.778 0.565425 39.1509 -0.00997036 39.9609 -0.00596064C40.7689 5.39469e-05 41.1317 0.569435 41.1317 1.84052C41.1358 7.6466 41.1498 13.4547 41.1277 19.2608C41.1257 19.8742 41.2841 20.0928 41.8956 20.0166C42.5091 19.9384 43.3531 20.2812 43.6879 19.8783C44.0007 19.5033 43.7982 18.6914 43.8042 18.0719C43.8142 17.0815 43.7882 16.0931 43.8142 15.1027C43.8343 14.2887 44.2814 13.7915 44.941 13.7654C45.6186 13.7394 46.1279 14.2626 46.1459 15.1067C46.176 16.5382 46.176 17.9716 46.1459 19.4031C46.1359 19.8702 46.2401 20.0647 46.7413 20.0126C47.409 19.9424 48.2711 20.2812 48.7021 19.8763C49.0971 19.5054 48.8104 18.6453 48.8124 18.0017C48.8244 15.4495 48.8043 12.8973 48.8204 10.3471C48.8224 9.88803 48.7262 9.61738 48.267 9.38281C46.7454 8.60492 46.0016 6.90881 46.3925 5.30492C46.7875 3.68098 48.3172 2.47806 49.9812 2.48207C51.5991 2.48809 53.0847 3.61883 53.5098 5.16859C53.9609 6.8226 53.2712 8.54076 51.7395 9.35474C51.2663 9.60535 51.148 9.88001 51.152 10.3712C51.1741 13.3404 51.1881 16.3076 51.15 19.2768C51.142 19.9344 51.3706 20.0326 51.94 20.0146C53.0807 19.9785 54.2295 19.9384 55.3482 20.2632C58.1771 21.0872 59.8692 23.3427 59.9434 26.3981C59.9574 26.9454 59.9815 27.4947 59.9373 28.038C59.8932 28.5854 60.0075 28.828 60.637 28.7839C61.5693 28.7197 62.5116 28.7578 63.4479 28.7618C64.1917 28.7638 64.8152 28.4871 65.3364 27.9679C67.7824 25.5219 70.2243 23.07 72.6762 20.6281C72.8787 20.4256 72.997 20.2552 72.8707 19.9564C72.0427 17.9857 73.2857 15.7923 75.1542 15.1769C76.8524 14.6175 79.2301 15.3874 79.8978 17.8975C79.9018 17.9135 79.9439 17.9195 79.9659 17.9295V19.6477C79.6592 19.78 79.6732 20.1128 79.5489 20.3514C78.7249 21.9192 76.9346 22.7131 75.2585 22.1558C74.7453 21.9854 74.4726 22.1297 74.1318 22.4725C71.8242 24.8062 69.4905 27.1118 67.1849 29.4455C66.0622 30.5822 64.737 31.1696 63.1351 31.1175C62.7442 31.1055 62.3532 31.1095 61.9623 31.1175C61.3167 31.1315 60.4366 30.905 60.0837 31.2358C59.6647 31.6288 60.0095 32.5169 59.9434 33.1865C59.8952 33.6697 60.0556 33.806 60.5408 33.794C61.9202 33.7579 63.3015 33.7699 64.6808 33.784C65.6452 33.794 66.2086 34.2571 66.1925 34.9809C66.1765 35.6866 65.6432 36.1136 64.7129 36.1277C63.7225 36.1417 62.7341 36.1317 61.7437 36.1337C59.9494 36.1337 59.9774 36.1337 59.9353 37.9541C59.9193 38.6077 60.0436 38.8222 60.7654 38.8182C66.5734 38.7781 72.3815 38.7961 78.1876 38.7801C78.9495 38.7781 79.6071 38.8964 79.978 39.6502V40.4321L79.988 40.4401ZM18.6993 2.35577C18.0037 2.33572 17.338 2.97126 17.33 3.66695C17.322 4.33256 17.9174 4.95808 18.5951 4.99817C19.3168 5.04028 19.9424 4.46288 19.9704 3.73311C19.9965 2.99131 19.4311 2.37782 18.7013 2.35577H18.6993ZM76.293 17.3421C75.5793 17.3481 74.9558 18.0017 74.9778 18.7215C74.9999 19.4252 75.5853 19.9845 76.299 19.9865C77.0268 19.9865 77.6543 19.349 77.6242 18.6352C77.5962 17.9596 76.9546 17.3361 76.293 17.3421ZM49.9952 7.4842C50.725 7.47618 51.3345 6.84265 51.3064 6.11689C51.2784 5.42721 50.6609 4.83378 49.9752 4.83979C49.2414 4.8458 48.658 5.46731 48.6841 6.21312C48.7081 6.92886 49.2855 7.49022 49.9952 7.4822V7.4842ZM75.1382 49.9973C75.1382 49.2976 74.5588 48.7102 73.8531 48.6941C73.0993 48.6761 72.4958 49.2515 72.4958 49.9933C72.4958 50.719 73.1313 51.3406 73.8511 51.3165C74.5408 51.2924 75.1402 50.681 75.1382 49.9993V49.9973Z" fill="#070707"/>
        <path d="M39.5399 80C38.9063 79.5348 38.8221 78.8772 38.8221 78.1455C38.8322 72.3394 38.8121 66.5313 38.8342 60.7252C38.8362 60.1178 38.6878 59.8872 38.0703 59.9674C37.4568 60.0456 36.6449 59.7088 36.2679 60.1017C35.897 60.4887 36.1717 61.2906 36.1617 61.9081C36.1436 62.8965 36.1757 63.8869 36.1497 64.8773C36.1296 65.6913 35.6865 66.1905 35.0249 66.2186C34.3493 66.2466 33.836 65.7233 33.816 64.8813C33.7859 63.4498 33.7859 62.0164 33.814 60.5849C33.822 60.1238 33.7278 59.9193 33.2226 59.9714C32.5549 60.0416 31.6929 59.7048 31.2598 60.1077C30.8608 60.4786 31.1495 61.3387 31.1475 61.9823C31.1355 64.5345 31.1535 67.0867 31.1375 69.6368C31.1355 70.096 31.2257 70.3666 31.6868 70.6032C33.2105 71.3831 33.9543 73.0752 33.5654 74.6791C33.1724 76.303 31.6427 77.5079 29.9807 77.5039C28.3347 77.4999 26.815 76.319 26.4301 74.7452C26.0191 73.0752 26.7388 71.3911 28.2826 70.5891C28.7076 70.3686 28.8079 70.128 28.8058 69.695C28.7898 66.6737 28.7778 63.6543 28.8058 60.633C28.8119 60.0556 28.6234 59.9574 28.1021 59.9694C26.4662 60.0075 24.8182 60.0596 23.3145 59.2156C21.1172 57.9806 20.0967 56.0599 20.0165 53.5879C19.9965 52.9905 19.9925 52.389 20.0205 51.7916C20.0386 51.3846 19.9644 51.1841 19.4832 51.2041C18.4948 51.2442 17.5044 51.2262 16.516 51.2222C15.7722 51.2182 15.1467 51.4928 14.6275 52.0121C12.1815 54.458 9.74563 56.918 7.27965 59.3439C6.94684 59.6727 7.07515 59.9153 7.16938 60.2421C7.60845 61.7718 7.22151 63.089 6.01859 64.1074C4.83773 65.1079 3.48044 65.2763 2.08706 64.5966C0.667617 63.9049 -0.0380942 62.7141 0.0100225 61.1362C0.0842024 58.7805 2.44192 57.1024 4.68937 57.8162C5.19059 57.9746 5.47127 57.8743 5.82011 57.5195C8.02947 55.274 10.291 53.0807 12.4783 50.8112C13.7894 49.4499 15.3031 48.7442 17.2017 48.8564C17.9535 48.9006 18.7134 48.8344 19.4652 48.8725C19.9283 48.8945 20.0466 48.7221 20.0185 48.2951C19.9744 47.6255 20.223 46.7453 19.8862 46.3363C19.5334 45.9093 18.6212 46.218 17.9555 46.204C17.0453 46.184 16.1331 46.216 15.2209 46.196C14.3067 46.1759 13.7674 45.7208 13.7694 45.0191C13.7694 44.3154 14.3107 43.8643 15.2289 43.8543C16.6343 43.8383 18.0417 43.8323 19.4472 43.8563C19.8822 43.8643 20.0506 43.7521 20.0185 43.297C19.9704 42.6253 20.225 41.7552 19.8922 41.3322C19.5414 40.8891 18.6312 41.1919 17.9676 41.1899C12.6026 41.1818 7.23955 41.1899 1.87454 41.1899C1.53773 41.1899 1.19289 41.1838 0.866099 41.1137C0.278674 40.9854 -0.012031 40.5583 0.00200308 39.9809C0.0160371 39.4416 0.302732 39.0366 0.858079 38.9204C1.18487 38.8522 1.52971 38.8422 1.86652 38.8422C7.6726 38.8341 13.4807 38.8241 19.2868 38.8422C19.8541 38.8422 20.0867 38.7339 20.0165 38.1244C19.9484 37.5089 20.205 36.6849 19.8922 36.314C19.5253 35.879 18.6773 36.1897 18.0397 36.1717C17.0774 36.1456 16.1131 36.1817 15.1487 36.1617C14.2907 36.1436 13.7674 35.6865 13.7614 35.0049C13.7554 34.3292 14.2786 33.84 15.1287 33.824C16.5341 33.7959 17.9415 33.7979 19.3469 33.824C19.8161 33.832 20.0787 33.7659 20.0125 33.2065C19.9323 32.5409 20.2892 31.6467 19.8622 31.2598C19.5013 30.931 18.6252 31.1555 17.9776 31.1535C15.4515 31.1495 12.9253 31.1635 10.3992 31.1475C9.91805 31.1435 9.61932 31.2337 9.36671 31.7209C8.5768 33.2446 6.88068 33.9724 5.2808 33.5654C3.6689 33.1544 2.50207 31.6848 2.48202 30.0388C2.46197 28.3928 3.60875 26.8771 5.19459 26.4501C6.81051 26.0171 8.52066 26.6827 9.32461 28.1883C9.61732 28.7377 9.94211 28.8179 10.4754 28.8138C13.4185 28.7918 16.3597 28.7798 19.3028 28.8138C19.9103 28.8219 20.0346 28.6414 20.0145 28.0761C19.9784 27.0897 19.9444 26.0993 20.1228 25.1149C20.2852 24.2227 20.7824 23.7355 21.4781 23.8277C22.2099 23.924 22.5868 24.4533 22.4585 25.3956C22.3141 26.4621 22.3542 27.5267 22.3542 28.5913C22.3542 36.7671 22.3602 44.945 22.3662 53.1208C22.3682 56.1261 23.8739 57.6317 26.8772 57.6297C35.6264 57.6257 44.3756 57.6217 53.1248 57.6077C53.6942 57.6077 54.2636 57.5094 54.835 57.4834C55.6048 57.4493 56.092 57.8202 56.1762 58.4758C56.2584 59.1053 55.8414 59.6466 55.1217 59.799C54.0431 60.0255 52.9444 59.9794 51.8517 59.9534C51.3686 59.9413 51.1641 60.0376 51.1921 60.5809C51.2423 61.5412 51.2162 62.5075 51.2142 63.4699C51.2142 64.2137 51.4889 64.8352 52.0101 65.3545C54.44 67.7803 56.8839 70.1942 59.2838 72.6501C59.6667 73.0431 59.9554 72.8807 60.3163 72.7805C62.1828 72.2732 64.0734 73.2336 64.733 75.0239C65.4066 76.8543 64.5626 78.8372 62.7983 79.6712C62.4976 79.8135 62.1287 79.6992 61.8881 79.9799H60.4827C60.4486 79.8636 60.3463 79.8496 60.2501 79.8115C58.1009 79.0035 57.1987 77.2333 57.8804 75.0239C58.0127 74.5949 57.8022 74.4585 57.5937 74.25C55.2199 71.8743 52.8482 69.4965 50.4664 67.1308C49.6885 66.3569 49.1111 65.4627 48.9487 64.3801C48.8324 63.6142 48.8665 62.8223 48.8625 62.0424C48.8525 59.8671 48.8585 59.8812 46.6992 59.9514C46.2802 59.9654 46.18 60.0897 46.186 60.4867C46.208 61.9181 46.2121 63.3496 46.19 64.7831C46.176 65.6973 45.6948 66.2326 44.9851 66.2085C44.3034 66.1845 43.8664 65.6632 43.8503 64.7971C43.8303 63.8087 43.8443 62.8183 43.8443 61.8299C43.8443 59.9654 43.8443 59.9975 42.0159 59.9514C41.3463 59.9353 41.1558 60.0837 41.1598 60.7894C41.1959 66.6215 41.1799 72.4537 41.1979 78.2838C41.1999 79.0296 41.0435 79.6411 40.3258 79.996H39.5439L39.5399 80ZM4.9901 61.3026C4.98609 60.5749 4.36659 59.9874 3.62278 60.0075C2.9271 60.0255 2.33366 60.635 2.34168 61.3227C2.3497 61.9963 2.97321 62.6319 3.64083 62.6479C4.34854 62.6639 4.9921 62.0224 4.9901 61.3046V61.3026ZM61.3127 74.9858C60.5949 74.9778 59.9935 75.5853 59.9935 76.315C59.9935 77.0107 60.5589 77.6001 61.2505 77.6322C61.9462 77.6623 62.6158 77.0368 62.6359 76.3371C62.6559 75.6394 62.0224 74.9918 61.3127 74.9858ZM29.9907 75.1482C30.7245 75.1422 31.3099 74.5227 31.2859 73.7769C31.2638 73.0611 30.6864 72.4998 29.9767 72.5038C29.2449 72.5098 28.6354 73.1433 28.6635 73.8691C28.6916 74.5648 29.3011 75.1542 29.9907 75.1482ZM7.47412 30.0268C7.49217 29.3291 6.9288 28.7216 6.22509 28.6795C5.50735 28.6374 4.84775 29.2409 4.8277 29.9606C4.80766 30.6583 5.37704 31.2598 6.08275 31.2919C6.84259 31.3239 7.45207 30.7686 7.47212 30.0268H7.47412Z" fill="#070707"/>
        <path d="M36.3201 26.3118C37.5691 26.3439 38.5575 26.5925 39.3554 27.2641C39.8206 27.6551 40.0832 27.6571 40.5744 27.2802C43.1667 25.2974 47.0441 26.4542 48.0024 29.4534C48.1387 29.8805 48.265 30.3436 48.1568 30.7506C47.9723 31.4423 48.3071 31.6247 48.8545 31.8412C52.3169 33.2105 53.604 37.3486 51.132 40.2015C50.8393 40.5403 50.9115 40.7448 51.1601 41.0556C53.1609 43.5556 52.7178 46.8356 50.1235 48.7041C49.7627 48.9627 49.5682 49.2254 49.492 49.6885C49.1793 51.6112 47.2045 53.3454 45.1415 53.602C43.315 53.8285 41.6791 53.4296 40.3358 52.1284C39.995 51.7976 39.8326 51.9781 39.586 52.2006C37.1962 54.3538 33.6135 54.1593 31.5004 51.7555C30.9069 51.0799 30.518 50.29 30.4458 49.3798C30.4158 48.9928 30.2814 48.7222 29.9667 48.4655C27.3443 46.3284 26.8371 43.4774 28.5472 40.5724C28.6976 40.3158 28.7417 40.1393 28.5512 39.8827C26.4562 37.0739 27.7553 33.0542 31.3621 31.735C31.6888 31.6167 31.9054 31.5245 31.8392 31.1014C31.4663 28.7417 33.401 26.6446 35.7567 26.378C36.0153 26.3479 36.272 26.3178 36.3221 26.3138L36.3201 26.3118ZM41.1458 37.0077C41.4766 37.092 41.635 36.9175 41.8174 36.8353C42.5392 36.5045 43.299 36.3502 44.0849 36.3341C44.7966 36.3201 45.2658 36.711 45.342 37.3486C45.4181 37.9821 45.0452 38.4653 44.3616 38.6157C44.1831 38.6537 44.0027 38.6838 43.8223 38.7079C42.0299 38.9525 41.1638 39.9328 41.1598 41.7412C41.1558 43.9025 41.1839 46.0637 41.1538 48.225C41.1358 49.4198 41.4886 50.3842 42.5993 50.9375C43.7802 51.527 44.9731 51.5109 46.0858 50.7811C47.7177 49.7126 47.6115 47.5794 45.9013 46.6431C45.6527 46.5068 45.3841 46.4025 45.1375 46.2602C44.526 45.9113 44.3135 45.3339 44.5681 44.7485C44.8147 44.1811 45.4101 43.9426 46.0697 44.1531C47.01 44.4518 47.7698 45.0152 48.4635 45.7089C48.7001 45.9454 48.7061 46.579 49.2073 46.3664C49.5381 46.2261 49.7186 45.7951 49.8529 45.4222C49.905 45.2758 49.9692 45.1315 49.9952 44.9791C50.2398 43.6158 49.6865 42.6214 48.5818 41.8575C47.3187 40.9834 47.3288 40.2556 48.5978 39.3635C49.0289 39.0607 49.4138 38.7179 49.6725 38.2548C50.731 36.3622 49.4299 34.0947 47.0922 33.7298C46.2181 33.5935 45.3941 33.7478 44.5621 33.9964C43.9165 34.1889 43.301 33.8461 43.1146 33.2747C42.9201 32.6772 43.1867 32.0858 43.8142 31.8111C44.1451 31.6668 44.4999 31.5726 44.8528 31.4864C45.8773 31.2378 46.168 30.514 45.5264 29.6539C44.8929 28.8059 44.0147 28.5132 42.9742 28.7136C41.9417 28.9121 41.3783 29.4554 41.1779 30.4879C41.0415 31.1836 40.7849 31.749 39.9569 31.739C39.175 31.7289 38.8342 31.2037 38.8001 30.526C38.744 29.3672 37.4187 28.5693 36.3161 28.6555C34.3573 28.8099 33.5433 30.526 34.5458 31.8051C35.1933 32.6311 34.7082 33.4992 33.6316 33.6376C32.7153 33.7539 31.8392 33.9243 31.0974 34.5237C29.9005 35.4901 29.5557 36.9857 30.2373 38.2087C30.4298 38.5535 30.5982 38.6437 30.9531 38.4292C31.5124 38.0904 32.1279 37.8638 32.7755 37.7836C33.393 37.7074 33.8741 37.9721 34.0285 38.5856C34.1869 39.2051 33.9744 39.7223 33.3429 39.985C32.9118 40.1634 32.4527 40.2817 32.0377 40.4882C29.9266 41.5468 29.267 44.0228 30.5882 45.8131C30.907 46.2462 31.1475 46.3765 31.4703 45.8332C31.6427 45.5404 31.8793 45.2738 32.2201 45.1816C32.7354 45.0412 33.2105 45.1335 33.5373 45.5986C33.8782 46.0858 33.8501 46.593 33.4692 47.0321C32.8457 47.7498 32.5409 48.5417 32.8336 49.476C33.2085 50.6809 34.6741 51.4909 36.1136 51.3165C37.7074 51.124 38.7059 50.1977 38.7961 48.7783C38.8382 48.1047 38.7921 47.425 38.8161 46.7474C38.8642 45.3961 38.2688 44.4759 37.0338 43.9265C36.1136 43.5175 35.8269 42.9381 36.1196 42.2424C36.4003 41.5768 37.0899 41.4044 37.9901 41.7773C38.0623 41.8074 38.1405 41.8274 38.2046 41.8715C38.748 42.2404 38.8241 41.9898 38.8181 41.4646C38.8001 39.564 38.7961 37.6633 38.8262 35.7627C38.8382 35.0189 39.3374 34.5317 39.9689 34.5257C40.5985 34.5197 41.0876 35.0029 41.1418 35.7347C41.1738 36.1657 41.1478 36.6008 41.1478 37.0077H41.1458Z" fill="#060606"/>
        <path d="M18.6993 2.35569C19.4311 2.37774 19.9965 2.99123 19.9684 3.73303C19.9424 4.4628 19.3148 5.0402 18.5931 4.99809C17.9154 4.958 17.32 4.33248 17.328 3.66687C17.336 2.97118 18.0017 2.33564 18.6973 2.35569H18.6993Z" fill="#F4F4F4"/>
        <path d="M76.293 17.3421C76.9566 17.3361 77.5982 17.9596 77.6242 18.6352C77.6523 19.3469 77.0248 19.9865 76.299 19.9865C75.5873 19.9865 74.9999 19.4251 74.9778 18.7214C74.9558 18.0037 75.5793 17.3481 76.293 17.3421Z" fill="#F4F4F4"/>
        <path d="M49.9952 7.48413C49.2855 7.49014 48.7081 6.93079 48.6841 6.21505C48.66 5.46924 49.2434 4.84773 49.9752 4.84172C50.6609 4.83571 51.2783 5.42914 51.3064 6.11882C51.3345 6.84257 50.727 7.47811 49.9952 7.48613V7.48413Z" fill="#F4F4F4"/>
        <path d="M75.1382 49.9972C75.1382 50.6789 74.5408 51.2924 73.8511 51.3144C73.1313 51.3385 72.4938 50.717 72.4958 49.9912C72.4958 49.2514 73.0993 48.674 73.8531 48.6921C74.5588 48.7081 75.1382 49.2975 75.1382 49.9952V49.9972Z" fill="#F4F4F4"/>
        <path d="M4.9901 61.3026C4.99411 62.0204 4.34855 62.664 3.64083 62.6459C2.97121 62.6299 2.34769 61.9943 2.34168 61.3207C2.33366 60.633 2.9271 60.0235 3.62279 60.0055C4.36458 59.9855 4.98609 60.5729 4.9901 61.3006V61.3026Z" fill="#F4F4F4"/>
        <path d="M61.3127 74.9858C62.0224 74.9938 62.6559 75.6414 62.6359 76.3371C62.6158 77.0368 61.9462 77.6623 61.2505 77.6322C60.5589 77.6021 59.9955 77.0107 59.9935 76.315C59.9935 75.5832 60.5929 74.9778 61.3127 74.9858Z" fill="#F4F4F4"/>
        <path d="M29.9887 75.1482C29.2991 75.1522 28.6896 74.5648 28.6615 73.8691C28.6334 73.1454 29.2449 72.5098 29.9747 72.5038C30.6844 72.4978 31.2618 73.0592 31.2839 73.7769C31.3079 74.5227 30.7225 75.1442 29.9887 75.1482Z" fill="#F4F4F4"/>
        <path d="M7.47413 30.0268C7.45408 30.7686 6.8446 31.324 6.08476 31.2919C5.37905 31.2618 4.80967 30.6584 4.82971 29.9607C4.84976 29.2409 5.50736 28.6375 6.2271 28.6796C6.93081 28.7217 7.49217 29.3291 7.47613 30.0268H7.47413Z" fill="#F4F4F4"/>
        <path d="M41.1458 37.0077C41.1458 36.6007 41.1718 36.1657 41.1398 35.7346C41.0856 35.0028 40.5964 34.5177 39.9669 34.5257C39.3374 34.5317 38.8362 35.0189 38.8241 35.7627C38.7941 37.6633 38.7981 39.5639 38.8161 41.4645C38.8221 41.9898 38.746 42.2404 38.2026 41.8715C38.1385 41.8294 38.0603 41.8073 37.9881 41.7773C37.0879 41.4044 36.3983 41.5748 36.1176 42.2424C35.8249 42.9381 36.1116 43.5175 37.0318 43.9265C38.2688 44.4758 38.8622 45.394 38.8141 46.7473C38.7901 47.423 38.8362 48.1026 38.7941 48.7782C38.7059 50.1957 37.7074 51.1239 36.1116 51.3164C34.6701 51.4908 33.2065 50.6829 32.8316 49.4759C32.5409 48.5397 32.8456 47.7497 33.4672 47.032C33.8501 46.5909 33.8762 46.0837 33.5353 45.5985C33.2105 45.1334 32.7354 45.0412 32.2181 45.1815C31.8773 45.2737 31.6407 45.5404 31.4683 45.8331C31.1475 46.3764 30.9069 46.2461 30.5862 45.813C29.267 44.0247 29.9246 41.5467 32.0357 40.4881C32.4507 40.2796 32.9098 40.1634 33.3409 39.9849C33.9724 39.7223 34.1849 39.207 34.0265 38.5855C33.8701 37.972 33.389 37.7074 32.7735 37.7836C32.1239 37.8638 31.5104 38.0903 30.9511 38.4291C30.5962 38.6437 30.4258 38.5534 30.2353 38.2086C29.5557 36.9856 29.8985 35.49 31.0954 34.5237C31.8392 33.9242 32.7153 33.7558 33.6296 33.6375C34.7062 33.4992 35.1913 32.6311 34.5438 31.8051C33.5413 30.526 34.3553 28.8118 36.3141 28.6554C37.4167 28.5672 38.742 29.3672 38.7981 30.526C38.8302 31.2036 39.173 31.7289 39.9549 31.7389C40.7849 31.7489 41.0415 31.1836 41.1759 30.4879C41.3763 29.4554 41.9397 28.9121 42.9722 28.7136C44.0127 28.5131 44.8909 28.8058 45.5244 29.6539C46.166 30.514 45.8732 31.2377 44.8508 31.4863C44.4979 31.5725 44.143 31.6667 43.8122 31.8111C43.1827 32.0858 42.9181 32.6792 43.1125 33.2746C43.299 33.846 43.9145 34.1889 44.5601 33.9964C45.3921 33.7478 46.2181 33.5934 47.0902 33.7297C49.4279 34.0946 50.729 36.3621 49.6705 38.2547C49.4118 38.7178 49.0269 39.0607 48.5958 39.3634C47.3268 40.2536 47.3167 40.9813 48.5798 41.8575C49.6825 42.6213 50.2378 43.6177 49.9932 44.979C49.9652 45.1314 49.903 45.2757 49.8509 45.4221C49.7166 45.795 49.5361 46.2261 49.2053 46.3664C48.7041 46.5789 48.6981 45.9454 48.4615 45.7088C47.7678 45.0151 47.008 44.4517 46.0677 44.153C45.4081 43.9445 44.8127 44.1811 44.5661 44.7485C44.3115 45.3339 44.524 45.9113 45.1355 46.2601C45.3821 46.4005 45.6507 46.5047 45.8993 46.6431C47.6074 47.5813 47.7157 49.7125 46.0838 50.7811C44.969 51.5109 43.7762 51.5249 42.5973 50.9375C41.4866 50.3841 41.1337 49.4198 41.1518 48.2249C41.1819 46.0637 41.1538 43.9024 41.1578 41.7412C41.1618 39.9328 42.0279 38.9524 43.8203 38.7078C44.0007 38.6838 44.1811 38.6557 44.3596 38.6156C45.0432 38.4652 45.4161 37.9821 45.3399 37.3485C45.2638 36.711 44.7946 36.32 44.0829 36.3341C43.297 36.3501 42.5372 36.5045 41.8154 36.8353C41.633 36.9175 41.4746 37.0919 41.1438 37.0077H41.1458Z" fill="#FBFBFB"/>
    </g>
    <defs>
        <clipPath id="clip0_165_7427">
            <rect width="79.988" height="80" fill="white"/>
        </clipPath>
    </defs>
</svg>
