<svg width="66" height="70" viewBox="0 0 66 70" fill="none" xmlns="http://www.w3.org/2000/svg">
    <g clip-path="url(#clip0_41_5723)">
        <path d="M40.8059 68.5049C40.3257 69.0486 39.6329 69.4428 38.9196 69.6127C37.63 69.9185 36.2719 69.6398 34.9961 69.2932C34.4473 69.1437 33.8711 68.9602 33.5213 68.5185C33.1235 68.0156 33.1235 67.3224 33.144 66.6903C33.2881 61.9874 33.4253 57.2777 33.5693 52.5748C33.6585 49.5505 33.7477 46.4923 33.1029 43.536C32.4581 40.5797 31.004 37.6845 28.5415 35.8971C26.0104 34.0554 22.5259 33.5864 19.5901 34.6806C17.9713 35.2855 16.3525 36.3525 14.6651 35.9651C13.2933 35.6525 12.2507 34.2729 12.333 32.8864C12.4153 31.5 13.6088 30.2496 15.0081 30.0932C16.4143 29.9437 17.7175 30.7593 19.0619 31.1874C21.3735 31.9214 23.8977 31.5 26.271 31.9894C30.366 32.8253 33.5144 36.3321 34.9412 40.2331C36.3679 44.134 36.3473 48.3884 36.0798 52.5272C35.8123 56.6661 35.3253 60.8321 35.874 64.9437C35.9975 65.8544 36.4228 66.9826 37.3488 66.9894C38.3983 66.9894 38.7412 65.603 38.7481 64.5699C38.7687 60.567 38.6932 56.5641 38.5149 52.5612C38.3434 48.667 38.0827 44.6709 39.2419 40.9466C40.4012 37.2224 43.3438 33.7496 47.2399 33.1855C48.9547 32.9408 50.7587 33.2534 52.3912 32.6894C53.6053 32.268 54.6685 31.3777 55.9443 31.2622C57.5494 31.1127 59.1407 32.4515 59.2642 34.0418C59.3877 35.6321 58.0021 37.1884 56.3901 37.2767C54.8948 37.3583 53.5847 36.3729 52.1854 35.8631C48.9341 34.6806 45.0861 36.2641 43.0694 39.0573C41.0528 41.8505 40.6755 45.5612 41.382 48.9185C41.581 49.8632 42.555 51.0253 43.2683 50.3661C43.5907 50.067 43.5702 49.5709 43.6319 49.1428C43.9543 47.002 46.6088 46.0913 47.7475 44.2496C48.5911 42.8903 48.5637 41.069 49.6338 39.8729C50.6832 38.7039 52.693 38.5544 53.9002 39.5602C55.1075 40.5661 55.3132 42.5573 54.3255 43.7806C53.0017 45.4253 50.4089 45.3233 48.694 46.5602C46.842 47.8991 46.451 50.4408 46.2933 52.7039C46.0052 56.9311 46.0121 61.1787 46.3139 65.4059C46.3482 65.8544 46.3962 66.3369 46.7048 66.6631C47.1438 67.1389 47.9669 67.0709 48.4745 66.6631C48.9821 66.2554 49.2291 65.6165 49.3594 64.9845C50.0522 61.7088 48.3374 58.2088 49.3388 55.0146C50.1756 52.3505 52.6518 50.6107 54.7096 48.7146C61.3151 42.6389 64.5184 33.1379 62.8996 24.3573C61.2808 15.5767 54.8811 7.80198 46.5128 4.48548C38.1445 1.17577 28.0819 2.44664 20.8385 7.75441C14.7269 12.233 10.8582 19.0767 7.75785 25.9544C6.13906 29.5496 4.67803 33.2127 3.217 36.869C2.99751 37.4195 2.77801 38.0583 3.0661 38.5816C3.40906 39.2136 4.29391 39.3088 5.00042 39.1593C5.70692 39.0097 6.41343 38.6971 7.12679 38.7991C8.85533 39.0573 9.26003 41.3068 9.25317 43.0398C9.22573 46.7641 9.20516 50.4816 9.17772 54.2059C9.17086 55.5583 9.27375 57.1486 10.4124 57.903C10.9337 58.2496 11.5716 58.3447 12.1958 58.4127C14.6857 58.6981 17.2031 58.7389 19.6999 58.535C21.8262 58.3651 24.5494 58.3311 25.4136 60.2612C25.7978 61.1175 25.6469 62.103 25.4891 63.0272C25.3313 63.9515 25.1804 64.9369 25.5577 65.7932C25.9349 66.6496 27.0667 67.2476 27.8555 66.7379C28.5415 66.2962 28.6032 65.3447 28.5895 64.5292C28.5415 61.0224 28.4935 57.5156 28.4454 54.0088C28.4043 50.8486 28.0956 47.1719 25.4411 45.4185C23.4999 44.134 20.6053 44.1544 19.3706 42.1903C18.5749 40.9331 18.8836 39.0981 20.0565 38.167C21.2295 37.236 23.1021 37.3311 24.1652 38.3777C25.4411 39.6282 25.4136 41.701 26.422 43.1758C27.3617 44.5486 29.0902 45.235 30.0231 46.6078C30.853 47.8243 30.9422 49.3738 30.9902 50.8418C31.1617 56.0476 31.1892 61.2602 31.0794 66.4661C31.0657 66.9894 31.052 67.5331 30.853 68.0224C29.5772 71.135 22.8483 70.2651 22.567 66.7923C22.4436 65.2292 23.4244 63.5301 22.6219 62.1777C21.7988 60.7981 19.7959 60.8932 18.184 61.0428C16.3114 61.2195 14.4182 61.2195 12.5456 61.0564C11.1806 60.9408 9.7539 60.703 8.67699 59.867C6.75639 58.3787 6.60549 55.5991 6.61921 53.1865C6.63292 50.2301 6.6535 47.2738 6.66722 44.3175C6.66722 43.5292 6.63978 42.6389 6.05675 42.0952C5.07587 41.1641 3.42964 41.9253 2.11266 41.5787C0.795676 41.2253 0.0480147 39.7641 0.0754519 38.4117C0.102889 37.0593 0.706506 35.802 1.27583 34.5787C5.7275 25.0573 9.1297 14.5369 16.9973 7.51654C24.4465 0.856349 35.4556 -1.59025 45.0449 1.25732C54.6342 4.10489 62.4675 12.1447 65.0054 21.7408C67.5433 31.3369 64.6762 42.1496 57.7208 49.2855C55.5739 51.4874 52.9742 53.5059 52.0208 56.4146C50.937 59.7447 52.2952 63.3738 51.9591 66.8602C51.8905 67.5806 51.719 68.3418 51.1771 68.8243C50.6832 69.2661 49.9904 69.3884 49.3319 69.4835C48.1659 69.6602 46.9724 69.8369 45.8269 69.5651C44.6814 69.2932 43.5907 68.4505 43.3987 67.302C43.3026 66.7447 43.4261 66.167 43.3164 65.6097C43.2066 65.0525 42.7127 64.4884 42.1571 64.6175C41.2929 64.8078 41.5124 66.0651 41.4712 66.9418C41.4369 67.5263 41.1831 68.0564 40.799 68.4981L40.8059 68.5049Z" fill="#1A1A1A" stroke="#282727" stroke-width="0.25" stroke-miterlimit="10"/>
        <path d="M36.999 8.4476C38.3914 8.40003 39.3928 9.05925 40.0102 10.2146C40.703 11.5126 40.6275 12.9466 39.4614 13.8097C38.1582 14.7748 38.1582 15.9369 38.1719 17.269C38.2062 19.7156 38.1993 22.1622 38.1719 24.602C38.1513 26.369 38.0621 27.9796 39.6878 29.4136C40.9156 30.4942 40.655 32.2 39.4203 33.4573C38.1856 34.7146 36.7383 34.8097 35.2979 33.8515C33.83 32.8728 33.1783 31.0039 34.2415 29.9573C36.7795 27.4767 35.7849 24.568 35.9563 21.7952C36.0524 20.2049 35.9152 18.5942 35.9838 17.0039C36.0387 15.733 35.9015 14.7068 34.756 13.8029C33.5899 12.8787 33.6516 11.4379 34.2552 10.167C34.7697 9.07964 35.7369 8.48838 36.9921 8.4476H36.999Z" fill="#1A1A1A" stroke="#282727" stroke-width="0.25" stroke-miterlimit="10"/>
        <path d="M49.9699 12.1242C51.3143 12.1786 52.3569 12.7427 52.9125 13.9796C53.4544 15.1893 53.3721 16.3446 52.4598 17.3912C51.9316 17.9961 50.985 18.3495 51.1771 19.4165C51.6504 22.0805 50.6969 24.1466 48.5363 25.7436C47.8229 26.2737 48.1453 27.0893 48.0836 27.8233C47.9258 29.7601 46.8626 31.031 44.8254 30.9902C42.8362 30.9563 41.6015 29.7534 41.6153 27.7757C41.629 25.7844 42.946 24.466 44.8803 24.6631C47.1095 24.8873 48.1453 23.399 48.7009 22.0669C49.2702 20.7077 49.5789 18.8524 47.7132 17.5679C46.5402 16.7592 46.4099 15.3388 47.0341 13.9864C47.6034 12.7563 48.6049 12.1582 49.963 12.1174L49.9699 12.1242Z" fill="#1A1A1A" stroke="#282727" stroke-width="0.25" stroke-miterlimit="10"/>
        <path d="M24.3436 11.3087C25.7772 11.3767 26.7375 12.0291 27.3548 13.2116C28.0613 14.5641 27.8555 15.9776 26.71 16.7796C24.8786 18.0641 25.1255 19.899 25.6468 21.299C26.1819 22.7398 27.3891 23.9767 29.5429 23.8951C31.5733 23.8136 32.9314 25.166 32.7736 27.334C32.6433 29.1825 31.4086 30.2835 29.5704 30.2563C27.4303 30.2223 26.3328 28.931 26.3465 26.7903C26.3465 26.6068 26.5317 26.3145 26.47 26.2602C23.5685 23.7864 23.6096 19.9942 22.1006 16.9087C21.4833 15.6514 20.9071 14.5641 21.5038 13.2388C22.0526 12.0223 23.1021 11.4446 24.3436 11.3087Z" fill="#1A1A1A" stroke="#282727" stroke-width="0.25" stroke-miterlimit="10"/>
    </g>
    <defs>
        <clipPath id="clip0_41_5723">
            <rect width="66" height="70" fill="white"/>
        </clipPath>
    </defs>
</svg>
