<svg width="58" height="72" viewBox="0 0 58 72" fill="none" xmlns="http://www.w3.org/2000/svg">
    <g clip-path="url(#clip0_41_5721)">
        <path d="M0.138745 28.8541C0.138745 23.6086 0.192699 18.3631 0.100207 13.1253C0.0693764 11.4258 0.616619 10.9932 2.28147 10.9468C8.463 10.7768 10.783 8.45925 10.9217 2.39487C10.9603 0.857528 11.1298 0.0849963 12.9643 0.100447C23.6393 0.185426 34.3144 0.185426 44.9895 0.108172C46.8316 0.0927216 47.0166 0.911606 47.0552 2.42577C47.2093 8.54422 49.4291 10.7846 55.6569 10.97C57.3294 11.0163 57.8613 11.4412 57.8459 13.1331C57.7688 23.4077 58.1156 33.6979 57.6763 43.9494C57.314 52.3468 53.1981 58.9751 45.8142 63.2163C40.8197 66.0824 35.6324 68.6163 30.5993 71.4129C29.2813 72.1468 28.3179 72.0077 27.077 71.3202C22.2211 68.6395 17.2266 66.1983 12.4324 63.4095C4.52439 58.8206 0.308313 51.891 0.15416 42.6592C0.077084 38.055 0.138745 33.4584 0.138745 28.8541ZM37.8522 63.3245C42.1685 61.1614 46.1534 59.4309 49.0977 56.0241C51.9803 52.6867 53.9381 48.8472 54.0383 44.4515C54.2464 35.1502 54.1077 25.8412 54.1693 16.5322C54.177 15.2498 53.861 14.6781 52.4968 14.4155C47.5793 13.4807 44.5656 10.491 43.6098 5.5468C43.3709 4.3262 42.9932 3.73907 41.5827 3.75452C33.1506 3.82405 24.7184 3.81633 16.2863 3.76998C14.9682 3.76998 14.5289 4.15624 14.2746 5.50817C13.3496 10.4138 10.3745 13.5039 5.42619 14.4C3.90007 14.6781 3.59948 15.3425 3.61489 16.7408C3.67655 25.4086 3.56094 34.0687 3.69197 42.7365C3.81529 51.3966 8.77901 59.3537 20.0861 62.915C20.0861 59.5623 19.8549 56.2558 20.1478 52.988C20.4638 49.4807 19.5389 46.7537 16.6485 44.6987C14.0048 42.8215 12.8486 40.3416 13.3419 37.012C13.6348 35.0344 13.419 33.2807 11.469 31.697C9.50353 30.0979 9.83496 27.618 11.6231 25.7253C13.2417 24.018 16.0011 24.0953 17.7045 25.7253C19.4695 27.4172 19.6545 30.3837 17.6968 31.9829C16.2708 33.1494 15.9934 34.3391 15.8392 36.0309C15.5463 39.206 16.5637 41.5082 19.0456 43.5013C21.2654 45.2859 23.069 47.3022 22.7221 50.7554C22.3136 54.8884 22.6374 59.091 22.6142 63.2627C22.5988 66.0979 25.1963 66.5614 26.7995 66.77C28.6801 67.0172 27.6088 64.8077 27.6165 63.8189C27.7244 51.8369 27.6859 39.855 27.6859 27.873C27.6859 25.8953 27.8323 24.1571 25.7589 22.612C23.7164 21.0824 24.071 18.5949 25.8437 16.6635C27.4161 14.9485 30.2371 14.8635 31.8788 16.5245C33.7055 18.3708 34.168 20.8584 32.1948 22.473C30.1523 24.1417 30.1754 25.9571 30.2063 28.0738C30.2371 30.7468 30.2063 33.4198 30.2063 36.1004C30.2063 45.618 30.1831 55.1434 30.2371 64.661C30.2371 65.4335 29.5203 66.7391 31.0233 66.9708C32.4029 67.1871 35.2239 64.4833 35.2548 63.0077C35.2933 61.1923 35.4243 59.3537 35.2239 57.5537C34.6767 52.6172 35.5708 48.4687 39.8639 45.2009C42.9547 42.8447 42.762 38.0009 40.0566 35.0344C38.2839 33.0953 38.3224 30.4455 40.1491 28.7073C41.8371 27.0927 44.5964 27.0695 46.215 28.7459C48.0571 30.6541 48.3963 33.1262 46.3769 34.6867C44.3498 36.255 44.2187 38.0318 44.5116 39.9863C45.0049 43.3468 43.6098 45.6258 41.2051 47.7348C39.8948 48.8781 37.9756 49.8515 37.8754 51.8292C37.6904 55.5142 37.8214 59.2146 37.8214 63.3322L37.8522 63.3245ZM43.2245 33.6901C44.3344 33.5743 45.0358 32.964 45.0203 31.867C45.0049 30.7932 44.3112 30.0747 43.209 30.0901C42.1146 30.1056 41.4132 30.8086 41.4132 31.8901C41.4132 32.9871 42.1377 33.5743 43.2245 33.6901ZM14.5289 30.7854C15.6003 30.6773 16.3479 30.1983 16.4327 29.0627C16.5175 27.9348 15.87 27.2009 14.8141 27.1082C13.7581 27.0155 13.0336 27.6489 12.9411 28.7846C12.8486 29.9356 13.5038 30.5073 14.5212 30.7854H14.5289ZM30.7612 19.7073C30.5993 18.7571 30.0752 18.0541 28.9576 18C27.7783 17.9382 27.1849 18.6953 27.154 19.7228C27.1232 20.7811 27.7783 21.515 28.896 21.5382C30.0059 21.5614 30.5839 20.8584 30.7689 19.7073H30.7612Z" fill="#1A1A1A" stroke="#282727" stroke-width="0.25" stroke-miterlimit="10"/>
    </g>
    <defs>
        <clipPath id="clip0_41_5721">
            <rect width="58" height="72" fill="white"/>
        </clipPath>
    </defs>
</svg>
