<svg width="80" height="80" viewBox="0 0 80 80" fill="none" xmlns="http://www.w3.org/2000/svg">
    <g clip-path="url(#clip0_165_7396)">
        <path d="M31.9888 26.6914C28.1139 26.6914 24.239 26.6854 20.3641 26.6934C18.3706 26.6974 17.3568 27.7292 17.3568 29.7328C17.3528 34.7296 17.4129 39.7265 17.3268 44.7214C17.2927 46.743 18.4908 48.2176 20.6006 47.9832C21.2457 47.911 21.3719 48.1695 21.3619 48.7645C21.3279 50.69 21.3439 52.6154 21.3579 54.5408C21.3619 55.2641 21.6645 55.795 22.4338 55.9473C23.079 56.0755 23.5137 55.7209 23.9325 55.3021C26.0062 53.2185 28.0859 51.1428 30.1655 49.0631C30.4601 48.7686 30.7646 48.4841 31.0471 48.1795C31.2815 47.9251 31.5781 47.9511 31.8425 48.0232C32.1591 48.1094 32.0028 48.4199 32.0048 48.6243C32.0188 50.0288 32.0128 51.4353 32.0108 52.8398C32.0068 54.9956 32.9866 55.9894 35.1404 55.9914C38.9892 55.9954 42.838 56.0034 46.6869 55.9814C47.2278 55.9774 47.5965 56.1436 47.9732 56.5263C50.2171 58.8064 52.4912 61.0564 54.7432 63.3284C55.2581 63.8473 55.8271 64.1779 56.5424 63.8493C57.1915 63.5508 57.3218 62.9497 57.3157 62.2765C57.2957 60.4553 57.3498 58.6321 57.2897 56.8128C57.2656 56.0916 57.4961 55.9673 58.1532 55.9774C60.275 56.0114 61.2928 55.0136 61.3008 52.9219C61.3148 47.8469 61.3168 42.7719 61.3048 37.6989C61.3008 35.6994 60.259 34.6896 58.2574 34.6876C54.6169 34.6836 50.9765 34.6735 47.334 34.6996C46.781 34.7036 46.6348 34.5493 46.6508 34.0084C46.6889 32.6039 46.6648 31.1974 46.6628 29.7929C46.6608 27.7252 45.621 26.6914 43.5353 26.6894C39.6864 26.6874 35.8376 26.6894 31.9888 26.6894V26.6914Z" fill="#FDFDFD"/>
        <path d="M3.26379 24.0286C3.31588 24.3913 3.1015 24.6137 3.01134 24.8761C2.91116 25.1706 2.77692 25.4531 2.67474 25.7457C2.38623 26.5751 2.6527 27.2523 3.37599 27.5589C4.08524 27.8594 4.77647 27.5529 5.13911 26.7474C5.43564 26.0843 5.72215 25.4151 5.96458 24.7319C6.15692 24.1909 6.46547 24.0126 7.05652 24.0166C12.1015 24.0426 17.1484 24.0346 22.1934 24.0286C23.5518 24.0286 24.0146 23.5578 24.0186 22.1974C24.0246 20.7147 24.0266 19.2301 24.0186 17.7475C24.0026 15.1468 23.0108 13.0591 20.7568 11.6627C20.3621 11.4182 19.729 11.3381 19.5687 11.0075C19.4145 10.6889 19.737 10.144 19.8412 9.69517C19.8873 9.49281 19.9434 9.28645 19.9414 9.08208C19.9374 8.63529 20.1718 8.39086 20.5384 8.18249C21.3299 7.7377 22.1213 7.2889 22.8746 6.784C23.4837 6.37728 23.5558 5.7662 23.2473 5.13107C22.9708 4.55805 22.2916 4.29559 21.6544 4.55204C21.1275 4.76242 20.6206 5.0349 20.1377 5.33543C19.7531 5.57586 19.6088 5.52577 19.4285 5.093C18.5209 2.88909 16.9521 1.3143 14.7061 0.518884C11.5946 -0.581069 8.76756 0.0881194 6.44343 2.35614C4.17941 4.56607 3.53026 7.32096 4.40982 10.3824C4.54406 10.8472 4.55207 11.0436 4.04117 11.28C1.74309 12.3359 0.370651 14.1371 0.112192 16.6716C-0.0901672 18.6671 0.0380604 20.6767 0.0520853 22.6782C0.058096 23.5297 0.609074 23.9765 1.55475 24.0226C2.12176 24.0507 2.69077 24.0286 3.25978 24.0286H3.26379Z" fill="#FDFDFD"/>
        <path d="M0.0621152 40.7263C0.0941721 42.6537 0.278499 44.5671 0.571018 46.4705C0.725292 47.4783 1.29831 47.9572 2.11376 47.8389C2.88713 47.7267 3.28383 47.1257 3.19167 46.1479C3.08548 45.036 2.93121 43.928 2.83303 42.816C2.65071 40.7123 2.69479 38.6086 2.84305 36.5008C2.90516 35.6092 2.38624 35.0523 1.61086 35.0102C0.855523 34.9701 0.272489 35.501 0.204368 36.3626C0.090165 37.8152 -0.0260413 39.2677 0.0641188 40.7263H0.0621152Z" fill="#FDFDFD"/>
        <path d="M29.0636 4.26357C29.1538 4.25154 29.314 4.25555 29.4603 4.21147C31.7003 3.54229 33.9943 3.1556 36.3085 2.85907C37.16 2.74888 37.6889 2.10974 37.6007 1.39648C37.5026 0.599061 36.7973 0.1142 35.8757 0.236417C34.8479 0.372659 33.82 0.504893 32.8002 0.685214C31.3997 0.931651 30.0093 1.24421 28.6569 1.68699C27.9216 1.92742 27.577 2.51646 27.6851 3.17163C27.7893 3.80675 28.3343 4.25956 29.0656 4.26357H29.0636Z" fill="#FDFDFD"/>
        <path d="M43.6615 0.204329C43.1045 0.184294 42.4874 0.673161 42.4073 1.39043C42.3291 2.08968 42.7799 2.73482 43.5293 2.833C45.9195 3.14154 48.2837 3.5683 50.6078 4.22146C51.3872 4.43985 52.0724 4.01509 52.2748 3.33188C52.4852 2.61661 52.0905 1.89934 51.275 1.65891C48.8607 0.945645 46.3984 0.464791 43.6615 0.206333V0.204329Z" fill="#FDFDFD"/>
        <path d="M79.9439 23.1431C79.1505 24.4253 77.8241 23.8944 76.648 24.0747C76.8785 24.6598 77.1109 25.2027 77.3092 25.7577C77.6037 26.5852 77.3272 27.2604 76.598 27.5629C75.8867 27.8574 75.2015 27.5489 74.8388 26.7394C74.5323 26.0522 74.2458 25.357 73.9813 24.6517C73.803 24.1749 73.5245 24.0146 72.9936 24.0166C68.0007 24.0407 63.0078 24.0306 58.017 24.0286C56.334 24.0286 55.9433 23.65 55.9633 21.961C55.9834 20.272 55.8872 18.581 56.0274 16.892C56.2498 14.2052 57.6523 12.3559 60.0526 11.2379C60.4373 11.0576 60.5815 10.9154 60.3792 10.5167C60.287 10.3343 60.2028 10.1199 60.2109 9.9236C60.267 8.60526 59.3774 8.04025 58.3756 7.54738C58.027 7.37507 57.6804 7.19275 57.3538 6.98438C56.5985 6.50353 56.37 5.80228 56.7287 5.13109C57.0753 4.48394 57.8407 4.27958 58.618 4.65224C59.0388 4.8546 59.4535 5.077 59.8422 5.33345C60.2149 5.57989 60.3651 5.53781 60.5515 5.09703C61.5693 2.68275 63.3204 1.04584 65.8609 0.338584C68.8302 -0.486881 71.4548 0.284488 73.5906 2.40625C75.7404 4.54205 76.4216 7.20076 75.6302 10.15C75.4559 10.8012 75.4639 11.0796 76.1371 11.3882C78.1026 12.2858 79.2747 13.8766 79.7856 15.9643C79.8137 16.0825 79.7736 16.2308 79.9439 16.2749V23.1471V23.1431ZM67.9286 21.3539C70.8397 21.3559 73.7509 21.3579 76.6621 21.3539C76.9526 21.3539 77.3032 21.4701 77.2912 20.9371C77.2611 19.6108 77.3533 18.2764 77.2351 16.9601C77.0888 15.3232 76.1572 14.1972 74.6084 13.5941C74.1536 13.4158 73.831 13.4519 73.4343 13.8165C70.1605 16.8299 65.7026 16.8078 62.4208 13.7804C62.1142 13.4979 61.8638 13.4018 61.4651 13.546C59.8803 14.117 58.8705 15.1889 58.7122 16.884C58.596 18.1221 58.6801 19.3784 58.618 20.6246C58.59 21.2036 58.7523 21.3759 59.3473 21.3699C62.2064 21.3379 65.0675 21.3559 67.9286 21.3559V21.3539ZM73.262 8.05228C73.2861 5.15113 70.8938 2.71681 67.9967 2.69477C65.0735 2.67273 62.6392 5.10304 62.6312 8.05228C62.6252 10.8693 65.0675 13.2956 67.9205 13.3096C70.8217 13.3236 73.238 10.9454 73.26 8.05228H73.262Z" fill="#040404"/>
        <path d="M0.817457 79.99C0.138251 79.429 -0.0120154 78.6977 0.0240486 77.8482C0.100184 76.1091 -0.0781327 74.36 0.110202 72.6269C0.390699 70.0563 1.80321 68.2752 4.11731 67.2093C4.51802 67.025 4.57613 66.9188 4.4459 66.488C3.79875 64.3662 3.87488 62.2805 4.98485 60.313C5.22728 59.8843 5.17319 59.5697 4.94478 59.173C4.54407 58.4758 4.17942 57.7585 3.83882 57.0312C3.47417 56.2518 3.70658 55.5065 4.37177 55.1539C5.04095 54.8013 5.76424 55.0497 6.19701 55.8211C6.52559 56.4081 6.8121 57.0212 7.14068 57.6664C8.74352 56.5303 10.4906 55.8932 12.4661 56.0254C17.6654 56.3741 21.1475 61.3549 19.6489 66.3417C19.5046 66.8206 19.5006 67.0049 20.0135 67.2514C22.3657 68.3754 23.7722 70.2166 23.9345 72.8773C23.9746 73.5365 24.223 73.9112 24.8501 74.1175C25.4892 74.3259 26.1083 74.6004 26.7214 74.8789C27.5309 75.2476 27.8314 75.9187 27.5469 76.64C27.2524 77.3874 26.5471 77.6558 25.6776 77.3293C25.1486 77.1329 24.6317 76.9065 24.0767 76.6821C23.8263 77.8662 24.5376 79.3168 22.9768 79.988H0.817457V79.99ZM11.9753 77.3333V77.3293C14.8864 77.3293 17.7996 77.3152 20.7108 77.3433C21.2357 77.3473 21.3759 77.189 21.3599 76.6901C21.3259 75.6262 21.3679 74.5603 21.3399 73.4944C21.2878 71.4608 20.1478 69.9441 18.3906 69.4813C18.0781 69.3992 17.8837 69.4212 17.6433 69.6616C14.5659 72.7571 9.67718 72.8633 6.40738 69.6857C6.13289 69.4192 5.9105 69.4152 5.58392 69.5074C3.92297 69.9722 2.74688 71.5029 2.7008 73.3382C2.67275 74.4301 2.73085 75.5261 2.67876 76.616C2.65071 77.193 2.79897 77.3593 3.39403 77.3513C6.2531 77.3172 9.11418 77.3373 11.9733 77.3373L11.9753 77.3333ZM12.0574 69.2629C14.9866 69.2329 17.3869 66.8206 17.3488 63.9495C17.3087 61.0423 14.8744 58.6481 11.9893 58.6822C9.02803 58.7162 6.68187 61.1285 6.72394 64.0978C6.76602 66.9629 9.17229 69.295 12.0594 69.2649L12.0574 69.2629Z" fill="#040404"/>
        <path d="M56.8469 79.99C55.5606 79.1966 56.0936 77.8683 55.9193 76.6782C55.3583 76.9066 54.8393 77.131 54.3124 77.3293C53.4469 77.6539 52.7316 77.3874 52.4351 76.6461C52.1385 75.9028 52.4611 75.2336 53.3267 74.8509C53.8957 74.6005 54.4687 74.348 55.0577 74.1537C55.7289 73.9313 56.0214 73.5205 56.0535 72.8013C56.1376 70.8718 57.0232 69.3331 58.5139 68.139C58.8745 67.8485 59.2632 67.5419 59.69 67.3957C60.3932 67.1533 60.5054 66.8427 60.293 66.1094C59.3493 62.8236 60.5795 59.4856 63.3865 57.458C66.0332 55.5466 69.5515 55.5246 72.4526 57.3999C72.5608 57.4701 72.661 57.5482 72.8333 57.6684C73.1338 57.0714 73.4083 56.5003 73.7068 55.9413C74.1556 55.0958 74.8489 54.7973 75.5461 55.1239C76.2834 55.4705 76.5078 56.2319 76.0911 57.1054C75.7444 57.8307 75.3818 58.55 74.9851 59.2492C74.7847 59.6038 74.7647 59.8864 74.9711 60.253C76.0971 62.2465 76.1812 64.3503 75.5361 66.5061C75.4459 66.8086 75.3397 66.995 75.7364 67.1613C77.9263 68.0769 79.2787 69.7058 79.8016 72.0259C79.8157 72.084 79.8958 72.1281 79.9439 72.1782V79.2066C79.6313 79.4671 79.3188 79.7276 79.0082 79.988H56.8469V79.99ZM67.9206 77.3293C69.3771 77.3293 70.8337 77.3293 72.2903 77.3293C73.7469 77.3293 75.2035 77.3073 76.6581 77.3433C77.169 77.3554 77.3192 77.2131 77.2992 76.6982C77.2571 75.5802 77.3152 74.4602 77.2772 73.3422C77.2151 71.5611 76.3455 70.3068 74.7046 69.5956C74.2197 69.3852 73.817 69.3471 73.4083 69.824C73.0777 70.2087 72.6269 70.5092 72.1861 70.7797C68.9905 72.7452 65.2839 72.3925 62.527 69.824C62.1143 69.4413 61.7676 69.3772 61.3068 69.5655C59.8202 70.1726 58.8505 71.2305 58.7122 72.8634C58.608 74.1036 58.6782 75.3558 58.6221 76.602C58.596 77.163 58.7262 77.3554 59.3393 77.3473C62.1984 77.3093 65.0595 77.3313 67.9206 77.3313V77.3293ZM67.9947 69.265C70.9299 69.2389 73.2961 66.8507 73.26 63.9496C73.224 61.0083 70.8277 58.6441 67.9266 58.6842C64.9994 58.7243 62.6111 61.1306 62.6352 64.0177C62.6592 66.9188 65.0835 69.291 67.9947 69.265Z" fill="#040404"/>
        <path d="M79.9439 43.2889C79.5652 44.1524 79.6053 45.0901 79.4871 45.9957C79.3148 47.32 78.872 47.9211 77.9644 47.857C77.0628 47.7929 76.654 47.1257 76.8243 45.7873C77.207 42.814 77.4054 39.8407 77.1429 36.8414C77.0407 35.6854 77.4995 35.0663 78.343 35.0102C79.1745 34.9561 79.6514 35.495 79.7916 36.6551C79.8036 36.7633 79.8177 36.8574 79.9439 36.8855V43.2889Z" fill="#040404"/>
        <path d="M36.8694 79.99C36.3966 79.6654 35.8376 79.8056 35.3247 79.7115C34.4532 79.5512 33.9763 79.0443 34.0444 78.2529C34.1085 77.5056 34.7357 76.9646 35.5852 77.0608C38.5104 77.3913 41.4295 77.3934 44.3567 77.0648C45.2203 76.9686 45.8414 77.4855 45.9235 78.2328C46.0097 79.0263 45.5008 79.5432 44.5831 79.7215C43.9901 79.8357 43.359 79.6754 42.8 79.99H36.8694Z" fill="#040404"/>
        <path d="M79.0082 79.99C79.3208 79.7295 79.6334 79.4691 79.9439 79.2086C80.2204 80.1763 79.5272 79.978 79.0082 79.99Z" fill="#040404"/>
        <path d="M31.9888 26.6913C35.8376 26.6913 39.6864 26.6913 43.5353 26.6913C45.621 26.6913 46.6588 27.7252 46.6628 29.7948C46.6628 31.1993 46.6869 32.6058 46.6508 34.0103C46.6368 34.5513 46.783 34.7056 47.334 34.7016C50.9745 34.6755 54.6149 34.6855 58.2574 34.6895C60.259 34.6895 61.3008 35.7013 61.3048 37.7009C61.3168 42.7759 61.3168 47.8509 61.3008 52.9239C61.2948 55.0156 60.277 56.0114 58.1532 55.9793C57.4961 55.9693 57.2656 56.0955 57.2897 56.8148C57.3518 58.634 57.2977 60.4573 57.3157 62.2785C57.3237 62.9517 57.1915 63.5528 56.5424 63.8513C55.8271 64.1799 55.2581 63.8513 54.7432 63.3304C52.4892 61.0583 50.2151 58.8083 47.9732 56.5283C47.5965 56.1456 47.2278 55.9793 46.6869 55.9833C42.838 56.0054 38.9892 55.9994 35.1404 55.9933C32.9845 55.9913 32.0068 54.9976 32.0108 52.8418C32.0128 51.4373 32.0188 50.0308 32.0048 48.6263C32.0028 48.4219 32.1571 48.1114 31.8425 48.0252C31.5781 47.9531 31.2815 47.929 31.0471 48.1815C30.7646 48.486 30.4601 48.7705 30.1655 49.0651C28.0879 51.1447 26.0082 53.2204 23.9325 55.3041C23.5157 55.7229 23.079 56.0775 22.4338 55.9493C21.6665 55.797 21.3639 55.2661 21.3579 54.5428C21.3459 52.6174 21.3279 50.6919 21.3619 48.7665C21.3719 48.1715 21.2457 47.915 20.6006 47.9851C18.4888 48.2196 17.2927 46.7449 17.3268 44.7233C17.4109 39.7285 17.3528 34.7316 17.3568 29.7347C17.3568 27.7312 18.3706 26.7014 20.3641 26.6953C24.239 26.6853 28.1139 26.6933 31.9888 26.6933V26.6913ZM54.651 59.5116C54.651 57.7845 54.641 56.3279 54.655 54.8714C54.665 53.8836 55.1439 53.3807 56.1216 53.3286C56.7187 53.2966 57.3217 53.2785 57.9128 53.3366C58.5058 53.3947 58.6361 53.1864 58.6341 52.6153C58.614 47.7788 58.614 42.9402 58.6421 38.1036C58.6461 37.5125 58.5159 37.3342 57.8948 37.3362C50.3834 37.3603 42.8721 37.3603 35.3608 37.3422C34.8378 37.3422 34.6655 37.4364 34.6695 38.0034C34.6916 42.866 34.6936 47.7307 34.6575 52.5933C34.6535 53.2425 34.8739 53.3306 35.4409 53.3286C39.2617 53.3086 43.0825 53.3607 46.9033 53.3006C48.0693 53.2825 48.9168 53.6292 49.7062 54.4787C51.255 56.1456 52.8939 57.7304 54.651 59.5096V59.5116ZM24.0246 51.4613C25.8419 49.6301 27.5249 47.9811 29.1497 46.2781C29.7889 45.6069 30.4741 45.2022 31.4077 45.3324C31.9106 45.4025 32.0048 45.1862 32.0008 44.7213C31.9768 42.4052 31.9828 40.0911 31.9928 37.775C32.0028 35.6472 32.9685 34.6815 35.0843 34.6775C37.8151 34.6715 40.544 34.6575 43.2728 34.6915C43.8699 34.6996 44.0241 34.5232 44.0061 33.9482C43.966 32.674 43.964 31.3977 44.0081 30.1254C44.0302 29.5184 43.8498 29.3521 43.2347 29.3521C35.7475 29.3721 28.2602 29.3701 20.7709 29.3521C20.1878 29.3521 19.9935 29.4623 19.9975 30.0974C20.0296 34.4411 20.0075 38.7868 20.0195 43.1305C20.0195 43.8498 19.707 44.8055 20.1578 45.2182C20.5465 45.5729 21.4881 45.3244 22.1854 45.3304C23.5338 45.3424 24.0106 45.8053 24.0206 47.1577C24.0307 48.5101 24.0226 49.8605 24.0226 51.4633L24.0246 51.4613Z" fill="#040404"/>
        <path d="M3.26379 24.0286C2.69478 24.0286 2.12577 24.0507 1.55877 24.0226C0.613087 23.9765 0.062109 23.5297 0.0560984 22.6782C0.0420735 20.6747 -0.0881577 18.6651 0.116205 16.6716C0.374664 14.1371 1.7471 12.3359 4.04318 11.28C4.55408 11.0456 4.54607 10.8492 4.41183 10.3824C3.53227 7.32096 4.18142 4.56406 6.44544 2.35615C8.76756 0.0881194 11.5946 -0.581069 14.7081 0.518884C16.9541 1.31229 18.5229 2.88909 19.4305 5.093C19.6088 5.52577 19.7531 5.57586 20.1397 5.33543C20.6206 5.0349 21.1295 4.76242 21.6564 4.55204C22.2936 4.29759 22.9708 4.55805 23.2493 5.13107C23.5578 5.7682 23.4857 6.37728 22.8766 6.784C22.1233 7.2889 21.3319 7.7377 20.5405 8.18249C20.1718 8.38885 19.9394 8.63529 19.9434 9.08208C19.9454 9.28645 19.8913 9.49482 19.8432 9.69517C19.739 10.142 19.4165 10.6889 19.5707 11.0075C19.731 11.3401 20.3661 11.4202 20.7588 11.6627C23.0149 13.0591 24.0046 15.1468 24.0206 17.7475C24.0307 19.2301 24.0266 20.7147 24.0206 22.1974C24.0166 23.5578 23.5538 24.0266 22.1954 24.0286C17.1504 24.0326 12.1035 24.0426 7.05853 24.0166C6.46748 24.0126 6.15893 24.1909 5.96659 24.7319C5.72216 25.4151 5.43765 26.0843 5.14112 26.7474C4.77848 27.5549 4.08725 27.8594 3.378 27.5589C2.65271 27.2523 2.38824 26.5751 2.67675 25.7457C2.77893 25.4511 2.91317 25.1686 3.01335 24.8761C3.1015 24.6137 3.31789 24.3913 3.2658 24.0286H3.26379ZM11.9712 21.3539C14.8824 21.3539 17.7956 21.3539 20.7068 21.3559C21.0574 21.3559 21.3799 21.3999 21.3579 20.863C21.3038 19.5386 21.4421 18.2063 21.2818 16.8859C21.0814 15.231 20.1438 14.1551 18.595 13.5741C18.1903 13.4218 17.9078 13.4558 17.5612 13.7764C14.2473 16.8298 9.83946 16.8278 6.48952 13.7724C6.1409 13.4538 5.8584 13.4298 5.45168 13.5701C3.86286 14.123 2.78494 15.4955 2.71482 17.1905C2.66673 18.3325 2.74086 19.4825 2.67875 20.6226C2.64269 21.2817 2.88913 21.3739 3.47016 21.3679C6.30319 21.3378 9.13622 21.3539 11.9692 21.3539H11.9712ZM6.71792 8.00016C6.7059 10.8873 9.11618 13.3056 12.0053 13.3116C14.8724 13.3156 17.3067 10.9434 17.3468 8.10635C17.3889 5.17916 14.9786 2.7248 12.0354 2.69875C9.15625 2.67271 6.72994 5.093 6.71792 8.00217V8.00016Z" fill="#040404"/>
        <path d="M0.0621122 40.7263C-0.0260443 39.2677 0.090162 37.8132 0.204365 36.3626C0.272486 35.501 0.85552 34.9701 1.61086 35.0102C2.38624 35.0502 2.90516 35.6072 2.84305 36.5008C2.69479 38.6066 2.65071 40.7103 2.83303 42.816C2.9292 43.928 3.08548 45.036 3.19167 46.1479C3.28583 47.1277 2.88713 47.7267 2.11375 47.8389C1.2963 47.9572 0.725289 47.4803 0.571015 46.4705C0.278496 44.5691 0.0941691 42.6537 0.0621122 40.7283V40.7263Z" fill="#040404"/>
        <path d="M29.0636 4.26357C28.3343 4.25956 27.7873 3.80675 27.6831 3.17163C27.5749 2.51646 27.9216 1.92742 28.6549 1.68699C30.0073 1.24421 31.3977 0.929647 32.7982 0.685214C33.818 0.506897 34.8478 0.372659 35.8737 0.236417C36.7953 0.1142 37.5026 0.599061 37.5987 1.39648C37.6849 2.10974 37.1579 2.74888 36.3064 2.85907C33.9923 3.1576 31.6983 3.54229 29.4583 4.21147C29.312 4.25555 29.1517 4.25355 29.0616 4.26357H29.0636Z" fill="#040404"/>
        <path d="M43.6615 0.204377C46.4004 0.464839 48.8627 0.945693 51.275 1.65696C52.0905 1.89738 52.4852 2.61466 52.2748 3.32992C52.0744 4.01314 51.3892 4.43989 50.6078 4.2195C48.2837 3.56634 45.9215 3.13959 43.5293 2.83104C42.7779 2.73487 42.3291 2.08772 42.4073 1.38848C42.4874 0.671205 43.1045 0.180334 43.6615 0.202373V0.204377Z" fill="#040404"/>
        <path d="M67.9286 21.3539C65.0675 21.3539 62.2084 21.3359 59.3474 21.368C58.7523 21.374 58.59 21.2037 58.6181 20.6226C58.6782 19.3764 58.596 18.1202 58.7122 16.882C58.8705 15.187 59.8803 14.1151 61.4651 13.5441C61.8638 13.3998 62.1163 13.498 62.4208 13.7785C65.7026 16.8059 70.1625 16.8259 73.4344 13.8146C73.8291 13.4499 74.1516 13.4159 74.6084 13.5922C76.1572 14.1952 77.0888 15.3212 77.2351 16.9581C77.3533 18.2745 77.2611 19.6109 77.2912 20.9352C77.3032 21.4661 76.9526 21.3519 76.6621 21.3519C73.7509 21.356 70.8398 21.3519 67.9286 21.3519V21.3539Z" fill="#FCFCFC"/>
        <path d="M73.264 8.05224C73.24 10.9454 70.8237 13.3236 67.9246 13.3096C65.0715 13.2955 62.6292 10.8672 62.6352 8.05224C62.6412 5.10501 65.0775 2.67269 68.0007 2.69473C70.8978 2.71677 73.2881 5.14908 73.266 8.05224H73.264Z" fill="#FCFCFC"/>
        <path d="M11.9753 77.3332C9.11418 77.3332 6.25511 77.3152 3.39603 77.3472C2.80298 77.3532 2.65472 77.189 2.68076 76.6119C2.73286 75.522 2.67676 74.4261 2.7028 73.3341C2.74888 71.4969 3.92497 69.9681 5.58592 69.5033C5.9105 69.4132 6.13289 69.4152 6.40938 69.6816C9.68119 72.8613 14.5679 72.7551 17.6453 69.6576C17.8837 69.4172 18.0801 69.3951 18.3927 69.4773C20.1498 69.9421 21.2898 71.4588 21.3419 73.4904C21.3699 74.5543 21.3279 75.6222 21.3619 76.6861C21.378 77.185 21.2377 77.3452 20.7128 77.3392C17.8016 77.3112 14.8884 77.3252 11.9773 77.3252V77.3292L11.9753 77.3332Z" fill="#FCFCFC"/>
        <path d="M12.0574 69.265C9.17028 69.295 6.76401 66.9649 6.72193 64.0978C6.67986 61.1285 9.02602 58.7163 11.9873 58.6822C14.8724 58.6501 17.3087 61.0444 17.3468 63.9495C17.3849 66.8226 14.9846 69.2329 12.0554 69.263L12.0574 69.265Z" fill="#FCFCFC"/>
        <path d="M67.9185 77.3293C65.0575 77.3293 62.1964 77.3092 59.3373 77.3453C58.7262 77.3533 58.596 77.161 58.62 76.6C58.6761 75.3558 58.606 74.1015 58.7102 72.8613C58.8464 71.2284 59.8162 70.1726 61.3048 69.5635C61.7656 69.3751 62.1142 69.4372 62.525 69.8219C65.2819 72.3905 68.9884 72.7431 72.1841 70.7776C72.6229 70.5072 73.0737 70.2066 73.4063 69.8219C73.815 69.3451 74.2177 69.3852 74.7026 69.5935C76.3435 70.3048 77.213 71.559 77.2752 73.3402C77.3152 74.4582 77.2551 75.5781 77.2972 76.6961C77.3172 77.211 77.167 77.3533 76.6561 77.3413C75.2015 77.3072 73.7429 77.3273 72.2883 77.3273C70.8317 77.3273 69.3751 77.3273 67.9185 77.3273V77.3293Z" fill="#FCFCFC"/>
        <path d="M67.9927 69.267C65.0815 69.293 62.6572 66.9208 62.6332 64.0196C62.6091 61.1325 64.9954 58.7262 67.9246 58.6862C70.8257 58.6461 73.222 61.0123 73.258 63.9515C73.2941 66.8527 70.9299 69.2409 67.9927 69.267Z" fill="#FCFCFC"/>
        <path d="M54.651 59.5116C52.8919 57.7325 51.255 56.1477 49.7062 54.4807C48.9168 53.6312 48.0693 53.2846 46.9032 53.3026C43.0845 53.3627 39.2617 53.3106 35.4409 53.3307C34.8739 53.3347 34.6535 53.2465 34.6575 52.5954C34.6916 47.7327 34.6916 42.8681 34.6695 38.0055C34.6675 37.4364 34.8378 37.3423 35.3608 37.3443C42.8721 37.3603 50.3834 37.3623 57.8948 37.3383C58.5159 37.3363 58.6441 37.5146 58.6421 38.1056C58.616 42.9422 58.614 47.7808 58.6341 52.6174C58.6361 53.1884 58.5058 53.3968 57.9128 53.3387C57.3197 53.2806 56.7167 53.2986 56.1216 53.3307C55.1419 53.3827 54.665 53.8856 54.655 54.8734C54.641 56.33 54.651 57.7866 54.651 59.5136V59.5116ZM42.5676 44.0161C43.8919 44.0161 45.2183 44.0482 46.5426 44.0061C47.4362 43.9781 47.9611 43.4291 47.9571 42.6657C47.9531 41.8944 47.4322 41.3714 46.5206 41.3614C43.948 41.3354 41.3754 41.3454 38.8029 41.3554C38.324 41.3554 37.8832 41.4876 37.5907 41.9244C37.3062 42.3512 37.2581 42.7859 37.4805 43.2508C37.751 43.8178 38.2559 44.0041 38.8249 44.0121C40.0711 44.0322 41.3193 44.0181 42.5676 44.0161ZM50.682 46.6869V46.6829C49.4077 46.6829 48.1334 46.6668 46.8612 46.6889C45.8955 46.7049 45.3345 47.2018 45.3224 47.9832C45.3104 48.7465 45.9055 49.3356 46.8191 49.3436C49.3656 49.3676 51.9141 49.3696 54.4607 49.3416C55.4103 49.3316 55.9493 48.7846 55.9413 47.9892C55.9333 47.1878 55.3983 46.7069 54.4246 46.6909C53.1764 46.6688 51.9302 46.6849 50.682 46.6849V46.6869ZM53.3126 41.3233C53.3126 41.3374 53.3126 41.3514 53.3126 41.3674C52.8478 41.3674 52.379 41.3334 51.9161 41.3754C51.1808 41.4416 50.692 41.9485 50.6519 42.6156C50.6138 43.2468 51.0907 43.8598 51.7959 43.952C52.8217 44.0862 53.8596 44.0983 54.8834 43.942C55.5967 43.8338 55.9553 43.3449 55.9313 42.6277C55.9092 41.9485 55.5386 41.5057 54.8574 41.4115C54.3485 41.3414 53.8275 41.3514 53.3126 41.3253V41.3233ZM39.995 49.3576C40.58 49.3215 41.155 49.4317 41.71 49.2454C42.3211 49.039 42.6557 48.6023 42.6297 47.9651C42.6036 47.2959 42.2269 46.8151 41.5558 46.737C40.5259 46.6187 39.4841 46.6288 38.4522 46.7309C37.773 46.7991 37.3884 47.2699 37.3523 47.9351C37.3162 48.5983 37.6568 49.0511 38.316 49.2554C38.877 49.4277 39.448 49.3095 39.995 49.3576Z" fill="#FCFCFC"/>
        <path d="M24.0246 51.4593C24.0246 49.8585 24.0327 48.5061 24.0226 47.1537C24.0126 45.8013 23.5358 45.3384 22.1874 45.3264C21.4901 45.3204 20.5485 45.5688 20.1598 45.2142C19.709 44.8015 20.0235 43.8458 20.0215 43.1265C20.0095 38.7808 20.0316 34.4371 19.9995 30.0934C19.9955 29.4582 20.1898 29.346 20.7729 29.348C28.2602 29.3681 35.7475 29.3701 43.2367 29.348C43.8518 29.348 44.0302 29.5123 44.0101 30.1214C43.966 31.3957 43.968 32.6719 44.0081 33.9442C44.0261 34.5192 43.8719 34.6955 43.2748 34.6875C40.546 34.6535 37.8151 34.6675 35.0863 34.6735C32.9725 34.6795 32.0048 35.6432 31.9948 37.771C31.9848 40.0871 31.9788 42.4012 32.0028 44.7173C32.0068 45.1822 31.9126 45.3985 31.4098 45.3284C30.4761 45.1982 29.7909 45.6029 29.1517 46.2741C27.5249 47.9771 25.8439 49.626 24.0266 51.4573L24.0246 51.4593Z" fill="#FDFDFD"/>
        <path d="M11.9712 21.3539C9.13821 21.3539 6.30518 21.3379 3.47216 21.3679C2.89112 21.3739 2.64268 21.2818 2.68075 20.6226C2.74487 19.4806 2.67073 18.3325 2.71682 17.1905C2.78694 15.4955 3.86485 14.1231 5.45367 13.5701C5.8604 13.4278 6.1429 13.4539 6.49152 13.7724C9.84146 16.8279 14.2493 16.8299 17.5632 13.7764C17.9098 13.4579 18.1903 13.4218 18.597 13.5741C20.1458 14.1551 21.0834 15.231 21.2838 16.886C21.4441 18.2063 21.3038 19.5387 21.3599 20.863C21.3819 21.402 21.0594 21.3579 20.7088 21.3559C17.7976 21.3519 14.8844 21.3539 11.9732 21.3559L11.9712 21.3539Z" fill="#FCFCFC"/>
        <path d="M6.71793 8.00015C6.72995 5.09299 9.15625 2.6707 12.0354 2.69674C14.9786 2.72279 17.3889 5.17714 17.3468 8.10434C17.3067 10.9414 14.8724 13.3136 12.0053 13.3096C9.11618 13.3056 6.70791 10.8853 6.71793 7.99815V8.00015Z" fill="#FCFCFC"/>
        <path d="M42.5675 44.0161C41.3193 44.0161 40.0731 44.0301 38.8249 44.0101C38.2559 44.0001 37.751 43.8157 37.4805 43.2487C37.2581 42.7839 37.3062 42.3471 37.5907 41.9224C37.8832 41.4836 38.324 41.3534 38.8029 41.3534C41.3754 41.3454 43.948 41.3333 46.5206 41.3594C47.4342 41.3694 47.9551 41.8943 47.9571 42.6637C47.9611 43.4271 47.4362 43.976 46.5426 44.0041C45.2183 44.0462 43.8919 44.0141 42.5675 44.0161Z" fill="#040404"/>
        <path d="M50.682 46.6849C51.9302 46.6849 53.1784 46.6688 54.4246 46.6909C55.3983 46.7069 55.9333 47.1898 55.9413 47.9892C55.9493 48.7826 55.4104 49.3296 54.4607 49.3416C51.9141 49.3716 49.3656 49.3676 46.8191 49.3436C45.9055 49.3356 45.3084 48.7445 45.3224 47.9832C45.3365 47.1998 45.8955 46.7049 46.8612 46.6889C48.1354 46.6668 49.4077 46.6829 50.682 46.6829V46.6869V46.6849Z" fill="#040404"/>
        <path d="M53.3126 41.3213C53.8275 41.3474 54.3485 41.3374 54.8574 41.4075C55.5386 41.5017 55.9072 41.9444 55.9313 42.6237C55.9553 43.3409 55.5967 43.8298 54.8834 43.938C53.8596 44.0943 52.8198 44.0822 51.7959 43.948C51.0907 43.8558 50.6138 43.2427 50.6519 42.6116C50.692 41.9464 51.1808 41.4396 51.9161 41.3714C52.377 41.3294 52.8458 41.3634 53.3126 41.3634C53.3126 41.3494 53.3126 41.3354 53.3126 41.3193V41.3213Z" fill="#040404"/>
        <path d="M39.995 49.3556C39.448 49.3075 38.877 49.4258 38.316 49.2534C37.6568 49.0511 37.3182 48.5983 37.3523 47.9331C37.3884 47.2679 37.773 46.7971 38.4523 46.729C39.4841 46.6268 40.5259 46.6148 41.5558 46.735C42.227 46.8131 42.6036 47.292 42.6297 47.9632C42.6557 48.6003 42.3211 49.0371 41.71 49.2434C41.155 49.4318 40.58 49.3216 39.995 49.3556Z" fill="#040404"/>
    </g>
    <defs>
        <clipPath id="clip0_165_7396">
            <rect width="80.008" height="80" fill="white"/>
        </clipPath>
    </defs>
</svg>
